%TF.GenerationSoftware,KiCad,Pcbnew,8.0.8*%
%TF.CreationDate,2025-02-10T22:14:39-08:00*%
%TF.ProjectId,CMOD_A7_Lower,434d4f44-5f41-4375-9f4c-6f7765722e6b,rev?*%
%TF.SameCoordinates,Original*%
%TF.FileFunction,Legend,Top*%
%TF.FilePolarity,Positive*%
%FSLAX46Y46*%
G04 Gerber Fmt 4.6, Leading zero omitted, Abs format (unit mm)*
G04 Created by KiCad (PCBNEW 8.0.8) date 2025-02-10 22:14:39*
%MOMM*%
%LPD*%
G01*
G04 APERTURE LIST*
%ADD10C,0.400000*%
%ADD11C,0.150000*%
%ADD12C,0.120000*%
%ADD13C,0.152400*%
%ADD14C,0.508000*%
G04 APERTURE END LIST*
D10*
X76000000Y-60500000D02*
X76000000Y-55500000D01*
X96000000Y-55500000D02*
X96000000Y-60250000D01*
X96000000Y-55500000D02*
X76000000Y-55500000D01*
X82428571Y-57436819D02*
X81761904Y-57436819D01*
X81761904Y-58484438D02*
X81761904Y-56484438D01*
X81761904Y-56484438D02*
X82714285Y-56484438D01*
X84619047Y-58484438D02*
X83952380Y-57532057D01*
X83476190Y-58484438D02*
X83476190Y-56484438D01*
X83476190Y-56484438D02*
X84238095Y-56484438D01*
X84238095Y-56484438D02*
X84428571Y-56579676D01*
X84428571Y-56579676D02*
X84523809Y-56674914D01*
X84523809Y-56674914D02*
X84619047Y-56865390D01*
X84619047Y-56865390D02*
X84619047Y-57151104D01*
X84619047Y-57151104D02*
X84523809Y-57341580D01*
X84523809Y-57341580D02*
X84428571Y-57436819D01*
X84428571Y-57436819D02*
X84238095Y-57532057D01*
X84238095Y-57532057D02*
X83476190Y-57532057D01*
X85857142Y-56484438D02*
X86238095Y-56484438D01*
X86238095Y-56484438D02*
X86428571Y-56579676D01*
X86428571Y-56579676D02*
X86619047Y-56770152D01*
X86619047Y-56770152D02*
X86714285Y-57151104D01*
X86714285Y-57151104D02*
X86714285Y-57817771D01*
X86714285Y-57817771D02*
X86619047Y-58198723D01*
X86619047Y-58198723D02*
X86428571Y-58389200D01*
X86428571Y-58389200D02*
X86238095Y-58484438D01*
X86238095Y-58484438D02*
X85857142Y-58484438D01*
X85857142Y-58484438D02*
X85666666Y-58389200D01*
X85666666Y-58389200D02*
X85476190Y-58198723D01*
X85476190Y-58198723D02*
X85380952Y-57817771D01*
X85380952Y-57817771D02*
X85380952Y-57151104D01*
X85380952Y-57151104D02*
X85476190Y-56770152D01*
X85476190Y-56770152D02*
X85666666Y-56579676D01*
X85666666Y-56579676D02*
X85857142Y-56484438D01*
X87571428Y-58484438D02*
X87571428Y-56484438D01*
X87571428Y-56484438D02*
X88714285Y-58484438D01*
X88714285Y-58484438D02*
X88714285Y-56484438D01*
X89380952Y-56484438D02*
X90523809Y-56484438D01*
X89952380Y-58484438D02*
X89952380Y-56484438D01*
D11*
X92857142Y-106359580D02*
X92809523Y-106407200D01*
X92809523Y-106407200D02*
X92666666Y-106454819D01*
X92666666Y-106454819D02*
X92571428Y-106454819D01*
X92571428Y-106454819D02*
X92428571Y-106407200D01*
X92428571Y-106407200D02*
X92333333Y-106311961D01*
X92333333Y-106311961D02*
X92285714Y-106216723D01*
X92285714Y-106216723D02*
X92238095Y-106026247D01*
X92238095Y-106026247D02*
X92238095Y-105883390D01*
X92238095Y-105883390D02*
X92285714Y-105692914D01*
X92285714Y-105692914D02*
X92333333Y-105597676D01*
X92333333Y-105597676D02*
X92428571Y-105502438D01*
X92428571Y-105502438D02*
X92571428Y-105454819D01*
X92571428Y-105454819D02*
X92666666Y-105454819D01*
X92666666Y-105454819D02*
X92809523Y-105502438D01*
X92809523Y-105502438D02*
X92857142Y-105550057D01*
X93809523Y-106454819D02*
X93238095Y-106454819D01*
X93523809Y-106454819D02*
X93523809Y-105454819D01*
X93523809Y-105454819D02*
X93428571Y-105597676D01*
X93428571Y-105597676D02*
X93333333Y-105692914D01*
X93333333Y-105692914D02*
X93238095Y-105740533D01*
X94428571Y-105454819D02*
X94523809Y-105454819D01*
X94523809Y-105454819D02*
X94619047Y-105502438D01*
X94619047Y-105502438D02*
X94666666Y-105550057D01*
X94666666Y-105550057D02*
X94714285Y-105645295D01*
X94714285Y-105645295D02*
X94761904Y-105835771D01*
X94761904Y-105835771D02*
X94761904Y-106073866D01*
X94761904Y-106073866D02*
X94714285Y-106264342D01*
X94714285Y-106264342D02*
X94666666Y-106359580D01*
X94666666Y-106359580D02*
X94619047Y-106407200D01*
X94619047Y-106407200D02*
X94523809Y-106454819D01*
X94523809Y-106454819D02*
X94428571Y-106454819D01*
X94428571Y-106454819D02*
X94333333Y-106407200D01*
X94333333Y-106407200D02*
X94285714Y-106359580D01*
X94285714Y-106359580D02*
X94238095Y-106264342D01*
X94238095Y-106264342D02*
X94190476Y-106073866D01*
X94190476Y-106073866D02*
X94190476Y-105835771D01*
X94190476Y-105835771D02*
X94238095Y-105645295D01*
X94238095Y-105645295D02*
X94285714Y-105550057D01*
X94285714Y-105550057D02*
X94333333Y-105502438D01*
X94333333Y-105502438D02*
X94428571Y-105454819D01*
X78333333Y-106359580D02*
X78285714Y-106407200D01*
X78285714Y-106407200D02*
X78142857Y-106454819D01*
X78142857Y-106454819D02*
X78047619Y-106454819D01*
X78047619Y-106454819D02*
X77904762Y-106407200D01*
X77904762Y-106407200D02*
X77809524Y-106311961D01*
X77809524Y-106311961D02*
X77761905Y-106216723D01*
X77761905Y-106216723D02*
X77714286Y-106026247D01*
X77714286Y-106026247D02*
X77714286Y-105883390D01*
X77714286Y-105883390D02*
X77761905Y-105692914D01*
X77761905Y-105692914D02*
X77809524Y-105597676D01*
X77809524Y-105597676D02*
X77904762Y-105502438D01*
X77904762Y-105502438D02*
X78047619Y-105454819D01*
X78047619Y-105454819D02*
X78142857Y-105454819D01*
X78142857Y-105454819D02*
X78285714Y-105502438D01*
X78285714Y-105502438D02*
X78333333Y-105550057D01*
X78809524Y-106454819D02*
X79000000Y-106454819D01*
X79000000Y-106454819D02*
X79095238Y-106407200D01*
X79095238Y-106407200D02*
X79142857Y-106359580D01*
X79142857Y-106359580D02*
X79238095Y-106216723D01*
X79238095Y-106216723D02*
X79285714Y-106026247D01*
X79285714Y-106026247D02*
X79285714Y-105645295D01*
X79285714Y-105645295D02*
X79238095Y-105550057D01*
X79238095Y-105550057D02*
X79190476Y-105502438D01*
X79190476Y-105502438D02*
X79095238Y-105454819D01*
X79095238Y-105454819D02*
X78904762Y-105454819D01*
X78904762Y-105454819D02*
X78809524Y-105502438D01*
X78809524Y-105502438D02*
X78761905Y-105550057D01*
X78761905Y-105550057D02*
X78714286Y-105645295D01*
X78714286Y-105645295D02*
X78714286Y-105883390D01*
X78714286Y-105883390D02*
X78761905Y-105978628D01*
X78761905Y-105978628D02*
X78809524Y-106026247D01*
X78809524Y-106026247D02*
X78904762Y-106073866D01*
X78904762Y-106073866D02*
X79095238Y-106073866D01*
X79095238Y-106073866D02*
X79190476Y-106026247D01*
X79190476Y-106026247D02*
X79238095Y-105978628D01*
X79238095Y-105978628D02*
X79285714Y-105883390D01*
X71238095Y-98254819D02*
X71238095Y-97254819D01*
X71238095Y-97731009D02*
X71809523Y-97731009D01*
X71809523Y-98254819D02*
X71809523Y-97254819D01*
X72809523Y-98254819D02*
X72238095Y-98254819D01*
X72523809Y-98254819D02*
X72523809Y-97254819D01*
X72523809Y-97254819D02*
X72428571Y-97397676D01*
X72428571Y-97397676D02*
X72333333Y-97492914D01*
X72333333Y-97492914D02*
X72238095Y-97540533D01*
X50404819Y-93833333D02*
X51119104Y-93833333D01*
X51119104Y-93833333D02*
X51261961Y-93880952D01*
X51261961Y-93880952D02*
X51357200Y-93976190D01*
X51357200Y-93976190D02*
X51404819Y-94119047D01*
X51404819Y-94119047D02*
X51404819Y-94214285D01*
X50404819Y-93452380D02*
X50404819Y-92833333D01*
X50404819Y-92833333D02*
X50785771Y-93166666D01*
X50785771Y-93166666D02*
X50785771Y-93023809D01*
X50785771Y-93023809D02*
X50833390Y-92928571D01*
X50833390Y-92928571D02*
X50881009Y-92880952D01*
X50881009Y-92880952D02*
X50976247Y-92833333D01*
X50976247Y-92833333D02*
X51214342Y-92833333D01*
X51214342Y-92833333D02*
X51309580Y-92880952D01*
X51309580Y-92880952D02*
X51357200Y-92928571D01*
X51357200Y-92928571D02*
X51404819Y-93023809D01*
X51404819Y-93023809D02*
X51404819Y-93309523D01*
X51404819Y-93309523D02*
X51357200Y-93404761D01*
X51357200Y-93404761D02*
X51309580Y-93452380D01*
X92690476Y-73954819D02*
X92690476Y-74669104D01*
X92690476Y-74669104D02*
X92642857Y-74811961D01*
X92642857Y-74811961D02*
X92547619Y-74907200D01*
X92547619Y-74907200D02*
X92404762Y-74954819D01*
X92404762Y-74954819D02*
X92309524Y-74954819D01*
X93690476Y-74954819D02*
X93119048Y-74954819D01*
X93404762Y-74954819D02*
X93404762Y-73954819D01*
X93404762Y-73954819D02*
X93309524Y-74097676D01*
X93309524Y-74097676D02*
X93214286Y-74192914D01*
X93214286Y-74192914D02*
X93119048Y-74240533D01*
X94166667Y-74954819D02*
X94357143Y-74954819D01*
X94357143Y-74954819D02*
X94452381Y-74907200D01*
X94452381Y-74907200D02*
X94500000Y-74859580D01*
X94500000Y-74859580D02*
X94595238Y-74716723D01*
X94595238Y-74716723D02*
X94642857Y-74526247D01*
X94642857Y-74526247D02*
X94642857Y-74145295D01*
X94642857Y-74145295D02*
X94595238Y-74050057D01*
X94595238Y-74050057D02*
X94547619Y-74002438D01*
X94547619Y-74002438D02*
X94452381Y-73954819D01*
X94452381Y-73954819D02*
X94261905Y-73954819D01*
X94261905Y-73954819D02*
X94166667Y-74002438D01*
X94166667Y-74002438D02*
X94119048Y-74050057D01*
X94119048Y-74050057D02*
X94071429Y-74145295D01*
X94071429Y-74145295D02*
X94071429Y-74383390D01*
X94071429Y-74383390D02*
X94119048Y-74478628D01*
X94119048Y-74478628D02*
X94166667Y-74526247D01*
X94166667Y-74526247D02*
X94261905Y-74573866D01*
X94261905Y-74573866D02*
X94452381Y-74573866D01*
X94452381Y-74573866D02*
X94547619Y-74526247D01*
X94547619Y-74526247D02*
X94595238Y-74478628D01*
X94595238Y-74478628D02*
X94642857Y-74383390D01*
X72083333Y-78929580D02*
X72035714Y-78977200D01*
X72035714Y-78977200D02*
X71892857Y-79024819D01*
X71892857Y-79024819D02*
X71797619Y-79024819D01*
X71797619Y-79024819D02*
X71654762Y-78977200D01*
X71654762Y-78977200D02*
X71559524Y-78881961D01*
X71559524Y-78881961D02*
X71511905Y-78786723D01*
X71511905Y-78786723D02*
X71464286Y-78596247D01*
X71464286Y-78596247D02*
X71464286Y-78453390D01*
X71464286Y-78453390D02*
X71511905Y-78262914D01*
X71511905Y-78262914D02*
X71559524Y-78167676D01*
X71559524Y-78167676D02*
X71654762Y-78072438D01*
X71654762Y-78072438D02*
X71797619Y-78024819D01*
X71797619Y-78024819D02*
X71892857Y-78024819D01*
X71892857Y-78024819D02*
X72035714Y-78072438D01*
X72035714Y-78072438D02*
X72083333Y-78120057D01*
X72464286Y-78120057D02*
X72511905Y-78072438D01*
X72511905Y-78072438D02*
X72607143Y-78024819D01*
X72607143Y-78024819D02*
X72845238Y-78024819D01*
X72845238Y-78024819D02*
X72940476Y-78072438D01*
X72940476Y-78072438D02*
X72988095Y-78120057D01*
X72988095Y-78120057D02*
X73035714Y-78215295D01*
X73035714Y-78215295D02*
X73035714Y-78310533D01*
X73035714Y-78310533D02*
X72988095Y-78453390D01*
X72988095Y-78453390D02*
X72416667Y-79024819D01*
X72416667Y-79024819D02*
X73035714Y-79024819D01*
X82659580Y-116992857D02*
X82707200Y-117040476D01*
X82707200Y-117040476D02*
X82754819Y-117183333D01*
X82754819Y-117183333D02*
X82754819Y-117278571D01*
X82754819Y-117278571D02*
X82707200Y-117421428D01*
X82707200Y-117421428D02*
X82611961Y-117516666D01*
X82611961Y-117516666D02*
X82516723Y-117564285D01*
X82516723Y-117564285D02*
X82326247Y-117611904D01*
X82326247Y-117611904D02*
X82183390Y-117611904D01*
X82183390Y-117611904D02*
X81992914Y-117564285D01*
X81992914Y-117564285D02*
X81897676Y-117516666D01*
X81897676Y-117516666D02*
X81802438Y-117421428D01*
X81802438Y-117421428D02*
X81754819Y-117278571D01*
X81754819Y-117278571D02*
X81754819Y-117183333D01*
X81754819Y-117183333D02*
X81802438Y-117040476D01*
X81802438Y-117040476D02*
X81850057Y-116992857D01*
X82754819Y-116040476D02*
X82754819Y-116611904D01*
X82754819Y-116326190D02*
X81754819Y-116326190D01*
X81754819Y-116326190D02*
X81897676Y-116421428D01*
X81897676Y-116421428D02*
X81992914Y-116516666D01*
X81992914Y-116516666D02*
X82040533Y-116611904D01*
X82754819Y-115088095D02*
X82754819Y-115659523D01*
X82754819Y-115373809D02*
X81754819Y-115373809D01*
X81754819Y-115373809D02*
X81897676Y-115469047D01*
X81897676Y-115469047D02*
X81992914Y-115564285D01*
X81992914Y-115564285D02*
X82040533Y-115659523D01*
X120804819Y-93783333D02*
X121519104Y-93783333D01*
X121519104Y-93783333D02*
X121661961Y-93830952D01*
X121661961Y-93830952D02*
X121757200Y-93926190D01*
X121757200Y-93926190D02*
X121804819Y-94069047D01*
X121804819Y-94069047D02*
X121804819Y-94164285D01*
X120900057Y-93354761D02*
X120852438Y-93307142D01*
X120852438Y-93307142D02*
X120804819Y-93211904D01*
X120804819Y-93211904D02*
X120804819Y-92973809D01*
X120804819Y-92973809D02*
X120852438Y-92878571D01*
X120852438Y-92878571D02*
X120900057Y-92830952D01*
X120900057Y-92830952D02*
X120995295Y-92783333D01*
X120995295Y-92783333D02*
X121090533Y-92783333D01*
X121090533Y-92783333D02*
X121233390Y-92830952D01*
X121233390Y-92830952D02*
X121804819Y-93402380D01*
X121804819Y-93402380D02*
X121804819Y-92783333D01*
X59604819Y-93833333D02*
X60319104Y-93833333D01*
X60319104Y-93833333D02*
X60461961Y-93880952D01*
X60461961Y-93880952D02*
X60557200Y-93976190D01*
X60557200Y-93976190D02*
X60604819Y-94119047D01*
X60604819Y-94119047D02*
X60604819Y-94214285D01*
X60604819Y-92833333D02*
X60604819Y-93404761D01*
X60604819Y-93119047D02*
X59604819Y-93119047D01*
X59604819Y-93119047D02*
X59747676Y-93214285D01*
X59747676Y-93214285D02*
X59842914Y-93309523D01*
X59842914Y-93309523D02*
X59890533Y-93404761D01*
X103988095Y-102454819D02*
X103988095Y-101454819D01*
X103988095Y-101931009D02*
X104559523Y-101931009D01*
X104559523Y-102454819D02*
X104559523Y-101454819D01*
X105464285Y-101788152D02*
X105464285Y-102454819D01*
X105226190Y-101407200D02*
X104988095Y-102121485D01*
X104988095Y-102121485D02*
X105607142Y-102121485D01*
X77690476Y-73704819D02*
X77690476Y-74419104D01*
X77690476Y-74419104D02*
X77642857Y-74561961D01*
X77642857Y-74561961D02*
X77547619Y-74657200D01*
X77547619Y-74657200D02*
X77404762Y-74704819D01*
X77404762Y-74704819D02*
X77309524Y-74704819D01*
X78690476Y-74704819D02*
X78119048Y-74704819D01*
X78404762Y-74704819D02*
X78404762Y-73704819D01*
X78404762Y-73704819D02*
X78309524Y-73847676D01*
X78309524Y-73847676D02*
X78214286Y-73942914D01*
X78214286Y-73942914D02*
X78119048Y-73990533D01*
X79261905Y-74133390D02*
X79166667Y-74085771D01*
X79166667Y-74085771D02*
X79119048Y-74038152D01*
X79119048Y-74038152D02*
X79071429Y-73942914D01*
X79071429Y-73942914D02*
X79071429Y-73895295D01*
X79071429Y-73895295D02*
X79119048Y-73800057D01*
X79119048Y-73800057D02*
X79166667Y-73752438D01*
X79166667Y-73752438D02*
X79261905Y-73704819D01*
X79261905Y-73704819D02*
X79452381Y-73704819D01*
X79452381Y-73704819D02*
X79547619Y-73752438D01*
X79547619Y-73752438D02*
X79595238Y-73800057D01*
X79595238Y-73800057D02*
X79642857Y-73895295D01*
X79642857Y-73895295D02*
X79642857Y-73942914D01*
X79642857Y-73942914D02*
X79595238Y-74038152D01*
X79595238Y-74038152D02*
X79547619Y-74085771D01*
X79547619Y-74085771D02*
X79452381Y-74133390D01*
X79452381Y-74133390D02*
X79261905Y-74133390D01*
X79261905Y-74133390D02*
X79166667Y-74181009D01*
X79166667Y-74181009D02*
X79119048Y-74228628D01*
X79119048Y-74228628D02*
X79071429Y-74323866D01*
X79071429Y-74323866D02*
X79071429Y-74514342D01*
X79071429Y-74514342D02*
X79119048Y-74609580D01*
X79119048Y-74609580D02*
X79166667Y-74657200D01*
X79166667Y-74657200D02*
X79261905Y-74704819D01*
X79261905Y-74704819D02*
X79452381Y-74704819D01*
X79452381Y-74704819D02*
X79547619Y-74657200D01*
X79547619Y-74657200D02*
X79595238Y-74609580D01*
X79595238Y-74609580D02*
X79642857Y-74514342D01*
X79642857Y-74514342D02*
X79642857Y-74323866D01*
X79642857Y-74323866D02*
X79595238Y-74228628D01*
X79595238Y-74228628D02*
X79547619Y-74181009D01*
X79547619Y-74181009D02*
X79452381Y-74133390D01*
X100988095Y-80204819D02*
X100988095Y-81014342D01*
X100988095Y-81014342D02*
X101035714Y-81109580D01*
X101035714Y-81109580D02*
X101083333Y-81157200D01*
X101083333Y-81157200D02*
X101178571Y-81204819D01*
X101178571Y-81204819D02*
X101369047Y-81204819D01*
X101369047Y-81204819D02*
X101464285Y-81157200D01*
X101464285Y-81157200D02*
X101511904Y-81109580D01*
X101511904Y-81109580D02*
X101559523Y-81014342D01*
X101559523Y-81014342D02*
X101559523Y-80204819D01*
X101988095Y-80300057D02*
X102035714Y-80252438D01*
X102035714Y-80252438D02*
X102130952Y-80204819D01*
X102130952Y-80204819D02*
X102369047Y-80204819D01*
X102369047Y-80204819D02*
X102464285Y-80252438D01*
X102464285Y-80252438D02*
X102511904Y-80300057D01*
X102511904Y-80300057D02*
X102559523Y-80395295D01*
X102559523Y-80395295D02*
X102559523Y-80490533D01*
X102559523Y-80490533D02*
X102511904Y-80633390D01*
X102511904Y-80633390D02*
X101940476Y-81204819D01*
X101940476Y-81204819D02*
X102559523Y-81204819D01*
X103583333Y-88609580D02*
X103535714Y-88657200D01*
X103535714Y-88657200D02*
X103392857Y-88704819D01*
X103392857Y-88704819D02*
X103297619Y-88704819D01*
X103297619Y-88704819D02*
X103154762Y-88657200D01*
X103154762Y-88657200D02*
X103059524Y-88561961D01*
X103059524Y-88561961D02*
X103011905Y-88466723D01*
X103011905Y-88466723D02*
X102964286Y-88276247D01*
X102964286Y-88276247D02*
X102964286Y-88133390D01*
X102964286Y-88133390D02*
X103011905Y-87942914D01*
X103011905Y-87942914D02*
X103059524Y-87847676D01*
X103059524Y-87847676D02*
X103154762Y-87752438D01*
X103154762Y-87752438D02*
X103297619Y-87704819D01*
X103297619Y-87704819D02*
X103392857Y-87704819D01*
X103392857Y-87704819D02*
X103535714Y-87752438D01*
X103535714Y-87752438D02*
X103583333Y-87800057D01*
X103916667Y-87704819D02*
X104583333Y-87704819D01*
X104583333Y-87704819D02*
X104154762Y-88704819D01*
X59654819Y-82833333D02*
X60369104Y-82833333D01*
X60369104Y-82833333D02*
X60511961Y-82880952D01*
X60511961Y-82880952D02*
X60607200Y-82976190D01*
X60607200Y-82976190D02*
X60654819Y-83119047D01*
X60654819Y-83119047D02*
X60654819Y-83214285D01*
X59654819Y-81880952D02*
X59654819Y-82357142D01*
X59654819Y-82357142D02*
X60131009Y-82404761D01*
X60131009Y-82404761D02*
X60083390Y-82357142D01*
X60083390Y-82357142D02*
X60035771Y-82261904D01*
X60035771Y-82261904D02*
X60035771Y-82023809D01*
X60035771Y-82023809D02*
X60083390Y-81928571D01*
X60083390Y-81928571D02*
X60131009Y-81880952D01*
X60131009Y-81880952D02*
X60226247Y-81833333D01*
X60226247Y-81833333D02*
X60464342Y-81833333D01*
X60464342Y-81833333D02*
X60559580Y-81880952D01*
X60559580Y-81880952D02*
X60607200Y-81928571D01*
X60607200Y-81928571D02*
X60654819Y-82023809D01*
X60654819Y-82023809D02*
X60654819Y-82261904D01*
X60654819Y-82261904D02*
X60607200Y-82357142D01*
X60607200Y-82357142D02*
X60559580Y-82404761D01*
X90954819Y-116011904D02*
X91764342Y-116011904D01*
X91764342Y-116011904D02*
X91859580Y-115964285D01*
X91859580Y-115964285D02*
X91907200Y-115916666D01*
X91907200Y-115916666D02*
X91954819Y-115821428D01*
X91954819Y-115821428D02*
X91954819Y-115630952D01*
X91954819Y-115630952D02*
X91907200Y-115535714D01*
X91907200Y-115535714D02*
X91859580Y-115488095D01*
X91859580Y-115488095D02*
X91764342Y-115440476D01*
X91764342Y-115440476D02*
X90954819Y-115440476D01*
X90954819Y-115059523D02*
X90954819Y-114392857D01*
X90954819Y-114392857D02*
X91954819Y-114821428D01*
X69588095Y-95204819D02*
X69588095Y-96014342D01*
X69588095Y-96014342D02*
X69635714Y-96109580D01*
X69635714Y-96109580D02*
X69683333Y-96157200D01*
X69683333Y-96157200D02*
X69778571Y-96204819D01*
X69778571Y-96204819D02*
X69969047Y-96204819D01*
X69969047Y-96204819D02*
X70064285Y-96157200D01*
X70064285Y-96157200D02*
X70111904Y-96109580D01*
X70111904Y-96109580D02*
X70159523Y-96014342D01*
X70159523Y-96014342D02*
X70159523Y-95204819D01*
X70540476Y-95204819D02*
X71159523Y-95204819D01*
X71159523Y-95204819D02*
X70826190Y-95585771D01*
X70826190Y-95585771D02*
X70969047Y-95585771D01*
X70969047Y-95585771D02*
X71064285Y-95633390D01*
X71064285Y-95633390D02*
X71111904Y-95681009D01*
X71111904Y-95681009D02*
X71159523Y-95776247D01*
X71159523Y-95776247D02*
X71159523Y-96014342D01*
X71159523Y-96014342D02*
X71111904Y-96109580D01*
X71111904Y-96109580D02*
X71064285Y-96157200D01*
X71064285Y-96157200D02*
X70969047Y-96204819D01*
X70969047Y-96204819D02*
X70683333Y-96204819D01*
X70683333Y-96204819D02*
X70588095Y-96157200D01*
X70588095Y-96157200D02*
X70540476Y-96109580D01*
X99238095Y-70004819D02*
X99238095Y-69004819D01*
X99238095Y-69481009D02*
X99809523Y-69481009D01*
X99809523Y-70004819D02*
X99809523Y-69004819D01*
X100190476Y-69004819D02*
X100809523Y-69004819D01*
X100809523Y-69004819D02*
X100476190Y-69385771D01*
X100476190Y-69385771D02*
X100619047Y-69385771D01*
X100619047Y-69385771D02*
X100714285Y-69433390D01*
X100714285Y-69433390D02*
X100761904Y-69481009D01*
X100761904Y-69481009D02*
X100809523Y-69576247D01*
X100809523Y-69576247D02*
X100809523Y-69814342D01*
X100809523Y-69814342D02*
X100761904Y-69909580D01*
X100761904Y-69909580D02*
X100714285Y-69957200D01*
X100714285Y-69957200D02*
X100619047Y-70004819D01*
X100619047Y-70004819D02*
X100333333Y-70004819D01*
X100333333Y-70004819D02*
X100238095Y-69957200D01*
X100238095Y-69957200D02*
X100190476Y-69909580D01*
X111504819Y-82833333D02*
X112219104Y-82833333D01*
X112219104Y-82833333D02*
X112361961Y-82880952D01*
X112361961Y-82880952D02*
X112457200Y-82976190D01*
X112457200Y-82976190D02*
X112504819Y-83119047D01*
X112504819Y-83119047D02*
X112504819Y-83214285D01*
X111933390Y-82214285D02*
X111885771Y-82309523D01*
X111885771Y-82309523D02*
X111838152Y-82357142D01*
X111838152Y-82357142D02*
X111742914Y-82404761D01*
X111742914Y-82404761D02*
X111695295Y-82404761D01*
X111695295Y-82404761D02*
X111600057Y-82357142D01*
X111600057Y-82357142D02*
X111552438Y-82309523D01*
X111552438Y-82309523D02*
X111504819Y-82214285D01*
X111504819Y-82214285D02*
X111504819Y-82023809D01*
X111504819Y-82023809D02*
X111552438Y-81928571D01*
X111552438Y-81928571D02*
X111600057Y-81880952D01*
X111600057Y-81880952D02*
X111695295Y-81833333D01*
X111695295Y-81833333D02*
X111742914Y-81833333D01*
X111742914Y-81833333D02*
X111838152Y-81880952D01*
X111838152Y-81880952D02*
X111885771Y-81928571D01*
X111885771Y-81928571D02*
X111933390Y-82023809D01*
X111933390Y-82023809D02*
X111933390Y-82214285D01*
X111933390Y-82214285D02*
X111981009Y-82309523D01*
X111981009Y-82309523D02*
X112028628Y-82357142D01*
X112028628Y-82357142D02*
X112123866Y-82404761D01*
X112123866Y-82404761D02*
X112314342Y-82404761D01*
X112314342Y-82404761D02*
X112409580Y-82357142D01*
X112409580Y-82357142D02*
X112457200Y-82309523D01*
X112457200Y-82309523D02*
X112504819Y-82214285D01*
X112504819Y-82214285D02*
X112504819Y-82023809D01*
X112504819Y-82023809D02*
X112457200Y-81928571D01*
X112457200Y-81928571D02*
X112409580Y-81880952D01*
X112409580Y-81880952D02*
X112314342Y-81833333D01*
X112314342Y-81833333D02*
X112123866Y-81833333D01*
X112123866Y-81833333D02*
X112028628Y-81880952D01*
X112028628Y-81880952D02*
X111981009Y-81928571D01*
X111981009Y-81928571D02*
X111933390Y-82023809D01*
X82954819Y-70166666D02*
X82478628Y-70499999D01*
X82954819Y-70738094D02*
X81954819Y-70738094D01*
X81954819Y-70738094D02*
X81954819Y-70357142D01*
X81954819Y-70357142D02*
X82002438Y-70261904D01*
X82002438Y-70261904D02*
X82050057Y-70214285D01*
X82050057Y-70214285D02*
X82145295Y-70166666D01*
X82145295Y-70166666D02*
X82288152Y-70166666D01*
X82288152Y-70166666D02*
X82383390Y-70214285D01*
X82383390Y-70214285D02*
X82431009Y-70261904D01*
X82431009Y-70261904D02*
X82478628Y-70357142D01*
X82478628Y-70357142D02*
X82478628Y-70738094D01*
X82954819Y-69690475D02*
X82954819Y-69499999D01*
X82954819Y-69499999D02*
X82907200Y-69404761D01*
X82907200Y-69404761D02*
X82859580Y-69357142D01*
X82859580Y-69357142D02*
X82716723Y-69261904D01*
X82716723Y-69261904D02*
X82526247Y-69214285D01*
X82526247Y-69214285D02*
X82145295Y-69214285D01*
X82145295Y-69214285D02*
X82050057Y-69261904D01*
X82050057Y-69261904D02*
X82002438Y-69309523D01*
X82002438Y-69309523D02*
X81954819Y-69404761D01*
X81954819Y-69404761D02*
X81954819Y-69595237D01*
X81954819Y-69595237D02*
X82002438Y-69690475D01*
X82002438Y-69690475D02*
X82050057Y-69738094D01*
X82050057Y-69738094D02*
X82145295Y-69785713D01*
X82145295Y-69785713D02*
X82383390Y-69785713D01*
X82383390Y-69785713D02*
X82478628Y-69738094D01*
X82478628Y-69738094D02*
X82526247Y-69690475D01*
X82526247Y-69690475D02*
X82573866Y-69595237D01*
X82573866Y-69595237D02*
X82573866Y-69404761D01*
X82573866Y-69404761D02*
X82526247Y-69309523D01*
X82526247Y-69309523D02*
X82478628Y-69261904D01*
X82478628Y-69261904D02*
X82383390Y-69214285D01*
X87107142Y-108429580D02*
X87059523Y-108477200D01*
X87059523Y-108477200D02*
X86916666Y-108524819D01*
X86916666Y-108524819D02*
X86821428Y-108524819D01*
X86821428Y-108524819D02*
X86678571Y-108477200D01*
X86678571Y-108477200D02*
X86583333Y-108381961D01*
X86583333Y-108381961D02*
X86535714Y-108286723D01*
X86535714Y-108286723D02*
X86488095Y-108096247D01*
X86488095Y-108096247D02*
X86488095Y-107953390D01*
X86488095Y-107953390D02*
X86535714Y-107762914D01*
X86535714Y-107762914D02*
X86583333Y-107667676D01*
X86583333Y-107667676D02*
X86678571Y-107572438D01*
X86678571Y-107572438D02*
X86821428Y-107524819D01*
X86821428Y-107524819D02*
X86916666Y-107524819D01*
X86916666Y-107524819D02*
X87059523Y-107572438D01*
X87059523Y-107572438D02*
X87107142Y-107620057D01*
X88059523Y-108524819D02*
X87488095Y-108524819D01*
X87773809Y-108524819D02*
X87773809Y-107524819D01*
X87773809Y-107524819D02*
X87678571Y-107667676D01*
X87678571Y-107667676D02*
X87583333Y-107762914D01*
X87583333Y-107762914D02*
X87488095Y-107810533D01*
X88440476Y-107620057D02*
X88488095Y-107572438D01*
X88488095Y-107572438D02*
X88583333Y-107524819D01*
X88583333Y-107524819D02*
X88821428Y-107524819D01*
X88821428Y-107524819D02*
X88916666Y-107572438D01*
X88916666Y-107572438D02*
X88964285Y-107620057D01*
X88964285Y-107620057D02*
X89011904Y-107715295D01*
X89011904Y-107715295D02*
X89011904Y-107810533D01*
X89011904Y-107810533D02*
X88964285Y-107953390D01*
X88964285Y-107953390D02*
X88392857Y-108524819D01*
X88392857Y-108524819D02*
X89011904Y-108524819D01*
X103583333Y-98609580D02*
X103535714Y-98657200D01*
X103535714Y-98657200D02*
X103392857Y-98704819D01*
X103392857Y-98704819D02*
X103297619Y-98704819D01*
X103297619Y-98704819D02*
X103154762Y-98657200D01*
X103154762Y-98657200D02*
X103059524Y-98561961D01*
X103059524Y-98561961D02*
X103011905Y-98466723D01*
X103011905Y-98466723D02*
X102964286Y-98276247D01*
X102964286Y-98276247D02*
X102964286Y-98133390D01*
X102964286Y-98133390D02*
X103011905Y-97942914D01*
X103011905Y-97942914D02*
X103059524Y-97847676D01*
X103059524Y-97847676D02*
X103154762Y-97752438D01*
X103154762Y-97752438D02*
X103297619Y-97704819D01*
X103297619Y-97704819D02*
X103392857Y-97704819D01*
X103392857Y-97704819D02*
X103535714Y-97752438D01*
X103535714Y-97752438D02*
X103583333Y-97800057D01*
X104488095Y-97704819D02*
X104011905Y-97704819D01*
X104011905Y-97704819D02*
X103964286Y-98181009D01*
X103964286Y-98181009D02*
X104011905Y-98133390D01*
X104011905Y-98133390D02*
X104107143Y-98085771D01*
X104107143Y-98085771D02*
X104345238Y-98085771D01*
X104345238Y-98085771D02*
X104440476Y-98133390D01*
X104440476Y-98133390D02*
X104488095Y-98181009D01*
X104488095Y-98181009D02*
X104535714Y-98276247D01*
X104535714Y-98276247D02*
X104535714Y-98514342D01*
X104535714Y-98514342D02*
X104488095Y-98609580D01*
X104488095Y-98609580D02*
X104440476Y-98657200D01*
X104440476Y-98657200D02*
X104345238Y-98704819D01*
X104345238Y-98704819D02*
X104107143Y-98704819D01*
X104107143Y-98704819D02*
X104011905Y-98657200D01*
X104011905Y-98657200D02*
X103964286Y-98609580D01*
X101038095Y-89954819D02*
X101038095Y-90764342D01*
X101038095Y-90764342D02*
X101085714Y-90859580D01*
X101085714Y-90859580D02*
X101133333Y-90907200D01*
X101133333Y-90907200D02*
X101228571Y-90954819D01*
X101228571Y-90954819D02*
X101419047Y-90954819D01*
X101419047Y-90954819D02*
X101514285Y-90907200D01*
X101514285Y-90907200D02*
X101561904Y-90859580D01*
X101561904Y-90859580D02*
X101609523Y-90764342D01*
X101609523Y-90764342D02*
X101609523Y-89954819D01*
X102514285Y-90288152D02*
X102514285Y-90954819D01*
X102276190Y-89907200D02*
X102038095Y-90621485D01*
X102038095Y-90621485D02*
X102657142Y-90621485D01*
X69538095Y-85954819D02*
X69538095Y-86764342D01*
X69538095Y-86764342D02*
X69585714Y-86859580D01*
X69585714Y-86859580D02*
X69633333Y-86907200D01*
X69633333Y-86907200D02*
X69728571Y-86954819D01*
X69728571Y-86954819D02*
X69919047Y-86954819D01*
X69919047Y-86954819D02*
X70014285Y-86907200D01*
X70014285Y-86907200D02*
X70061904Y-86859580D01*
X70061904Y-86859580D02*
X70109523Y-86764342D01*
X70109523Y-86764342D02*
X70109523Y-85954819D01*
X71109523Y-86954819D02*
X70538095Y-86954819D01*
X70823809Y-86954819D02*
X70823809Y-85954819D01*
X70823809Y-85954819D02*
X70728571Y-86097676D01*
X70728571Y-86097676D02*
X70633333Y-86192914D01*
X70633333Y-86192914D02*
X70538095Y-86240533D01*
X99359580Y-87416666D02*
X99407200Y-87464285D01*
X99407200Y-87464285D02*
X99454819Y-87607142D01*
X99454819Y-87607142D02*
X99454819Y-87702380D01*
X99454819Y-87702380D02*
X99407200Y-87845237D01*
X99407200Y-87845237D02*
X99311961Y-87940475D01*
X99311961Y-87940475D02*
X99216723Y-87988094D01*
X99216723Y-87988094D02*
X99026247Y-88035713D01*
X99026247Y-88035713D02*
X98883390Y-88035713D01*
X98883390Y-88035713D02*
X98692914Y-87988094D01*
X98692914Y-87988094D02*
X98597676Y-87940475D01*
X98597676Y-87940475D02*
X98502438Y-87845237D01*
X98502438Y-87845237D02*
X98454819Y-87702380D01*
X98454819Y-87702380D02*
X98454819Y-87607142D01*
X98454819Y-87607142D02*
X98502438Y-87464285D01*
X98502438Y-87464285D02*
X98550057Y-87416666D01*
X98883390Y-86845237D02*
X98835771Y-86940475D01*
X98835771Y-86940475D02*
X98788152Y-86988094D01*
X98788152Y-86988094D02*
X98692914Y-87035713D01*
X98692914Y-87035713D02*
X98645295Y-87035713D01*
X98645295Y-87035713D02*
X98550057Y-86988094D01*
X98550057Y-86988094D02*
X98502438Y-86940475D01*
X98502438Y-86940475D02*
X98454819Y-86845237D01*
X98454819Y-86845237D02*
X98454819Y-86654761D01*
X98454819Y-86654761D02*
X98502438Y-86559523D01*
X98502438Y-86559523D02*
X98550057Y-86511904D01*
X98550057Y-86511904D02*
X98645295Y-86464285D01*
X98645295Y-86464285D02*
X98692914Y-86464285D01*
X98692914Y-86464285D02*
X98788152Y-86511904D01*
X98788152Y-86511904D02*
X98835771Y-86559523D01*
X98835771Y-86559523D02*
X98883390Y-86654761D01*
X98883390Y-86654761D02*
X98883390Y-86845237D01*
X98883390Y-86845237D02*
X98931009Y-86940475D01*
X98931009Y-86940475D02*
X98978628Y-86988094D01*
X98978628Y-86988094D02*
X99073866Y-87035713D01*
X99073866Y-87035713D02*
X99264342Y-87035713D01*
X99264342Y-87035713D02*
X99359580Y-86988094D01*
X99359580Y-86988094D02*
X99407200Y-86940475D01*
X99407200Y-86940475D02*
X99454819Y-86845237D01*
X99454819Y-86845237D02*
X99454819Y-86654761D01*
X99454819Y-86654761D02*
X99407200Y-86559523D01*
X99407200Y-86559523D02*
X99359580Y-86511904D01*
X99359580Y-86511904D02*
X99264342Y-86464285D01*
X99264342Y-86464285D02*
X99073866Y-86464285D01*
X99073866Y-86464285D02*
X98978628Y-86511904D01*
X98978628Y-86511904D02*
X98931009Y-86559523D01*
X98931009Y-86559523D02*
X98883390Y-86654761D01*
X83011905Y-97204819D02*
X83011905Y-96204819D01*
X83011905Y-96204819D02*
X83250000Y-96204819D01*
X83250000Y-96204819D02*
X83392857Y-96252438D01*
X83392857Y-96252438D02*
X83488095Y-96347676D01*
X83488095Y-96347676D02*
X83535714Y-96442914D01*
X83535714Y-96442914D02*
X83583333Y-96633390D01*
X83583333Y-96633390D02*
X83583333Y-96776247D01*
X83583333Y-96776247D02*
X83535714Y-96966723D01*
X83535714Y-96966723D02*
X83488095Y-97061961D01*
X83488095Y-97061961D02*
X83392857Y-97157200D01*
X83392857Y-97157200D02*
X83250000Y-97204819D01*
X83250000Y-97204819D02*
X83011905Y-97204819D01*
X84535714Y-97204819D02*
X83964286Y-97204819D01*
X84250000Y-97204819D02*
X84250000Y-96204819D01*
X84250000Y-96204819D02*
X84154762Y-96347676D01*
X84154762Y-96347676D02*
X84059524Y-96442914D01*
X84059524Y-96442914D02*
X83964286Y-96490533D01*
X81204819Y-71142857D02*
X80728628Y-71476190D01*
X81204819Y-71714285D02*
X80204819Y-71714285D01*
X80204819Y-71714285D02*
X80204819Y-71333333D01*
X80204819Y-71333333D02*
X80252438Y-71238095D01*
X80252438Y-71238095D02*
X80300057Y-71190476D01*
X80300057Y-71190476D02*
X80395295Y-71142857D01*
X80395295Y-71142857D02*
X80538152Y-71142857D01*
X80538152Y-71142857D02*
X80633390Y-71190476D01*
X80633390Y-71190476D02*
X80681009Y-71238095D01*
X80681009Y-71238095D02*
X80728628Y-71333333D01*
X80728628Y-71333333D02*
X80728628Y-71714285D01*
X81204819Y-70190476D02*
X81204819Y-70761904D01*
X81204819Y-70476190D02*
X80204819Y-70476190D01*
X80204819Y-70476190D02*
X80347676Y-70571428D01*
X80347676Y-70571428D02*
X80442914Y-70666666D01*
X80442914Y-70666666D02*
X80490533Y-70761904D01*
X80204819Y-69571428D02*
X80204819Y-69476190D01*
X80204819Y-69476190D02*
X80252438Y-69380952D01*
X80252438Y-69380952D02*
X80300057Y-69333333D01*
X80300057Y-69333333D02*
X80395295Y-69285714D01*
X80395295Y-69285714D02*
X80585771Y-69238095D01*
X80585771Y-69238095D02*
X80823866Y-69238095D01*
X80823866Y-69238095D02*
X81014342Y-69285714D01*
X81014342Y-69285714D02*
X81109580Y-69333333D01*
X81109580Y-69333333D02*
X81157200Y-69380952D01*
X81157200Y-69380952D02*
X81204819Y-69476190D01*
X81204819Y-69476190D02*
X81204819Y-69571428D01*
X81204819Y-69571428D02*
X81157200Y-69666666D01*
X81157200Y-69666666D02*
X81109580Y-69714285D01*
X81109580Y-69714285D02*
X81014342Y-69761904D01*
X81014342Y-69761904D02*
X80823866Y-69809523D01*
X80823866Y-69809523D02*
X80585771Y-69809523D01*
X80585771Y-69809523D02*
X80395295Y-69761904D01*
X80395295Y-69761904D02*
X80300057Y-69714285D01*
X80300057Y-69714285D02*
X80252438Y-69666666D01*
X80252438Y-69666666D02*
X80204819Y-69571428D01*
X86753095Y-66807319D02*
X86753095Y-67616842D01*
X86753095Y-67616842D02*
X86800714Y-67712080D01*
X86800714Y-67712080D02*
X86848333Y-67759700D01*
X86848333Y-67759700D02*
X86943571Y-67807319D01*
X86943571Y-67807319D02*
X87134047Y-67807319D01*
X87134047Y-67807319D02*
X87229285Y-67759700D01*
X87229285Y-67759700D02*
X87276904Y-67712080D01*
X87276904Y-67712080D02*
X87324523Y-67616842D01*
X87324523Y-67616842D02*
X87324523Y-66807319D01*
X88229285Y-66807319D02*
X88038809Y-66807319D01*
X88038809Y-66807319D02*
X87943571Y-66854938D01*
X87943571Y-66854938D02*
X87895952Y-66902557D01*
X87895952Y-66902557D02*
X87800714Y-67045414D01*
X87800714Y-67045414D02*
X87753095Y-67235890D01*
X87753095Y-67235890D02*
X87753095Y-67616842D01*
X87753095Y-67616842D02*
X87800714Y-67712080D01*
X87800714Y-67712080D02*
X87848333Y-67759700D01*
X87848333Y-67759700D02*
X87943571Y-67807319D01*
X87943571Y-67807319D02*
X88134047Y-67807319D01*
X88134047Y-67807319D02*
X88229285Y-67759700D01*
X88229285Y-67759700D02*
X88276904Y-67712080D01*
X88276904Y-67712080D02*
X88324523Y-67616842D01*
X88324523Y-67616842D02*
X88324523Y-67378747D01*
X88324523Y-67378747D02*
X88276904Y-67283509D01*
X88276904Y-67283509D02*
X88229285Y-67235890D01*
X88229285Y-67235890D02*
X88134047Y-67188271D01*
X88134047Y-67188271D02*
X87943571Y-67188271D01*
X87943571Y-67188271D02*
X87848333Y-67235890D01*
X87848333Y-67235890D02*
X87800714Y-67283509D01*
X87800714Y-67283509D02*
X87753095Y-67378747D01*
X111504819Y-93583333D02*
X112219104Y-93583333D01*
X112219104Y-93583333D02*
X112361961Y-93630952D01*
X112361961Y-93630952D02*
X112457200Y-93726190D01*
X112457200Y-93726190D02*
X112504819Y-93869047D01*
X112504819Y-93869047D02*
X112504819Y-93964285D01*
X111838152Y-92678571D02*
X112504819Y-92678571D01*
X111457200Y-92916666D02*
X112171485Y-93154761D01*
X112171485Y-93154761D02*
X112171485Y-92535714D01*
X71238095Y-70254819D02*
X71238095Y-69254819D01*
X71238095Y-69731009D02*
X71809523Y-69731009D01*
X71809523Y-70254819D02*
X71809523Y-69254819D01*
X72238095Y-69350057D02*
X72285714Y-69302438D01*
X72285714Y-69302438D02*
X72380952Y-69254819D01*
X72380952Y-69254819D02*
X72619047Y-69254819D01*
X72619047Y-69254819D02*
X72714285Y-69302438D01*
X72714285Y-69302438D02*
X72761904Y-69350057D01*
X72761904Y-69350057D02*
X72809523Y-69445295D01*
X72809523Y-69445295D02*
X72809523Y-69540533D01*
X72809523Y-69540533D02*
X72761904Y-69683390D01*
X72761904Y-69683390D02*
X72190476Y-70254819D01*
X72190476Y-70254819D02*
X72809523Y-70254819D01*
X50354819Y-82833333D02*
X51069104Y-82833333D01*
X51069104Y-82833333D02*
X51211961Y-82880952D01*
X51211961Y-82880952D02*
X51307200Y-82976190D01*
X51307200Y-82976190D02*
X51354819Y-83119047D01*
X51354819Y-83119047D02*
X51354819Y-83214285D01*
X50354819Y-82452380D02*
X50354819Y-81785714D01*
X50354819Y-81785714D02*
X51354819Y-82214285D01*
X99683333Y-98539580D02*
X99635714Y-98587200D01*
X99635714Y-98587200D02*
X99492857Y-98634819D01*
X99492857Y-98634819D02*
X99397619Y-98634819D01*
X99397619Y-98634819D02*
X99254762Y-98587200D01*
X99254762Y-98587200D02*
X99159524Y-98491961D01*
X99159524Y-98491961D02*
X99111905Y-98396723D01*
X99111905Y-98396723D02*
X99064286Y-98206247D01*
X99064286Y-98206247D02*
X99064286Y-98063390D01*
X99064286Y-98063390D02*
X99111905Y-97872914D01*
X99111905Y-97872914D02*
X99159524Y-97777676D01*
X99159524Y-97777676D02*
X99254762Y-97682438D01*
X99254762Y-97682438D02*
X99397619Y-97634819D01*
X99397619Y-97634819D02*
X99492857Y-97634819D01*
X99492857Y-97634819D02*
X99635714Y-97682438D01*
X99635714Y-97682438D02*
X99683333Y-97730057D01*
X100540476Y-97634819D02*
X100350000Y-97634819D01*
X100350000Y-97634819D02*
X100254762Y-97682438D01*
X100254762Y-97682438D02*
X100207143Y-97730057D01*
X100207143Y-97730057D02*
X100111905Y-97872914D01*
X100111905Y-97872914D02*
X100064286Y-98063390D01*
X100064286Y-98063390D02*
X100064286Y-98444342D01*
X100064286Y-98444342D02*
X100111905Y-98539580D01*
X100111905Y-98539580D02*
X100159524Y-98587200D01*
X100159524Y-98587200D02*
X100254762Y-98634819D01*
X100254762Y-98634819D02*
X100445238Y-98634819D01*
X100445238Y-98634819D02*
X100540476Y-98587200D01*
X100540476Y-98587200D02*
X100588095Y-98539580D01*
X100588095Y-98539580D02*
X100635714Y-98444342D01*
X100635714Y-98444342D02*
X100635714Y-98206247D01*
X100635714Y-98206247D02*
X100588095Y-98111009D01*
X100588095Y-98111009D02*
X100540476Y-98063390D01*
X100540476Y-98063390D02*
X100445238Y-98015771D01*
X100445238Y-98015771D02*
X100254762Y-98015771D01*
X100254762Y-98015771D02*
X100159524Y-98063390D01*
X100159524Y-98063390D02*
X100111905Y-98111009D01*
X100111905Y-98111009D02*
X100064286Y-98206247D01*
X68183333Y-88359580D02*
X68135714Y-88407200D01*
X68135714Y-88407200D02*
X67992857Y-88454819D01*
X67992857Y-88454819D02*
X67897619Y-88454819D01*
X67897619Y-88454819D02*
X67754762Y-88407200D01*
X67754762Y-88407200D02*
X67659524Y-88311961D01*
X67659524Y-88311961D02*
X67611905Y-88216723D01*
X67611905Y-88216723D02*
X67564286Y-88026247D01*
X67564286Y-88026247D02*
X67564286Y-87883390D01*
X67564286Y-87883390D02*
X67611905Y-87692914D01*
X67611905Y-87692914D02*
X67659524Y-87597676D01*
X67659524Y-87597676D02*
X67754762Y-87502438D01*
X67754762Y-87502438D02*
X67897619Y-87454819D01*
X67897619Y-87454819D02*
X67992857Y-87454819D01*
X67992857Y-87454819D02*
X68135714Y-87502438D01*
X68135714Y-87502438D02*
X68183333Y-87550057D01*
X68516667Y-87454819D02*
X69135714Y-87454819D01*
X69135714Y-87454819D02*
X68802381Y-87835771D01*
X68802381Y-87835771D02*
X68945238Y-87835771D01*
X68945238Y-87835771D02*
X69040476Y-87883390D01*
X69040476Y-87883390D02*
X69088095Y-87931009D01*
X69088095Y-87931009D02*
X69135714Y-88026247D01*
X69135714Y-88026247D02*
X69135714Y-88264342D01*
X69135714Y-88264342D02*
X69088095Y-88359580D01*
X69088095Y-88359580D02*
X69040476Y-88407200D01*
X69040476Y-88407200D02*
X68945238Y-88454819D01*
X68945238Y-88454819D02*
X68659524Y-88454819D01*
X68659524Y-88454819D02*
X68564286Y-88407200D01*
X68564286Y-88407200D02*
X68516667Y-88359580D01*
X120804819Y-82833333D02*
X121519104Y-82833333D01*
X121519104Y-82833333D02*
X121661961Y-82880952D01*
X121661961Y-82880952D02*
X121757200Y-82976190D01*
X121757200Y-82976190D02*
X121804819Y-83119047D01*
X121804819Y-83119047D02*
X121804819Y-83214285D01*
X120804819Y-81928571D02*
X120804819Y-82119047D01*
X120804819Y-82119047D02*
X120852438Y-82214285D01*
X120852438Y-82214285D02*
X120900057Y-82261904D01*
X120900057Y-82261904D02*
X121042914Y-82357142D01*
X121042914Y-82357142D02*
X121233390Y-82404761D01*
X121233390Y-82404761D02*
X121614342Y-82404761D01*
X121614342Y-82404761D02*
X121709580Y-82357142D01*
X121709580Y-82357142D02*
X121757200Y-82309523D01*
X121757200Y-82309523D02*
X121804819Y-82214285D01*
X121804819Y-82214285D02*
X121804819Y-82023809D01*
X121804819Y-82023809D02*
X121757200Y-81928571D01*
X121757200Y-81928571D02*
X121709580Y-81880952D01*
X121709580Y-81880952D02*
X121614342Y-81833333D01*
X121614342Y-81833333D02*
X121376247Y-81833333D01*
X121376247Y-81833333D02*
X121281009Y-81880952D01*
X121281009Y-81880952D02*
X121233390Y-81928571D01*
X121233390Y-81928571D02*
X121185771Y-82023809D01*
X121185771Y-82023809D02*
X121185771Y-82214285D01*
X121185771Y-82214285D02*
X121233390Y-82309523D01*
X121233390Y-82309523D02*
X121281009Y-82357142D01*
X121281009Y-82357142D02*
X121376247Y-82404761D01*
X76019642Y-64454819D02*
X75686309Y-63978628D01*
X75448214Y-64454819D02*
X75448214Y-63454819D01*
X75448214Y-63454819D02*
X75829166Y-63454819D01*
X75829166Y-63454819D02*
X75924404Y-63502438D01*
X75924404Y-63502438D02*
X75972023Y-63550057D01*
X75972023Y-63550057D02*
X76019642Y-63645295D01*
X76019642Y-63645295D02*
X76019642Y-63788152D01*
X76019642Y-63788152D02*
X75972023Y-63883390D01*
X75972023Y-63883390D02*
X75924404Y-63931009D01*
X75924404Y-63931009D02*
X75829166Y-63978628D01*
X75829166Y-63978628D02*
X75448214Y-63978628D01*
X76972023Y-64454819D02*
X76400595Y-64454819D01*
X76686309Y-64454819D02*
X76686309Y-63454819D01*
X76686309Y-63454819D02*
X76591071Y-63597676D01*
X76591071Y-63597676D02*
X76495833Y-63692914D01*
X76495833Y-63692914D02*
X76400595Y-63740533D01*
X77924404Y-64454819D02*
X77352976Y-64454819D01*
X77638690Y-64454819D02*
X77638690Y-63454819D01*
X77638690Y-63454819D02*
X77543452Y-63597676D01*
X77543452Y-63597676D02*
X77448214Y-63692914D01*
X77448214Y-63692914D02*
X77352976Y-63740533D01*
X68083333Y-78859580D02*
X68035714Y-78907200D01*
X68035714Y-78907200D02*
X67892857Y-78954819D01*
X67892857Y-78954819D02*
X67797619Y-78954819D01*
X67797619Y-78954819D02*
X67654762Y-78907200D01*
X67654762Y-78907200D02*
X67559524Y-78811961D01*
X67559524Y-78811961D02*
X67511905Y-78716723D01*
X67511905Y-78716723D02*
X67464286Y-78526247D01*
X67464286Y-78526247D02*
X67464286Y-78383390D01*
X67464286Y-78383390D02*
X67511905Y-78192914D01*
X67511905Y-78192914D02*
X67559524Y-78097676D01*
X67559524Y-78097676D02*
X67654762Y-78002438D01*
X67654762Y-78002438D02*
X67797619Y-77954819D01*
X67797619Y-77954819D02*
X67892857Y-77954819D01*
X67892857Y-77954819D02*
X68035714Y-78002438D01*
X68035714Y-78002438D02*
X68083333Y-78050057D01*
X69035714Y-78954819D02*
X68464286Y-78954819D01*
X68750000Y-78954819D02*
X68750000Y-77954819D01*
X68750000Y-77954819D02*
X68654762Y-78097676D01*
X68654762Y-78097676D02*
X68559524Y-78192914D01*
X68559524Y-78192914D02*
X68464286Y-78240533D01*
X73359580Y-89166666D02*
X73407200Y-89214285D01*
X73407200Y-89214285D02*
X73454819Y-89357142D01*
X73454819Y-89357142D02*
X73454819Y-89452380D01*
X73454819Y-89452380D02*
X73407200Y-89595237D01*
X73407200Y-89595237D02*
X73311961Y-89690475D01*
X73311961Y-89690475D02*
X73216723Y-89738094D01*
X73216723Y-89738094D02*
X73026247Y-89785713D01*
X73026247Y-89785713D02*
X72883390Y-89785713D01*
X72883390Y-89785713D02*
X72692914Y-89738094D01*
X72692914Y-89738094D02*
X72597676Y-89690475D01*
X72597676Y-89690475D02*
X72502438Y-89595237D01*
X72502438Y-89595237D02*
X72454819Y-89452380D01*
X72454819Y-89452380D02*
X72454819Y-89357142D01*
X72454819Y-89357142D02*
X72502438Y-89214285D01*
X72502438Y-89214285D02*
X72550057Y-89166666D01*
X72788152Y-88309523D02*
X73454819Y-88309523D01*
X72407200Y-88547618D02*
X73121485Y-88785713D01*
X73121485Y-88785713D02*
X73121485Y-88166666D01*
D12*
%TO.C,C10*%
X90695225Y-108275000D02*
X91195225Y-108275000D01*
X90945225Y-108025000D02*
X90945225Y-108525000D01*
X93500000Y-107170000D02*
X93500000Y-108710000D01*
X93500000Y-110790000D02*
X93500000Y-112330000D01*
X93540000Y-107170000D02*
X93540000Y-108710000D01*
X93540000Y-110790000D02*
X93540000Y-112330000D01*
X93580000Y-107171000D02*
X93580000Y-108710000D01*
X93580000Y-110790000D02*
X93580000Y-112329000D01*
X93620000Y-107172000D02*
X93620000Y-108710000D01*
X93620000Y-110790000D02*
X93620000Y-112328000D01*
X93660000Y-107174000D02*
X93660000Y-108710000D01*
X93660000Y-110790000D02*
X93660000Y-112326000D01*
X93700000Y-107177000D02*
X93700000Y-108710000D01*
X93700000Y-110790000D02*
X93700000Y-112323000D01*
X93740000Y-107181000D02*
X93740000Y-108710000D01*
X93740000Y-110790000D02*
X93740000Y-112319000D01*
X93780000Y-107185000D02*
X93780000Y-108710000D01*
X93780000Y-110790000D02*
X93780000Y-112315000D01*
X93820000Y-107189000D02*
X93820000Y-108710000D01*
X93820000Y-110790000D02*
X93820000Y-112311000D01*
X93860000Y-107194000D02*
X93860000Y-108710000D01*
X93860000Y-110790000D02*
X93860000Y-112306000D01*
X93900000Y-107200000D02*
X93900000Y-108710000D01*
X93900000Y-110790000D02*
X93900000Y-112300000D01*
X93940000Y-107207000D02*
X93940000Y-108710000D01*
X93940000Y-110790000D02*
X93940000Y-112293000D01*
X93980000Y-107214000D02*
X93980000Y-108710000D01*
X93980000Y-110790000D02*
X93980000Y-112286000D01*
X94020000Y-107222000D02*
X94020000Y-108710000D01*
X94020000Y-110790000D02*
X94020000Y-112278000D01*
X94060000Y-107230000D02*
X94060000Y-108710000D01*
X94060000Y-110790000D02*
X94060000Y-112270000D01*
X94100000Y-107239000D02*
X94100000Y-108710000D01*
X94100000Y-110790000D02*
X94100000Y-112261000D01*
X94140000Y-107249000D02*
X94140000Y-108710000D01*
X94140000Y-110790000D02*
X94140000Y-112251000D01*
X94180000Y-107259000D02*
X94180000Y-108710000D01*
X94180000Y-110790000D02*
X94180000Y-112241000D01*
X94221000Y-107270000D02*
X94221000Y-108710000D01*
X94221000Y-110790000D02*
X94221000Y-112230000D01*
X94261000Y-107282000D02*
X94261000Y-108710000D01*
X94261000Y-110790000D02*
X94261000Y-112218000D01*
X94301000Y-107295000D02*
X94301000Y-108710000D01*
X94301000Y-110790000D02*
X94301000Y-112205000D01*
X94341000Y-107308000D02*
X94341000Y-108710000D01*
X94341000Y-110790000D02*
X94341000Y-112192000D01*
X94381000Y-107322000D02*
X94381000Y-108710000D01*
X94381000Y-110790000D02*
X94381000Y-112178000D01*
X94421000Y-107336000D02*
X94421000Y-108710000D01*
X94421000Y-110790000D02*
X94421000Y-112164000D01*
X94461000Y-107352000D02*
X94461000Y-108710000D01*
X94461000Y-110790000D02*
X94461000Y-112148000D01*
X94501000Y-107368000D02*
X94501000Y-108710000D01*
X94501000Y-110790000D02*
X94501000Y-112132000D01*
X94541000Y-107385000D02*
X94541000Y-108710000D01*
X94541000Y-110790000D02*
X94541000Y-112115000D01*
X94581000Y-107402000D02*
X94581000Y-108710000D01*
X94581000Y-110790000D02*
X94581000Y-112098000D01*
X94621000Y-107421000D02*
X94621000Y-108710000D01*
X94621000Y-110790000D02*
X94621000Y-112079000D01*
X94661000Y-107440000D02*
X94661000Y-108710000D01*
X94661000Y-110790000D02*
X94661000Y-112060000D01*
X94701000Y-107460000D02*
X94701000Y-108710000D01*
X94701000Y-110790000D02*
X94701000Y-112040000D01*
X94741000Y-107482000D02*
X94741000Y-108710000D01*
X94741000Y-110790000D02*
X94741000Y-112018000D01*
X94781000Y-107503000D02*
X94781000Y-108710000D01*
X94781000Y-110790000D02*
X94781000Y-111997000D01*
X94821000Y-107526000D02*
X94821000Y-108710000D01*
X94821000Y-110790000D02*
X94821000Y-111974000D01*
X94861000Y-107550000D02*
X94861000Y-108710000D01*
X94861000Y-110790000D02*
X94861000Y-111950000D01*
X94901000Y-107575000D02*
X94901000Y-108710000D01*
X94901000Y-110790000D02*
X94901000Y-111925000D01*
X94941000Y-107601000D02*
X94941000Y-108710000D01*
X94941000Y-110790000D02*
X94941000Y-111899000D01*
X94981000Y-107628000D02*
X94981000Y-108710000D01*
X94981000Y-110790000D02*
X94981000Y-111872000D01*
X95021000Y-107655000D02*
X95021000Y-108710000D01*
X95021000Y-110790000D02*
X95021000Y-111845000D01*
X95061000Y-107685000D02*
X95061000Y-108710000D01*
X95061000Y-110790000D02*
X95061000Y-111815000D01*
X95101000Y-107715000D02*
X95101000Y-108710000D01*
X95101000Y-110790000D02*
X95101000Y-111785000D01*
X95141000Y-107746000D02*
X95141000Y-108710000D01*
X95141000Y-110790000D02*
X95141000Y-111754000D01*
X95181000Y-107779000D02*
X95181000Y-108710000D01*
X95181000Y-110790000D02*
X95181000Y-111721000D01*
X95221000Y-107813000D02*
X95221000Y-108710000D01*
X95221000Y-110790000D02*
X95221000Y-111687000D01*
X95261000Y-107849000D02*
X95261000Y-108710000D01*
X95261000Y-110790000D02*
X95261000Y-111651000D01*
X95301000Y-107886000D02*
X95301000Y-108710000D01*
X95301000Y-110790000D02*
X95301000Y-111614000D01*
X95341000Y-107924000D02*
X95341000Y-108710000D01*
X95341000Y-110790000D02*
X95341000Y-111576000D01*
X95381000Y-107965000D02*
X95381000Y-108710000D01*
X95381000Y-110790000D02*
X95381000Y-111535000D01*
X95421000Y-108007000D02*
X95421000Y-108710000D01*
X95421000Y-110790000D02*
X95421000Y-111493000D01*
X95461000Y-108051000D02*
X95461000Y-108710000D01*
X95461000Y-110790000D02*
X95461000Y-111449000D01*
X95501000Y-108097000D02*
X95501000Y-108710000D01*
X95501000Y-110790000D02*
X95501000Y-111403000D01*
X95541000Y-108145000D02*
X95541000Y-111355000D01*
X95581000Y-108196000D02*
X95581000Y-111304000D01*
X95621000Y-108250000D02*
X95621000Y-111250000D01*
X95661000Y-108307000D02*
X95661000Y-111193000D01*
X95701000Y-108367000D02*
X95701000Y-111133000D01*
X95741000Y-108431000D02*
X95741000Y-111069000D01*
X95781000Y-108499000D02*
X95781000Y-111001000D01*
X95821000Y-108572000D02*
X95821000Y-110928000D01*
X95861000Y-108652000D02*
X95861000Y-110848000D01*
X95901000Y-108739000D02*
X95901000Y-110761000D01*
X95941000Y-108835000D02*
X95941000Y-110665000D01*
X95981000Y-108945000D02*
X95981000Y-110555000D01*
X96021000Y-109073000D02*
X96021000Y-110427000D01*
X96061000Y-109232000D02*
X96061000Y-110268000D01*
X96101000Y-109466000D02*
X96101000Y-110034000D01*
X96120000Y-109750000D02*
G75*
G02*
X90880000Y-109750000I-2620000J0D01*
G01*
X90880000Y-109750000D02*
G75*
G02*
X96120000Y-109750000I2620000J0D01*
G01*
%TO.C,C9*%
X75695225Y-108275000D02*
X76195225Y-108275000D01*
X75945225Y-108025000D02*
X75945225Y-108525000D01*
X78500000Y-107170000D02*
X78500000Y-108710000D01*
X78500000Y-110790000D02*
X78500000Y-112330000D01*
X78540000Y-107170000D02*
X78540000Y-108710000D01*
X78540000Y-110790000D02*
X78540000Y-112330000D01*
X78580000Y-107171000D02*
X78580000Y-108710000D01*
X78580000Y-110790000D02*
X78580000Y-112329000D01*
X78620000Y-107172000D02*
X78620000Y-108710000D01*
X78620000Y-110790000D02*
X78620000Y-112328000D01*
X78660000Y-107174000D02*
X78660000Y-108710000D01*
X78660000Y-110790000D02*
X78660000Y-112326000D01*
X78700000Y-107177000D02*
X78700000Y-108710000D01*
X78700000Y-110790000D02*
X78700000Y-112323000D01*
X78740000Y-107181000D02*
X78740000Y-108710000D01*
X78740000Y-110790000D02*
X78740000Y-112319000D01*
X78780000Y-107185000D02*
X78780000Y-108710000D01*
X78780000Y-110790000D02*
X78780000Y-112315000D01*
X78820000Y-107189000D02*
X78820000Y-108710000D01*
X78820000Y-110790000D02*
X78820000Y-112311000D01*
X78860000Y-107194000D02*
X78860000Y-108710000D01*
X78860000Y-110790000D02*
X78860000Y-112306000D01*
X78900000Y-107200000D02*
X78900000Y-108710000D01*
X78900000Y-110790000D02*
X78900000Y-112300000D01*
X78940000Y-107207000D02*
X78940000Y-108710000D01*
X78940000Y-110790000D02*
X78940000Y-112293000D01*
X78980000Y-107214000D02*
X78980000Y-108710000D01*
X78980000Y-110790000D02*
X78980000Y-112286000D01*
X79020000Y-107222000D02*
X79020000Y-108710000D01*
X79020000Y-110790000D02*
X79020000Y-112278000D01*
X79060000Y-107230000D02*
X79060000Y-108710000D01*
X79060000Y-110790000D02*
X79060000Y-112270000D01*
X79100000Y-107239000D02*
X79100000Y-108710000D01*
X79100000Y-110790000D02*
X79100000Y-112261000D01*
X79140000Y-107249000D02*
X79140000Y-108710000D01*
X79140000Y-110790000D02*
X79140000Y-112251000D01*
X79180000Y-107259000D02*
X79180000Y-108710000D01*
X79180000Y-110790000D02*
X79180000Y-112241000D01*
X79221000Y-107270000D02*
X79221000Y-108710000D01*
X79221000Y-110790000D02*
X79221000Y-112230000D01*
X79261000Y-107282000D02*
X79261000Y-108710000D01*
X79261000Y-110790000D02*
X79261000Y-112218000D01*
X79301000Y-107295000D02*
X79301000Y-108710000D01*
X79301000Y-110790000D02*
X79301000Y-112205000D01*
X79341000Y-107308000D02*
X79341000Y-108710000D01*
X79341000Y-110790000D02*
X79341000Y-112192000D01*
X79381000Y-107322000D02*
X79381000Y-108710000D01*
X79381000Y-110790000D02*
X79381000Y-112178000D01*
X79421000Y-107336000D02*
X79421000Y-108710000D01*
X79421000Y-110790000D02*
X79421000Y-112164000D01*
X79461000Y-107352000D02*
X79461000Y-108710000D01*
X79461000Y-110790000D02*
X79461000Y-112148000D01*
X79501000Y-107368000D02*
X79501000Y-108710000D01*
X79501000Y-110790000D02*
X79501000Y-112132000D01*
X79541000Y-107385000D02*
X79541000Y-108710000D01*
X79541000Y-110790000D02*
X79541000Y-112115000D01*
X79581000Y-107402000D02*
X79581000Y-108710000D01*
X79581000Y-110790000D02*
X79581000Y-112098000D01*
X79621000Y-107421000D02*
X79621000Y-108710000D01*
X79621000Y-110790000D02*
X79621000Y-112079000D01*
X79661000Y-107440000D02*
X79661000Y-108710000D01*
X79661000Y-110790000D02*
X79661000Y-112060000D01*
X79701000Y-107460000D02*
X79701000Y-108710000D01*
X79701000Y-110790000D02*
X79701000Y-112040000D01*
X79741000Y-107482000D02*
X79741000Y-108710000D01*
X79741000Y-110790000D02*
X79741000Y-112018000D01*
X79781000Y-107503000D02*
X79781000Y-108710000D01*
X79781000Y-110790000D02*
X79781000Y-111997000D01*
X79821000Y-107526000D02*
X79821000Y-108710000D01*
X79821000Y-110790000D02*
X79821000Y-111974000D01*
X79861000Y-107550000D02*
X79861000Y-108710000D01*
X79861000Y-110790000D02*
X79861000Y-111950000D01*
X79901000Y-107575000D02*
X79901000Y-108710000D01*
X79901000Y-110790000D02*
X79901000Y-111925000D01*
X79941000Y-107601000D02*
X79941000Y-108710000D01*
X79941000Y-110790000D02*
X79941000Y-111899000D01*
X79981000Y-107628000D02*
X79981000Y-108710000D01*
X79981000Y-110790000D02*
X79981000Y-111872000D01*
X80021000Y-107655000D02*
X80021000Y-108710000D01*
X80021000Y-110790000D02*
X80021000Y-111845000D01*
X80061000Y-107685000D02*
X80061000Y-108710000D01*
X80061000Y-110790000D02*
X80061000Y-111815000D01*
X80101000Y-107715000D02*
X80101000Y-108710000D01*
X80101000Y-110790000D02*
X80101000Y-111785000D01*
X80141000Y-107746000D02*
X80141000Y-108710000D01*
X80141000Y-110790000D02*
X80141000Y-111754000D01*
X80181000Y-107779000D02*
X80181000Y-108710000D01*
X80181000Y-110790000D02*
X80181000Y-111721000D01*
X80221000Y-107813000D02*
X80221000Y-108710000D01*
X80221000Y-110790000D02*
X80221000Y-111687000D01*
X80261000Y-107849000D02*
X80261000Y-108710000D01*
X80261000Y-110790000D02*
X80261000Y-111651000D01*
X80301000Y-107886000D02*
X80301000Y-108710000D01*
X80301000Y-110790000D02*
X80301000Y-111614000D01*
X80341000Y-107924000D02*
X80341000Y-108710000D01*
X80341000Y-110790000D02*
X80341000Y-111576000D01*
X80381000Y-107965000D02*
X80381000Y-108710000D01*
X80381000Y-110790000D02*
X80381000Y-111535000D01*
X80421000Y-108007000D02*
X80421000Y-108710000D01*
X80421000Y-110790000D02*
X80421000Y-111493000D01*
X80461000Y-108051000D02*
X80461000Y-108710000D01*
X80461000Y-110790000D02*
X80461000Y-111449000D01*
X80501000Y-108097000D02*
X80501000Y-108710000D01*
X80501000Y-110790000D02*
X80501000Y-111403000D01*
X80541000Y-108145000D02*
X80541000Y-111355000D01*
X80581000Y-108196000D02*
X80581000Y-111304000D01*
X80621000Y-108250000D02*
X80621000Y-111250000D01*
X80661000Y-108307000D02*
X80661000Y-111193000D01*
X80701000Y-108367000D02*
X80701000Y-111133000D01*
X80741000Y-108431000D02*
X80741000Y-111069000D01*
X80781000Y-108499000D02*
X80781000Y-111001000D01*
X80821000Y-108572000D02*
X80821000Y-110928000D01*
X80861000Y-108652000D02*
X80861000Y-110848000D01*
X80901000Y-108739000D02*
X80901000Y-110761000D01*
X80941000Y-108835000D02*
X80941000Y-110665000D01*
X80981000Y-108945000D02*
X80981000Y-110555000D01*
X81021000Y-109073000D02*
X81021000Y-110427000D01*
X81061000Y-109232000D02*
X81061000Y-110268000D01*
X81101000Y-109466000D02*
X81101000Y-110034000D01*
X81120000Y-109750000D02*
G75*
G02*
X75880000Y-109750000I-2620000J0D01*
G01*
X75880000Y-109750000D02*
G75*
G02*
X81120000Y-109750000I2620000J0D01*
G01*
%TO.C,J3*%
X52240000Y-96440000D02*
X52240000Y-90560000D01*
X54210000Y-89390000D02*
X55360000Y-89390000D01*
X54210000Y-97610000D02*
X55360000Y-97610000D01*
X55360000Y-89390000D02*
X55360000Y-90440000D01*
X55360000Y-96560000D02*
X56350000Y-96560000D01*
X55360000Y-97610000D02*
X55360000Y-96560000D01*
D13*
%TO.C,J19*%
X90667900Y-75427001D02*
X90667900Y-78776760D01*
X90667900Y-97223241D02*
X90667900Y-100573001D01*
X90667900Y-100573001D02*
X96332100Y-100573001D01*
X96332100Y-75427001D02*
X90667900Y-75427001D01*
X96332100Y-78776760D02*
X96332100Y-75427001D01*
X96332100Y-100573001D02*
X96332100Y-97223241D01*
D14*
X96106001Y-74792001D02*
G75*
G02*
X95344001Y-74792001I-381000J0D01*
G01*
X95344001Y-74792001D02*
G75*
G02*
X96106001Y-74792001I381000J0D01*
G01*
D12*
%TO.C,C2*%
X71988748Y-79515000D02*
X72511252Y-79515000D01*
X71988748Y-80985000D02*
X72511252Y-80985000D01*
%TO.C,C11*%
X81515000Y-112738748D02*
X81515000Y-113261252D01*
X82985000Y-112738748D02*
X82985000Y-113261252D01*
%TO.C,J2*%
X116940000Y-89340000D02*
X116940000Y-90390000D01*
X116940000Y-90390000D02*
X115950000Y-90390000D01*
X116940000Y-97560000D02*
X116940000Y-96510000D01*
X118090000Y-89340000D02*
X116940000Y-89340000D01*
X118090000Y-97560000D02*
X116940000Y-97560000D01*
X120060000Y-90510000D02*
X120060000Y-96390000D01*
%TO.C,J1*%
X61440000Y-96440000D02*
X61440000Y-90560000D01*
X63410000Y-89390000D02*
X64560000Y-89390000D01*
X63410000Y-97610000D02*
X64560000Y-97610000D01*
X64560000Y-89390000D02*
X64560000Y-90440000D01*
X64560000Y-96560000D02*
X65550000Y-96560000D01*
X64560000Y-97610000D02*
X64560000Y-96560000D01*
D13*
%TO.C,J18*%
X75667900Y-75426999D02*
X75667900Y-78776759D01*
X75667900Y-97223240D02*
X75667900Y-100572999D01*
X75667900Y-100572999D02*
X81332100Y-100572999D01*
X81332100Y-75426999D02*
X75667900Y-75426999D01*
X81332100Y-78776759D02*
X81332100Y-75426999D01*
X81332100Y-100572999D02*
X81332100Y-97223240D01*
D14*
X76655999Y-101207999D02*
G75*
G02*
X75893999Y-101207999I-381000J0D01*
G01*
X75893999Y-101207999D02*
G75*
G02*
X76655999Y-101207999I381000J0D01*
G01*
D12*
%TO.C,U2*%
X100700000Y-81390000D02*
X102700000Y-81390000D01*
X100700000Y-84610000D02*
X102700000Y-84610000D01*
X103040000Y-84840000D02*
X103040000Y-84560000D01*
X103320000Y-84560000D01*
X103040000Y-84840000D01*
G36*
X103040000Y-84840000D02*
G01*
X103040000Y-84560000D01*
X103320000Y-84560000D01*
X103040000Y-84840000D01*
G37*
%TO.C,C7*%
X103438748Y-85765000D02*
X103961252Y-85765000D01*
X103438748Y-87235000D02*
X103961252Y-87235000D01*
%TO.C,J5*%
X61490000Y-85440000D02*
X61490000Y-79560000D01*
X63460000Y-78390000D02*
X64610000Y-78390000D01*
X63460000Y-86610000D02*
X64610000Y-86610000D01*
X64610000Y-78390000D02*
X64610000Y-79440000D01*
X64610000Y-85560000D02*
X65600000Y-85560000D01*
X64610000Y-86610000D02*
X64610000Y-85560000D01*
%TO.C,U7*%
X83590000Y-113400000D02*
X83590000Y-117160000D01*
X83590000Y-117160000D02*
X84850000Y-117160000D01*
X90410000Y-113400000D02*
X90410000Y-117160000D01*
X90410000Y-117160000D02*
X89150000Y-117160000D01*
X90640000Y-112360000D02*
X90310000Y-112120000D01*
X90640000Y-111880000D01*
X90640000Y-112360000D01*
G36*
X90640000Y-112360000D02*
G01*
X90310000Y-112120000D01*
X90640000Y-111880000D01*
X90640000Y-112360000D01*
G37*
%TO.C,U3*%
X71300000Y-91640000D02*
X69300000Y-91640000D01*
X71300000Y-94860000D02*
X69300000Y-94860000D01*
X68960000Y-91690000D02*
X68680000Y-91690000D01*
X68960000Y-91410000D01*
X68960000Y-91690000D01*
G36*
X68960000Y-91690000D02*
G01*
X68680000Y-91690000D01*
X68960000Y-91410000D01*
X68960000Y-91690000D01*
G37*
%TO.C,J8*%
X107640000Y-78390000D02*
X107640000Y-79440000D01*
X107640000Y-79440000D02*
X106650000Y-79440000D01*
X107640000Y-86610000D02*
X107640000Y-85560000D01*
X108790000Y-78390000D02*
X107640000Y-78390000D01*
X108790000Y-86610000D02*
X107640000Y-86610000D01*
X110760000Y-79560000D02*
X110760000Y-85440000D01*
%TO.C,R9*%
X81977500Y-67754724D02*
X81977500Y-67245276D01*
X83022500Y-67754724D02*
X83022500Y-67245276D01*
%TO.C,C12*%
X87488748Y-110485000D02*
X88011252Y-110485000D01*
X87488748Y-109015000D02*
X88011252Y-109015000D01*
%TO.C,C5*%
X103488748Y-95765000D02*
X104011252Y-95765000D01*
X103488748Y-97235000D02*
X104011252Y-97235000D01*
%TO.C,U4*%
X100750000Y-91390000D02*
X102750000Y-91390000D01*
X100750000Y-94610000D02*
X102750000Y-94610000D01*
X103090000Y-94840000D02*
X103090000Y-94560000D01*
X103370000Y-94560000D01*
X103090000Y-94840000D01*
G36*
X103090000Y-94840000D02*
G01*
X103090000Y-94560000D01*
X103370000Y-94560000D01*
X103090000Y-94840000D01*
G37*
%TO.C,U1*%
X71300000Y-82140000D02*
X69300000Y-82140000D01*
X71300000Y-85360000D02*
X69300000Y-85360000D01*
X68960000Y-82190000D02*
X68680000Y-82190000D01*
X68960000Y-81910000D01*
X68960000Y-82190000D01*
G36*
X68960000Y-82190000D02*
G01*
X68680000Y-82190000D01*
X68960000Y-81910000D01*
X68960000Y-82190000D01*
G37*
%TO.C,C8*%
X100015000Y-86988748D02*
X100015000Y-87511252D01*
X101485000Y-86988748D02*
X101485000Y-87511252D01*
%TO.C,D1*%
X82390000Y-103910000D02*
X82390000Y-98850000D01*
X82390000Y-103910000D02*
X85110000Y-103910000D01*
X85110000Y-103910000D02*
X85110000Y-98850000D01*
%TO.C,R10*%
X80227500Y-67754724D02*
X80227500Y-67245276D01*
X81272500Y-67754724D02*
X81272500Y-67245276D01*
D11*
%TO.C,U6*%
X89765000Y-61077500D02*
X85265000Y-61077500D01*
X89765000Y-66527500D02*
X85265000Y-66527500D01*
D12*
X91395000Y-66317500D02*
X91065000Y-66077500D01*
X91395000Y-65837500D01*
X91395000Y-66317500D01*
G36*
X91395000Y-66317500D02*
G01*
X91065000Y-66077500D01*
X91395000Y-65837500D01*
X91395000Y-66317500D01*
G37*
%TO.C,J4*%
X107640000Y-89140000D02*
X107640000Y-90190000D01*
X107640000Y-90190000D02*
X106650000Y-90190000D01*
X107640000Y-97360000D02*
X107640000Y-96310000D01*
X108790000Y-89140000D02*
X107640000Y-89140000D01*
X108790000Y-97360000D02*
X107640000Y-97360000D01*
X110760000Y-90310000D02*
X110760000Y-96190000D01*
%TO.C,J7*%
X52190000Y-85440000D02*
X52190000Y-79560000D01*
X54160000Y-78390000D02*
X55310000Y-78390000D01*
X54160000Y-86610000D02*
X55310000Y-86610000D01*
X55310000Y-78390000D02*
X55310000Y-79440000D01*
X55310000Y-85560000D02*
X56300000Y-85560000D01*
X55310000Y-86610000D02*
X55310000Y-85560000D01*
%TO.C,C6*%
X100111252Y-95765000D02*
X99588748Y-95765000D01*
X100111252Y-97235000D02*
X99588748Y-97235000D01*
%TO.C,C3*%
X68611252Y-89015000D02*
X68088748Y-89015000D01*
X68611252Y-90485000D02*
X68088748Y-90485000D01*
%TO.C,J6*%
X116940000Y-78390000D02*
X116940000Y-79440000D01*
X116940000Y-79440000D02*
X115950000Y-79440000D01*
X116940000Y-86610000D02*
X116940000Y-85560000D01*
X118090000Y-78390000D02*
X116940000Y-78390000D01*
X118090000Y-86610000D02*
X116940000Y-86610000D01*
X120060000Y-79560000D02*
X120060000Y-85440000D01*
%TO.C,R11*%
X79495276Y-63477500D02*
X80004724Y-63477500D01*
X79495276Y-64522500D02*
X80004724Y-64522500D01*
%TO.C,C1*%
X68511252Y-79515000D02*
X67988748Y-79515000D01*
X68511252Y-80985000D02*
X67988748Y-80985000D01*
%TO.C,C4*%
X70515000Y-89261252D02*
X70515000Y-88738748D01*
X71985000Y-89261252D02*
X71985000Y-88738748D01*
%TD*%
M02*
