%TF.GenerationSoftware,KiCad,Pcbnew,8.0.8*%
%TF.CreationDate,2025-02-10T22:14:39-08:00*%
%TF.ProjectId,CMOD_A7_Lower,434d4f44-5f41-4375-9f4c-6f7765722e6b,rev?*%
%TF.SameCoordinates,Original*%
%TF.FileFunction,Soldermask,Bot*%
%TF.FilePolarity,Negative*%
%FSLAX46Y46*%
G04 Gerber Fmt 4.6, Leading zero omitted, Abs format (unit mm)*
G04 Created by KiCad (PCBNEW 8.0.8) date 2025-02-10 22:14:39*
%MOMM*%
%LPD*%
G01*
G04 APERTURE LIST*
G04 Aperture macros list*
%AMRoundRect*
0 Rectangle with rounded corners*
0 $1 Rounding radius*
0 $2 $3 $4 $5 $6 $7 $8 $9 X,Y pos of 4 corners*
0 Add a 4 corners polygon primitive as box body*
4,1,4,$2,$3,$4,$5,$6,$7,$8,$9,$2,$3,0*
0 Add four circle primitives for the rounded corners*
1,1,$1+$1,$2,$3*
1,1,$1+$1,$4,$5*
1,1,$1+$1,$6,$7*
1,1,$1+$1,$8,$9*
0 Add four rect primitives between the rounded corners*
20,1,$1+$1,$2,$3,$4,$5,0*
20,1,$1+$1,$4,$5,$6,$7,0*
20,1,$1+$1,$6,$7,$8,$9,0*
20,1,$1+$1,$8,$9,$2,$3,0*%
G04 Aperture macros list end*
%ADD10R,1.600000X1.600000*%
%ADD11C,1.600000*%
%ADD12C,3.200000*%
%ADD13C,1.651000*%
%ADD14C,1.270000*%
%ADD15RoundRect,0.150000X0.700000X-0.150000X0.700000X0.150000X-0.700000X0.150000X-0.700000X-0.150000X0*%
%ADD16RoundRect,0.250000X1.100000X-0.250000X1.100000X0.250000X-1.100000X0.250000X-1.100000X-0.250000X0*%
%ADD17RoundRect,0.150000X-0.700000X0.150000X-0.700000X-0.150000X0.700000X-0.150000X0.700000X0.150000X0*%
%ADD18RoundRect,0.250000X-1.100000X0.250000X-1.100000X-0.250000X1.100000X-0.250000X1.100000X0.250000X0*%
%ADD19RoundRect,0.237500X0.250000X0.237500X-0.250000X0.237500X-0.250000X-0.237500X0.250000X-0.237500X0*%
%ADD20RoundRect,0.237500X-0.250000X-0.237500X0.250000X-0.237500X0.250000X0.237500X-0.250000X0.237500X0*%
G04 APERTURE END LIST*
D10*
%TO.C,C10*%
X92500000Y-109750000D03*
D11*
X94500000Y-109750000D03*
%TD*%
D10*
%TO.C,C9*%
X77500000Y-109750000D03*
D11*
X79500000Y-109750000D03*
%TD*%
D12*
%TO.C,H1*%
X72000000Y-102000000D03*
%TD*%
D13*
%TO.C,J19*%
X91999876Y-76899992D03*
D14*
X91999876Y-99100055D03*
%TD*%
D12*
%TO.C,H4*%
X100000000Y-102000000D03*
%TD*%
D13*
%TO.C,J18*%
X80000124Y-99100008D03*
D14*
X80000124Y-76899945D03*
%TD*%
D12*
%TO.C,H3*%
X100000000Y-73750000D03*
%TD*%
%TO.C,H2*%
X72000000Y-74000000D03*
%TD*%
D15*
%TO.C,J9*%
X56750000Y-81750000D03*
X56750000Y-80500000D03*
D16*
X53550000Y-83600000D03*
X53550000Y-78650000D03*
%TD*%
D15*
%TO.C,J11*%
X68250000Y-81750000D03*
X68250000Y-80500000D03*
D16*
X65050000Y-83600000D03*
X65050000Y-78650000D03*
%TD*%
D17*
%TO.C,J13*%
X104000000Y-80400000D03*
X104000000Y-81650000D03*
D18*
X107200000Y-78550000D03*
X107200000Y-83500000D03*
%TD*%
D19*
%TO.C,R3*%
X67412500Y-76750000D03*
X65587500Y-76750000D03*
%TD*%
D15*
%TO.C,J10*%
X56850000Y-95375000D03*
X56850000Y-94125000D03*
D16*
X53650000Y-97225000D03*
X53650000Y-92275000D03*
%TD*%
D20*
%TO.C,R6*%
X104425000Y-99250000D03*
X106250000Y-99250000D03*
%TD*%
D19*
%TO.C,R2*%
X57250000Y-89250000D03*
X55425000Y-89250000D03*
%TD*%
D17*
%TO.C,J14*%
X103800000Y-94150000D03*
X103800000Y-95400000D03*
D18*
X107000000Y-92300000D03*
X107000000Y-97250000D03*
%TD*%
D15*
%TO.C,J12*%
X68250000Y-95400000D03*
X68250000Y-94150000D03*
D16*
X65050000Y-97250000D03*
X65050000Y-92300000D03*
%TD*%
D20*
%TO.C,R8*%
X114750000Y-90500000D03*
X116575000Y-90500000D03*
%TD*%
D17*
%TO.C,J16*%
X115550000Y-94150000D03*
X115550000Y-95400000D03*
D18*
X118750000Y-92300000D03*
X118750000Y-97250000D03*
%TD*%
D19*
%TO.C,R1*%
X57162500Y-86750000D03*
X55337500Y-86750000D03*
%TD*%
D20*
%TO.C,R7*%
X114750000Y-85750000D03*
X116575000Y-85750000D03*
%TD*%
%TO.C,R5*%
X104587500Y-76750000D03*
X106412500Y-76750000D03*
%TD*%
D19*
%TO.C,R4*%
X67412500Y-99250000D03*
X65587500Y-99250000D03*
%TD*%
D17*
%TO.C,J15*%
X115550000Y-80600000D03*
X115550000Y-81850000D03*
D18*
X118750000Y-78750000D03*
X118750000Y-83700000D03*
%TD*%
M02*
