%TF.GenerationSoftware,KiCad,Pcbnew,8.0.8*%
%TF.CreationDate,2025-02-10T22:14:38-08:00*%
%TF.ProjectId,CMOD_A7_Lower,434d4f44-5f41-4375-9f4c-6f7765722e6b,rev?*%
%TF.SameCoordinates,Original*%
%TF.FileFunction,Copper,L1,Top*%
%TF.FilePolarity,Positive*%
%FSLAX46Y46*%
G04 Gerber Fmt 4.6, Leading zero omitted, Abs format (unit mm)*
G04 Created by KiCad (PCBNEW 8.0.8) date 2025-02-10 22:14:38*
%MOMM*%
%LPD*%
G01*
G04 APERTURE LIST*
G04 Aperture macros list*
%AMRoundRect*
0 Rectangle with rounded corners*
0 $1 Rounding radius*
0 $2 $3 $4 $5 $6 $7 $8 $9 X,Y pos of 4 corners*
0 Add a 4 corners polygon primitive as box body*
4,1,4,$2,$3,$4,$5,$6,$7,$8,$9,$2,$3,0*
0 Add four circle primitives for the rounded corners*
1,1,$1+$1,$2,$3*
1,1,$1+$1,$4,$5*
1,1,$1+$1,$6,$7*
1,1,$1+$1,$8,$9*
0 Add four rect primitives between the rounded corners*
20,1,$1+$1,$2,$3,$4,$5,0*
20,1,$1+$1,$4,$5,$6,$7,0*
20,1,$1+$1,$6,$7,$8,$9,0*
20,1,$1+$1,$8,$9,$2,$3,0*%
G04 Aperture macros list end*
%TA.AperFunction,ComponentPad*%
%ADD10R,1.600000X1.600000*%
%TD*%
%TA.AperFunction,ComponentPad*%
%ADD11C,1.600000*%
%TD*%
%TA.AperFunction,SMDPad,CuDef*%
%ADD12RoundRect,0.150000X0.625000X-0.150000X0.625000X0.150000X-0.625000X0.150000X-0.625000X-0.150000X0*%
%TD*%
%TA.AperFunction,SMDPad,CuDef*%
%ADD13RoundRect,0.250000X0.650000X-0.350000X0.650000X0.350000X-0.650000X0.350000X-0.650000X-0.350000X0*%
%TD*%
%TA.AperFunction,SMDPad,CuDef*%
%ADD14R,2.438400X0.381000*%
%TD*%
%TA.AperFunction,ComponentPad*%
%ADD15C,1.651000*%
%TD*%
%TA.AperFunction,ComponentPad*%
%ADD16C,1.270000*%
%TD*%
%TA.AperFunction,SMDPad,CuDef*%
%ADD17RoundRect,0.250000X-0.250000X-0.475000X0.250000X-0.475000X0.250000X0.475000X-0.250000X0.475000X0*%
%TD*%
%TA.AperFunction,SMDPad,CuDef*%
%ADD18RoundRect,0.250000X-0.475000X0.250000X-0.475000X-0.250000X0.475000X-0.250000X0.475000X0.250000X0*%
%TD*%
%TA.AperFunction,SMDPad,CuDef*%
%ADD19RoundRect,0.150000X-0.625000X0.150000X-0.625000X-0.150000X0.625000X-0.150000X0.625000X0.150000X0*%
%TD*%
%TA.AperFunction,SMDPad,CuDef*%
%ADD20RoundRect,0.250000X-0.650000X0.350000X-0.650000X-0.350000X0.650000X-0.350000X0.650000X0.350000X0*%
%TD*%
%TA.AperFunction,SMDPad,CuDef*%
%ADD21R,0.700000X0.250000*%
%TD*%
%TA.AperFunction,SMDPad,CuDef*%
%ADD22RoundRect,0.375000X-0.375000X0.625000X-0.375000X-0.625000X0.375000X-0.625000X0.375000X0.625000X0*%
%TD*%
%TA.AperFunction,SMDPad,CuDef*%
%ADD23RoundRect,0.500000X-1.400000X0.500000X-1.400000X-0.500000X1.400000X-0.500000X1.400000X0.500000X0*%
%TD*%
%TA.AperFunction,SMDPad,CuDef*%
%ADD24RoundRect,0.237500X0.237500X-0.250000X0.237500X0.250000X-0.237500X0.250000X-0.237500X-0.250000X0*%
%TD*%
%TA.AperFunction,SMDPad,CuDef*%
%ADD25RoundRect,0.250000X0.800000X-0.450000X0.800000X0.450000X-0.800000X0.450000X-0.800000X-0.450000X0*%
%TD*%
%TA.AperFunction,SMDPad,CuDef*%
%ADD26R,1.050000X0.450000*%
%TD*%
%TA.AperFunction,SMDPad,CuDef*%
%ADD27R,1.470000X0.895000*%
%TD*%
%TA.AperFunction,SMDPad,CuDef*%
%ADD28RoundRect,0.250000X0.250000X0.475000X-0.250000X0.475000X-0.250000X-0.475000X0.250000X-0.475000X0*%
%TD*%
%TA.AperFunction,SMDPad,CuDef*%
%ADD29RoundRect,0.237500X-0.250000X-0.237500X0.250000X-0.237500X0.250000X0.237500X-0.250000X0.237500X0*%
%TD*%
%TA.AperFunction,SMDPad,CuDef*%
%ADD30RoundRect,0.250000X0.475000X-0.250000X0.475000X0.250000X-0.475000X0.250000X-0.475000X-0.250000X0*%
%TD*%
%TA.AperFunction,ViaPad*%
%ADD31C,0.600000*%
%TD*%
%TA.AperFunction,Conductor*%
%ADD32C,0.500000*%
%TD*%
%TA.AperFunction,Conductor*%
%ADD33C,1.000000*%
%TD*%
%TA.AperFunction,Conductor*%
%ADD34C,0.200000*%
%TD*%
%TA.AperFunction,Conductor*%
%ADD35C,0.300000*%
%TD*%
%TA.AperFunction,Conductor*%
%ADD36C,0.800000*%
%TD*%
G04 APERTURE END LIST*
D10*
%TO.P,C10,1*%
%TO.N,+12V*%
X92500000Y-109750000D03*
D11*
%TO.P,C10,2*%
%TO.N,GND*%
X94500000Y-109750000D03*
%TD*%
D10*
%TO.P,C9,1*%
%TO.N,+12V*%
X77500000Y-109750000D03*
D11*
%TO.P,C9,2*%
%TO.N,GND*%
X79500000Y-109750000D03*
%TD*%
D12*
%TO.P,J3,1,Pin_1*%
%TO.N,GND*%
X55575000Y-96000000D03*
%TO.P,J3,2,Pin_2*%
%TO.N,/EA_10*%
X55575000Y-95000000D03*
%TO.P,J3,3,Pin_3*%
%TO.N,/EB_10*%
X55575000Y-94000000D03*
%TO.P,J3,4,Pin_4*%
%TO.N,+3.3V*%
X55575000Y-93000000D03*
%TO.P,J3,5,Pin_5*%
%TO.N,/MA_10*%
X55575000Y-92000000D03*
%TO.P,J3,6,Pin_6*%
%TO.N,/MB_10*%
X55575000Y-91000000D03*
D13*
%TO.P,J3,MP*%
%TO.N,N/C*%
X53050000Y-97300000D03*
X53050000Y-89700000D03*
%TD*%
D14*
%TO.P,J19,1,1*%
%TO.N,/INB_21*%
X95724999Y-79300001D03*
%TO.P,J19,2,2*%
%TO.N,/INA_21*%
X95724999Y-79899999D03*
%TO.P,J19,3,3*%
%TO.N,/INB_20*%
X95724999Y-80500001D03*
%TO.P,J19,4,4*%
%TO.N,/INA_20*%
X95724999Y-81099999D03*
%TO.P,J19,5,5*%
%TO.N,/EB_20*%
X95724999Y-81700001D03*
%TO.P,J19,6,6*%
%TO.N,/EA_20*%
X95724999Y-82300000D03*
%TO.P,J19,7,7*%
%TO.N,/EB_21*%
X95724999Y-82900001D03*
%TO.P,J19,8,8*%
%TO.N,/EA_21*%
X95724999Y-83500000D03*
%TO.P,J19,9,9*%
%TO.N,/INB_31*%
X95724999Y-84100001D03*
%TO.P,J19,10,10*%
%TO.N,/INA_31*%
X95724999Y-84700000D03*
%TO.P,J19,11,11*%
%TO.N,/INB_30*%
X95724999Y-85300001D03*
%TO.P,J19,12,12*%
%TO.N,/INA_30*%
X95724999Y-85900000D03*
%TO.P,J19,13,13*%
%TO.N,/EB_30*%
X95724999Y-86500001D03*
%TO.P,J19,14,14*%
%TO.N,/EA_30*%
X95724999Y-87100000D03*
%TO.P,J19,15,15*%
%TO.N,/EB_31*%
X95724999Y-87700001D03*
%TO.P,J19,16,16*%
%TO.N,/EA_31*%
X95724999Y-88300000D03*
%TO.P,J19,17,17*%
%TO.N,GND*%
X95724999Y-88900002D03*
%TO.P,J19,18,18*%
X95724999Y-89500000D03*
%TO.P,J19,19,19*%
X95724999Y-90100002D03*
%TO.P,J19,20,20*%
X95724999Y-90700001D03*
%TO.P,J19,21,21*%
X95724999Y-91300002D03*
%TO.P,J19,22,22*%
X95724999Y-91900001D03*
%TO.P,J19,23,23*%
X95724999Y-92500002D03*
%TO.P,J19,24,24*%
X95724999Y-93100001D03*
%TO.P,J19,25,25*%
X95724999Y-93700002D03*
%TO.P,J19,26,26*%
X95724999Y-94300001D03*
%TO.P,J19,27,27*%
X95724999Y-94900002D03*
%TO.P,J19,28,28*%
X95724999Y-95500001D03*
%TO.P,J19,29,29*%
X95724999Y-96100002D03*
%TO.P,J19,30,30*%
X95724999Y-96700001D03*
%TO.P,J19,31,31*%
X91275001Y-96700001D03*
%TO.P,J19,32,32*%
X91275001Y-96100002D03*
%TO.P,J19,33,33*%
X91275001Y-95500001D03*
%TO.P,J19,34,34*%
X91275001Y-94900002D03*
%TO.P,J19,35,35*%
X91275001Y-94300001D03*
%TO.P,J19,36,36*%
X91275001Y-93700002D03*
%TO.P,J19,37,37*%
X91275001Y-93100001D03*
%TO.P,J19,38,38*%
X91275001Y-92500002D03*
%TO.P,J19,39,39*%
X91275001Y-91900001D03*
%TO.P,J19,40,40*%
X91275001Y-91300002D03*
%TO.P,J19,41,41*%
X91275001Y-90700001D03*
%TO.P,J19,42,42*%
X91275001Y-90100002D03*
%TO.P,J19,43,43*%
X91275001Y-89500000D03*
%TO.P,J19,44,44*%
X91275001Y-88900002D03*
%TO.P,J19,45,45*%
X91275001Y-88300000D03*
%TO.P,J19,46,46*%
X91275001Y-87700001D03*
%TO.P,J19,47,47*%
X91275001Y-87100000D03*
%TO.P,J19,48,48*%
X91275001Y-86500001D03*
%TO.P,J19,49,49*%
X91275001Y-85900000D03*
%TO.P,J19,50,50*%
X91275001Y-85300001D03*
%TO.P,J19,51,51*%
X91275001Y-84700000D03*
%TO.P,J19,52,52*%
X91275001Y-84100001D03*
%TO.P,J19,53,53*%
X91275001Y-83500000D03*
%TO.P,J19,54,54*%
X91275001Y-82900001D03*
%TO.P,J19,55,55*%
X91275001Y-82300000D03*
%TO.P,J19,56,56*%
X91275001Y-81700001D03*
%TO.P,J19,57,57*%
X91275001Y-81099999D03*
%TO.P,J19,58,58*%
X91275001Y-80500001D03*
%TO.P,J19,59,59*%
X91275001Y-79899999D03*
%TO.P,J19,60,60*%
X91275001Y-79300001D03*
D15*
%TO.P,J19,61*%
%TO.N,N/C*%
X91999876Y-76899992D03*
D16*
%TO.P,J19,62*%
X91999876Y-99100055D03*
%TD*%
D17*
%TO.P,C2,1*%
%TO.N,+12V*%
X71300000Y-80250000D03*
%TO.P,C2,2*%
%TO.N,GND*%
X73200000Y-80250000D03*
%TD*%
D18*
%TO.P,C11,1*%
%TO.N,+12V*%
X82250000Y-112050000D03*
%TO.P,C11,2*%
%TO.N,GND*%
X82250000Y-113950000D03*
%TD*%
D19*
%TO.P,J2,1,Pin_1*%
%TO.N,GND*%
X116725000Y-90950000D03*
%TO.P,J2,2,Pin_2*%
%TO.N,/EB_30*%
X116725000Y-91950000D03*
%TO.P,J2,3,Pin_3*%
%TO.N,/EA_30*%
X116725000Y-92950000D03*
%TO.P,J2,4,Pin_4*%
%TO.N,+3.3V*%
X116725000Y-93950000D03*
%TO.P,J2,5,Pin_5*%
%TO.N,/MA_30*%
X116725000Y-94950000D03*
%TO.P,J2,6,Pin_6*%
%TO.N,/MB_30*%
X116725000Y-95950000D03*
D20*
%TO.P,J2,MP*%
%TO.N,N/C*%
X119250000Y-89650000D03*
X119250000Y-97250000D03*
%TD*%
D12*
%TO.P,J1,1,Pin_1*%
%TO.N,GND*%
X64775000Y-96000000D03*
%TO.P,J1,2,Pin_2*%
%TO.N,/EA_11*%
X64775000Y-95000000D03*
%TO.P,J1,3,Pin_3*%
%TO.N,/EB_11*%
X64775000Y-94000000D03*
%TO.P,J1,4,Pin_4*%
%TO.N,+3.3V*%
X64775000Y-93000000D03*
%TO.P,J1,5,Pin_5*%
%TO.N,/MA_11*%
X64775000Y-92000000D03*
%TO.P,J1,6,Pin_6*%
%TO.N,/MB_11*%
X64775000Y-91000000D03*
D13*
%TO.P,J1,MP*%
%TO.N,N/C*%
X62250000Y-97300000D03*
X62250000Y-89700000D03*
%TD*%
D14*
%TO.P,J18,1,1*%
%TO.N,/INB_11*%
X76275001Y-96699999D03*
%TO.P,J18,2,2*%
%TO.N,/INA_11*%
X76275001Y-96100001D03*
%TO.P,J18,3,3*%
%TO.N,/INB_10*%
X76275001Y-95499999D03*
%TO.P,J18,4,4*%
%TO.N,/INA_10*%
X76275001Y-94900001D03*
%TO.P,J18,5,5*%
%TO.N,/EA_11*%
X76275001Y-94299999D03*
%TO.P,J18,6,6*%
%TO.N,/EB_11*%
X76275001Y-93700000D03*
%TO.P,J18,7,7*%
%TO.N,/EA_10*%
X76275001Y-93099999D03*
%TO.P,J18,8,8*%
%TO.N,/EB_10*%
X76275001Y-92500000D03*
%TO.P,J18,9,9*%
%TO.N,/INB_01*%
X76275001Y-91899999D03*
%TO.P,J18,10,10*%
%TO.N,/INA_01*%
X76275001Y-91300000D03*
%TO.P,J18,11,11*%
%TO.N,/INB_00*%
X76275001Y-90699999D03*
%TO.P,J18,12,12*%
%TO.N,/INA_00*%
X76275001Y-90100000D03*
%TO.P,J18,13,13*%
%TO.N,/EA_01*%
X76275001Y-89499999D03*
%TO.P,J18,14,14*%
%TO.N,/EB_01*%
X76275001Y-88900000D03*
%TO.P,J18,15,15*%
%TO.N,/EA_00*%
X76275001Y-88299999D03*
%TO.P,J18,16,16*%
%TO.N,/EB_00*%
X76275001Y-87700000D03*
%TO.P,J18,17,17*%
%TO.N,GND*%
X76275001Y-87099998D03*
%TO.P,J18,18,18*%
X76275001Y-86500000D03*
%TO.P,J18,19,19*%
X76275001Y-85899998D03*
%TO.P,J18,20,20*%
X76275001Y-85299999D03*
%TO.P,J18,21,21*%
X76275001Y-84699998D03*
%TO.P,J18,22,22*%
X76275001Y-84099999D03*
%TO.P,J18,23,23*%
X76275001Y-83499998D03*
%TO.P,J18,24,24*%
X76275001Y-82899999D03*
%TO.P,J18,25,25*%
X76275001Y-82299998D03*
%TO.P,J18,26,26*%
X76275001Y-81699999D03*
%TO.P,J18,27,27*%
X76275001Y-81099998D03*
%TO.P,J18,28,28*%
X76275001Y-80499999D03*
%TO.P,J18,29,29*%
%TO.N,/SDA*%
X76275001Y-79899998D03*
%TO.P,J18,30,30*%
%TO.N,/SCL*%
X76275001Y-79299999D03*
%TO.P,J18,31,31*%
%TO.N,Net-(D1-A)*%
X80724999Y-79299999D03*
%TO.P,J18,32,32*%
X80724999Y-79899998D03*
%TO.P,J18,33,33*%
X80724999Y-80499999D03*
%TO.P,J18,34,34*%
X80724999Y-81099998D03*
%TO.P,J18,35,35*%
X80724999Y-81699999D03*
%TO.P,J18,36,36*%
X80724999Y-82299998D03*
%TO.P,J18,37,37*%
X80724999Y-82899999D03*
%TO.P,J18,38,38*%
X80724999Y-83499998D03*
%TO.P,J18,39,39*%
X80724999Y-84099999D03*
%TO.P,J18,40,40*%
X80724999Y-84699998D03*
%TO.P,J18,41,41*%
X80724999Y-85299999D03*
%TO.P,J18,42,42*%
X80724999Y-85899998D03*
%TO.P,J18,43,43*%
X80724999Y-86500000D03*
%TO.P,J18,44,44*%
X80724999Y-87099998D03*
%TO.P,J18,45,45*%
X80724999Y-87700000D03*
%TO.P,J18,46,46*%
X80724999Y-88299999D03*
%TO.P,J18,47,47*%
X80724999Y-88900000D03*
%TO.P,J18,48,48*%
X80724999Y-89499999D03*
%TO.P,J18,49,49*%
X80724999Y-90100000D03*
%TO.P,J18,50,50*%
X80724999Y-90699999D03*
%TO.P,J18,51,51*%
X80724999Y-91300000D03*
%TO.P,J18,52,52*%
X80724999Y-91899999D03*
%TO.P,J18,53,53*%
X80724999Y-92500000D03*
%TO.P,J18,54,54*%
X80724999Y-93099999D03*
%TO.P,J18,55,55*%
X80724999Y-93700000D03*
%TO.P,J18,56,56*%
X80724999Y-94299999D03*
%TO.P,J18,57,57*%
X80724999Y-94900001D03*
%TO.P,J18,58,58*%
X80724999Y-95499999D03*
%TO.P,J18,59,59*%
X80724999Y-96100001D03*
%TO.P,J18,60,60*%
X80724999Y-96699999D03*
D15*
%TO.P,J18,61*%
%TO.N,N/C*%
X80000124Y-99100008D03*
D16*
%TO.P,J18,62*%
X80000124Y-76899945D03*
%TD*%
D21*
%TO.P,U2,1,VM*%
%TO.N,+3.3V*%
X102500000Y-84250000D03*
%TO.P,U2,2,AOUT1*%
%TO.N,/MB_20*%
X102500000Y-83750000D03*
%TO.P,U2,3,AOUT2*%
%TO.N,/MA_20*%
X102500000Y-83250000D03*
%TO.P,U2,4,BOUT1*%
%TO.N,/MB_21*%
X102500000Y-82750000D03*
%TO.P,U2,5,BOUT2*%
%TO.N,/MA_21*%
X102500000Y-82250000D03*
%TO.P,U2,6,GND*%
%TO.N,GND*%
X102500000Y-81750000D03*
%TO.P,U2,7,BIN2*%
%TO.N,/INB_21*%
X100900000Y-81750000D03*
%TO.P,U2,8,BIN1*%
%TO.N,/INA_21*%
X100900000Y-82250000D03*
%TO.P,U2,9,AIN2*%
%TO.N,/INB_20*%
X100900000Y-82750000D03*
%TO.P,U2,10,AIN1*%
%TO.N,/INA_20*%
X100900000Y-83250000D03*
%TO.P,U2,11,MODE*%
%TO.N,unconnected-(U2-MODE-Pad11)*%
X100900000Y-83750000D03*
%TO.P,U2,12,VCC*%
%TO.N,+12V*%
X100900000Y-84250000D03*
%TD*%
D17*
%TO.P,C7,1*%
%TO.N,+3.3V*%
X102750000Y-86500000D03*
%TO.P,C7,2*%
%TO.N,GND*%
X104650000Y-86500000D03*
%TD*%
D12*
%TO.P,J5,1,Pin_1*%
%TO.N,GND*%
X64825000Y-85000000D03*
%TO.P,J5,2,Pin_2*%
%TO.N,/EA_01*%
X64825000Y-84000000D03*
%TO.P,J5,3,Pin_3*%
%TO.N,/EB_01*%
X64825000Y-83000000D03*
%TO.P,J5,4,Pin_4*%
%TO.N,+3.3V*%
X64825000Y-82000000D03*
%TO.P,J5,5,Pin_5*%
%TO.N,/MA_01*%
X64825000Y-81000000D03*
%TO.P,J5,6,Pin_6*%
%TO.N,/MB_01*%
X64825000Y-80000000D03*
D13*
%TO.P,J5,MP*%
%TO.N,N/C*%
X62300000Y-86300000D03*
X62300000Y-78700000D03*
%TD*%
D22*
%TO.P,U7,1,GND*%
%TO.N,GND*%
X89300000Y-112100000D03*
%TO.P,U7,2,VO*%
%TO.N,+3.3V*%
X87000000Y-112100000D03*
D23*
X87000000Y-118400000D03*
D22*
%TO.P,U7,3,VI*%
%TO.N,+12V*%
X84700000Y-112100000D03*
%TD*%
D21*
%TO.P,U3,1,VM*%
%TO.N,+3.3V*%
X69500000Y-92000000D03*
%TO.P,U3,2,AOUT1*%
%TO.N,/MB_10*%
X69500000Y-92500000D03*
%TO.P,U3,3,AOUT2*%
%TO.N,/MA_10*%
X69500000Y-93000000D03*
%TO.P,U3,4,BOUT1*%
%TO.N,/MB_11*%
X69500000Y-93500000D03*
%TO.P,U3,5,BOUT2*%
%TO.N,/MA_11*%
X69500000Y-94000000D03*
%TO.P,U3,6,GND*%
%TO.N,GND*%
X69500000Y-94500000D03*
%TO.P,U3,7,BIN2*%
%TO.N,/INB_11*%
X71100000Y-94500000D03*
%TO.P,U3,8,BIN1*%
%TO.N,/INA_11*%
X71100000Y-94000000D03*
%TO.P,U3,9,AIN2*%
%TO.N,/INB_10*%
X71100000Y-93500000D03*
%TO.P,U3,10,AIN1*%
%TO.N,/INA_10*%
X71100000Y-93000000D03*
%TO.P,U3,11,MODE*%
%TO.N,unconnected-(U3-MODE-Pad11)*%
X71100000Y-92500000D03*
%TO.P,U3,12,VCC*%
%TO.N,+12V*%
X71100000Y-92000000D03*
%TD*%
D19*
%TO.P,J8,1,Pin_1*%
%TO.N,GND*%
X107425000Y-80000000D03*
%TO.P,J8,2,Pin_2*%
%TO.N,/EB_21*%
X107425000Y-81000000D03*
%TO.P,J8,3,Pin_3*%
%TO.N,/EA_21*%
X107425000Y-82000000D03*
%TO.P,J8,4,Pin_4*%
%TO.N,+3.3V*%
X107425000Y-83000000D03*
%TO.P,J8,5,Pin_5*%
%TO.N,/MA_21*%
X107425000Y-84000000D03*
%TO.P,J8,6,Pin_6*%
%TO.N,/MB_21*%
X107425000Y-85000000D03*
D20*
%TO.P,J8,MP*%
%TO.N,N/C*%
X109950000Y-78700000D03*
X109950000Y-86300000D03*
%TD*%
D24*
%TO.P,R9,1*%
%TO.N,+3.3V*%
X82500000Y-68412500D03*
%TO.P,R9,2*%
%TO.N,/SDA*%
X82500000Y-66587500D03*
%TD*%
D17*
%TO.P,C12,2*%
%TO.N,GND*%
X88700000Y-109750000D03*
%TO.P,C12,1*%
%TO.N,+3.3V*%
X86800000Y-109750000D03*
%TD*%
%TO.P,C5,1*%
%TO.N,+3.3V*%
X102800000Y-96500000D03*
%TO.P,C5,2*%
%TO.N,GND*%
X104700000Y-96500000D03*
%TD*%
D21*
%TO.P,U4,1,VM*%
%TO.N,+3.3V*%
X102550000Y-94250000D03*
%TO.P,U4,2,AOUT1*%
%TO.N,/MB_30*%
X102550000Y-93750000D03*
%TO.P,U4,3,AOUT2*%
%TO.N,/MA_30*%
X102550000Y-93250000D03*
%TO.P,U4,4,BOUT1*%
%TO.N,/MB_31*%
X102550000Y-92750000D03*
%TO.P,U4,5,BOUT2*%
%TO.N,/MA_31*%
X102550000Y-92250000D03*
%TO.P,U4,6,GND*%
%TO.N,GND*%
X102550000Y-91750000D03*
%TO.P,U4,7,BIN2*%
%TO.N,/INB_31*%
X100950000Y-91750000D03*
%TO.P,U4,8,BIN1*%
%TO.N,/INA_31*%
X100950000Y-92250000D03*
%TO.P,U4,9,AIN2*%
%TO.N,/INB_30*%
X100950000Y-92750000D03*
%TO.P,U4,10,AIN1*%
%TO.N,/INA_30*%
X100950000Y-93250000D03*
%TO.P,U4,11,MODE*%
%TO.N,unconnected-(U4-MODE-Pad11)*%
X100950000Y-93750000D03*
%TO.P,U4,12,VCC*%
%TO.N,+12V*%
X100950000Y-94250000D03*
%TD*%
%TO.P,U1,1,VM*%
%TO.N,+3.3V*%
X69500000Y-82500000D03*
%TO.P,U1,2,AOUT1*%
%TO.N,/MB_00*%
X69500000Y-83000000D03*
%TO.P,U1,3,AOUT2*%
%TO.N,/MA_00*%
X69500000Y-83500000D03*
%TO.P,U1,4,BOUT1*%
%TO.N,/MB_01*%
X69500000Y-84000000D03*
%TO.P,U1,5,BOUT2*%
%TO.N,/MA_01*%
X69500000Y-84500000D03*
%TO.P,U1,6,GND*%
%TO.N,GND*%
X69500000Y-85000000D03*
%TO.P,U1,7,BIN2*%
%TO.N,/INB_01*%
X71100000Y-85000000D03*
%TO.P,U1,8,BIN1*%
%TO.N,/INA_01*%
X71100000Y-84500000D03*
%TO.P,U1,9,AIN2*%
%TO.N,/INB_00*%
X71100000Y-84000000D03*
%TO.P,U1,10,AIN1*%
%TO.N,/INA_00*%
X71100000Y-83500000D03*
%TO.P,U1,11,MODE*%
%TO.N,unconnected-(U1-MODE-Pad11)*%
X71100000Y-83000000D03*
%TO.P,U1,12,VCC*%
%TO.N,+12V*%
X71100000Y-82500000D03*
%TD*%
D18*
%TO.P,C8,1*%
%TO.N,+12V*%
X100750000Y-86300000D03*
%TO.P,C8,2*%
%TO.N,GND*%
X100750000Y-88200000D03*
%TD*%
D25*
%TO.P,D1,1,K*%
%TO.N,+12V*%
X83750000Y-102950000D03*
%TO.P,D1,2,A*%
%TO.N,Net-(D1-A)*%
X83750000Y-98550000D03*
%TD*%
D24*
%TO.P,R10,1*%
%TO.N,+3.3V*%
X80750000Y-68412500D03*
%TO.P,R10,2*%
%TO.N,/SCL*%
X80750000Y-66587500D03*
%TD*%
D26*
%TO.P,U6,1,A0*%
%TO.N,unconnected-(U6-A0-Pad1)*%
X90290000Y-66077500D03*
%TO.P,U6,2,A1*%
%TO.N,unconnected-(U6-A1-Pad2)*%
X90290000Y-65427500D03*
%TO.P,U6,3,A2*%
%TO.N,unconnected-(U6-A2-Pad3)*%
X90290000Y-64777500D03*
%TO.P,U6,4,P0*%
%TO.N,/SW_20*%
X90290000Y-64127500D03*
%TO.P,U6,5,P1*%
%TO.N,/SW_30*%
X90290000Y-63477500D03*
%TO.P,U6,6,P2*%
%TO.N,/SW_31*%
X90290000Y-62827500D03*
%TO.P,U6,7,P3*%
%TO.N,/SW_21*%
X90290000Y-62177500D03*
%TO.P,U6,8,GND*%
%TO.N,GND*%
X90290000Y-61527500D03*
%TO.P,U6,9,P4*%
%TO.N,/SW_10*%
X84740000Y-61527500D03*
%TO.P,U6,10,P5*%
%TO.N,/SW_00*%
X84740000Y-62177500D03*
%TO.P,U6,11,P6*%
%TO.N,/SW_11*%
X84740000Y-62827500D03*
%TO.P,U6,12,P7*%
%TO.N,/SW_01*%
X84740000Y-63477500D03*
%TO.P,U6,13,NINT*%
%TO.N,Net-(U6-NINT)*%
X84740000Y-64127500D03*
%TO.P,U6,14,SCL*%
%TO.N,/SCL*%
X84740000Y-64777500D03*
%TO.P,U6,15,SDA*%
%TO.N,/SDA*%
X84740000Y-65427500D03*
%TO.P,U6,16,VCC*%
%TO.N,+3.3V*%
X84740000Y-66077500D03*
D27*
%TO.P,U6,17*%
%TO.N,N/C*%
X88250000Y-65145000D03*
X88250000Y-64250000D03*
X88250000Y-63355000D03*
X88250000Y-62460000D03*
X86780000Y-65145000D03*
X86780000Y-64250000D03*
X86780000Y-63355000D03*
X86780000Y-62460000D03*
%TD*%
D19*
%TO.P,J4,1,Pin_1*%
%TO.N,GND*%
X107425000Y-90750000D03*
%TO.P,J4,2,Pin_2*%
%TO.N,/EB_31*%
X107425000Y-91750000D03*
%TO.P,J4,3,Pin_3*%
%TO.N,/EA_31*%
X107425000Y-92750000D03*
%TO.P,J4,4,Pin_4*%
%TO.N,+3.3V*%
X107425000Y-93750000D03*
%TO.P,J4,5,Pin_5*%
%TO.N,/MA_31*%
X107425000Y-94750000D03*
%TO.P,J4,6,Pin_6*%
%TO.N,/MB_31*%
X107425000Y-95750000D03*
D20*
%TO.P,J4,MP*%
%TO.N,N/C*%
X109950000Y-89450000D03*
X109950000Y-97050000D03*
%TD*%
D12*
%TO.P,J7,1,Pin_1*%
%TO.N,GND*%
X55525000Y-85000000D03*
%TO.P,J7,2,Pin_2*%
%TO.N,/EA_00*%
X55525000Y-84000000D03*
%TO.P,J7,3,Pin_3*%
%TO.N,/EB_00*%
X55525000Y-83000000D03*
%TO.P,J7,4,Pin_4*%
%TO.N,+3.3V*%
X55525000Y-82000000D03*
%TO.P,J7,5,Pin_5*%
%TO.N,/MA_00*%
X55525000Y-81000000D03*
%TO.P,J7,6,Pin_6*%
%TO.N,/MB_00*%
X55525000Y-80000000D03*
D13*
%TO.P,J7,MP*%
%TO.N,N/C*%
X53000000Y-86300000D03*
X53000000Y-78700000D03*
%TD*%
D28*
%TO.P,C6,1*%
%TO.N,+12V*%
X100800000Y-96500000D03*
%TO.P,C6,2*%
%TO.N,GND*%
X98900000Y-96500000D03*
%TD*%
%TO.P,C3,1*%
%TO.N,+3.3V*%
X69300000Y-89750000D03*
%TO.P,C3,2*%
%TO.N,GND*%
X67400000Y-89750000D03*
%TD*%
D19*
%TO.P,J6,1,Pin_1*%
%TO.N,GND*%
X116725000Y-80000000D03*
%TO.P,J6,2,Pin_2*%
%TO.N,/EB_20*%
X116725000Y-81000000D03*
%TO.P,J6,3,Pin_3*%
%TO.N,/EA_20*%
X116725000Y-82000000D03*
%TO.P,J6,4,Pin_4*%
%TO.N,+3.3V*%
X116725000Y-83000000D03*
%TO.P,J6,5,Pin_5*%
%TO.N,/MA_20*%
X116725000Y-84000000D03*
%TO.P,J6,6,Pin_6*%
%TO.N,/MB_20*%
X116725000Y-85000000D03*
D20*
%TO.P,J6,MP*%
%TO.N,N/C*%
X119250000Y-78700000D03*
X119250000Y-86300000D03*
%TD*%
D29*
%TO.P,R11,1*%
%TO.N,+3.3V*%
X78837500Y-64000000D03*
%TO.P,R11,2*%
%TO.N,Net-(U6-NINT)*%
X80662500Y-64000000D03*
%TD*%
D28*
%TO.P,C1,1*%
%TO.N,+3.3V*%
X69200000Y-80250000D03*
%TO.P,C1,2*%
%TO.N,GND*%
X67300000Y-80250000D03*
%TD*%
D30*
%TO.P,C4,1*%
%TO.N,+12V*%
X71250000Y-89950000D03*
%TO.P,C4,2*%
%TO.N,GND*%
X71250000Y-88050000D03*
%TD*%
D31*
%TO.N,GND*%
X51000000Y-88000000D03*
X86000000Y-53000000D03*
X91000000Y-118000000D03*
X69500000Y-86250000D03*
X107750000Y-77250000D03*
X116000000Y-88000000D03*
X95724999Y-97500000D03*
X86000000Y-93000000D03*
X98900000Y-95250000D03*
X76000000Y-73000000D03*
X96000000Y-68000000D03*
X91000000Y-58000000D03*
X86000000Y-78000000D03*
X86000000Y-98000000D03*
X105750000Y-96250000D03*
X76000000Y-103000000D03*
X111000000Y-88000000D03*
X107000000Y-89250000D03*
X69806305Y-95612933D03*
X66500000Y-75500000D03*
X81000000Y-118000000D03*
X66000000Y-88000000D03*
X96000000Y-103000000D03*
X76000000Y-68000000D03*
X115000000Y-79250000D03*
X121000000Y-88000000D03*
X81000000Y-53000000D03*
X91000000Y-73000000D03*
X102375000Y-90650000D03*
X81000000Y-58000000D03*
X81000000Y-113000000D03*
X86000000Y-73000000D03*
X74500000Y-80500000D03*
X106000000Y-80000000D03*
X81000000Y-108000000D03*
X96000000Y-108000000D03*
X106000000Y-88000000D03*
X90750000Y-60500000D03*
X61000000Y-88000000D03*
X104650000Y-87650000D03*
X86000000Y-83000000D03*
X86000000Y-58000000D03*
X107500000Y-99250000D03*
X91000000Y-53000000D03*
X102000000Y-80150000D03*
X76000000Y-108000000D03*
X116250000Y-89000000D03*
X96000000Y-118000000D03*
X100750000Y-89000000D03*
%TO.N,+3.3V*%
X109000000Y-95750000D03*
X102750000Y-97750000D03*
X63000000Y-82250000D03*
X86750000Y-103500000D03*
X109000000Y-82250000D03*
X113500000Y-94250000D03*
X53750000Y-94250000D03*
X102500000Y-88000000D03*
X69500000Y-88250000D03*
X69250000Y-78750000D03*
X113750000Y-82250000D03*
X62500000Y-94750000D03*
X84750000Y-68750000D03*
X58000000Y-82000000D03*
X78750000Y-65250000D03*
%TO.N,/MA_00*%
X58000000Y-81000000D03*
X67349999Y-82520865D03*
%TO.N,/EB_00*%
X57000000Y-83000000D03*
X78500000Y-87000000D03*
%TO.N,/MB_00*%
X68250000Y-82550000D03*
X58049265Y-80049265D03*
%TO.N,/EA_00*%
X57000000Y-84000000D03*
X78500000Y-88250000D03*
%TO.N,/EB_20*%
X93750000Y-80750000D03*
X112500000Y-78250000D03*
%TO.N,/MB_20*%
X104000000Y-85000000D03*
X113872932Y-85123507D03*
%TO.N,/MA_20*%
X113875000Y-84125000D03*
X104800003Y-85000000D03*
%TO.N,/EA_20*%
X93500000Y-82000000D03*
X112500000Y-79250000D03*
%TO.N,/EB_01*%
X78500000Y-89250000D03*
X67233003Y-84666614D03*
%TO.N,/EA_01*%
X78375000Y-90250000D03*
X66594205Y-85148217D03*
%TO.N,/EA_21*%
X93565300Y-84250000D03*
X105271382Y-82113531D03*
%TO.N,/EB_21*%
X105750000Y-81250000D03*
X93500000Y-83250000D03*
%TO.N,/EA_10*%
X78500000Y-92750000D03*
X59000000Y-95000000D03*
%TO.N,/EB_10*%
X59000000Y-94000000D03*
X78250000Y-91750000D03*
%TO.N,/MB_10*%
X58750000Y-91000000D03*
X68000000Y-91500000D03*
%TO.N,/MA_10*%
X58500000Y-92000000D03*
X67747017Y-92258949D03*
%TO.N,/MA_30*%
X113049265Y-95299265D03*
X105149999Y-94007224D03*
%TO.N,/EA_30*%
X93500000Y-86750000D03*
X115250000Y-92950000D03*
%TO.N,/MB_30*%
X105250000Y-95000000D03*
X112500000Y-96000000D03*
%TO.N,/EB_30*%
X113949997Y-92750000D03*
X93750000Y-85500000D03*
%TO.N,/EA_11*%
X66750000Y-95750000D03*
X78250000Y-95250000D03*
%TO.N,/EB_11*%
X78500000Y-94000000D03*
X66750000Y-94500000D03*
%TO.N,/EB_31*%
X105500000Y-90500000D03*
X93250000Y-88000000D03*
%TO.N,/EA_31*%
X93500000Y-89000000D03*
X105475737Y-91324266D03*
%TO.N,/SW_00*%
X78750000Y-62000000D03*
%TO.N,/SW_01*%
X78750000Y-63000000D03*
%TO.N,/SW_10*%
X82750000Y-61500000D03*
%TO.N,/SW_11*%
X83000000Y-62827500D03*
X68750000Y-91000000D03*
%TO.N,/SW_20*%
X93750000Y-64750000D03*
%TO.N,/SW_21*%
X91750000Y-62250000D03*
%TO.N,/SW_30*%
X94250000Y-63500000D03*
%TO.N,/SW_31*%
X92500000Y-62750000D03*
%TO.N,+12V*%
X79500000Y-102750000D03*
X80500000Y-103750000D03*
X79500000Y-104750000D03*
X100800000Y-97550000D03*
X72500000Y-90750000D03*
X71000000Y-79000000D03*
X81500000Y-104750000D03*
X99950000Y-85500000D03*
%TD*%
D32*
%TO.N,+3.3V*%
X86800000Y-103550000D02*
X86800000Y-109750000D01*
X86750000Y-103500000D02*
X86800000Y-103550000D01*
X87000000Y-112100000D02*
X87000000Y-109950000D01*
X87000000Y-109950000D02*
X86800000Y-109750000D01*
X87000000Y-118400000D02*
X87000000Y-112100000D01*
D33*
%TO.N,+12V*%
X84700000Y-112100000D02*
X82300000Y-112100000D01*
X82300000Y-112100000D02*
X82250000Y-112050000D01*
X83750000Y-102950000D02*
X83750000Y-108000000D01*
X83750000Y-108000000D02*
X84700000Y-108950000D01*
X84700000Y-108950000D02*
X84700000Y-112100000D01*
D34*
%TO.N,GND*%
X107425000Y-80000000D02*
X106000000Y-80000000D01*
X105750000Y-96250000D02*
X105500000Y-96500000D01*
D35*
X69500000Y-94500000D02*
X69500000Y-94750000D01*
D34*
X115750000Y-80000000D02*
X115000000Y-79250000D01*
X100750000Y-88200000D02*
X100750000Y-89000000D01*
D33*
X69806305Y-95612933D02*
X69500000Y-95306628D01*
X102150000Y-80150000D02*
X102500000Y-80500000D01*
D35*
X102500000Y-81750000D02*
X102500000Y-81500000D01*
X69500000Y-85000000D02*
X69500000Y-85250000D01*
D34*
X104650000Y-86500000D02*
X104650000Y-87650000D01*
X105500000Y-96500000D02*
X104700000Y-96500000D01*
X116725000Y-90950000D02*
X116250000Y-90475000D01*
X95724999Y-88900002D02*
X95724999Y-96700001D01*
D35*
X102550000Y-91300000D02*
X102500000Y-91250000D01*
D33*
X69500000Y-86250000D02*
X69500000Y-85325000D01*
X102000000Y-80150000D02*
X102150000Y-80150000D01*
D34*
X107000000Y-90325000D02*
X107000000Y-89250000D01*
X95724999Y-97500000D02*
X95724999Y-96700001D01*
X76275001Y-87099998D02*
X76275001Y-80499999D01*
X116725000Y-80000000D02*
X115750000Y-80000000D01*
X116250000Y-90475000D02*
X116250000Y-89000000D01*
X74500001Y-80499999D02*
X76275001Y-80499999D01*
X90290000Y-61527500D02*
X90290000Y-60960000D01*
D33*
X102500000Y-80500000D02*
X102500000Y-81400000D01*
D34*
X107425000Y-90750000D02*
X107000000Y-90325000D01*
D33*
X102375000Y-91125000D02*
X102550000Y-91300000D01*
X102375000Y-90650000D02*
X102375000Y-91125000D01*
D34*
X98900000Y-95250000D02*
X98900000Y-96500000D01*
D33*
X69500000Y-95306628D02*
X69500000Y-94850000D01*
D35*
X102550000Y-91750000D02*
X102550000Y-91300000D01*
D34*
X74500000Y-80500000D02*
X74500001Y-80499999D01*
X90290000Y-60960000D02*
X90750000Y-60500000D01*
D35*
%TO.N,+3.3V*%
X63250000Y-82000000D02*
X63000000Y-82250000D01*
X69500000Y-80550000D02*
X69200000Y-80250000D01*
D34*
X113500000Y-94250000D02*
X114000000Y-93750000D01*
X116525000Y-93750000D02*
X116725000Y-93950000D01*
X107425000Y-83000000D02*
X108250000Y-83000000D01*
X84412500Y-68412500D02*
X84750000Y-68750000D01*
D35*
X69300000Y-89750000D02*
X69300000Y-88450000D01*
D34*
X109000000Y-94550001D02*
X109000000Y-95750000D01*
D35*
X102800000Y-96500000D02*
X102800000Y-97700000D01*
X55000000Y-93000000D02*
X53750000Y-94250000D01*
X69500000Y-82500000D02*
X69500000Y-80550000D01*
X84740000Y-66077500D02*
X84740000Y-68740000D01*
X69500000Y-89950000D02*
X69300000Y-89750000D01*
X102750000Y-87750000D02*
X102500000Y-88000000D01*
X102550000Y-96250000D02*
X102800000Y-96500000D01*
X102800000Y-97700000D02*
X102750000Y-97750000D01*
X102500000Y-86250000D02*
X102750000Y-86500000D01*
D34*
X114000000Y-93750000D02*
X116525000Y-93750000D01*
D35*
X69500000Y-92000000D02*
X69500000Y-89950000D01*
X64775000Y-93000000D02*
X64288738Y-93000000D01*
X69500000Y-88250000D02*
X69300000Y-88450000D01*
X62500000Y-94750000D02*
X62538738Y-94750000D01*
D34*
X108250000Y-83000000D02*
X109000000Y-82250000D01*
D35*
X102550000Y-94250000D02*
X102550000Y-96250000D01*
X58000000Y-82000000D02*
X55525000Y-82000000D01*
X102750000Y-86500000D02*
X102750000Y-87750000D01*
D34*
X82500000Y-68412500D02*
X84412500Y-68412500D01*
X116725000Y-83000000D02*
X114500000Y-83000000D01*
X114500000Y-83000000D02*
X113750000Y-82250000D01*
X80750000Y-68412500D02*
X82500000Y-68412500D01*
D35*
X55575000Y-93000000D02*
X55000000Y-93000000D01*
X64288738Y-93000000D02*
X62538738Y-94750000D01*
D34*
X107425000Y-93750000D02*
X108199999Y-93750000D01*
D35*
X64825000Y-82000000D02*
X63250000Y-82000000D01*
X69200000Y-80250000D02*
X69200000Y-78800000D01*
X69200000Y-78800000D02*
X69250000Y-78750000D01*
D34*
X78837500Y-65162500D02*
X78750000Y-65250000D01*
X108199999Y-93750000D02*
X109000000Y-94550001D01*
X78837500Y-64000000D02*
X78837500Y-65162500D01*
D35*
X84740000Y-68740000D02*
X84750000Y-68750000D01*
X102500000Y-84250000D02*
X102500000Y-86250000D01*
%TO.N,/MA_00*%
X69500000Y-83500000D02*
X68280761Y-83500000D01*
X68280761Y-83500000D02*
X67349999Y-82569238D01*
X58000000Y-81000000D02*
X55525000Y-81000000D01*
X67349999Y-82569238D02*
X67349999Y-82520865D01*
D34*
%TO.N,/EB_00*%
X78500000Y-87000000D02*
X77800000Y-87700000D01*
X55525000Y-83000000D02*
X57000000Y-83000000D01*
X77800000Y-87700000D02*
X76275001Y-87700000D01*
D35*
%TO.N,/MB_00*%
X69500000Y-83000000D02*
X68700000Y-83000000D01*
X58000000Y-80000000D02*
X55525000Y-80000000D01*
X68700000Y-83000000D02*
X68250000Y-82550000D01*
X58049265Y-80049265D02*
X58000000Y-80000000D01*
D34*
%TO.N,/EA_00*%
X55525000Y-84000000D02*
X57000000Y-84000000D01*
X78500000Y-88250000D02*
X78450001Y-88299999D01*
X76275001Y-88299999D02*
X78450001Y-88299999D01*
%TO.N,/EB_20*%
X94305799Y-81700001D02*
X93750000Y-81144202D01*
X93750000Y-81144202D02*
X93750000Y-80750000D01*
X95724999Y-81700001D02*
X94305799Y-81700001D01*
X115250000Y-81000000D02*
X112500000Y-78250000D01*
X116725000Y-81000000D02*
X115250000Y-81000000D01*
D35*
%TO.N,/MB_20*%
X113996439Y-85000000D02*
X113872932Y-85123507D01*
X104000000Y-84575000D02*
X104000000Y-85000000D01*
X102500000Y-83750000D02*
X103175000Y-83750000D01*
X103175000Y-83750000D02*
X104000000Y-84575000D01*
X116725000Y-85000000D02*
X113996439Y-85000000D01*
%TO.N,/MA_20*%
X104800003Y-84050003D02*
X104800003Y-85000000D01*
X102500000Y-83250000D02*
X104000000Y-83250000D01*
X116725000Y-84000000D02*
X114000000Y-84000000D01*
X114000000Y-84000000D02*
X113875000Y-84125000D01*
X104000000Y-83250000D02*
X104800003Y-84050003D01*
D34*
%TO.N,/EA_20*%
X95724999Y-82300000D02*
X93800000Y-82300000D01*
X115250000Y-82000000D02*
X112500000Y-79250000D01*
X116725000Y-82000000D02*
X115250000Y-82000000D01*
X93800000Y-82300000D02*
X93500000Y-82000000D01*
%TO.N,/MB_01*%
X66750000Y-81250000D02*
X65500000Y-80000000D01*
X65500000Y-80000000D02*
X64825000Y-80000000D01*
X66750000Y-82769395D02*
X66750000Y-81250000D01*
X69500000Y-84000000D02*
X67980605Y-84000000D01*
X67980605Y-84000000D02*
X66750000Y-82769395D01*
%TO.N,/EB_01*%
X78150000Y-88900000D02*
X78500000Y-89250000D01*
X65566389Y-83000000D02*
X64825000Y-83000000D01*
X76275001Y-88900000D02*
X78150000Y-88900000D01*
X67233003Y-84666614D02*
X65566389Y-83000000D01*
%TO.N,/MA_01*%
X67914919Y-84500000D02*
X69500000Y-84500000D01*
X65599999Y-81000000D02*
X66350000Y-81750001D01*
X66350000Y-81750001D02*
X66350000Y-82935081D01*
X64825000Y-81000000D02*
X65599999Y-81000000D01*
X66350000Y-82935081D02*
X67914919Y-84500000D01*
%TO.N,/EA_01*%
X65500000Y-84000000D02*
X64825000Y-84000000D01*
X77624999Y-89499999D02*
X76275001Y-89499999D01*
X78375000Y-90250000D02*
X77624999Y-89499999D01*
X66594205Y-85148217D02*
X66594205Y-85094205D01*
X66594205Y-85094205D02*
X65500000Y-84000000D01*
%TO.N,/EA_21*%
X105848529Y-82000000D02*
X107425000Y-82000000D01*
X105271382Y-82113531D02*
X105734998Y-82113531D01*
X105734998Y-82113531D02*
X105848529Y-82000000D01*
X93565300Y-84250000D02*
X94315300Y-83500000D01*
X94315300Y-83500000D02*
X95724999Y-83500000D01*
D35*
%TO.N,/MB_21*%
X106500000Y-85000000D02*
X107425000Y-85000000D01*
X102500000Y-82750000D02*
X104250000Y-82750000D01*
X104250000Y-82750000D02*
X106500000Y-85000000D01*
D34*
%TO.N,/EB_21*%
X93500000Y-83250000D02*
X93849999Y-82900001D01*
X93849999Y-82900001D02*
X95724999Y-82900001D01*
X106000000Y-81000000D02*
X107425000Y-81000000D01*
X105750000Y-81250000D02*
X106000000Y-81000000D01*
D35*
%TO.N,/MA_21*%
X102500000Y-82250000D02*
X104488612Y-82250000D01*
X104488612Y-82250000D02*
X106238612Y-84000000D01*
X106238612Y-84000000D02*
X107425000Y-84000000D01*
D34*
%TO.N,/EA_10*%
X76275001Y-93099999D02*
X78150001Y-93099999D01*
X78150001Y-93099999D02*
X78500000Y-92750000D01*
X55575000Y-95000000D02*
X59000000Y-95000000D01*
%TO.N,/EB_10*%
X76275001Y-92500000D02*
X77694201Y-92500000D01*
X77694201Y-92500000D02*
X78250000Y-91944201D01*
X55575000Y-94000000D02*
X59000000Y-94000000D01*
X78250000Y-91944201D02*
X78250000Y-91750000D01*
D35*
%TO.N,/MB_10*%
X58750000Y-91000000D02*
X55575000Y-91000000D01*
X69500000Y-92500000D02*
X69000000Y-92500000D01*
X69000000Y-92500000D02*
X68000000Y-91500000D01*
%TO.N,/MA_10*%
X58500000Y-92000000D02*
X55575000Y-92000000D01*
X68488068Y-93000000D02*
X67747017Y-92258949D01*
X69500000Y-93000000D02*
X68488068Y-93000000D01*
%TO.N,/MA_30*%
X113049265Y-95299265D02*
X113398530Y-94950000D01*
X113398530Y-94950000D02*
X116725000Y-94950000D01*
X105149999Y-94007224D02*
X104392775Y-93250000D01*
X104392775Y-93250000D02*
X102550000Y-93250000D01*
D34*
%TO.N,/EA_30*%
X115250000Y-92950000D02*
X116725000Y-92950000D01*
X93850000Y-87100000D02*
X93500000Y-86750000D01*
X95724999Y-87100000D02*
X93850000Y-87100000D01*
D35*
%TO.N,/MB_30*%
X104411699Y-95000000D02*
X103161699Y-93750000D01*
X103161699Y-93750000D02*
X102550000Y-93750000D01*
X105250000Y-95000000D02*
X104411699Y-95000000D01*
X112550000Y-95950000D02*
X116725000Y-95950000D01*
X112500000Y-96000000D02*
X112550000Y-95950000D01*
D34*
%TO.N,/EB_30*%
X114701471Y-91950000D02*
X116725000Y-91950000D01*
X114150000Y-92501471D02*
X114701471Y-91950000D01*
X94305799Y-86500001D02*
X93750000Y-85944202D01*
X95724999Y-86500001D02*
X94305799Y-86500001D01*
X114150000Y-92549997D02*
X114150000Y-92501471D01*
X93750000Y-85944202D02*
X93750000Y-85500000D01*
X113949997Y-92750000D02*
X114150000Y-92549997D01*
%TO.N,/EA_11*%
X64775000Y-95000000D02*
X66000000Y-95000000D01*
X77549999Y-94299999D02*
X78250000Y-95000000D01*
X78250000Y-95000000D02*
X78250000Y-95250000D01*
X64775000Y-95000000D02*
X64775000Y-95225000D01*
X66000000Y-95000000D02*
X66750000Y-95750000D01*
X64775000Y-95225000D02*
X64750000Y-95250000D01*
X76275001Y-94299999D02*
X77549999Y-94299999D01*
%TO.N,/EB_11*%
X76275001Y-93700000D02*
X78200000Y-93700000D01*
X78200000Y-93700000D02*
X78500000Y-94000000D01*
X64775000Y-94000000D02*
X66250000Y-94000000D01*
X66250000Y-94000000D02*
X66750000Y-94500000D01*
D35*
%TO.N,/MA_11*%
X67861723Y-94000000D02*
X69500000Y-94000000D01*
X65861723Y-92000000D02*
X67861723Y-94000000D01*
X64775000Y-92000000D02*
X65861723Y-92000000D01*
%TO.N,/MB_11*%
X65568829Y-91000000D02*
X64775000Y-91000000D01*
X69500000Y-93500000D02*
X68068829Y-93500000D01*
X68068829Y-93500000D02*
X65568829Y-91000000D01*
D34*
%TO.N,/EB_31*%
X93549999Y-87700001D02*
X93250000Y-88000000D01*
X106750000Y-91750000D02*
X107425000Y-91750000D01*
X95724999Y-87700001D02*
X93549999Y-87700001D01*
X105500000Y-90500000D02*
X106750000Y-91750000D01*
D35*
%TO.N,/MB_31*%
X102550000Y-92750000D02*
X105000000Y-92750000D01*
X105800000Y-94611262D02*
X106938738Y-95750000D01*
X105000000Y-92750000D02*
X105800000Y-93550000D01*
X106938738Y-95750000D02*
X107425000Y-95750000D01*
X105800000Y-93550000D02*
X105800000Y-94611262D01*
%TO.N,/MA_31*%
X106300000Y-94111262D02*
X106938738Y-94750000D01*
X106300000Y-93300000D02*
X106300000Y-94111262D01*
X106938738Y-94750000D02*
X107425000Y-94750000D01*
X102550000Y-92250000D02*
X105250000Y-92250000D01*
X105250000Y-92250000D02*
X106300000Y-93300000D01*
D34*
%TO.N,/EA_31*%
X94200000Y-88300000D02*
X93500000Y-89000000D01*
X105475737Y-91324266D02*
X106901471Y-92750000D01*
X106901471Y-92750000D02*
X107425000Y-92750000D01*
X95724999Y-88300000D02*
X94200000Y-88300000D01*
%TO.N,/SW_00*%
X78927500Y-62177500D02*
X84740000Y-62177500D01*
X78750000Y-62000000D02*
X78927500Y-62177500D01*
%TO.N,/SW_01*%
X78750000Y-63000000D02*
X80916722Y-63000000D01*
X81394222Y-63477500D02*
X84740000Y-63477500D01*
X80916722Y-63000000D02*
X81394222Y-63477500D01*
%TO.N,/SW_10*%
X82777500Y-61527500D02*
X84740000Y-61527500D01*
X82750000Y-61500000D02*
X82777500Y-61527500D01*
%TO.N,/SW_11*%
X83000000Y-62827500D02*
X84740000Y-62827500D01*
%TO.N,/SW_20*%
X93127500Y-64127500D02*
X93750000Y-64750000D01*
X90290000Y-64127500D02*
X93127500Y-64127500D01*
%TO.N,/SW_21*%
X90362500Y-62250000D02*
X90290000Y-62177500D01*
X91750000Y-62250000D02*
X90362500Y-62250000D01*
%TO.N,/SW_30*%
X90290000Y-63477500D02*
X94227500Y-63477500D01*
X94227500Y-63477500D02*
X94250000Y-63500000D01*
%TO.N,/SW_31*%
X92400000Y-62850000D02*
X92500000Y-62750000D01*
X90312500Y-62850000D02*
X92400000Y-62850000D01*
X90290000Y-62827500D02*
X90312500Y-62850000D01*
D33*
%TO.N,Net-(D1-A)*%
X80724999Y-79299999D02*
X80724999Y-96699999D01*
X82550000Y-98550000D02*
X83750000Y-98550000D01*
X80724999Y-96699999D02*
X80724999Y-96724999D01*
X80724999Y-96724999D02*
X82550000Y-98550000D01*
D35*
%TO.N,+12V*%
X100950000Y-94250000D02*
X100950000Y-94550000D01*
D36*
X100800000Y-96500000D02*
X100800000Y-94700000D01*
X100800000Y-97550000D02*
X100800000Y-96500000D01*
X100750000Y-86300000D02*
X100750000Y-84500000D01*
D33*
X80500000Y-103750000D02*
X81500000Y-104750000D01*
D36*
X71300000Y-80250000D02*
X71300000Y-81950000D01*
X71700000Y-89950000D02*
X72500000Y-90750000D01*
X71300000Y-81950000D02*
X71250000Y-82000000D01*
X71250000Y-89950000D02*
X71700000Y-89950000D01*
D33*
X81300000Y-102950000D02*
X80500000Y-103750000D01*
D35*
X71100000Y-91650000D02*
X71250000Y-91500000D01*
X71100000Y-82150000D02*
X71250000Y-82000000D01*
X71100000Y-82500000D02*
X71100000Y-82150000D01*
D33*
X83750000Y-102950000D02*
X81300000Y-102950000D01*
D36*
X71300000Y-79300000D02*
X71000000Y-79000000D01*
X100800000Y-94700000D02*
X100950000Y-94550000D01*
D33*
X80500000Y-103750000D02*
X79500000Y-102750000D01*
D36*
X100750000Y-86300000D02*
X99950000Y-85500000D01*
D35*
X71100000Y-92000000D02*
X71100000Y-91650000D01*
D36*
X71300000Y-80250000D02*
X71300000Y-79300000D01*
D33*
X80500000Y-103750000D02*
X79500000Y-104750000D01*
D35*
X100900000Y-84350000D02*
X100750000Y-84500000D01*
X100900000Y-84250000D02*
X100900000Y-84350000D01*
D36*
X71250000Y-89950000D02*
X71250000Y-91500000D01*
D34*
%TO.N,/SDA*%
X80204139Y-67500000D02*
X79250000Y-68454139D01*
X82500000Y-66587500D02*
X82412500Y-66587500D01*
X83660000Y-65427500D02*
X84740000Y-65427500D01*
X79250000Y-74750000D02*
X78750000Y-75250000D01*
X82500000Y-66587500D02*
X83660000Y-65427500D01*
X77694201Y-79899998D02*
X76275001Y-79899998D01*
X78750000Y-78844199D02*
X77694201Y-79899998D01*
X82412500Y-66587500D02*
X81500000Y-67500000D01*
X79250000Y-68454139D02*
X79250000Y-74750000D01*
X78750000Y-75250000D02*
X78750000Y-78844199D01*
X81500000Y-67500000D02*
X80204139Y-67500000D01*
%TO.N,/SCL*%
X80412500Y-66587500D02*
X78750000Y-68250000D01*
X78750000Y-74500000D02*
X78350000Y-74900000D01*
X82560000Y-64777500D02*
X80750000Y-66587500D01*
X78350000Y-78650000D02*
X77700001Y-79299999D01*
X78750000Y-68250000D02*
X78750000Y-74500000D01*
X84740000Y-64777500D02*
X82560000Y-64777500D01*
X80750000Y-66587500D02*
X80412500Y-66587500D01*
X78350000Y-74900000D02*
X78350000Y-78650000D01*
X77700001Y-79299999D02*
X76275001Y-79299999D01*
%TO.N,Net-(U6-NINT)*%
X84740000Y-64127500D02*
X80790000Y-64127500D01*
X80790000Y-64127500D02*
X80662500Y-64000000D01*
%TO.N,/INA_01*%
X71100000Y-84500000D02*
X72184314Y-84500000D01*
X72184314Y-84500000D02*
X72967157Y-85282843D01*
X74800000Y-91300000D02*
X76275001Y-91300000D01*
X72967157Y-89467157D02*
X74800000Y-91300000D01*
X72967157Y-85282843D02*
X72967157Y-89467157D01*
%TO.N,/INA_00*%
X74000000Y-89250000D02*
X74850000Y-90100000D01*
X74850000Y-90100000D02*
X76275001Y-90100000D01*
X72500000Y-83500000D02*
X74000000Y-85000000D01*
X71100000Y-83500000D02*
X72500000Y-83500000D01*
X74000000Y-85000000D02*
X74000000Y-89250000D01*
%TO.N,/INB_00*%
X74884314Y-90699999D02*
X76275001Y-90699999D01*
X73500000Y-89315685D02*
X74884314Y-90699999D01*
X72250000Y-84000000D02*
X73500000Y-85250000D01*
X71100000Y-84000000D02*
X72250000Y-84000000D01*
X73500000Y-85250000D02*
X73500000Y-89315685D01*
%TO.N,/INB_01*%
X71100000Y-85000000D02*
X72000000Y-85000000D01*
X72567157Y-89632843D02*
X74834313Y-91899999D01*
X74834313Y-91899999D02*
X76275001Y-91899999D01*
X72567157Y-85567157D02*
X72567157Y-89632843D01*
X72000000Y-85000000D02*
X72567157Y-85567157D01*
%TO.N,/INA_21*%
X95724999Y-79899999D02*
X97584313Y-79899999D01*
X97584313Y-79899999D02*
X99934314Y-82250000D01*
X99934314Y-82250000D02*
X100900000Y-82250000D01*
%TO.N,/INB_20*%
X99868628Y-82750000D02*
X100900000Y-82750000D01*
X97618629Y-80500001D02*
X99868628Y-82750000D01*
X95724999Y-80500001D02*
X97618629Y-80500001D01*
%TO.N,/INA_20*%
X97652941Y-81099999D02*
X99802942Y-83250000D01*
X95724999Y-81099999D02*
X97652941Y-81099999D01*
X99802942Y-83250000D02*
X100900000Y-83250000D01*
%TO.N,/INB_21*%
X95724999Y-79300001D02*
X97550001Y-79300001D01*
X97550001Y-79300001D02*
X100000000Y-81750000D01*
X100000000Y-81750000D02*
X100900000Y-81750000D01*
%TO.N,/INB_11*%
X74949999Y-96699999D02*
X76275001Y-96699999D01*
X72750000Y-94500000D02*
X74949999Y-96699999D01*
X71100000Y-94500000D02*
X72750000Y-94500000D01*
%TO.N,/INA_11*%
X71100000Y-94000000D02*
X72868628Y-94000000D01*
X72868628Y-94000000D02*
X74968629Y-96100001D01*
X74968629Y-96100001D02*
X76275001Y-96100001D01*
%TO.N,/INB_10*%
X74934313Y-95499999D02*
X76275001Y-95499999D01*
X72934314Y-93500000D02*
X74934313Y-95499999D01*
X71100000Y-93500000D02*
X72934314Y-93500000D01*
%TO.N,/INA_10*%
X74900001Y-94900001D02*
X76275001Y-94900001D01*
X71100000Y-93000000D02*
X73000000Y-93000000D01*
X73000000Y-93000000D02*
X74900001Y-94900001D01*
%TO.N,/INA_30*%
X95724999Y-85900000D02*
X97617157Y-85900000D01*
X97950000Y-91147058D02*
X100052942Y-93250000D01*
X97617157Y-85900000D02*
X97950000Y-86232843D01*
X100052942Y-93250000D02*
X100950000Y-93250000D01*
X97950000Y-86232843D02*
X97950000Y-91147058D01*
%TO.N,/INB_31*%
X99250000Y-85500000D02*
X99250000Y-90750000D01*
X99250000Y-90750000D02*
X100250000Y-91750000D01*
X97850001Y-84100001D02*
X99250000Y-85500000D01*
X100250000Y-91750000D02*
X100950000Y-91750000D01*
X95724999Y-84100001D02*
X97850001Y-84100001D01*
%TO.N,/INB_30*%
X98350000Y-85731372D02*
X98350000Y-90981372D01*
X97918629Y-85300001D02*
X98350000Y-85731372D01*
X98350000Y-90981372D02*
X100118628Y-92750000D01*
X95724999Y-85300001D02*
X97918629Y-85300001D01*
X100118628Y-92750000D02*
X100950000Y-92750000D01*
%TO.N,/INA_31*%
X95724999Y-84700000D02*
X97884314Y-84700000D01*
X98750000Y-85565686D02*
X98750000Y-90815686D01*
X98750000Y-90815686D02*
X100184314Y-92250000D01*
X100184314Y-92250000D02*
X100950000Y-92250000D01*
X97884314Y-84700000D02*
X98750000Y-85565686D01*
%TD*%
%TA.AperFunction,Conductor*%
%TO.N,GND*%
G36*
X95004418Y-52500816D02*
G01*
X95204561Y-52515130D01*
X95222063Y-52517647D01*
X95413797Y-52559355D01*
X95430755Y-52564334D01*
X95614609Y-52632909D01*
X95630701Y-52640259D01*
X95802904Y-52734288D01*
X95817784Y-52743849D01*
X95974867Y-52861441D01*
X95988237Y-52873027D01*
X96126972Y-53011762D01*
X96138558Y-53025132D01*
X96256146Y-53182210D01*
X96265711Y-53197095D01*
X96359740Y-53369298D01*
X96367090Y-53385390D01*
X96435662Y-53569236D01*
X96440646Y-53586212D01*
X96482351Y-53777931D01*
X96484869Y-53795442D01*
X96499184Y-53995580D01*
X96499500Y-54004427D01*
X96499500Y-63934108D01*
X96499500Y-64065892D01*
X96516554Y-64129539D01*
X96533608Y-64193187D01*
X96533609Y-64193188D01*
X96599500Y-64307314D01*
X96599501Y-64307315D01*
X96599502Y-64307316D01*
X109595159Y-77302972D01*
X109595169Y-77302983D01*
X109599499Y-77307313D01*
X109599500Y-77307314D01*
X109680006Y-77387820D01*
X109713490Y-77449141D01*
X109708506Y-77518833D01*
X109666635Y-77574767D01*
X109601171Y-77599184D01*
X109592324Y-77599500D01*
X109249998Y-77599500D01*
X109249981Y-77599501D01*
X109147203Y-77610000D01*
X109147200Y-77610001D01*
X108980668Y-77665185D01*
X108980663Y-77665187D01*
X108831342Y-77757289D01*
X108707289Y-77881342D01*
X108615187Y-78030663D01*
X108615186Y-78030666D01*
X108560001Y-78197203D01*
X108560001Y-78197204D01*
X108560000Y-78197204D01*
X108549500Y-78299983D01*
X108549500Y-79100001D01*
X108549501Y-79100019D01*
X108560000Y-79202796D01*
X108560001Y-79202799D01*
X108608614Y-79349500D01*
X108615186Y-79369334D01*
X108707288Y-79518656D01*
X108831344Y-79642712D01*
X108980666Y-79734814D01*
X109147203Y-79789999D01*
X109249991Y-79800500D01*
X110650008Y-79800499D01*
X110752797Y-79789999D01*
X110919334Y-79734814D01*
X111068656Y-79642712D01*
X111192712Y-79518656D01*
X111284814Y-79369334D01*
X111339999Y-79202797D01*
X111350500Y-79100009D01*
X111350499Y-78299992D01*
X111339999Y-78197203D01*
X111284814Y-78030666D01*
X111192712Y-77881344D01*
X111068656Y-77757288D01*
X111068655Y-77757287D01*
X111024478Y-77730039D01*
X110977753Y-77678091D01*
X110966530Y-77609129D01*
X110994373Y-77545047D01*
X111052442Y-77506190D01*
X111089574Y-77500500D01*
X111818060Y-77500500D01*
X111885099Y-77520185D01*
X111930854Y-77572989D01*
X111940798Y-77642147D01*
X111911773Y-77705703D01*
X111905741Y-77712181D01*
X111870184Y-77747737D01*
X111774211Y-77900476D01*
X111714631Y-78070745D01*
X111714630Y-78070750D01*
X111694435Y-78249996D01*
X111694435Y-78250003D01*
X111714630Y-78429249D01*
X111714633Y-78429262D01*
X111774209Y-78599520D01*
X111827309Y-78684029D01*
X111846309Y-78751266D01*
X111827309Y-78815971D01*
X111774209Y-78900479D01*
X111714633Y-79070737D01*
X111714630Y-79070750D01*
X111694435Y-79249996D01*
X111694435Y-79250003D01*
X111714630Y-79429249D01*
X111714631Y-79429254D01*
X111774211Y-79599523D01*
X111853043Y-79724983D01*
X111870184Y-79752262D01*
X111997738Y-79879816D01*
X112150478Y-79975789D01*
X112320745Y-80035368D01*
X112407669Y-80045161D01*
X112472080Y-80072226D01*
X112481465Y-80080700D01*
X113653487Y-81252722D01*
X113686972Y-81314045D01*
X113681988Y-81383737D01*
X113640116Y-81439670D01*
X113579694Y-81463623D01*
X113570747Y-81464631D01*
X113570745Y-81464631D01*
X113400476Y-81524211D01*
X113247737Y-81620184D01*
X113120184Y-81747737D01*
X113024211Y-81900476D01*
X112964631Y-82070745D01*
X112964630Y-82070750D01*
X112944435Y-82249996D01*
X112944435Y-82250003D01*
X112964630Y-82429249D01*
X112964631Y-82429254D01*
X113024211Y-82599523D01*
X113103549Y-82725788D01*
X113120184Y-82752262D01*
X113247738Y-82879816D01*
X113400478Y-82975789D01*
X113570745Y-83035368D01*
X113657669Y-83045161D01*
X113722080Y-83072226D01*
X113731465Y-83080700D01*
X113778487Y-83127722D01*
X113811972Y-83189045D01*
X113806988Y-83258737D01*
X113765116Y-83314670D01*
X113704694Y-83338623D01*
X113695747Y-83339631D01*
X113695745Y-83339631D01*
X113525476Y-83399211D01*
X113372737Y-83495184D01*
X113245184Y-83622737D01*
X113149211Y-83775476D01*
X113089631Y-83945745D01*
X113089630Y-83945750D01*
X113069435Y-84124996D01*
X113069435Y-84125003D01*
X113089630Y-84304249D01*
X113089631Y-84304254D01*
X113149211Y-84474523D01*
X113200806Y-84556635D01*
X113219806Y-84623871D01*
X113200807Y-84688578D01*
X113147140Y-84773989D01*
X113087565Y-84944244D01*
X113087562Y-84944257D01*
X113067367Y-85123503D01*
X113067367Y-85123510D01*
X113087562Y-85302756D01*
X113087563Y-85302761D01*
X113147143Y-85473030D01*
X113235251Y-85613252D01*
X113243116Y-85625769D01*
X113370670Y-85753323D01*
X113523410Y-85849296D01*
X113668265Y-85899983D01*
X113693677Y-85908875D01*
X113693682Y-85908876D01*
X113872928Y-85929072D01*
X113872932Y-85929072D01*
X113872936Y-85929072D01*
X114052181Y-85908876D01*
X114052184Y-85908875D01*
X114052187Y-85908875D01*
X114222454Y-85849296D01*
X114375194Y-85753323D01*
X114441698Y-85686819D01*
X114503021Y-85653334D01*
X114529379Y-85650500D01*
X115634484Y-85650500D01*
X115697605Y-85667768D01*
X115717029Y-85679255D01*
X115839602Y-85751744D01*
X115845037Y-85753323D01*
X115997426Y-85797597D01*
X115997429Y-85797597D01*
X115997431Y-85797598D01*
X116034306Y-85800500D01*
X116034314Y-85800500D01*
X117415686Y-85800500D01*
X117415694Y-85800500D01*
X117452569Y-85797598D01*
X117452571Y-85797597D01*
X117452573Y-85797597D01*
X117610392Y-85751746D01*
X117610392Y-85751745D01*
X117610398Y-85751744D01*
X117669551Y-85716760D01*
X117737271Y-85699579D01*
X117803534Y-85721738D01*
X117847297Y-85776204D01*
X117856027Y-85836096D01*
X117849500Y-85899981D01*
X117849500Y-86700001D01*
X117849501Y-86700019D01*
X117860000Y-86802796D01*
X117860001Y-86802799D01*
X117915185Y-86969331D01*
X117915187Y-86969336D01*
X117943605Y-87015409D01*
X118007288Y-87118656D01*
X118131344Y-87242712D01*
X118280666Y-87334814D01*
X118447203Y-87389999D01*
X118549991Y-87400500D01*
X119950008Y-87400499D01*
X120052797Y-87389999D01*
X120219334Y-87334814D01*
X120368656Y-87242712D01*
X120492712Y-87118656D01*
X120584814Y-86969334D01*
X120639999Y-86802797D01*
X120650500Y-86700009D01*
X120650499Y-85899992D01*
X120647844Y-85874005D01*
X120639999Y-85797203D01*
X120639998Y-85797200D01*
X120633041Y-85776204D01*
X120584814Y-85630666D01*
X120492712Y-85481344D01*
X120368656Y-85357288D01*
X120269987Y-85296429D01*
X120219336Y-85265187D01*
X120219331Y-85265185D01*
X120181258Y-85252569D01*
X120052797Y-85210001D01*
X120052795Y-85210000D01*
X119950010Y-85199500D01*
X118549998Y-85199500D01*
X118549981Y-85199501D01*
X118447203Y-85210000D01*
X118447200Y-85210001D01*
X118280668Y-85265185D01*
X118280659Y-85265190D01*
X118189596Y-85321357D01*
X118122203Y-85339797D01*
X118055540Y-85318874D01*
X118010771Y-85265231D01*
X118000500Y-85215818D01*
X118000500Y-84784313D01*
X118000499Y-84784298D01*
X117999687Y-84773985D01*
X117997598Y-84747431D01*
X117994972Y-84738393D01*
X117951745Y-84589606D01*
X117951744Y-84589602D01*
X117936084Y-84563122D01*
X117918900Y-84495399D01*
X117936084Y-84436878D01*
X117951742Y-84410401D01*
X117951744Y-84410398D01*
X117997598Y-84252569D01*
X118000500Y-84215694D01*
X118000500Y-83784306D01*
X117997598Y-83747431D01*
X117994961Y-83738356D01*
X117951745Y-83589606D01*
X117951744Y-83589602D01*
X117951742Y-83589598D01*
X117936084Y-83563122D01*
X117918900Y-83495399D01*
X117936084Y-83436878D01*
X117951742Y-83410401D01*
X117951744Y-83410398D01*
X117994966Y-83261628D01*
X117997597Y-83252573D01*
X117997598Y-83252567D01*
X118000499Y-83215701D01*
X118000500Y-83215694D01*
X118000500Y-82784306D01*
X117997598Y-82747431D01*
X117993255Y-82732483D01*
X117951745Y-82589606D01*
X117951744Y-82589602D01*
X117950055Y-82586746D01*
X117936084Y-82563122D01*
X117918900Y-82495399D01*
X117936084Y-82436878D01*
X117951742Y-82410401D01*
X117951744Y-82410398D01*
X117997598Y-82252569D01*
X118000500Y-82215694D01*
X118000500Y-81784306D01*
X117997598Y-81747431D01*
X117994130Y-81735495D01*
X117958039Y-81611269D01*
X117951744Y-81589602D01*
X117951742Y-81589598D01*
X117936084Y-81563122D01*
X117918900Y-81495399D01*
X117936084Y-81436878D01*
X117945939Y-81420213D01*
X117951744Y-81410398D01*
X117993273Y-81267455D01*
X117997597Y-81252573D01*
X117997598Y-81252567D01*
X118000308Y-81218132D01*
X118000500Y-81215694D01*
X118000500Y-80784306D01*
X117997598Y-80747431D01*
X117994966Y-80738373D01*
X117960629Y-80620184D01*
X117951744Y-80589602D01*
X117868081Y-80448135D01*
X117868079Y-80448133D01*
X117868076Y-80448129D01*
X117751870Y-80331923D01*
X117751862Y-80331917D01*
X117644986Y-80268711D01*
X117610398Y-80248256D01*
X117610397Y-80248255D01*
X117610396Y-80248255D01*
X117610393Y-80248254D01*
X117452573Y-80202402D01*
X117452567Y-80202401D01*
X117415701Y-80199500D01*
X117415694Y-80199500D01*
X116034306Y-80199500D01*
X116034298Y-80199500D01*
X115997432Y-80202401D01*
X115997426Y-80202402D01*
X115839606Y-80248254D01*
X115839603Y-80248255D01*
X115698137Y-80331917D01*
X115698129Y-80331923D01*
X115666874Y-80363180D01*
X115605552Y-80396666D01*
X115579192Y-80399500D01*
X115550097Y-80399500D01*
X115483058Y-80379815D01*
X115462416Y-80363181D01*
X113330700Y-78231465D01*
X113297215Y-78170142D01*
X113295163Y-78157686D01*
X113285368Y-78070745D01*
X113225789Y-77900478D01*
X113129816Y-77747738D01*
X113094259Y-77712181D01*
X113060774Y-77650858D01*
X113065758Y-77581166D01*
X113107630Y-77525233D01*
X113173094Y-77500816D01*
X113181940Y-77500500D01*
X118110426Y-77500500D01*
X118177465Y-77520185D01*
X118223220Y-77572989D01*
X118233164Y-77642147D01*
X118204139Y-77705703D01*
X118175522Y-77730039D01*
X118131344Y-77757287D01*
X118007289Y-77881342D01*
X117915187Y-78030663D01*
X117915186Y-78030666D01*
X117860001Y-78197203D01*
X117860001Y-78197204D01*
X117860000Y-78197204D01*
X117849500Y-78299983D01*
X117849500Y-79100001D01*
X117849501Y-79100019D01*
X117860000Y-79202796D01*
X117860001Y-79202799D01*
X117908614Y-79349500D01*
X117915186Y-79369334D01*
X118007288Y-79518656D01*
X118131344Y-79642712D01*
X118280666Y-79734814D01*
X118447203Y-79789999D01*
X118549991Y-79800500D01*
X119950008Y-79800499D01*
X120052797Y-79789999D01*
X120219334Y-79734814D01*
X120368656Y-79642712D01*
X120492712Y-79518656D01*
X120584814Y-79369334D01*
X120639999Y-79202797D01*
X120650500Y-79100009D01*
X120650499Y-78299992D01*
X120639999Y-78197203D01*
X120584814Y-78030666D01*
X120492712Y-77881344D01*
X120427050Y-77815682D01*
X120393565Y-77754359D01*
X120398549Y-77684667D01*
X120440421Y-77628734D01*
X120505885Y-77604317D01*
X120558065Y-77611819D01*
X120614609Y-77632909D01*
X120630701Y-77640259D01*
X120802904Y-77734288D01*
X120817784Y-77743849D01*
X120974867Y-77861441D01*
X120988237Y-77873027D01*
X121126972Y-78011762D01*
X121138558Y-78025132D01*
X121142701Y-78030666D01*
X121232620Y-78150784D01*
X121256146Y-78182210D01*
X121265711Y-78197095D01*
X121359740Y-78369298D01*
X121367090Y-78385390D01*
X121435662Y-78569236D01*
X121440646Y-78586212D01*
X121482351Y-78777931D01*
X121484869Y-78795442D01*
X121499184Y-78995580D01*
X121499500Y-79004427D01*
X121499500Y-96995572D01*
X121499184Y-97004419D01*
X121484869Y-97204557D01*
X121482351Y-97222068D01*
X121440646Y-97413787D01*
X121435662Y-97430763D01*
X121367090Y-97614609D01*
X121359740Y-97630701D01*
X121265711Y-97802904D01*
X121256146Y-97817789D01*
X121138558Y-97974867D01*
X121126972Y-97988237D01*
X120988237Y-98126972D01*
X120974867Y-98138558D01*
X120817789Y-98256146D01*
X120802904Y-98265711D01*
X120630701Y-98359740D01*
X120614609Y-98367090D01*
X120460878Y-98424429D01*
X120391186Y-98429413D01*
X120329863Y-98395928D01*
X120296378Y-98334605D01*
X120301362Y-98264914D01*
X120343233Y-98208980D01*
X120352441Y-98202712D01*
X120368656Y-98192712D01*
X120492712Y-98068656D01*
X120584814Y-97919334D01*
X120639999Y-97752797D01*
X120650500Y-97650009D01*
X120650499Y-96849992D01*
X120639999Y-96747203D01*
X120584814Y-96580666D01*
X120492712Y-96431344D01*
X120368656Y-96307288D01*
X120275888Y-96250069D01*
X120219336Y-96215187D01*
X120219331Y-96215185D01*
X120181258Y-96202569D01*
X120052797Y-96160001D01*
X120052795Y-96160000D01*
X119950010Y-96149500D01*
X118549998Y-96149500D01*
X118549981Y-96149501D01*
X118447203Y-96160000D01*
X118447200Y-96160001D01*
X118280668Y-96215185D01*
X118280659Y-96215190D01*
X118189596Y-96271357D01*
X118122203Y-96289797D01*
X118055540Y-96268874D01*
X118010771Y-96215231D01*
X118000500Y-96165818D01*
X118000500Y-95734313D01*
X118000499Y-95734298D01*
X117999829Y-95725789D01*
X117997598Y-95697431D01*
X117992522Y-95679961D01*
X117962454Y-95576465D01*
X117951744Y-95539602D01*
X117936084Y-95513122D01*
X117918900Y-95445399D01*
X117936084Y-95386878D01*
X117951742Y-95360401D01*
X117951744Y-95360398D01*
X117994660Y-95212681D01*
X117997597Y-95202573D01*
X117997598Y-95202567D01*
X118000500Y-95165694D01*
X118000500Y-94734306D01*
X117997598Y-94697431D01*
X117992317Y-94679255D01*
X117959775Y-94567246D01*
X117951744Y-94539602D01*
X117936084Y-94513122D01*
X117918900Y-94445399D01*
X117936084Y-94386878D01*
X117951742Y-94360401D01*
X117951744Y-94360398D01*
X117997598Y-94202569D01*
X118000500Y-94165694D01*
X118000500Y-93734306D01*
X117997598Y-93697431D01*
X117975155Y-93620184D01*
X117951745Y-93539606D01*
X117951744Y-93539602D01*
X117951742Y-93539598D01*
X117936084Y-93513122D01*
X117918900Y-93445399D01*
X117936084Y-93386878D01*
X117951742Y-93360401D01*
X117951744Y-93360398D01*
X117997598Y-93202569D01*
X118000500Y-93165694D01*
X118000500Y-92734306D01*
X117997598Y-92697431D01*
X117978380Y-92631284D01*
X117951745Y-92539606D01*
X117951744Y-92539602D01*
X117948612Y-92534306D01*
X117936084Y-92513122D01*
X117918900Y-92445399D01*
X117936084Y-92386878D01*
X117951742Y-92360401D01*
X117951744Y-92360398D01*
X117997598Y-92202569D01*
X118000500Y-92165694D01*
X118000500Y-91734306D01*
X117997598Y-91697431D01*
X117987190Y-91661608D01*
X117951745Y-91539606D01*
X117951744Y-91539603D01*
X117951744Y-91539602D01*
X117868081Y-91398135D01*
X117868079Y-91398133D01*
X117868076Y-91398129D01*
X117751870Y-91281923D01*
X117751862Y-91281917D01*
X117610396Y-91198255D01*
X117610393Y-91198254D01*
X117452573Y-91152402D01*
X117452567Y-91152401D01*
X117415701Y-91149500D01*
X117415694Y-91149500D01*
X116034306Y-91149500D01*
X116034298Y-91149500D01*
X115997432Y-91152401D01*
X115997426Y-91152402D01*
X115839606Y-91198254D01*
X115839603Y-91198255D01*
X115698137Y-91281917D01*
X115698129Y-91281923D01*
X115666874Y-91313180D01*
X115605552Y-91346666D01*
X115579192Y-91349500D01*
X114788141Y-91349500D01*
X114788125Y-91349499D01*
X114780529Y-91349499D01*
X114622414Y-91349499D01*
X114546050Y-91369961D01*
X114469685Y-91390423D01*
X114469680Y-91390426D01*
X114332761Y-91469475D01*
X114332753Y-91469481D01*
X113876773Y-91925460D01*
X113815450Y-91958945D01*
X113802980Y-91960999D01*
X113781345Y-91963437D01*
X113770742Y-91964632D01*
X113770741Y-91964632D01*
X113600475Y-92024210D01*
X113447734Y-92120184D01*
X113320181Y-92247737D01*
X113224208Y-92400476D01*
X113164628Y-92570745D01*
X113164627Y-92570750D01*
X113144432Y-92749996D01*
X113144432Y-92750003D01*
X113164627Y-92929249D01*
X113164628Y-92929254D01*
X113224208Y-93099523D01*
X113320181Y-93252262D01*
X113338104Y-93270185D01*
X113371589Y-93331508D01*
X113366605Y-93401200D01*
X113324733Y-93457133D01*
X113291378Y-93474908D01*
X113150476Y-93524211D01*
X112997737Y-93620184D01*
X112870184Y-93747737D01*
X112774211Y-93900476D01*
X112714631Y-94070745D01*
X112714630Y-94070750D01*
X112694435Y-94249996D01*
X112694435Y-94250003D01*
X112714630Y-94429246D01*
X112714631Y-94429252D01*
X112720658Y-94446475D01*
X112724219Y-94516254D01*
X112689490Y-94576881D01*
X112669589Y-94592422D01*
X112547004Y-94669447D01*
X112419449Y-94797002D01*
X112323475Y-94949743D01*
X112263895Y-95120015D01*
X112259187Y-95161801D01*
X112232119Y-95226215D01*
X112176924Y-95264957D01*
X112150475Y-95274212D01*
X111997737Y-95370184D01*
X111870184Y-95497737D01*
X111774211Y-95650476D01*
X111714631Y-95820745D01*
X111714630Y-95820750D01*
X111694435Y-95999996D01*
X111694435Y-96000003D01*
X111714630Y-96179249D01*
X111714631Y-96179254D01*
X111774211Y-96349523D01*
X111817290Y-96418082D01*
X111870184Y-96502262D01*
X111997738Y-96629816D01*
X112088080Y-96686582D01*
X112112210Y-96701744D01*
X112150478Y-96725789D01*
X112221098Y-96750500D01*
X112320745Y-96785368D01*
X112320750Y-96785369D01*
X112499996Y-96805565D01*
X112500000Y-96805565D01*
X112500004Y-96805565D01*
X112679249Y-96785369D01*
X112679252Y-96785368D01*
X112679255Y-96785368D01*
X112849522Y-96725789D01*
X113002262Y-96629816D01*
X113002267Y-96629810D01*
X113005097Y-96627555D01*
X113007275Y-96626665D01*
X113008158Y-96626111D01*
X113008255Y-96626265D01*
X113069783Y-96601145D01*
X113082412Y-96600500D01*
X115634484Y-96600500D01*
X115697605Y-96617768D01*
X115751395Y-96649579D01*
X115839602Y-96701744D01*
X115839609Y-96701746D01*
X115997426Y-96747597D01*
X115997429Y-96747597D01*
X115997431Y-96747598D01*
X116034306Y-96750500D01*
X116034314Y-96750500D01*
X117415686Y-96750500D01*
X117415694Y-96750500D01*
X117452569Y-96747598D01*
X117452571Y-96747597D01*
X117452573Y-96747597D01*
X117610392Y-96701746D01*
X117610392Y-96701745D01*
X117610398Y-96701744D01*
X117669551Y-96666760D01*
X117737271Y-96649579D01*
X117803534Y-96671738D01*
X117847297Y-96726204D01*
X117856027Y-96786096D01*
X117849500Y-96849981D01*
X117849500Y-97650001D01*
X117849501Y-97650019D01*
X117860000Y-97752796D01*
X117860001Y-97752799D01*
X117915185Y-97919331D01*
X117915187Y-97919336D01*
X117921305Y-97929255D01*
X118007288Y-98068656D01*
X118131344Y-98192712D01*
X118256586Y-98269961D01*
X118303310Y-98321909D01*
X118314533Y-98390871D01*
X118286689Y-98454954D01*
X118228621Y-98493810D01*
X118191489Y-98499500D01*
X109934107Y-98499500D01*
X109806812Y-98533608D01*
X109692686Y-98599500D01*
X109692683Y-98599502D01*
X109599498Y-98692688D01*
X96675245Y-111616940D01*
X96675244Y-111616940D01*
X96675245Y-111616941D01*
X96599500Y-111692686D01*
X96533608Y-111806812D01*
X96499500Y-111934108D01*
X96499500Y-121995572D01*
X96499184Y-122004419D01*
X96484869Y-122204557D01*
X96482351Y-122222068D01*
X96440646Y-122413787D01*
X96435662Y-122430763D01*
X96367090Y-122614609D01*
X96359740Y-122630701D01*
X96265711Y-122802904D01*
X96256146Y-122817789D01*
X96138558Y-122974867D01*
X96126972Y-122988237D01*
X95988237Y-123126972D01*
X95974867Y-123138558D01*
X95817789Y-123256146D01*
X95802904Y-123265711D01*
X95630701Y-123359740D01*
X95614609Y-123367090D01*
X95430763Y-123435662D01*
X95413787Y-123440646D01*
X95222068Y-123482351D01*
X95204557Y-123484869D01*
X95023779Y-123497799D01*
X95004417Y-123499184D01*
X94995572Y-123499500D01*
X77004428Y-123499500D01*
X76995582Y-123499184D01*
X76973622Y-123497613D01*
X76795442Y-123484869D01*
X76777931Y-123482351D01*
X76586212Y-123440646D01*
X76569236Y-123435662D01*
X76385390Y-123367090D01*
X76369298Y-123359740D01*
X76197095Y-123265711D01*
X76182210Y-123256146D01*
X76025132Y-123138558D01*
X76011762Y-123126972D01*
X75873027Y-122988237D01*
X75861441Y-122974867D01*
X75743849Y-122817784D01*
X75734288Y-122802904D01*
X75640259Y-122630701D01*
X75632909Y-122614609D01*
X75572091Y-122451551D01*
X75564334Y-122430755D01*
X75559355Y-122413797D01*
X75517647Y-122222063D01*
X75515130Y-122204556D01*
X75500816Y-122004418D01*
X75500500Y-121995572D01*
X75500500Y-111934110D01*
X75500500Y-111934108D01*
X75466392Y-111806814D01*
X75400500Y-111692686D01*
X75307314Y-111599500D01*
X75307313Y-111599499D01*
X75302983Y-111595169D01*
X75302972Y-111595159D01*
X72609948Y-108902135D01*
X76199500Y-108902135D01*
X76199500Y-110597870D01*
X76199501Y-110597876D01*
X76205908Y-110657483D01*
X76256202Y-110792328D01*
X76256206Y-110792335D01*
X76342452Y-110907544D01*
X76342455Y-110907547D01*
X76457664Y-110993793D01*
X76457671Y-110993797D01*
X76592517Y-111044091D01*
X76592516Y-111044091D01*
X76599444Y-111044835D01*
X76652127Y-111050500D01*
X78347872Y-111050499D01*
X78407483Y-111044091D01*
X78542331Y-110993796D01*
X78657546Y-110907546D01*
X78743796Y-110792331D01*
X78794091Y-110657483D01*
X78800500Y-110597873D01*
X78800499Y-108902128D01*
X78794091Y-108842517D01*
X78780600Y-108806347D01*
X78743796Y-108707669D01*
X78743793Y-108707664D01*
X78657547Y-108592455D01*
X78657544Y-108592452D01*
X78542335Y-108506206D01*
X78542328Y-108506202D01*
X78407482Y-108455908D01*
X78407483Y-108455908D01*
X78347883Y-108449501D01*
X78347881Y-108449500D01*
X78347873Y-108449500D01*
X78347864Y-108449500D01*
X76652129Y-108449500D01*
X76652123Y-108449501D01*
X76592516Y-108455908D01*
X76457671Y-108506202D01*
X76457664Y-108506206D01*
X76342455Y-108592452D01*
X76342452Y-108592455D01*
X76256206Y-108707664D01*
X76256204Y-108707669D01*
X76205908Y-108842517D01*
X76199501Y-108902116D01*
X76199501Y-108902123D01*
X76199500Y-108902135D01*
X72609948Y-108902135D01*
X65586525Y-101878711D01*
X70149500Y-101878711D01*
X70149500Y-102121288D01*
X70181161Y-102361785D01*
X70243947Y-102596104D01*
X70293043Y-102714631D01*
X70336776Y-102820212D01*
X70458064Y-103030289D01*
X70458066Y-103030292D01*
X70458067Y-103030293D01*
X70605733Y-103222736D01*
X70605739Y-103222743D01*
X70777256Y-103394260D01*
X70777262Y-103394265D01*
X70969711Y-103541936D01*
X71179788Y-103663224D01*
X71403900Y-103756054D01*
X71638211Y-103818838D01*
X71818586Y-103842584D01*
X71878711Y-103850500D01*
X71878712Y-103850500D01*
X72121289Y-103850500D01*
X72169388Y-103844167D01*
X72361789Y-103818838D01*
X72596100Y-103756054D01*
X72820212Y-103663224D01*
X73030289Y-103541936D01*
X73222738Y-103394265D01*
X73394265Y-103222738D01*
X73541936Y-103030289D01*
X73663224Y-102820212D01*
X73733125Y-102651455D01*
X78499500Y-102651455D01*
X78499500Y-102848544D01*
X78537947Y-103041828D01*
X78537949Y-103041836D01*
X78613367Y-103223910D01*
X78613372Y-103223920D01*
X78722860Y-103387780D01*
X78722863Y-103387784D01*
X78997398Y-103662319D01*
X79030883Y-103723642D01*
X79025899Y-103793334D01*
X78997398Y-103837681D01*
X78722863Y-104112215D01*
X78722860Y-104112219D01*
X78613372Y-104276079D01*
X78613367Y-104276089D01*
X78537949Y-104458163D01*
X78537947Y-104458171D01*
X78499500Y-104651455D01*
X78499500Y-104848544D01*
X78537947Y-105041828D01*
X78537949Y-105041836D01*
X78613367Y-105223910D01*
X78613372Y-105223920D01*
X78722860Y-105387780D01*
X78722863Y-105387784D01*
X78862215Y-105527136D01*
X78862219Y-105527139D01*
X79026079Y-105636627D01*
X79026083Y-105636629D01*
X79026086Y-105636631D01*
X79208164Y-105712051D01*
X79401455Y-105750499D01*
X79401458Y-105750500D01*
X79401460Y-105750500D01*
X79598542Y-105750500D01*
X79598543Y-105750499D01*
X79791836Y-105712051D01*
X79973914Y-105636631D01*
X80137781Y-105527139D01*
X80412319Y-105252599D01*
X80473640Y-105219116D01*
X80543332Y-105224100D01*
X80587680Y-105252601D01*
X80862215Y-105527137D01*
X80862219Y-105527140D01*
X81026079Y-105636628D01*
X81026085Y-105636631D01*
X81026086Y-105636632D01*
X81208165Y-105712052D01*
X81401450Y-105750499D01*
X81401455Y-105750500D01*
X81401458Y-105750501D01*
X81401460Y-105750501D01*
X81598543Y-105750501D01*
X81598544Y-105750500D01*
X81791836Y-105712052D01*
X81973915Y-105636632D01*
X82137782Y-105527140D01*
X82277140Y-105387782D01*
X82386632Y-105223915D01*
X82462052Y-105041836D01*
X82500501Y-104848541D01*
X82500501Y-104651460D01*
X82500501Y-104651457D01*
X82500500Y-104651455D01*
X82462053Y-104458172D01*
X82462053Y-104458171D01*
X82462052Y-104458165D01*
X82386632Y-104276086D01*
X82386631Y-104276085D01*
X82386628Y-104276079D01*
X82314324Y-104167868D01*
X82293446Y-104101190D01*
X82311931Y-104033810D01*
X82363910Y-103987120D01*
X82432880Y-103975944D01*
X82482518Y-103993436D01*
X82630666Y-104084814D01*
X82664500Y-104096025D01*
X82721947Y-104135796D01*
X82748772Y-104200311D01*
X82749500Y-104213732D01*
X82749500Y-108098541D01*
X82749500Y-108098543D01*
X82749499Y-108098543D01*
X82787947Y-108291829D01*
X82787950Y-108291839D01*
X82863364Y-108473907D01*
X82863371Y-108473920D01*
X82972860Y-108637781D01*
X82972863Y-108637785D01*
X83116537Y-108781459D01*
X83116559Y-108781479D01*
X83663181Y-109328101D01*
X83696666Y-109389424D01*
X83699500Y-109415782D01*
X83699500Y-110812073D01*
X83679815Y-110879112D01*
X83672148Y-110889760D01*
X83582969Y-111000704D01*
X83568146Y-111030594D01*
X83520725Y-111081907D01*
X83457058Y-111099500D01*
X83017007Y-111099500D01*
X82978003Y-111093206D01*
X82943905Y-111081907D01*
X82877797Y-111060001D01*
X82877795Y-111060000D01*
X82775016Y-111049500D01*
X82775009Y-111049500D01*
X82348542Y-111049500D01*
X82348540Y-111049500D01*
X82151460Y-111049500D01*
X82151457Y-111049500D01*
X81724998Y-111049500D01*
X81724980Y-111049501D01*
X81622203Y-111060000D01*
X81622200Y-111060001D01*
X81455668Y-111115185D01*
X81455663Y-111115187D01*
X81306342Y-111207289D01*
X81182289Y-111331342D01*
X81090187Y-111480663D01*
X81090186Y-111480666D01*
X81035001Y-111647203D01*
X81035001Y-111647204D01*
X81035000Y-111647204D01*
X81024500Y-111749983D01*
X81024500Y-112350001D01*
X81024501Y-112350019D01*
X81035000Y-112452796D01*
X81035001Y-112452799D01*
X81090185Y-112619331D01*
X81090186Y-112619334D01*
X81182288Y-112768656D01*
X81306344Y-112892712D01*
X81455666Y-112984814D01*
X81622203Y-113039999D01*
X81724991Y-113050500D01*
X81955607Y-113050499D01*
X82003061Y-113059938D01*
X82005224Y-113060834D01*
X82008165Y-113062052D01*
X82169389Y-113094121D01*
X82201457Y-113100499D01*
X82201458Y-113100500D01*
X82201459Y-113100500D01*
X82201460Y-113100500D01*
X82398541Y-113100500D01*
X83457058Y-113100500D01*
X83524097Y-113120185D01*
X83568146Y-113169406D01*
X83582969Y-113199295D01*
X83702277Y-113347721D01*
X83702278Y-113347722D01*
X83850704Y-113467030D01*
X83850707Y-113467032D01*
X84021302Y-113551639D01*
X84021303Y-113551639D01*
X84021307Y-113551641D01*
X84206111Y-113597600D01*
X84248877Y-113600500D01*
X85151122Y-113600499D01*
X85193889Y-113597600D01*
X85378693Y-113551641D01*
X85549296Y-113467030D01*
X85697722Y-113347722D01*
X85753353Y-113278514D01*
X85810696Y-113238595D01*
X85880518Y-113236015D01*
X85940651Y-113271594D01*
X85946647Y-113278514D01*
X86002277Y-113347721D01*
X86002278Y-113347722D01*
X86150704Y-113467030D01*
X86180594Y-113481854D01*
X86231907Y-113529275D01*
X86249500Y-113592942D01*
X86249500Y-116775500D01*
X86229815Y-116842539D01*
X86177011Y-116888294D01*
X86125500Y-116899500D01*
X85541971Y-116899500D01*
X85541965Y-116899500D01*
X85541964Y-116899501D01*
X85530316Y-116900536D01*
X85422584Y-116910113D01*
X85226954Y-116966089D01*
X85136772Y-117013196D01*
X85046593Y-117060302D01*
X85046591Y-117060303D01*
X85046590Y-117060304D01*
X84888890Y-117188890D01*
X84760304Y-117346590D01*
X84666089Y-117526954D01*
X84610114Y-117722583D01*
X84610113Y-117722586D01*
X84599500Y-117841966D01*
X84599500Y-118958028D01*
X84599501Y-118958034D01*
X84610113Y-119077415D01*
X84666089Y-119273045D01*
X84666090Y-119273048D01*
X84666091Y-119273049D01*
X84760302Y-119453407D01*
X84760304Y-119453409D01*
X84888890Y-119611109D01*
X84982803Y-119687684D01*
X85046593Y-119739698D01*
X85226951Y-119833909D01*
X85422582Y-119889886D01*
X85541963Y-119900500D01*
X88458036Y-119900499D01*
X88577418Y-119889886D01*
X88773049Y-119833909D01*
X88953407Y-119739698D01*
X89111109Y-119611109D01*
X89239698Y-119453407D01*
X89333909Y-119273049D01*
X89389886Y-119077418D01*
X89400500Y-118958037D01*
X89400499Y-117841964D01*
X89389886Y-117722582D01*
X89333909Y-117526951D01*
X89239698Y-117346593D01*
X89187684Y-117282803D01*
X89111109Y-117188890D01*
X88953409Y-117060304D01*
X88953410Y-117060304D01*
X88953407Y-117060302D01*
X88773049Y-116966091D01*
X88773048Y-116966090D01*
X88773045Y-116966089D01*
X88655829Y-116932550D01*
X88577418Y-116910114D01*
X88577415Y-116910113D01*
X88577413Y-116910113D01*
X88504631Y-116903642D01*
X88458037Y-116899500D01*
X88458033Y-116899500D01*
X87874500Y-116899500D01*
X87807461Y-116879815D01*
X87761706Y-116827011D01*
X87750500Y-116775500D01*
X87750500Y-113592942D01*
X87770185Y-113525903D01*
X87819406Y-113481854D01*
X87820399Y-113481361D01*
X87849296Y-113467030D01*
X87997722Y-113347722D01*
X88117030Y-113199296D01*
X88201641Y-113028693D01*
X88247600Y-112843889D01*
X88250500Y-112801123D01*
X88250499Y-111398878D01*
X88247600Y-111356111D01*
X88201641Y-111171307D01*
X88146438Y-111060000D01*
X88117032Y-111000707D01*
X88117030Y-111000704D01*
X87997722Y-110852278D01*
X87997721Y-110852277D01*
X87849295Y-110732969D01*
X87819405Y-110718145D01*
X87768092Y-110670723D01*
X87750500Y-110607057D01*
X87750500Y-110517005D01*
X87756794Y-110478001D01*
X87789999Y-110377797D01*
X87800500Y-110275009D01*
X87800499Y-109224992D01*
X87789999Y-109122203D01*
X87734814Y-108955666D01*
X87701796Y-108902135D01*
X91199500Y-108902135D01*
X91199500Y-110597870D01*
X91199501Y-110597876D01*
X91205908Y-110657483D01*
X91256202Y-110792328D01*
X91256206Y-110792335D01*
X91342452Y-110907544D01*
X91342455Y-110907547D01*
X91457664Y-110993793D01*
X91457671Y-110993797D01*
X91592517Y-111044091D01*
X91592516Y-111044091D01*
X91599444Y-111044835D01*
X91652127Y-111050500D01*
X93347872Y-111050499D01*
X93407483Y-111044091D01*
X93542331Y-110993796D01*
X93657546Y-110907546D01*
X93743796Y-110792331D01*
X93794091Y-110657483D01*
X93800500Y-110597873D01*
X93800499Y-108902128D01*
X93794091Y-108842517D01*
X93780600Y-108806347D01*
X93743796Y-108707669D01*
X93743793Y-108707664D01*
X93657547Y-108592455D01*
X93657544Y-108592452D01*
X93542335Y-108506206D01*
X93542328Y-108506202D01*
X93407482Y-108455908D01*
X93407483Y-108455908D01*
X93347883Y-108449501D01*
X93347881Y-108449500D01*
X93347873Y-108449500D01*
X93347864Y-108449500D01*
X91652129Y-108449500D01*
X91652123Y-108449501D01*
X91592516Y-108455908D01*
X91457671Y-108506202D01*
X91457664Y-108506206D01*
X91342455Y-108592452D01*
X91342452Y-108592455D01*
X91256206Y-108707664D01*
X91256204Y-108707669D01*
X91205908Y-108842517D01*
X91199501Y-108902116D01*
X91199501Y-108902123D01*
X91199500Y-108902135D01*
X87701796Y-108902135D01*
X87642712Y-108806344D01*
X87586819Y-108750451D01*
X87553334Y-108689128D01*
X87550500Y-108662770D01*
X87550500Y-103551914D01*
X87551280Y-103538029D01*
X87555565Y-103500001D01*
X87555565Y-103499996D01*
X87535369Y-103320750D01*
X87535368Y-103320745D01*
X87501484Y-103223910D01*
X87475789Y-103150478D01*
X87379816Y-102997738D01*
X87252262Y-102870184D01*
X87217816Y-102848540D01*
X87099523Y-102774211D01*
X86929254Y-102714631D01*
X86929249Y-102714630D01*
X86750004Y-102694435D01*
X86749996Y-102694435D01*
X86570750Y-102714630D01*
X86570745Y-102714631D01*
X86400476Y-102774211D01*
X86247737Y-102870184D01*
X86120184Y-102997737D01*
X86024211Y-103150476D01*
X85964631Y-103320745D01*
X85964630Y-103320750D01*
X85944435Y-103499996D01*
X85944435Y-103500003D01*
X85964630Y-103679249D01*
X85964631Y-103679254D01*
X86024212Y-103849525D01*
X86030492Y-103859519D01*
X86049500Y-103925493D01*
X86049500Y-108662770D01*
X86029815Y-108729809D01*
X86013181Y-108750451D01*
X85957288Y-108806343D01*
X85957285Y-108806347D01*
X85921943Y-108863646D01*
X85869995Y-108910371D01*
X85801033Y-108921592D01*
X85736951Y-108893749D01*
X85698095Y-108835680D01*
X85694788Y-108822741D01*
X85671898Y-108707669D01*
X85662051Y-108658164D01*
X85611035Y-108535001D01*
X85599106Y-108506202D01*
X85586635Y-108476093D01*
X85586634Y-108476092D01*
X85586632Y-108476086D01*
X85573150Y-108455908D01*
X85477139Y-108312217D01*
X85334686Y-108169764D01*
X85334655Y-108169735D01*
X84786819Y-107621899D01*
X84753334Y-107560576D01*
X84750500Y-107534218D01*
X84750500Y-104213732D01*
X84770185Y-104146693D01*
X84822989Y-104100938D01*
X84835495Y-104096026D01*
X84869334Y-104084814D01*
X85018656Y-103992712D01*
X85142712Y-103868656D01*
X85234814Y-103719334D01*
X85289999Y-103552797D01*
X85300500Y-103450009D01*
X85300499Y-102449992D01*
X85289999Y-102347203D01*
X85234814Y-102180666D01*
X85142712Y-102031344D01*
X85018656Y-101907288D01*
X84972325Y-101878711D01*
X98149500Y-101878711D01*
X98149500Y-102121288D01*
X98181161Y-102361785D01*
X98243947Y-102596104D01*
X98293043Y-102714631D01*
X98336776Y-102820212D01*
X98458064Y-103030289D01*
X98458066Y-103030292D01*
X98458067Y-103030293D01*
X98605733Y-103222736D01*
X98605739Y-103222743D01*
X98777256Y-103394260D01*
X98777262Y-103394265D01*
X98969711Y-103541936D01*
X99179788Y-103663224D01*
X99403900Y-103756054D01*
X99638211Y-103818838D01*
X99818586Y-103842584D01*
X99878711Y-103850500D01*
X99878712Y-103850500D01*
X100121289Y-103850500D01*
X100169388Y-103844167D01*
X100361789Y-103818838D01*
X100596100Y-103756054D01*
X100820212Y-103663224D01*
X101030289Y-103541936D01*
X101222738Y-103394265D01*
X101394265Y-103222738D01*
X101541936Y-103030289D01*
X101663224Y-102820212D01*
X101756054Y-102596100D01*
X101818838Y-102361789D01*
X101850500Y-102121288D01*
X101850500Y-101878712D01*
X101848480Y-101863372D01*
X101834872Y-101760001D01*
X101818838Y-101638211D01*
X101756054Y-101403900D01*
X101663224Y-101179788D01*
X101541936Y-100969711D01*
X101394265Y-100777262D01*
X101394260Y-100777256D01*
X101222743Y-100605739D01*
X101222736Y-100605733D01*
X101030293Y-100458067D01*
X101030292Y-100458066D01*
X101030289Y-100458064D01*
X100820212Y-100336776D01*
X100820205Y-100336773D01*
X100596104Y-100243947D01*
X100420475Y-100196887D01*
X100361789Y-100181162D01*
X100361788Y-100181161D01*
X100361785Y-100181161D01*
X100121289Y-100149500D01*
X100121288Y-100149500D01*
X99878712Y-100149500D01*
X99878711Y-100149500D01*
X99638214Y-100181161D01*
X99403895Y-100243947D01*
X99179794Y-100336773D01*
X99179785Y-100336777D01*
X98969706Y-100458067D01*
X98777263Y-100605733D01*
X98777256Y-100605739D01*
X98605739Y-100777256D01*
X98605733Y-100777263D01*
X98458067Y-100969706D01*
X98336777Y-101179785D01*
X98336773Y-101179794D01*
X98243947Y-101403895D01*
X98181161Y-101638214D01*
X98149500Y-101878711D01*
X84972325Y-101878711D01*
X84869334Y-101815186D01*
X84702797Y-101760001D01*
X84702795Y-101760000D01*
X84600010Y-101749500D01*
X82899998Y-101749500D01*
X82899981Y-101749501D01*
X82797203Y-101760000D01*
X82797200Y-101760001D01*
X82630668Y-101815185D01*
X82630663Y-101815187D01*
X82481342Y-101907289D01*
X82475451Y-101913181D01*
X82414128Y-101946666D01*
X82387770Y-101949500D01*
X81201457Y-101949500D01*
X81150743Y-101959588D01*
X81125386Y-101964632D01*
X81008167Y-101987947D01*
X81008159Y-101987950D01*
X80954834Y-102010037D01*
X80954834Y-102010038D01*
X80909315Y-102028892D01*
X80826089Y-102063366D01*
X80826079Y-102063371D01*
X80662218Y-102172860D01*
X80587680Y-102247398D01*
X80526356Y-102280882D01*
X80456665Y-102275897D01*
X80412318Y-102247397D01*
X80137784Y-101972863D01*
X80137780Y-101972860D01*
X79973920Y-101863372D01*
X79973910Y-101863367D01*
X79791836Y-101787949D01*
X79791828Y-101787947D01*
X79598543Y-101749500D01*
X79598540Y-101749500D01*
X79401460Y-101749500D01*
X79401457Y-101749500D01*
X79208171Y-101787947D01*
X79208163Y-101787949D01*
X79026089Y-101863367D01*
X79026079Y-101863372D01*
X78862219Y-101972860D01*
X78862215Y-101972863D01*
X78722863Y-102112215D01*
X78722860Y-102112219D01*
X78613372Y-102276079D01*
X78613367Y-102276089D01*
X78537949Y-102458163D01*
X78537947Y-102458171D01*
X78499500Y-102651455D01*
X73733125Y-102651455D01*
X73756054Y-102596100D01*
X73818838Y-102361789D01*
X73850500Y-102121288D01*
X73850500Y-101878712D01*
X73848480Y-101863372D01*
X73834872Y-101760001D01*
X73818838Y-101638211D01*
X73756054Y-101403900D01*
X73663224Y-101179788D01*
X73541936Y-100969711D01*
X73394265Y-100777262D01*
X73394260Y-100777256D01*
X73222743Y-100605739D01*
X73222736Y-100605733D01*
X73030293Y-100458067D01*
X73030292Y-100458066D01*
X73030289Y-100458064D01*
X72820212Y-100336776D01*
X72820205Y-100336773D01*
X72596104Y-100243947D01*
X72420475Y-100196887D01*
X72361789Y-100181162D01*
X72361788Y-100181161D01*
X72361785Y-100181161D01*
X72121289Y-100149500D01*
X72121288Y-100149500D01*
X71878712Y-100149500D01*
X71878711Y-100149500D01*
X71638214Y-100181161D01*
X71403895Y-100243947D01*
X71179794Y-100336773D01*
X71179785Y-100336777D01*
X70969706Y-100458067D01*
X70777263Y-100605733D01*
X70777256Y-100605739D01*
X70605739Y-100777256D01*
X70605733Y-100777263D01*
X70458067Y-100969706D01*
X70336777Y-101179785D01*
X70336773Y-101179794D01*
X70243947Y-101403895D01*
X70181161Y-101638214D01*
X70149500Y-101878711D01*
X65586525Y-101878711D01*
X62319994Y-98612180D01*
X62286509Y-98550857D01*
X62291493Y-98481165D01*
X62333365Y-98425232D01*
X62398829Y-98400815D01*
X62407664Y-98400499D01*
X62950008Y-98400499D01*
X63052797Y-98389999D01*
X63219334Y-98334814D01*
X63368656Y-98242712D01*
X63492712Y-98118656D01*
X63584814Y-97969334D01*
X63639999Y-97802797D01*
X63650500Y-97700009D01*
X63650499Y-96899992D01*
X63645391Y-96849992D01*
X63639999Y-96797203D01*
X63639998Y-96797200D01*
X63624523Y-96750499D01*
X63584814Y-96630666D01*
X63492712Y-96481344D01*
X63368656Y-96357288D01*
X63229339Y-96271357D01*
X63219336Y-96265187D01*
X63219331Y-96265185D01*
X63180332Y-96252262D01*
X63052797Y-96210001D01*
X63052795Y-96210000D01*
X62950010Y-96199500D01*
X61549998Y-96199500D01*
X61549981Y-96199501D01*
X61447203Y-96210000D01*
X61447200Y-96210001D01*
X61280668Y-96265185D01*
X61280663Y-96265187D01*
X61131342Y-96357289D01*
X61007289Y-96481342D01*
X60915187Y-96630663D01*
X60915185Y-96630668D01*
X60908782Y-96649991D01*
X60860001Y-96797203D01*
X60860001Y-96797204D01*
X60860000Y-96797204D01*
X60849500Y-96899983D01*
X60849500Y-97700001D01*
X60849501Y-97700019D01*
X60860000Y-97802796D01*
X60860001Y-97802799D01*
X60915185Y-97969331D01*
X60915187Y-97969336D01*
X60936089Y-98003223D01*
X60982977Y-98079242D01*
X61007289Y-98118657D01*
X61131344Y-98242712D01*
X61175522Y-98269961D01*
X61222247Y-98321909D01*
X61233470Y-98390871D01*
X61205627Y-98454953D01*
X61147558Y-98493810D01*
X61110426Y-98499500D01*
X54189574Y-98499500D01*
X54122535Y-98479815D01*
X54076780Y-98427011D01*
X54066836Y-98357853D01*
X54095861Y-98294297D01*
X54124478Y-98269961D01*
X54131368Y-98265711D01*
X54168656Y-98242712D01*
X54292712Y-98118656D01*
X54384814Y-97969334D01*
X54439999Y-97802797D01*
X54450500Y-97700009D01*
X54450499Y-96899992D01*
X54445391Y-96849992D01*
X54439999Y-96797203D01*
X54439998Y-96797200D01*
X54424523Y-96750499D01*
X54384814Y-96630666D01*
X54292712Y-96481344D01*
X54168656Y-96357288D01*
X54029339Y-96271357D01*
X54019336Y-96265187D01*
X54019331Y-96265185D01*
X53980332Y-96252262D01*
X53852797Y-96210001D01*
X53852795Y-96210000D01*
X53750010Y-96199500D01*
X52349998Y-96199500D01*
X52349981Y-96199501D01*
X52247203Y-96210000D01*
X52247200Y-96210001D01*
X52080668Y-96265185D01*
X52080663Y-96265187D01*
X51931342Y-96357289D01*
X51807289Y-96481342D01*
X51715187Y-96630663D01*
X51715185Y-96630668D01*
X51708782Y-96649991D01*
X51660001Y-96797203D01*
X51660001Y-96797204D01*
X51660000Y-96797204D01*
X51649500Y-96899983D01*
X51649500Y-97700001D01*
X51649501Y-97700019D01*
X51660000Y-97802796D01*
X51660001Y-97802799D01*
X51715185Y-97969331D01*
X51715187Y-97969336D01*
X51736089Y-98003223D01*
X51782977Y-98079242D01*
X51807289Y-98118657D01*
X51931344Y-98242712D01*
X51963191Y-98262355D01*
X52009916Y-98314302D01*
X52021139Y-98383265D01*
X51993296Y-98447347D01*
X51935228Y-98486204D01*
X51889249Y-98491578D01*
X51795443Y-98484869D01*
X51777931Y-98482351D01*
X51586212Y-98440646D01*
X51569236Y-98435662D01*
X51385390Y-98367090D01*
X51369298Y-98359740D01*
X51197095Y-98265711D01*
X51182210Y-98256146D01*
X51164264Y-98242712D01*
X51025132Y-98138558D01*
X51011762Y-98126972D01*
X50873027Y-97988237D01*
X50861441Y-97974867D01*
X50857297Y-97969331D01*
X50743849Y-97817784D01*
X50734288Y-97802904D01*
X50640259Y-97630701D01*
X50632909Y-97614609D01*
X50606393Y-97543517D01*
X50564334Y-97430755D01*
X50559355Y-97413797D01*
X50517647Y-97222063D01*
X50515130Y-97204556D01*
X50510000Y-97132834D01*
X50500816Y-97004418D01*
X50500500Y-96995572D01*
X50500500Y-89299983D01*
X51649500Y-89299983D01*
X51649500Y-90100001D01*
X51649501Y-90100019D01*
X51660000Y-90202796D01*
X51660001Y-90202799D01*
X51715185Y-90369331D01*
X51715187Y-90369336D01*
X51732857Y-90397983D01*
X51807288Y-90518656D01*
X51931344Y-90642712D01*
X52080666Y-90734814D01*
X52247203Y-90789999D01*
X52349991Y-90800500D01*
X53750008Y-90800499D01*
X53852797Y-90789999D01*
X54019334Y-90734814D01*
X54110404Y-90678641D01*
X54177796Y-90660202D01*
X54244459Y-90681125D01*
X54289229Y-90734767D01*
X54299500Y-90784181D01*
X54299500Y-91215701D01*
X54302401Y-91252567D01*
X54302402Y-91252573D01*
X54348253Y-91410393D01*
X54363918Y-91436881D01*
X54381098Y-91504606D01*
X54363918Y-91563119D01*
X54348253Y-91589606D01*
X54302402Y-91747426D01*
X54302401Y-91747432D01*
X54299500Y-91784298D01*
X54299500Y-92215701D01*
X54302401Y-92252567D01*
X54302402Y-92252573D01*
X54348253Y-92410393D01*
X54363918Y-92436881D01*
X54381098Y-92504606D01*
X54363918Y-92563119D01*
X54348253Y-92589606D01*
X54300634Y-92753515D01*
X54299205Y-92753100D01*
X54271178Y-92808776D01*
X54268297Y-92811755D01*
X53651775Y-93428277D01*
X53590452Y-93461762D01*
X53577988Y-93463815D01*
X53570752Y-93464630D01*
X53570744Y-93464632D01*
X53400478Y-93524210D01*
X53247737Y-93620184D01*
X53120184Y-93747737D01*
X53024211Y-93900476D01*
X52964631Y-94070745D01*
X52964630Y-94070750D01*
X52944435Y-94249996D01*
X52944435Y-94250003D01*
X52964630Y-94429249D01*
X52964631Y-94429254D01*
X53024211Y-94599523D01*
X53085728Y-94697426D01*
X53120184Y-94752262D01*
X53247738Y-94879816D01*
X53400478Y-94975789D01*
X53538649Y-95024137D01*
X53570745Y-95035368D01*
X53570750Y-95035369D01*
X53749996Y-95055565D01*
X53750000Y-95055565D01*
X53750004Y-95055565D01*
X53929249Y-95035369D01*
X53929252Y-95035368D01*
X53929255Y-95035368D01*
X54099522Y-94975789D01*
X54099524Y-94975788D01*
X54109527Y-94969503D01*
X54176764Y-94950502D01*
X54243599Y-94970869D01*
X54288814Y-95024137D01*
X54299500Y-95074496D01*
X54299500Y-95215701D01*
X54302401Y-95252567D01*
X54302402Y-95252573D01*
X54348254Y-95410393D01*
X54348255Y-95410396D01*
X54348256Y-95410398D01*
X54385681Y-95473681D01*
X54431917Y-95551862D01*
X54431923Y-95551870D01*
X54548129Y-95668076D01*
X54548133Y-95668079D01*
X54548135Y-95668081D01*
X54689602Y-95751744D01*
X54691385Y-95752262D01*
X54847426Y-95797597D01*
X54847429Y-95797597D01*
X54847431Y-95797598D01*
X54884306Y-95800500D01*
X54884314Y-95800500D01*
X56265686Y-95800500D01*
X56265694Y-95800500D01*
X56302569Y-95797598D01*
X56302571Y-95797597D01*
X56302573Y-95797597D01*
X56402610Y-95768533D01*
X56460398Y-95751744D01*
X56601865Y-95668081D01*
X56633126Y-95636820D01*
X56694448Y-95603334D01*
X56720808Y-95600500D01*
X58417588Y-95600500D01*
X58484627Y-95620185D01*
X58494903Y-95627555D01*
X58497736Y-95629814D01*
X58497738Y-95629816D01*
X58599167Y-95693548D01*
X58634432Y-95715707D01*
X58650478Y-95725789D01*
X58820739Y-95785366D01*
X58820745Y-95785368D01*
X58820750Y-95785369D01*
X58999996Y-95805565D01*
X59000000Y-95805565D01*
X59000004Y-95805565D01*
X59179249Y-95785369D01*
X59179252Y-95785368D01*
X59179255Y-95785368D01*
X59349522Y-95725789D01*
X59502262Y-95629816D01*
X59629816Y-95502262D01*
X59725789Y-95349522D01*
X59785368Y-95179255D01*
X59787335Y-95161801D01*
X59805565Y-95000003D01*
X59805565Y-94999996D01*
X59785369Y-94820750D01*
X59785368Y-94820745D01*
X59725788Y-94650475D01*
X59672691Y-94565973D01*
X59653690Y-94498736D01*
X59672691Y-94434027D01*
X59725788Y-94349524D01*
X59725789Y-94349522D01*
X59785368Y-94179255D01*
X59786897Y-94165686D01*
X59805565Y-94000003D01*
X59805565Y-93999996D01*
X59785369Y-93820750D01*
X59785368Y-93820745D01*
X59742219Y-93697432D01*
X59725789Y-93650478D01*
X59629816Y-93497738D01*
X59502262Y-93370184D01*
X59349523Y-93274211D01*
X59179254Y-93214631D01*
X59179249Y-93214630D01*
X59000004Y-93194435D01*
X58999996Y-93194435D01*
X58820750Y-93214630D01*
X58820745Y-93214631D01*
X58650476Y-93274211D01*
X58497736Y-93370185D01*
X58494903Y-93372445D01*
X58492724Y-93373334D01*
X58491842Y-93373889D01*
X58491744Y-93373734D01*
X58430217Y-93398855D01*
X58417588Y-93399500D01*
X56969461Y-93399500D01*
X56902422Y-93379815D01*
X56856667Y-93327011D01*
X56846723Y-93257853D01*
X56847480Y-93253215D01*
X56847598Y-93252568D01*
X56850499Y-93215701D01*
X56850500Y-93215694D01*
X56850500Y-92784306D01*
X56850497Y-92784272D01*
X56850494Y-92784222D01*
X56850496Y-92784212D01*
X56850404Y-92781868D01*
X56850993Y-92781844D01*
X56864862Y-92715845D01*
X56913916Y-92666091D01*
X56974112Y-92650500D01*
X57994932Y-92650500D01*
X58060904Y-92669506D01*
X58150477Y-92725789D01*
X58150481Y-92725790D01*
X58320737Y-92785366D01*
X58320743Y-92785367D01*
X58320745Y-92785368D01*
X58320746Y-92785368D01*
X58320750Y-92785369D01*
X58499996Y-92805565D01*
X58500000Y-92805565D01*
X58500004Y-92805565D01*
X58679249Y-92785369D01*
X58679252Y-92785368D01*
X58679255Y-92785368D01*
X58849522Y-92725789D01*
X59002262Y-92629816D01*
X59129816Y-92502262D01*
X59225789Y-92349522D01*
X59285368Y-92179255D01*
X59286897Y-92165686D01*
X59305565Y-92000003D01*
X59305565Y-91999996D01*
X59285369Y-91820750D01*
X59285367Y-91820740D01*
X59253029Y-91728326D01*
X59249466Y-91658547D01*
X59282389Y-91599689D01*
X59318959Y-91563119D01*
X59379816Y-91502262D01*
X59475789Y-91349522D01*
X59535368Y-91179255D01*
X59538394Y-91152401D01*
X59555565Y-91000003D01*
X59555565Y-90999996D01*
X59535369Y-90820750D01*
X59535368Y-90820745D01*
X59525559Y-90792712D01*
X59475789Y-90650478D01*
X59470909Y-90642712D01*
X59436582Y-90588080D01*
X59379816Y-90497738D01*
X59252262Y-90370184D01*
X59201635Y-90338373D01*
X59099523Y-90274211D01*
X58929254Y-90214631D01*
X58929249Y-90214630D01*
X58750004Y-90194435D01*
X58749996Y-90194435D01*
X58570750Y-90214630D01*
X58570737Y-90214633D01*
X58400481Y-90274209D01*
X58400477Y-90274210D01*
X58310904Y-90330494D01*
X58244932Y-90349500D01*
X56665516Y-90349500D01*
X56602395Y-90332232D01*
X56460396Y-90248255D01*
X56460393Y-90248254D01*
X56302573Y-90202402D01*
X56302567Y-90202401D01*
X56265701Y-90199500D01*
X56265694Y-90199500D01*
X54884306Y-90199500D01*
X54884298Y-90199500D01*
X54847432Y-90202401D01*
X54847426Y-90202402D01*
X54689606Y-90248254D01*
X54689605Y-90248254D01*
X54630450Y-90283238D01*
X54562726Y-90300419D01*
X54496463Y-90278259D01*
X54452701Y-90223793D01*
X54443972Y-90163903D01*
X54450500Y-90100009D01*
X54450499Y-89299992D01*
X54445391Y-89249992D01*
X54439999Y-89197203D01*
X54439998Y-89197200D01*
X54423431Y-89147204D01*
X54384814Y-89030666D01*
X54292712Y-88881344D01*
X54168656Y-88757288D01*
X54019334Y-88665186D01*
X53852797Y-88610001D01*
X53852795Y-88610000D01*
X53750010Y-88599500D01*
X52349998Y-88599500D01*
X52349981Y-88599501D01*
X52247203Y-88610000D01*
X52247200Y-88610001D01*
X52080668Y-88665185D01*
X52080663Y-88665187D01*
X51931342Y-88757289D01*
X51807289Y-88881342D01*
X51715187Y-89030663D01*
X51715185Y-89030668D01*
X51709039Y-89049215D01*
X51660001Y-89197203D01*
X51660001Y-89197204D01*
X51660000Y-89197204D01*
X51649500Y-89299983D01*
X50500500Y-89299983D01*
X50500500Y-85899983D01*
X51599500Y-85899983D01*
X51599500Y-86700001D01*
X51599501Y-86700019D01*
X51610000Y-86802796D01*
X51610001Y-86802799D01*
X51665185Y-86969331D01*
X51665187Y-86969336D01*
X51693605Y-87015409D01*
X51757288Y-87118656D01*
X51881344Y-87242712D01*
X52030666Y-87334814D01*
X52197203Y-87389999D01*
X52299991Y-87400500D01*
X53700008Y-87400499D01*
X53802797Y-87389999D01*
X53969334Y-87334814D01*
X54118656Y-87242712D01*
X54242712Y-87118656D01*
X54334814Y-86969334D01*
X54389999Y-86802797D01*
X54400500Y-86700009D01*
X54400499Y-85899992D01*
X54400498Y-85899983D01*
X60899500Y-85899983D01*
X60899500Y-86700001D01*
X60899501Y-86700019D01*
X60910000Y-86802796D01*
X60910001Y-86802799D01*
X60965185Y-86969331D01*
X60965187Y-86969336D01*
X60993605Y-87015409D01*
X61057288Y-87118656D01*
X61181344Y-87242712D01*
X61330666Y-87334814D01*
X61497203Y-87389999D01*
X61599991Y-87400500D01*
X63000008Y-87400499D01*
X63102797Y-87389999D01*
X63269334Y-87334814D01*
X63418656Y-87242712D01*
X63542712Y-87118656D01*
X63634814Y-86969334D01*
X63689999Y-86802797D01*
X63700500Y-86700009D01*
X63700499Y-85899992D01*
X63697844Y-85874005D01*
X63689999Y-85797203D01*
X63689998Y-85797200D01*
X63683041Y-85776204D01*
X63634814Y-85630666D01*
X63542712Y-85481344D01*
X63418656Y-85357288D01*
X63319987Y-85296429D01*
X63269336Y-85265187D01*
X63269331Y-85265185D01*
X63231258Y-85252569D01*
X63102797Y-85210001D01*
X63102795Y-85210000D01*
X63000010Y-85199500D01*
X61599998Y-85199500D01*
X61599981Y-85199501D01*
X61497203Y-85210000D01*
X61497200Y-85210001D01*
X61330668Y-85265185D01*
X61330663Y-85265187D01*
X61181342Y-85357289D01*
X61057289Y-85481342D01*
X60965187Y-85630663D01*
X60965185Y-85630668D01*
X60949085Y-85679255D01*
X60910001Y-85797203D01*
X60910001Y-85797204D01*
X60910000Y-85797204D01*
X60899500Y-85899983D01*
X54400498Y-85899983D01*
X54397844Y-85874005D01*
X54389999Y-85797203D01*
X54389998Y-85797200D01*
X54383041Y-85776204D01*
X54334814Y-85630666D01*
X54242712Y-85481344D01*
X54118656Y-85357288D01*
X54019987Y-85296429D01*
X53969336Y-85265187D01*
X53969331Y-85265185D01*
X53931258Y-85252569D01*
X53802797Y-85210001D01*
X53802795Y-85210000D01*
X53700010Y-85199500D01*
X52299998Y-85199500D01*
X52299981Y-85199501D01*
X52197203Y-85210000D01*
X52197200Y-85210001D01*
X52030668Y-85265185D01*
X52030663Y-85265187D01*
X51881342Y-85357289D01*
X51757289Y-85481342D01*
X51665187Y-85630663D01*
X51665185Y-85630668D01*
X51649085Y-85679255D01*
X51610001Y-85797203D01*
X51610001Y-85797204D01*
X51610000Y-85797204D01*
X51599500Y-85899983D01*
X50500500Y-85899983D01*
X50500500Y-79004427D01*
X50500816Y-78995581D01*
X50505213Y-78934107D01*
X50515130Y-78795436D01*
X50517646Y-78777938D01*
X50559356Y-78586199D01*
X50564333Y-78569248D01*
X50632911Y-78385385D01*
X50640259Y-78369298D01*
X50657378Y-78337946D01*
X50734291Y-78197089D01*
X50743845Y-78182221D01*
X50861448Y-78025123D01*
X50873020Y-78011769D01*
X51011769Y-77873020D01*
X51025123Y-77861448D01*
X51182221Y-77743845D01*
X51197089Y-77734291D01*
X51369298Y-77640258D01*
X51385385Y-77632911D01*
X51569248Y-77564333D01*
X51586199Y-77559356D01*
X51777938Y-77517646D01*
X51795436Y-77515130D01*
X51832692Y-77512466D01*
X51900964Y-77527318D01*
X51950369Y-77576723D01*
X51965221Y-77644996D01*
X51940804Y-77710461D01*
X51906635Y-77741688D01*
X51881344Y-77757287D01*
X51757289Y-77881342D01*
X51665187Y-78030663D01*
X51665186Y-78030666D01*
X51610001Y-78197203D01*
X51610001Y-78197204D01*
X51610000Y-78197204D01*
X51599500Y-78299983D01*
X51599500Y-79100001D01*
X51599501Y-79100019D01*
X51610000Y-79202796D01*
X51610001Y-79202799D01*
X51658614Y-79349500D01*
X51665186Y-79369334D01*
X51757288Y-79518656D01*
X51881344Y-79642712D01*
X52030666Y-79734814D01*
X52197203Y-79789999D01*
X52299991Y-79800500D01*
X53700008Y-79800499D01*
X53802797Y-79789999D01*
X53969334Y-79734814D01*
X54060404Y-79678641D01*
X54127796Y-79660202D01*
X54194459Y-79681125D01*
X54239229Y-79734767D01*
X54249500Y-79784181D01*
X54249500Y-80215701D01*
X54252401Y-80252567D01*
X54252402Y-80252573D01*
X54298253Y-80410393D01*
X54313918Y-80436881D01*
X54331098Y-80504606D01*
X54313918Y-80563119D01*
X54298253Y-80589606D01*
X54252402Y-80747426D01*
X54252401Y-80747432D01*
X54249500Y-80784298D01*
X54249500Y-81215701D01*
X54252401Y-81252567D01*
X54252402Y-81252573D01*
X54298253Y-81410393D01*
X54313918Y-81436881D01*
X54331098Y-81504606D01*
X54313918Y-81563119D01*
X54298253Y-81589606D01*
X54252402Y-81747426D01*
X54252401Y-81747432D01*
X54249500Y-81784298D01*
X54249500Y-82215701D01*
X54252401Y-82252567D01*
X54252402Y-82252573D01*
X54298253Y-82410393D01*
X54313918Y-82436881D01*
X54331098Y-82504606D01*
X54313918Y-82563119D01*
X54298253Y-82589606D01*
X54252402Y-82747426D01*
X54252401Y-82747432D01*
X54249500Y-82784298D01*
X54249500Y-83215701D01*
X54252401Y-83252567D01*
X54252402Y-83252573D01*
X54298253Y-83410393D01*
X54313918Y-83436881D01*
X54331098Y-83504606D01*
X54313918Y-83563119D01*
X54298253Y-83589606D01*
X54252402Y-83747426D01*
X54252401Y-83747432D01*
X54249500Y-83784298D01*
X54249500Y-84215701D01*
X54252401Y-84252567D01*
X54252402Y-84252573D01*
X54298254Y-84410393D01*
X54298255Y-84410396D01*
X54298256Y-84410398D01*
X54309407Y-84429254D01*
X54381917Y-84551862D01*
X54381923Y-84551870D01*
X54498129Y-84668076D01*
X54498133Y-84668079D01*
X54498135Y-84668081D01*
X54639602Y-84751744D01*
X54641385Y-84752262D01*
X54797426Y-84797597D01*
X54797429Y-84797597D01*
X54797431Y-84797598D01*
X54834306Y-84800500D01*
X54834314Y-84800500D01*
X56215686Y-84800500D01*
X56215694Y-84800500D01*
X56252569Y-84797598D01*
X56252571Y-84797597D01*
X56252573Y-84797597D01*
X56298347Y-84784298D01*
X56410398Y-84751744D01*
X56490277Y-84704503D01*
X56558000Y-84687321D01*
X56619368Y-84706242D01*
X56650479Y-84725790D01*
X56820737Y-84785366D01*
X56820743Y-84785367D01*
X56820745Y-84785368D01*
X56820746Y-84785368D01*
X56820750Y-84785369D01*
X56999996Y-84805565D01*
X57000000Y-84805565D01*
X57000004Y-84805565D01*
X57179249Y-84785369D01*
X57179252Y-84785368D01*
X57179255Y-84785368D01*
X57349522Y-84725789D01*
X57502262Y-84629816D01*
X57629816Y-84502262D01*
X57725789Y-84349522D01*
X57785368Y-84179255D01*
X57791481Y-84125000D01*
X57805565Y-84000003D01*
X57805565Y-83999996D01*
X57785369Y-83820750D01*
X57785368Y-83820745D01*
X57725788Y-83650475D01*
X57672691Y-83565973D01*
X57653690Y-83498736D01*
X57672691Y-83434027D01*
X57725788Y-83349524D01*
X57725789Y-83349522D01*
X57785368Y-83179255D01*
X57789974Y-83138374D01*
X57805565Y-83000003D01*
X57805565Y-82999997D01*
X57798285Y-82935389D01*
X57810339Y-82866567D01*
X57857688Y-82815188D01*
X57925298Y-82797563D01*
X57935385Y-82798284D01*
X57961857Y-82801267D01*
X57999998Y-82805565D01*
X58000000Y-82805565D01*
X58000004Y-82805565D01*
X58179249Y-82785369D01*
X58179252Y-82785368D01*
X58179255Y-82785368D01*
X58349522Y-82725789D01*
X58502262Y-82629816D01*
X58629816Y-82502262D01*
X58725789Y-82349522D01*
X58785368Y-82179255D01*
X58788743Y-82149302D01*
X58805565Y-82000003D01*
X58805565Y-81999996D01*
X58785369Y-81820750D01*
X58785368Y-81820745D01*
X58725788Y-81650475D01*
X58672691Y-81565973D01*
X58653690Y-81498736D01*
X58672691Y-81434027D01*
X58725788Y-81349524D01*
X58725789Y-81349522D01*
X58785368Y-81179255D01*
X58785369Y-81179249D01*
X58805565Y-81000003D01*
X58805565Y-80999996D01*
X58785369Y-80820750D01*
X58785368Y-80820745D01*
X58725788Y-80650475D01*
X58712801Y-80629807D01*
X58693800Y-80562570D01*
X58712800Y-80497862D01*
X58767758Y-80410398D01*
X58775053Y-80398789D01*
X58775796Y-80396666D01*
X58834633Y-80228520D01*
X58834634Y-80228514D01*
X58854830Y-80049268D01*
X58854830Y-80049261D01*
X58834634Y-79870015D01*
X58834633Y-79870010D01*
X58806636Y-79789999D01*
X58775054Y-79699743D01*
X58761795Y-79678642D01*
X58720708Y-79613252D01*
X58679081Y-79547003D01*
X58551527Y-79419449D01*
X58471765Y-79369331D01*
X58398788Y-79323476D01*
X58228519Y-79263896D01*
X58228514Y-79263895D01*
X58049269Y-79243700D01*
X58049261Y-79243700D01*
X57870015Y-79263895D01*
X57870010Y-79263896D01*
X57699743Y-79323475D01*
X57691256Y-79328808D01*
X57688575Y-79330493D01*
X57622602Y-79349500D01*
X56615516Y-79349500D01*
X56552395Y-79332232D01*
X56452085Y-79272909D01*
X56410398Y-79248256D01*
X56410397Y-79248255D01*
X56410396Y-79248255D01*
X56410393Y-79248254D01*
X56252573Y-79202402D01*
X56252567Y-79202401D01*
X56215701Y-79199500D01*
X56215694Y-79199500D01*
X54834306Y-79199500D01*
X54834298Y-79199500D01*
X54797432Y-79202401D01*
X54797426Y-79202402D01*
X54639606Y-79248254D01*
X54639605Y-79248254D01*
X54580450Y-79283238D01*
X54512726Y-79300419D01*
X54446463Y-79278259D01*
X54402701Y-79223793D01*
X54393972Y-79163903D01*
X54400500Y-79100009D01*
X54400499Y-78299992D01*
X54389999Y-78197203D01*
X54334814Y-78030666D01*
X54242712Y-77881344D01*
X54118656Y-77757288D01*
X54118655Y-77757287D01*
X54074478Y-77730039D01*
X54027753Y-77678091D01*
X54016530Y-77609129D01*
X54044373Y-77545047D01*
X54102442Y-77506190D01*
X54139574Y-77500500D01*
X61160426Y-77500500D01*
X61227465Y-77520185D01*
X61273220Y-77572989D01*
X61283164Y-77642147D01*
X61254139Y-77705703D01*
X61225522Y-77730039D01*
X61181344Y-77757287D01*
X61057289Y-77881342D01*
X60965187Y-78030663D01*
X60965186Y-78030666D01*
X60910001Y-78197203D01*
X60910001Y-78197204D01*
X60910000Y-78197204D01*
X60899500Y-78299983D01*
X60899500Y-79100001D01*
X60899501Y-79100019D01*
X60910000Y-79202796D01*
X60910001Y-79202799D01*
X60958614Y-79349500D01*
X60965186Y-79369334D01*
X61057288Y-79518656D01*
X61181344Y-79642712D01*
X61330666Y-79734814D01*
X61497203Y-79789999D01*
X61599991Y-79800500D01*
X63000008Y-79800499D01*
X63102797Y-79789999D01*
X63269334Y-79734814D01*
X63360404Y-79678641D01*
X63427796Y-79660202D01*
X63494459Y-79681125D01*
X63539229Y-79734767D01*
X63549500Y-79784181D01*
X63549500Y-80215701D01*
X63552401Y-80252567D01*
X63552402Y-80252573D01*
X63598253Y-80410393D01*
X63613918Y-80436881D01*
X63631098Y-80504606D01*
X63613918Y-80563119D01*
X63598253Y-80589606D01*
X63552402Y-80747426D01*
X63552401Y-80747432D01*
X63549500Y-80784298D01*
X63549500Y-81215686D01*
X63549501Y-81215717D01*
X63549506Y-81215778D01*
X63549503Y-81215787D01*
X63549596Y-81218132D01*
X63549006Y-81218155D01*
X63535138Y-81284155D01*
X63486084Y-81333909D01*
X63425888Y-81349500D01*
X63185929Y-81349500D01*
X63060261Y-81374497D01*
X63060255Y-81374499D01*
X62941873Y-81423535D01*
X62917512Y-81439811D01*
X62862514Y-81459925D01*
X62820745Y-81464632D01*
X62650478Y-81524210D01*
X62497737Y-81620184D01*
X62370184Y-81747737D01*
X62274211Y-81900476D01*
X62214631Y-82070745D01*
X62214630Y-82070750D01*
X62194435Y-82249996D01*
X62194435Y-82250003D01*
X62214630Y-82429249D01*
X62214631Y-82429254D01*
X62274211Y-82599523D01*
X62353549Y-82725788D01*
X62370184Y-82752262D01*
X62497738Y-82879816D01*
X62586182Y-82935389D01*
X62618019Y-82955394D01*
X62650478Y-82975789D01*
X62719678Y-83000003D01*
X62820745Y-83035368D01*
X62820750Y-83035369D01*
X62999996Y-83055565D01*
X63000000Y-83055565D01*
X63000004Y-83055565D01*
X63179249Y-83035369D01*
X63179252Y-83035368D01*
X63179255Y-83035368D01*
X63349522Y-82975789D01*
X63349524Y-82975788D01*
X63359527Y-82969503D01*
X63426764Y-82950502D01*
X63493599Y-82970869D01*
X63538814Y-83024137D01*
X63549500Y-83074496D01*
X63549500Y-83215701D01*
X63552401Y-83252567D01*
X63552402Y-83252573D01*
X63598253Y-83410393D01*
X63613918Y-83436881D01*
X63631098Y-83504606D01*
X63613918Y-83563119D01*
X63598253Y-83589606D01*
X63552402Y-83747426D01*
X63552401Y-83747432D01*
X63549500Y-83784298D01*
X63549500Y-84215701D01*
X63552401Y-84252567D01*
X63552402Y-84252573D01*
X63598254Y-84410393D01*
X63598255Y-84410396D01*
X63598256Y-84410398D01*
X63609407Y-84429254D01*
X63681917Y-84551862D01*
X63681923Y-84551870D01*
X63798129Y-84668076D01*
X63798133Y-84668079D01*
X63798135Y-84668081D01*
X63939602Y-84751744D01*
X63941385Y-84752262D01*
X64097426Y-84797597D01*
X64097429Y-84797597D01*
X64097431Y-84797598D01*
X64134306Y-84800500D01*
X65399903Y-84800500D01*
X65466942Y-84820185D01*
X65487584Y-84836819D01*
X65756645Y-85105880D01*
X65790130Y-85167203D01*
X65792184Y-85179677D01*
X65808835Y-85327467D01*
X65808836Y-85327471D01*
X65868416Y-85497740D01*
X65951938Y-85630663D01*
X65964389Y-85650479D01*
X66091943Y-85778033D01*
X66127699Y-85800500D01*
X66241813Y-85872203D01*
X66244683Y-85874006D01*
X66318921Y-85899983D01*
X66414950Y-85933585D01*
X66414955Y-85933586D01*
X66594201Y-85953782D01*
X66594205Y-85953782D01*
X66594209Y-85953782D01*
X66773454Y-85933586D01*
X66773457Y-85933585D01*
X66773460Y-85933585D01*
X66943727Y-85874006D01*
X67096467Y-85778033D01*
X67224021Y-85650479D01*
X67312137Y-85510243D01*
X67364469Y-85463954D01*
X67403251Y-85452996D01*
X67412258Y-85451982D01*
X67582525Y-85392403D01*
X67735265Y-85296430D01*
X67862819Y-85168876D01*
X67869320Y-85158530D01*
X67921654Y-85112238D01*
X67974314Y-85100501D01*
X68001573Y-85100501D01*
X68001589Y-85100500D01*
X68970300Y-85100500D01*
X69013632Y-85108317D01*
X69042517Y-85119091D01*
X69102127Y-85125500D01*
X69897872Y-85125499D01*
X69957483Y-85119091D01*
X70083124Y-85072229D01*
X70152814Y-85067246D01*
X70214137Y-85100731D01*
X70247622Y-85162054D01*
X70249746Y-85175157D01*
X70255909Y-85232483D01*
X70306202Y-85367328D01*
X70306206Y-85367335D01*
X70392452Y-85482544D01*
X70392455Y-85482547D01*
X70507664Y-85568793D01*
X70507671Y-85568797D01*
X70642517Y-85619091D01*
X70642516Y-85619091D01*
X70649444Y-85619835D01*
X70702127Y-85625500D01*
X71497872Y-85625499D01*
X71557483Y-85619091D01*
X71586367Y-85608317D01*
X71629700Y-85600500D01*
X71699903Y-85600500D01*
X71766942Y-85620185D01*
X71787584Y-85636819D01*
X71930338Y-85779573D01*
X71963823Y-85840896D01*
X71966657Y-85867254D01*
X71966657Y-88831765D01*
X71946972Y-88898804D01*
X71894168Y-88944559D01*
X71830055Y-88955123D01*
X71775011Y-88949500D01*
X70724998Y-88949500D01*
X70724980Y-88949501D01*
X70622203Y-88960000D01*
X70622200Y-88960001D01*
X70455668Y-89015185D01*
X70455663Y-89015188D01*
X70422140Y-89035864D01*
X70354747Y-89054302D01*
X70288084Y-89033377D01*
X70243316Y-88979734D01*
X70239347Y-88969347D01*
X70234814Y-88955666D01*
X70231011Y-88949501D01*
X70160016Y-88834398D01*
X70141576Y-88767006D01*
X70160561Y-88703331D01*
X70219205Y-88610000D01*
X70225788Y-88599524D01*
X70225796Y-88599501D01*
X70285368Y-88429255D01*
X70286953Y-88415187D01*
X70305565Y-88250003D01*
X70305565Y-88249996D01*
X70285369Y-88070750D01*
X70285368Y-88070745D01*
X70239049Y-87938373D01*
X70225789Y-87900478D01*
X70129816Y-87747738D01*
X70002262Y-87620184D01*
X69989107Y-87611918D01*
X69849523Y-87524211D01*
X69679254Y-87464631D01*
X69679249Y-87464630D01*
X69500004Y-87444435D01*
X69499996Y-87444435D01*
X69320750Y-87464630D01*
X69320745Y-87464631D01*
X69150476Y-87524211D01*
X68997737Y-87620184D01*
X68870184Y-87747737D01*
X68774210Y-87900478D01*
X68714630Y-88070750D01*
X68702256Y-88180577D01*
X68693598Y-88214144D01*
X68674499Y-88260254D01*
X68674498Y-88260257D01*
X68649500Y-88385928D01*
X68649500Y-88571042D01*
X68629815Y-88638081D01*
X68590598Y-88676580D01*
X68581344Y-88682287D01*
X68457289Y-88806342D01*
X68365187Y-88955663D01*
X68365185Y-88955668D01*
X68356903Y-88980663D01*
X68310001Y-89122203D01*
X68310001Y-89122204D01*
X68310000Y-89122204D01*
X68299500Y-89224983D01*
X68299500Y-90269189D01*
X68279815Y-90336228D01*
X68252820Y-90366130D01*
X68247740Y-90370181D01*
X68120184Y-90497737D01*
X68028102Y-90644285D01*
X67975767Y-90690576D01*
X67936992Y-90701533D01*
X67820749Y-90714630D01*
X67820745Y-90714631D01*
X67650476Y-90774211D01*
X67497737Y-90870184D01*
X67370184Y-90997737D01*
X67274211Y-91150476D01*
X67214631Y-91320745D01*
X67214630Y-91320749D01*
X67202438Y-91428965D01*
X67175372Y-91493379D01*
X67117777Y-91532934D01*
X67047940Y-91535071D01*
X66991537Y-91502762D01*
X65983501Y-90494725D01*
X65983498Y-90494722D01*
X65936906Y-90463591D01*
X65918115Y-90448170D01*
X65918082Y-90448137D01*
X65918081Y-90448135D01*
X65801865Y-90331919D01*
X65799455Y-90330494D01*
X65719550Y-90283238D01*
X65660398Y-90248256D01*
X65660397Y-90248255D01*
X65660396Y-90248255D01*
X65660393Y-90248254D01*
X65502573Y-90202402D01*
X65502567Y-90202401D01*
X65465701Y-90199500D01*
X65465694Y-90199500D01*
X64084306Y-90199500D01*
X64084298Y-90199500D01*
X64047432Y-90202401D01*
X64047426Y-90202402D01*
X63889606Y-90248254D01*
X63889605Y-90248254D01*
X63830450Y-90283238D01*
X63762726Y-90300419D01*
X63696463Y-90278259D01*
X63652701Y-90223793D01*
X63643972Y-90163903D01*
X63650500Y-90100009D01*
X63650499Y-89299992D01*
X63645391Y-89249992D01*
X63639999Y-89197203D01*
X63639998Y-89197200D01*
X63623431Y-89147204D01*
X63584814Y-89030666D01*
X63492712Y-88881344D01*
X63368656Y-88757288D01*
X63219334Y-88665186D01*
X63052797Y-88610001D01*
X63052795Y-88610000D01*
X62950010Y-88599500D01*
X61549998Y-88599500D01*
X61549981Y-88599501D01*
X61447203Y-88610000D01*
X61447200Y-88610001D01*
X61280668Y-88665185D01*
X61280663Y-88665187D01*
X61131342Y-88757289D01*
X61007289Y-88881342D01*
X60915187Y-89030663D01*
X60915185Y-89030668D01*
X60909039Y-89049215D01*
X60860001Y-89197203D01*
X60860001Y-89197204D01*
X60860000Y-89197204D01*
X60849500Y-89299983D01*
X60849500Y-90100001D01*
X60849501Y-90100019D01*
X60860000Y-90202796D01*
X60860001Y-90202799D01*
X60915185Y-90369331D01*
X60915187Y-90369336D01*
X60932857Y-90397983D01*
X61007288Y-90518656D01*
X61131344Y-90642712D01*
X61280666Y-90734814D01*
X61447203Y-90789999D01*
X61549991Y-90800500D01*
X62950008Y-90800499D01*
X63052797Y-90789999D01*
X63219334Y-90734814D01*
X63310404Y-90678641D01*
X63377796Y-90660202D01*
X63444459Y-90681125D01*
X63489229Y-90734767D01*
X63499500Y-90784181D01*
X63499500Y-91215701D01*
X63502401Y-91252567D01*
X63502402Y-91252573D01*
X63548253Y-91410393D01*
X63563918Y-91436881D01*
X63581098Y-91504606D01*
X63563918Y-91563119D01*
X63548253Y-91589606D01*
X63502402Y-91747426D01*
X63502401Y-91747432D01*
X63499500Y-91784298D01*
X63499500Y-92215701D01*
X63502401Y-92252567D01*
X63502402Y-92252573D01*
X63548253Y-92410393D01*
X63563918Y-92436881D01*
X63581098Y-92504606D01*
X63563918Y-92563119D01*
X63548253Y-92589606D01*
X63502402Y-92747426D01*
X63502401Y-92747432D01*
X63499500Y-92784298D01*
X63499500Y-92817929D01*
X63479815Y-92884968D01*
X63463181Y-92905610D01*
X62445432Y-93923358D01*
X62384109Y-93956843D01*
X62371635Y-93958897D01*
X62320750Y-93964630D01*
X62150478Y-94024210D01*
X61997737Y-94120184D01*
X61870184Y-94247737D01*
X61774211Y-94400476D01*
X61714631Y-94570745D01*
X61714630Y-94570750D01*
X61694435Y-94749996D01*
X61694435Y-94750003D01*
X61714630Y-94929249D01*
X61714631Y-94929254D01*
X61774211Y-95099523D01*
X61861992Y-95239224D01*
X61870184Y-95252262D01*
X61997738Y-95379816D01*
X62150478Y-95475789D01*
X62320745Y-95535368D01*
X62320750Y-95535369D01*
X62499996Y-95555565D01*
X62500000Y-95555565D01*
X62500004Y-95555565D01*
X62679249Y-95535369D01*
X62679252Y-95535368D01*
X62679255Y-95535368D01*
X62849522Y-95475789D01*
X63002262Y-95379816D01*
X63129816Y-95252262D01*
X63225789Y-95099522D01*
X63258458Y-95006158D01*
X63299180Y-94949383D01*
X63364132Y-94923635D01*
X63432694Y-94937091D01*
X63483097Y-94985478D01*
X63499500Y-95047113D01*
X63499500Y-95215701D01*
X63502401Y-95252567D01*
X63502402Y-95252573D01*
X63548254Y-95410393D01*
X63548255Y-95410396D01*
X63548256Y-95410398D01*
X63585681Y-95473681D01*
X63631917Y-95551862D01*
X63631923Y-95551870D01*
X63748129Y-95668076D01*
X63748133Y-95668079D01*
X63748135Y-95668081D01*
X63889602Y-95751744D01*
X63891385Y-95752262D01*
X64047426Y-95797597D01*
X64047429Y-95797597D01*
X64047431Y-95797598D01*
X64084306Y-95800500D01*
X64471636Y-95800500D01*
X64510179Y-95808165D01*
X64510365Y-95807473D01*
X64518213Y-95809575D01*
X64518215Y-95809577D01*
X64670943Y-95850501D01*
X64670946Y-95850501D01*
X64829054Y-95850501D01*
X64829057Y-95850501D01*
X64981785Y-95809577D01*
X64981786Y-95809575D01*
X64989635Y-95807473D01*
X64989820Y-95808165D01*
X65028364Y-95800500D01*
X65465686Y-95800500D01*
X65465694Y-95800500D01*
X65502569Y-95797598D01*
X65502571Y-95797597D01*
X65502573Y-95797597D01*
X65602610Y-95768533D01*
X65660398Y-95751744D01*
X65729747Y-95710731D01*
X65797468Y-95693548D01*
X65863730Y-95715707D01*
X65880547Y-95729782D01*
X65919298Y-95768533D01*
X65952783Y-95829856D01*
X65954837Y-95842330D01*
X65964630Y-95929249D01*
X66024210Y-96099521D01*
X66096888Y-96215187D01*
X66120184Y-96252262D01*
X66247738Y-96379816D01*
X66308638Y-96418082D01*
X66386111Y-96466762D01*
X66400478Y-96475789D01*
X66544556Y-96526204D01*
X66570745Y-96535368D01*
X66570750Y-96535369D01*
X66749996Y-96555565D01*
X66750000Y-96555565D01*
X66750004Y-96555565D01*
X66929249Y-96535369D01*
X66929252Y-96535368D01*
X66929255Y-96535368D01*
X67099522Y-96475789D01*
X67252262Y-96379816D01*
X67379816Y-96252262D01*
X67475789Y-96099522D01*
X67535368Y-95929255D01*
X67540838Y-95880708D01*
X67555565Y-95750003D01*
X67555565Y-95749996D01*
X67535369Y-95570750D01*
X67535368Y-95570745D01*
X67493117Y-95450000D01*
X67475789Y-95400478D01*
X67379816Y-95247738D01*
X67344759Y-95212681D01*
X67311274Y-95151358D01*
X67316258Y-95081666D01*
X67344759Y-95037319D01*
X67357941Y-95024137D01*
X67379816Y-95002262D01*
X67475789Y-94849522D01*
X67526264Y-94705270D01*
X67566984Y-94648496D01*
X67631937Y-94622748D01*
X67667498Y-94624609D01*
X67671976Y-94625499D01*
X67671979Y-94625501D01*
X67767124Y-94644427D01*
X67797653Y-94650500D01*
X67797654Y-94650500D01*
X69564071Y-94650500D01*
X69677775Y-94627882D01*
X69701967Y-94625499D01*
X69897871Y-94625499D01*
X69897872Y-94625499D01*
X69957483Y-94619091D01*
X70083124Y-94572229D01*
X70152814Y-94567246D01*
X70214137Y-94600731D01*
X70247622Y-94662054D01*
X70249746Y-94675157D01*
X70255909Y-94732483D01*
X70306202Y-94867328D01*
X70306206Y-94867335D01*
X70392452Y-94982544D01*
X70392455Y-94982547D01*
X70507664Y-95068793D01*
X70507671Y-95068797D01*
X70642517Y-95119091D01*
X70642516Y-95119091D01*
X70649444Y-95119835D01*
X70702127Y-95125500D01*
X71497872Y-95125499D01*
X71557483Y-95119091D01*
X71586367Y-95108317D01*
X71629700Y-95100500D01*
X72449903Y-95100500D01*
X72516942Y-95120185D01*
X72537584Y-95136819D01*
X74465138Y-97064373D01*
X74465148Y-97064384D01*
X74469478Y-97068714D01*
X74469479Y-97068715D01*
X74581283Y-97180519D01*
X74581285Y-97180520D01*
X74691904Y-97244385D01*
X74704208Y-97252501D01*
X74813466Y-97334292D01*
X74813469Y-97334294D01*
X74813472Y-97334296D01*
X74948318Y-97384590D01*
X74948317Y-97384590D01*
X74953359Y-97385132D01*
X75007928Y-97390999D01*
X77542073Y-97390998D01*
X77601684Y-97384590D01*
X77736532Y-97334295D01*
X77851747Y-97248045D01*
X77937997Y-97132830D01*
X77988292Y-96997982D01*
X77994701Y-96938372D01*
X77994700Y-96461627D01*
X77994699Y-96461625D01*
X77994699Y-96461611D01*
X77989500Y-96413257D01*
X77989500Y-96386745D01*
X77990154Y-96380668D01*
X77994701Y-96338374D01*
X77994700Y-96165555D01*
X78014384Y-96098517D01*
X78067188Y-96052762D01*
X78132583Y-96042336D01*
X78249996Y-96055565D01*
X78250000Y-96055565D01*
X78250004Y-96055565D01*
X78429249Y-96035369D01*
X78429252Y-96035368D01*
X78429255Y-96035368D01*
X78599522Y-95975789D01*
X78752262Y-95879816D01*
X78793619Y-95838458D01*
X78854940Y-95804974D01*
X78924631Y-95809958D01*
X78980565Y-95851828D01*
X79004983Y-95917293D01*
X79005299Y-95926140D01*
X79005299Y-96338371D01*
X79005300Y-96338375D01*
X79010500Y-96386745D01*
X79010500Y-96413251D01*
X79005299Y-96461626D01*
X79005299Y-96461628D01*
X79005299Y-96461632D01*
X79005299Y-96938369D01*
X79005300Y-96938375D01*
X79011707Y-96997982D01*
X79062001Y-97132827D01*
X79062005Y-97132834D01*
X79148251Y-97248043D01*
X79148254Y-97248046D01*
X79263463Y-97334292D01*
X79263470Y-97334296D01*
X79283686Y-97341836D01*
X79398316Y-97384590D01*
X79457926Y-97390999D01*
X79924714Y-97390998D01*
X79991753Y-97410682D01*
X80012395Y-97427317D01*
X80091536Y-97506458D01*
X80091558Y-97506478D01*
X80147051Y-97561971D01*
X80180536Y-97623294D01*
X80175552Y-97692986D01*
X80133680Y-97748919D01*
X80068216Y-97773336D01*
X80048564Y-97773180D01*
X80000128Y-97768943D01*
X80000123Y-97768943D01*
X79768991Y-97789164D01*
X79768981Y-97789166D01*
X79544880Y-97849213D01*
X79544871Y-97849217D01*
X79334591Y-97947272D01*
X79334587Y-97947274D01*
X79144530Y-98080353D01*
X78980469Y-98244414D01*
X78847390Y-98434471D01*
X78847388Y-98434475D01*
X78749333Y-98644755D01*
X78749329Y-98644764D01*
X78689282Y-98868865D01*
X78689280Y-98868875D01*
X78669059Y-99100007D01*
X78669059Y-99100008D01*
X78689280Y-99331140D01*
X78689282Y-99331150D01*
X78749329Y-99555251D01*
X78749331Y-99555255D01*
X78749332Y-99555259D01*
X78758088Y-99574036D01*
X78847387Y-99765540D01*
X78847388Y-99765541D01*
X78980469Y-99955600D01*
X79144532Y-100119663D01*
X79334591Y-100252744D01*
X79544873Y-100350800D01*
X79768987Y-100410851D01*
X79953896Y-100427028D01*
X80000123Y-100431073D01*
X80000124Y-100431073D01*
X80000125Y-100431073D01*
X80038646Y-100427702D01*
X80231261Y-100410851D01*
X80455375Y-100350800D01*
X80665657Y-100252744D01*
X80855716Y-100119663D01*
X81019779Y-99955600D01*
X81152860Y-99765541D01*
X81250916Y-99555259D01*
X81310967Y-99331145D01*
X81331189Y-99100008D01*
X81326951Y-99051568D01*
X81340717Y-98983069D01*
X81389332Y-98932886D01*
X81457361Y-98916952D01*
X81523205Y-98940327D01*
X81538160Y-98953080D01*
X81769735Y-99184655D01*
X81769764Y-99184686D01*
X81912214Y-99327136D01*
X81912218Y-99327139D01*
X82076079Y-99436628D01*
X82076092Y-99436635D01*
X82204833Y-99489961D01*
X82230277Y-99500500D01*
X82258164Y-99512051D01*
X82286071Y-99517602D01*
X82399179Y-99540100D01*
X82461089Y-99572484D01*
X82462668Y-99574036D01*
X82481344Y-99592712D01*
X82630666Y-99684814D01*
X82797203Y-99739999D01*
X82899991Y-99750500D01*
X84600008Y-99750499D01*
X84702797Y-99739999D01*
X84869334Y-99684814D01*
X85018656Y-99592712D01*
X85142712Y-99468656D01*
X85234814Y-99319334D01*
X85289999Y-99152797D01*
X85295387Y-99100054D01*
X90859511Y-99100054D01*
X90859511Y-99100055D01*
X90878927Y-99309592D01*
X90878927Y-99309594D01*
X90878928Y-99309597D01*
X90936517Y-99512002D01*
X90936518Y-99512005D01*
X91030318Y-99700380D01*
X91157137Y-99868315D01*
X91312652Y-100010085D01*
X91312654Y-100010087D01*
X91491568Y-100120866D01*
X91491574Y-100120869D01*
X91533144Y-100136973D01*
X91687800Y-100196887D01*
X91894656Y-100235555D01*
X91894658Y-100235555D01*
X92105094Y-100235555D01*
X92105096Y-100235555D01*
X92311952Y-100196887D01*
X92508180Y-100120868D01*
X92687099Y-100010086D01*
X92842616Y-99868314D01*
X92969434Y-99700380D01*
X93063235Y-99512002D01*
X93120824Y-99309597D01*
X93140241Y-99100055D01*
X93120824Y-98890513D01*
X93063235Y-98688108D01*
X92969434Y-98499730D01*
X92842616Y-98331796D01*
X92831770Y-98321909D01*
X92687099Y-98190024D01*
X92687097Y-98190022D01*
X92508183Y-98079243D01*
X92508177Y-98079240D01*
X92353524Y-98019328D01*
X92311952Y-98003223D01*
X92105096Y-97964555D01*
X91894656Y-97964555D01*
X91687800Y-98003223D01*
X91687797Y-98003223D01*
X91687797Y-98003224D01*
X91491574Y-98079240D01*
X91491568Y-98079243D01*
X91312654Y-98190022D01*
X91312652Y-98190024D01*
X91157137Y-98331794D01*
X91030318Y-98499729D01*
X90936518Y-98688104D01*
X90878927Y-98890517D01*
X90859511Y-99100054D01*
X85295387Y-99100054D01*
X85300500Y-99050009D01*
X85300499Y-98049992D01*
X85295721Y-98003223D01*
X85289999Y-97947203D01*
X85289998Y-97947200D01*
X85263971Y-97868656D01*
X85234814Y-97780666D01*
X85142712Y-97631344D01*
X85018656Y-97507288D01*
X84915496Y-97443659D01*
X84869336Y-97415187D01*
X84869331Y-97415185D01*
X84821930Y-97399478D01*
X84702797Y-97360001D01*
X84702795Y-97360000D01*
X84600010Y-97349500D01*
X82899998Y-97349500D01*
X82899980Y-97349501D01*
X82835603Y-97356078D01*
X82766910Y-97343308D01*
X82735321Y-97320401D01*
X82477775Y-97062855D01*
X82444290Y-97001532D01*
X82442167Y-96961920D01*
X82444699Y-96938372D01*
X82444698Y-96461627D01*
X82444697Y-96461625D01*
X82444697Y-96461611D01*
X82439498Y-96413257D01*
X82439498Y-96386745D01*
X82440152Y-96380668D01*
X82444699Y-96338374D01*
X82444698Y-95861629D01*
X82442207Y-95838460D01*
X82439498Y-95813255D01*
X82439498Y-95786744D01*
X82443206Y-95752262D01*
X82444699Y-95738372D01*
X82444698Y-95261627D01*
X82444697Y-95261625D01*
X82444697Y-95261611D01*
X82440891Y-95226215D01*
X82439498Y-95213253D01*
X82439498Y-95186745D01*
X82440304Y-95179255D01*
X82444699Y-95138374D01*
X82444698Y-94661629D01*
X82440814Y-94625498D01*
X82439498Y-94613255D01*
X82439498Y-94586744D01*
X82440559Y-94576881D01*
X82444699Y-94538372D01*
X82444698Y-94061627D01*
X82439498Y-94013253D01*
X82439498Y-93986747D01*
X82444699Y-93938373D01*
X82444698Y-93461628D01*
X82439497Y-93413245D01*
X82439498Y-93386742D01*
X82440501Y-93377419D01*
X82444699Y-93338372D01*
X82444698Y-92861627D01*
X82439498Y-92813249D01*
X82439498Y-92786747D01*
X82444699Y-92738373D01*
X82444698Y-92261628D01*
X82439497Y-92213245D01*
X82439498Y-92186742D01*
X82440304Y-92179254D01*
X82444699Y-92138372D01*
X82444698Y-91661627D01*
X82439498Y-91613253D01*
X82439498Y-91586747D01*
X82444699Y-91538373D01*
X82444698Y-91061628D01*
X82439497Y-91013245D01*
X82439498Y-90986742D01*
X82443191Y-90952402D01*
X82444699Y-90938372D01*
X82444698Y-90461627D01*
X82443248Y-90448135D01*
X82439498Y-90413253D01*
X82439498Y-90386747D01*
X82444699Y-90338373D01*
X82444698Y-89861628D01*
X82439497Y-89813245D01*
X82439498Y-89786742D01*
X82440846Y-89774211D01*
X82444699Y-89738372D01*
X82444698Y-89261627D01*
X82439498Y-89213253D01*
X82439498Y-89186747D01*
X82444699Y-89138373D01*
X82444698Y-88661628D01*
X82439497Y-88613245D01*
X82439498Y-88586742D01*
X82442374Y-88560001D01*
X82444699Y-88538372D01*
X82444698Y-88061627D01*
X82439498Y-88013253D01*
X82439498Y-87999996D01*
X92444435Y-87999996D01*
X92444435Y-88000003D01*
X92464630Y-88179249D01*
X92464631Y-88179254D01*
X92524211Y-88349523D01*
X92620184Y-88502262D01*
X92717610Y-88599688D01*
X92751095Y-88661011D01*
X92746971Y-88728323D01*
X92714632Y-88820742D01*
X92714630Y-88820750D01*
X92694435Y-88999996D01*
X92694435Y-89000003D01*
X92714630Y-89179249D01*
X92714631Y-89179254D01*
X92774211Y-89349523D01*
X92870184Y-89502262D01*
X92997738Y-89629816D01*
X93088080Y-89686582D01*
X93132721Y-89714632D01*
X93150478Y-89725789D01*
X93288860Y-89774211D01*
X93320745Y-89785368D01*
X93320750Y-89785369D01*
X93499996Y-89805565D01*
X93500000Y-89805565D01*
X93500004Y-89805565D01*
X93679249Y-89785369D01*
X93679252Y-89785368D01*
X93679255Y-89785368D01*
X93849522Y-89725789D01*
X94002262Y-89629816D01*
X94129816Y-89502262D01*
X94225789Y-89349522D01*
X94285368Y-89179255D01*
X94294577Y-89097513D01*
X94321642Y-89033103D01*
X94379236Y-88993547D01*
X94431050Y-88988110D01*
X94457926Y-88991000D01*
X96992071Y-88990999D01*
X97051682Y-88984591D01*
X97182167Y-88935922D01*
X97251858Y-88930939D01*
X97313181Y-88964424D01*
X97346666Y-89025747D01*
X97349500Y-89052105D01*
X97349500Y-91060388D01*
X97349499Y-91060406D01*
X97349499Y-91226112D01*
X97349498Y-91226112D01*
X97358146Y-91258386D01*
X97390423Y-91378843D01*
X97416226Y-91423535D01*
X97469477Y-91515770D01*
X97469481Y-91515775D01*
X97588349Y-91634643D01*
X97588355Y-91634648D01*
X99568081Y-93614374D01*
X99568091Y-93614385D01*
X99572421Y-93618715D01*
X99572422Y-93618716D01*
X99684226Y-93730520D01*
X99749518Y-93768216D01*
X99821157Y-93809577D01*
X99973885Y-93850500D01*
X99980336Y-93850500D01*
X100047375Y-93870185D01*
X100093130Y-93922989D01*
X100103626Y-93961249D01*
X100106367Y-93986752D01*
X100106367Y-94013257D01*
X100105909Y-94017516D01*
X100105909Y-94017517D01*
X100099500Y-94077127D01*
X100099500Y-94077132D01*
X100099500Y-94089898D01*
X100079815Y-94156937D01*
X100078605Y-94158785D01*
X100068864Y-94173363D01*
X100064929Y-94179255D01*
X100064086Y-94180516D01*
X100064083Y-94180520D01*
X100001988Y-94273449D01*
X99974247Y-94340424D01*
X99934105Y-94437333D01*
X99931956Y-94448136D01*
X99901650Y-94600500D01*
X99899500Y-94611309D01*
X99899500Y-94611310D01*
X99899500Y-95614867D01*
X99881040Y-95679961D01*
X99865187Y-95705663D01*
X99865186Y-95705665D01*
X99844354Y-95768533D01*
X99810001Y-95872203D01*
X99810001Y-95872204D01*
X99810000Y-95872204D01*
X99799500Y-95974983D01*
X99799500Y-97025001D01*
X99799501Y-97025019D01*
X99810000Y-97127796D01*
X99810001Y-97127799D01*
X99851326Y-97252507D01*
X99865186Y-97294334D01*
X99881039Y-97320036D01*
X99899500Y-97385132D01*
X99899500Y-97638695D01*
X99934103Y-97812658D01*
X99934106Y-97812667D01*
X100001983Y-97976540D01*
X100001990Y-97976553D01*
X100100535Y-98124034D01*
X100100538Y-98124038D01*
X100225961Y-98249461D01*
X100225965Y-98249464D01*
X100373446Y-98348009D01*
X100373459Y-98348016D01*
X100474815Y-98389998D01*
X100537334Y-98415894D01*
X100537336Y-98415894D01*
X100537341Y-98415896D01*
X100711304Y-98450499D01*
X100711307Y-98450500D01*
X100711309Y-98450500D01*
X100888693Y-98450500D01*
X100888694Y-98450499D01*
X100969274Y-98434471D01*
X101062658Y-98415896D01*
X101062661Y-98415894D01*
X101062666Y-98415894D01*
X101226547Y-98348013D01*
X101374035Y-98249464D01*
X101499464Y-98124035D01*
X101598013Y-97976547D01*
X101665894Y-97812666D01*
X101667858Y-97802796D01*
X101700499Y-97638695D01*
X101700500Y-97638693D01*
X101700500Y-97464574D01*
X101720185Y-97397535D01*
X101772989Y-97351780D01*
X101842147Y-97341836D01*
X101905703Y-97370861D01*
X101930039Y-97399478D01*
X101959331Y-97446969D01*
X101977771Y-97514362D01*
X101970834Y-97553017D01*
X101964632Y-97570741D01*
X101964631Y-97570746D01*
X101944435Y-97749996D01*
X101944435Y-97750003D01*
X101964630Y-97929249D01*
X101964631Y-97929254D01*
X102024211Y-98099523D01*
X102081076Y-98190022D01*
X102120184Y-98252262D01*
X102247738Y-98379816D01*
X102400478Y-98475789D01*
X102565715Y-98533608D01*
X102570745Y-98535368D01*
X102570750Y-98535369D01*
X102749996Y-98555565D01*
X102750000Y-98555565D01*
X102750004Y-98555565D01*
X102929249Y-98535369D01*
X102929252Y-98535368D01*
X102929255Y-98535368D01*
X103099522Y-98475789D01*
X103252262Y-98379816D01*
X103379816Y-98252262D01*
X103475789Y-98099522D01*
X103535368Y-97929255D01*
X103544386Y-97849216D01*
X103555565Y-97750003D01*
X103555565Y-97749997D01*
X103544300Y-97650019D01*
X103540054Y-97612337D01*
X103552108Y-97543517D01*
X103575594Y-97510773D01*
X103604329Y-97482039D01*
X103642712Y-97443656D01*
X103734814Y-97294334D01*
X103789999Y-97127797D01*
X103800500Y-97025009D01*
X103800499Y-95974992D01*
X103799999Y-95970101D01*
X103789999Y-95872203D01*
X103789998Y-95872200D01*
X103778818Y-95838460D01*
X103734814Y-95705666D01*
X103642712Y-95556344D01*
X103518656Y-95432288D01*
X103369334Y-95340186D01*
X103285495Y-95312404D01*
X103228051Y-95272632D01*
X103201228Y-95208116D01*
X103200500Y-95194699D01*
X103200500Y-95008109D01*
X103220185Y-94941070D01*
X103272989Y-94895315D01*
X103342147Y-94885371D01*
X103405703Y-94914396D01*
X103412181Y-94920428D01*
X103997024Y-95505272D01*
X103997027Y-95505275D01*
X104078298Y-95559578D01*
X104078297Y-95559578D01*
X104095011Y-95570745D01*
X104103572Y-95576465D01*
X104221955Y-95625501D01*
X104221959Y-95625501D01*
X104221960Y-95625502D01*
X104347627Y-95650500D01*
X104347630Y-95650500D01*
X104744932Y-95650500D01*
X104810904Y-95669506D01*
X104900477Y-95725789D01*
X104900481Y-95725790D01*
X105070737Y-95785366D01*
X105070743Y-95785367D01*
X105070745Y-95785368D01*
X105070746Y-95785368D01*
X105070750Y-95785369D01*
X105249996Y-95805565D01*
X105250000Y-95805565D01*
X105250004Y-95805565D01*
X105429249Y-95785369D01*
X105429252Y-95785368D01*
X105429255Y-95785368D01*
X105599522Y-95725789D01*
X105752262Y-95629816D01*
X105752262Y-95629815D01*
X105758158Y-95626111D01*
X105759840Y-95628788D01*
X105811539Y-95607589D01*
X105880254Y-95620239D01*
X105912036Y-95643244D01*
X106113181Y-95844389D01*
X106146666Y-95905712D01*
X106149500Y-95932070D01*
X106149500Y-95965701D01*
X106152401Y-96002567D01*
X106152402Y-96002573D01*
X106198254Y-96160393D01*
X106198255Y-96160396D01*
X106198256Y-96160398D01*
X106209407Y-96179254D01*
X106281917Y-96301862D01*
X106281923Y-96301870D01*
X106398129Y-96418076D01*
X106398133Y-96418079D01*
X106398135Y-96418081D01*
X106539602Y-96501744D01*
X106541385Y-96502262D01*
X106697426Y-96547597D01*
X106697429Y-96547597D01*
X106697431Y-96547598D01*
X106734306Y-96550500D01*
X106734314Y-96550500D01*
X108115686Y-96550500D01*
X108115694Y-96550500D01*
X108152569Y-96547598D01*
X108152571Y-96547597D01*
X108152573Y-96547597D01*
X108310392Y-96501746D01*
X108310392Y-96501745D01*
X108310398Y-96501744D01*
X108369551Y-96466760D01*
X108437271Y-96449579D01*
X108503534Y-96471738D01*
X108547297Y-96526204D01*
X108556027Y-96586096D01*
X108549500Y-96649981D01*
X108549500Y-97450001D01*
X108549501Y-97450019D01*
X108560000Y-97552796D01*
X108560001Y-97552799D01*
X108615185Y-97719331D01*
X108615187Y-97719336D01*
X108650069Y-97775888D01*
X108707288Y-97868656D01*
X108831344Y-97992712D01*
X108980666Y-98084814D01*
X109147203Y-98139999D01*
X109249991Y-98150500D01*
X110650008Y-98150499D01*
X110752797Y-98139999D01*
X110919334Y-98084814D01*
X111068656Y-97992712D01*
X111192712Y-97868656D01*
X111284814Y-97719334D01*
X111339999Y-97552797D01*
X111350500Y-97450009D01*
X111350499Y-96649992D01*
X111343417Y-96580668D01*
X111339999Y-96547203D01*
X111339998Y-96547200D01*
X111324936Y-96501746D01*
X111284814Y-96380666D01*
X111192712Y-96231344D01*
X111068656Y-96107288D01*
X110975888Y-96050069D01*
X110919336Y-96015187D01*
X110919331Y-96015185D01*
X110917862Y-96014698D01*
X110752797Y-95960001D01*
X110752795Y-95960000D01*
X110650016Y-95949500D01*
X110650009Y-95949500D01*
X109921843Y-95949500D01*
X109854804Y-95929815D01*
X109809049Y-95877011D01*
X109798623Y-95811617D01*
X109805565Y-95750003D01*
X109805565Y-95749996D01*
X109785369Y-95570750D01*
X109785368Y-95570745D01*
X109743117Y-95450000D01*
X109725789Y-95400478D01*
X109629816Y-95247738D01*
X109629814Y-95247736D01*
X109629813Y-95247734D01*
X109627550Y-95244896D01*
X109626659Y-95242715D01*
X109626111Y-95241842D01*
X109626264Y-95241745D01*
X109601144Y-95180209D01*
X109600500Y-95167587D01*
X109600500Y-94470945D01*
X109600499Y-94470939D01*
X109597083Y-94458192D01*
X109594389Y-94448135D01*
X109559577Y-94318216D01*
X109510115Y-94232546D01*
X109480520Y-94181285D01*
X109368716Y-94069481D01*
X109368715Y-94069480D01*
X109364385Y-94065150D01*
X109364374Y-94065140D01*
X108687589Y-93388355D01*
X108687587Y-93388352D01*
X108678316Y-93379081D01*
X108655953Y-93346175D01*
X108655715Y-93346317D01*
X108653473Y-93342525D01*
X108652194Y-93340644D01*
X108651745Y-93339607D01*
X108651744Y-93339602D01*
X108636082Y-93313120D01*
X108618900Y-93245397D01*
X108636084Y-93186878D01*
X108651742Y-93160401D01*
X108651744Y-93160398D01*
X108697598Y-93002569D01*
X108700500Y-92965694D01*
X108700500Y-92534306D01*
X108697598Y-92497431D01*
X108681035Y-92440423D01*
X108651745Y-92339606D01*
X108651744Y-92339602D01*
X108636084Y-92313122D01*
X108618900Y-92245399D01*
X108636084Y-92186878D01*
X108651742Y-92160401D01*
X108651744Y-92160398D01*
X108697598Y-92002569D01*
X108700500Y-91965694D01*
X108700500Y-91534306D01*
X108697598Y-91497431D01*
X108691008Y-91474749D01*
X108651745Y-91339606D01*
X108651744Y-91339603D01*
X108651744Y-91339602D01*
X108568081Y-91198135D01*
X108568079Y-91198133D01*
X108568076Y-91198129D01*
X108451870Y-91081923D01*
X108451862Y-91081917D01*
X108354286Y-91024211D01*
X108310398Y-90998256D01*
X108310397Y-90998255D01*
X108310396Y-90998255D01*
X108310393Y-90998254D01*
X108152573Y-90952402D01*
X108152567Y-90952401D01*
X108115701Y-90949500D01*
X108115694Y-90949500D01*
X106850097Y-90949500D01*
X106783058Y-90929815D01*
X106762416Y-90913181D01*
X106330700Y-90481465D01*
X106297215Y-90420142D01*
X106295163Y-90407686D01*
X106285368Y-90320745D01*
X106225789Y-90150478D01*
X106129816Y-89997738D01*
X106002262Y-89870184D01*
X105970141Y-89850001D01*
X105849523Y-89774211D01*
X105679254Y-89714631D01*
X105679249Y-89714630D01*
X105500004Y-89694435D01*
X105499996Y-89694435D01*
X105320750Y-89714630D01*
X105320745Y-89714631D01*
X105150476Y-89774211D01*
X104997737Y-89870184D01*
X104870184Y-89997737D01*
X104774211Y-90150476D01*
X104714631Y-90320745D01*
X104714630Y-90320750D01*
X104694435Y-90499996D01*
X104694435Y-90500003D01*
X104714630Y-90679249D01*
X104714632Y-90679257D01*
X104773953Y-90848787D01*
X104777514Y-90918566D01*
X104761907Y-90955709D01*
X104749947Y-90974744D01*
X104690370Y-91145003D01*
X104690367Y-91145016D01*
X104670172Y-91324262D01*
X104670172Y-91324269D01*
X104685647Y-91461617D01*
X104673592Y-91530439D01*
X104626243Y-91581818D01*
X104562427Y-91599500D01*
X102485929Y-91599500D01*
X102372227Y-91622117D01*
X102348036Y-91624500D01*
X102152130Y-91624500D01*
X102152123Y-91624501D01*
X102092515Y-91630909D01*
X101966875Y-91677769D01*
X101897184Y-91682753D01*
X101835861Y-91649267D01*
X101802377Y-91587944D01*
X101800253Y-91574840D01*
X101794091Y-91517516D01*
X101743797Y-91382671D01*
X101743793Y-91382664D01*
X101657547Y-91267455D01*
X101657544Y-91267452D01*
X101542335Y-91181206D01*
X101542328Y-91181202D01*
X101407482Y-91130908D01*
X101407483Y-91130908D01*
X101347883Y-91124501D01*
X101347881Y-91124500D01*
X101347873Y-91124500D01*
X101347864Y-91124500D01*
X100552129Y-91124500D01*
X100552120Y-91124501D01*
X100540329Y-91125769D01*
X100471570Y-91113362D01*
X100439396Y-91090160D01*
X99886819Y-90537583D01*
X99853334Y-90476260D01*
X99850500Y-90449902D01*
X99850500Y-89049983D01*
X108549500Y-89049983D01*
X108549500Y-89850001D01*
X108549501Y-89850019D01*
X108560000Y-89952796D01*
X108560001Y-89952799D01*
X108592214Y-90050009D01*
X108615186Y-90119334D01*
X108707288Y-90268656D01*
X108831344Y-90392712D01*
X108980666Y-90484814D01*
X109147203Y-90539999D01*
X109249991Y-90550500D01*
X110650008Y-90550499D01*
X110752797Y-90539999D01*
X110919334Y-90484814D01*
X111068656Y-90392712D01*
X111192712Y-90268656D01*
X111284814Y-90119334D01*
X111339999Y-89952797D01*
X111350500Y-89850009D01*
X111350499Y-89249983D01*
X117849500Y-89249983D01*
X117849500Y-90050001D01*
X117849501Y-90050019D01*
X117860000Y-90152796D01*
X117860001Y-90152799D01*
X117915185Y-90319331D01*
X117915187Y-90319336D01*
X117924158Y-90333880D01*
X118007288Y-90468656D01*
X118131344Y-90592712D01*
X118280666Y-90684814D01*
X118447203Y-90739999D01*
X118549991Y-90750500D01*
X119950008Y-90750499D01*
X120052797Y-90739999D01*
X120219334Y-90684814D01*
X120368656Y-90592712D01*
X120492712Y-90468656D01*
X120584814Y-90319334D01*
X120639999Y-90152797D01*
X120650500Y-90050009D01*
X120650499Y-89249992D01*
X120639999Y-89147203D01*
X120584814Y-88980666D01*
X120492712Y-88831344D01*
X120368656Y-88707288D01*
X120256453Y-88638081D01*
X120219336Y-88615187D01*
X120219331Y-88615185D01*
X120203684Y-88610000D01*
X120052797Y-88560001D01*
X120052795Y-88560000D01*
X119950010Y-88549500D01*
X118549998Y-88549500D01*
X118549981Y-88549501D01*
X118447203Y-88560000D01*
X118447200Y-88560001D01*
X118280668Y-88615185D01*
X118280663Y-88615187D01*
X118131342Y-88707289D01*
X118007289Y-88831342D01*
X117915187Y-88980663D01*
X117915185Y-88980668D01*
X117898617Y-89030668D01*
X117860001Y-89147203D01*
X117860001Y-89147204D01*
X117860000Y-89147204D01*
X117849500Y-89249983D01*
X111350499Y-89249983D01*
X111350499Y-89049992D01*
X111348022Y-89025747D01*
X111339999Y-88947203D01*
X111339998Y-88947200D01*
X111318175Y-88881342D01*
X111284814Y-88780666D01*
X111192712Y-88631344D01*
X111068656Y-88507288D01*
X110919334Y-88415186D01*
X110752797Y-88360001D01*
X110752795Y-88360000D01*
X110650010Y-88349500D01*
X109249998Y-88349500D01*
X109249981Y-88349501D01*
X109147203Y-88360000D01*
X109147200Y-88360001D01*
X108980668Y-88415185D01*
X108980663Y-88415187D01*
X108831342Y-88507289D01*
X108707289Y-88631342D01*
X108615187Y-88780663D01*
X108615185Y-88780668D01*
X108598393Y-88831344D01*
X108560001Y-88947203D01*
X108560001Y-88947204D01*
X108560000Y-88947204D01*
X108549500Y-89049983D01*
X99850500Y-89049983D01*
X99850500Y-87371685D01*
X99870185Y-87304646D01*
X99922989Y-87258891D01*
X99992147Y-87248947D01*
X100013497Y-87253977D01*
X100122203Y-87289999D01*
X100224991Y-87300500D01*
X101275008Y-87300499D01*
X101275016Y-87300498D01*
X101275019Y-87300498D01*
X101335428Y-87294327D01*
X101377797Y-87289999D01*
X101544334Y-87234814D01*
X101619372Y-87188529D01*
X101686762Y-87170090D01*
X101753425Y-87191012D01*
X101798195Y-87244654D01*
X101802172Y-87255063D01*
X101815183Y-87294327D01*
X101815189Y-87294340D01*
X101865215Y-87375445D01*
X101883655Y-87442837D01*
X101864670Y-87506513D01*
X101774211Y-87650476D01*
X101714631Y-87820745D01*
X101714630Y-87820750D01*
X101694435Y-87999996D01*
X101694435Y-88000003D01*
X101714630Y-88179249D01*
X101714631Y-88179254D01*
X101774211Y-88349523D01*
X101870184Y-88502262D01*
X101997738Y-88629816D01*
X102150478Y-88725789D01*
X102307313Y-88780668D01*
X102320745Y-88785368D01*
X102320750Y-88785369D01*
X102499996Y-88805565D01*
X102500000Y-88805565D01*
X102500004Y-88805565D01*
X102679249Y-88785369D01*
X102679252Y-88785368D01*
X102679255Y-88785368D01*
X102849522Y-88725789D01*
X103002262Y-88629816D01*
X103129816Y-88502262D01*
X103225789Y-88349522D01*
X103285368Y-88179255D01*
X103290073Y-88137486D01*
X103310190Y-88082482D01*
X103326465Y-88058127D01*
X103375501Y-87939744D01*
X103379241Y-87920943D01*
X103400500Y-87814069D01*
X103400500Y-87678957D01*
X103420185Y-87611918D01*
X103459407Y-87573416D01*
X103468656Y-87567712D01*
X103592712Y-87443656D01*
X103684814Y-87294334D01*
X103739999Y-87127797D01*
X103750500Y-87025009D01*
X103750499Y-85974992D01*
X103745719Y-85928199D01*
X103758489Y-85859507D01*
X103806369Y-85808623D01*
X103874159Y-85791702D01*
X103882961Y-85792378D01*
X103999997Y-85805565D01*
X104000000Y-85805565D01*
X104000004Y-85805565D01*
X104179249Y-85785369D01*
X104179251Y-85785368D01*
X104179255Y-85785368D01*
X104179258Y-85785366D01*
X104179262Y-85785366D01*
X104356095Y-85723489D01*
X104356846Y-85725637D01*
X104415128Y-85716035D01*
X104443592Y-85724391D01*
X104443908Y-85723489D01*
X104620748Y-85785368D01*
X104620753Y-85785369D01*
X104799999Y-85805565D01*
X104800003Y-85805565D01*
X104800007Y-85805565D01*
X104979252Y-85785369D01*
X104979255Y-85785368D01*
X104979258Y-85785368D01*
X105149525Y-85725789D01*
X105302265Y-85629816D01*
X105429819Y-85502262D01*
X105525792Y-85349522D01*
X105565279Y-85236675D01*
X105606001Y-85179898D01*
X105670954Y-85154151D01*
X105739515Y-85167607D01*
X105770002Y-85189948D01*
X106085325Y-85505272D01*
X106085332Y-85505278D01*
X106191863Y-85576459D01*
X106191867Y-85576461D01*
X106191874Y-85576466D01*
X106249898Y-85600500D01*
X106249899Y-85600500D01*
X106249900Y-85600501D01*
X106280684Y-85613252D01*
X106310256Y-85625501D01*
X106329908Y-85629410D01*
X106391818Y-85661792D01*
X106393350Y-85663296D01*
X106398135Y-85668081D01*
X106539602Y-85751744D01*
X106545037Y-85753323D01*
X106697426Y-85797597D01*
X106697429Y-85797597D01*
X106697431Y-85797598D01*
X106734306Y-85800500D01*
X106734314Y-85800500D01*
X108115686Y-85800500D01*
X108115694Y-85800500D01*
X108152569Y-85797598D01*
X108152571Y-85797597D01*
X108152573Y-85797597D01*
X108310392Y-85751746D01*
X108310392Y-85751745D01*
X108310398Y-85751744D01*
X108369551Y-85716760D01*
X108437271Y-85699579D01*
X108503534Y-85721738D01*
X108547297Y-85776204D01*
X108556027Y-85836096D01*
X108549500Y-85899981D01*
X108549500Y-86700001D01*
X108549501Y-86700019D01*
X108560000Y-86802796D01*
X108560001Y-86802799D01*
X108615185Y-86969331D01*
X108615187Y-86969336D01*
X108643605Y-87015409D01*
X108707288Y-87118656D01*
X108831344Y-87242712D01*
X108980666Y-87334814D01*
X109147203Y-87389999D01*
X109249991Y-87400500D01*
X110650008Y-87400499D01*
X110752797Y-87389999D01*
X110919334Y-87334814D01*
X111068656Y-87242712D01*
X111192712Y-87118656D01*
X111284814Y-86969334D01*
X111339999Y-86802797D01*
X111350500Y-86700009D01*
X111350499Y-85899992D01*
X111347844Y-85874005D01*
X111339999Y-85797203D01*
X111339998Y-85797200D01*
X111333041Y-85776204D01*
X111284814Y-85630666D01*
X111192712Y-85481344D01*
X111068656Y-85357288D01*
X110969987Y-85296429D01*
X110919336Y-85265187D01*
X110919331Y-85265185D01*
X110881258Y-85252569D01*
X110752797Y-85210001D01*
X110752795Y-85210000D01*
X110650010Y-85199500D01*
X109249998Y-85199500D01*
X109249981Y-85199501D01*
X109147203Y-85210000D01*
X109147200Y-85210001D01*
X108980668Y-85265185D01*
X108980659Y-85265190D01*
X108889596Y-85321357D01*
X108822203Y-85339797D01*
X108755540Y-85318874D01*
X108710771Y-85265231D01*
X108700500Y-85215818D01*
X108700500Y-84784313D01*
X108700499Y-84784298D01*
X108699687Y-84773985D01*
X108697598Y-84747431D01*
X108694972Y-84738393D01*
X108651745Y-84589606D01*
X108651744Y-84589602D01*
X108636084Y-84563122D01*
X108618900Y-84495399D01*
X108636084Y-84436878D01*
X108651742Y-84410401D01*
X108651744Y-84410398D01*
X108697598Y-84252569D01*
X108700500Y-84215694D01*
X108700500Y-83784306D01*
X108697598Y-83747431D01*
X108694961Y-83738356D01*
X108651745Y-83589606D01*
X108651744Y-83589602D01*
X108647895Y-83583094D01*
X108630711Y-83515371D01*
X108652870Y-83449108D01*
X108666934Y-83432301D01*
X108730520Y-83368716D01*
X108730521Y-83368713D01*
X109018535Y-83080698D01*
X109079856Y-83047215D01*
X109092311Y-83045163D01*
X109179255Y-83035368D01*
X109349522Y-82975789D01*
X109502262Y-82879816D01*
X109629816Y-82752262D01*
X109725789Y-82599522D01*
X109785368Y-82429255D01*
X109785369Y-82429249D01*
X109805565Y-82250003D01*
X109805565Y-82249996D01*
X109785369Y-82070750D01*
X109785368Y-82070745D01*
X109760613Y-82000000D01*
X109725789Y-81900478D01*
X109629816Y-81747738D01*
X109502262Y-81620184D01*
X109469344Y-81599500D01*
X109349523Y-81524211D01*
X109179254Y-81464631D01*
X109179249Y-81464630D01*
X109000004Y-81444435D01*
X108999996Y-81444435D01*
X108814595Y-81465324D01*
X108745773Y-81453269D01*
X108694394Y-81405920D01*
X108676770Y-81338310D01*
X108681635Y-81307512D01*
X108697598Y-81252569D01*
X108700500Y-81215694D01*
X108700500Y-80784306D01*
X108697598Y-80747431D01*
X108694966Y-80738373D01*
X108660629Y-80620184D01*
X108651744Y-80589602D01*
X108568081Y-80448135D01*
X108568079Y-80448133D01*
X108568076Y-80448129D01*
X108451870Y-80331923D01*
X108451862Y-80331917D01*
X108344986Y-80268711D01*
X108310398Y-80248256D01*
X108310397Y-80248255D01*
X108310396Y-80248255D01*
X108310393Y-80248254D01*
X108152573Y-80202402D01*
X108152567Y-80202401D01*
X108115701Y-80199500D01*
X108115694Y-80199500D01*
X106734306Y-80199500D01*
X106734298Y-80199500D01*
X106697432Y-80202401D01*
X106697426Y-80202402D01*
X106539606Y-80248254D01*
X106539603Y-80248255D01*
X106398137Y-80331917D01*
X106398129Y-80331923D01*
X106366874Y-80363180D01*
X106305552Y-80396666D01*
X106279192Y-80399500D01*
X105920941Y-80399500D01*
X105885495Y-80408998D01*
X105764569Y-80441399D01*
X105746360Y-80444844D01*
X105570749Y-80464630D01*
X105570745Y-80464631D01*
X105400476Y-80524211D01*
X105247737Y-80620184D01*
X105120184Y-80747737D01*
X105024211Y-80900476D01*
X104964631Y-81070745D01*
X104964630Y-81070750D01*
X104944435Y-81249996D01*
X104944435Y-81250002D01*
X104948712Y-81287964D01*
X104936657Y-81356786D01*
X104891464Y-81406841D01*
X104769121Y-81483714D01*
X104683502Y-81569333D01*
X104622178Y-81602817D01*
X104571633Y-81603269D01*
X104552682Y-81599500D01*
X104552681Y-81599500D01*
X102435931Y-81599500D01*
X102435929Y-81599500D01*
X102322227Y-81622117D01*
X102298036Y-81624500D01*
X102102130Y-81624500D01*
X102102123Y-81624501D01*
X102042515Y-81630909D01*
X101916875Y-81677769D01*
X101847184Y-81682753D01*
X101785861Y-81649267D01*
X101752377Y-81587944D01*
X101750253Y-81574840D01*
X101744091Y-81517516D01*
X101693797Y-81382671D01*
X101693793Y-81382664D01*
X101607547Y-81267455D01*
X101607544Y-81267452D01*
X101492335Y-81181206D01*
X101492328Y-81181202D01*
X101357482Y-81130908D01*
X101357483Y-81130908D01*
X101297883Y-81124501D01*
X101297881Y-81124500D01*
X101297873Y-81124500D01*
X101297864Y-81124500D01*
X100502129Y-81124500D01*
X100502123Y-81124501D01*
X100442518Y-81130908D01*
X100423547Y-81137984D01*
X100413632Y-81141682D01*
X100370300Y-81149500D01*
X100300097Y-81149500D01*
X100233058Y-81129815D01*
X100212416Y-81113181D01*
X98037591Y-78938356D01*
X98037589Y-78938353D01*
X97918718Y-78819482D01*
X97918717Y-78819481D01*
X97824598Y-78765142D01*
X97824597Y-78765141D01*
X97781784Y-78740423D01*
X97725882Y-78725444D01*
X97629058Y-78699500D01*
X97470944Y-78699500D01*
X97463348Y-78699500D01*
X97463332Y-78699501D01*
X97272948Y-78699501D01*
X97205909Y-78679816D01*
X97198638Y-78674769D01*
X97186529Y-78665704D01*
X97186527Y-78665703D01*
X97051681Y-78615409D01*
X97051682Y-78615409D01*
X96992082Y-78609002D01*
X96992080Y-78609001D01*
X96992072Y-78609001D01*
X96992063Y-78609001D01*
X94457928Y-78609001D01*
X94457922Y-78609002D01*
X94398315Y-78615409D01*
X94263470Y-78665703D01*
X94263463Y-78665707D01*
X94148254Y-78751953D01*
X94148251Y-78751956D01*
X94062005Y-78867165D01*
X94062001Y-78867172D01*
X94011710Y-79002012D01*
X94011708Y-79002018D01*
X94005299Y-79061628D01*
X94005299Y-79061634D01*
X94005299Y-79061636D01*
X94005299Y-79538371D01*
X94005300Y-79538375D01*
X94006228Y-79547003D01*
X94010499Y-79586741D01*
X94010500Y-79586744D01*
X94010500Y-79613248D01*
X94005299Y-79661626D01*
X94005299Y-79661627D01*
X94005299Y-79661631D01*
X94005299Y-79834443D01*
X93985614Y-79901482D01*
X93932810Y-79947237D01*
X93867417Y-79957663D01*
X93750005Y-79944435D01*
X93749996Y-79944435D01*
X93570750Y-79964630D01*
X93570745Y-79964631D01*
X93400476Y-80024211D01*
X93247737Y-80120184D01*
X93120184Y-80247737D01*
X93024211Y-80400476D01*
X92964631Y-80570745D01*
X92964630Y-80570750D01*
X92944435Y-80749996D01*
X92944435Y-80750003D01*
X92964630Y-80929249D01*
X92964631Y-80929254D01*
X93024211Y-81099523D01*
X93072674Y-81176651D01*
X93091674Y-81243888D01*
X93071306Y-81310723D01*
X93033654Y-81347616D01*
X92997736Y-81370185D01*
X92870184Y-81497737D01*
X92774211Y-81650476D01*
X92714631Y-81820745D01*
X92714630Y-81820750D01*
X92694435Y-81999996D01*
X92694435Y-82000003D01*
X92714630Y-82179249D01*
X92714631Y-82179254D01*
X92774211Y-82349523D01*
X92870184Y-82502262D01*
X92905241Y-82537319D01*
X92938726Y-82598642D01*
X92933742Y-82668334D01*
X92905241Y-82712681D01*
X92870184Y-82747737D01*
X92774211Y-82900476D01*
X92714631Y-83070745D01*
X92714630Y-83070750D01*
X92694435Y-83249996D01*
X92694435Y-83250003D01*
X92714630Y-83429249D01*
X92714631Y-83429254D01*
X92774211Y-83599523D01*
X92859959Y-83735989D01*
X92878959Y-83803226D01*
X92859961Y-83867930D01*
X92839509Y-83900481D01*
X92779933Y-84070737D01*
X92779930Y-84070750D01*
X92759735Y-84249996D01*
X92759735Y-84250003D01*
X92779930Y-84429249D01*
X92779931Y-84429254D01*
X92839511Y-84599523D01*
X92932445Y-84747426D01*
X92935484Y-84752262D01*
X93063038Y-84879816D01*
X93063040Y-84879817D01*
X93063832Y-84880449D01*
X93064211Y-84880989D01*
X93067962Y-84884740D01*
X93067304Y-84885397D01*
X93103972Y-84937638D01*
X93106821Y-85007450D01*
X93091512Y-85043366D01*
X93024212Y-85150474D01*
X92964631Y-85320745D01*
X92964630Y-85320750D01*
X92944435Y-85499996D01*
X92944435Y-85500003D01*
X92964630Y-85679249D01*
X92964631Y-85679254D01*
X93024211Y-85849523D01*
X93072674Y-85926651D01*
X93091674Y-85993888D01*
X93071306Y-86060723D01*
X93033654Y-86097616D01*
X92997736Y-86120185D01*
X92870184Y-86247737D01*
X92774211Y-86400476D01*
X92714631Y-86570745D01*
X92714630Y-86570750D01*
X92694435Y-86749996D01*
X92694435Y-86750003D01*
X92714630Y-86929249D01*
X92714631Y-86929254D01*
X92774211Y-87099523D01*
X92822674Y-87176651D01*
X92841674Y-87243888D01*
X92821306Y-87310723D01*
X92783654Y-87347616D01*
X92747736Y-87370185D01*
X92620184Y-87497737D01*
X92524211Y-87650476D01*
X92464631Y-87820745D01*
X92464630Y-87820750D01*
X92444435Y-87999996D01*
X82439498Y-87999996D01*
X82439498Y-87986747D01*
X82444699Y-87938373D01*
X82444698Y-87461628D01*
X82439498Y-87413254D01*
X82439498Y-87386743D01*
X82441279Y-87370185D01*
X82444699Y-87338371D01*
X82444698Y-86861626D01*
X82444697Y-86861624D01*
X82444697Y-86861610D01*
X82439498Y-86813256D01*
X82439498Y-86786744D01*
X82443449Y-86750003D01*
X82444699Y-86738373D01*
X82444698Y-86261628D01*
X82439498Y-86213254D01*
X82439498Y-86186743D01*
X82444698Y-86138378D01*
X82444699Y-86138371D01*
X82444698Y-85661626D01*
X82441235Y-85629409D01*
X82439498Y-85613252D01*
X82439498Y-85586746D01*
X82444699Y-85538372D01*
X82444698Y-85061627D01*
X82439497Y-85013244D01*
X82439498Y-84986741D01*
X82439950Y-84982546D01*
X82444699Y-84938371D01*
X82444698Y-84461626D01*
X82439498Y-84413248D01*
X82439498Y-84386746D01*
X82444699Y-84338372D01*
X82444698Y-83861627D01*
X82439497Y-83813244D01*
X82439498Y-83786741D01*
X82439760Y-83784313D01*
X82444699Y-83738371D01*
X82444698Y-83261626D01*
X82439761Y-83215701D01*
X82439498Y-83213252D01*
X82439498Y-83186743D01*
X82444699Y-83138372D01*
X82444698Y-82661627D01*
X82439497Y-82613244D01*
X82439498Y-82586741D01*
X82444698Y-82538378D01*
X82444699Y-82538371D01*
X82444698Y-82061626D01*
X82439498Y-82013248D01*
X82439498Y-81986746D01*
X82444699Y-81938372D01*
X82444698Y-81461627D01*
X82439497Y-81413244D01*
X82439498Y-81386741D01*
X82439937Y-81382664D01*
X82444699Y-81338371D01*
X82444698Y-80861626D01*
X82439498Y-80813248D01*
X82439498Y-80786746D01*
X82444699Y-80738372D01*
X82444698Y-80261627D01*
X82439497Y-80213244D01*
X82439498Y-80186741D01*
X82444698Y-80138378D01*
X82444699Y-80138371D01*
X82444698Y-79661626D01*
X82440460Y-79622200D01*
X82439498Y-79613252D01*
X82439498Y-79586744D01*
X82444699Y-79538372D01*
X82444698Y-79061627D01*
X82438290Y-79002016D01*
X82438289Y-79002014D01*
X82387996Y-78867170D01*
X82387992Y-78867163D01*
X82301746Y-78751954D01*
X82301743Y-78751951D01*
X82186534Y-78665705D01*
X82186527Y-78665701D01*
X82051681Y-78615407D01*
X82051682Y-78615407D01*
X81992082Y-78609000D01*
X81992080Y-78608999D01*
X81992072Y-78608999D01*
X81992064Y-78608999D01*
X81500282Y-78608999D01*
X81433243Y-78589314D01*
X81412600Y-78572679D01*
X81362784Y-78522862D01*
X81362780Y-78522859D01*
X81198919Y-78413370D01*
X81198906Y-78413363D01*
X81016838Y-78337949D01*
X81016828Y-78337946D01*
X80823542Y-78299499D01*
X80823540Y-78299499D01*
X80626458Y-78299499D01*
X80626456Y-78299499D01*
X80433169Y-78337946D01*
X80433159Y-78337949D01*
X80251091Y-78413363D01*
X80251078Y-78413370D01*
X80087220Y-78522857D01*
X80037394Y-78572682D01*
X79976070Y-78606166D01*
X79949714Y-78608999D01*
X79474500Y-78608999D01*
X79407461Y-78589314D01*
X79361706Y-78536510D01*
X79350500Y-78484999D01*
X79350500Y-78047028D01*
X79370185Y-77979989D01*
X79422989Y-77934234D01*
X79492147Y-77924290D01*
X79519294Y-77931402D01*
X79623799Y-77971887D01*
X79688048Y-77996777D01*
X79894904Y-78035445D01*
X79894906Y-78035445D01*
X80105342Y-78035445D01*
X80105344Y-78035445D01*
X80312200Y-77996777D01*
X80508428Y-77920758D01*
X80687347Y-77809976D01*
X80842864Y-77668204D01*
X80969682Y-77500270D01*
X81063483Y-77311892D01*
X81121072Y-77109487D01*
X81140485Y-76899991D01*
X90668811Y-76899991D01*
X90668811Y-76899992D01*
X90689032Y-77131124D01*
X90689034Y-77131134D01*
X90749081Y-77355235D01*
X90749083Y-77355239D01*
X90749084Y-77355243D01*
X90767295Y-77394297D01*
X90847139Y-77565524D01*
X90847140Y-77565525D01*
X90980221Y-77755584D01*
X91144284Y-77919647D01*
X91334343Y-78052728D01*
X91544625Y-78150784D01*
X91768739Y-78210835D01*
X91953648Y-78227012D01*
X91999875Y-78231057D01*
X91999876Y-78231057D01*
X91999877Y-78231057D01*
X92038398Y-78227686D01*
X92231013Y-78210835D01*
X92455127Y-78150784D01*
X92665409Y-78052728D01*
X92855468Y-77919647D01*
X93019531Y-77755584D01*
X93152612Y-77565525D01*
X93250668Y-77355243D01*
X93310719Y-77131129D01*
X93330941Y-76899992D01*
X93310719Y-76668855D01*
X93250668Y-76444741D01*
X93152612Y-76234460D01*
X93152610Y-76234457D01*
X93152609Y-76234455D01*
X93019530Y-76044398D01*
X92855472Y-75880341D01*
X92855468Y-75880337D01*
X92703420Y-75773872D01*
X92665408Y-75747255D01*
X92560268Y-75698228D01*
X92455127Y-75649200D01*
X92455123Y-75649199D01*
X92455119Y-75649197D01*
X92231018Y-75589150D01*
X92231008Y-75589148D01*
X91999877Y-75568927D01*
X91999875Y-75568927D01*
X91768743Y-75589148D01*
X91768733Y-75589150D01*
X91544632Y-75649197D01*
X91544623Y-75649201D01*
X91334343Y-75747256D01*
X91334339Y-75747258D01*
X91144282Y-75880337D01*
X90980221Y-76044398D01*
X90847142Y-76234455D01*
X90847140Y-76234459D01*
X90749085Y-76444739D01*
X90749081Y-76444748D01*
X90689034Y-76668849D01*
X90689032Y-76668859D01*
X90668811Y-76899991D01*
X81140485Y-76899991D01*
X81140489Y-76899945D01*
X81121072Y-76690403D01*
X81063483Y-76487998D01*
X80969682Y-76299620D01*
X80842864Y-76131686D01*
X80747115Y-76044400D01*
X80687347Y-75989914D01*
X80687345Y-75989912D01*
X80508431Y-75879133D01*
X80508425Y-75879130D01*
X80352791Y-75818838D01*
X80312200Y-75803113D01*
X80105344Y-75764445D01*
X79894904Y-75764445D01*
X79688048Y-75803113D01*
X79688045Y-75803113D01*
X79688045Y-75803114D01*
X79519294Y-75868488D01*
X79449670Y-75874350D01*
X79387930Y-75841640D01*
X79353675Y-75780743D01*
X79350500Y-75752861D01*
X79350500Y-75550097D01*
X79370185Y-75483058D01*
X79386819Y-75462416D01*
X79454975Y-75394260D01*
X79730520Y-75118716D01*
X79809577Y-74981784D01*
X79850501Y-74829057D01*
X79850501Y-74670942D01*
X79850501Y-74663347D01*
X79850500Y-74663329D01*
X79850500Y-73628711D01*
X98149500Y-73628711D01*
X98149500Y-73871288D01*
X98181161Y-74111785D01*
X98243947Y-74346104D01*
X98336773Y-74570205D01*
X98336776Y-74570212D01*
X98458064Y-74780289D01*
X98458066Y-74780292D01*
X98458067Y-74780293D01*
X98605733Y-74972736D01*
X98605739Y-74972743D01*
X98777256Y-75144260D01*
X98777262Y-75144265D01*
X98969711Y-75291936D01*
X99179788Y-75413224D01*
X99403900Y-75506054D01*
X99638211Y-75568838D01*
X99792499Y-75589150D01*
X99878711Y-75600500D01*
X99878712Y-75600500D01*
X100121289Y-75600500D01*
X100207501Y-75589150D01*
X100361789Y-75568838D01*
X100596100Y-75506054D01*
X100820212Y-75413224D01*
X101030289Y-75291936D01*
X101222738Y-75144265D01*
X101394265Y-74972738D01*
X101541936Y-74780289D01*
X101663224Y-74570212D01*
X101756054Y-74346100D01*
X101818838Y-74111789D01*
X101850500Y-73871288D01*
X101850500Y-73628712D01*
X101818838Y-73388211D01*
X101756054Y-73153900D01*
X101663224Y-72929788D01*
X101541936Y-72719711D01*
X101394265Y-72527262D01*
X101394260Y-72527256D01*
X101222743Y-72355739D01*
X101222736Y-72355733D01*
X101030293Y-72208067D01*
X101030292Y-72208066D01*
X101030289Y-72208064D01*
X100820212Y-72086776D01*
X100820205Y-72086773D01*
X100596104Y-71993947D01*
X100361785Y-71931161D01*
X100121289Y-71899500D01*
X100121288Y-71899500D01*
X99878712Y-71899500D01*
X99878711Y-71899500D01*
X99638214Y-71931161D01*
X99403895Y-71993947D01*
X99179794Y-72086773D01*
X99179785Y-72086777D01*
X98969706Y-72208067D01*
X98777263Y-72355733D01*
X98777256Y-72355739D01*
X98605739Y-72527256D01*
X98605733Y-72527263D01*
X98458067Y-72719706D01*
X98336777Y-72929785D01*
X98336773Y-72929794D01*
X98243947Y-73153895D01*
X98181161Y-73388214D01*
X98149500Y-73628711D01*
X79850500Y-73628711D01*
X79850500Y-69342416D01*
X79870185Y-69275377D01*
X79922989Y-69229622D01*
X79992147Y-69219678D01*
X80044983Y-69242390D01*
X80045503Y-69241548D01*
X80051205Y-69245065D01*
X80051421Y-69245158D01*
X80051642Y-69245332D01*
X80051650Y-69245340D01*
X80198484Y-69335908D01*
X80362247Y-69390174D01*
X80463323Y-69400500D01*
X81036676Y-69400499D01*
X81036684Y-69400498D01*
X81036687Y-69400498D01*
X81092030Y-69394844D01*
X81137753Y-69390174D01*
X81301516Y-69335908D01*
X81448350Y-69245340D01*
X81537319Y-69156371D01*
X81598642Y-69122886D01*
X81668334Y-69127870D01*
X81712681Y-69156371D01*
X81801650Y-69245340D01*
X81948484Y-69335908D01*
X82112247Y-69390174D01*
X82213323Y-69400500D01*
X82786676Y-69400499D01*
X82786684Y-69400498D01*
X82786687Y-69400498D01*
X82842030Y-69394844D01*
X82887753Y-69390174D01*
X83051516Y-69335908D01*
X83198350Y-69245340D01*
X83320340Y-69123350D01*
X83352072Y-69071904D01*
X83404020Y-69025179D01*
X83457611Y-69013000D01*
X83905953Y-69013000D01*
X83972992Y-69032685D01*
X84018747Y-69085489D01*
X84022991Y-69096036D01*
X84024211Y-69099522D01*
X84024212Y-69099524D01*
X84099710Y-69219678D01*
X84120184Y-69252262D01*
X84247738Y-69379816D01*
X84400478Y-69475789D01*
X84570745Y-69535368D01*
X84570750Y-69535369D01*
X84749996Y-69555565D01*
X84750000Y-69555565D01*
X84750004Y-69555565D01*
X84929249Y-69535369D01*
X84929252Y-69535368D01*
X84929255Y-69535368D01*
X85099522Y-69475789D01*
X85252262Y-69379816D01*
X85379816Y-69252262D01*
X85475789Y-69099522D01*
X85535368Y-68929255D01*
X85555565Y-68750000D01*
X85535368Y-68570745D01*
X85535367Y-68570743D01*
X85535366Y-68570737D01*
X85475790Y-68400481D01*
X85475789Y-68400478D01*
X85430914Y-68329060D01*
X85409506Y-68294988D01*
X85390500Y-68229016D01*
X85390500Y-66875966D01*
X85410185Y-66808927D01*
X85462989Y-66763172D01*
X85471156Y-66759788D01*
X85507331Y-66746296D01*
X85622546Y-66660046D01*
X85708796Y-66544831D01*
X85759091Y-66409983D01*
X85765500Y-66350373D01*
X85765500Y-66201024D01*
X85785183Y-66133987D01*
X85837987Y-66088232D01*
X85907145Y-66078288D01*
X85932828Y-66084842D01*
X85937517Y-66086591D01*
X85997127Y-66093000D01*
X87467118Y-66092999D01*
X87467127Y-66093000D01*
X89032872Y-66092999D01*
X89092483Y-66086591D01*
X89097159Y-66084846D01*
X89166848Y-66079857D01*
X89228174Y-66113336D01*
X89261664Y-66174657D01*
X89264500Y-66201024D01*
X89264500Y-66350369D01*
X89264501Y-66350376D01*
X89270908Y-66409983D01*
X89321202Y-66544828D01*
X89321206Y-66544835D01*
X89407452Y-66660044D01*
X89407455Y-66660047D01*
X89522664Y-66746293D01*
X89522671Y-66746297D01*
X89657517Y-66796591D01*
X89657516Y-66796591D01*
X89664444Y-66797335D01*
X89717127Y-66803000D01*
X90862872Y-66802999D01*
X90922483Y-66796591D01*
X91057331Y-66746296D01*
X91172546Y-66660046D01*
X91258796Y-66544831D01*
X91309091Y-66409983D01*
X91315500Y-66350373D01*
X91315499Y-65804628D01*
X91315498Y-65804611D01*
X91311320Y-65765753D01*
X91311320Y-65739247D01*
X91315500Y-65700373D01*
X91315499Y-65154628D01*
X91315498Y-65154611D01*
X91311320Y-65115753D01*
X91311320Y-65089247D01*
X91315500Y-65050373D01*
X91315499Y-64851999D01*
X91335183Y-64784961D01*
X91387987Y-64739206D01*
X91439499Y-64728000D01*
X92827403Y-64728000D01*
X92894442Y-64747685D01*
X92915084Y-64764319D01*
X92919298Y-64768533D01*
X92952783Y-64829856D01*
X92954837Y-64842330D01*
X92964630Y-64929249D01*
X93024210Y-65099521D01*
X93058826Y-65154611D01*
X93120184Y-65252262D01*
X93247738Y-65379816D01*
X93400478Y-65475789D01*
X93570745Y-65535368D01*
X93570750Y-65535369D01*
X93749996Y-65555565D01*
X93750000Y-65555565D01*
X93750004Y-65555565D01*
X93929249Y-65535369D01*
X93929252Y-65535368D01*
X93929255Y-65535368D01*
X94099522Y-65475789D01*
X94252262Y-65379816D01*
X94379816Y-65252262D01*
X94475789Y-65099522D01*
X94535368Y-64929255D01*
X94535369Y-64929249D01*
X94555565Y-64750003D01*
X94555565Y-64749996D01*
X94535369Y-64570750D01*
X94535366Y-64570737D01*
X94475783Y-64400460D01*
X94472221Y-64330681D01*
X94506949Y-64270054D01*
X94551870Y-64242463D01*
X94599522Y-64225789D01*
X94752262Y-64129816D01*
X94879816Y-64002262D01*
X94975789Y-63849522D01*
X95035368Y-63679255D01*
X95055565Y-63500000D01*
X95035368Y-63320745D01*
X94975789Y-63150478D01*
X94879816Y-62997738D01*
X94752262Y-62870184D01*
X94684331Y-62827500D01*
X94599523Y-62774211D01*
X94429254Y-62714631D01*
X94429249Y-62714630D01*
X94250004Y-62694435D01*
X94249996Y-62694435D01*
X94070750Y-62714630D01*
X94070745Y-62714631D01*
X93900477Y-62774211D01*
X93852256Y-62804511D01*
X93767137Y-62857994D01*
X93701167Y-62877000D01*
X93429565Y-62877000D01*
X93362526Y-62857315D01*
X93316771Y-62804511D01*
X93306415Y-62756911D01*
X93306345Y-62756919D01*
X93306267Y-62756227D01*
X93305565Y-62753000D01*
X93305565Y-62749996D01*
X93285369Y-62570750D01*
X93285368Y-62570745D01*
X93225789Y-62400478D01*
X93129816Y-62247738D01*
X93002262Y-62120184D01*
X92849523Y-62024211D01*
X92679254Y-61964631D01*
X92679250Y-61964630D01*
X92563008Y-61951533D01*
X92498594Y-61924466D01*
X92471898Y-61894285D01*
X92379815Y-61747737D01*
X92252262Y-61620184D01*
X92099523Y-61524211D01*
X91929254Y-61464631D01*
X91929249Y-61464630D01*
X91750004Y-61444435D01*
X91749996Y-61444435D01*
X91570750Y-61464630D01*
X91570745Y-61464631D01*
X91400476Y-61524211D01*
X91297289Y-61589048D01*
X91230052Y-61608048D01*
X91163217Y-61587680D01*
X91157006Y-61583321D01*
X91148562Y-61577000D01*
X91070294Y-61518408D01*
X91057330Y-61508703D01*
X91057328Y-61508702D01*
X90922482Y-61458408D01*
X90922483Y-61458408D01*
X90862883Y-61452001D01*
X90862881Y-61452000D01*
X90862873Y-61452000D01*
X90862864Y-61452000D01*
X89717129Y-61452000D01*
X89717123Y-61452001D01*
X89657516Y-61458408D01*
X89522671Y-61508702D01*
X89522669Y-61508704D01*
X89409236Y-61593620D01*
X89343772Y-61618037D01*
X89275499Y-61603186D01*
X89260614Y-61593619D01*
X89227335Y-61568706D01*
X89227328Y-61568702D01*
X89092482Y-61518408D01*
X89092483Y-61518408D01*
X89032883Y-61512001D01*
X89032881Y-61512000D01*
X89032873Y-61512000D01*
X87562881Y-61512000D01*
X87562873Y-61512000D01*
X85997129Y-61512000D01*
X85997123Y-61512001D01*
X85937518Y-61518408D01*
X85934115Y-61519677D01*
X85932830Y-61520157D01*
X85863139Y-61525140D01*
X85801816Y-61491654D01*
X85768332Y-61430330D01*
X85765499Y-61403974D01*
X85765499Y-61254629D01*
X85765498Y-61254623D01*
X85761199Y-61214632D01*
X85759091Y-61195017D01*
X85742478Y-61150476D01*
X85708797Y-61060171D01*
X85708793Y-61060164D01*
X85622547Y-60944955D01*
X85622544Y-60944952D01*
X85507335Y-60858706D01*
X85507328Y-60858702D01*
X85372482Y-60808408D01*
X85372483Y-60808408D01*
X85312883Y-60802001D01*
X85312881Y-60802000D01*
X85312873Y-60802000D01*
X85312864Y-60802000D01*
X84167129Y-60802000D01*
X84167123Y-60802001D01*
X84107516Y-60808408D01*
X83972671Y-60858702D01*
X83972668Y-60858704D01*
X83914476Y-60902267D01*
X83849011Y-60926684D01*
X83840165Y-60927000D01*
X83360440Y-60927000D01*
X83293401Y-60907315D01*
X83272759Y-60890681D01*
X83252262Y-60870184D01*
X83099523Y-60774211D01*
X82929254Y-60714631D01*
X82929249Y-60714630D01*
X82750004Y-60694435D01*
X82749996Y-60694435D01*
X82570750Y-60714630D01*
X82570745Y-60714631D01*
X82400476Y-60774211D01*
X82247737Y-60870184D01*
X82120184Y-60997737D01*
X82024211Y-61150476D01*
X81964631Y-61320745D01*
X81964630Y-61320750D01*
X81948166Y-61466883D01*
X81921100Y-61531297D01*
X81863505Y-61570852D01*
X81824946Y-61577000D01*
X79498153Y-61577000D01*
X79431114Y-61557315D01*
X79393160Y-61518973D01*
X79379818Y-61497741D01*
X79379817Y-61497739D01*
X79252262Y-61370184D01*
X79099523Y-61274211D01*
X78929254Y-61214631D01*
X78929249Y-61214630D01*
X78750004Y-61194435D01*
X78749996Y-61194435D01*
X78570750Y-61214630D01*
X78570745Y-61214631D01*
X78400476Y-61274211D01*
X78247737Y-61370184D01*
X78120184Y-61497737D01*
X78024211Y-61650476D01*
X77964631Y-61820745D01*
X77964630Y-61820750D01*
X77944435Y-61999996D01*
X77944435Y-62000003D01*
X77964630Y-62179249D01*
X77964633Y-62179262D01*
X78024209Y-62349520D01*
X78077309Y-62434029D01*
X78096309Y-62501266D01*
X78077309Y-62565971D01*
X78024209Y-62650479D01*
X77964633Y-62820737D01*
X77964630Y-62820750D01*
X77944435Y-62999996D01*
X77944435Y-63000003D01*
X77964630Y-63179246D01*
X77964632Y-63179255D01*
X77986933Y-63242989D01*
X77990494Y-63312767D01*
X77975430Y-63349038D01*
X77914095Y-63448477D01*
X77914091Y-63448486D01*
X77897021Y-63500000D01*
X77859826Y-63612247D01*
X77859826Y-63612248D01*
X77859825Y-63612248D01*
X77849500Y-63713315D01*
X77849500Y-64286669D01*
X77849501Y-64286687D01*
X77859825Y-64387752D01*
X77914092Y-64551515D01*
X77914093Y-64551518D01*
X78004661Y-64698351D01*
X78024739Y-64718429D01*
X78058224Y-64779752D01*
X78053240Y-64849444D01*
X78042054Y-64872078D01*
X78024210Y-64900478D01*
X77964633Y-65070737D01*
X77964630Y-65070750D01*
X77944435Y-65249996D01*
X77944435Y-65250003D01*
X77964630Y-65429249D01*
X77964631Y-65429254D01*
X78024211Y-65599523D01*
X78087580Y-65700373D01*
X78120184Y-65752262D01*
X78247738Y-65879816D01*
X78400478Y-65975789D01*
X78536788Y-66023486D01*
X78570745Y-66035368D01*
X78570750Y-66035369D01*
X78749996Y-66055565D01*
X78750000Y-66055565D01*
X78750004Y-66055565D01*
X78929249Y-66035369D01*
X78929252Y-66035368D01*
X78929255Y-66035368D01*
X79099522Y-65975789D01*
X79252262Y-65879816D01*
X79379816Y-65752262D01*
X79475789Y-65599522D01*
X79535368Y-65429255D01*
X79535369Y-65429249D01*
X79555565Y-65250003D01*
X79555565Y-65249996D01*
X79535369Y-65070750D01*
X79535366Y-65070737D01*
X79498546Y-64965513D01*
X79494983Y-64895734D01*
X79529712Y-64835107D01*
X79542800Y-64824974D01*
X79542681Y-64824823D01*
X79548348Y-64820341D01*
X79548347Y-64820341D01*
X79548350Y-64820340D01*
X79662319Y-64706371D01*
X79723642Y-64672886D01*
X79793334Y-64677870D01*
X79837681Y-64706371D01*
X79951650Y-64820340D01*
X80098484Y-64910908D01*
X80262247Y-64965174D01*
X80363323Y-64975500D01*
X80961676Y-64975499D01*
X80961684Y-64975498D01*
X80961687Y-64975498D01*
X81017030Y-64969844D01*
X81062753Y-64965174D01*
X81226516Y-64910908D01*
X81239151Y-64903114D01*
X81306541Y-64884672D01*
X81373205Y-64905592D01*
X81417977Y-64959232D01*
X81426641Y-65028563D01*
X81396447Y-65091571D01*
X81391931Y-65096332D01*
X80925082Y-65563181D01*
X80863759Y-65596666D01*
X80837401Y-65599500D01*
X80463330Y-65599500D01*
X80463312Y-65599501D01*
X80362247Y-65609825D01*
X80198484Y-65664092D01*
X80198481Y-65664093D01*
X80051648Y-65754661D01*
X79929661Y-65876648D01*
X79839093Y-66023481D01*
X79839091Y-66023486D01*
X79811719Y-66106088D01*
X79784826Y-66187247D01*
X79784826Y-66187248D01*
X79784825Y-66187248D01*
X79774500Y-66288315D01*
X79774500Y-66324902D01*
X79754815Y-66391941D01*
X79738181Y-66412583D01*
X78269481Y-67881282D01*
X78269480Y-67881284D01*
X78233020Y-67944435D01*
X78190423Y-68018215D01*
X78149499Y-68170943D01*
X78149499Y-68170945D01*
X78149499Y-68339046D01*
X78149500Y-68339059D01*
X78149500Y-74199902D01*
X78129815Y-74266941D01*
X78113181Y-74287583D01*
X77869481Y-74531282D01*
X77869479Y-74531284D01*
X77850092Y-74564864D01*
X77841898Y-74579058D01*
X77801301Y-74649372D01*
X77793234Y-74663347D01*
X77790423Y-74668215D01*
X77749499Y-74820943D01*
X77749499Y-74820945D01*
X77749499Y-74989046D01*
X77749500Y-74989059D01*
X77749500Y-78349902D01*
X77729815Y-78416941D01*
X77713181Y-78437583D01*
X77578084Y-78572680D01*
X77516761Y-78606165D01*
X77490403Y-78608999D01*
X75007930Y-78608999D01*
X75007924Y-78609000D01*
X74948317Y-78615407D01*
X74813472Y-78665701D01*
X74813465Y-78665705D01*
X74698256Y-78751951D01*
X74698253Y-78751954D01*
X74612007Y-78867163D01*
X74612003Y-78867170D01*
X74561711Y-79002012D01*
X74561710Y-79002016D01*
X74555301Y-79061626D01*
X74555301Y-79061633D01*
X74555301Y-79061634D01*
X74555301Y-79538369D01*
X74555302Y-79538373D01*
X74560502Y-79586741D01*
X74560502Y-79613248D01*
X74557335Y-79642712D01*
X74555301Y-79661628D01*
X74555301Y-80138368D01*
X74555302Y-80138374D01*
X74561709Y-80197981D01*
X74612003Y-80332826D01*
X74612007Y-80332833D01*
X74698253Y-80448042D01*
X74698256Y-80448045D01*
X74813465Y-80534291D01*
X74813472Y-80534295D01*
X74948318Y-80584589D01*
X74948317Y-80584589D01*
X74955245Y-80585333D01*
X75007928Y-80590998D01*
X77542073Y-80590997D01*
X77601684Y-80584589D01*
X77736532Y-80534294D01*
X77767239Y-80511305D01*
X77809454Y-80490799D01*
X77925986Y-80459575D01*
X77976105Y-80430637D01*
X78062917Y-80380518D01*
X78174721Y-80268714D01*
X78174721Y-80268712D01*
X78184929Y-80258505D01*
X78184931Y-80258502D01*
X78793620Y-79649812D01*
X78854941Y-79616329D01*
X78924633Y-79621313D01*
X78980566Y-79663185D01*
X79004983Y-79728649D01*
X79005299Y-79737495D01*
X79005299Y-80138368D01*
X79005300Y-80138374D01*
X79010500Y-80186746D01*
X79010500Y-80213251D01*
X79005299Y-80261626D01*
X79005299Y-80261628D01*
X79005299Y-80261632D01*
X79005299Y-80738369D01*
X79005300Y-80738373D01*
X79006273Y-80747426D01*
X79009238Y-80775009D01*
X79010500Y-80786741D01*
X79010500Y-80813248D01*
X79005299Y-80861628D01*
X79005299Y-81338368D01*
X79005300Y-81338374D01*
X79010500Y-81386746D01*
X79010500Y-81413251D01*
X79005299Y-81461626D01*
X79005299Y-81461628D01*
X79005299Y-81461632D01*
X79005299Y-81938369D01*
X79005300Y-81938373D01*
X79010500Y-81986741D01*
X79010500Y-82013248D01*
X79005301Y-82061614D01*
X79005299Y-82061628D01*
X79005299Y-82538368D01*
X79005300Y-82538374D01*
X79010500Y-82586746D01*
X79010500Y-82613251D01*
X79005299Y-82661626D01*
X79005299Y-82661628D01*
X79005299Y-82661632D01*
X79005299Y-83138369D01*
X79005300Y-83138373D01*
X79007201Y-83156055D01*
X79009694Y-83179249D01*
X79010500Y-83186741D01*
X79010500Y-83213248D01*
X79008091Y-83235651D01*
X79005300Y-83261623D01*
X79005299Y-83261628D01*
X79005299Y-83738368D01*
X79005300Y-83738374D01*
X79010500Y-83786746D01*
X79010500Y-83813251D01*
X79005299Y-83861626D01*
X79005299Y-83861628D01*
X79005299Y-83861632D01*
X79005299Y-84338369D01*
X79005300Y-84338373D01*
X79010500Y-84386741D01*
X79010500Y-84413248D01*
X79005299Y-84461628D01*
X79005299Y-84938368D01*
X79005300Y-84938374D01*
X79010500Y-84986746D01*
X79010500Y-85013251D01*
X79005299Y-85061626D01*
X79005299Y-85061628D01*
X79005299Y-85061632D01*
X79005299Y-85538369D01*
X79005300Y-85538373D01*
X79006751Y-85551865D01*
X79009919Y-85581344D01*
X79010500Y-85586741D01*
X79010500Y-85613248D01*
X79008091Y-85635651D01*
X79006191Y-85653334D01*
X79005299Y-85661628D01*
X79005299Y-86138368D01*
X79005300Y-86138373D01*
X79005589Y-86141061D01*
X79005477Y-86141679D01*
X79005478Y-86141693D01*
X79005474Y-86141693D01*
X78993178Y-86209820D01*
X78945563Y-86260954D01*
X78877863Y-86278228D01*
X78841343Y-86271349D01*
X78679254Y-86214631D01*
X78679249Y-86214630D01*
X78500004Y-86194435D01*
X78499996Y-86194435D01*
X78320750Y-86214630D01*
X78320745Y-86214631D01*
X78150476Y-86274211D01*
X77997737Y-86370184D01*
X77870184Y-86497737D01*
X77774210Y-86650478D01*
X77714630Y-86820750D01*
X77705421Y-86902484D01*
X77678354Y-86966898D01*
X77620759Y-87006453D01*
X77568946Y-87011889D01*
X77542084Y-87009001D01*
X77542082Y-87009000D01*
X77542074Y-87009000D01*
X77542065Y-87009000D01*
X75007930Y-87009000D01*
X75007924Y-87009001D01*
X74948317Y-87015408D01*
X74813472Y-87065702D01*
X74813466Y-87065706D01*
X74798809Y-87076678D01*
X74733344Y-87101094D01*
X74665071Y-87086241D01*
X74615667Y-87036835D01*
X74600500Y-86977410D01*
X74600500Y-84920942D01*
X74597666Y-84910368D01*
X74597665Y-84910364D01*
X74584819Y-84862422D01*
X74573502Y-84820185D01*
X74559577Y-84768216D01*
X74550067Y-84751744D01*
X74480524Y-84631290D01*
X74480521Y-84631286D01*
X74480520Y-84631284D01*
X74368716Y-84519480D01*
X74368715Y-84519479D01*
X74364385Y-84515149D01*
X74364374Y-84515139D01*
X72987590Y-83138355D01*
X72987588Y-83138352D01*
X72868717Y-83019481D01*
X72868712Y-83019477D01*
X72757717Y-82955395D01*
X72757715Y-82955394D01*
X72731786Y-82940423D01*
X72731787Y-82940423D01*
X72670693Y-82924053D01*
X72579057Y-82899499D01*
X72420943Y-82899499D01*
X72413347Y-82899499D01*
X72413331Y-82899500D01*
X72069663Y-82899500D01*
X72002624Y-82879815D01*
X71956869Y-82827011D01*
X71946374Y-82788756D01*
X71944091Y-82767517D01*
X71944090Y-82767514D01*
X71943632Y-82763252D01*
X71943633Y-82736743D01*
X71950499Y-82672886D01*
X71950499Y-82672882D01*
X71950500Y-82672873D01*
X71950499Y-82624361D01*
X71970182Y-82557324D01*
X71986819Y-82536678D01*
X71999464Y-82524035D01*
X72028540Y-82480520D01*
X72098013Y-82376547D01*
X72140402Y-82274211D01*
X72165895Y-82212666D01*
X72200500Y-82038691D01*
X72200500Y-81861308D01*
X72200500Y-81135132D01*
X72218960Y-81070036D01*
X72234814Y-81044334D01*
X72289999Y-80877797D01*
X72300500Y-80775009D01*
X72300499Y-79724992D01*
X72292819Y-79649814D01*
X72289999Y-79622203D01*
X72289998Y-79622200D01*
X72282641Y-79599998D01*
X72234814Y-79455666D01*
X72230165Y-79448129D01*
X72218960Y-79429961D01*
X72200500Y-79364867D01*
X72200500Y-79211307D01*
X72200499Y-79211303D01*
X72198807Y-79202795D01*
X72165895Y-79037334D01*
X72123137Y-78934108D01*
X72121127Y-78929255D01*
X72098016Y-78873459D01*
X72098014Y-78873455D01*
X72098013Y-78873453D01*
X72028541Y-78769481D01*
X71999464Y-78725964D01*
X71999462Y-78725962D01*
X71999460Y-78725959D01*
X71574041Y-78300540D01*
X71574034Y-78300534D01*
X71426548Y-78201988D01*
X71262666Y-78134105D01*
X71262658Y-78134103D01*
X71088696Y-78099500D01*
X71088692Y-78099500D01*
X70911308Y-78099500D01*
X70911303Y-78099500D01*
X70737341Y-78134103D01*
X70737333Y-78134105D01*
X70573451Y-78201988D01*
X70425965Y-78300534D01*
X70425958Y-78300540D01*
X70300537Y-78425961D01*
X70231322Y-78529550D01*
X70177710Y-78574355D01*
X70108385Y-78583062D01*
X70045357Y-78552907D01*
X70011178Y-78501614D01*
X70005364Y-78484999D01*
X69975789Y-78400478D01*
X69879816Y-78247738D01*
X69752262Y-78120184D01*
X69719344Y-78099500D01*
X69599523Y-78024211D01*
X69429254Y-77964631D01*
X69429249Y-77964630D01*
X69250004Y-77944435D01*
X69249996Y-77944435D01*
X69070750Y-77964630D01*
X69070745Y-77964631D01*
X68900476Y-78024211D01*
X68747737Y-78120184D01*
X68620184Y-78247737D01*
X68524211Y-78400476D01*
X68464631Y-78570745D01*
X68464630Y-78570750D01*
X68444435Y-78749996D01*
X68444435Y-78750003D01*
X68464630Y-78929249D01*
X68464632Y-78929257D01*
X68508819Y-79055538D01*
X68512380Y-79125317D01*
X68479459Y-79184173D01*
X68357287Y-79306345D01*
X68265187Y-79455663D01*
X68265186Y-79455666D01*
X68210001Y-79622203D01*
X68210001Y-79622204D01*
X68210000Y-79622204D01*
X68199500Y-79724983D01*
X68199500Y-80775001D01*
X68199501Y-80775019D01*
X68210000Y-80877796D01*
X68210001Y-80877799D01*
X68233748Y-80949462D01*
X68265186Y-81044334D01*
X68357288Y-81193656D01*
X68481344Y-81317712D01*
X68630666Y-81409814D01*
X68764505Y-81454164D01*
X68821949Y-81493936D01*
X68848772Y-81558451D01*
X68849500Y-81571869D01*
X68849500Y-81756921D01*
X68829815Y-81823960D01*
X68777011Y-81869715D01*
X68707853Y-81879659D01*
X68659528Y-81861915D01*
X68599523Y-81824211D01*
X68429254Y-81764631D01*
X68429249Y-81764630D01*
X68250004Y-81744435D01*
X68249996Y-81744435D01*
X68070750Y-81764630D01*
X68070737Y-81764633D01*
X67900479Y-81824209D01*
X67889150Y-81831328D01*
X67821913Y-81850324D01*
X67757211Y-81831325D01*
X67699520Y-81795075D01*
X67529248Y-81735495D01*
X67460615Y-81727762D01*
X67396202Y-81700695D01*
X67356647Y-81643100D01*
X67350500Y-81604542D01*
X67350500Y-81339059D01*
X67350501Y-81339046D01*
X67350501Y-81170945D01*
X67350501Y-81170943D01*
X67309577Y-81018215D01*
X67269883Y-80949464D01*
X67269883Y-80949462D01*
X67230524Y-80881290D01*
X67230521Y-80881286D01*
X67230520Y-80881284D01*
X67118716Y-80769480D01*
X67118715Y-80769479D01*
X67114385Y-80765149D01*
X67114374Y-80765139D01*
X66120492Y-79771257D01*
X66089098Y-79718174D01*
X66051744Y-79589602D01*
X65968081Y-79448135D01*
X65968079Y-79448133D01*
X65968076Y-79448129D01*
X65851870Y-79331923D01*
X65851862Y-79331917D01*
X65769550Y-79283238D01*
X65710398Y-79248256D01*
X65710397Y-79248255D01*
X65710396Y-79248255D01*
X65710393Y-79248254D01*
X65552573Y-79202402D01*
X65552567Y-79202401D01*
X65515701Y-79199500D01*
X65515694Y-79199500D01*
X64134306Y-79199500D01*
X64134298Y-79199500D01*
X64097432Y-79202401D01*
X64097426Y-79202402D01*
X63939606Y-79248254D01*
X63939605Y-79248254D01*
X63880450Y-79283238D01*
X63812726Y-79300419D01*
X63746463Y-79278259D01*
X63702701Y-79223793D01*
X63693972Y-79163903D01*
X63700500Y-79100009D01*
X63700499Y-78299992D01*
X63689999Y-78197203D01*
X63634814Y-78030666D01*
X63542712Y-77881344D01*
X63418656Y-77757288D01*
X63300918Y-77684667D01*
X63269336Y-77665187D01*
X63269331Y-77665185D01*
X63226095Y-77650858D01*
X63102797Y-77610001D01*
X63102795Y-77610000D01*
X63000016Y-77599500D01*
X62407675Y-77599500D01*
X62340636Y-77579815D01*
X62294881Y-77527011D01*
X62284937Y-77457853D01*
X62313962Y-77394297D01*
X62319980Y-77387833D01*
X65829101Y-73878711D01*
X70149500Y-73878711D01*
X70149500Y-74121288D01*
X70181161Y-74361785D01*
X70243947Y-74596104D01*
X70336773Y-74820205D01*
X70336777Y-74820214D01*
X70341883Y-74829057D01*
X70458064Y-75030289D01*
X70458066Y-75030292D01*
X70458067Y-75030293D01*
X70605733Y-75222736D01*
X70605739Y-75222743D01*
X70777256Y-75394260D01*
X70777263Y-75394266D01*
X70866078Y-75462416D01*
X70969711Y-75541936D01*
X71179788Y-75663224D01*
X71375269Y-75744195D01*
X71382664Y-75747258D01*
X71403900Y-75756054D01*
X71638211Y-75818838D01*
X71818586Y-75842584D01*
X71878711Y-75850500D01*
X71878712Y-75850500D01*
X72121289Y-75850500D01*
X72169388Y-75844167D01*
X72361789Y-75818838D01*
X72596100Y-75756054D01*
X72820212Y-75663224D01*
X73030289Y-75541936D01*
X73222738Y-75394265D01*
X73394265Y-75222738D01*
X73541936Y-75030289D01*
X73663224Y-74820212D01*
X73756054Y-74596100D01*
X73818838Y-74361789D01*
X73850500Y-74121288D01*
X73850500Y-73878712D01*
X73818838Y-73638211D01*
X73756054Y-73403900D01*
X73663224Y-73179788D01*
X73541936Y-72969711D01*
X73394265Y-72777262D01*
X73394260Y-72777256D01*
X73222743Y-72605739D01*
X73222736Y-72605733D01*
X73030293Y-72458067D01*
X73030292Y-72458066D01*
X73030289Y-72458064D01*
X72853050Y-72355735D01*
X72820214Y-72336777D01*
X72820205Y-72336773D01*
X72596104Y-72243947D01*
X72361785Y-72181161D01*
X72121289Y-72149500D01*
X72121288Y-72149500D01*
X71878712Y-72149500D01*
X71878711Y-72149500D01*
X71638214Y-72181161D01*
X71403895Y-72243947D01*
X71179794Y-72336773D01*
X71179785Y-72336777D01*
X70969706Y-72458067D01*
X70777263Y-72605733D01*
X70777256Y-72605739D01*
X70605739Y-72777256D01*
X70605733Y-72777263D01*
X70458067Y-72969706D01*
X70336777Y-73179785D01*
X70336773Y-73179794D01*
X70243947Y-73403895D01*
X70181161Y-73638214D01*
X70149500Y-73878711D01*
X65829101Y-73878711D01*
X75297104Y-64410707D01*
X75297109Y-64410704D01*
X75307312Y-64400500D01*
X75307314Y-64400500D01*
X75400500Y-64307314D01*
X75466392Y-64193186D01*
X75478956Y-64146296D01*
X75500500Y-64065893D01*
X75500500Y-63934108D01*
X75500500Y-54004427D01*
X75500816Y-53995581D01*
X75515130Y-53795443D01*
X75515131Y-53795442D01*
X75515130Y-53795436D01*
X75517646Y-53777938D01*
X75559356Y-53586199D01*
X75564333Y-53569248D01*
X75632911Y-53385385D01*
X75640259Y-53369298D01*
X75702815Y-53254734D01*
X75734291Y-53197089D01*
X75743845Y-53182221D01*
X75861448Y-53025123D01*
X75873020Y-53011769D01*
X76011769Y-52873020D01*
X76025123Y-52861448D01*
X76182221Y-52743845D01*
X76197089Y-52734291D01*
X76369298Y-52640258D01*
X76385385Y-52632911D01*
X76569248Y-52564333D01*
X76586199Y-52559356D01*
X76777938Y-52517646D01*
X76795436Y-52515130D01*
X76995582Y-52500816D01*
X77004428Y-52500500D01*
X77065892Y-52500500D01*
X94934108Y-52500500D01*
X94995572Y-52500500D01*
X95004418Y-52500816D01*
G37*
%TD.AperFunction*%
%TD*%
M02*
