%TF.GenerationSoftware,KiCad,Pcbnew,8.0.8*%
%TF.CreationDate,2025-02-10T22:14:38-08:00*%
%TF.ProjectId,CMOD_A7_Lower,434d4f44-5f41-4375-9f4c-6f7765722e6b,rev?*%
%TF.SameCoordinates,Original*%
%TF.FileFunction,Copper,L3,Inr*%
%TF.FilePolarity,Positive*%
%FSLAX46Y46*%
G04 Gerber Fmt 4.6, Leading zero omitted, Abs format (unit mm)*
G04 Created by KiCad (PCBNEW 8.0.8) date 2025-02-10 22:14:38*
%MOMM*%
%LPD*%
G01*
G04 APERTURE LIST*
%TA.AperFunction,ComponentPad*%
%ADD10R,1.600000X1.600000*%
%TD*%
%TA.AperFunction,ComponentPad*%
%ADD11C,1.600000*%
%TD*%
%TA.AperFunction,ComponentPad*%
%ADD12C,1.651000*%
%TD*%
%TA.AperFunction,ComponentPad*%
%ADD13C,1.270000*%
%TD*%
%TA.AperFunction,ViaPad*%
%ADD14C,0.600000*%
%TD*%
%TA.AperFunction,Conductor*%
%ADD15C,0.200000*%
%TD*%
G04 APERTURE END LIST*
D10*
%TO.N,+12V*%
%TO.C,C10*%
X92500000Y-109750000D03*
D11*
%TO.N,GND*%
X94500000Y-109750000D03*
%TD*%
D10*
%TO.N,+12V*%
%TO.C,C9*%
X77500000Y-109750000D03*
D11*
%TO.N,GND*%
X79500000Y-109750000D03*
%TD*%
D12*
%TO.N,N/C*%
%TO.C,J19*%
X91999876Y-76899992D03*
D13*
X91999876Y-99100055D03*
%TD*%
D12*
%TO.N,N/C*%
%TO.C,J18*%
X80000124Y-99100008D03*
D13*
X80000124Y-76899945D03*
%TD*%
D14*
%TO.N,GND*%
X51000000Y-88000000D03*
X86000000Y-53000000D03*
X91000000Y-118000000D03*
X69500000Y-86250000D03*
X107750000Y-77250000D03*
X116000000Y-88000000D03*
X95724999Y-97500000D03*
X86000000Y-93000000D03*
X98900000Y-95250000D03*
X76000000Y-73000000D03*
X96000000Y-68000000D03*
X91000000Y-58000000D03*
X86000000Y-78000000D03*
X86000000Y-98000000D03*
X105750000Y-96250000D03*
X76000000Y-103000000D03*
X111000000Y-88000000D03*
X107000000Y-89250000D03*
X69806305Y-95612933D03*
X66500000Y-75500000D03*
X81000000Y-118000000D03*
X66000000Y-88000000D03*
X96000000Y-103000000D03*
X76000000Y-68000000D03*
X115000000Y-79250000D03*
X121000000Y-88000000D03*
X81000000Y-53000000D03*
X91000000Y-73000000D03*
X102375000Y-90650000D03*
X81000000Y-58000000D03*
X81000000Y-113000000D03*
X86000000Y-73000000D03*
X74500000Y-80500000D03*
X106000000Y-80000000D03*
X81000000Y-108000000D03*
X96000000Y-108000000D03*
X106000000Y-88000000D03*
X90750000Y-60500000D03*
X61000000Y-88000000D03*
X104650000Y-87650000D03*
X86000000Y-83000000D03*
X86000000Y-58000000D03*
X107500000Y-99250000D03*
X91000000Y-53000000D03*
X102000000Y-80150000D03*
X76000000Y-108000000D03*
X116250000Y-89000000D03*
X96000000Y-118000000D03*
X100750000Y-89000000D03*
%TO.N,+3.3V*%
X109000000Y-95750000D03*
X102750000Y-97750000D03*
X63000000Y-82250000D03*
X86750000Y-103500000D03*
X109000000Y-82250000D03*
X113500000Y-94250000D03*
X53750000Y-94250000D03*
X102500000Y-88000000D03*
X69500000Y-88250000D03*
X69250000Y-78750000D03*
X113750000Y-82250000D03*
X62500000Y-94750000D03*
X84750000Y-68750000D03*
X58000000Y-82000000D03*
X78750000Y-65250000D03*
%TO.N,/MA_00*%
X58000000Y-81000000D03*
X67349999Y-82520865D03*
%TO.N,/EB_00*%
X57000000Y-83000000D03*
X78500000Y-87000000D03*
%TO.N,/MB_00*%
X68250000Y-82550000D03*
X58049265Y-80049265D03*
%TO.N,/EA_00*%
X57000000Y-84000000D03*
X78500000Y-88250000D03*
%TO.N,/EB_20*%
X93750000Y-80750000D03*
X112500000Y-78250000D03*
%TO.N,/MB_20*%
X104000000Y-85000000D03*
X113872932Y-85123507D03*
%TO.N,/MA_20*%
X113875000Y-84125000D03*
X104800003Y-85000000D03*
%TO.N,/EA_20*%
X93500000Y-82000000D03*
X112500000Y-79250000D03*
%TO.N,/EB_01*%
X78500000Y-89250000D03*
X67233003Y-84666614D03*
%TO.N,/EA_01*%
X78375000Y-90250000D03*
X66594205Y-85148217D03*
%TO.N,/EA_21*%
X93565300Y-84250000D03*
X105271382Y-82113531D03*
%TO.N,/EB_21*%
X105750000Y-81250000D03*
X93500000Y-83250000D03*
%TO.N,/EA_10*%
X78500000Y-92750000D03*
X59000000Y-95000000D03*
%TO.N,/EB_10*%
X59000000Y-94000000D03*
X78250000Y-91750000D03*
%TO.N,/MB_10*%
X58750000Y-91000000D03*
X68000000Y-91500000D03*
%TO.N,/MA_10*%
X58500000Y-92000000D03*
X67747017Y-92258949D03*
%TO.N,/MA_30*%
X113049265Y-95299265D03*
X105149999Y-94007224D03*
%TO.N,/EA_30*%
X93500000Y-86750000D03*
X115250000Y-92950000D03*
%TO.N,/MB_30*%
X105250000Y-95000000D03*
X112500000Y-96000000D03*
%TO.N,/EB_30*%
X113949997Y-92750000D03*
X93750000Y-85500000D03*
%TO.N,/EA_11*%
X66750000Y-95750000D03*
X78250000Y-95250000D03*
%TO.N,/EB_11*%
X78500000Y-94000000D03*
X66750000Y-94500000D03*
%TO.N,/EB_31*%
X105500000Y-90500000D03*
X93250000Y-88000000D03*
%TO.N,/EA_31*%
X93500000Y-89000000D03*
X105475737Y-91324266D03*
%TO.N,/SW_00*%
X78750000Y-62000000D03*
%TO.N,/SW_01*%
X78750000Y-63000000D03*
%TO.N,/SW_10*%
X82750000Y-61500000D03*
%TO.N,/SW_11*%
X83000000Y-62827500D03*
X68750000Y-91000000D03*
%TO.N,/SW_20*%
X93750000Y-64750000D03*
%TO.N,/SW_21*%
X91750000Y-62250000D03*
%TO.N,/SW_30*%
X94250000Y-63500000D03*
%TO.N,/SW_31*%
X92500000Y-62750000D03*
%TO.N,+12V*%
X79500000Y-102750000D03*
X80500000Y-103750000D03*
X79500000Y-104750000D03*
X100800000Y-97550000D03*
X72500000Y-90750000D03*
X71000000Y-79000000D03*
X81500000Y-104750000D03*
X99950000Y-85500000D03*
%TD*%
D15*
%TO.N,/EB_00*%
X60750000Y-83000000D02*
X61250000Y-83500000D01*
X75000000Y-83500000D02*
X78500000Y-87000000D01*
X61250000Y-83500000D02*
X75000000Y-83500000D01*
X57000000Y-83000000D02*
X60750000Y-83000000D01*
%TO.N,/EA_00*%
X57000000Y-84000000D02*
X74250000Y-84000000D01*
X74250000Y-84000000D02*
X78500000Y-88250000D01*
%TO.N,/EB_20*%
X96250000Y-78250000D02*
X112500000Y-78250000D01*
X93750000Y-80750000D02*
X96250000Y-78250000D01*
%TO.N,/EA_20*%
X112500000Y-79250000D02*
X96250000Y-79250000D01*
X96250000Y-79250000D02*
X93500000Y-82000000D01*
%TO.N,/EB_01*%
X74000000Y-84750000D02*
X78500000Y-89250000D01*
X67233003Y-84666614D02*
X67316389Y-84750000D01*
X67316389Y-84750000D02*
X74000000Y-84750000D01*
%TO.N,/EA_01*%
X73750000Y-85500000D02*
X78375000Y-90125000D01*
X66945988Y-85500000D02*
X73750000Y-85500000D01*
X66594205Y-85148217D02*
X66945988Y-85500000D01*
X78375000Y-90125000D02*
X78375000Y-90250000D01*
%TO.N,/EA_21*%
X93565300Y-84184700D02*
X93565300Y-84250000D01*
X104657851Y-81500000D02*
X96250000Y-81500000D01*
X105271382Y-82113531D02*
X104657851Y-81500000D01*
X96250000Y-81500000D02*
X93565300Y-84184700D01*
%TO.N,/EB_21*%
X93500000Y-83250000D02*
X96000000Y-80750000D01*
X96000000Y-80750000D02*
X105250000Y-80750000D01*
X105250000Y-80750000D02*
X105750000Y-81250000D01*
%TO.N,/EA_10*%
X60250000Y-93750000D02*
X59000000Y-95000000D01*
X78500000Y-92750000D02*
X77500000Y-93750000D01*
X77500000Y-93750000D02*
X60250000Y-93750000D01*
%TO.N,/EB_10*%
X78250000Y-91750000D02*
X76750000Y-93250000D01*
X59750000Y-93250000D02*
X59000000Y-94000000D01*
X76750000Y-93250000D02*
X59750000Y-93250000D01*
%TO.N,/EA_30*%
X115250000Y-92950000D02*
X114998526Y-92950000D01*
X114998526Y-92950000D02*
X114198526Y-92150000D01*
X92650000Y-87600000D02*
X93500000Y-86750000D01*
X111250000Y-93000000D02*
X96250000Y-93000000D01*
X112100000Y-92150000D02*
X111250000Y-93000000D01*
X114198526Y-92150000D02*
X112100000Y-92150000D01*
X96250000Y-93000000D02*
X92650000Y-89400000D01*
X92650000Y-89400000D02*
X92650000Y-87600000D01*
%TO.N,/EB_30*%
X95650000Y-93400000D02*
X92250000Y-90000000D01*
X113949997Y-92750000D02*
X112250000Y-92750000D01*
X111600000Y-93400000D02*
X95650000Y-93400000D01*
X92250000Y-87000000D02*
X93750000Y-85500000D01*
X112250000Y-92750000D02*
X111600000Y-93400000D01*
X92250000Y-90000000D02*
X92250000Y-87000000D01*
%TO.N,/EA_11*%
X78250000Y-95250000D02*
X77900000Y-94900000D01*
X77900000Y-94900000D02*
X67600000Y-94900000D01*
X67600000Y-94900000D02*
X66750000Y-95750000D01*
%TO.N,/EB_11*%
X78500000Y-94000000D02*
X78000000Y-94500000D01*
X78000000Y-94500000D02*
X66750000Y-94500000D01*
%TO.N,/EB_31*%
X104701474Y-91250000D02*
X96750000Y-91250000D01*
X93500000Y-88000000D02*
X93250000Y-88000000D01*
X105500000Y-90500000D02*
X105275734Y-90724266D01*
X105227208Y-90724266D02*
X104701474Y-91250000D01*
X96750000Y-91250000D02*
X93500000Y-88000000D01*
X105275734Y-90724266D02*
X105227208Y-90724266D01*
%TO.N,/EA_31*%
X105050003Y-91750000D02*
X96250000Y-91750000D01*
X96250000Y-91750000D02*
X93500000Y-89000000D01*
X105475737Y-91324266D02*
X105050003Y-91750000D01*
%TD*%
%TA.AperFunction,Conductor*%
%TO.N,+12V*%
G36*
X80218967Y-52520185D02*
G01*
X80264722Y-52572989D01*
X80274666Y-52642147D01*
X80268970Y-52665454D01*
X80214632Y-52820742D01*
X80214630Y-52820750D01*
X80194435Y-52999996D01*
X80194435Y-53000003D01*
X80214630Y-53179249D01*
X80214631Y-53179254D01*
X80274211Y-53349523D01*
X80296748Y-53385390D01*
X80370184Y-53502262D01*
X80497738Y-53629816D01*
X80650478Y-53725789D01*
X80799491Y-53777931D01*
X80820745Y-53785368D01*
X80820750Y-53785369D01*
X80999996Y-53805565D01*
X81000000Y-53805565D01*
X81000004Y-53805565D01*
X81179249Y-53785369D01*
X81179252Y-53785368D01*
X81179255Y-53785368D01*
X81349522Y-53725789D01*
X81502262Y-53629816D01*
X81629816Y-53502262D01*
X81725789Y-53349522D01*
X81785368Y-53179255D01*
X81785369Y-53179249D01*
X81805565Y-53000003D01*
X81805565Y-52999996D01*
X81785369Y-52820750D01*
X81785367Y-52820742D01*
X81731030Y-52665454D01*
X81727469Y-52595676D01*
X81762198Y-52535048D01*
X81824191Y-52502821D01*
X81848072Y-52500500D01*
X85151928Y-52500500D01*
X85218967Y-52520185D01*
X85264722Y-52572989D01*
X85274666Y-52642147D01*
X85268970Y-52665454D01*
X85214632Y-52820742D01*
X85214630Y-52820750D01*
X85194435Y-52999996D01*
X85194435Y-53000003D01*
X85214630Y-53179249D01*
X85214631Y-53179254D01*
X85274211Y-53349523D01*
X85296748Y-53385390D01*
X85370184Y-53502262D01*
X85497738Y-53629816D01*
X85650478Y-53725789D01*
X85799491Y-53777931D01*
X85820745Y-53785368D01*
X85820750Y-53785369D01*
X85999996Y-53805565D01*
X86000000Y-53805565D01*
X86000004Y-53805565D01*
X86179249Y-53785369D01*
X86179252Y-53785368D01*
X86179255Y-53785368D01*
X86349522Y-53725789D01*
X86502262Y-53629816D01*
X86629816Y-53502262D01*
X86725789Y-53349522D01*
X86785368Y-53179255D01*
X86785369Y-53179249D01*
X86805565Y-53000003D01*
X86805565Y-52999996D01*
X86785369Y-52820750D01*
X86785367Y-52820742D01*
X86731030Y-52665454D01*
X86727469Y-52595676D01*
X86762198Y-52535048D01*
X86824191Y-52502821D01*
X86848072Y-52500500D01*
X90151928Y-52500500D01*
X90218967Y-52520185D01*
X90264722Y-52572989D01*
X90274666Y-52642147D01*
X90268970Y-52665454D01*
X90214632Y-52820742D01*
X90214630Y-52820750D01*
X90194435Y-52999996D01*
X90194435Y-53000003D01*
X90214630Y-53179249D01*
X90214631Y-53179254D01*
X90274211Y-53349523D01*
X90296748Y-53385390D01*
X90370184Y-53502262D01*
X90497738Y-53629816D01*
X90650478Y-53725789D01*
X90799491Y-53777931D01*
X90820745Y-53785368D01*
X90820750Y-53785369D01*
X90999996Y-53805565D01*
X91000000Y-53805565D01*
X91000004Y-53805565D01*
X91179249Y-53785369D01*
X91179252Y-53785368D01*
X91179255Y-53785368D01*
X91349522Y-53725789D01*
X91502262Y-53629816D01*
X91629816Y-53502262D01*
X91725789Y-53349522D01*
X91785368Y-53179255D01*
X91785369Y-53179249D01*
X91805565Y-53000003D01*
X91805565Y-52999996D01*
X91785369Y-52820750D01*
X91785367Y-52820742D01*
X91731030Y-52665454D01*
X91727469Y-52595676D01*
X91762198Y-52535048D01*
X91824191Y-52502821D01*
X91848072Y-52500500D01*
X94934108Y-52500500D01*
X94995572Y-52500500D01*
X95004418Y-52500816D01*
X95204561Y-52515130D01*
X95222063Y-52517647D01*
X95413797Y-52559355D01*
X95430755Y-52564334D01*
X95614609Y-52632909D01*
X95630701Y-52640259D01*
X95802904Y-52734288D01*
X95817784Y-52743849D01*
X95974867Y-52861441D01*
X95988237Y-52873027D01*
X96126972Y-53011762D01*
X96138558Y-53025132D01*
X96256146Y-53182210D01*
X96265711Y-53197095D01*
X96359740Y-53369298D01*
X96367090Y-53385390D01*
X96435662Y-53569236D01*
X96440646Y-53586212D01*
X96482351Y-53777931D01*
X96484869Y-53795442D01*
X96499184Y-53995580D01*
X96499500Y-54004427D01*
X96499500Y-63934108D01*
X96499500Y-64065892D01*
X96499501Y-64065894D01*
X96533608Y-64193187D01*
X96552431Y-64225789D01*
X96599500Y-64307314D01*
X96599501Y-64307315D01*
X96599502Y-64307316D01*
X109595159Y-77302972D01*
X109595169Y-77302983D01*
X109599500Y-77307314D01*
X109692686Y-77400500D01*
X109723193Y-77418113D01*
X109771408Y-77468681D01*
X109784630Y-77537288D01*
X109758662Y-77602152D01*
X109701748Y-77642680D01*
X109661192Y-77649500D01*
X108633063Y-77649500D01*
X108566024Y-77629815D01*
X108520269Y-77577011D01*
X108510325Y-77507853D01*
X108516022Y-77484545D01*
X108535366Y-77429262D01*
X108535369Y-77429249D01*
X108555565Y-77250003D01*
X108555565Y-77249996D01*
X108535369Y-77070750D01*
X108535368Y-77070745D01*
X108475788Y-76900476D01*
X108379815Y-76747737D01*
X108252262Y-76620184D01*
X108099523Y-76524211D01*
X107929254Y-76464631D01*
X107929249Y-76464630D01*
X107750004Y-76444435D01*
X107749996Y-76444435D01*
X107570750Y-76464630D01*
X107570745Y-76464631D01*
X107400476Y-76524211D01*
X107247737Y-76620184D01*
X107120184Y-76747737D01*
X107024211Y-76900476D01*
X106964631Y-77070745D01*
X106964630Y-77070750D01*
X106944435Y-77249996D01*
X106944435Y-77250003D01*
X106964630Y-77429249D01*
X106964633Y-77429262D01*
X106983978Y-77484545D01*
X106987540Y-77554324D01*
X106952812Y-77614951D01*
X106890818Y-77647179D01*
X106866937Y-77649500D01*
X96336669Y-77649500D01*
X96336653Y-77649499D01*
X96329057Y-77649499D01*
X96170943Y-77649499D01*
X96063587Y-77678265D01*
X96018210Y-77690424D01*
X96018209Y-77690425D01*
X95983066Y-77710716D01*
X95983064Y-77710717D01*
X95881290Y-77769475D01*
X95881282Y-77769481D01*
X95769478Y-77881286D01*
X93731465Y-79919298D01*
X93670142Y-79952783D01*
X93657668Y-79954837D01*
X93570750Y-79964630D01*
X93400478Y-80024210D01*
X93247737Y-80120184D01*
X93120184Y-80247737D01*
X93024211Y-80400476D01*
X92964631Y-80570745D01*
X92964630Y-80570750D01*
X92944435Y-80749996D01*
X92944435Y-80750003D01*
X92964630Y-80929249D01*
X92964631Y-80929254D01*
X93024211Y-81099523D01*
X93072674Y-81176651D01*
X93091674Y-81243888D01*
X93071306Y-81310723D01*
X93033654Y-81347616D01*
X92997736Y-81370185D01*
X92870184Y-81497737D01*
X92774211Y-81650476D01*
X92714631Y-81820745D01*
X92714630Y-81820750D01*
X92694435Y-81999996D01*
X92694435Y-82000003D01*
X92714630Y-82179249D01*
X92714631Y-82179254D01*
X92774211Y-82349523D01*
X92870184Y-82502262D01*
X92905241Y-82537319D01*
X92938726Y-82598642D01*
X92933742Y-82668334D01*
X92905241Y-82712681D01*
X92870184Y-82747737D01*
X92774211Y-82900476D01*
X92714631Y-83070745D01*
X92714630Y-83070750D01*
X92694435Y-83249996D01*
X92694435Y-83250003D01*
X92714630Y-83429249D01*
X92714631Y-83429254D01*
X92774211Y-83599523D01*
X92859959Y-83735989D01*
X92878959Y-83803226D01*
X92859961Y-83867930D01*
X92839509Y-83900481D01*
X92779933Y-84070737D01*
X92779930Y-84070750D01*
X92759735Y-84249996D01*
X92759735Y-84250003D01*
X92779930Y-84429249D01*
X92779931Y-84429254D01*
X92839511Y-84599523D01*
X92897538Y-84691872D01*
X92935484Y-84752262D01*
X93063038Y-84879816D01*
X93063040Y-84879817D01*
X93063832Y-84880449D01*
X93064211Y-84880989D01*
X93067962Y-84884740D01*
X93067304Y-84885397D01*
X93103972Y-84937638D01*
X93106821Y-85007450D01*
X93091512Y-85043366D01*
X93024211Y-85150475D01*
X92964630Y-85320750D01*
X92954837Y-85407668D01*
X92927770Y-85472082D01*
X92919298Y-85481465D01*
X91881286Y-86519478D01*
X91769481Y-86631282D01*
X91769479Y-86631285D01*
X91719361Y-86718094D01*
X91719359Y-86718096D01*
X91690425Y-86768209D01*
X91690424Y-86768210D01*
X91690423Y-86768215D01*
X91649499Y-86920943D01*
X91649499Y-86920945D01*
X91649499Y-87089046D01*
X91649500Y-87089059D01*
X91649500Y-89913330D01*
X91649499Y-89913348D01*
X91649499Y-90079054D01*
X91649498Y-90079054D01*
X91690423Y-90231786D01*
X91692997Y-90236243D01*
X91700940Y-90250000D01*
X91741787Y-90320750D01*
X91769479Y-90368714D01*
X91769481Y-90368717D01*
X91888349Y-90487585D01*
X91888355Y-90487590D01*
X95165139Y-93764374D01*
X95165149Y-93764385D01*
X95169479Y-93768715D01*
X95169480Y-93768716D01*
X95281284Y-93880520D01*
X95368095Y-93930639D01*
X95368097Y-93930641D01*
X95406151Y-93952611D01*
X95418215Y-93959577D01*
X95570943Y-94000500D01*
X104232863Y-94000500D01*
X104299902Y-94020185D01*
X104345657Y-94072989D01*
X104356083Y-94110617D01*
X104364629Y-94186473D01*
X104364630Y-94186478D01*
X104424210Y-94356747D01*
X104491998Y-94464630D01*
X104514224Y-94500003D01*
X104523888Y-94515382D01*
X104521668Y-94516776D01*
X104543537Y-94570339D01*
X104530783Y-94639035D01*
X104525183Y-94648930D01*
X104524210Y-94650478D01*
X104464633Y-94820737D01*
X104464630Y-94820750D01*
X104444435Y-94999996D01*
X104444435Y-95000003D01*
X104464630Y-95179249D01*
X104464631Y-95179254D01*
X104524211Y-95349523D01*
X104603549Y-95475788D01*
X104620184Y-95502262D01*
X104747738Y-95629816D01*
X104900476Y-95725788D01*
X104900478Y-95725789D01*
X104948129Y-95742463D01*
X105004905Y-95783185D01*
X105030653Y-95848138D01*
X105024217Y-95900459D01*
X104964632Y-96070742D01*
X104964630Y-96070750D01*
X104944435Y-96249996D01*
X104944435Y-96250003D01*
X104964630Y-96429249D01*
X104964631Y-96429254D01*
X105024211Y-96599523D01*
X105083849Y-96694435D01*
X105120184Y-96752262D01*
X105247738Y-96879816D01*
X105334143Y-96934108D01*
X105382721Y-96964632D01*
X105400478Y-96975789D01*
X105482295Y-97004418D01*
X105570745Y-97035368D01*
X105570750Y-97035369D01*
X105749996Y-97055565D01*
X105750000Y-97055565D01*
X105750004Y-97055565D01*
X105929249Y-97035369D01*
X105929252Y-97035368D01*
X105929255Y-97035368D01*
X106099522Y-96975789D01*
X106252262Y-96879816D01*
X106379816Y-96752262D01*
X106475789Y-96599522D01*
X106535368Y-96429255D01*
X106538856Y-96398301D01*
X106555565Y-96250003D01*
X106555565Y-96249996D01*
X106535369Y-96070750D01*
X106535368Y-96070745D01*
X106497476Y-95962456D01*
X106475789Y-95900478D01*
X106381235Y-95749996D01*
X108194435Y-95749996D01*
X108194435Y-95750003D01*
X108214630Y-95929249D01*
X108214631Y-95929254D01*
X108274211Y-96099523D01*
X108364206Y-96242748D01*
X108370184Y-96252262D01*
X108497738Y-96379816D01*
X108650478Y-96475789D01*
X108820745Y-96535368D01*
X108820750Y-96535369D01*
X108999996Y-96555565D01*
X109000000Y-96555565D01*
X109000004Y-96555565D01*
X109179249Y-96535369D01*
X109179252Y-96535368D01*
X109179255Y-96535368D01*
X109349522Y-96475789D01*
X109502262Y-96379816D01*
X109629816Y-96252262D01*
X109725789Y-96099522D01*
X109785368Y-95929255D01*
X109785388Y-95929080D01*
X109805565Y-95750003D01*
X109805565Y-95749996D01*
X109785369Y-95570750D01*
X109785368Y-95570745D01*
X109747287Y-95461917D01*
X109725789Y-95400478D01*
X109629816Y-95247738D01*
X109502262Y-95120184D01*
X109467978Y-95098642D01*
X109349523Y-95024211D01*
X109179254Y-94964631D01*
X109179249Y-94964630D01*
X109000004Y-94944435D01*
X108999996Y-94944435D01*
X108820750Y-94964630D01*
X108820745Y-94964631D01*
X108650476Y-95024211D01*
X108497737Y-95120184D01*
X108370184Y-95247737D01*
X108274211Y-95400476D01*
X108214631Y-95570745D01*
X108214630Y-95570750D01*
X108194435Y-95749996D01*
X106381235Y-95749996D01*
X106379816Y-95747738D01*
X106252262Y-95620184D01*
X106099522Y-95524211D01*
X106099519Y-95524209D01*
X106051868Y-95507535D01*
X105995092Y-95466814D01*
X105969345Y-95401861D01*
X105975782Y-95349538D01*
X105975785Y-95349527D01*
X105975789Y-95349522D01*
X106035368Y-95179255D01*
X106035369Y-95179249D01*
X106055565Y-95000003D01*
X106055565Y-94999996D01*
X106035369Y-94820750D01*
X106035368Y-94820745D01*
X105989365Y-94689276D01*
X105975789Y-94650478D01*
X105974816Y-94648930D01*
X105922690Y-94565971D01*
X105879816Y-94497738D01*
X105879815Y-94497737D01*
X105876111Y-94491842D01*
X105878326Y-94490450D01*
X105856458Y-94436855D01*
X105869227Y-94368162D01*
X105874813Y-94358297D01*
X105875788Y-94356746D01*
X105935367Y-94186479D01*
X105943915Y-94110617D01*
X105970981Y-94046203D01*
X106028576Y-94006648D01*
X106067135Y-94000500D01*
X111513331Y-94000500D01*
X111513347Y-94000501D01*
X111520943Y-94000501D01*
X111679054Y-94000501D01*
X111679057Y-94000501D01*
X111831785Y-93959577D01*
X111881904Y-93930639D01*
X111968716Y-93880520D01*
X112080520Y-93768716D01*
X112080520Y-93768714D01*
X112090728Y-93758507D01*
X112090729Y-93758504D01*
X112462416Y-93386819D01*
X112523739Y-93353334D01*
X112550097Y-93350500D01*
X112996524Y-93350500D01*
X113063563Y-93370185D01*
X113109318Y-93422989D01*
X113119262Y-93492147D01*
X113090237Y-93555703D01*
X113062496Y-93579493D01*
X113047494Y-93588919D01*
X112997737Y-93620184D01*
X112870184Y-93747737D01*
X112774211Y-93900476D01*
X112714631Y-94070745D01*
X112714630Y-94070750D01*
X112694435Y-94249996D01*
X112694435Y-94250003D01*
X112714630Y-94429246D01*
X112714631Y-94429252D01*
X112714631Y-94429254D01*
X112714632Y-94429255D01*
X112717291Y-94436855D01*
X112720658Y-94446475D01*
X112724219Y-94516254D01*
X112689490Y-94576881D01*
X112669589Y-94592422D01*
X112547004Y-94669447D01*
X112419449Y-94797002D01*
X112323475Y-94949743D01*
X112263895Y-95120015D01*
X112259187Y-95161801D01*
X112232119Y-95226215D01*
X112176924Y-95264957D01*
X112150475Y-95274212D01*
X111997737Y-95370184D01*
X111870184Y-95497737D01*
X111774211Y-95650476D01*
X111714631Y-95820745D01*
X111714630Y-95820750D01*
X111694435Y-95999996D01*
X111694435Y-96000003D01*
X111714630Y-96179249D01*
X111714631Y-96179254D01*
X111774211Y-96349523D01*
X111853549Y-96475788D01*
X111870184Y-96502262D01*
X111997738Y-96629816D01*
X112088080Y-96686582D01*
X112132721Y-96714632D01*
X112150478Y-96725789D01*
X112288860Y-96774211D01*
X112320745Y-96785368D01*
X112320750Y-96785369D01*
X112499996Y-96805565D01*
X112500000Y-96805565D01*
X112500004Y-96805565D01*
X112679249Y-96785369D01*
X112679252Y-96785368D01*
X112679255Y-96785368D01*
X112849522Y-96725789D01*
X113002262Y-96629816D01*
X113129816Y-96502262D01*
X113225789Y-96349522D01*
X113285368Y-96179255D01*
X113290076Y-96137464D01*
X113317140Y-96073053D01*
X113372343Y-96034306D01*
X113398787Y-96025054D01*
X113551527Y-95929081D01*
X113679081Y-95801527D01*
X113775054Y-95648787D01*
X113834633Y-95478520D01*
X113840184Y-95429254D01*
X113854830Y-95299268D01*
X113854830Y-95299261D01*
X113834634Y-95120016D01*
X113834633Y-95120014D01*
X113834633Y-95120010D01*
X113828606Y-95102788D01*
X113825044Y-95033013D01*
X113859772Y-94972385D01*
X113879669Y-94956845D01*
X114002262Y-94879816D01*
X114129816Y-94752262D01*
X114225789Y-94599522D01*
X114285368Y-94429255D01*
X114286074Y-94422989D01*
X114305565Y-94250003D01*
X114305565Y-94249996D01*
X114285369Y-94070750D01*
X114285368Y-94070745D01*
X114262939Y-94006648D01*
X114225789Y-93900478D01*
X114129816Y-93747738D01*
X114111893Y-93729815D01*
X114078408Y-93668492D01*
X114083392Y-93598800D01*
X114125264Y-93542867D01*
X114158619Y-93525092D01*
X114161137Y-93524211D01*
X114299519Y-93475789D01*
X114317279Y-93464630D01*
X114336962Y-93452262D01*
X114435022Y-93390646D01*
X114502257Y-93371646D01*
X114569092Y-93392013D01*
X114605987Y-93429668D01*
X114619628Y-93451378D01*
X114620184Y-93452262D01*
X114747738Y-93579816D01*
X114838080Y-93636582D01*
X114860192Y-93650476D01*
X114900478Y-93675789D01*
X115070745Y-93735368D01*
X115070750Y-93735369D01*
X115249996Y-93755565D01*
X115250000Y-93755565D01*
X115250004Y-93755565D01*
X115429249Y-93735369D01*
X115429252Y-93735368D01*
X115429255Y-93735368D01*
X115599522Y-93675789D01*
X115752262Y-93579816D01*
X115879816Y-93452262D01*
X115975789Y-93299522D01*
X116035368Y-93129255D01*
X116049931Y-93000003D01*
X116055565Y-92950003D01*
X116055565Y-92949996D01*
X116035369Y-92770750D01*
X116035368Y-92770745D01*
X115993284Y-92650476D01*
X115975789Y-92600478D01*
X115957106Y-92570745D01*
X115879815Y-92447737D01*
X115752262Y-92320184D01*
X115599523Y-92224211D01*
X115429254Y-92164631D01*
X115429249Y-92164630D01*
X115250004Y-92144435D01*
X115249996Y-92144435D01*
X115122577Y-92158791D01*
X115053755Y-92146736D01*
X115021013Y-92123252D01*
X114686116Y-91788355D01*
X114686114Y-91788352D01*
X114567243Y-91669481D01*
X114567235Y-91669475D01*
X114479315Y-91618715D01*
X114479314Y-91618715D01*
X114450260Y-91601941D01*
X114430311Y-91590423D01*
X114277583Y-91549499D01*
X114119469Y-91549499D01*
X114111873Y-91549499D01*
X114111857Y-91549500D01*
X112186670Y-91549500D01*
X112186654Y-91549499D01*
X112179058Y-91549499D01*
X112020943Y-91549499D01*
X111944579Y-91569961D01*
X111868214Y-91590423D01*
X111868209Y-91590426D01*
X111731290Y-91669475D01*
X111731282Y-91669481D01*
X111037584Y-92363181D01*
X110976261Y-92396666D01*
X110949903Y-92399500D01*
X105549102Y-92399500D01*
X105482063Y-92379815D01*
X105436308Y-92327011D01*
X105426364Y-92257853D01*
X105455389Y-92194297D01*
X105461419Y-92187820D01*
X105494271Y-92154967D01*
X105555594Y-92121481D01*
X105568053Y-92119428D01*
X105654992Y-92109634D01*
X105825259Y-92050055D01*
X105977999Y-91954082D01*
X106105553Y-91826528D01*
X106201526Y-91673788D01*
X106261105Y-91503521D01*
X106261247Y-91502262D01*
X106281302Y-91324269D01*
X106281302Y-91324262D01*
X106261106Y-91145016D01*
X106261103Y-91145003D01*
X106201784Y-90975479D01*
X106198222Y-90905700D01*
X106213833Y-90868549D01*
X106225789Y-90849522D01*
X106285368Y-90679255D01*
X106285369Y-90679249D01*
X106305565Y-90500003D01*
X106305565Y-90499996D01*
X106285369Y-90320750D01*
X106285368Y-90320745D01*
X106260613Y-90250000D01*
X106225789Y-90150478D01*
X106224067Y-90147738D01*
X106180910Y-90079054D01*
X106129816Y-89997738D01*
X106002262Y-89870184D01*
X105993426Y-89864632D01*
X105849523Y-89774211D01*
X105679254Y-89714631D01*
X105679249Y-89714630D01*
X105500004Y-89694435D01*
X105499996Y-89694435D01*
X105320750Y-89714630D01*
X105320745Y-89714631D01*
X105150476Y-89774211D01*
X104997737Y-89870184D01*
X104870184Y-89997737D01*
X104774210Y-90150478D01*
X104714632Y-90320744D01*
X104714632Y-90320745D01*
X104713005Y-90335175D01*
X104710999Y-90352983D01*
X104683930Y-90417396D01*
X104675461Y-90426777D01*
X104489056Y-90613182D01*
X104427736Y-90646666D01*
X104401377Y-90649500D01*
X103291322Y-90649500D01*
X103224283Y-90629815D01*
X103178528Y-90577011D01*
X103168102Y-90539383D01*
X103160369Y-90470750D01*
X103160368Y-90470748D01*
X103160368Y-90470745D01*
X103100789Y-90300478D01*
X103004816Y-90147738D01*
X102877262Y-90020184D01*
X102724523Y-89924211D01*
X102554254Y-89864631D01*
X102554249Y-89864630D01*
X102375004Y-89844435D01*
X102374996Y-89844435D01*
X102195750Y-89864630D01*
X102195745Y-89864631D01*
X102025476Y-89924211D01*
X101872737Y-90020184D01*
X101745184Y-90147737D01*
X101649210Y-90300478D01*
X101589630Y-90470750D01*
X101581898Y-90539383D01*
X101554832Y-90603797D01*
X101497237Y-90643352D01*
X101458678Y-90649500D01*
X97050097Y-90649500D01*
X96983058Y-90629815D01*
X96962416Y-90613181D01*
X95349231Y-88999996D01*
X99944435Y-88999996D01*
X99944435Y-89000003D01*
X99964630Y-89179249D01*
X99964631Y-89179254D01*
X100024211Y-89349523D01*
X100120184Y-89502262D01*
X100247738Y-89629816D01*
X100338080Y-89686582D01*
X100382721Y-89714632D01*
X100400478Y-89725789D01*
X100516043Y-89766227D01*
X100570745Y-89785368D01*
X100570750Y-89785369D01*
X100749996Y-89805565D01*
X100750000Y-89805565D01*
X100750004Y-89805565D01*
X100929249Y-89785369D01*
X100929252Y-89785368D01*
X100929255Y-89785368D01*
X101099522Y-89725789D01*
X101252262Y-89629816D01*
X101379816Y-89502262D01*
X101475789Y-89349522D01*
X101535368Y-89179255D01*
X101535369Y-89179249D01*
X101555565Y-89000003D01*
X101555565Y-88999996D01*
X101535369Y-88820750D01*
X101535368Y-88820745D01*
X101487528Y-88684027D01*
X101475789Y-88650478D01*
X101473974Y-88647590D01*
X101396450Y-88524211D01*
X101379816Y-88497738D01*
X101252262Y-88370184D01*
X101190511Y-88331383D01*
X101099523Y-88274211D01*
X100929254Y-88214631D01*
X100929249Y-88214630D01*
X100750004Y-88194435D01*
X100749996Y-88194435D01*
X100570750Y-88214630D01*
X100570745Y-88214631D01*
X100400476Y-88274211D01*
X100247737Y-88370184D01*
X100120184Y-88497737D01*
X100024211Y-88650476D01*
X99964631Y-88820745D01*
X99964630Y-88820750D01*
X99944435Y-88999996D01*
X95349231Y-88999996D01*
X94349231Y-87999996D01*
X101694435Y-87999996D01*
X101694435Y-88000003D01*
X101714630Y-88179249D01*
X101714631Y-88179254D01*
X101774211Y-88349523D01*
X101840842Y-88455565D01*
X101870184Y-88502262D01*
X101997738Y-88629816D01*
X102150478Y-88725789D01*
X102308353Y-88781032D01*
X102320745Y-88785368D01*
X102320750Y-88785369D01*
X102499996Y-88805565D01*
X102500000Y-88805565D01*
X102500004Y-88805565D01*
X102679249Y-88785369D01*
X102679252Y-88785368D01*
X102679255Y-88785368D01*
X102849522Y-88725789D01*
X103002262Y-88629816D01*
X103129816Y-88502262D01*
X103225789Y-88349522D01*
X103285368Y-88179255D01*
X103285369Y-88179249D01*
X103305565Y-88000003D01*
X103305565Y-87999996D01*
X103285369Y-87820750D01*
X103285368Y-87820745D01*
X103225788Y-87650476D01*
X103225486Y-87649996D01*
X103844435Y-87649996D01*
X103844435Y-87650003D01*
X103864630Y-87829249D01*
X103864631Y-87829254D01*
X103924211Y-87999523D01*
X104020184Y-88152262D01*
X104147738Y-88279816D01*
X104170667Y-88294223D01*
X104291557Y-88370184D01*
X104300478Y-88375789D01*
X104370558Y-88400311D01*
X104470745Y-88435368D01*
X104470750Y-88435369D01*
X104649996Y-88455565D01*
X104650000Y-88455565D01*
X104650004Y-88455565D01*
X104829249Y-88435369D01*
X104829252Y-88435368D01*
X104829255Y-88435368D01*
X104999522Y-88375789D01*
X105008443Y-88370184D01*
X105103295Y-88310584D01*
X105170532Y-88291583D01*
X105237367Y-88311950D01*
X105274261Y-88349604D01*
X105370182Y-88502260D01*
X105370184Y-88502262D01*
X105497738Y-88629816D01*
X105650478Y-88725789D01*
X105808353Y-88781032D01*
X105820745Y-88785368D01*
X105820750Y-88785369D01*
X105999996Y-88805565D01*
X106000000Y-88805565D01*
X106000003Y-88805565D01*
X106123935Y-88791601D01*
X106192757Y-88803655D01*
X106244137Y-88851004D01*
X106261761Y-88918615D01*
X106254861Y-88955775D01*
X106214632Y-89070742D01*
X106214630Y-89070750D01*
X106194435Y-89249996D01*
X106194435Y-89250003D01*
X106214630Y-89429249D01*
X106214631Y-89429254D01*
X106274211Y-89599523D01*
X106333849Y-89694435D01*
X106370184Y-89752262D01*
X106497738Y-89879816D01*
X106650478Y-89975789D01*
X106713202Y-89997737D01*
X106820745Y-90035368D01*
X106820750Y-90035369D01*
X106999996Y-90055565D01*
X107000000Y-90055565D01*
X107000004Y-90055565D01*
X107179249Y-90035369D01*
X107179252Y-90035368D01*
X107179255Y-90035368D01*
X107349522Y-89975789D01*
X107502262Y-89879816D01*
X107629816Y-89752262D01*
X107725789Y-89599522D01*
X107785368Y-89429255D01*
X107805565Y-89250000D01*
X107797593Y-89179249D01*
X107785369Y-89070750D01*
X107785368Y-89070745D01*
X107725788Y-88900476D01*
X107677854Y-88824190D01*
X107629816Y-88747738D01*
X107502262Y-88620184D01*
X107464173Y-88596251D01*
X107349523Y-88524211D01*
X107179254Y-88464631D01*
X107179249Y-88464630D01*
X107000004Y-88444435D01*
X106999996Y-88444435D01*
X106876063Y-88458398D01*
X106807241Y-88446343D01*
X106755862Y-88398994D01*
X106738238Y-88331383D01*
X106745139Y-88294223D01*
X106785366Y-88179262D01*
X106785369Y-88179249D01*
X106805565Y-88000003D01*
X106805565Y-87999996D01*
X110194435Y-87999996D01*
X110194435Y-88000003D01*
X110214630Y-88179249D01*
X110214631Y-88179254D01*
X110274211Y-88349523D01*
X110340842Y-88455565D01*
X110370184Y-88502262D01*
X110497738Y-88629816D01*
X110650478Y-88725789D01*
X110808353Y-88781032D01*
X110820745Y-88785368D01*
X110820750Y-88785369D01*
X110999996Y-88805565D01*
X111000000Y-88805565D01*
X111000004Y-88805565D01*
X111179249Y-88785369D01*
X111179252Y-88785368D01*
X111179255Y-88785368D01*
X111349522Y-88725789D01*
X111502262Y-88629816D01*
X111629816Y-88502262D01*
X111725789Y-88349522D01*
X111785368Y-88179255D01*
X111785369Y-88179249D01*
X111805565Y-88000003D01*
X111805565Y-87999996D01*
X115194435Y-87999996D01*
X115194435Y-88000003D01*
X115214630Y-88179249D01*
X115214631Y-88179254D01*
X115274211Y-88349523D01*
X115370184Y-88502262D01*
X115467610Y-88599688D01*
X115501095Y-88661011D01*
X115496971Y-88728323D01*
X115464632Y-88820742D01*
X115464630Y-88820750D01*
X115444435Y-88999996D01*
X115444435Y-89000003D01*
X115464630Y-89179249D01*
X115464631Y-89179254D01*
X115524211Y-89349523D01*
X115620184Y-89502262D01*
X115747738Y-89629816D01*
X115838080Y-89686582D01*
X115882721Y-89714632D01*
X115900478Y-89725789D01*
X116016043Y-89766227D01*
X116070745Y-89785368D01*
X116070750Y-89785369D01*
X116249996Y-89805565D01*
X116250000Y-89805565D01*
X116250004Y-89805565D01*
X116429249Y-89785369D01*
X116429252Y-89785368D01*
X116429255Y-89785368D01*
X116599522Y-89725789D01*
X116752262Y-89629816D01*
X116879816Y-89502262D01*
X116975789Y-89349522D01*
X117035368Y-89179255D01*
X117035369Y-89179249D01*
X117055565Y-89000003D01*
X117055565Y-88999996D01*
X117035369Y-88820750D01*
X117035368Y-88820745D01*
X116987528Y-88684027D01*
X116975789Y-88650478D01*
X116973974Y-88647590D01*
X116896450Y-88524211D01*
X116879816Y-88497738D01*
X116782389Y-88400311D01*
X116748904Y-88338988D01*
X116753029Y-88271674D01*
X116785367Y-88179259D01*
X116785369Y-88179249D01*
X116805565Y-88000003D01*
X116805565Y-87999996D01*
X116785369Y-87820750D01*
X116785368Y-87820745D01*
X116725788Y-87650476D01*
X116685340Y-87586104D01*
X116629816Y-87497738D01*
X116502262Y-87370184D01*
X116453297Y-87339417D01*
X116349523Y-87274211D01*
X116179254Y-87214631D01*
X116179249Y-87214630D01*
X116000004Y-87194435D01*
X115999996Y-87194435D01*
X115820750Y-87214630D01*
X115820745Y-87214631D01*
X115650476Y-87274211D01*
X115497737Y-87370184D01*
X115370184Y-87497737D01*
X115274211Y-87650476D01*
X115214631Y-87820745D01*
X115214630Y-87820750D01*
X115194435Y-87999996D01*
X111805565Y-87999996D01*
X111785369Y-87820750D01*
X111785368Y-87820745D01*
X111725788Y-87650476D01*
X111685340Y-87586104D01*
X111629816Y-87497738D01*
X111502262Y-87370184D01*
X111453297Y-87339417D01*
X111349523Y-87274211D01*
X111179254Y-87214631D01*
X111179249Y-87214630D01*
X111000004Y-87194435D01*
X110999996Y-87194435D01*
X110820750Y-87214630D01*
X110820745Y-87214631D01*
X110650476Y-87274211D01*
X110497737Y-87370184D01*
X110370184Y-87497737D01*
X110274211Y-87650476D01*
X110214631Y-87820745D01*
X110214630Y-87820750D01*
X110194435Y-87999996D01*
X106805565Y-87999996D01*
X106785369Y-87820750D01*
X106785368Y-87820745D01*
X106725788Y-87650476D01*
X106685340Y-87586104D01*
X106629816Y-87497738D01*
X106502262Y-87370184D01*
X106453297Y-87339417D01*
X106349523Y-87274211D01*
X106179254Y-87214631D01*
X106179249Y-87214630D01*
X106000004Y-87194435D01*
X105999996Y-87194435D01*
X105820750Y-87214630D01*
X105820745Y-87214631D01*
X105650476Y-87274211D01*
X105546703Y-87339417D01*
X105479466Y-87358417D01*
X105412631Y-87338049D01*
X105375737Y-87300395D01*
X105321847Y-87214630D01*
X105279816Y-87147738D01*
X105152262Y-87020184D01*
X105120144Y-87000003D01*
X104999523Y-86924211D01*
X104829254Y-86864631D01*
X104829249Y-86864630D01*
X104650004Y-86844435D01*
X104649996Y-86844435D01*
X104470750Y-86864630D01*
X104470745Y-86864631D01*
X104300476Y-86924211D01*
X104147737Y-87020184D01*
X104020184Y-87147737D01*
X103924211Y-87300476D01*
X103864631Y-87470745D01*
X103864630Y-87470750D01*
X103844435Y-87649996D01*
X103225486Y-87649996D01*
X103185340Y-87586104D01*
X103129816Y-87497738D01*
X103002262Y-87370184D01*
X102953297Y-87339417D01*
X102849523Y-87274211D01*
X102679254Y-87214631D01*
X102679249Y-87214630D01*
X102500004Y-87194435D01*
X102499996Y-87194435D01*
X102320750Y-87214630D01*
X102320745Y-87214631D01*
X102150476Y-87274211D01*
X101997737Y-87370184D01*
X101870184Y-87497737D01*
X101774211Y-87650476D01*
X101714631Y-87820745D01*
X101714630Y-87820750D01*
X101694435Y-87999996D01*
X94349231Y-87999996D01*
X93987590Y-87638355D01*
X93987588Y-87638352D01*
X93945220Y-87595984D01*
X93927934Y-87574318D01*
X93927350Y-87573388D01*
X93908324Y-87506162D01*
X93928664Y-87439318D01*
X93966345Y-87402383D01*
X94002262Y-87379816D01*
X94129816Y-87252262D01*
X94225789Y-87099522D01*
X94285368Y-86929255D01*
X94285369Y-86929249D01*
X94305565Y-86750003D01*
X94305565Y-86749996D01*
X94285369Y-86570750D01*
X94285368Y-86570745D01*
X94259821Y-86497737D01*
X94225789Y-86400478D01*
X94177325Y-86323348D01*
X94158325Y-86256112D01*
X94178693Y-86189276D01*
X94216348Y-86152382D01*
X94218255Y-86151183D01*
X94252262Y-86129816D01*
X94379816Y-86002262D01*
X94475789Y-85849522D01*
X94535368Y-85679255D01*
X94535369Y-85679249D01*
X94555565Y-85500003D01*
X94555565Y-85499996D01*
X94535369Y-85320750D01*
X94535368Y-85320745D01*
X94529073Y-85302756D01*
X94475789Y-85150478D01*
X94474368Y-85148217D01*
X94381237Y-85000000D01*
X94381234Y-84999996D01*
X103194435Y-84999996D01*
X103194435Y-85000003D01*
X103214630Y-85179249D01*
X103214631Y-85179254D01*
X103274211Y-85349523D01*
X103337838Y-85450784D01*
X103370184Y-85502262D01*
X103497738Y-85629816D01*
X103530623Y-85650479D01*
X103646817Y-85723489D01*
X103650478Y-85725789D01*
X103729163Y-85753322D01*
X103820745Y-85785368D01*
X103820750Y-85785369D01*
X103999996Y-85805565D01*
X104000000Y-85805565D01*
X104000004Y-85805565D01*
X104179249Y-85785369D01*
X104179251Y-85785368D01*
X104179255Y-85785368D01*
X104179258Y-85785366D01*
X104179262Y-85785366D01*
X104356095Y-85723489D01*
X104356846Y-85725637D01*
X104415128Y-85716035D01*
X104443592Y-85724391D01*
X104443908Y-85723489D01*
X104620748Y-85785368D01*
X104620753Y-85785369D01*
X104799999Y-85805565D01*
X104800003Y-85805565D01*
X104800007Y-85805565D01*
X104979252Y-85785369D01*
X104979255Y-85785368D01*
X104979258Y-85785368D01*
X105149525Y-85725789D01*
X105302265Y-85629816D01*
X105429819Y-85502262D01*
X105525792Y-85349522D01*
X105585371Y-85179255D01*
X105585372Y-85179249D01*
X105591653Y-85123503D01*
X113067367Y-85123503D01*
X113067367Y-85123510D01*
X113087562Y-85302756D01*
X113087563Y-85302761D01*
X113147143Y-85473030D01*
X113165511Y-85502262D01*
X113243116Y-85625769D01*
X113370670Y-85753323D01*
X113523410Y-85849296D01*
X113693677Y-85908875D01*
X113693682Y-85908876D01*
X113872928Y-85929072D01*
X113872932Y-85929072D01*
X113872936Y-85929072D01*
X114052181Y-85908876D01*
X114052184Y-85908875D01*
X114052187Y-85908875D01*
X114222454Y-85849296D01*
X114375194Y-85753323D01*
X114502748Y-85625769D01*
X114598721Y-85473029D01*
X114658300Y-85302762D01*
X114672216Y-85179254D01*
X114678497Y-85123510D01*
X114678497Y-85123503D01*
X114658301Y-84944257D01*
X114658300Y-84944252D01*
X114598720Y-84773982D01*
X114547126Y-84691872D01*
X114528125Y-84624635D01*
X114547126Y-84559926D01*
X114600788Y-84474524D01*
X114600789Y-84474522D01*
X114660368Y-84304255D01*
X114663494Y-84276510D01*
X114680565Y-84125003D01*
X114680565Y-84124996D01*
X114660369Y-83945750D01*
X114660368Y-83945745D01*
X114616630Y-83820750D01*
X114600789Y-83775478D01*
X114586201Y-83752262D01*
X114509263Y-83629816D01*
X114504816Y-83622738D01*
X114377262Y-83495184D01*
X114224523Y-83399211D01*
X114054254Y-83339631D01*
X114054249Y-83339630D01*
X113875004Y-83319435D01*
X113874996Y-83319435D01*
X113695750Y-83339630D01*
X113695745Y-83339631D01*
X113525476Y-83399211D01*
X113372737Y-83495184D01*
X113245184Y-83622737D01*
X113149211Y-83775476D01*
X113089631Y-83945745D01*
X113089630Y-83945750D01*
X113069435Y-84124996D01*
X113069435Y-84125003D01*
X113089630Y-84304249D01*
X113089631Y-84304254D01*
X113149211Y-84474523D01*
X113200806Y-84556635D01*
X113219806Y-84623871D01*
X113200807Y-84688578D01*
X113147140Y-84773989D01*
X113087565Y-84944244D01*
X113087562Y-84944257D01*
X113067367Y-85123503D01*
X105591653Y-85123503D01*
X105605568Y-85000003D01*
X105605568Y-84999996D01*
X105585372Y-84820750D01*
X105585371Y-84820745D01*
X105525791Y-84650476D01*
X105466826Y-84556635D01*
X105429819Y-84497738D01*
X105302265Y-84370184D01*
X105269382Y-84349522D01*
X105149526Y-84274211D01*
X104979257Y-84214631D01*
X104979252Y-84214630D01*
X104800007Y-84194435D01*
X104799999Y-84194435D01*
X104620753Y-84214630D01*
X104620740Y-84214633D01*
X104443909Y-84276510D01*
X104443160Y-84274369D01*
X104384824Y-84283958D01*
X104356408Y-84275611D01*
X104356094Y-84276510D01*
X104179262Y-84214633D01*
X104179249Y-84214630D01*
X104000004Y-84194435D01*
X103999996Y-84194435D01*
X103820750Y-84214630D01*
X103820745Y-84214631D01*
X103650476Y-84274211D01*
X103497737Y-84370184D01*
X103370184Y-84497737D01*
X103274211Y-84650476D01*
X103214631Y-84820745D01*
X103214630Y-84820750D01*
X103194435Y-84999996D01*
X94381234Y-84999996D01*
X94379816Y-84997738D01*
X94252262Y-84870184D01*
X94252260Y-84870182D01*
X94251465Y-84869548D01*
X94251085Y-84869007D01*
X94247338Y-84865260D01*
X94247994Y-84864603D01*
X94211326Y-84812359D01*
X94208479Y-84742547D01*
X94223787Y-84706632D01*
X94291089Y-84599522D01*
X94350668Y-84429255D01*
X94359652Y-84349522D01*
X94368754Y-84268739D01*
X94395820Y-84204325D01*
X94404293Y-84194941D01*
X96462416Y-82136819D01*
X96523739Y-82103334D01*
X96550097Y-82100500D01*
X104353535Y-82100500D01*
X104420574Y-82120185D01*
X104466329Y-82172989D01*
X104476755Y-82210616D01*
X104486012Y-82292780D01*
X104545592Y-82463052D01*
X104592257Y-82537319D01*
X104641566Y-82615793D01*
X104769120Y-82743347D01*
X104921860Y-82839320D01*
X105037588Y-82879815D01*
X105092127Y-82898899D01*
X105092132Y-82898900D01*
X105271378Y-82919096D01*
X105271382Y-82919096D01*
X105271386Y-82919096D01*
X105450631Y-82898900D01*
X105450634Y-82898899D01*
X105450637Y-82898899D01*
X105620904Y-82839320D01*
X105773644Y-82743347D01*
X105901198Y-82615793D01*
X105997171Y-82463053D01*
X106056750Y-82292786D01*
X106060686Y-82257853D01*
X106061571Y-82249996D01*
X108194435Y-82249996D01*
X108194435Y-82250003D01*
X108214630Y-82429249D01*
X108214631Y-82429254D01*
X108274211Y-82599523D01*
X108355724Y-82729249D01*
X108370184Y-82752262D01*
X108497738Y-82879816D01*
X108560252Y-82919096D01*
X108618019Y-82955394D01*
X108650478Y-82975789D01*
X108719678Y-83000003D01*
X108820745Y-83035368D01*
X108820750Y-83035369D01*
X108999996Y-83055565D01*
X109000000Y-83055565D01*
X109000004Y-83055565D01*
X109179249Y-83035369D01*
X109179252Y-83035368D01*
X109179255Y-83035368D01*
X109349522Y-82975789D01*
X109502262Y-82879816D01*
X109629816Y-82752262D01*
X109725789Y-82599522D01*
X109785368Y-82429255D01*
X109788721Y-82399499D01*
X109805565Y-82250003D01*
X109805565Y-82249996D01*
X112944435Y-82249996D01*
X112944435Y-82250003D01*
X112964630Y-82429249D01*
X112964631Y-82429254D01*
X113024211Y-82599523D01*
X113105724Y-82729249D01*
X113120184Y-82752262D01*
X113247738Y-82879816D01*
X113310252Y-82919096D01*
X113368019Y-82955394D01*
X113400478Y-82975789D01*
X113469678Y-83000003D01*
X113570745Y-83035368D01*
X113570750Y-83035369D01*
X113749996Y-83055565D01*
X113750000Y-83055565D01*
X113750004Y-83055565D01*
X113929249Y-83035369D01*
X113929252Y-83035368D01*
X113929255Y-83035368D01*
X114099522Y-82975789D01*
X114252262Y-82879816D01*
X114379816Y-82752262D01*
X114475789Y-82599522D01*
X114535368Y-82429255D01*
X114538721Y-82399499D01*
X114555565Y-82250003D01*
X114555565Y-82249996D01*
X114535369Y-82070750D01*
X114535368Y-82070745D01*
X114533222Y-82064611D01*
X114475789Y-81900478D01*
X114469864Y-81891049D01*
X114427866Y-81824209D01*
X114379816Y-81747738D01*
X114252262Y-81620184D01*
X114165983Y-81565971D01*
X114099523Y-81524211D01*
X113929254Y-81464631D01*
X113929249Y-81464630D01*
X113750004Y-81444435D01*
X113749996Y-81444435D01*
X113570750Y-81464630D01*
X113570745Y-81464631D01*
X113400476Y-81524211D01*
X113247737Y-81620184D01*
X113120184Y-81747737D01*
X113024211Y-81900476D01*
X112964631Y-82070745D01*
X112964630Y-82070750D01*
X112944435Y-82249996D01*
X109805565Y-82249996D01*
X109785369Y-82070750D01*
X109785368Y-82070745D01*
X109783222Y-82064611D01*
X109725789Y-81900478D01*
X109719864Y-81891049D01*
X109677866Y-81824209D01*
X109629816Y-81747738D01*
X109502262Y-81620184D01*
X109415983Y-81565971D01*
X109349523Y-81524211D01*
X109179254Y-81464631D01*
X109179249Y-81464630D01*
X109000004Y-81444435D01*
X108999996Y-81444435D01*
X108820750Y-81464630D01*
X108820745Y-81464631D01*
X108650476Y-81524211D01*
X108497737Y-81620184D01*
X108370184Y-81747737D01*
X108274211Y-81900476D01*
X108214631Y-82070745D01*
X108214630Y-82070750D01*
X108194435Y-82249996D01*
X106061571Y-82249996D01*
X106076947Y-82113534D01*
X106076947Y-82113531D01*
X106075479Y-82100500D01*
X106072669Y-82075566D01*
X106084722Y-82006747D01*
X106129916Y-81956691D01*
X106252262Y-81879816D01*
X106379816Y-81752262D01*
X106475789Y-81599522D01*
X106535368Y-81429255D01*
X106542024Y-81370184D01*
X106555565Y-81250003D01*
X106555565Y-81249996D01*
X106535369Y-81070750D01*
X106535368Y-81070745D01*
X106510612Y-80999996D01*
X106475789Y-80900478D01*
X106427325Y-80823348D01*
X106408325Y-80756112D01*
X106428693Y-80689276D01*
X106466348Y-80652382D01*
X106469383Y-80650475D01*
X106502262Y-80629816D01*
X106629816Y-80502262D01*
X106725789Y-80349522D01*
X106785368Y-80179255D01*
X106785369Y-80179249D01*
X106805565Y-80000003D01*
X106805565Y-80000001D01*
X106804256Y-79988386D01*
X106816309Y-79919564D01*
X106863657Y-79868184D01*
X106927476Y-79850500D01*
X111917588Y-79850500D01*
X111984627Y-79870185D01*
X111994903Y-79877555D01*
X111997736Y-79879814D01*
X111997738Y-79879816D01*
X112090049Y-79937819D01*
X112142450Y-79970745D01*
X112150478Y-79975789D01*
X112219672Y-80000001D01*
X112320745Y-80035368D01*
X112320750Y-80035369D01*
X112499996Y-80055565D01*
X112500000Y-80055565D01*
X112500004Y-80055565D01*
X112679249Y-80035369D01*
X112679252Y-80035368D01*
X112679255Y-80035368D01*
X112849522Y-79975789D01*
X113002262Y-79879816D01*
X113129816Y-79752262D01*
X113225789Y-79599522D01*
X113285368Y-79429255D01*
X113286473Y-79419449D01*
X113305565Y-79250003D01*
X113305565Y-79249996D01*
X114194435Y-79249996D01*
X114194435Y-79250003D01*
X114214630Y-79429249D01*
X114214631Y-79429254D01*
X114274211Y-79599523D01*
X114333849Y-79694435D01*
X114370184Y-79752262D01*
X114497738Y-79879816D01*
X114588080Y-79936582D01*
X114642450Y-79970745D01*
X114650478Y-79975789D01*
X114719672Y-80000001D01*
X114820745Y-80035368D01*
X114820750Y-80035369D01*
X114999996Y-80055565D01*
X115000000Y-80055565D01*
X115000004Y-80055565D01*
X115179249Y-80035369D01*
X115179252Y-80035368D01*
X115179255Y-80035368D01*
X115349522Y-79975789D01*
X115502262Y-79879816D01*
X115629816Y-79752262D01*
X115725789Y-79599522D01*
X115785368Y-79429255D01*
X115786473Y-79419449D01*
X115805565Y-79250003D01*
X115805565Y-79249996D01*
X115785369Y-79070750D01*
X115785368Y-79070745D01*
X115759067Y-78995581D01*
X115725789Y-78900478D01*
X115629816Y-78747738D01*
X115502262Y-78620184D01*
X115434398Y-78577542D01*
X115349523Y-78524211D01*
X115179254Y-78464631D01*
X115179249Y-78464630D01*
X115000004Y-78444435D01*
X114999996Y-78444435D01*
X114820750Y-78464630D01*
X114820745Y-78464631D01*
X114650476Y-78524211D01*
X114497737Y-78620184D01*
X114370184Y-78747737D01*
X114274211Y-78900476D01*
X114214631Y-79070745D01*
X114214630Y-79070750D01*
X114194435Y-79249996D01*
X113305565Y-79249996D01*
X113285369Y-79070750D01*
X113285368Y-79070745D01*
X113225788Y-78900475D01*
X113172691Y-78815973D01*
X113153690Y-78748736D01*
X113172691Y-78684027D01*
X113225788Y-78599524D01*
X113233480Y-78577542D01*
X113285368Y-78429255D01*
X113285369Y-78429249D01*
X113305565Y-78250003D01*
X113305565Y-78249996D01*
X113285369Y-78070750D01*
X113285368Y-78070745D01*
X113241170Y-77944435D01*
X113225789Y-77900478D01*
X113208540Y-77873027D01*
X113186582Y-77838080D01*
X113129816Y-77747738D01*
X113094259Y-77712181D01*
X113060774Y-77650858D01*
X113065758Y-77581166D01*
X113107630Y-77525233D01*
X113173094Y-77500816D01*
X113181940Y-77500500D01*
X119934108Y-77500500D01*
X119995572Y-77500500D01*
X120004418Y-77500816D01*
X120204561Y-77515130D01*
X120222063Y-77517647D01*
X120413797Y-77559355D01*
X120430755Y-77564334D01*
X120532147Y-77602152D01*
X120614609Y-77632909D01*
X120630701Y-77640259D01*
X120802904Y-77734288D01*
X120817784Y-77743849D01*
X120974867Y-77861441D01*
X120988237Y-77873027D01*
X121126972Y-78011762D01*
X121138558Y-78025132D01*
X121232620Y-78150784D01*
X121256146Y-78182210D01*
X121265711Y-78197095D01*
X121359740Y-78369298D01*
X121367090Y-78385390D01*
X121435662Y-78569236D01*
X121440646Y-78586212D01*
X121482351Y-78777931D01*
X121484869Y-78795442D01*
X121499184Y-78995580D01*
X121499500Y-79004427D01*
X121499500Y-87151928D01*
X121479815Y-87218967D01*
X121427011Y-87264722D01*
X121357853Y-87274666D01*
X121334546Y-87268970D01*
X121179257Y-87214632D01*
X121179249Y-87214630D01*
X121000004Y-87194435D01*
X120999996Y-87194435D01*
X120820750Y-87214630D01*
X120820745Y-87214631D01*
X120650476Y-87274211D01*
X120497737Y-87370184D01*
X120370184Y-87497737D01*
X120274211Y-87650476D01*
X120214631Y-87820745D01*
X120214630Y-87820750D01*
X120194435Y-87999996D01*
X120194435Y-88000003D01*
X120214630Y-88179249D01*
X120214631Y-88179254D01*
X120274211Y-88349523D01*
X120340842Y-88455565D01*
X120370184Y-88502262D01*
X120497738Y-88629816D01*
X120650478Y-88725789D01*
X120808353Y-88781032D01*
X120820745Y-88785368D01*
X120820750Y-88785369D01*
X120999996Y-88805565D01*
X121000000Y-88805565D01*
X121000004Y-88805565D01*
X121179249Y-88785369D01*
X121179251Y-88785368D01*
X121179255Y-88785368D01*
X121179258Y-88785366D01*
X121179262Y-88785366D01*
X121334545Y-88731030D01*
X121404324Y-88727468D01*
X121464951Y-88762196D01*
X121497179Y-88824190D01*
X121499500Y-88848071D01*
X121499500Y-96995572D01*
X121499184Y-97004419D01*
X121484869Y-97204557D01*
X121482351Y-97222068D01*
X121440646Y-97413787D01*
X121435662Y-97430763D01*
X121367090Y-97614609D01*
X121359740Y-97630701D01*
X121265711Y-97802904D01*
X121256146Y-97817789D01*
X121138558Y-97974867D01*
X121126972Y-97988237D01*
X120988237Y-98126972D01*
X120974867Y-98138558D01*
X120817789Y-98256146D01*
X120802904Y-98265711D01*
X120630701Y-98359740D01*
X120614609Y-98367090D01*
X120430763Y-98435662D01*
X120413787Y-98440646D01*
X120222068Y-98482351D01*
X120204557Y-98484869D01*
X120023779Y-98497799D01*
X120004417Y-98499184D01*
X119995572Y-98499500D01*
X109934107Y-98499500D01*
X109841883Y-98524211D01*
X109841882Y-98524210D01*
X109806815Y-98533607D01*
X109806814Y-98533607D01*
X109692686Y-98599500D01*
X109692683Y-98599502D01*
X109599498Y-98692688D01*
X96675245Y-111616940D01*
X96675244Y-111616940D01*
X96675245Y-111616941D01*
X96599500Y-111692686D01*
X96533608Y-111806812D01*
X96499500Y-111934108D01*
X96499500Y-117151928D01*
X96479815Y-117218967D01*
X96427011Y-117264722D01*
X96357853Y-117274666D01*
X96334546Y-117268970D01*
X96179257Y-117214632D01*
X96179249Y-117214630D01*
X96000004Y-117194435D01*
X95999996Y-117194435D01*
X95820750Y-117214630D01*
X95820745Y-117214631D01*
X95650476Y-117274211D01*
X95497737Y-117370184D01*
X95370184Y-117497737D01*
X95274211Y-117650476D01*
X95214631Y-117820745D01*
X95214630Y-117820750D01*
X95194435Y-117999996D01*
X95194435Y-118000003D01*
X95214630Y-118179249D01*
X95214631Y-118179254D01*
X95274211Y-118349523D01*
X95370184Y-118502262D01*
X95497738Y-118629816D01*
X95650478Y-118725789D01*
X95820739Y-118785366D01*
X95820745Y-118785368D01*
X95820750Y-118785369D01*
X95999996Y-118805565D01*
X96000000Y-118805565D01*
X96000004Y-118805565D01*
X96179249Y-118785369D01*
X96179251Y-118785368D01*
X96179255Y-118785368D01*
X96179258Y-118785366D01*
X96179262Y-118785366D01*
X96334545Y-118731030D01*
X96404324Y-118727468D01*
X96464951Y-118762196D01*
X96497179Y-118824190D01*
X96499500Y-118848071D01*
X96499500Y-121995572D01*
X96499184Y-122004419D01*
X96484869Y-122204557D01*
X96482351Y-122222068D01*
X96440646Y-122413787D01*
X96435662Y-122430763D01*
X96367090Y-122614609D01*
X96359740Y-122630701D01*
X96265711Y-122802904D01*
X96256146Y-122817789D01*
X96138558Y-122974867D01*
X96126972Y-122988237D01*
X95988237Y-123126972D01*
X95974867Y-123138558D01*
X95817789Y-123256146D01*
X95802904Y-123265711D01*
X95630701Y-123359740D01*
X95614609Y-123367090D01*
X95430763Y-123435662D01*
X95413787Y-123440646D01*
X95222068Y-123482351D01*
X95204557Y-123484869D01*
X95023779Y-123497799D01*
X95004417Y-123499184D01*
X94995572Y-123499500D01*
X77004428Y-123499500D01*
X76995582Y-123499184D01*
X76973622Y-123497613D01*
X76795442Y-123484869D01*
X76777931Y-123482351D01*
X76586212Y-123440646D01*
X76569236Y-123435662D01*
X76385390Y-123367090D01*
X76369298Y-123359740D01*
X76197095Y-123265711D01*
X76182210Y-123256146D01*
X76025132Y-123138558D01*
X76011762Y-123126972D01*
X75873027Y-122988237D01*
X75861441Y-122974867D01*
X75743849Y-122817784D01*
X75734288Y-122802904D01*
X75640259Y-122630701D01*
X75632909Y-122614609D01*
X75572091Y-122451551D01*
X75564334Y-122430755D01*
X75559355Y-122413797D01*
X75517647Y-122222063D01*
X75515130Y-122204556D01*
X75500816Y-122004418D01*
X75500500Y-121995572D01*
X75500500Y-117999996D01*
X80194435Y-117999996D01*
X80194435Y-118000003D01*
X80214630Y-118179249D01*
X80214631Y-118179254D01*
X80274211Y-118349523D01*
X80370184Y-118502262D01*
X80497738Y-118629816D01*
X80650478Y-118725789D01*
X80820739Y-118785366D01*
X80820745Y-118785368D01*
X80820750Y-118785369D01*
X80999996Y-118805565D01*
X81000000Y-118805565D01*
X81000004Y-118805565D01*
X81179249Y-118785369D01*
X81179252Y-118785368D01*
X81179255Y-118785368D01*
X81349522Y-118725789D01*
X81502262Y-118629816D01*
X81629816Y-118502262D01*
X81725789Y-118349522D01*
X81785368Y-118179255D01*
X81805565Y-118000000D01*
X81805565Y-117999996D01*
X90194435Y-117999996D01*
X90194435Y-118000003D01*
X90214630Y-118179249D01*
X90214631Y-118179254D01*
X90274211Y-118349523D01*
X90370184Y-118502262D01*
X90497738Y-118629816D01*
X90650478Y-118725789D01*
X90820739Y-118785366D01*
X90820745Y-118785368D01*
X90820750Y-118785369D01*
X90999996Y-118805565D01*
X91000000Y-118805565D01*
X91000004Y-118805565D01*
X91179249Y-118785369D01*
X91179252Y-118785368D01*
X91179255Y-118785368D01*
X91349522Y-118725789D01*
X91502262Y-118629816D01*
X91629816Y-118502262D01*
X91725789Y-118349522D01*
X91785368Y-118179255D01*
X91805565Y-118000000D01*
X91785368Y-117820745D01*
X91725789Y-117650478D01*
X91629816Y-117497738D01*
X91502262Y-117370184D01*
X91499499Y-117368448D01*
X91349523Y-117274211D01*
X91179254Y-117214631D01*
X91179249Y-117214630D01*
X91000004Y-117194435D01*
X90999996Y-117194435D01*
X90820750Y-117214630D01*
X90820745Y-117214631D01*
X90650476Y-117274211D01*
X90497737Y-117370184D01*
X90370184Y-117497737D01*
X90274211Y-117650476D01*
X90214631Y-117820745D01*
X90214630Y-117820750D01*
X90194435Y-117999996D01*
X81805565Y-117999996D01*
X81785368Y-117820745D01*
X81725789Y-117650478D01*
X81629816Y-117497738D01*
X81502262Y-117370184D01*
X81499499Y-117368448D01*
X81349523Y-117274211D01*
X81179254Y-117214631D01*
X81179249Y-117214630D01*
X81000004Y-117194435D01*
X80999996Y-117194435D01*
X80820750Y-117214630D01*
X80820745Y-117214631D01*
X80650476Y-117274211D01*
X80497737Y-117370184D01*
X80370184Y-117497737D01*
X80274211Y-117650476D01*
X80214631Y-117820745D01*
X80214630Y-117820750D01*
X80194435Y-117999996D01*
X75500500Y-117999996D01*
X75500500Y-112999996D01*
X80194435Y-112999996D01*
X80194435Y-113000003D01*
X80214630Y-113179249D01*
X80214631Y-113179254D01*
X80274211Y-113349523D01*
X80370184Y-113502262D01*
X80497738Y-113629816D01*
X80650478Y-113725789D01*
X80820745Y-113785368D01*
X80820750Y-113785369D01*
X80999996Y-113805565D01*
X81000000Y-113805565D01*
X81000004Y-113805565D01*
X81179249Y-113785369D01*
X81179252Y-113785368D01*
X81179255Y-113785368D01*
X81349522Y-113725789D01*
X81502262Y-113629816D01*
X81629816Y-113502262D01*
X81725789Y-113349522D01*
X81785368Y-113179255D01*
X81805565Y-113000000D01*
X81785368Y-112820745D01*
X81725789Y-112650478D01*
X81629816Y-112497738D01*
X81502262Y-112370184D01*
X81349523Y-112274211D01*
X81179254Y-112214631D01*
X81179249Y-112214630D01*
X81000004Y-112194435D01*
X80999996Y-112194435D01*
X80820750Y-112214630D01*
X80820745Y-112214631D01*
X80650476Y-112274211D01*
X80497737Y-112370184D01*
X80370184Y-112497737D01*
X80274211Y-112650476D01*
X80214631Y-112820745D01*
X80214630Y-112820750D01*
X80194435Y-112999996D01*
X75500500Y-112999996D01*
X75500500Y-111934110D01*
X75500500Y-111934108D01*
X75466392Y-111806814D01*
X75400500Y-111692686D01*
X75307314Y-111599500D01*
X75307313Y-111599499D01*
X75302983Y-111595169D01*
X75302972Y-111595159D01*
X73457811Y-109749998D01*
X78194532Y-109749998D01*
X78194532Y-109750001D01*
X78214364Y-109976686D01*
X78214366Y-109976697D01*
X78273258Y-110196488D01*
X78273261Y-110196497D01*
X78369431Y-110402732D01*
X78369432Y-110402734D01*
X78499954Y-110589141D01*
X78660858Y-110750045D01*
X78660861Y-110750047D01*
X78847266Y-110880568D01*
X79053504Y-110976739D01*
X79273308Y-111035635D01*
X79435230Y-111049801D01*
X79499998Y-111055468D01*
X79500000Y-111055468D01*
X79500002Y-111055468D01*
X79556673Y-111050509D01*
X79726692Y-111035635D01*
X79946496Y-110976739D01*
X80152734Y-110880568D01*
X80339139Y-110750047D01*
X80500047Y-110589139D01*
X80630568Y-110402734D01*
X80726739Y-110196496D01*
X80785635Y-109976692D01*
X80805468Y-109750000D01*
X80805468Y-109749998D01*
X93194532Y-109749998D01*
X93194532Y-109750001D01*
X93214364Y-109976686D01*
X93214366Y-109976697D01*
X93273258Y-110196488D01*
X93273261Y-110196497D01*
X93369431Y-110402732D01*
X93369432Y-110402734D01*
X93499954Y-110589141D01*
X93660858Y-110750045D01*
X93660861Y-110750047D01*
X93847266Y-110880568D01*
X94053504Y-110976739D01*
X94273308Y-111035635D01*
X94435230Y-111049801D01*
X94499998Y-111055468D01*
X94500000Y-111055468D01*
X94500002Y-111055468D01*
X94556673Y-111050509D01*
X94726692Y-111035635D01*
X94946496Y-110976739D01*
X95152734Y-110880568D01*
X95339139Y-110750047D01*
X95500047Y-110589139D01*
X95630568Y-110402734D01*
X95726739Y-110196496D01*
X95785635Y-109976692D01*
X95805468Y-109750000D01*
X95785635Y-109523308D01*
X95726739Y-109303504D01*
X95630568Y-109097266D01*
X95500209Y-108911092D01*
X95477882Y-108844886D01*
X95494893Y-108777118D01*
X95545841Y-108729306D01*
X95614551Y-108716628D01*
X95643441Y-108724814D01*
X95643905Y-108723489D01*
X95820745Y-108785368D01*
X95820750Y-108785369D01*
X95999996Y-108805565D01*
X96000000Y-108805565D01*
X96000004Y-108805565D01*
X96179249Y-108785369D01*
X96179252Y-108785368D01*
X96179255Y-108785368D01*
X96349522Y-108725789D01*
X96502262Y-108629816D01*
X96629816Y-108502262D01*
X96725789Y-108349522D01*
X96785368Y-108179255D01*
X96805565Y-108000000D01*
X96785368Y-107820745D01*
X96725789Y-107650478D01*
X96629816Y-107497738D01*
X96502262Y-107370184D01*
X96349523Y-107274211D01*
X96179254Y-107214631D01*
X96179249Y-107214630D01*
X96000004Y-107194435D01*
X95999996Y-107194435D01*
X95820750Y-107214630D01*
X95820745Y-107214631D01*
X95650476Y-107274211D01*
X95497737Y-107370184D01*
X95370184Y-107497737D01*
X95274211Y-107650476D01*
X95214631Y-107820745D01*
X95214630Y-107820750D01*
X95194435Y-107999996D01*
X95194435Y-108000003D01*
X95214630Y-108179249D01*
X95214631Y-108179254D01*
X95274211Y-108349523D01*
X95346134Y-108463987D01*
X95365134Y-108531224D01*
X95344766Y-108598059D01*
X95291498Y-108643273D01*
X95222242Y-108652510D01*
X95170018Y-108631534D01*
X95152734Y-108619432D01*
X95106900Y-108598059D01*
X94946497Y-108523261D01*
X94946488Y-108523258D01*
X94726697Y-108464366D01*
X94726693Y-108464365D01*
X94726692Y-108464365D01*
X94726691Y-108464364D01*
X94726686Y-108464364D01*
X94500002Y-108444532D01*
X94499998Y-108444532D01*
X94273313Y-108464364D01*
X94273302Y-108464366D01*
X94053511Y-108523258D01*
X94053502Y-108523261D01*
X93847267Y-108619431D01*
X93847265Y-108619432D01*
X93660858Y-108749954D01*
X93499954Y-108910858D01*
X93369432Y-109097265D01*
X93369431Y-109097267D01*
X93273261Y-109303502D01*
X93273258Y-109303511D01*
X93214366Y-109523302D01*
X93214364Y-109523313D01*
X93194532Y-109749998D01*
X80805468Y-109749998D01*
X80785635Y-109523308D01*
X80726739Y-109303504D01*
X80630568Y-109097266D01*
X80500209Y-108911092D01*
X80477882Y-108844886D01*
X80494893Y-108777118D01*
X80545841Y-108729306D01*
X80614551Y-108716628D01*
X80643441Y-108724814D01*
X80643905Y-108723489D01*
X80820745Y-108785368D01*
X80820750Y-108785369D01*
X80999996Y-108805565D01*
X81000000Y-108805565D01*
X81000004Y-108805565D01*
X81179249Y-108785369D01*
X81179252Y-108785368D01*
X81179255Y-108785368D01*
X81349522Y-108725789D01*
X81502262Y-108629816D01*
X81629816Y-108502262D01*
X81725789Y-108349522D01*
X81785368Y-108179255D01*
X81805565Y-108000000D01*
X81785368Y-107820745D01*
X81725789Y-107650478D01*
X81629816Y-107497738D01*
X81502262Y-107370184D01*
X81349523Y-107274211D01*
X81179254Y-107214631D01*
X81179249Y-107214630D01*
X81000004Y-107194435D01*
X80999996Y-107194435D01*
X80820750Y-107214630D01*
X80820745Y-107214631D01*
X80650476Y-107274211D01*
X80497737Y-107370184D01*
X80370184Y-107497737D01*
X80274211Y-107650476D01*
X80214631Y-107820745D01*
X80214630Y-107820750D01*
X80194435Y-107999996D01*
X80194435Y-108000003D01*
X80214630Y-108179249D01*
X80214631Y-108179254D01*
X80274211Y-108349523D01*
X80346134Y-108463987D01*
X80365134Y-108531224D01*
X80344766Y-108598059D01*
X80291498Y-108643273D01*
X80222242Y-108652510D01*
X80170018Y-108631534D01*
X80152734Y-108619432D01*
X80106900Y-108598059D01*
X79946497Y-108523261D01*
X79946488Y-108523258D01*
X79726697Y-108464366D01*
X79726693Y-108464365D01*
X79726692Y-108464365D01*
X79726691Y-108464364D01*
X79726686Y-108464364D01*
X79500002Y-108444532D01*
X79499998Y-108444532D01*
X79273313Y-108464364D01*
X79273302Y-108464366D01*
X79053511Y-108523258D01*
X79053502Y-108523261D01*
X78847267Y-108619431D01*
X78847265Y-108619432D01*
X78660858Y-108749954D01*
X78499954Y-108910858D01*
X78369432Y-109097265D01*
X78369431Y-109097267D01*
X78273261Y-109303502D01*
X78273258Y-109303511D01*
X78214366Y-109523302D01*
X78214364Y-109523313D01*
X78194532Y-109749998D01*
X73457811Y-109749998D01*
X71707809Y-107999996D01*
X75194435Y-107999996D01*
X75194435Y-108000003D01*
X75214630Y-108179249D01*
X75214631Y-108179254D01*
X75274211Y-108349523D01*
X75333910Y-108444532D01*
X75370184Y-108502262D01*
X75497738Y-108629816D01*
X75588080Y-108686582D01*
X75646817Y-108723489D01*
X75650478Y-108725789D01*
X75719535Y-108749953D01*
X75820745Y-108785368D01*
X75820750Y-108785369D01*
X75999996Y-108805565D01*
X76000000Y-108805565D01*
X76000004Y-108805565D01*
X76179249Y-108785369D01*
X76179252Y-108785368D01*
X76179255Y-108785368D01*
X76349522Y-108725789D01*
X76502262Y-108629816D01*
X76629816Y-108502262D01*
X76725789Y-108349522D01*
X76785368Y-108179255D01*
X76805565Y-108000000D01*
X76785368Y-107820745D01*
X76725789Y-107650478D01*
X76629816Y-107497738D01*
X76502262Y-107370184D01*
X76349523Y-107274211D01*
X76179254Y-107214631D01*
X76179249Y-107214630D01*
X76000004Y-107194435D01*
X75999996Y-107194435D01*
X75820750Y-107214630D01*
X75820745Y-107214631D01*
X75650476Y-107274211D01*
X75497737Y-107370184D01*
X75370184Y-107497737D01*
X75274211Y-107650476D01*
X75214631Y-107820745D01*
X75214630Y-107820750D01*
X75194435Y-107999996D01*
X71707809Y-107999996D01*
X65586525Y-101878711D01*
X70149500Y-101878711D01*
X70149500Y-102121288D01*
X70161788Y-102214631D01*
X70181162Y-102361789D01*
X70212554Y-102478944D01*
X70243947Y-102596104D01*
X70336773Y-102820205D01*
X70336777Y-102820214D01*
X70358974Y-102858661D01*
X70458064Y-103030289D01*
X70458066Y-103030292D01*
X70458067Y-103030293D01*
X70605733Y-103222736D01*
X70605739Y-103222743D01*
X70777256Y-103394260D01*
X70777262Y-103394265D01*
X70969711Y-103541936D01*
X71179788Y-103663224D01*
X71403900Y-103756054D01*
X71638211Y-103818838D01*
X71818586Y-103842584D01*
X71878711Y-103850500D01*
X71878712Y-103850500D01*
X72121289Y-103850500D01*
X72169388Y-103844167D01*
X72361789Y-103818838D01*
X72596100Y-103756054D01*
X72820212Y-103663224D01*
X73030289Y-103541936D01*
X73222738Y-103394265D01*
X73394265Y-103222738D01*
X73541936Y-103030289D01*
X73559426Y-102999996D01*
X75194435Y-102999996D01*
X75194435Y-103000003D01*
X75214630Y-103179249D01*
X75214631Y-103179254D01*
X75274211Y-103349523D01*
X75368760Y-103499996D01*
X75370184Y-103502262D01*
X75497738Y-103629816D01*
X75650478Y-103725789D01*
X75820745Y-103785368D01*
X75820750Y-103785369D01*
X75999996Y-103805565D01*
X76000000Y-103805565D01*
X76000004Y-103805565D01*
X76179249Y-103785369D01*
X76179252Y-103785368D01*
X76179255Y-103785368D01*
X76349522Y-103725789D01*
X76502262Y-103629816D01*
X76629816Y-103502262D01*
X76631240Y-103499996D01*
X85944435Y-103499996D01*
X85944435Y-103500003D01*
X85964630Y-103679249D01*
X85964631Y-103679254D01*
X86024211Y-103849523D01*
X86120184Y-104002262D01*
X86247738Y-104129816D01*
X86400478Y-104225789D01*
X86570745Y-104285368D01*
X86570750Y-104285369D01*
X86749996Y-104305565D01*
X86750000Y-104305565D01*
X86750004Y-104305565D01*
X86929249Y-104285369D01*
X86929252Y-104285368D01*
X86929255Y-104285368D01*
X87099522Y-104225789D01*
X87252262Y-104129816D01*
X87379816Y-104002262D01*
X87475789Y-103849522D01*
X87535368Y-103679255D01*
X87537174Y-103663226D01*
X87555565Y-103500003D01*
X87555565Y-103499996D01*
X87535369Y-103320750D01*
X87535368Y-103320745D01*
X87475789Y-103150478D01*
X87381235Y-102999996D01*
X95194435Y-102999996D01*
X95194435Y-103000003D01*
X95214630Y-103179249D01*
X95214631Y-103179254D01*
X95274211Y-103349523D01*
X95368760Y-103499996D01*
X95370184Y-103502262D01*
X95497738Y-103629816D01*
X95650478Y-103725789D01*
X95820745Y-103785368D01*
X95820750Y-103785369D01*
X95999996Y-103805565D01*
X96000000Y-103805565D01*
X96000004Y-103805565D01*
X96179249Y-103785369D01*
X96179252Y-103785368D01*
X96179255Y-103785368D01*
X96349522Y-103725789D01*
X96502262Y-103629816D01*
X96629816Y-103502262D01*
X96725789Y-103349522D01*
X96785368Y-103179255D01*
X96785369Y-103179249D01*
X96805565Y-103000003D01*
X96805565Y-102999996D01*
X96785369Y-102820750D01*
X96785368Y-102820745D01*
X96725788Y-102650476D01*
X96629815Y-102497737D01*
X96502262Y-102370184D01*
X96349523Y-102274211D01*
X96179254Y-102214631D01*
X96179249Y-102214630D01*
X96000004Y-102194435D01*
X95999996Y-102194435D01*
X95820750Y-102214630D01*
X95820745Y-102214631D01*
X95650476Y-102274211D01*
X95497737Y-102370184D01*
X95370184Y-102497737D01*
X95274211Y-102650476D01*
X95214631Y-102820745D01*
X95214630Y-102820750D01*
X95194435Y-102999996D01*
X87381235Y-102999996D01*
X87379816Y-102997738D01*
X87252262Y-102870184D01*
X87099523Y-102774211D01*
X86929254Y-102714631D01*
X86929249Y-102714630D01*
X86750004Y-102694435D01*
X86749996Y-102694435D01*
X86570750Y-102714630D01*
X86570745Y-102714631D01*
X86400476Y-102774211D01*
X86247737Y-102870184D01*
X86120184Y-102997737D01*
X86024211Y-103150476D01*
X85964631Y-103320745D01*
X85964630Y-103320750D01*
X85944435Y-103499996D01*
X76631240Y-103499996D01*
X76725789Y-103349522D01*
X76785368Y-103179255D01*
X76785369Y-103179249D01*
X76805565Y-103000003D01*
X76805565Y-102999996D01*
X76785369Y-102820750D01*
X76785368Y-102820745D01*
X76725788Y-102650476D01*
X76629815Y-102497737D01*
X76502262Y-102370184D01*
X76349523Y-102274211D01*
X76179254Y-102214631D01*
X76179249Y-102214630D01*
X76000004Y-102194435D01*
X75999996Y-102194435D01*
X75820750Y-102214630D01*
X75820745Y-102214631D01*
X75650476Y-102274211D01*
X75497737Y-102370184D01*
X75370184Y-102497737D01*
X75274211Y-102650476D01*
X75214631Y-102820745D01*
X75214630Y-102820750D01*
X75194435Y-102999996D01*
X73559426Y-102999996D01*
X73663224Y-102820212D01*
X73756054Y-102596100D01*
X73818838Y-102361789D01*
X73850500Y-102121288D01*
X73850500Y-101878712D01*
X73850500Y-101878711D01*
X98149500Y-101878711D01*
X98149500Y-102121288D01*
X98161788Y-102214631D01*
X98181162Y-102361789D01*
X98212554Y-102478944D01*
X98243947Y-102596104D01*
X98336773Y-102820205D01*
X98336777Y-102820214D01*
X98358974Y-102858661D01*
X98458064Y-103030289D01*
X98458066Y-103030292D01*
X98458067Y-103030293D01*
X98605733Y-103222736D01*
X98605739Y-103222743D01*
X98777256Y-103394260D01*
X98777262Y-103394265D01*
X98969711Y-103541936D01*
X99179788Y-103663224D01*
X99403900Y-103756054D01*
X99638211Y-103818838D01*
X99818586Y-103842584D01*
X99878711Y-103850500D01*
X99878712Y-103850500D01*
X100121289Y-103850500D01*
X100169388Y-103844167D01*
X100361789Y-103818838D01*
X100596100Y-103756054D01*
X100820212Y-103663224D01*
X101030289Y-103541936D01*
X101222738Y-103394265D01*
X101394265Y-103222738D01*
X101541936Y-103030289D01*
X101663224Y-102820212D01*
X101756054Y-102596100D01*
X101818838Y-102361789D01*
X101850500Y-102121288D01*
X101850500Y-101878712D01*
X101818838Y-101638211D01*
X101756054Y-101403900D01*
X101663224Y-101179788D01*
X101541936Y-100969711D01*
X101394265Y-100777262D01*
X101394260Y-100777256D01*
X101222743Y-100605739D01*
X101222736Y-100605733D01*
X101030293Y-100458067D01*
X101030292Y-100458066D01*
X101030289Y-100458064D01*
X100820212Y-100336776D01*
X100820205Y-100336773D01*
X100596104Y-100243947D01*
X100420475Y-100196887D01*
X100361789Y-100181162D01*
X100361788Y-100181161D01*
X100361785Y-100181161D01*
X100121289Y-100149500D01*
X100121288Y-100149500D01*
X99878712Y-100149500D01*
X99878711Y-100149500D01*
X99638214Y-100181161D01*
X99403895Y-100243947D01*
X99179794Y-100336773D01*
X99179785Y-100336777D01*
X98969706Y-100458067D01*
X98777263Y-100605733D01*
X98777256Y-100605739D01*
X98605739Y-100777256D01*
X98605733Y-100777263D01*
X98458067Y-100969706D01*
X98336777Y-101179785D01*
X98336773Y-101179794D01*
X98243947Y-101403895D01*
X98181161Y-101638214D01*
X98149500Y-101878711D01*
X73850500Y-101878711D01*
X73818838Y-101638211D01*
X73756054Y-101403900D01*
X73663224Y-101179788D01*
X73541936Y-100969711D01*
X73394265Y-100777262D01*
X73394260Y-100777256D01*
X73222743Y-100605739D01*
X73222736Y-100605733D01*
X73030293Y-100458067D01*
X73030292Y-100458066D01*
X73030289Y-100458064D01*
X72820212Y-100336776D01*
X72820205Y-100336773D01*
X72596104Y-100243947D01*
X72420475Y-100196887D01*
X72361789Y-100181162D01*
X72361788Y-100181161D01*
X72361785Y-100181161D01*
X72121289Y-100149500D01*
X72121288Y-100149500D01*
X71878712Y-100149500D01*
X71878711Y-100149500D01*
X71638214Y-100181161D01*
X71403895Y-100243947D01*
X71179794Y-100336773D01*
X71179785Y-100336777D01*
X70969706Y-100458067D01*
X70777263Y-100605733D01*
X70777256Y-100605739D01*
X70605739Y-100777256D01*
X70605733Y-100777263D01*
X70458067Y-100969706D01*
X70336777Y-101179785D01*
X70336773Y-101179794D01*
X70243947Y-101403895D01*
X70181161Y-101638214D01*
X70149500Y-101878711D01*
X65586525Y-101878711D01*
X62807821Y-99100007D01*
X78669059Y-99100007D01*
X78669059Y-99100008D01*
X78689280Y-99331140D01*
X78689282Y-99331150D01*
X78749329Y-99555251D01*
X78749331Y-99555255D01*
X78749332Y-99555259D01*
X78769972Y-99599522D01*
X78847387Y-99765540D01*
X78847388Y-99765541D01*
X78980469Y-99955600D01*
X79144532Y-100119663D01*
X79334591Y-100252744D01*
X79544873Y-100350800D01*
X79768987Y-100410851D01*
X79953896Y-100427028D01*
X80000123Y-100431073D01*
X80000124Y-100431073D01*
X80000125Y-100431073D01*
X80038646Y-100427702D01*
X80231261Y-100410851D01*
X80455375Y-100350800D01*
X80665657Y-100252744D01*
X80855716Y-100119663D01*
X81019779Y-99955600D01*
X81152860Y-99765541D01*
X81250916Y-99555259D01*
X81310967Y-99331145D01*
X81331185Y-99100054D01*
X90859511Y-99100054D01*
X90859511Y-99100055D01*
X90878927Y-99309592D01*
X90878927Y-99309594D01*
X90878928Y-99309597D01*
X90936517Y-99512002D01*
X90936518Y-99512005D01*
X91030318Y-99700380D01*
X91157137Y-99868315D01*
X91312652Y-100010085D01*
X91312654Y-100010087D01*
X91491568Y-100120866D01*
X91491574Y-100120869D01*
X91533144Y-100136973D01*
X91687800Y-100196887D01*
X91894656Y-100235555D01*
X91894658Y-100235555D01*
X92105094Y-100235555D01*
X92105096Y-100235555D01*
X92311952Y-100196887D01*
X92508180Y-100120868D01*
X92687099Y-100010086D01*
X92842616Y-99868314D01*
X92969434Y-99700380D01*
X93063235Y-99512002D01*
X93120824Y-99309597D01*
X93126347Y-99249996D01*
X106694435Y-99249996D01*
X106694435Y-99250003D01*
X106714630Y-99429249D01*
X106714631Y-99429254D01*
X106774211Y-99599523D01*
X106837584Y-99700380D01*
X106870184Y-99752262D01*
X106997738Y-99879816D01*
X107150478Y-99975789D01*
X107248496Y-100010087D01*
X107320745Y-100035368D01*
X107320750Y-100035369D01*
X107499996Y-100055565D01*
X107500000Y-100055565D01*
X107500004Y-100055565D01*
X107679249Y-100035369D01*
X107679252Y-100035368D01*
X107679255Y-100035368D01*
X107849522Y-99975789D01*
X108002262Y-99879816D01*
X108129816Y-99752262D01*
X108225789Y-99599522D01*
X108285368Y-99429255D01*
X108296422Y-99331150D01*
X108305565Y-99250003D01*
X108305565Y-99249996D01*
X108285369Y-99070750D01*
X108285368Y-99070745D01*
X108225788Y-98900476D01*
X108153461Y-98785369D01*
X108129816Y-98747738D01*
X108002262Y-98620184D01*
X107882487Y-98544924D01*
X107849523Y-98524211D01*
X107679254Y-98464631D01*
X107679249Y-98464630D01*
X107500004Y-98444435D01*
X107499996Y-98444435D01*
X107320750Y-98464630D01*
X107320745Y-98464631D01*
X107150476Y-98524211D01*
X106997737Y-98620184D01*
X106870184Y-98747737D01*
X106774211Y-98900476D01*
X106714631Y-99070745D01*
X106714630Y-99070750D01*
X106694435Y-99249996D01*
X93126347Y-99249996D01*
X93140241Y-99100055D01*
X93137525Y-99070750D01*
X93120824Y-98890517D01*
X93120824Y-98890513D01*
X93063235Y-98688108D01*
X92969434Y-98499730D01*
X92842616Y-98331796D01*
X92726331Y-98225789D01*
X92687099Y-98190024D01*
X92687097Y-98190022D01*
X92508183Y-98079243D01*
X92508177Y-98079240D01*
X92353524Y-98019328D01*
X92311952Y-98003223D01*
X92105096Y-97964555D01*
X91894656Y-97964555D01*
X91687800Y-98003223D01*
X91687797Y-98003223D01*
X91687797Y-98003224D01*
X91491574Y-98079240D01*
X91491568Y-98079243D01*
X91312654Y-98190022D01*
X91312652Y-98190024D01*
X91157137Y-98331794D01*
X91030318Y-98499729D01*
X90936518Y-98688104D01*
X90878927Y-98890517D01*
X90859511Y-99100054D01*
X81331185Y-99100054D01*
X81331189Y-99100008D01*
X81310967Y-98868871D01*
X81250916Y-98644757D01*
X81152860Y-98434476D01*
X81152858Y-98434473D01*
X81152857Y-98434471D01*
X81019778Y-98244414D01*
X80855720Y-98080357D01*
X80855716Y-98080353D01*
X80740955Y-97999996D01*
X85194435Y-97999996D01*
X85194435Y-98000003D01*
X85214630Y-98179249D01*
X85214631Y-98179254D01*
X85274211Y-98349523D01*
X85327591Y-98434476D01*
X85370184Y-98502262D01*
X85497738Y-98629816D01*
X85650478Y-98725789D01*
X85713202Y-98747737D01*
X85820745Y-98785368D01*
X85820750Y-98785369D01*
X85999996Y-98805565D01*
X86000000Y-98805565D01*
X86000004Y-98805565D01*
X86179249Y-98785369D01*
X86179252Y-98785368D01*
X86179255Y-98785368D01*
X86349522Y-98725789D01*
X86502262Y-98629816D01*
X86629816Y-98502262D01*
X86725789Y-98349522D01*
X86785368Y-98179255D01*
X86785369Y-98179249D01*
X86805565Y-98000003D01*
X86805565Y-97999996D01*
X86785369Y-97820750D01*
X86785368Y-97820745D01*
X86758957Y-97745266D01*
X86725789Y-97650478D01*
X86631235Y-97499996D01*
X94919434Y-97499996D01*
X94919434Y-97500003D01*
X94939629Y-97679249D01*
X94939630Y-97679254D01*
X94999210Y-97849523D01*
X95082429Y-97981964D01*
X95095183Y-98002262D01*
X95222737Y-98129816D01*
X95375477Y-98225789D01*
X95477419Y-98261460D01*
X95545744Y-98285368D01*
X95545749Y-98285369D01*
X95724995Y-98305565D01*
X95724999Y-98305565D01*
X95725003Y-98305565D01*
X95904248Y-98285369D01*
X95904251Y-98285368D01*
X95904254Y-98285368D01*
X96074521Y-98225789D01*
X96227261Y-98129816D01*
X96354815Y-98002262D01*
X96450788Y-97849522D01*
X96485614Y-97749996D01*
X101944435Y-97749996D01*
X101944435Y-97750003D01*
X101964630Y-97929249D01*
X101964631Y-97929254D01*
X102024211Y-98099523D01*
X102081076Y-98190022D01*
X102120184Y-98252262D01*
X102247738Y-98379816D01*
X102334721Y-98434471D01*
X102382721Y-98464632D01*
X102400478Y-98475789D01*
X102538857Y-98524210D01*
X102570745Y-98535368D01*
X102570750Y-98535369D01*
X102749996Y-98555565D01*
X102750000Y-98555565D01*
X102750004Y-98555565D01*
X102929249Y-98535369D01*
X102929252Y-98535368D01*
X102929255Y-98535368D01*
X103099522Y-98475789D01*
X103252262Y-98379816D01*
X103379816Y-98252262D01*
X103475789Y-98099522D01*
X103535368Y-97929255D01*
X103544386Y-97849216D01*
X103555565Y-97750003D01*
X103555565Y-97749996D01*
X103535369Y-97570750D01*
X103535368Y-97570745D01*
X103475788Y-97400476D01*
X103436582Y-97338080D01*
X103379816Y-97247738D01*
X103252262Y-97120184D01*
X103149422Y-97055565D01*
X103099523Y-97024211D01*
X102929254Y-96964631D01*
X102929249Y-96964630D01*
X102750004Y-96944435D01*
X102749996Y-96944435D01*
X102570750Y-96964630D01*
X102570745Y-96964631D01*
X102400476Y-97024211D01*
X102247737Y-97120184D01*
X102120184Y-97247737D01*
X102024211Y-97400476D01*
X101964631Y-97570745D01*
X101964630Y-97570750D01*
X101944435Y-97749996D01*
X96485614Y-97749996D01*
X96510367Y-97679255D01*
X96510368Y-97679249D01*
X96530564Y-97500003D01*
X96530564Y-97499996D01*
X96510368Y-97320750D01*
X96510367Y-97320745D01*
X96450787Y-97150476D01*
X96378460Y-97035369D01*
X96354815Y-96997738D01*
X96227261Y-96870184D01*
X96124421Y-96805565D01*
X96074522Y-96774211D01*
X95904253Y-96714631D01*
X95904248Y-96714630D01*
X95725003Y-96694435D01*
X95724995Y-96694435D01*
X95545749Y-96714630D01*
X95545744Y-96714631D01*
X95375475Y-96774211D01*
X95222736Y-96870184D01*
X95095183Y-96997737D01*
X94999210Y-97150476D01*
X94939630Y-97320745D01*
X94939629Y-97320750D01*
X94919434Y-97499996D01*
X86631235Y-97499996D01*
X86629816Y-97497738D01*
X86502262Y-97370184D01*
X86349523Y-97274211D01*
X86179254Y-97214631D01*
X86179249Y-97214630D01*
X86000004Y-97194435D01*
X85999996Y-97194435D01*
X85820750Y-97214630D01*
X85820745Y-97214631D01*
X85650476Y-97274211D01*
X85497737Y-97370184D01*
X85370184Y-97497737D01*
X85274211Y-97650476D01*
X85214631Y-97820745D01*
X85214630Y-97820750D01*
X85194435Y-97999996D01*
X80740955Y-97999996D01*
X80665657Y-97947272D01*
X80665658Y-97947272D01*
X80665656Y-97947271D01*
X80560516Y-97898244D01*
X80455375Y-97849216D01*
X80455371Y-97849215D01*
X80455367Y-97849213D01*
X80231266Y-97789166D01*
X80231256Y-97789164D01*
X80000125Y-97768943D01*
X80000123Y-97768943D01*
X79768991Y-97789164D01*
X79768981Y-97789166D01*
X79544880Y-97849213D01*
X79544871Y-97849217D01*
X79334591Y-97947272D01*
X79334587Y-97947274D01*
X79144530Y-98080353D01*
X78980469Y-98244414D01*
X78847390Y-98434471D01*
X78847388Y-98434475D01*
X78749333Y-98644755D01*
X78749329Y-98644764D01*
X78689282Y-98868865D01*
X78689280Y-98868875D01*
X78669059Y-99100007D01*
X62807821Y-99100007D01*
X62307316Y-98599502D01*
X62307315Y-98599501D01*
X62307314Y-98599500D01*
X62212786Y-98544924D01*
X62193187Y-98533608D01*
X62129539Y-98516554D01*
X62065892Y-98499500D01*
X62065891Y-98499500D01*
X52004428Y-98499500D01*
X51995582Y-98499184D01*
X51973622Y-98497613D01*
X51795442Y-98484869D01*
X51777931Y-98482351D01*
X51586212Y-98440646D01*
X51569236Y-98435662D01*
X51385390Y-98367090D01*
X51369298Y-98359740D01*
X51197095Y-98265711D01*
X51182210Y-98256146D01*
X51079496Y-98179255D01*
X51025132Y-98138558D01*
X51011762Y-98126972D01*
X50873027Y-97988237D01*
X50861441Y-97974867D01*
X50743849Y-97817784D01*
X50734288Y-97802904D01*
X50640259Y-97630701D01*
X50632909Y-97614609D01*
X50590163Y-97500003D01*
X50564334Y-97430755D01*
X50559355Y-97413797D01*
X50517647Y-97222063D01*
X50515130Y-97204556D01*
X50514406Y-97194435D01*
X50500816Y-97004418D01*
X50500500Y-96995572D01*
X50500500Y-94249996D01*
X52944435Y-94249996D01*
X52944435Y-94250003D01*
X52964630Y-94429249D01*
X52964631Y-94429254D01*
X53024211Y-94599523D01*
X53080607Y-94689276D01*
X53120184Y-94752262D01*
X53247738Y-94879816D01*
X53326410Y-94929249D01*
X53395060Y-94972385D01*
X53400478Y-94975789D01*
X53538860Y-95024211D01*
X53570745Y-95035368D01*
X53570750Y-95035369D01*
X53749996Y-95055565D01*
X53750000Y-95055565D01*
X53750004Y-95055565D01*
X53929249Y-95035369D01*
X53929252Y-95035368D01*
X53929255Y-95035368D01*
X54099522Y-94975789D01*
X54252262Y-94879816D01*
X54379816Y-94752262D01*
X54475789Y-94599522D01*
X54535368Y-94429255D01*
X54536074Y-94422989D01*
X54555565Y-94250003D01*
X54555565Y-94249996D01*
X54535369Y-94070750D01*
X54535368Y-94070745D01*
X54512939Y-94006648D01*
X54475789Y-93900478D01*
X54379816Y-93747738D01*
X54252262Y-93620184D01*
X54188017Y-93579816D01*
X54099523Y-93524211D01*
X53929254Y-93464631D01*
X53929249Y-93464630D01*
X53750004Y-93444435D01*
X53749996Y-93444435D01*
X53570750Y-93464630D01*
X53570745Y-93464631D01*
X53400476Y-93524211D01*
X53247737Y-93620184D01*
X53120184Y-93747737D01*
X53024211Y-93900476D01*
X52964631Y-94070745D01*
X52964630Y-94070750D01*
X52944435Y-94249996D01*
X50500500Y-94249996D01*
X50500500Y-91999996D01*
X57694435Y-91999996D01*
X57694435Y-92000003D01*
X57714630Y-92179249D01*
X57714631Y-92179254D01*
X57774211Y-92349523D01*
X57835924Y-92447738D01*
X57870184Y-92502262D01*
X57997738Y-92629816D01*
X58150478Y-92725789D01*
X58219678Y-92750003D01*
X58320745Y-92785368D01*
X58320750Y-92785369D01*
X58499996Y-92805565D01*
X58500000Y-92805565D01*
X58500004Y-92805565D01*
X58679249Y-92785369D01*
X58679252Y-92785368D01*
X58679255Y-92785368D01*
X58849522Y-92725789D01*
X59002262Y-92629816D01*
X59129816Y-92502262D01*
X59225789Y-92349522D01*
X59285368Y-92179255D01*
X59288105Y-92154967D01*
X59305565Y-92000003D01*
X59305565Y-91999996D01*
X59285369Y-91820750D01*
X59285367Y-91820740D01*
X59259658Y-91747271D01*
X59253028Y-91728325D01*
X59249466Y-91658547D01*
X59282389Y-91599689D01*
X59311333Y-91570745D01*
X59379816Y-91502262D01*
X59475789Y-91349522D01*
X59535368Y-91179255D01*
X59535369Y-91179249D01*
X59555565Y-91000003D01*
X59555565Y-90999996D01*
X59535369Y-90820750D01*
X59535368Y-90820745D01*
X59489820Y-90690576D01*
X59475789Y-90650478D01*
X59475174Y-90649500D01*
X59381237Y-90500000D01*
X59379816Y-90497738D01*
X59252262Y-90370184D01*
X59224887Y-90352983D01*
X59099523Y-90274211D01*
X58929254Y-90214631D01*
X58929249Y-90214630D01*
X58750004Y-90194435D01*
X58749996Y-90194435D01*
X58570750Y-90214630D01*
X58570745Y-90214631D01*
X58400476Y-90274211D01*
X58247737Y-90370184D01*
X58120184Y-90497737D01*
X58024211Y-90650476D01*
X57964631Y-90820745D01*
X57964630Y-90820750D01*
X57944435Y-90999996D01*
X57944435Y-91000003D01*
X57964630Y-91179249D01*
X57964633Y-91179262D01*
X57996970Y-91271674D01*
X58000532Y-91341453D01*
X57967611Y-91400309D01*
X57870185Y-91497736D01*
X57870184Y-91497737D01*
X57774211Y-91650476D01*
X57714631Y-91820745D01*
X57714630Y-91820750D01*
X57694435Y-91999996D01*
X50500500Y-91999996D01*
X50500500Y-88848071D01*
X50520185Y-88781032D01*
X50572989Y-88735277D01*
X50642147Y-88725333D01*
X50665455Y-88731030D01*
X50820737Y-88785366D01*
X50820743Y-88785367D01*
X50820745Y-88785368D01*
X50820746Y-88785368D01*
X50820750Y-88785369D01*
X50999996Y-88805565D01*
X51000000Y-88805565D01*
X51000004Y-88805565D01*
X51179249Y-88785369D01*
X51179252Y-88785368D01*
X51179255Y-88785368D01*
X51349522Y-88725789D01*
X51502262Y-88629816D01*
X51629816Y-88502262D01*
X51725789Y-88349522D01*
X51785368Y-88179255D01*
X51785369Y-88179249D01*
X51805565Y-88000003D01*
X51805565Y-87999996D01*
X60194435Y-87999996D01*
X60194435Y-88000003D01*
X60214630Y-88179249D01*
X60214631Y-88179254D01*
X60274211Y-88349523D01*
X60340842Y-88455565D01*
X60370184Y-88502262D01*
X60497738Y-88629816D01*
X60650478Y-88725789D01*
X60808353Y-88781032D01*
X60820745Y-88785368D01*
X60820750Y-88785369D01*
X60999996Y-88805565D01*
X61000000Y-88805565D01*
X61000004Y-88805565D01*
X61179249Y-88785369D01*
X61179252Y-88785368D01*
X61179255Y-88785368D01*
X61349522Y-88725789D01*
X61502262Y-88629816D01*
X61629816Y-88502262D01*
X61725789Y-88349522D01*
X61785368Y-88179255D01*
X61785369Y-88179249D01*
X61805565Y-88000003D01*
X61805565Y-87999996D01*
X65194435Y-87999996D01*
X65194435Y-88000003D01*
X65214630Y-88179249D01*
X65214631Y-88179254D01*
X65274211Y-88349523D01*
X65340842Y-88455565D01*
X65370184Y-88502262D01*
X65497738Y-88629816D01*
X65650478Y-88725789D01*
X65808353Y-88781032D01*
X65820745Y-88785368D01*
X65820750Y-88785369D01*
X65999996Y-88805565D01*
X66000000Y-88805565D01*
X66000004Y-88805565D01*
X66179249Y-88785369D01*
X66179252Y-88785368D01*
X66179255Y-88785368D01*
X66349522Y-88725789D01*
X66502262Y-88629816D01*
X66629816Y-88502262D01*
X66725789Y-88349522D01*
X66760615Y-88249996D01*
X68694435Y-88249996D01*
X68694435Y-88250003D01*
X68714630Y-88429249D01*
X68714631Y-88429254D01*
X68774211Y-88599523D01*
X68808283Y-88653748D01*
X68870184Y-88752262D01*
X68997738Y-88879816D01*
X69150478Y-88975789D01*
X69219678Y-89000003D01*
X69320745Y-89035368D01*
X69320750Y-89035369D01*
X69499996Y-89055565D01*
X69500000Y-89055565D01*
X69500004Y-89055565D01*
X69679249Y-89035369D01*
X69679252Y-89035368D01*
X69679255Y-89035368D01*
X69849522Y-88975789D01*
X70002262Y-88879816D01*
X70129816Y-88752262D01*
X70225789Y-88599522D01*
X70285368Y-88429255D01*
X70285369Y-88429249D01*
X70305565Y-88250003D01*
X70305565Y-88249996D01*
X70285369Y-88070750D01*
X70285368Y-88070745D01*
X70225788Y-87900476D01*
X70181033Y-87829249D01*
X70129816Y-87747738D01*
X70002262Y-87620184D01*
X69929267Y-87574318D01*
X69849523Y-87524211D01*
X69679254Y-87464631D01*
X69679249Y-87464630D01*
X69500004Y-87444435D01*
X69499996Y-87444435D01*
X69320750Y-87464630D01*
X69320745Y-87464631D01*
X69150476Y-87524211D01*
X68997737Y-87620184D01*
X68870184Y-87747737D01*
X68774211Y-87900476D01*
X68714631Y-88070745D01*
X68714630Y-88070750D01*
X68694435Y-88249996D01*
X66760615Y-88249996D01*
X66785368Y-88179255D01*
X66785369Y-88179249D01*
X66805565Y-88000003D01*
X66805565Y-87999996D01*
X66785369Y-87820750D01*
X66785368Y-87820745D01*
X66725788Y-87650476D01*
X66685340Y-87586104D01*
X66629816Y-87497738D01*
X66502262Y-87370184D01*
X66453297Y-87339417D01*
X66349523Y-87274211D01*
X66179254Y-87214631D01*
X66179249Y-87214630D01*
X66000004Y-87194435D01*
X65999996Y-87194435D01*
X65820750Y-87214630D01*
X65820745Y-87214631D01*
X65650476Y-87274211D01*
X65497737Y-87370184D01*
X65370184Y-87497737D01*
X65274211Y-87650476D01*
X65214631Y-87820745D01*
X65214630Y-87820750D01*
X65194435Y-87999996D01*
X61805565Y-87999996D01*
X61785369Y-87820750D01*
X61785368Y-87820745D01*
X61725788Y-87650476D01*
X61685340Y-87586104D01*
X61629816Y-87497738D01*
X61502262Y-87370184D01*
X61453297Y-87339417D01*
X61349523Y-87274211D01*
X61179254Y-87214631D01*
X61179249Y-87214630D01*
X61000004Y-87194435D01*
X60999996Y-87194435D01*
X60820750Y-87214630D01*
X60820745Y-87214631D01*
X60650476Y-87274211D01*
X60497737Y-87370184D01*
X60370184Y-87497737D01*
X60274211Y-87650476D01*
X60214631Y-87820745D01*
X60214630Y-87820750D01*
X60194435Y-87999996D01*
X51805565Y-87999996D01*
X51785369Y-87820750D01*
X51785368Y-87820745D01*
X51725788Y-87650476D01*
X51685340Y-87586104D01*
X51629816Y-87497738D01*
X51502262Y-87370184D01*
X51453297Y-87339417D01*
X51349523Y-87274211D01*
X51179254Y-87214631D01*
X51179249Y-87214630D01*
X51000004Y-87194435D01*
X50999996Y-87194435D01*
X50820750Y-87214630D01*
X50820742Y-87214632D01*
X50665454Y-87268970D01*
X50595676Y-87272531D01*
X50535048Y-87237802D01*
X50502821Y-87175809D01*
X50500500Y-87151928D01*
X50500500Y-82999996D01*
X56194435Y-82999996D01*
X56194435Y-83000003D01*
X56214630Y-83179249D01*
X56214633Y-83179262D01*
X56274209Y-83349520D01*
X56327309Y-83434029D01*
X56346309Y-83501266D01*
X56327309Y-83565971D01*
X56274209Y-83650479D01*
X56214633Y-83820737D01*
X56214630Y-83820750D01*
X56194435Y-83999996D01*
X56194435Y-84000003D01*
X56214630Y-84179249D01*
X56214631Y-84179254D01*
X56274211Y-84349523D01*
X56352754Y-84474522D01*
X56370184Y-84502262D01*
X56497738Y-84629816D01*
X56650478Y-84725789D01*
X56788206Y-84773982D01*
X56820745Y-84785368D01*
X56820750Y-84785369D01*
X56999996Y-84805565D01*
X57000000Y-84805565D01*
X57000004Y-84805565D01*
X57179249Y-84785369D01*
X57179252Y-84785368D01*
X57179255Y-84785368D01*
X57349522Y-84725789D01*
X57502262Y-84629816D01*
X57502267Y-84629810D01*
X57505097Y-84627555D01*
X57507275Y-84626665D01*
X57508158Y-84626111D01*
X57508255Y-84626265D01*
X57569783Y-84601145D01*
X57582412Y-84600500D01*
X65768589Y-84600500D01*
X65835628Y-84620185D01*
X65881383Y-84672989D01*
X65891327Y-84742147D01*
X65873581Y-84790474D01*
X65868417Y-84798691D01*
X65808836Y-84968962D01*
X65808835Y-84968967D01*
X65788640Y-85148213D01*
X65788640Y-85148220D01*
X65808835Y-85327466D01*
X65808836Y-85327471D01*
X65868416Y-85497740D01*
X65964389Y-85650479D01*
X66091943Y-85778033D01*
X66135760Y-85805565D01*
X66205718Y-85849523D01*
X66244683Y-85874006D01*
X66414950Y-85933585D01*
X66501873Y-85943378D01*
X66566284Y-85970443D01*
X66575669Y-85978917D01*
X66577272Y-85980520D01*
X66652948Y-86024211D01*
X66714203Y-86059577D01*
X66866930Y-86100500D01*
X66866931Y-86100500D01*
X68572524Y-86100500D01*
X68639563Y-86120185D01*
X68685318Y-86172989D01*
X68695744Y-86238386D01*
X68694435Y-86250001D01*
X68694435Y-86250003D01*
X68714630Y-86429249D01*
X68714631Y-86429254D01*
X68774211Y-86599523D01*
X68848715Y-86718094D01*
X68870184Y-86752262D01*
X68997738Y-86879816D01*
X69150478Y-86975789D01*
X69219678Y-87000003D01*
X69320745Y-87035368D01*
X69320750Y-87035369D01*
X69499996Y-87055565D01*
X69500000Y-87055565D01*
X69500004Y-87055565D01*
X69679249Y-87035369D01*
X69679252Y-87035368D01*
X69679255Y-87035368D01*
X69849522Y-86975789D01*
X70002262Y-86879816D01*
X70129816Y-86752262D01*
X70225789Y-86599522D01*
X70285368Y-86429255D01*
X70285369Y-86429249D01*
X70305565Y-86250003D01*
X70305565Y-86250001D01*
X70304256Y-86238386D01*
X70316309Y-86169564D01*
X70363657Y-86118184D01*
X70427476Y-86100500D01*
X73449903Y-86100500D01*
X73516942Y-86120185D01*
X73537584Y-86136819D01*
X77535445Y-90134681D01*
X77568930Y-90196004D01*
X77570984Y-90236242D01*
X77569436Y-90249996D01*
X77569435Y-90250002D01*
X77569435Y-90250003D01*
X77589630Y-90429249D01*
X77589631Y-90429254D01*
X77649211Y-90599523D01*
X77745184Y-90752262D01*
X77862169Y-90869247D01*
X77895654Y-90930570D01*
X77890670Y-91000262D01*
X77848798Y-91056195D01*
X77840461Y-91061921D01*
X77747740Y-91120182D01*
X77747737Y-91120184D01*
X77620184Y-91247737D01*
X77524210Y-91400478D01*
X77464630Y-91570750D01*
X77454837Y-91657668D01*
X77427770Y-91722082D01*
X77419298Y-91731465D01*
X76537584Y-92613181D01*
X76476261Y-92646666D01*
X76449903Y-92649500D01*
X68633211Y-92649500D01*
X68566172Y-92629815D01*
X68520417Y-92577011D01*
X68510473Y-92507853D01*
X68516170Y-92484544D01*
X68532384Y-92438208D01*
X68532386Y-92438198D01*
X68552582Y-92258952D01*
X68552582Y-92258946D01*
X68541096Y-92157008D01*
X68553150Y-92088186D01*
X68576636Y-92055442D01*
X68629814Y-92002264D01*
X68629814Y-92002263D01*
X68629816Y-92002262D01*
X68721899Y-91855711D01*
X68774231Y-91809422D01*
X68813005Y-91798466D01*
X68890850Y-91789695D01*
X68929249Y-91785369D01*
X68929252Y-91785368D01*
X68929255Y-91785368D01*
X69099522Y-91725789D01*
X69252262Y-91629816D01*
X69379816Y-91502262D01*
X69475789Y-91349522D01*
X69535368Y-91179255D01*
X69535369Y-91179249D01*
X69555565Y-91000003D01*
X69555565Y-90999996D01*
X69535369Y-90820750D01*
X69535368Y-90820745D01*
X69489820Y-90690576D01*
X69475789Y-90650478D01*
X69475174Y-90649500D01*
X69381237Y-90500000D01*
X69379816Y-90497738D01*
X69252262Y-90370184D01*
X69224887Y-90352983D01*
X69099523Y-90274211D01*
X68929254Y-90214631D01*
X68929249Y-90214630D01*
X68750004Y-90194435D01*
X68749996Y-90194435D01*
X68570750Y-90214630D01*
X68570745Y-90214631D01*
X68400476Y-90274211D01*
X68247737Y-90370184D01*
X68120184Y-90497737D01*
X68028102Y-90644285D01*
X67975767Y-90690576D01*
X67936992Y-90701533D01*
X67820749Y-90714630D01*
X67820745Y-90714631D01*
X67650476Y-90774211D01*
X67497737Y-90870184D01*
X67370184Y-90997737D01*
X67274211Y-91150476D01*
X67214631Y-91320745D01*
X67214630Y-91320750D01*
X67194435Y-91499996D01*
X67194435Y-91500003D01*
X67205920Y-91601941D01*
X67193865Y-91670763D01*
X67170382Y-91703504D01*
X67117203Y-91756683D01*
X67021228Y-91909425D01*
X66961648Y-92079694D01*
X66961647Y-92079699D01*
X66941452Y-92258945D01*
X66941452Y-92258952D01*
X66961647Y-92438198D01*
X66961649Y-92438208D01*
X66977864Y-92484544D01*
X66981427Y-92554323D01*
X66946698Y-92614951D01*
X66884705Y-92647178D01*
X66860823Y-92649500D01*
X59670943Y-92649500D01*
X59518214Y-92690423D01*
X59485040Y-92709577D01*
X59485039Y-92709577D01*
X59381287Y-92769477D01*
X59381282Y-92769481D01*
X59269478Y-92881286D01*
X58981465Y-93169298D01*
X58920142Y-93202783D01*
X58907668Y-93204837D01*
X58820750Y-93214630D01*
X58650478Y-93274210D01*
X58497737Y-93370184D01*
X58370184Y-93497737D01*
X58274211Y-93650476D01*
X58214631Y-93820745D01*
X58214630Y-93820750D01*
X58194435Y-93999996D01*
X58194435Y-94000003D01*
X58214630Y-94179249D01*
X58214633Y-94179262D01*
X58274209Y-94349520D01*
X58327309Y-94434029D01*
X58346309Y-94501266D01*
X58327309Y-94565971D01*
X58274209Y-94650479D01*
X58214633Y-94820737D01*
X58214630Y-94820750D01*
X58194435Y-94999996D01*
X58194435Y-95000003D01*
X58214630Y-95179249D01*
X58214631Y-95179254D01*
X58274211Y-95349523D01*
X58353549Y-95475788D01*
X58370184Y-95502262D01*
X58497738Y-95629816D01*
X58650478Y-95725789D01*
X58799457Y-95777919D01*
X58820745Y-95785368D01*
X58820750Y-95785369D01*
X58999996Y-95805565D01*
X59000000Y-95805565D01*
X59000004Y-95805565D01*
X59179249Y-95785369D01*
X59179252Y-95785368D01*
X59179255Y-95785368D01*
X59349522Y-95725789D01*
X59502262Y-95629816D01*
X59629816Y-95502262D01*
X59725789Y-95349522D01*
X59785368Y-95179255D01*
X59795161Y-95092329D01*
X59822226Y-95027918D01*
X59830690Y-95018543D01*
X60462416Y-94386819D01*
X60523739Y-94353334D01*
X60550097Y-94350500D01*
X61616937Y-94350500D01*
X61683976Y-94370185D01*
X61729731Y-94422989D01*
X61739675Y-94492147D01*
X61733978Y-94515455D01*
X61714633Y-94570737D01*
X61714630Y-94570750D01*
X61694435Y-94749996D01*
X61694435Y-94750003D01*
X61714630Y-94929249D01*
X61714631Y-94929254D01*
X61774211Y-95099523D01*
X61861992Y-95239224D01*
X61870184Y-95252262D01*
X61997738Y-95379816D01*
X62076410Y-95429249D01*
X62132721Y-95464632D01*
X62150478Y-95475789D01*
X62288860Y-95524211D01*
X62320745Y-95535368D01*
X62320750Y-95535369D01*
X62499996Y-95555565D01*
X62500000Y-95555565D01*
X62500004Y-95555565D01*
X62679249Y-95535369D01*
X62679252Y-95535368D01*
X62679255Y-95535368D01*
X62849522Y-95475789D01*
X63002262Y-95379816D01*
X63129816Y-95252262D01*
X63225789Y-95099522D01*
X63285368Y-94929255D01*
X63285369Y-94929249D01*
X63305565Y-94750003D01*
X63305565Y-94749996D01*
X63285369Y-94570750D01*
X63285366Y-94570737D01*
X63266022Y-94515455D01*
X63262460Y-94445676D01*
X63297188Y-94385049D01*
X63359182Y-94352821D01*
X63383063Y-94350500D01*
X65822524Y-94350500D01*
X65889563Y-94370185D01*
X65935318Y-94422989D01*
X65945743Y-94488384D01*
X65945320Y-94492147D01*
X65944435Y-94500001D01*
X65944435Y-94500003D01*
X65964630Y-94679249D01*
X65964631Y-94679254D01*
X66024211Y-94849523D01*
X66120184Y-95002262D01*
X66155241Y-95037319D01*
X66188726Y-95098642D01*
X66183742Y-95168334D01*
X66155241Y-95212681D01*
X66120184Y-95247737D01*
X66024211Y-95400476D01*
X65964631Y-95570745D01*
X65964630Y-95570750D01*
X65944435Y-95749996D01*
X65944435Y-95750003D01*
X65964630Y-95929249D01*
X65964631Y-95929254D01*
X66024211Y-96099523D01*
X66114206Y-96242748D01*
X66120184Y-96252262D01*
X66247738Y-96379816D01*
X66400478Y-96475789D01*
X66570745Y-96535368D01*
X66570750Y-96535369D01*
X66749996Y-96555565D01*
X66750000Y-96555565D01*
X66750004Y-96555565D01*
X66929249Y-96535369D01*
X66929252Y-96535368D01*
X66929255Y-96535368D01*
X67099522Y-96475789D01*
X67252262Y-96379816D01*
X67379816Y-96252262D01*
X67475789Y-96099522D01*
X67535368Y-95929255D01*
X67545161Y-95842329D01*
X67572226Y-95777919D01*
X67580688Y-95768545D01*
X67812418Y-95536818D01*
X67873742Y-95503334D01*
X67900099Y-95500500D01*
X68877259Y-95500500D01*
X68944298Y-95520185D01*
X68990053Y-95572989D01*
X69000479Y-95610617D01*
X69020935Y-95792182D01*
X69020936Y-95792187D01*
X69080516Y-95962456D01*
X69125662Y-96034305D01*
X69176489Y-96115195D01*
X69304043Y-96242749D01*
X69456783Y-96338722D01*
X69574220Y-96379815D01*
X69627050Y-96398301D01*
X69627055Y-96398302D01*
X69806301Y-96418498D01*
X69806305Y-96418498D01*
X69806309Y-96418498D01*
X69985554Y-96398302D01*
X69985557Y-96398301D01*
X69985560Y-96398301D01*
X70155827Y-96338722D01*
X70308567Y-96242749D01*
X70436121Y-96115195D01*
X70532094Y-95962455D01*
X70591673Y-95792188D01*
X70592442Y-95785369D01*
X70612131Y-95610617D01*
X70639197Y-95546203D01*
X70696792Y-95506648D01*
X70735351Y-95500500D01*
X77401579Y-95500500D01*
X77468618Y-95520185D01*
X77514373Y-95572989D01*
X77518621Y-95583546D01*
X77524211Y-95599523D01*
X77603549Y-95725788D01*
X77620184Y-95752262D01*
X77747738Y-95879816D01*
X77826141Y-95929080D01*
X77879258Y-95962456D01*
X77900478Y-95975789D01*
X77969678Y-96000003D01*
X78070745Y-96035368D01*
X78070750Y-96035369D01*
X78249996Y-96055565D01*
X78250000Y-96055565D01*
X78250004Y-96055565D01*
X78429249Y-96035369D01*
X78429252Y-96035368D01*
X78429255Y-96035368D01*
X78599522Y-95975789D01*
X78752262Y-95879816D01*
X78879816Y-95752262D01*
X78975789Y-95599522D01*
X79035368Y-95429255D01*
X79038455Y-95401861D01*
X79055565Y-95250003D01*
X79055565Y-95249996D01*
X98094435Y-95249996D01*
X98094435Y-95250003D01*
X98114630Y-95429249D01*
X98114631Y-95429254D01*
X98174211Y-95599523D01*
X98253549Y-95725788D01*
X98270184Y-95752262D01*
X98397738Y-95879816D01*
X98476141Y-95929080D01*
X98529258Y-95962456D01*
X98550478Y-95975789D01*
X98619678Y-96000003D01*
X98720745Y-96035368D01*
X98720750Y-96035369D01*
X98899996Y-96055565D01*
X98900000Y-96055565D01*
X98900004Y-96055565D01*
X99079249Y-96035369D01*
X99079252Y-96035368D01*
X99079255Y-96035368D01*
X99249522Y-95975789D01*
X99402262Y-95879816D01*
X99529816Y-95752262D01*
X99625789Y-95599522D01*
X99685368Y-95429255D01*
X99688455Y-95401861D01*
X99705565Y-95250003D01*
X99705565Y-95249996D01*
X99685369Y-95070750D01*
X99685368Y-95070745D01*
X99645511Y-94956841D01*
X99625789Y-94900478D01*
X99529816Y-94747738D01*
X99402262Y-94620184D01*
X99327927Y-94573476D01*
X99249523Y-94524211D01*
X99079254Y-94464631D01*
X99079249Y-94464630D01*
X98900004Y-94444435D01*
X98899996Y-94444435D01*
X98720750Y-94464630D01*
X98720745Y-94464631D01*
X98550476Y-94524211D01*
X98397737Y-94620184D01*
X98270184Y-94747737D01*
X98174211Y-94900476D01*
X98114631Y-95070745D01*
X98114630Y-95070750D01*
X98094435Y-95249996D01*
X79055565Y-95249996D01*
X79035369Y-95070750D01*
X79035368Y-95070745D01*
X78995511Y-94956841D01*
X78975789Y-94900478D01*
X78927325Y-94823348D01*
X78908325Y-94756112D01*
X78928693Y-94689276D01*
X78966348Y-94652382D01*
X78971842Y-94648930D01*
X79002262Y-94629816D01*
X79129816Y-94502262D01*
X79225789Y-94349522D01*
X79285368Y-94179255D01*
X79293102Y-94110617D01*
X79305565Y-94000003D01*
X79305565Y-93999996D01*
X79285369Y-93820750D01*
X79285368Y-93820745D01*
X79263588Y-93758501D01*
X79225789Y-93650478D01*
X79129816Y-93497738D01*
X79094759Y-93462681D01*
X79061274Y-93401358D01*
X79066258Y-93331666D01*
X79094759Y-93287319D01*
X79107868Y-93274210D01*
X79129816Y-93252262D01*
X79225789Y-93099522D01*
X79260615Y-92999996D01*
X85194435Y-92999996D01*
X85194435Y-93000003D01*
X85214630Y-93179249D01*
X85214631Y-93179254D01*
X85274211Y-93349523D01*
X85346538Y-93464630D01*
X85370184Y-93502262D01*
X85497738Y-93629816D01*
X85650478Y-93725789D01*
X85820745Y-93785368D01*
X85820750Y-93785369D01*
X85999996Y-93805565D01*
X86000000Y-93805565D01*
X86000004Y-93805565D01*
X86179249Y-93785369D01*
X86179252Y-93785368D01*
X86179255Y-93785368D01*
X86349522Y-93725789D01*
X86502262Y-93629816D01*
X86629816Y-93502262D01*
X86725789Y-93349522D01*
X86785368Y-93179255D01*
X86791002Y-93129254D01*
X86805565Y-93000003D01*
X86805565Y-92999996D01*
X86785369Y-92820750D01*
X86785368Y-92820745D01*
X86767430Y-92769480D01*
X86725789Y-92650478D01*
X86725174Y-92649500D01*
X86679627Y-92577011D01*
X86629816Y-92497738D01*
X86502262Y-92370184D01*
X86405807Y-92309577D01*
X86349523Y-92274211D01*
X86179254Y-92214631D01*
X86179249Y-92214630D01*
X86000004Y-92194435D01*
X85999996Y-92194435D01*
X85820750Y-92214630D01*
X85820745Y-92214631D01*
X85650476Y-92274211D01*
X85497737Y-92370184D01*
X85370184Y-92497737D01*
X85274211Y-92650476D01*
X85214631Y-92820745D01*
X85214630Y-92820750D01*
X85194435Y-92999996D01*
X79260615Y-92999996D01*
X79285368Y-92929255D01*
X79290773Y-92881284D01*
X79305565Y-92750003D01*
X79305565Y-92749996D01*
X79285369Y-92570750D01*
X79285368Y-92570745D01*
X79242326Y-92447738D01*
X79225789Y-92400478D01*
X79225174Y-92399500D01*
X79136858Y-92258945D01*
X79129816Y-92247738D01*
X79032389Y-92150311D01*
X78998904Y-92088988D01*
X79003029Y-92021674D01*
X79035367Y-91929259D01*
X79035369Y-91929249D01*
X79055565Y-91750003D01*
X79055565Y-91749996D01*
X79035369Y-91570750D01*
X79035368Y-91570745D01*
X78975788Y-91400476D01*
X78927899Y-91324262D01*
X78879816Y-91247738D01*
X78762830Y-91130752D01*
X78729345Y-91069429D01*
X78734329Y-90999737D01*
X78776201Y-90943804D01*
X78784525Y-90938086D01*
X78877262Y-90879816D01*
X79004816Y-90752262D01*
X79100789Y-90599522D01*
X79160368Y-90429255D01*
X79160369Y-90429249D01*
X79180565Y-90250003D01*
X79180565Y-90249996D01*
X79160369Y-90070750D01*
X79160368Y-90070745D01*
X79127141Y-89975788D01*
X79100789Y-89900478D01*
X79100787Y-89900476D01*
X79100786Y-89900471D01*
X79100224Y-89899303D01*
X79100087Y-89898472D01*
X79098489Y-89893905D01*
X79099288Y-89893625D01*
X79088869Y-89830362D01*
X79116589Y-89766227D01*
X79124265Y-89757813D01*
X79129816Y-89752262D01*
X79146451Y-89725788D01*
X79225789Y-89599522D01*
X79285368Y-89429255D01*
X79305565Y-89250000D01*
X79297593Y-89179249D01*
X79285369Y-89070750D01*
X79285368Y-89070745D01*
X79225788Y-88900475D01*
X79172691Y-88815973D01*
X79153690Y-88748736D01*
X79172691Y-88684027D01*
X79225788Y-88599524D01*
X79225789Y-88599522D01*
X79285368Y-88429255D01*
X79285369Y-88429249D01*
X79305565Y-88250003D01*
X79305565Y-88249996D01*
X79285369Y-88070750D01*
X79285368Y-88070745D01*
X79225788Y-87900476D01*
X79181033Y-87829249D01*
X79129816Y-87747738D01*
X79094759Y-87712681D01*
X79061274Y-87651358D01*
X79066258Y-87581666D01*
X79094759Y-87537319D01*
X79107867Y-87524211D01*
X79129816Y-87502262D01*
X79225789Y-87349522D01*
X79285368Y-87179255D01*
X79285369Y-87179249D01*
X79305565Y-87000003D01*
X79305565Y-86999996D01*
X79285369Y-86820750D01*
X79285368Y-86820745D01*
X79260612Y-86749996D01*
X79225789Y-86650478D01*
X79213727Y-86631282D01*
X79186582Y-86588080D01*
X79129816Y-86497738D01*
X79002262Y-86370184D01*
X78927723Y-86323348D01*
X78849521Y-86274210D01*
X78679249Y-86214630D01*
X78592330Y-86204837D01*
X78527916Y-86177770D01*
X78518533Y-86169298D01*
X75487590Y-83138355D01*
X75487588Y-83138352D01*
X75368717Y-83019481D01*
X75368712Y-83019477D01*
X75334969Y-82999996D01*
X85194435Y-82999996D01*
X85194435Y-83000003D01*
X85214630Y-83179249D01*
X85214631Y-83179254D01*
X85274211Y-83349523D01*
X85327310Y-83434029D01*
X85370184Y-83502262D01*
X85497738Y-83629816D01*
X85650478Y-83725789D01*
X85792475Y-83775476D01*
X85820745Y-83785368D01*
X85820750Y-83785369D01*
X85999996Y-83805565D01*
X86000000Y-83805565D01*
X86000004Y-83805565D01*
X86179249Y-83785369D01*
X86179252Y-83785368D01*
X86179255Y-83785368D01*
X86349522Y-83725789D01*
X86502262Y-83629816D01*
X86629816Y-83502262D01*
X86725789Y-83349522D01*
X86785368Y-83179255D01*
X86785369Y-83179249D01*
X86805565Y-83000003D01*
X86805565Y-82999996D01*
X86785369Y-82820750D01*
X86785368Y-82820745D01*
X86725788Y-82650476D01*
X86654686Y-82537319D01*
X86629816Y-82497738D01*
X86502262Y-82370184D01*
X86433553Y-82327011D01*
X86349523Y-82274211D01*
X86179254Y-82214631D01*
X86179249Y-82214630D01*
X86000004Y-82194435D01*
X85999996Y-82194435D01*
X85820750Y-82214630D01*
X85820745Y-82214631D01*
X85650476Y-82274211D01*
X85497737Y-82370184D01*
X85370184Y-82497737D01*
X85274211Y-82650476D01*
X85214631Y-82820745D01*
X85214630Y-82820750D01*
X85194435Y-82999996D01*
X75334969Y-82999996D01*
X75257717Y-82955395D01*
X75257715Y-82955394D01*
X75231786Y-82940423D01*
X75231787Y-82940423D01*
X75170693Y-82924053D01*
X75079057Y-82899499D01*
X74920943Y-82899499D01*
X74913347Y-82899499D01*
X74913331Y-82899500D01*
X69150559Y-82899500D01*
X69083520Y-82879815D01*
X69037765Y-82827011D01*
X69027821Y-82757853D01*
X69033517Y-82734546D01*
X69035367Y-82729257D01*
X69035368Y-82729255D01*
X69035369Y-82729249D01*
X69055565Y-82550003D01*
X69055565Y-82549996D01*
X69035369Y-82370750D01*
X69035368Y-82370745D01*
X69008089Y-82292786D01*
X68975789Y-82200478D01*
X68965945Y-82184812D01*
X68933662Y-82133433D01*
X68879816Y-82047738D01*
X68752262Y-81920184D01*
X68641081Y-81850324D01*
X68599523Y-81824211D01*
X68429254Y-81764631D01*
X68429249Y-81764630D01*
X68250004Y-81744435D01*
X68249996Y-81744435D01*
X68070750Y-81764630D01*
X68070737Y-81764633D01*
X67900479Y-81824209D01*
X67889150Y-81831328D01*
X67821913Y-81850324D01*
X67757211Y-81831325D01*
X67699522Y-81795076D01*
X67529253Y-81735496D01*
X67529248Y-81735495D01*
X67350003Y-81715300D01*
X67349995Y-81715300D01*
X67170749Y-81735495D01*
X67170744Y-81735496D01*
X67000475Y-81795076D01*
X66847736Y-81891049D01*
X66720183Y-82018602D01*
X66624210Y-82171341D01*
X66564630Y-82341610D01*
X66564629Y-82341615D01*
X66544434Y-82520861D01*
X66544434Y-82520868D01*
X66564629Y-82700114D01*
X66564632Y-82700127D01*
X66576676Y-82734545D01*
X66580238Y-82804324D01*
X66545510Y-82864951D01*
X66483516Y-82897179D01*
X66459635Y-82899500D01*
X63761661Y-82899500D01*
X63694622Y-82879815D01*
X63648867Y-82827011D01*
X63638923Y-82757853D01*
X63656668Y-82709527D01*
X63662575Y-82700127D01*
X63725789Y-82599522D01*
X63785368Y-82429255D01*
X63788721Y-82399499D01*
X63805565Y-82250003D01*
X63805565Y-82249996D01*
X63785369Y-82070750D01*
X63785368Y-82070745D01*
X63783222Y-82064611D01*
X63725789Y-81900478D01*
X63719864Y-81891049D01*
X63677866Y-81824209D01*
X63629816Y-81747738D01*
X63502262Y-81620184D01*
X63415983Y-81565971D01*
X63349523Y-81524211D01*
X63179254Y-81464631D01*
X63179249Y-81464630D01*
X63000004Y-81444435D01*
X62999996Y-81444435D01*
X62820750Y-81464630D01*
X62820745Y-81464631D01*
X62650476Y-81524211D01*
X62497737Y-81620184D01*
X62370184Y-81747737D01*
X62274211Y-81900476D01*
X62214631Y-82070745D01*
X62214630Y-82070750D01*
X62194435Y-82249996D01*
X62194435Y-82250003D01*
X62214630Y-82429249D01*
X62214631Y-82429254D01*
X62274211Y-82599524D01*
X62343332Y-82709527D01*
X62362333Y-82776764D01*
X62341966Y-82843599D01*
X62288698Y-82888814D01*
X62238339Y-82899500D01*
X61550098Y-82899500D01*
X61483059Y-82879815D01*
X61462417Y-82863181D01*
X61118717Y-82519481D01*
X61118709Y-82519475D01*
X61016936Y-82460717D01*
X61016934Y-82460716D01*
X60981790Y-82440425D01*
X60981789Y-82440424D01*
X60940102Y-82429254D01*
X60829057Y-82399499D01*
X60670943Y-82399499D01*
X60663347Y-82399499D01*
X60663331Y-82399500D01*
X58883063Y-82399500D01*
X58816024Y-82379815D01*
X58770269Y-82327011D01*
X58760325Y-82257853D01*
X58766022Y-82234545D01*
X58785366Y-82179262D01*
X58785369Y-82179249D01*
X58805565Y-82000003D01*
X58805565Y-81999996D01*
X58785369Y-81820750D01*
X58785368Y-81820745D01*
X58725788Y-81650475D01*
X58672691Y-81565973D01*
X58653690Y-81498736D01*
X58672691Y-81434027D01*
X58725788Y-81349524D01*
X58725789Y-81349522D01*
X58785368Y-81179255D01*
X58785369Y-81179249D01*
X58805565Y-81000003D01*
X58805565Y-80999996D01*
X58785369Y-80820750D01*
X58785368Y-80820745D01*
X58725788Y-80650475D01*
X58712801Y-80629807D01*
X58693800Y-80562570D01*
X58712173Y-80499996D01*
X73694435Y-80499996D01*
X73694435Y-80500003D01*
X73714630Y-80679249D01*
X73714631Y-80679254D01*
X73774211Y-80849523D01*
X73868760Y-80999996D01*
X73870184Y-81002262D01*
X73997738Y-81129816D01*
X74150478Y-81225789D01*
X74298062Y-81277431D01*
X74320745Y-81285368D01*
X74320750Y-81285369D01*
X74499996Y-81305565D01*
X74500000Y-81305565D01*
X74500004Y-81305565D01*
X74679249Y-81285369D01*
X74679252Y-81285368D01*
X74679255Y-81285368D01*
X74849522Y-81225789D01*
X75002262Y-81129816D01*
X75129816Y-81002262D01*
X75225789Y-80849522D01*
X75285368Y-80679255D01*
X75288396Y-80652382D01*
X75305565Y-80500003D01*
X75305565Y-80499996D01*
X75285369Y-80320750D01*
X75285368Y-80320745D01*
X75259821Y-80247737D01*
X75225789Y-80150478D01*
X75225174Y-80149500D01*
X75162194Y-80049268D01*
X75129816Y-79997738D01*
X75002262Y-79870184D01*
X74999076Y-79868182D01*
X74849523Y-79774211D01*
X74679254Y-79714631D01*
X74679249Y-79714630D01*
X74500004Y-79694435D01*
X74499996Y-79694435D01*
X74320750Y-79714630D01*
X74320745Y-79714631D01*
X74150476Y-79774211D01*
X73997737Y-79870184D01*
X73870184Y-79997737D01*
X73774211Y-80150476D01*
X73714631Y-80320745D01*
X73714630Y-80320750D01*
X73694435Y-80499996D01*
X58712173Y-80499996D01*
X58712800Y-80497862D01*
X58762066Y-80419457D01*
X58775053Y-80398789D01*
X58792292Y-80349523D01*
X58834633Y-80228520D01*
X58840184Y-80179254D01*
X58854830Y-80049268D01*
X58854830Y-80049261D01*
X58834634Y-79870015D01*
X58834633Y-79870010D01*
X58780264Y-79714632D01*
X58775054Y-79699743D01*
X58679081Y-79547003D01*
X58551527Y-79419449D01*
X58488450Y-79379815D01*
X58398788Y-79323476D01*
X58228519Y-79263896D01*
X58228514Y-79263895D01*
X58049269Y-79243700D01*
X58049261Y-79243700D01*
X57870015Y-79263895D01*
X57870010Y-79263896D01*
X57699741Y-79323476D01*
X57547002Y-79419449D01*
X57419449Y-79547002D01*
X57323476Y-79699741D01*
X57263896Y-79870010D01*
X57263895Y-79870015D01*
X57243700Y-80049261D01*
X57243700Y-80049268D01*
X57263895Y-80228514D01*
X57263898Y-80228527D01*
X57323474Y-80398783D01*
X57323475Y-80398785D01*
X57323476Y-80398787D01*
X57324539Y-80400478D01*
X57336464Y-80419457D01*
X57355464Y-80486694D01*
X57336464Y-80551400D01*
X57274212Y-80650474D01*
X57214631Y-80820745D01*
X57214630Y-80820750D01*
X57194435Y-80999996D01*
X57194435Y-81000003D01*
X57214630Y-81179249D01*
X57214633Y-81179262D01*
X57274209Y-81349520D01*
X57327309Y-81434029D01*
X57346309Y-81501266D01*
X57327309Y-81565971D01*
X57274209Y-81650479D01*
X57214633Y-81820737D01*
X57214630Y-81820750D01*
X57194435Y-81999996D01*
X57194435Y-82000004D01*
X57201714Y-82064611D01*
X57189659Y-82133433D01*
X57142310Y-82184812D01*
X57074699Y-82202436D01*
X57064611Y-82201714D01*
X57000004Y-82194435D01*
X56999996Y-82194435D01*
X56820750Y-82214630D01*
X56820745Y-82214631D01*
X56650476Y-82274211D01*
X56497737Y-82370184D01*
X56370184Y-82497737D01*
X56274211Y-82650476D01*
X56214631Y-82820745D01*
X56214630Y-82820750D01*
X56194435Y-82999996D01*
X50500500Y-82999996D01*
X50500500Y-79004427D01*
X50500816Y-78995581D01*
X50513662Y-78815973D01*
X50515130Y-78795436D01*
X50517646Y-78777938D01*
X50523724Y-78749996D01*
X68444435Y-78749996D01*
X68444435Y-78750003D01*
X68464630Y-78929249D01*
X68464631Y-78929254D01*
X68524211Y-79099523D01*
X68614804Y-79243700D01*
X68620184Y-79252262D01*
X68747738Y-79379816D01*
X68900478Y-79475789D01*
X69070745Y-79535368D01*
X69070750Y-79535369D01*
X69249996Y-79555565D01*
X69250000Y-79555565D01*
X69250004Y-79555565D01*
X69429249Y-79535369D01*
X69429252Y-79535368D01*
X69429255Y-79535368D01*
X69599522Y-79475789D01*
X69752262Y-79379816D01*
X69879816Y-79252262D01*
X69975789Y-79099522D01*
X70035368Y-78929255D01*
X70035369Y-78929249D01*
X70055565Y-78750003D01*
X70055565Y-78749996D01*
X70035369Y-78570750D01*
X70035368Y-78570745D01*
X69991170Y-78444435D01*
X69975789Y-78400478D01*
X69879816Y-78247738D01*
X69752262Y-78120184D01*
X69599523Y-78024211D01*
X69429254Y-77964631D01*
X69429249Y-77964630D01*
X69250004Y-77944435D01*
X69249996Y-77944435D01*
X69070750Y-77964630D01*
X69070745Y-77964631D01*
X68900476Y-78024211D01*
X68747737Y-78120184D01*
X68620184Y-78247737D01*
X68524211Y-78400476D01*
X68464631Y-78570745D01*
X68464630Y-78570750D01*
X68444435Y-78749996D01*
X50523724Y-78749996D01*
X50559356Y-78586199D01*
X50564333Y-78569248D01*
X50632911Y-78385385D01*
X50640259Y-78369298D01*
X50702815Y-78254734D01*
X50734291Y-78197089D01*
X50743845Y-78182221D01*
X50861448Y-78025123D01*
X50873020Y-78011769D01*
X51011769Y-77873020D01*
X51025123Y-77861448D01*
X51182221Y-77743845D01*
X51197089Y-77734291D01*
X51369298Y-77640258D01*
X51385385Y-77632911D01*
X51569248Y-77564333D01*
X51586199Y-77559356D01*
X51777938Y-77517646D01*
X51795436Y-77515130D01*
X51995582Y-77500816D01*
X52004428Y-77500500D01*
X62065890Y-77500500D01*
X62065892Y-77500500D01*
X62193186Y-77466392D01*
X62307314Y-77400500D01*
X62807870Y-76899944D01*
X78859759Y-76899944D01*
X78859759Y-76899945D01*
X78879175Y-77109482D01*
X78879175Y-77109484D01*
X78879176Y-77109487D01*
X78936765Y-77311892D01*
X78936766Y-77311895D01*
X79022736Y-77484545D01*
X79030566Y-77500270D01*
X79143996Y-77650476D01*
X79157385Y-77668205D01*
X79312900Y-77809975D01*
X79312902Y-77809977D01*
X79491816Y-77920756D01*
X79491822Y-77920759D01*
X79533392Y-77936863D01*
X79688048Y-77996777D01*
X79894904Y-78035445D01*
X79894906Y-78035445D01*
X80105342Y-78035445D01*
X80105344Y-78035445D01*
X80294980Y-77999996D01*
X85194435Y-77999996D01*
X85194435Y-78000003D01*
X85214630Y-78179249D01*
X85214631Y-78179254D01*
X85274211Y-78349523D01*
X85333849Y-78444435D01*
X85370184Y-78502262D01*
X85497738Y-78629816D01*
X85650478Y-78725789D01*
X85719678Y-78750003D01*
X85820745Y-78785368D01*
X85820750Y-78785369D01*
X85999996Y-78805565D01*
X86000000Y-78805565D01*
X86000004Y-78805565D01*
X86179249Y-78785369D01*
X86179252Y-78785368D01*
X86179255Y-78785368D01*
X86349522Y-78725789D01*
X86502262Y-78629816D01*
X86629816Y-78502262D01*
X86725789Y-78349522D01*
X86785368Y-78179255D01*
X86792024Y-78120184D01*
X86805565Y-78000003D01*
X86805565Y-77999996D01*
X86785369Y-77820750D01*
X86785368Y-77820745D01*
X86767428Y-77769475D01*
X86725789Y-77650478D01*
X86725174Y-77649500D01*
X86640744Y-77515130D01*
X86629816Y-77497738D01*
X86502262Y-77370184D01*
X86409496Y-77311895D01*
X86349523Y-77274211D01*
X86179254Y-77214631D01*
X86179249Y-77214630D01*
X86000004Y-77194435D01*
X85999996Y-77194435D01*
X85820750Y-77214630D01*
X85820745Y-77214631D01*
X85650476Y-77274211D01*
X85497737Y-77370184D01*
X85370184Y-77497737D01*
X85274211Y-77650476D01*
X85214631Y-77820745D01*
X85214630Y-77820750D01*
X85194435Y-77999996D01*
X80294980Y-77999996D01*
X80312200Y-77996777D01*
X80508428Y-77920758D01*
X80687347Y-77809976D01*
X80842864Y-77668204D01*
X80969682Y-77500270D01*
X81063483Y-77311892D01*
X81121072Y-77109487D01*
X81140485Y-76899991D01*
X90668811Y-76899991D01*
X90668811Y-76899992D01*
X90689032Y-77131124D01*
X90689034Y-77131134D01*
X90749081Y-77355235D01*
X90749083Y-77355239D01*
X90749084Y-77355243D01*
X90770188Y-77400500D01*
X90847139Y-77565524D01*
X90858092Y-77581166D01*
X90980221Y-77755584D01*
X91144284Y-77919647D01*
X91334343Y-78052728D01*
X91544625Y-78150784D01*
X91768739Y-78210835D01*
X91953648Y-78227012D01*
X91999875Y-78231057D01*
X91999876Y-78231057D01*
X91999877Y-78231057D01*
X92038398Y-78227686D01*
X92231013Y-78210835D01*
X92455127Y-78150784D01*
X92665409Y-78052728D01*
X92855468Y-77919647D01*
X93019531Y-77755584D01*
X93152612Y-77565525D01*
X93250668Y-77355243D01*
X93310719Y-77131129D01*
X93330941Y-76899992D01*
X93310719Y-76668855D01*
X93255998Y-76464632D01*
X93250670Y-76444748D01*
X93250669Y-76444747D01*
X93250668Y-76444741D01*
X93152612Y-76234460D01*
X93152610Y-76234457D01*
X93152609Y-76234455D01*
X93019530Y-76044398D01*
X92855472Y-75880341D01*
X92855468Y-75880337D01*
X92703420Y-75773872D01*
X92665408Y-75747255D01*
X92519567Y-75679249D01*
X92455127Y-75649200D01*
X92455123Y-75649199D01*
X92455119Y-75649197D01*
X92231018Y-75589150D01*
X92231008Y-75589148D01*
X91999877Y-75568927D01*
X91999875Y-75568927D01*
X91768743Y-75589148D01*
X91768733Y-75589150D01*
X91544632Y-75649197D01*
X91544623Y-75649201D01*
X91334343Y-75747256D01*
X91334339Y-75747258D01*
X91144282Y-75880337D01*
X90980221Y-76044398D01*
X90847142Y-76234455D01*
X90847140Y-76234459D01*
X90749085Y-76444739D01*
X90749081Y-76444748D01*
X90689034Y-76668849D01*
X90689032Y-76668859D01*
X90668811Y-76899991D01*
X81140485Y-76899991D01*
X81140489Y-76899945D01*
X81121072Y-76690403D01*
X81063483Y-76487998D01*
X80969682Y-76299620D01*
X80842864Y-76131686D01*
X80747115Y-76044400D01*
X80687347Y-75989914D01*
X80687345Y-75989912D01*
X80508431Y-75879133D01*
X80508425Y-75879130D01*
X80352791Y-75818838D01*
X80312200Y-75803113D01*
X80105344Y-75764445D01*
X79894904Y-75764445D01*
X79688048Y-75803113D01*
X79688045Y-75803113D01*
X79688045Y-75803114D01*
X79491822Y-75879130D01*
X79491816Y-75879133D01*
X79312902Y-75989912D01*
X79312900Y-75989914D01*
X79157385Y-76131684D01*
X79030566Y-76299619D01*
X78936766Y-76487994D01*
X78879175Y-76690407D01*
X78859759Y-76899944D01*
X62807870Y-76899944D01*
X64207818Y-75499996D01*
X65694435Y-75499996D01*
X65694435Y-75500003D01*
X65714630Y-75679249D01*
X65714631Y-75679254D01*
X65774211Y-75849523D01*
X65862424Y-75989912D01*
X65870184Y-76002262D01*
X65997738Y-76129816D01*
X66150478Y-76225789D01*
X66320745Y-76285368D01*
X66320750Y-76285369D01*
X66499996Y-76305565D01*
X66500000Y-76305565D01*
X66500004Y-76305565D01*
X66679249Y-76285369D01*
X66679252Y-76285368D01*
X66679255Y-76285368D01*
X66849522Y-76225789D01*
X67002262Y-76129816D01*
X67129816Y-76002262D01*
X67225789Y-75849522D01*
X67285368Y-75679255D01*
X67287174Y-75663226D01*
X67305565Y-75500003D01*
X67305565Y-75499996D01*
X67285369Y-75320750D01*
X67285368Y-75320745D01*
X67275286Y-75291932D01*
X67225789Y-75150478D01*
X67129816Y-74997738D01*
X67002262Y-74870184D01*
X66849523Y-74774211D01*
X66679254Y-74714631D01*
X66679249Y-74714630D01*
X66500004Y-74694435D01*
X66499996Y-74694435D01*
X66320750Y-74714630D01*
X66320745Y-74714631D01*
X66150476Y-74774211D01*
X65997737Y-74870184D01*
X65870184Y-74997737D01*
X65774211Y-75150476D01*
X65714631Y-75320745D01*
X65714630Y-75320750D01*
X65694435Y-75499996D01*
X64207818Y-75499996D01*
X65829103Y-73878711D01*
X70149500Y-73878711D01*
X70149500Y-74121288D01*
X70181161Y-74361785D01*
X70243947Y-74596104D01*
X70293043Y-74714631D01*
X70336776Y-74820212D01*
X70458064Y-75030289D01*
X70458066Y-75030292D01*
X70458067Y-75030293D01*
X70605733Y-75222736D01*
X70605739Y-75222743D01*
X70777256Y-75394260D01*
X70777263Y-75394266D01*
X70890321Y-75481018D01*
X70969711Y-75541936D01*
X71179788Y-75663224D01*
X71375269Y-75744195D01*
X71382664Y-75747258D01*
X71403900Y-75756054D01*
X71638211Y-75818838D01*
X71818586Y-75842584D01*
X71878711Y-75850500D01*
X71878712Y-75850500D01*
X72121289Y-75850500D01*
X72169388Y-75844167D01*
X72361789Y-75818838D01*
X72596100Y-75756054D01*
X72820212Y-75663224D01*
X73030289Y-75541936D01*
X73222738Y-75394265D01*
X73394265Y-75222738D01*
X73541936Y-75030289D01*
X73663224Y-74820212D01*
X73756054Y-74596100D01*
X73818838Y-74361789D01*
X73850500Y-74121288D01*
X73850500Y-73878712D01*
X73818838Y-73638211D01*
X73756054Y-73403900D01*
X73663224Y-73179788D01*
X73559421Y-72999996D01*
X75194435Y-72999996D01*
X75194435Y-73000003D01*
X75214630Y-73179249D01*
X75214631Y-73179254D01*
X75274211Y-73349523D01*
X75308379Y-73403900D01*
X75370184Y-73502262D01*
X75497738Y-73629816D01*
X75650478Y-73725789D01*
X75820745Y-73785368D01*
X75820750Y-73785369D01*
X75999996Y-73805565D01*
X76000000Y-73805565D01*
X76000004Y-73805565D01*
X76179249Y-73785369D01*
X76179252Y-73785368D01*
X76179255Y-73785368D01*
X76349522Y-73725789D01*
X76502262Y-73629816D01*
X76629816Y-73502262D01*
X76725789Y-73349522D01*
X76785368Y-73179255D01*
X76788225Y-73153900D01*
X76805565Y-73000003D01*
X76805565Y-72999996D01*
X85194435Y-72999996D01*
X85194435Y-73000003D01*
X85214630Y-73179249D01*
X85214631Y-73179254D01*
X85274211Y-73349523D01*
X85308379Y-73403900D01*
X85370184Y-73502262D01*
X85497738Y-73629816D01*
X85650478Y-73725789D01*
X85820745Y-73785368D01*
X85820750Y-73785369D01*
X85999996Y-73805565D01*
X86000000Y-73805565D01*
X86000004Y-73805565D01*
X86179249Y-73785369D01*
X86179252Y-73785368D01*
X86179255Y-73785368D01*
X86349522Y-73725789D01*
X86502262Y-73629816D01*
X86629816Y-73502262D01*
X86725789Y-73349522D01*
X86785368Y-73179255D01*
X86788225Y-73153900D01*
X86805565Y-73000003D01*
X86805565Y-72999996D01*
X90194435Y-72999996D01*
X90194435Y-73000003D01*
X90214630Y-73179249D01*
X90214631Y-73179254D01*
X90274211Y-73349523D01*
X90308379Y-73403900D01*
X90370184Y-73502262D01*
X90497738Y-73629816D01*
X90650478Y-73725789D01*
X90820745Y-73785368D01*
X90820750Y-73785369D01*
X90999996Y-73805565D01*
X91000000Y-73805565D01*
X91000004Y-73805565D01*
X91179249Y-73785369D01*
X91179252Y-73785368D01*
X91179255Y-73785368D01*
X91349522Y-73725789D01*
X91502262Y-73629816D01*
X91503367Y-73628711D01*
X98149500Y-73628711D01*
X98149500Y-73871288D01*
X98181161Y-74111785D01*
X98243947Y-74346104D01*
X98336773Y-74570205D01*
X98336776Y-74570212D01*
X98458064Y-74780289D01*
X98458066Y-74780292D01*
X98458067Y-74780293D01*
X98605733Y-74972736D01*
X98605739Y-74972743D01*
X98777256Y-75144260D01*
X98777262Y-75144265D01*
X98969711Y-75291936D01*
X99179788Y-75413224D01*
X99375269Y-75494195D01*
X99389291Y-75500003D01*
X99403900Y-75506054D01*
X99638211Y-75568838D01*
X99792499Y-75589150D01*
X99878711Y-75600500D01*
X99878712Y-75600500D01*
X100121289Y-75600500D01*
X100207501Y-75589150D01*
X100361789Y-75568838D01*
X100596100Y-75506054D01*
X100820212Y-75413224D01*
X101030289Y-75291936D01*
X101222738Y-75144265D01*
X101394265Y-74972738D01*
X101541936Y-74780289D01*
X101663224Y-74570212D01*
X101756054Y-74346100D01*
X101818838Y-74111789D01*
X101850500Y-73871288D01*
X101850500Y-73628712D01*
X101818838Y-73388211D01*
X101756054Y-73153900D01*
X101663224Y-72929788D01*
X101541936Y-72719711D01*
X101394265Y-72527262D01*
X101394260Y-72527256D01*
X101222743Y-72355739D01*
X101222736Y-72355733D01*
X101030293Y-72208067D01*
X101030292Y-72208066D01*
X101030289Y-72208064D01*
X100820212Y-72086776D01*
X100820205Y-72086773D01*
X100596104Y-71993947D01*
X100361785Y-71931161D01*
X100121289Y-71899500D01*
X100121288Y-71899500D01*
X99878712Y-71899500D01*
X99878711Y-71899500D01*
X99638214Y-71931161D01*
X99403895Y-71993947D01*
X99179794Y-72086773D01*
X99179785Y-72086777D01*
X98969706Y-72208067D01*
X98777263Y-72355733D01*
X98777256Y-72355739D01*
X98605739Y-72527256D01*
X98605733Y-72527263D01*
X98458067Y-72719706D01*
X98336777Y-72929785D01*
X98336773Y-72929794D01*
X98243947Y-73153895D01*
X98181161Y-73388214D01*
X98149500Y-73628711D01*
X91503367Y-73628711D01*
X91629816Y-73502262D01*
X91725789Y-73349522D01*
X91785368Y-73179255D01*
X91788225Y-73153900D01*
X91805565Y-73000003D01*
X91805565Y-72999996D01*
X91785369Y-72820750D01*
X91785368Y-72820745D01*
X91770153Y-72777262D01*
X91725789Y-72650478D01*
X91629816Y-72497738D01*
X91502262Y-72370184D01*
X91479267Y-72355735D01*
X91349523Y-72274211D01*
X91179254Y-72214631D01*
X91179249Y-72214630D01*
X91000004Y-72194435D01*
X90999996Y-72194435D01*
X90820750Y-72214630D01*
X90820745Y-72214631D01*
X90650476Y-72274211D01*
X90497737Y-72370184D01*
X90370184Y-72497737D01*
X90274211Y-72650476D01*
X90214631Y-72820745D01*
X90214630Y-72820750D01*
X90194435Y-72999996D01*
X86805565Y-72999996D01*
X86785369Y-72820750D01*
X86785368Y-72820745D01*
X86770153Y-72777262D01*
X86725789Y-72650478D01*
X86629816Y-72497738D01*
X86502262Y-72370184D01*
X86479267Y-72355735D01*
X86349523Y-72274211D01*
X86179254Y-72214631D01*
X86179249Y-72214630D01*
X86000004Y-72194435D01*
X85999996Y-72194435D01*
X85820750Y-72214630D01*
X85820745Y-72214631D01*
X85650476Y-72274211D01*
X85497737Y-72370184D01*
X85370184Y-72497737D01*
X85274211Y-72650476D01*
X85214631Y-72820745D01*
X85214630Y-72820750D01*
X85194435Y-72999996D01*
X76805565Y-72999996D01*
X76785369Y-72820750D01*
X76785368Y-72820745D01*
X76770153Y-72777262D01*
X76725789Y-72650478D01*
X76629816Y-72497738D01*
X76502262Y-72370184D01*
X76479267Y-72355735D01*
X76349523Y-72274211D01*
X76179254Y-72214631D01*
X76179249Y-72214630D01*
X76000004Y-72194435D01*
X75999996Y-72194435D01*
X75820750Y-72214630D01*
X75820745Y-72214631D01*
X75650476Y-72274211D01*
X75497737Y-72370184D01*
X75370184Y-72497737D01*
X75274211Y-72650476D01*
X75214631Y-72820745D01*
X75214630Y-72820750D01*
X75194435Y-72999996D01*
X73559421Y-72999996D01*
X73541936Y-72969711D01*
X73481018Y-72890321D01*
X73394266Y-72777263D01*
X73394260Y-72777256D01*
X73222743Y-72605739D01*
X73222736Y-72605733D01*
X73030293Y-72458067D01*
X73030292Y-72458066D01*
X73030289Y-72458064D01*
X72853050Y-72355735D01*
X72820214Y-72336777D01*
X72820205Y-72336773D01*
X72596104Y-72243947D01*
X72361785Y-72181161D01*
X72121289Y-72149500D01*
X72121288Y-72149500D01*
X71878712Y-72149500D01*
X71878711Y-72149500D01*
X71638214Y-72181161D01*
X71403895Y-72243947D01*
X71179794Y-72336773D01*
X71179785Y-72336777D01*
X70969706Y-72458067D01*
X70777263Y-72605733D01*
X70777256Y-72605739D01*
X70605739Y-72777256D01*
X70605733Y-72777263D01*
X70458067Y-72969706D01*
X70336777Y-73179785D01*
X70336773Y-73179794D01*
X70243947Y-73403895D01*
X70181161Y-73638214D01*
X70149500Y-73878711D01*
X65829103Y-73878711D01*
X71707816Y-67999996D01*
X75194435Y-67999996D01*
X75194435Y-68000003D01*
X75214630Y-68179249D01*
X75214631Y-68179254D01*
X75274211Y-68349523D01*
X75370184Y-68502262D01*
X75497738Y-68629816D01*
X75650478Y-68725789D01*
X75719678Y-68750003D01*
X75820745Y-68785368D01*
X75820750Y-68785369D01*
X75999996Y-68805565D01*
X76000000Y-68805565D01*
X76000004Y-68805565D01*
X76179249Y-68785369D01*
X76179252Y-68785368D01*
X76179255Y-68785368D01*
X76280342Y-68749996D01*
X83944435Y-68749996D01*
X83944435Y-68750003D01*
X83964630Y-68929249D01*
X83964631Y-68929254D01*
X84024211Y-69099523D01*
X84120184Y-69252262D01*
X84247738Y-69379816D01*
X84400478Y-69475789D01*
X84570745Y-69535368D01*
X84570750Y-69535369D01*
X84749996Y-69555565D01*
X84750000Y-69555565D01*
X84750004Y-69555565D01*
X84929249Y-69535369D01*
X84929252Y-69535368D01*
X84929255Y-69535368D01*
X85099522Y-69475789D01*
X85252262Y-69379816D01*
X85379816Y-69252262D01*
X85475789Y-69099522D01*
X85535368Y-68929255D01*
X85535369Y-68929249D01*
X85555565Y-68750003D01*
X85555565Y-68749996D01*
X85535369Y-68570750D01*
X85535368Y-68570745D01*
X85475788Y-68400476D01*
X85379815Y-68247737D01*
X85252262Y-68120184D01*
X85099523Y-68024211D01*
X85030321Y-67999996D01*
X95194435Y-67999996D01*
X95194435Y-68000003D01*
X95214630Y-68179249D01*
X95214631Y-68179254D01*
X95274211Y-68349523D01*
X95370184Y-68502262D01*
X95497738Y-68629816D01*
X95650478Y-68725789D01*
X95719678Y-68750003D01*
X95820745Y-68785368D01*
X95820750Y-68785369D01*
X95999996Y-68805565D01*
X96000000Y-68805565D01*
X96000004Y-68805565D01*
X96179249Y-68785369D01*
X96179252Y-68785368D01*
X96179255Y-68785368D01*
X96349522Y-68725789D01*
X96502262Y-68629816D01*
X96629816Y-68502262D01*
X96725789Y-68349522D01*
X96785368Y-68179255D01*
X96805565Y-68000000D01*
X96799304Y-67944435D01*
X96785369Y-67820750D01*
X96785368Y-67820745D01*
X96725788Y-67650476D01*
X96629815Y-67497737D01*
X96502262Y-67370184D01*
X96349523Y-67274211D01*
X96179254Y-67214631D01*
X96179249Y-67214630D01*
X96000004Y-67194435D01*
X95999996Y-67194435D01*
X95820750Y-67214630D01*
X95820745Y-67214631D01*
X95650476Y-67274211D01*
X95497737Y-67370184D01*
X95370184Y-67497737D01*
X95274211Y-67650476D01*
X95214631Y-67820745D01*
X95214630Y-67820750D01*
X95194435Y-67999996D01*
X85030321Y-67999996D01*
X84929254Y-67964631D01*
X84929249Y-67964630D01*
X84750004Y-67944435D01*
X84749996Y-67944435D01*
X84570750Y-67964630D01*
X84570745Y-67964631D01*
X84400476Y-68024211D01*
X84247737Y-68120184D01*
X84120184Y-68247737D01*
X84024211Y-68400476D01*
X83964631Y-68570745D01*
X83964630Y-68570750D01*
X83944435Y-68749996D01*
X76280342Y-68749996D01*
X76349522Y-68725789D01*
X76502262Y-68629816D01*
X76629816Y-68502262D01*
X76725789Y-68349522D01*
X76785368Y-68179255D01*
X76805565Y-68000000D01*
X76799304Y-67944435D01*
X76785369Y-67820750D01*
X76785368Y-67820745D01*
X76725788Y-67650476D01*
X76629815Y-67497737D01*
X76502262Y-67370184D01*
X76349523Y-67274211D01*
X76179254Y-67214631D01*
X76179249Y-67214630D01*
X76000004Y-67194435D01*
X75999996Y-67194435D01*
X75820750Y-67214630D01*
X75820745Y-67214631D01*
X75650476Y-67274211D01*
X75497737Y-67370184D01*
X75370184Y-67497737D01*
X75274211Y-67650476D01*
X75214631Y-67820745D01*
X75214630Y-67820750D01*
X75194435Y-67999996D01*
X71707816Y-67999996D01*
X74457815Y-65249996D01*
X77944435Y-65249996D01*
X77944435Y-65250003D01*
X77964630Y-65429249D01*
X77964631Y-65429254D01*
X78024211Y-65599523D01*
X78120184Y-65752262D01*
X78247738Y-65879816D01*
X78400478Y-65975789D01*
X78570745Y-66035368D01*
X78570750Y-66035369D01*
X78749996Y-66055565D01*
X78750000Y-66055565D01*
X78750004Y-66055565D01*
X78929249Y-66035369D01*
X78929252Y-66035368D01*
X78929255Y-66035368D01*
X79099522Y-65975789D01*
X79252262Y-65879816D01*
X79379816Y-65752262D01*
X79475789Y-65599522D01*
X79535368Y-65429255D01*
X79535369Y-65429249D01*
X79555565Y-65250003D01*
X79555565Y-65249996D01*
X79535369Y-65070750D01*
X79535368Y-65070745D01*
X79475789Y-64900478D01*
X79381235Y-64749996D01*
X92944435Y-64749996D01*
X92944435Y-64750003D01*
X92964630Y-64929249D01*
X92964631Y-64929254D01*
X93024211Y-65099523D01*
X93118760Y-65249996D01*
X93120184Y-65252262D01*
X93247738Y-65379816D01*
X93400478Y-65475789D01*
X93570745Y-65535368D01*
X93570750Y-65535369D01*
X93749996Y-65555565D01*
X93750000Y-65555565D01*
X93750004Y-65555565D01*
X93929249Y-65535369D01*
X93929252Y-65535368D01*
X93929255Y-65535368D01*
X94099522Y-65475789D01*
X94252262Y-65379816D01*
X94379816Y-65252262D01*
X94475789Y-65099522D01*
X94535368Y-64929255D01*
X94535369Y-64929249D01*
X94555565Y-64750003D01*
X94555565Y-64749996D01*
X94535369Y-64570750D01*
X94535366Y-64570737D01*
X94475783Y-64400460D01*
X94472221Y-64330681D01*
X94506949Y-64270054D01*
X94551870Y-64242463D01*
X94599522Y-64225789D01*
X94752262Y-64129816D01*
X94879816Y-64002262D01*
X94975789Y-63849522D01*
X95035368Y-63679255D01*
X95035369Y-63679249D01*
X95055565Y-63500003D01*
X95055565Y-63499996D01*
X95035369Y-63320750D01*
X95035368Y-63320745D01*
X95011405Y-63252262D01*
X94975789Y-63150478D01*
X94879816Y-62997738D01*
X94752262Y-62870184D01*
X94684325Y-62827496D01*
X94599523Y-62774211D01*
X94429254Y-62714631D01*
X94429249Y-62714630D01*
X94250004Y-62694435D01*
X94249996Y-62694435D01*
X94070750Y-62714630D01*
X94070745Y-62714631D01*
X93900476Y-62774211D01*
X93747737Y-62870184D01*
X93620184Y-62997737D01*
X93524211Y-63150476D01*
X93464631Y-63320745D01*
X93464630Y-63320750D01*
X93444435Y-63499996D01*
X93444435Y-63500003D01*
X93464630Y-63679249D01*
X93464631Y-63679254D01*
X93524217Y-63849539D01*
X93527778Y-63919318D01*
X93493049Y-63979946D01*
X93448131Y-64007535D01*
X93400479Y-64024209D01*
X93247737Y-64120184D01*
X93120184Y-64247737D01*
X93024211Y-64400476D01*
X92964631Y-64570745D01*
X92964630Y-64570750D01*
X92944435Y-64749996D01*
X79381235Y-64749996D01*
X79379816Y-64747738D01*
X79252262Y-64620184D01*
X79099523Y-64524211D01*
X78929254Y-64464631D01*
X78929249Y-64464630D01*
X78750004Y-64444435D01*
X78749996Y-64444435D01*
X78570750Y-64464630D01*
X78570745Y-64464631D01*
X78400476Y-64524211D01*
X78247737Y-64620184D01*
X78120184Y-64747737D01*
X78024211Y-64900476D01*
X77964631Y-65070745D01*
X77964630Y-65070750D01*
X77944435Y-65249996D01*
X74457815Y-65249996D01*
X75297104Y-64410707D01*
X75297109Y-64410704D01*
X75307312Y-64400500D01*
X75307314Y-64400500D01*
X75400500Y-64307314D01*
X75466392Y-64193186D01*
X75467415Y-64189368D01*
X75477831Y-64150499D01*
X75489165Y-64108196D01*
X75500500Y-64065893D01*
X75500500Y-63934108D01*
X75500500Y-61999996D01*
X77944435Y-61999996D01*
X77944435Y-62000003D01*
X77964630Y-62179249D01*
X77964633Y-62179262D01*
X78024209Y-62349520D01*
X78077309Y-62434029D01*
X78096309Y-62501266D01*
X78077309Y-62565971D01*
X78024209Y-62650479D01*
X77964633Y-62820737D01*
X77964630Y-62820750D01*
X77944435Y-62999996D01*
X77944435Y-63000003D01*
X77964630Y-63179249D01*
X77964631Y-63179254D01*
X78024211Y-63349523D01*
X78103549Y-63475788D01*
X78120184Y-63502262D01*
X78247738Y-63629816D01*
X78400478Y-63725789D01*
X78570745Y-63785368D01*
X78570750Y-63785369D01*
X78749996Y-63805565D01*
X78750000Y-63805565D01*
X78750004Y-63805565D01*
X78929249Y-63785369D01*
X78929252Y-63785368D01*
X78929255Y-63785368D01*
X79099522Y-63725789D01*
X79252262Y-63629816D01*
X79379816Y-63502262D01*
X79475789Y-63349522D01*
X79535368Y-63179255D01*
X79535369Y-63179249D01*
X79555565Y-63000003D01*
X79555565Y-62999996D01*
X79535369Y-62820750D01*
X79535368Y-62820745D01*
X79475788Y-62650475D01*
X79422691Y-62565973D01*
X79403690Y-62498736D01*
X79422691Y-62434027D01*
X79475788Y-62349524D01*
X79475789Y-62349522D01*
X79535368Y-62179255D01*
X79538306Y-62153180D01*
X79555565Y-62000003D01*
X79555565Y-61999996D01*
X79535369Y-61820750D01*
X79535368Y-61820745D01*
X79509821Y-61747737D01*
X79475789Y-61650478D01*
X79381235Y-61499996D01*
X81944435Y-61499996D01*
X81944435Y-61500003D01*
X81964630Y-61679249D01*
X81964631Y-61679254D01*
X82024211Y-61849523D01*
X82071301Y-61924466D01*
X82120184Y-62002262D01*
X82247738Y-62129816D01*
X82318566Y-62174320D01*
X82364856Y-62226653D01*
X82375505Y-62295707D01*
X82357587Y-62345285D01*
X82274211Y-62477976D01*
X82214631Y-62648245D01*
X82214630Y-62648250D01*
X82194435Y-62827496D01*
X82194435Y-62827503D01*
X82214630Y-63006749D01*
X82214631Y-63006754D01*
X82274211Y-63177023D01*
X82321487Y-63252262D01*
X82370184Y-63329762D01*
X82497738Y-63457316D01*
X82527136Y-63475788D01*
X82621958Y-63535369D01*
X82650478Y-63553289D01*
X82820745Y-63612868D01*
X82820750Y-63612869D01*
X82999996Y-63633065D01*
X83000000Y-63633065D01*
X83000004Y-63633065D01*
X83179249Y-63612869D01*
X83179252Y-63612868D01*
X83179255Y-63612868D01*
X83349522Y-63553289D01*
X83502262Y-63457316D01*
X83629816Y-63329762D01*
X83725789Y-63177022D01*
X83785368Y-63006755D01*
X83794100Y-62929255D01*
X83805565Y-62827503D01*
X83805565Y-62827496D01*
X83785369Y-62648250D01*
X83785368Y-62648245D01*
X83758251Y-62570750D01*
X83725789Y-62477978D01*
X83629816Y-62325238D01*
X83554574Y-62249996D01*
X90944435Y-62249996D01*
X90944435Y-62250003D01*
X90964630Y-62429249D01*
X90964631Y-62429254D01*
X91024211Y-62599523D01*
X91056229Y-62650479D01*
X91120184Y-62752262D01*
X91247738Y-62879816D01*
X91400478Y-62975789D01*
X91469678Y-63000003D01*
X91570745Y-63035368D01*
X91570750Y-63035369D01*
X91629219Y-63041956D01*
X91686990Y-63048465D01*
X91751404Y-63075531D01*
X91778101Y-63105713D01*
X91822908Y-63177023D01*
X91870184Y-63252262D01*
X91997738Y-63379816D01*
X92150478Y-63475789D01*
X92320745Y-63535368D01*
X92320750Y-63535369D01*
X92499996Y-63555565D01*
X92500000Y-63555565D01*
X92500004Y-63555565D01*
X92679249Y-63535369D01*
X92679252Y-63535368D01*
X92679255Y-63535368D01*
X92849522Y-63475789D01*
X93002262Y-63379816D01*
X93129816Y-63252262D01*
X93225789Y-63099522D01*
X93285368Y-62929255D01*
X93285369Y-62929249D01*
X93305565Y-62750003D01*
X93305565Y-62749996D01*
X93285369Y-62570750D01*
X93285368Y-62570745D01*
X93283698Y-62565973D01*
X93225789Y-62400478D01*
X93129816Y-62247738D01*
X93002262Y-62120184D01*
X92849523Y-62024211D01*
X92679254Y-61964631D01*
X92679250Y-61964630D01*
X92563008Y-61951533D01*
X92498594Y-61924466D01*
X92471898Y-61894285D01*
X92379815Y-61747737D01*
X92252262Y-61620184D01*
X92099523Y-61524211D01*
X91929254Y-61464631D01*
X91929249Y-61464630D01*
X91750004Y-61444435D01*
X91749996Y-61444435D01*
X91570750Y-61464630D01*
X91570745Y-61464631D01*
X91400476Y-61524211D01*
X91247737Y-61620184D01*
X91120184Y-61747737D01*
X91024211Y-61900476D01*
X90964631Y-62070745D01*
X90964630Y-62070750D01*
X90944435Y-62249996D01*
X83554574Y-62249996D01*
X83502262Y-62197684D01*
X83431433Y-62153179D01*
X83385143Y-62100845D01*
X83374495Y-62031792D01*
X83392412Y-61982215D01*
X83475789Y-61849522D01*
X83535368Y-61679255D01*
X83535369Y-61679249D01*
X83555565Y-61500003D01*
X83555565Y-61499996D01*
X83535369Y-61320750D01*
X83535368Y-61320745D01*
X83475788Y-61150476D01*
X83436582Y-61088080D01*
X83379816Y-60997738D01*
X83252262Y-60870184D01*
X83219379Y-60849522D01*
X83099523Y-60774211D01*
X82929254Y-60714631D01*
X82929249Y-60714630D01*
X82750004Y-60694435D01*
X82749996Y-60694435D01*
X82570750Y-60714630D01*
X82570745Y-60714631D01*
X82400476Y-60774211D01*
X82247737Y-60870184D01*
X82120184Y-60997737D01*
X82024211Y-61150476D01*
X81964631Y-61320745D01*
X81964630Y-61320750D01*
X81944435Y-61499996D01*
X79381235Y-61499996D01*
X79379816Y-61497738D01*
X79252262Y-61370184D01*
X79099523Y-61274211D01*
X78929254Y-61214631D01*
X78929249Y-61214630D01*
X78750004Y-61194435D01*
X78749996Y-61194435D01*
X78570750Y-61214630D01*
X78570745Y-61214631D01*
X78400476Y-61274211D01*
X78247737Y-61370184D01*
X78120184Y-61497737D01*
X78024211Y-61650476D01*
X77964631Y-61820745D01*
X77964630Y-61820750D01*
X77944435Y-61999996D01*
X75500500Y-61999996D01*
X75500500Y-60499996D01*
X89944435Y-60499996D01*
X89944435Y-60500003D01*
X89964630Y-60679249D01*
X89964631Y-60679254D01*
X90024211Y-60849523D01*
X90117341Y-60997737D01*
X90120184Y-61002262D01*
X90247738Y-61129816D01*
X90338080Y-61186582D01*
X90382721Y-61214632D01*
X90400478Y-61225789D01*
X90538860Y-61274211D01*
X90570745Y-61285368D01*
X90570750Y-61285369D01*
X90749996Y-61305565D01*
X90750000Y-61305565D01*
X90750004Y-61305565D01*
X90929249Y-61285369D01*
X90929252Y-61285368D01*
X90929255Y-61285368D01*
X91099522Y-61225789D01*
X91252262Y-61129816D01*
X91379816Y-61002262D01*
X91475789Y-60849522D01*
X91535368Y-60679255D01*
X91555565Y-60500000D01*
X91535368Y-60320745D01*
X91475789Y-60150478D01*
X91379816Y-59997738D01*
X91252262Y-59870184D01*
X91099523Y-59774211D01*
X90929254Y-59714631D01*
X90929249Y-59714630D01*
X90750004Y-59694435D01*
X90749996Y-59694435D01*
X90570750Y-59714630D01*
X90570745Y-59714631D01*
X90400476Y-59774211D01*
X90247737Y-59870184D01*
X90120184Y-59997737D01*
X90024211Y-60150476D01*
X89964631Y-60320745D01*
X89964630Y-60320750D01*
X89944435Y-60499996D01*
X75500500Y-60499996D01*
X75500500Y-57999996D01*
X80194435Y-57999996D01*
X80194435Y-58000003D01*
X80214630Y-58179249D01*
X80214631Y-58179254D01*
X80274211Y-58349523D01*
X80370184Y-58502262D01*
X80497738Y-58629816D01*
X80650478Y-58725789D01*
X80820745Y-58785368D01*
X80820750Y-58785369D01*
X80999996Y-58805565D01*
X81000000Y-58805565D01*
X81000004Y-58805565D01*
X81179249Y-58785369D01*
X81179252Y-58785368D01*
X81179255Y-58785368D01*
X81349522Y-58725789D01*
X81502262Y-58629816D01*
X81629816Y-58502262D01*
X81725789Y-58349522D01*
X81785368Y-58179255D01*
X81805565Y-58000000D01*
X81805565Y-57999996D01*
X85194435Y-57999996D01*
X85194435Y-58000003D01*
X85214630Y-58179249D01*
X85214631Y-58179254D01*
X85274211Y-58349523D01*
X85370184Y-58502262D01*
X85497738Y-58629816D01*
X85650478Y-58725789D01*
X85820745Y-58785368D01*
X85820750Y-58785369D01*
X85999996Y-58805565D01*
X86000000Y-58805565D01*
X86000004Y-58805565D01*
X86179249Y-58785369D01*
X86179252Y-58785368D01*
X86179255Y-58785368D01*
X86349522Y-58725789D01*
X86502262Y-58629816D01*
X86629816Y-58502262D01*
X86725789Y-58349522D01*
X86785368Y-58179255D01*
X86805565Y-58000000D01*
X86805565Y-57999996D01*
X90194435Y-57999996D01*
X90194435Y-58000003D01*
X90214630Y-58179249D01*
X90214631Y-58179254D01*
X90274211Y-58349523D01*
X90370184Y-58502262D01*
X90497738Y-58629816D01*
X90650478Y-58725789D01*
X90820745Y-58785368D01*
X90820750Y-58785369D01*
X90999996Y-58805565D01*
X91000000Y-58805565D01*
X91000004Y-58805565D01*
X91179249Y-58785369D01*
X91179252Y-58785368D01*
X91179255Y-58785368D01*
X91349522Y-58725789D01*
X91502262Y-58629816D01*
X91629816Y-58502262D01*
X91725789Y-58349522D01*
X91785368Y-58179255D01*
X91805565Y-58000000D01*
X91785368Y-57820745D01*
X91725789Y-57650478D01*
X91629816Y-57497738D01*
X91502262Y-57370184D01*
X91349523Y-57274211D01*
X91179254Y-57214631D01*
X91179249Y-57214630D01*
X91000004Y-57194435D01*
X90999996Y-57194435D01*
X90820750Y-57214630D01*
X90820745Y-57214631D01*
X90650476Y-57274211D01*
X90497737Y-57370184D01*
X90370184Y-57497737D01*
X90274211Y-57650476D01*
X90214631Y-57820745D01*
X90214630Y-57820750D01*
X90194435Y-57999996D01*
X86805565Y-57999996D01*
X86785368Y-57820745D01*
X86725789Y-57650478D01*
X86629816Y-57497738D01*
X86502262Y-57370184D01*
X86349523Y-57274211D01*
X86179254Y-57214631D01*
X86179249Y-57214630D01*
X86000004Y-57194435D01*
X85999996Y-57194435D01*
X85820750Y-57214630D01*
X85820745Y-57214631D01*
X85650476Y-57274211D01*
X85497737Y-57370184D01*
X85370184Y-57497737D01*
X85274211Y-57650476D01*
X85214631Y-57820745D01*
X85214630Y-57820750D01*
X85194435Y-57999996D01*
X81805565Y-57999996D01*
X81785368Y-57820745D01*
X81725789Y-57650478D01*
X81629816Y-57497738D01*
X81502262Y-57370184D01*
X81349523Y-57274211D01*
X81179254Y-57214631D01*
X81179249Y-57214630D01*
X81000004Y-57194435D01*
X80999996Y-57194435D01*
X80820750Y-57214630D01*
X80820745Y-57214631D01*
X80650476Y-57274211D01*
X80497737Y-57370184D01*
X80370184Y-57497737D01*
X80274211Y-57650476D01*
X80214631Y-57820745D01*
X80214630Y-57820750D01*
X80194435Y-57999996D01*
X75500500Y-57999996D01*
X75500500Y-54004427D01*
X75500816Y-53995581D01*
X75511318Y-53848748D01*
X75515130Y-53795436D01*
X75517646Y-53777938D01*
X75559356Y-53586199D01*
X75564333Y-53569248D01*
X75632911Y-53385385D01*
X75640259Y-53369298D01*
X75702815Y-53254734D01*
X75734291Y-53197089D01*
X75743845Y-53182221D01*
X75861448Y-53025123D01*
X75873020Y-53011769D01*
X76011769Y-52873020D01*
X76025123Y-52861448D01*
X76182221Y-52743845D01*
X76197089Y-52734291D01*
X76369298Y-52640258D01*
X76385385Y-52632911D01*
X76569248Y-52564333D01*
X76586199Y-52559356D01*
X76777938Y-52517646D01*
X76795436Y-52515130D01*
X76995582Y-52500816D01*
X77004428Y-52500500D01*
X77065892Y-52500500D01*
X80151928Y-52500500D01*
X80218967Y-52520185D01*
G37*
%TD.AperFunction*%
%TD*%
M02*
