%TF.GenerationSoftware,KiCad,Pcbnew,8.0.8*%
%TF.CreationDate,2025-02-10T22:14:39-08:00*%
%TF.ProjectId,CMOD_A7_Lower,434d4f44-5f41-4375-9f4c-6f7765722e6b,rev?*%
%TF.SameCoordinates,Original*%
%TF.FileFunction,Soldermask,Top*%
%TF.FilePolarity,Negative*%
%FSLAX46Y46*%
G04 Gerber Fmt 4.6, Leading zero omitted, Abs format (unit mm)*
G04 Created by KiCad (PCBNEW 8.0.8) date 2025-02-10 22:14:39*
%MOMM*%
%LPD*%
G01*
G04 APERTURE LIST*
G04 Aperture macros list*
%AMRoundRect*
0 Rectangle with rounded corners*
0 $1 Rounding radius*
0 $2 $3 $4 $5 $6 $7 $8 $9 X,Y pos of 4 corners*
0 Add a 4 corners polygon primitive as box body*
4,1,4,$2,$3,$4,$5,$6,$7,$8,$9,$2,$3,0*
0 Add four circle primitives for the rounded corners*
1,1,$1+$1,$2,$3*
1,1,$1+$1,$4,$5*
1,1,$1+$1,$6,$7*
1,1,$1+$1,$8,$9*
0 Add four rect primitives between the rounded corners*
20,1,$1+$1,$2,$3,$4,$5,0*
20,1,$1+$1,$4,$5,$6,$7,0*
20,1,$1+$1,$6,$7,$8,$9,0*
20,1,$1+$1,$8,$9,$2,$3,0*%
G04 Aperture macros list end*
%ADD10R,1.600000X1.600000*%
%ADD11C,1.600000*%
%ADD12C,3.200000*%
%ADD13RoundRect,0.150000X0.625000X-0.150000X0.625000X0.150000X-0.625000X0.150000X-0.625000X-0.150000X0*%
%ADD14RoundRect,0.250000X0.650000X-0.350000X0.650000X0.350000X-0.650000X0.350000X-0.650000X-0.350000X0*%
%ADD15R,2.438400X0.381000*%
%ADD16C,1.651000*%
%ADD17C,1.270000*%
%ADD18RoundRect,0.250000X-0.250000X-0.475000X0.250000X-0.475000X0.250000X0.475000X-0.250000X0.475000X0*%
%ADD19RoundRect,0.250000X-0.475000X0.250000X-0.475000X-0.250000X0.475000X-0.250000X0.475000X0.250000X0*%
%ADD20RoundRect,0.150000X-0.625000X0.150000X-0.625000X-0.150000X0.625000X-0.150000X0.625000X0.150000X0*%
%ADD21RoundRect,0.250000X-0.650000X0.350000X-0.650000X-0.350000X0.650000X-0.350000X0.650000X0.350000X0*%
%ADD22R,0.700000X0.250000*%
%ADD23RoundRect,0.375000X-0.375000X0.625000X-0.375000X-0.625000X0.375000X-0.625000X0.375000X0.625000X0*%
%ADD24RoundRect,0.500000X-1.400000X0.500000X-1.400000X-0.500000X1.400000X-0.500000X1.400000X0.500000X0*%
%ADD25RoundRect,0.237500X0.237500X-0.250000X0.237500X0.250000X-0.237500X0.250000X-0.237500X-0.250000X0*%
%ADD26RoundRect,0.250000X0.800000X-0.450000X0.800000X0.450000X-0.800000X0.450000X-0.800000X-0.450000X0*%
%ADD27R,1.050000X0.450000*%
%ADD28R,1.470000X0.895000*%
%ADD29RoundRect,0.250000X0.250000X0.475000X-0.250000X0.475000X-0.250000X-0.475000X0.250000X-0.475000X0*%
%ADD30RoundRect,0.237500X-0.250000X-0.237500X0.250000X-0.237500X0.250000X0.237500X-0.250000X0.237500X0*%
%ADD31RoundRect,0.250000X0.475000X-0.250000X0.475000X0.250000X-0.475000X0.250000X-0.475000X-0.250000X0*%
G04 APERTURE END LIST*
D10*
%TO.C,C10*%
X92500000Y-109750000D03*
D11*
X94500000Y-109750000D03*
%TD*%
D10*
%TO.C,C9*%
X77500000Y-109750000D03*
D11*
X79500000Y-109750000D03*
%TD*%
D12*
%TO.C,H1*%
X72000000Y-102000000D03*
%TD*%
D13*
%TO.C,J3*%
X55575000Y-96000000D03*
X55575000Y-95000000D03*
X55575000Y-94000000D03*
X55575000Y-93000000D03*
X55575000Y-92000000D03*
X55575000Y-91000000D03*
D14*
X53050000Y-97300000D03*
X53050000Y-89700000D03*
%TD*%
D15*
%TO.C,J19*%
X95724999Y-79300001D03*
X95724999Y-79899999D03*
X95724999Y-80500001D03*
X95724999Y-81099999D03*
X95724999Y-81700001D03*
X95724999Y-82300000D03*
X95724999Y-82900001D03*
X95724999Y-83500000D03*
X95724999Y-84100001D03*
X95724999Y-84700000D03*
X95724999Y-85300001D03*
X95724999Y-85900000D03*
X95724999Y-86500001D03*
X95724999Y-87100000D03*
X95724999Y-87700001D03*
X95724999Y-88300000D03*
X95724999Y-88900002D03*
X95724999Y-89500000D03*
X95724999Y-90100002D03*
X95724999Y-90700001D03*
X95724999Y-91300002D03*
X95724999Y-91900001D03*
X95724999Y-92500002D03*
X95724999Y-93100001D03*
X95724999Y-93700002D03*
X95724999Y-94300001D03*
X95724999Y-94900002D03*
X95724999Y-95500001D03*
X95724999Y-96100002D03*
X95724999Y-96700001D03*
X91275001Y-96700001D03*
X91275001Y-96100002D03*
X91275001Y-95500001D03*
X91275001Y-94900002D03*
X91275001Y-94300001D03*
X91275001Y-93700002D03*
X91275001Y-93100001D03*
X91275001Y-92500002D03*
X91275001Y-91900001D03*
X91275001Y-91300002D03*
X91275001Y-90700001D03*
X91275001Y-90100002D03*
X91275001Y-89500000D03*
X91275001Y-88900002D03*
X91275001Y-88300000D03*
X91275001Y-87700001D03*
X91275001Y-87100000D03*
X91275001Y-86500001D03*
X91275001Y-85900000D03*
X91275001Y-85300001D03*
X91275001Y-84700000D03*
X91275001Y-84100001D03*
X91275001Y-83500000D03*
X91275001Y-82900001D03*
X91275001Y-82300000D03*
X91275001Y-81700001D03*
X91275001Y-81099999D03*
X91275001Y-80500001D03*
X91275001Y-79899999D03*
X91275001Y-79300001D03*
D16*
X91999876Y-76899992D03*
D17*
X91999876Y-99100055D03*
%TD*%
D18*
%TO.C,C2*%
X71300000Y-80250000D03*
X73200000Y-80250000D03*
%TD*%
D19*
%TO.C,C11*%
X82250000Y-112050000D03*
X82250000Y-113950000D03*
%TD*%
D20*
%TO.C,J2*%
X116725000Y-90950000D03*
X116725000Y-91950000D03*
X116725000Y-92950000D03*
X116725000Y-93950000D03*
X116725000Y-94950000D03*
X116725000Y-95950000D03*
D21*
X119250000Y-89650000D03*
X119250000Y-97250000D03*
%TD*%
D13*
%TO.C,J1*%
X64775000Y-96000000D03*
X64775000Y-95000000D03*
X64775000Y-94000000D03*
X64775000Y-93000000D03*
X64775000Y-92000000D03*
X64775000Y-91000000D03*
D14*
X62250000Y-97300000D03*
X62250000Y-89700000D03*
%TD*%
D12*
%TO.C,H4*%
X100000000Y-102000000D03*
%TD*%
D15*
%TO.C,J18*%
X76275001Y-96699999D03*
X76275001Y-96100001D03*
X76275001Y-95499999D03*
X76275001Y-94900001D03*
X76275001Y-94299999D03*
X76275001Y-93700000D03*
X76275001Y-93099999D03*
X76275001Y-92500000D03*
X76275001Y-91899999D03*
X76275001Y-91300000D03*
X76275001Y-90699999D03*
X76275001Y-90100000D03*
X76275001Y-89499999D03*
X76275001Y-88900000D03*
X76275001Y-88299999D03*
X76275001Y-87700000D03*
X76275001Y-87099998D03*
X76275001Y-86500000D03*
X76275001Y-85899998D03*
X76275001Y-85299999D03*
X76275001Y-84699998D03*
X76275001Y-84099999D03*
X76275001Y-83499998D03*
X76275001Y-82899999D03*
X76275001Y-82299998D03*
X76275001Y-81699999D03*
X76275001Y-81099998D03*
X76275001Y-80499999D03*
X76275001Y-79899998D03*
X76275001Y-79299999D03*
X80724999Y-79299999D03*
X80724999Y-79899998D03*
X80724999Y-80499999D03*
X80724999Y-81099998D03*
X80724999Y-81699999D03*
X80724999Y-82299998D03*
X80724999Y-82899999D03*
X80724999Y-83499998D03*
X80724999Y-84099999D03*
X80724999Y-84699998D03*
X80724999Y-85299999D03*
X80724999Y-85899998D03*
X80724999Y-86500000D03*
X80724999Y-87099998D03*
X80724999Y-87700000D03*
X80724999Y-88299999D03*
X80724999Y-88900000D03*
X80724999Y-89499999D03*
X80724999Y-90100000D03*
X80724999Y-90699999D03*
X80724999Y-91300000D03*
X80724999Y-91899999D03*
X80724999Y-92500000D03*
X80724999Y-93099999D03*
X80724999Y-93700000D03*
X80724999Y-94299999D03*
X80724999Y-94900001D03*
X80724999Y-95499999D03*
X80724999Y-96100001D03*
X80724999Y-96699999D03*
D16*
X80000124Y-99100008D03*
D17*
X80000124Y-76899945D03*
%TD*%
D22*
%TO.C,U2*%
X102500000Y-84250000D03*
X102500000Y-83750000D03*
X102500000Y-83250000D03*
X102500000Y-82750000D03*
X102500000Y-82250000D03*
X102500000Y-81750000D03*
X100900000Y-81750000D03*
X100900000Y-82250000D03*
X100900000Y-82750000D03*
X100900000Y-83250000D03*
X100900000Y-83750000D03*
X100900000Y-84250000D03*
%TD*%
D18*
%TO.C,C7*%
X102750000Y-86500000D03*
X104650000Y-86500000D03*
%TD*%
D13*
%TO.C,J5*%
X64825000Y-85000000D03*
X64825000Y-84000000D03*
X64825000Y-83000000D03*
X64825000Y-82000000D03*
X64825000Y-81000000D03*
X64825000Y-80000000D03*
D14*
X62300000Y-86300000D03*
X62300000Y-78700000D03*
%TD*%
D23*
%TO.C,U7*%
X89300000Y-112100000D03*
X87000000Y-112100000D03*
D24*
X87000000Y-118400000D03*
D23*
X84700000Y-112100000D03*
%TD*%
D22*
%TO.C,U3*%
X69500000Y-92000000D03*
X69500000Y-92500000D03*
X69500000Y-93000000D03*
X69500000Y-93500000D03*
X69500000Y-94000000D03*
X69500000Y-94500000D03*
X71100000Y-94500000D03*
X71100000Y-94000000D03*
X71100000Y-93500000D03*
X71100000Y-93000000D03*
X71100000Y-92500000D03*
X71100000Y-92000000D03*
%TD*%
D12*
%TO.C,H3*%
X100000000Y-73750000D03*
%TD*%
D20*
%TO.C,J8*%
X107425000Y-80000000D03*
X107425000Y-81000000D03*
X107425000Y-82000000D03*
X107425000Y-83000000D03*
X107425000Y-84000000D03*
X107425000Y-85000000D03*
D21*
X109950000Y-78700000D03*
X109950000Y-86300000D03*
%TD*%
D25*
%TO.C,R9*%
X82500000Y-68412500D03*
X82500000Y-66587500D03*
%TD*%
D18*
%TO.C,C12*%
X88700000Y-109750000D03*
X86800000Y-109750000D03*
%TD*%
%TO.C,C5*%
X102800000Y-96500000D03*
X104700000Y-96500000D03*
%TD*%
D22*
%TO.C,U4*%
X102550000Y-94250000D03*
X102550000Y-93750000D03*
X102550000Y-93250000D03*
X102550000Y-92750000D03*
X102550000Y-92250000D03*
X102550000Y-91750000D03*
X100950000Y-91750000D03*
X100950000Y-92250000D03*
X100950000Y-92750000D03*
X100950000Y-93250000D03*
X100950000Y-93750000D03*
X100950000Y-94250000D03*
%TD*%
%TO.C,U1*%
X69500000Y-82500000D03*
X69500000Y-83000000D03*
X69500000Y-83500000D03*
X69500000Y-84000000D03*
X69500000Y-84500000D03*
X69500000Y-85000000D03*
X71100000Y-85000000D03*
X71100000Y-84500000D03*
X71100000Y-84000000D03*
X71100000Y-83500000D03*
X71100000Y-83000000D03*
X71100000Y-82500000D03*
%TD*%
D19*
%TO.C,C8*%
X100750000Y-86300000D03*
X100750000Y-88200000D03*
%TD*%
D26*
%TO.C,D1*%
X83750000Y-102950000D03*
X83750000Y-98550000D03*
%TD*%
D25*
%TO.C,R10*%
X80750000Y-68412500D03*
X80750000Y-66587500D03*
%TD*%
D27*
%TO.C,U6*%
X90290000Y-66077500D03*
X90290000Y-65427500D03*
X90290000Y-64777500D03*
X90290000Y-64127500D03*
X90290000Y-63477500D03*
X90290000Y-62827500D03*
X90290000Y-62177500D03*
X90290000Y-61527500D03*
X84740000Y-61527500D03*
X84740000Y-62177500D03*
X84740000Y-62827500D03*
X84740000Y-63477500D03*
X84740000Y-64127500D03*
X84740000Y-64777500D03*
X84740000Y-65427500D03*
X84740000Y-66077500D03*
D28*
X88250000Y-65145000D03*
X88250000Y-64250000D03*
X88250000Y-63355000D03*
X88250000Y-62460000D03*
X86780000Y-65145000D03*
X86780000Y-64250000D03*
X86780000Y-63355000D03*
X86780000Y-62460000D03*
%TD*%
D20*
%TO.C,J4*%
X107425000Y-90750000D03*
X107425000Y-91750000D03*
X107425000Y-92750000D03*
X107425000Y-93750000D03*
X107425000Y-94750000D03*
X107425000Y-95750000D03*
D21*
X109950000Y-89450000D03*
X109950000Y-97050000D03*
%TD*%
D12*
%TO.C,H2*%
X72000000Y-74000000D03*
%TD*%
D13*
%TO.C,J7*%
X55525000Y-85000000D03*
X55525000Y-84000000D03*
X55525000Y-83000000D03*
X55525000Y-82000000D03*
X55525000Y-81000000D03*
X55525000Y-80000000D03*
D14*
X53000000Y-86300000D03*
X53000000Y-78700000D03*
%TD*%
D29*
%TO.C,C6*%
X100800000Y-96500000D03*
X98900000Y-96500000D03*
%TD*%
%TO.C,C3*%
X69300000Y-89750000D03*
X67400000Y-89750000D03*
%TD*%
D20*
%TO.C,J6*%
X116725000Y-80000000D03*
X116725000Y-81000000D03*
X116725000Y-82000000D03*
X116725000Y-83000000D03*
X116725000Y-84000000D03*
X116725000Y-85000000D03*
D21*
X119250000Y-78700000D03*
X119250000Y-86300000D03*
%TD*%
D30*
%TO.C,R11*%
X78837500Y-64000000D03*
X80662500Y-64000000D03*
%TD*%
D29*
%TO.C,C1*%
X69200000Y-80250000D03*
X67300000Y-80250000D03*
%TD*%
D31*
%TO.C,C4*%
X71250000Y-89950000D03*
X71250000Y-88050000D03*
%TD*%
M02*
