M48
; DRILL file {KiCad 8.0.8} date 2025-02-10T22:14:40-0800
; FORMAT={-:-/ absolute / inch / decimal}
; #@! TF.CreationDate,2025-02-10T22:14:40-08:00
; #@! TF.GenerationSoftware,Kicad,Pcbnew,8.0.8
; #@! TF.FileFunction,Plated,1,4,PTH
FMAT,2
INCH
; #@! TA.AperFunction,Plated,PTH,ViaDrill
T1C0.0118
; #@! TA.AperFunction,Plated,PTH,ComponentDrill
T2C0.0300
; #@! TA.AperFunction,Plated,PTH,ComponentDrill
T3C0.0315
; #@! TA.AperFunction,Plated,PTH,ComponentDrill
T4C0.0450
%
G90
G05
T1
X2.0079Y-3.4646
X2.1161Y-3.7106
X2.2441Y-3.2677
X2.2441Y-3.3071
X2.2835Y-3.189
X2.2835Y-3.2283
X2.2854Y-3.1515
X2.3031Y-3.622
X2.313Y-3.5827
X2.3228Y-3.7008
X2.3228Y-3.7402
X2.4016Y-3.4646
X2.4606Y-3.7303
X2.4803Y-3.2382
X2.5984Y-3.4646
X2.6181Y-2.9724
X2.6218Y-3.3523
X2.628Y-3.7205
X2.628Y-3.7697
X2.647Y-3.3333
X2.6516Y-3.2489
X2.6672Y-3.6322
X2.6772Y-3.6024
X2.687Y-3.25
X2.7067Y-3.5827
X2.7264Y-3.1004
X2.7362Y-3.3957
X2.7362Y-3.4744
X2.7483Y-3.7643
X2.7953Y-3.1102
X2.8543Y-3.5728
X2.9331Y-3.1693
X2.9921Y-2.6772
X2.9921Y-2.874
X2.9921Y-4.0551
X2.9921Y-4.252
X3.0807Y-3.6122
X3.0807Y-3.75
X3.0856Y-3.5531
X3.0906Y-3.4252
X3.0906Y-3.4744
X3.0906Y-3.5138
X3.0906Y-3.6516
X3.0906Y-3.7008
X3.1004Y-2.4409
X3.1004Y-2.4803
X3.1004Y-2.5689
X3.1299Y-4.0453
X3.1299Y-4.124
X3.1693Y-4.0846
X3.189Y-2.0866
X3.189Y-2.2835
X3.189Y-4.252
X3.189Y-4.4488
X3.189Y-4.6457
X3.2087Y-4.124
X3.2579Y-2.4213
X3.2677Y-2.4735
X3.3366Y-2.7067
X3.3858Y-2.0866
X3.3858Y-2.2835
X3.3858Y-2.874
X3.3858Y-3.0709
X3.3858Y-3.2677
X3.3858Y-3.6614
X3.3858Y-3.8583
X3.4154Y-4.0748
X3.5728Y-2.3819
X3.5827Y-2.0866
X3.5827Y-2.2835
X3.5827Y-2.874
X3.5827Y-4.6457
X3.6122Y-2.4508
X3.6417Y-2.4705
X3.6713Y-3.4646
X3.6811Y-3.2283
X3.6811Y-3.2776
X3.6811Y-3.4154
X3.6811Y-3.5039
X3.6837Y-3.3169
X3.6909Y-2.5492
X3.6909Y-3.1791
X3.6909Y-3.3661
X3.7106Y-2.5
X3.7687Y-3.8386
X3.7795Y-2.6772
X3.7795Y-4.0551
X3.7795Y-4.252
X3.7795Y-4.6457
X3.8937Y-3.75
X3.935Y-3.3661
X3.9665Y-3.5039
X3.9685Y-3.8406
X4.0157Y-3.1555
X4.0305Y-3.5689
X4.0354Y-3.4646
X4.0453Y-3.8484
X4.0945Y-3.3465
X4.1201Y-3.4508
X4.126Y-3.3465
X4.1398Y-3.7011
X4.1437Y-3.7402
X4.1445Y-3.2328
X4.1526Y-3.5954
X4.1535Y-3.563
X4.1634Y-3.1988
X4.1634Y-3.7894
X4.1732Y-3.1496
X4.1732Y-3.4646
X4.2126Y-3.5138
X4.2323Y-3.9075
X4.2421Y-3.0413
X4.2913Y-3.2382
X4.2913Y-3.7697
X4.3701Y-3.4646
X4.4291Y-3.0807
X4.4291Y-3.1201
X4.4291Y-3.7795
X4.4508Y-3.7519
X4.4685Y-3.7106
X4.4783Y-3.2382
X4.4832Y-3.3513
X4.4833Y-3.312
X4.4862Y-3.6516
X4.5276Y-3.1201
X4.5374Y-3.6594
X4.5669Y-3.4646
X4.5768Y-3.5039
X4.7638Y-3.4646
T2
X3.1496Y-3.0276
X3.622Y-3.9016
T3
X3.0512Y-4.3209
X3.1299Y-4.3209
X3.6417Y-4.3209
X3.7205Y-4.3209
T4
X3.1496Y-3.9016
X3.622Y-3.0276
M30
