%TF.GenerationSoftware,KiCad,Pcbnew,8.0.1*%
%TF.CreationDate,2024-04-19T02:29:26-07:00*%
%TF.ProjectId,ESP32C3_Upper,45535033-3243-4335-9f55-707065722e6b,rev?*%
%TF.SameCoordinates,Original*%
%TF.FileFunction,Copper,L2,Bot*%
%TF.FilePolarity,Positive*%
%FSLAX46Y46*%
G04 Gerber Fmt 4.6, Leading zero omitted, Abs format (unit mm)*
G04 Created by KiCad (PCBNEW 8.0.1) date 2024-04-19 02:29:26*
%MOMM*%
%LPD*%
G01*
G04 APERTURE LIST*
G04 Aperture macros list*
%AMRoundRect*
0 Rectangle with rounded corners*
0 $1 Rounding radius*
0 $2 $3 $4 $5 $6 $7 $8 $9 X,Y pos of 4 corners*
0 Add a 4 corners polygon primitive as box body*
4,1,4,$2,$3,$4,$5,$6,$7,$8,$9,$2,$3,0*
0 Add four circle primitives for the rounded corners*
1,1,$1+$1,$2,$3*
1,1,$1+$1,$4,$5*
1,1,$1+$1,$6,$7*
1,1,$1+$1,$8,$9*
0 Add four rect primitives between the rounded corners*
20,1,$1+$1,$2,$3,$4,$5,0*
20,1,$1+$1,$4,$5,$6,$7,0*
20,1,$1+$1,$6,$7,$8,$9,0*
20,1,$1+$1,$8,$9,$2,$3,0*%
G04 Aperture macros list end*
%TA.AperFunction,ComponentPad*%
%ADD10C,1.524000*%
%TD*%
%TA.AperFunction,ComponentPad*%
%ADD11R,1.700000X1.700000*%
%TD*%
%TA.AperFunction,ComponentPad*%
%ADD12O,1.700000X1.700000*%
%TD*%
%TA.AperFunction,ComponentPad*%
%ADD13R,1.600000X1.600000*%
%TD*%
%TA.AperFunction,ComponentPad*%
%ADD14C,1.600000*%
%TD*%
%TA.AperFunction,ComponentPad*%
%ADD15O,1.300000X2.300000*%
%TD*%
%TA.AperFunction,ComponentPad*%
%ADD16O,1.300000X2.600000*%
%TD*%
%TA.AperFunction,ComponentPad*%
%ADD17RoundRect,0.250000X0.600000X0.725000X-0.600000X0.725000X-0.600000X-0.725000X0.600000X-0.725000X0*%
%TD*%
%TA.AperFunction,ComponentPad*%
%ADD18O,1.700000X1.950000*%
%TD*%
%TA.AperFunction,ComponentPad*%
%ADD19R,1.500000X1.500000*%
%TD*%
%TA.AperFunction,ViaPad*%
%ADD20C,0.600000*%
%TD*%
%TA.AperFunction,Conductor*%
%ADD21C,1.000000*%
%TD*%
%TA.AperFunction,Conductor*%
%ADD22C,0.300000*%
%TD*%
%TA.AperFunction,Conductor*%
%ADD23C,0.500000*%
%TD*%
%TA.AperFunction,Conductor*%
%ADD24C,2.000000*%
%TD*%
%TA.AperFunction,Conductor*%
%ADD25C,0.200000*%
%TD*%
G04 APERTURE END LIST*
D10*
%TO.P,U4,ADC,ADC*%
%TO.N,unconnected-(U4-PadADC)*%
X151290000Y-118220000D03*
%TO.P,U4,BOOT,BOOT*%
%TO.N,unconnected-(U4-PadBOOT)*%
X146210000Y-118220000D03*
%TO.P,U4,GND,GND*%
%TO.N,GND*%
X158910000Y-118220000D03*
%TO.P,U4,INT,INT*%
%TO.N,unconnected-(U4-PadINT)*%
X148750000Y-118220000D03*
%TO.P,U4,RST,RST*%
%TO.N,unconnected-(U4-PadRST)*%
X143670000Y-118220000D03*
%TO.P,U4,SCL,SCL*%
%TO.N,/SCL*%
X156370000Y-118220000D03*
%TO.P,U4,SDA,SDA*%
%TO.N,/SDA*%
X153830000Y-118220000D03*
%TO.P,U4,VIN,VIN*%
%TO.N,+5V*%
X161450000Y-118220000D03*
%TD*%
D11*
%TO.P,J2,1,Pin_1*%
%TO.N,+12V*%
X151200000Y-111360000D03*
D12*
%TO.P,J2,2,Pin_2*%
%TO.N,+3.3V*%
X148660000Y-111360000D03*
%TO.P,J2,3,Pin_3*%
%TO.N,+12V*%
X151200000Y-108820000D03*
%TO.P,J2,4,Pin_4*%
%TO.N,+3.3V*%
X148660000Y-108820000D03*
%TO.P,J2,5,Pin_5*%
%TO.N,unconnected-(J2-Pin_5-Pad5)*%
X151200000Y-106280000D03*
%TO.P,J2,6,Pin_6*%
%TO.N,/SDA*%
X148660000Y-106280000D03*
%TO.P,J2,7,Pin_7*%
%TO.N,unconnected-(J2-Pin_7-Pad7)*%
X151200000Y-103740000D03*
%TO.P,J2,8,Pin_8*%
%TO.N,/SCL*%
X148660000Y-103740000D03*
%TO.P,J2,9,Pin_9*%
%TO.N,/FPGA3*%
X151200000Y-101200000D03*
%TO.P,J2,10,Pin_10*%
%TO.N,/FPGA9*%
X148660000Y-101200000D03*
%TO.P,J2,11,Pin_11*%
%TO.N,/FPGA2*%
X151200000Y-98660000D03*
%TO.P,J2,12,Pin_12*%
%TO.N,/FPGA8*%
X148660000Y-98660000D03*
%TO.P,J2,13,Pin_13*%
%TO.N,/FPGA1*%
X151200000Y-96120000D03*
%TO.P,J2,14,Pin_14*%
%TO.N,/FPGA7*%
X148660000Y-96120000D03*
%TO.P,J2,15,Pin_15*%
%TO.N,/FPGA0*%
X151200000Y-93580000D03*
%TO.P,J2,16,Pin_16*%
%TO.N,/FPGA6*%
X148660000Y-93580000D03*
%TO.P,J2,17,Pin_17*%
%TO.N,GND*%
X151200000Y-91040000D03*
%TO.P,J2,18,Pin_18*%
X148660000Y-91040000D03*
%TO.P,J2,19,Pin_19*%
X151200000Y-88500000D03*
%TO.P,J2,20,Pin_20*%
X148660000Y-88500000D03*
%TD*%
D13*
%TO.P,C4,1*%
%TO.N,/12V_5V*%
X142660000Y-108700000D03*
D14*
%TO.P,C4,2*%
%TO.N,GND*%
X144660000Y-108700000D03*
%TD*%
D15*
%TO.P,J3,S1,SHIELD*%
%TO.N,GND*%
X154230000Y-76675000D03*
D16*
X154230000Y-72850000D03*
D15*
X145590000Y-76675000D03*
D16*
X145590000Y-72850000D03*
%TD*%
D17*
%TO.P,J1,1,Pin_1*%
%TO.N,GND*%
X138910000Y-122200000D03*
D18*
%TO.P,J1,2,Pin_2*%
%TO.N,+12V*%
X136410000Y-122200000D03*
%TD*%
D19*
%TO.P,SW1,1,A*%
%TO.N,+12V*%
X140070000Y-113950000D03*
D14*
%TO.P,SW1,2,B*%
%TO.N,/12V_5V*%
X142610000Y-113950000D03*
%TO.P,SW1,3,C*%
%TO.N,GND*%
X137530000Y-113950000D03*
%TD*%
D13*
%TO.P,C9,1*%
%TO.N,+5V*%
X133092380Y-98700000D03*
D14*
%TO.P,C9,2*%
%TO.N,GND*%
X130592380Y-98700000D03*
%TD*%
D20*
%TO.N,GND*%
X146410000Y-111200000D03*
X177410000Y-87950000D03*
X176910000Y-97950000D03*
X122910000Y-105950000D03*
X153910000Y-83950000D03*
X132910000Y-96450000D03*
X170660000Y-97450000D03*
X138410000Y-83450000D03*
X141160000Y-97950000D03*
X142660000Y-83200000D03*
X133160000Y-105450000D03*
X144910000Y-91950000D03*
X123410000Y-100200000D03*
X132410000Y-116700000D03*
X123410000Y-93950000D03*
X130410000Y-103450000D03*
X160660000Y-91950000D03*
%TO.N,+3.3V*%
X154410000Y-96700000D03*
X153522880Y-107312880D03*
X174160000Y-88200000D03*
X141910000Y-89950000D03*
X171160000Y-106700000D03*
%TO.N,+5V*%
X146160000Y-79950000D03*
X152910000Y-79950000D03*
X147660000Y-79950000D03*
%TO.N,/FPGA9*%
X159660000Y-102550000D03*
%TO.N,/FPGA7*%
X159640233Y-101180233D03*
%TO.N,/FPGA0*%
X170910000Y-94450000D03*
%TO.N,/FPGA8*%
X160410000Y-101450000D03*
%TO.N,/FPGA1*%
X154160000Y-98450000D03*
%TO.N,/FPGA6*%
X158660000Y-100700000D03*
%TO.N,/USB_DM0*%
X164179578Y-88818107D03*
X149910000Y-78200000D03*
%TO.N,/USB_DP0*%
X165051422Y-88558578D03*
X149910000Y-75950000D03*
%TO.N,/LED00*%
X175922500Y-94450000D03*
X143873402Y-78550000D03*
%TO.N,/LED01*%
X175010000Y-92950000D03*
X144285000Y-79325000D03*
%TO.N,/LED10*%
X143910000Y-96450000D03*
X132310000Y-88975000D03*
%TO.N,/LED11*%
X143910000Y-94700000D03*
X131660000Y-89625000D03*
%TO.N,/BTN00*%
X160160000Y-88200000D03*
X128410000Y-107200000D03*
%TO.N,/BTN01*%
X128910000Y-102950000D03*
X159160000Y-88200000D03*
%TO.N,/BTN10*%
X129410000Y-95200000D03*
X158210003Y-88200000D03*
%TO.N,/BTN11*%
X129660000Y-90950000D03*
X157294312Y-88410842D03*
%TD*%
D21*
%TO.N,+3.3V*%
X148660000Y-108820000D02*
X148660000Y-111360000D01*
D22*
X153522880Y-107312880D02*
X153660000Y-107450000D01*
X163410000Y-107450000D02*
X164160000Y-106700000D01*
D21*
X172541893Y-89818107D02*
X174160000Y-88200000D01*
D22*
X156579239Y-96700000D02*
X164160000Y-104280761D01*
D21*
X146660000Y-91307968D02*
X146660000Y-106820000D01*
X156778107Y-89818107D02*
X172541893Y-89818107D01*
D22*
X164160000Y-106700000D02*
X171160000Y-106700000D01*
D21*
X141910000Y-89950000D02*
X142160000Y-89700000D01*
X153660000Y-86700000D02*
X156778107Y-89818107D01*
D22*
X153660000Y-107450000D02*
X163410000Y-107450000D01*
D21*
X142160000Y-89700000D02*
X145052032Y-89700000D01*
X145160000Y-89807968D02*
X145160000Y-88950000D01*
X145160000Y-88950000D02*
X147410000Y-86700000D01*
X145160000Y-89807968D02*
X146660000Y-91307968D01*
X147410000Y-86700000D02*
X153660000Y-86700000D01*
X145052032Y-89700000D02*
X145160000Y-89807968D01*
D22*
X164160000Y-104280761D02*
X164160000Y-106700000D01*
D21*
X146660000Y-106820000D02*
X148660000Y-108820000D01*
D22*
X154410000Y-96700000D02*
X156579239Y-96700000D01*
D23*
%TO.N,+5V*%
X152860000Y-80000000D02*
X147710000Y-80000000D01*
X147710000Y-80000000D02*
X147660000Y-79950000D01*
X147660000Y-79950000D02*
X146160000Y-79950000D01*
X152910000Y-79950000D02*
X152860000Y-80000000D01*
D24*
%TO.N,+12V*%
X151200000Y-114210000D02*
X149460000Y-115950000D01*
X141660000Y-115950000D02*
X140070000Y-114360000D01*
X149460000Y-115950000D02*
X141660000Y-115950000D01*
X140070000Y-113950000D02*
X140070000Y-114360000D01*
X136410000Y-118020000D02*
X136410000Y-122200000D01*
X140070000Y-114360000D02*
X136410000Y-118020000D01*
X151200000Y-111360000D02*
X151200000Y-114210000D01*
X151200000Y-108820000D02*
X151200000Y-111360000D01*
D22*
%TO.N,/FPGA9*%
X149860000Y-102400000D02*
X148660000Y-101200000D01*
X159660000Y-102550000D02*
X159510000Y-102400000D01*
X159510000Y-102400000D02*
X149860000Y-102400000D01*
D25*
%TO.N,/SCL*%
X151676346Y-105130000D02*
X152910000Y-106363654D01*
X148660000Y-103740000D02*
X150050000Y-105130000D01*
X152910000Y-106363654D02*
X152910000Y-114760000D01*
X150050000Y-105130000D02*
X151676346Y-105130000D01*
X152910000Y-114760000D02*
X156370000Y-118220000D01*
D22*
%TO.N,/FPGA7*%
X159420466Y-101400000D02*
X155637057Y-101400000D01*
X159640233Y-101180233D02*
X159420466Y-101400000D01*
X155637057Y-101400000D02*
X151697057Y-97460000D01*
X150000000Y-97460000D02*
X148660000Y-96120000D01*
X151697057Y-97460000D02*
X150000000Y-97460000D01*
%TO.N,/FPGA0*%
X152070000Y-94450000D02*
X151200000Y-93580000D01*
X170910000Y-94450000D02*
X152070000Y-94450000D01*
%TO.N,/FPGA8*%
X150000000Y-100000000D02*
X148660000Y-98660000D01*
X159960000Y-101900000D02*
X153597057Y-101900000D01*
X151697057Y-100000000D02*
X150000000Y-100000000D01*
X153597057Y-101900000D02*
X151697057Y-100000000D01*
X160410000Y-101450000D02*
X159960000Y-101900000D01*
D25*
%TO.N,/SDA*%
X149900000Y-107520000D02*
X151738478Y-107520000D01*
X153830000Y-116245686D02*
X153830000Y-118220000D01*
X152510000Y-108291522D02*
X152510000Y-114925686D01*
X151738478Y-107520000D02*
X152510000Y-108291522D01*
X152510000Y-114925686D02*
X153830000Y-116245686D01*
X148660000Y-106280000D02*
X149900000Y-107520000D01*
D22*
%TO.N,/FPGA1*%
X154160000Y-98450000D02*
X153530000Y-98450000D01*
X153530000Y-98450000D02*
X151200000Y-96120000D01*
%TO.N,/FPGA6*%
X158660000Y-100700000D02*
X157477057Y-100700000D01*
X150000000Y-94920000D02*
X148660000Y-93580000D01*
X151697057Y-94920000D02*
X150000000Y-94920000D01*
X157477057Y-100700000D02*
X151697057Y-94920000D01*
D25*
%TO.N,/USB_DM0*%
X162778107Y-88818107D02*
X152485000Y-78525000D01*
X164179578Y-88818107D02*
X162778107Y-88818107D01*
X152485000Y-78525000D02*
X150235000Y-78525000D01*
X150235000Y-78525000D02*
X149910000Y-78200000D01*
%TO.N,/USB_DP0*%
X165051422Y-88558578D02*
X164768578Y-88558578D01*
X164428107Y-88218107D02*
X162743793Y-88218107D01*
X164768578Y-88558578D02*
X164428107Y-88218107D01*
X162743793Y-88218107D02*
X150475686Y-75950000D01*
X150475686Y-75950000D02*
X149910000Y-75950000D01*
D22*
%TO.N,/LED00*%
X143973402Y-78450000D02*
X146827894Y-78450000D01*
X143873402Y-78550000D02*
X143973402Y-78450000D01*
X175922500Y-88053312D02*
X175922500Y-94450000D01*
X148760000Y-76517894D02*
X148760000Y-75473655D01*
X146827894Y-78450000D02*
X148760000Y-76517894D01*
X148760000Y-75473655D02*
X149733655Y-74500000D01*
X149733655Y-74500000D02*
X162369188Y-74500000D01*
X162369188Y-74500000D02*
X175922500Y-88053312D01*
%TO.N,/LED01*%
X144660000Y-78950000D02*
X147035000Y-78950000D01*
X149260000Y-75680761D02*
X149765761Y-75175000D01*
X147035000Y-78950000D02*
X149260000Y-76725000D01*
X175160000Y-87997918D02*
X175160000Y-92800000D01*
X144285000Y-79325000D02*
X144660000Y-78950000D01*
X149765761Y-75175000D02*
X162337082Y-75175000D01*
X162337082Y-75175000D02*
X175160000Y-87997918D01*
X175160000Y-92800000D02*
X175010000Y-92950000D01*
X149260000Y-76725000D02*
X149260000Y-75680761D01*
%TO.N,/LED10*%
X142367106Y-90950000D02*
X144560000Y-93142894D01*
X144560000Y-95800000D02*
X143910000Y-96450000D01*
X144560000Y-93142894D02*
X144560000Y-95800000D01*
X133392106Y-88975000D02*
X135367106Y-90950000D01*
X132310000Y-88975000D02*
X133392106Y-88975000D01*
X135367106Y-90950000D02*
X142367106Y-90950000D01*
%TO.N,/LED11*%
X133335000Y-89625000D02*
X135410000Y-91700000D01*
X135410000Y-91700000D02*
X142410000Y-91700000D01*
X143910000Y-93200000D02*
X143910000Y-94700000D01*
X131660000Y-89625000D02*
X133335000Y-89625000D01*
X142410000Y-91700000D02*
X143910000Y-93200000D01*
%TO.N,/BTN00*%
X127910000Y-104450000D02*
X127910000Y-90078682D01*
X152560000Y-80600000D02*
X160160000Y-88200000D01*
X137388682Y-80600000D02*
X152560000Y-80600000D01*
X128410000Y-107200000D02*
X128410000Y-104950000D01*
X128410000Y-104950000D02*
X127910000Y-104450000D01*
X127910000Y-90078682D02*
X137388682Y-80600000D01*
%TO.N,/BTN01*%
X133845788Y-84850000D02*
X155810000Y-84850000D01*
X155810000Y-84850000D02*
X159160000Y-88200000D01*
X128410000Y-90285788D02*
X133845788Y-84850000D01*
X128410000Y-102450000D02*
X128410000Y-90285788D01*
X128910000Y-102950000D02*
X128410000Y-102450000D01*
%TO.N,/BTN10*%
X155360003Y-85350000D02*
X134052894Y-85350000D01*
X134052894Y-85350000D02*
X128910000Y-90492894D01*
X128910000Y-94700000D02*
X129410000Y-95200000D01*
X158210003Y-88200000D02*
X155360003Y-85350000D01*
X128910000Y-90492894D02*
X128910000Y-94700000D01*
%TO.N,/BTN11*%
X134260000Y-85850000D02*
X154733470Y-85850000D01*
X129660000Y-90950000D02*
X129660000Y-90450000D01*
X129660000Y-90450000D02*
X134260000Y-85850000D01*
X154733470Y-85850000D02*
X157294312Y-88410842D01*
%TD*%
%TA.AperFunction,Conductor*%
%TO.N,GND*%
G36*
X150734075Y-90847007D02*
G01*
X150700000Y-90974174D01*
X150700000Y-91105826D01*
X150734075Y-91232993D01*
X150766988Y-91290000D01*
X149093012Y-91290000D01*
X149125925Y-91232993D01*
X149160000Y-91105826D01*
X149160000Y-90974174D01*
X149125925Y-90847007D01*
X149093012Y-90790000D01*
X150766988Y-90790000D01*
X150734075Y-90847007D01*
G37*
%TD.AperFunction*%
%TA.AperFunction,Conductor*%
G36*
X148910000Y-90606988D02*
G01*
X148852993Y-90574075D01*
X148725826Y-90540000D01*
X148594174Y-90540000D01*
X148467007Y-90574075D01*
X148410000Y-90606988D01*
X148410000Y-88933012D01*
X148467007Y-88965925D01*
X148594174Y-89000000D01*
X148725826Y-89000000D01*
X148852993Y-88965925D01*
X148910000Y-88933012D01*
X148910000Y-90606988D01*
G37*
%TD.AperFunction*%
%TA.AperFunction,Conductor*%
G36*
X151450000Y-90606988D02*
G01*
X151392993Y-90574075D01*
X151265826Y-90540000D01*
X151134174Y-90540000D01*
X151007007Y-90574075D01*
X150950000Y-90606988D01*
X150950000Y-88933012D01*
X151007007Y-88965925D01*
X151134174Y-89000000D01*
X151265826Y-89000000D01*
X151392993Y-88965925D01*
X151450000Y-88933012D01*
X151450000Y-90606988D01*
G37*
%TD.AperFunction*%
%TA.AperFunction,Conductor*%
G36*
X148194075Y-88307007D02*
G01*
X148160000Y-88434174D01*
X148160000Y-88565826D01*
X148194075Y-88692993D01*
X148226988Y-88750000D01*
X147329364Y-88750000D01*
X147386567Y-88963486D01*
X147386570Y-88963492D01*
X147486399Y-89177578D01*
X147621894Y-89371082D01*
X147788917Y-89538105D01*
X147975031Y-89668425D01*
X148018656Y-89723003D01*
X148025848Y-89792501D01*
X147994326Y-89854856D01*
X147975031Y-89871575D01*
X147788922Y-90001890D01*
X147788920Y-90001891D01*
X147621891Y-90168920D01*
X147621886Y-90168926D01*
X147486401Y-90362419D01*
X147447701Y-90445410D01*
X147401527Y-90497849D01*
X147334334Y-90517000D01*
X147267453Y-90496783D01*
X147247638Y-90480685D01*
X146233617Y-89466664D01*
X146200132Y-89405341D01*
X146205116Y-89335649D01*
X146233615Y-89291304D01*
X147238603Y-88286317D01*
X147299923Y-88252834D01*
X147326281Y-88250000D01*
X148226988Y-88250000D01*
X148194075Y-88307007D01*
G37*
%TD.AperFunction*%
%TA.AperFunction,Conductor*%
G36*
X162083313Y-75845185D02*
G01*
X162103955Y-75861819D01*
X173505926Y-87263790D01*
X173539411Y-87325113D01*
X173534427Y-87394805D01*
X173505926Y-87439152D01*
X172163792Y-88781288D01*
X172102469Y-88814773D01*
X172076111Y-88817607D01*
X165966558Y-88817607D01*
X165899519Y-88797922D01*
X165853764Y-88745118D01*
X165843338Y-88679724D01*
X165856987Y-88558581D01*
X165856987Y-88558574D01*
X165836791Y-88379328D01*
X165836790Y-88379323D01*
X165813309Y-88312218D01*
X165777211Y-88209056D01*
X165681238Y-88056316D01*
X165553684Y-87928762D01*
X165400945Y-87832789D01*
X165230676Y-87773209D01*
X165230671Y-87773208D01*
X165051426Y-87753013D01*
X165051418Y-87753013D01*
X164895806Y-87770545D01*
X164826984Y-87758490D01*
X164803789Y-87741853D01*
X164803268Y-87742533D01*
X164796825Y-87737589D01*
X164796823Y-87737587D01*
X164665990Y-87662051D01*
X164659892Y-87658530D01*
X164659890Y-87658529D01*
X164659889Y-87658529D01*
X164629933Y-87650502D01*
X164507164Y-87617606D01*
X164349050Y-87617606D01*
X164341454Y-87617606D01*
X164341438Y-87617607D01*
X163043890Y-87617607D01*
X162976851Y-87597922D01*
X162956209Y-87581288D01*
X153887051Y-78512130D01*
X153853566Y-78450807D01*
X153858550Y-78381115D01*
X153900422Y-78325182D01*
X153965886Y-78300765D01*
X153978181Y-78301291D01*
X153980000Y-78299738D01*
X153980000Y-77341988D01*
X153989940Y-77359205D01*
X154045795Y-77415060D01*
X154114204Y-77454556D01*
X154190504Y-77475000D01*
X154269496Y-77475000D01*
X154345796Y-77454556D01*
X154414205Y-77415060D01*
X154470060Y-77359205D01*
X154480000Y-77341988D01*
X154480000Y-78299737D01*
X154499287Y-78296683D01*
X154499300Y-78296680D01*
X154671444Y-78240748D01*
X154671447Y-78240747D01*
X154832734Y-78158565D01*
X154979169Y-78052176D01*
X155107176Y-77924169D01*
X155213565Y-77777734D01*
X155295747Y-77616447D01*
X155295748Y-77616444D01*
X155351682Y-77444293D01*
X155380000Y-77265506D01*
X155380000Y-76925000D01*
X154530000Y-76925000D01*
X154530000Y-76425000D01*
X155380000Y-76425000D01*
X155380000Y-76084494D01*
X155361691Y-75968898D01*
X155370645Y-75899605D01*
X155415641Y-75846153D01*
X155482393Y-75825513D01*
X155484164Y-75825500D01*
X162016274Y-75825500D01*
X162083313Y-75845185D01*
G37*
%TD.AperFunction*%
%TA.AperFunction,Conductor*%
G36*
X150734075Y-88307007D02*
G01*
X150700000Y-88434174D01*
X150700000Y-88565826D01*
X150734075Y-88692993D01*
X150766988Y-88750000D01*
X149093012Y-88750000D01*
X149125925Y-88692993D01*
X149160000Y-88565826D01*
X149160000Y-88434174D01*
X149125925Y-88307007D01*
X149093012Y-88250000D01*
X150766988Y-88250000D01*
X150734075Y-88307007D01*
G37*
%TD.AperFunction*%
%TA.AperFunction,Conductor*%
G36*
X152306231Y-81270185D02*
G01*
X152326873Y-81286819D01*
X155027873Y-83987819D01*
X155061358Y-84049142D01*
X155056374Y-84118834D01*
X155014502Y-84174767D01*
X154949038Y-84199184D01*
X154940192Y-84199500D01*
X135008490Y-84199500D01*
X134941451Y-84179815D01*
X134895696Y-84127011D01*
X134885752Y-84057853D01*
X134914777Y-83994297D01*
X134920809Y-83987819D01*
X137621809Y-81286819D01*
X137683132Y-81253334D01*
X137709490Y-81250500D01*
X152239192Y-81250500D01*
X152306231Y-81270185D01*
G37*
%TD.AperFunction*%
%TA.AperFunction,Conductor*%
G36*
X152302539Y-75845185D02*
G01*
X152348294Y-75897989D01*
X152359500Y-75949500D01*
X152359500Y-76022475D01*
X152397016Y-76162485D01*
X152397017Y-76162488D01*
X152469488Y-76288011D01*
X152469490Y-76288013D01*
X152469491Y-76288015D01*
X152571985Y-76390509D01*
X152571986Y-76390510D01*
X152571988Y-76390511D01*
X152697511Y-76462982D01*
X152697512Y-76462982D01*
X152697515Y-76462984D01*
X152837525Y-76500500D01*
X152837528Y-76500500D01*
X152982472Y-76500500D01*
X152982475Y-76500500D01*
X153122485Y-76462984D01*
X153159501Y-76441612D01*
X153221501Y-76425000D01*
X153930000Y-76425000D01*
X153930000Y-76925000D01*
X153080000Y-76925000D01*
X153080000Y-77265506D01*
X153103023Y-77410869D01*
X153094068Y-77480163D01*
X153049072Y-77533615D01*
X152982320Y-77554254D01*
X152915007Y-77535529D01*
X152892869Y-77517948D01*
X151412102Y-76037181D01*
X151378617Y-75975858D01*
X151383601Y-75906166D01*
X151425473Y-75850233D01*
X151490937Y-75825816D01*
X151499783Y-75825500D01*
X152235500Y-75825500D01*
X152302539Y-75845185D01*
G37*
%TD.AperFunction*%
%TA.AperFunction,Conductor*%
G36*
X162808363Y-70520185D02*
G01*
X162829005Y-70536819D01*
X179463181Y-87170995D01*
X179496666Y-87232318D01*
X179499500Y-87258676D01*
X179499500Y-112741324D01*
X179479815Y-112808363D01*
X179463181Y-112829005D01*
X162829005Y-129463181D01*
X162767682Y-129496666D01*
X162741324Y-129499500D01*
X137258676Y-129499500D01*
X137191637Y-129479815D01*
X137170995Y-129463181D01*
X120536819Y-112829005D01*
X120503334Y-112767682D01*
X120500500Y-112741324D01*
X120500500Y-109547870D01*
X141359500Y-109547870D01*
X141359501Y-109547876D01*
X141365908Y-109607483D01*
X141416202Y-109742328D01*
X141416206Y-109742335D01*
X141502452Y-109857544D01*
X141502455Y-109857547D01*
X141617664Y-109943793D01*
X141617671Y-109943797D01*
X141752517Y-109994091D01*
X141752516Y-109994091D01*
X141759444Y-109994835D01*
X141812127Y-110000500D01*
X143507872Y-110000499D01*
X143567483Y-109994091D01*
X143702331Y-109943796D01*
X143817546Y-109857546D01*
X143824350Y-109848455D01*
X143880280Y-109806584D01*
X143949971Y-109801597D01*
X143994740Y-109821188D01*
X144007512Y-109830130D01*
X144007518Y-109830134D01*
X144213673Y-109926265D01*
X144213682Y-109926269D01*
X144433389Y-109985139D01*
X144433400Y-109985141D01*
X144659998Y-110004966D01*
X144660002Y-110004966D01*
X144886599Y-109985141D01*
X144886610Y-109985139D01*
X145106317Y-109926269D01*
X145106331Y-109926264D01*
X145312478Y-109830136D01*
X145385471Y-109779024D01*
X144706447Y-109100000D01*
X144712661Y-109100000D01*
X144814394Y-109072741D01*
X144905606Y-109020080D01*
X144980080Y-108945606D01*
X145032741Y-108854394D01*
X145060000Y-108752661D01*
X145060000Y-108746447D01*
X145739024Y-109425471D01*
X145790136Y-109352478D01*
X145886264Y-109146331D01*
X145886269Y-109146317D01*
X145945139Y-108926610D01*
X145945141Y-108926599D01*
X145964966Y-108700002D01*
X145964966Y-108699997D01*
X145945141Y-108473400D01*
X145945139Y-108473389D01*
X145886269Y-108253682D01*
X145886264Y-108253668D01*
X145790136Y-108047521D01*
X145790132Y-108047513D01*
X145739025Y-107974526D01*
X145060000Y-108653551D01*
X145060000Y-108647339D01*
X145032741Y-108545606D01*
X144980080Y-108454394D01*
X144905606Y-108379920D01*
X144814394Y-108327259D01*
X144712661Y-108300000D01*
X144706447Y-108300000D01*
X145385472Y-107620974D01*
X145312478Y-107569863D01*
X145106331Y-107473735D01*
X145106317Y-107473730D01*
X144886610Y-107414860D01*
X144886599Y-107414858D01*
X144660002Y-107395034D01*
X144659998Y-107395034D01*
X144433400Y-107414858D01*
X144433389Y-107414860D01*
X144213682Y-107473730D01*
X144213673Y-107473734D01*
X144007512Y-107569868D01*
X144007507Y-107569871D01*
X143994736Y-107578813D01*
X143928529Y-107601138D01*
X143860763Y-107584124D01*
X143824352Y-107551546D01*
X143817546Y-107542454D01*
X143817544Y-107542453D01*
X143817544Y-107542452D01*
X143702335Y-107456206D01*
X143702328Y-107456202D01*
X143567482Y-107405908D01*
X143567483Y-107405908D01*
X143507883Y-107399501D01*
X143507881Y-107399500D01*
X143507873Y-107399500D01*
X143507864Y-107399500D01*
X141812129Y-107399500D01*
X141812123Y-107399501D01*
X141752516Y-107405908D01*
X141617671Y-107456202D01*
X141617664Y-107456206D01*
X141502455Y-107542452D01*
X141502452Y-107542455D01*
X141416206Y-107657664D01*
X141416202Y-107657671D01*
X141365908Y-107792517D01*
X141359501Y-107852116D01*
X141359500Y-107852135D01*
X141359500Y-109547870D01*
X120500500Y-109547870D01*
X120500500Y-104514070D01*
X127259500Y-104514070D01*
X127270710Y-104570422D01*
X127270710Y-104570424D01*
X127284497Y-104639736D01*
X127284499Y-104639744D01*
X127331624Y-104753515D01*
X127333535Y-104758127D01*
X127404723Y-104864669D01*
X127404726Y-104864673D01*
X127404727Y-104864674D01*
X127723181Y-105183127D01*
X127756666Y-105244450D01*
X127759500Y-105270808D01*
X127759500Y-106694931D01*
X127740494Y-106760903D01*
X127684211Y-106850477D01*
X127684209Y-106850481D01*
X127624633Y-107020737D01*
X127624630Y-107020750D01*
X127604435Y-107199996D01*
X127604435Y-107200003D01*
X127624630Y-107379249D01*
X127624631Y-107379254D01*
X127684211Y-107549523D01*
X127780184Y-107702262D01*
X127907738Y-107829816D01*
X128060478Y-107925789D01*
X128230745Y-107985368D01*
X128230750Y-107985369D01*
X128409996Y-108005565D01*
X128410000Y-108005565D01*
X128410004Y-108005565D01*
X128589249Y-107985369D01*
X128589252Y-107985368D01*
X128589255Y-107985368D01*
X128759522Y-107925789D01*
X128912262Y-107829816D01*
X129039816Y-107702262D01*
X129135789Y-107549522D01*
X129195368Y-107379255D01*
X129195369Y-107379249D01*
X129215565Y-107200003D01*
X129215565Y-107199996D01*
X129195369Y-107020750D01*
X129195366Y-107020737D01*
X129135790Y-106850481D01*
X129135789Y-106850478D01*
X129114008Y-106815814D01*
X129079506Y-106760903D01*
X129060500Y-106694931D01*
X129060500Y-104885928D01*
X129035502Y-104760261D01*
X129035501Y-104760260D01*
X129035501Y-104760256D01*
X128986465Y-104641873D01*
X128976283Y-104626635D01*
X128976282Y-104626631D01*
X128976281Y-104626632D01*
X128915277Y-104535331D01*
X128915275Y-104535329D01*
X128915273Y-104535326D01*
X128596819Y-104216872D01*
X128563334Y-104155549D01*
X128560500Y-104129191D01*
X128560500Y-103850557D01*
X128580185Y-103783518D01*
X128632989Y-103737763D01*
X128702147Y-103727819D01*
X128725446Y-103733513D01*
X128730745Y-103735368D01*
X128730752Y-103735368D01*
X128730753Y-103735369D01*
X128909996Y-103755565D01*
X128910000Y-103755565D01*
X128910004Y-103755565D01*
X129089249Y-103735369D01*
X129089252Y-103735368D01*
X129089255Y-103735368D01*
X129259522Y-103675789D01*
X129412262Y-103579816D01*
X129539816Y-103452262D01*
X129635789Y-103299522D01*
X129695368Y-103129255D01*
X129695369Y-103129249D01*
X129715565Y-102950003D01*
X129715565Y-102949996D01*
X129695369Y-102770750D01*
X129695368Y-102770745D01*
X129635788Y-102600476D01*
X129539815Y-102447737D01*
X129412262Y-102320184D01*
X129259523Y-102224211D01*
X129143545Y-102183629D01*
X129086769Y-102142907D01*
X129061022Y-102077954D01*
X129060500Y-102066587D01*
X129060500Y-98944603D01*
X129080185Y-98877564D01*
X129132989Y-98831809D01*
X129202147Y-98821865D01*
X129265703Y-98850890D01*
X129303477Y-98909668D01*
X129306617Y-98923075D01*
X129307239Y-98926607D01*
X129366110Y-99146317D01*
X129366115Y-99146331D01*
X129462243Y-99352478D01*
X129513354Y-99425472D01*
X130192380Y-98746446D01*
X130192380Y-98752661D01*
X130219639Y-98854394D01*
X130272300Y-98945606D01*
X130346774Y-99020080D01*
X130437986Y-99072741D01*
X130539719Y-99100000D01*
X130545933Y-99100000D01*
X129866906Y-99779025D01*
X129939893Y-99830132D01*
X129939901Y-99830136D01*
X130146048Y-99926264D01*
X130146062Y-99926269D01*
X130365769Y-99985139D01*
X130365780Y-99985141D01*
X130592378Y-100004966D01*
X130592382Y-100004966D01*
X130818979Y-99985141D01*
X130818990Y-99985139D01*
X131038697Y-99926269D01*
X131038711Y-99926264D01*
X131244858Y-99830136D01*
X131317851Y-99779024D01*
X130638827Y-99100000D01*
X130645041Y-99100000D01*
X130746774Y-99072741D01*
X130837986Y-99020080D01*
X130912460Y-98945606D01*
X130965121Y-98854394D01*
X130992380Y-98752661D01*
X130992380Y-98746447D01*
X131676577Y-99430644D01*
X131725572Y-99440491D01*
X131775755Y-99489106D01*
X131790429Y-99544632D01*
X131791479Y-99544576D01*
X131791526Y-99544571D01*
X131791526Y-99544573D01*
X131791704Y-99544564D01*
X131791881Y-99547876D01*
X131798288Y-99607483D01*
X131848582Y-99742328D01*
X131848586Y-99742335D01*
X131934832Y-99857544D01*
X131934835Y-99857547D01*
X132050044Y-99943793D01*
X132050051Y-99943797D01*
X132184897Y-99994091D01*
X132184896Y-99994091D01*
X132191824Y-99994835D01*
X132244507Y-100000500D01*
X133940252Y-100000499D01*
X133999863Y-99994091D01*
X134134711Y-99943796D01*
X134249926Y-99857546D01*
X134336176Y-99742331D01*
X134386471Y-99607483D01*
X134392880Y-99547873D01*
X134392879Y-97852128D01*
X134386471Y-97792517D01*
X134336176Y-97657669D01*
X134336175Y-97657668D01*
X134336173Y-97657664D01*
X134249927Y-97542455D01*
X134249924Y-97542452D01*
X134134715Y-97456206D01*
X134134708Y-97456202D01*
X133999862Y-97405908D01*
X133999863Y-97405908D01*
X133940263Y-97399501D01*
X133940261Y-97399500D01*
X133940253Y-97399500D01*
X133940244Y-97399500D01*
X132244509Y-97399500D01*
X132244503Y-97399501D01*
X132184896Y-97405908D01*
X132050051Y-97456202D01*
X132050044Y-97456206D01*
X131934835Y-97542452D01*
X131934832Y-97542455D01*
X131848586Y-97657664D01*
X131848582Y-97657671D01*
X131798288Y-97792517D01*
X131791881Y-97852116D01*
X131791881Y-97852123D01*
X131791702Y-97855452D01*
X131790227Y-97855372D01*
X131772195Y-97916784D01*
X131719391Y-97962539D01*
X131675902Y-97970029D01*
X130992380Y-98653551D01*
X130992380Y-98647339D01*
X130965121Y-98545606D01*
X130912460Y-98454394D01*
X130837986Y-98379920D01*
X130746774Y-98327259D01*
X130645041Y-98300000D01*
X130638828Y-98300000D01*
X131317852Y-97620974D01*
X131244858Y-97569863D01*
X131038711Y-97473735D01*
X131038697Y-97473730D01*
X130818990Y-97414860D01*
X130818979Y-97414858D01*
X130592382Y-97395034D01*
X130592378Y-97395034D01*
X130365780Y-97414858D01*
X130365769Y-97414860D01*
X130146062Y-97473730D01*
X130146053Y-97473734D01*
X129939896Y-97569866D01*
X129939892Y-97569868D01*
X129866906Y-97620973D01*
X129866906Y-97620974D01*
X130545933Y-98300000D01*
X130539719Y-98300000D01*
X130437986Y-98327259D01*
X130346774Y-98379920D01*
X130272300Y-98454394D01*
X130219639Y-98545606D01*
X130192380Y-98647339D01*
X130192380Y-98653552D01*
X129513354Y-97974526D01*
X129513353Y-97974526D01*
X129462248Y-98047512D01*
X129462246Y-98047516D01*
X129366114Y-98253673D01*
X129366110Y-98253682D01*
X129307238Y-98473399D01*
X129306616Y-98476927D01*
X129305912Y-98478347D01*
X129305838Y-98478624D01*
X129305782Y-98478609D01*
X129275591Y-98539530D01*
X129215644Y-98575421D01*
X129145810Y-98573205D01*
X129088259Y-98533586D01*
X129061264Y-98469142D01*
X129060500Y-98455396D01*
X129060500Y-96100557D01*
X129080185Y-96033518D01*
X129132989Y-95987763D01*
X129202147Y-95977819D01*
X129225446Y-95983513D01*
X129230745Y-95985368D01*
X129230752Y-95985368D01*
X129230753Y-95985369D01*
X129409996Y-96005565D01*
X129410000Y-96005565D01*
X129410004Y-96005565D01*
X129589249Y-95985369D01*
X129589252Y-95985368D01*
X129589255Y-95985368D01*
X129759522Y-95925789D01*
X129912262Y-95829816D01*
X130039816Y-95702262D01*
X130135789Y-95549522D01*
X130195368Y-95379255D01*
X130195369Y-95379249D01*
X130215565Y-95200003D01*
X130215565Y-95199996D01*
X130195369Y-95020750D01*
X130195368Y-95020745D01*
X130169201Y-94945965D01*
X130135789Y-94850478D01*
X130039816Y-94697738D01*
X129912262Y-94570184D01*
X129759523Y-94474211D01*
X129643545Y-94433629D01*
X129586769Y-94392907D01*
X129561022Y-94327954D01*
X129560500Y-94316587D01*
X129560500Y-91877589D01*
X129580185Y-91810550D01*
X129632989Y-91764795D01*
X129670617Y-91754369D01*
X129839249Y-91735369D01*
X129839252Y-91735368D01*
X129839255Y-91735368D01*
X130009522Y-91675789D01*
X130162262Y-91579816D01*
X130289816Y-91452262D01*
X130385789Y-91299522D01*
X130445368Y-91129255D01*
X130448008Y-91105826D01*
X130465565Y-90950003D01*
X130465565Y-90949996D01*
X130445369Y-90770750D01*
X130445368Y-90770745D01*
X130422844Y-90706375D01*
X130419283Y-90636596D01*
X130452203Y-90577741D01*
X130878754Y-90151190D01*
X130940075Y-90117707D01*
X131009767Y-90122691D01*
X131054114Y-90151192D01*
X131157738Y-90254816D01*
X131310478Y-90350789D01*
X131377743Y-90374326D01*
X131480745Y-90410368D01*
X131480750Y-90410369D01*
X131659996Y-90430565D01*
X131660000Y-90430565D01*
X131660004Y-90430565D01*
X131839249Y-90410369D01*
X131839251Y-90410368D01*
X131839255Y-90410368D01*
X131839258Y-90410366D01*
X131839262Y-90410366D01*
X131942257Y-90374326D01*
X132009522Y-90350789D01*
X132099096Y-90294505D01*
X132165068Y-90275500D01*
X133014192Y-90275500D01*
X133081231Y-90295185D01*
X133101873Y-90311819D01*
X134007566Y-91217511D01*
X134904724Y-92114669D01*
X134995331Y-92205276D01*
X134995332Y-92205277D01*
X135101866Y-92276461D01*
X135101872Y-92276464D01*
X135101873Y-92276465D01*
X135220256Y-92325501D01*
X135220260Y-92325501D01*
X135220261Y-92325502D01*
X135345928Y-92350500D01*
X135345931Y-92350500D01*
X142089192Y-92350500D01*
X142156231Y-92370185D01*
X142176873Y-92386819D01*
X143223181Y-93433127D01*
X143256666Y-93494450D01*
X143259500Y-93520808D01*
X143259500Y-94194931D01*
X143240494Y-94260903D01*
X143184211Y-94350477D01*
X143184209Y-94350481D01*
X143124633Y-94520737D01*
X143124630Y-94520750D01*
X143104435Y-94699996D01*
X143104435Y-94700003D01*
X143124630Y-94879249D01*
X143124631Y-94879254D01*
X143184211Y-95049523D01*
X143266928Y-95181166D01*
X143280184Y-95202262D01*
X143407738Y-95329816D01*
X143560478Y-95425789D01*
X143652412Y-95457958D01*
X143709188Y-95498680D01*
X143734935Y-95563633D01*
X143721479Y-95632194D01*
X143673092Y-95682597D01*
X143652412Y-95692042D01*
X143560476Y-95724211D01*
X143407737Y-95820184D01*
X143280184Y-95947737D01*
X143184211Y-96100476D01*
X143124631Y-96270745D01*
X143124630Y-96270750D01*
X143104435Y-96449996D01*
X143104435Y-96450003D01*
X143124630Y-96629249D01*
X143124631Y-96629254D01*
X143184211Y-96799523D01*
X143280184Y-96952262D01*
X143407738Y-97079816D01*
X143560478Y-97175789D01*
X143730745Y-97235368D01*
X143730750Y-97235369D01*
X143909996Y-97255565D01*
X143910000Y-97255565D01*
X143910004Y-97255565D01*
X144089249Y-97235369D01*
X144089252Y-97235368D01*
X144089255Y-97235368D01*
X144259522Y-97175789D01*
X144412262Y-97079816D01*
X144539816Y-96952262D01*
X144635789Y-96799522D01*
X144695368Y-96629255D01*
X144696182Y-96622025D01*
X144723245Y-96557611D01*
X144731702Y-96548242D01*
X145065277Y-96214669D01*
X145136465Y-96108127D01*
X145150394Y-96074499D01*
X145185501Y-95989744D01*
X145193857Y-95947737D01*
X145210500Y-95864071D01*
X145210500Y-93078822D01*
X145185502Y-92953155D01*
X145185501Y-92953154D01*
X145185501Y-92953150D01*
X145136465Y-92834767D01*
X145103433Y-92785331D01*
X145103433Y-92785330D01*
X145065277Y-92728225D01*
X145065271Y-92728218D01*
X143249233Y-90912181D01*
X143215748Y-90850858D01*
X143220732Y-90781166D01*
X143262604Y-90725233D01*
X143328068Y-90700816D01*
X143336914Y-90700500D01*
X144586250Y-90700500D01*
X144653289Y-90720185D01*
X144673931Y-90736819D01*
X145623181Y-91686069D01*
X145656666Y-91747392D01*
X145659500Y-91773750D01*
X145659500Y-106918544D01*
X145697947Y-107111828D01*
X145697950Y-107111840D01*
X145710390Y-107141872D01*
X145710391Y-107141874D01*
X145773364Y-107293907D01*
X145773371Y-107293920D01*
X145882860Y-107457781D01*
X145882863Y-107457785D01*
X146026537Y-107601459D01*
X146026559Y-107601479D01*
X147278108Y-108853028D01*
X147311593Y-108914351D01*
X147313955Y-108929900D01*
X147324936Y-109055403D01*
X147324938Y-109055413D01*
X147386094Y-109283655D01*
X147386096Y-109283659D01*
X147386097Y-109283663D01*
X147485965Y-109497830D01*
X147485967Y-109497834D01*
X147621501Y-109691395D01*
X147621506Y-109691402D01*
X147623181Y-109693077D01*
X147623682Y-109693995D01*
X147624982Y-109695544D01*
X147624670Y-109695805D01*
X147656666Y-109754400D01*
X147659500Y-109780758D01*
X147659500Y-110399241D01*
X147639815Y-110466280D01*
X147623181Y-110486922D01*
X147621505Y-110488597D01*
X147485965Y-110682169D01*
X147485964Y-110682171D01*
X147386098Y-110896335D01*
X147386094Y-110896344D01*
X147324938Y-111124586D01*
X147324936Y-111124596D01*
X147304341Y-111359999D01*
X147304341Y-111360000D01*
X147324936Y-111595403D01*
X147324938Y-111595413D01*
X147386094Y-111823655D01*
X147386096Y-111823659D01*
X147386097Y-111823663D01*
X147485965Y-112037830D01*
X147485967Y-112037834D01*
X147594281Y-112192521D01*
X147621505Y-112231401D01*
X147788599Y-112398495D01*
X147861442Y-112449500D01*
X147982165Y-112534032D01*
X147982167Y-112534033D01*
X147982170Y-112534035D01*
X148196337Y-112633903D01*
X148424592Y-112695063D01*
X148612918Y-112711539D01*
X148659999Y-112715659D01*
X148660000Y-112715659D01*
X148660001Y-112715659D01*
X148699234Y-112712226D01*
X148895408Y-112695063D01*
X149123663Y-112633903D01*
X149337830Y-112534035D01*
X149504379Y-112417415D01*
X149570582Y-112395090D01*
X149638350Y-112412100D01*
X149686163Y-112463048D01*
X149699500Y-112518992D01*
X149699500Y-113537110D01*
X149679815Y-113604149D01*
X149663181Y-113624791D01*
X148874792Y-114413181D01*
X148813469Y-114446666D01*
X148787111Y-114449500D01*
X143984137Y-114449500D01*
X143917098Y-114429815D01*
X143871343Y-114377011D01*
X143861399Y-114307853D01*
X143864362Y-114293407D01*
X143890567Y-114195606D01*
X143895635Y-114176692D01*
X143915468Y-113950000D01*
X143895635Y-113723308D01*
X143836739Y-113503504D01*
X143740568Y-113297266D01*
X143610047Y-113110861D01*
X143610045Y-113110858D01*
X143449141Y-112949954D01*
X143262734Y-112819432D01*
X143262732Y-112819431D01*
X143056497Y-112723261D01*
X143056488Y-112723258D01*
X142836697Y-112664366D01*
X142836693Y-112664365D01*
X142836692Y-112664365D01*
X142836691Y-112664364D01*
X142836686Y-112664364D01*
X142610002Y-112644532D01*
X142609998Y-112644532D01*
X142383313Y-112664364D01*
X142383302Y-112664366D01*
X142163511Y-112723258D01*
X142163502Y-112723261D01*
X141957267Y-112819431D01*
X141957265Y-112819432D01*
X141770858Y-112949954D01*
X141609956Y-113110856D01*
X141564249Y-113176133D01*
X141509672Y-113219758D01*
X141440173Y-113226950D01*
X141377819Y-113195428D01*
X141356659Y-113167246D01*
X141355888Y-113167719D01*
X141353345Y-113163570D01*
X141334687Y-113137890D01*
X141317146Y-113099657D01*
X141316802Y-113099786D01*
X141315048Y-113095083D01*
X141314323Y-113093503D01*
X141314092Y-113092529D01*
X141314091Y-113092517D01*
X141276369Y-112991381D01*
X141263797Y-112957671D01*
X141263793Y-112957664D01*
X141177547Y-112842455D01*
X141177544Y-112842452D01*
X141062335Y-112756206D01*
X141062326Y-112756201D01*
X140927479Y-112705907D01*
X140926466Y-112705668D01*
X140924856Y-112704929D01*
X140920217Y-112703199D01*
X140920344Y-112702858D01*
X140882112Y-112685313D01*
X140856436Y-112666659D01*
X140856435Y-112666658D01*
X140856433Y-112666657D01*
X140790715Y-112633172D01*
X140645996Y-112559433D01*
X140421368Y-112486446D01*
X140188097Y-112449500D01*
X140188092Y-112449500D01*
X139951908Y-112449500D01*
X139951903Y-112449500D01*
X139718631Y-112486446D01*
X139494003Y-112559433D01*
X139283568Y-112666656D01*
X139283561Y-112666660D01*
X139257883Y-112685316D01*
X139219657Y-112702854D01*
X139219785Y-112703198D01*
X139215104Y-112704943D01*
X139213515Y-112705673D01*
X139212516Y-112705908D01*
X139077671Y-112756202D01*
X139077664Y-112756206D01*
X138962455Y-112842452D01*
X138962452Y-112842455D01*
X138876206Y-112957664D01*
X138876201Y-112957673D01*
X138825906Y-113092522D01*
X138825667Y-113093537D01*
X138824927Y-113095147D01*
X138823199Y-113099783D01*
X138822858Y-113099656D01*
X138805316Y-113137884D01*
X138786655Y-113163570D01*
X138784109Y-113167725D01*
X138782889Y-113166977D01*
X138739298Y-113213098D01*
X138671471Y-113229868D01*
X138666022Y-113229512D01*
X138609025Y-113224526D01*
X137930000Y-113903552D01*
X137930000Y-113897339D01*
X137902741Y-113795606D01*
X137850080Y-113704394D01*
X137775606Y-113629920D01*
X137684394Y-113577259D01*
X137582661Y-113550000D01*
X137576448Y-113550000D01*
X138255472Y-112870974D01*
X138182478Y-112819863D01*
X137976331Y-112723735D01*
X137976317Y-112723730D01*
X137756610Y-112664860D01*
X137756599Y-112664858D01*
X137530002Y-112645034D01*
X137529998Y-112645034D01*
X137303400Y-112664858D01*
X137303389Y-112664860D01*
X137083682Y-112723730D01*
X137083673Y-112723734D01*
X136877516Y-112819866D01*
X136877512Y-112819868D01*
X136804526Y-112870973D01*
X136804526Y-112870974D01*
X137483553Y-113550000D01*
X137477339Y-113550000D01*
X137375606Y-113577259D01*
X137284394Y-113629920D01*
X137209920Y-113704394D01*
X137157259Y-113795606D01*
X137130000Y-113897339D01*
X137130000Y-113903552D01*
X136450974Y-113224526D01*
X136450973Y-113224526D01*
X136399868Y-113297512D01*
X136399866Y-113297516D01*
X136303734Y-113503673D01*
X136303730Y-113503682D01*
X136244860Y-113723389D01*
X136244858Y-113723400D01*
X136225034Y-113949997D01*
X136225034Y-113950002D01*
X136244858Y-114176599D01*
X136244860Y-114176610D01*
X136303730Y-114396317D01*
X136303735Y-114396331D01*
X136399863Y-114602478D01*
X136450974Y-114675472D01*
X137130000Y-113996446D01*
X137130000Y-114002661D01*
X137157259Y-114104394D01*
X137209920Y-114195606D01*
X137284394Y-114270080D01*
X137375606Y-114322741D01*
X137477339Y-114350000D01*
X137483553Y-114350000D01*
X136804526Y-115029025D01*
X136877513Y-115080132D01*
X136877521Y-115080136D01*
X136955930Y-115116699D01*
X137008370Y-115162871D01*
X137027522Y-115230064D01*
X137007306Y-115296946D01*
X136991207Y-115316762D01*
X135265485Y-117042487D01*
X135265484Y-117042488D01*
X135126657Y-117233565D01*
X135073191Y-117338500D01*
X135019433Y-117444003D01*
X134946446Y-117668631D01*
X134909500Y-117901902D01*
X134909500Y-122318097D01*
X134946446Y-122551368D01*
X135019433Y-122775996D01*
X135120818Y-122974973D01*
X135126657Y-122986433D01*
X135265483Y-123177510D01*
X135432490Y-123344517D01*
X135623567Y-123483343D01*
X135690241Y-123517315D01*
X135834003Y-123590566D01*
X135834005Y-123590566D01*
X135834008Y-123590568D01*
X135954412Y-123629689D01*
X136058631Y-123663553D01*
X136291903Y-123700500D01*
X136291908Y-123700500D01*
X136528097Y-123700500D01*
X136761368Y-123663553D01*
X136985992Y-123590568D01*
X137196433Y-123483343D01*
X137387510Y-123344517D01*
X137462207Y-123269819D01*
X137523526Y-123236337D01*
X137593218Y-123241321D01*
X137649152Y-123283192D01*
X137655423Y-123292406D01*
X137717680Y-123393340D01*
X137717683Y-123393344D01*
X137841654Y-123517315D01*
X137990875Y-123609356D01*
X137990880Y-123609358D01*
X138157302Y-123664505D01*
X138157309Y-123664506D01*
X138260019Y-123674999D01*
X138659999Y-123674999D01*
X138660000Y-123674998D01*
X138660000Y-122604145D01*
X138726657Y-122642630D01*
X138847465Y-122675000D01*
X138972535Y-122675000D01*
X139093343Y-122642630D01*
X139160000Y-122604145D01*
X139160000Y-123674999D01*
X139559972Y-123674999D01*
X139559986Y-123674998D01*
X139662697Y-123664505D01*
X139829119Y-123609358D01*
X139829124Y-123609356D01*
X139978345Y-123517315D01*
X140102315Y-123393345D01*
X140194356Y-123244124D01*
X140194358Y-123244119D01*
X140249505Y-123077697D01*
X140249506Y-123077690D01*
X140259999Y-122974986D01*
X140260000Y-122974973D01*
X140260000Y-122450000D01*
X139314146Y-122450000D01*
X139352630Y-122383343D01*
X139385000Y-122262535D01*
X139385000Y-122137465D01*
X139352630Y-122016657D01*
X139314146Y-121950000D01*
X140259999Y-121950000D01*
X140259999Y-121425028D01*
X140259998Y-121425013D01*
X140249505Y-121322302D01*
X140194358Y-121155880D01*
X140194356Y-121155875D01*
X140102315Y-121006654D01*
X139978345Y-120882684D01*
X139829124Y-120790643D01*
X139829119Y-120790641D01*
X139662697Y-120735494D01*
X139662690Y-120735493D01*
X139559986Y-120725000D01*
X139160000Y-120725000D01*
X139160000Y-121795854D01*
X139093343Y-121757370D01*
X138972535Y-121725000D01*
X138847465Y-121725000D01*
X138726657Y-121757370D01*
X138660000Y-121795854D01*
X138660000Y-120725000D01*
X138260028Y-120725000D01*
X138260012Y-120725001D01*
X138157302Y-120735494D01*
X138073504Y-120763262D01*
X138003675Y-120765664D01*
X137943633Y-120729932D01*
X137912441Y-120667411D01*
X137910500Y-120645556D01*
X137910500Y-118692889D01*
X137930185Y-118625850D01*
X137946819Y-118605208D01*
X138959880Y-117592147D01*
X139982320Y-116569706D01*
X140043641Y-116536223D01*
X140113333Y-116541207D01*
X140157680Y-116569708D01*
X140682491Y-117094519D01*
X140682496Y-117094523D01*
X140783986Y-117168259D01*
X140873567Y-117233343D01*
X141007659Y-117301666D01*
X141084003Y-117340566D01*
X141084005Y-117340566D01*
X141084008Y-117340568D01*
X141204412Y-117379689D01*
X141308631Y-117413553D01*
X141541903Y-117450500D01*
X141541908Y-117450500D01*
X141541909Y-117450500D01*
X141778092Y-117450500D01*
X142441168Y-117450500D01*
X142508207Y-117470185D01*
X142553962Y-117522989D01*
X142563906Y-117592147D01*
X142553550Y-117626903D01*
X142487653Y-117768221D01*
X142479107Y-117786548D01*
X142479104Y-117786554D01*
X142421930Y-117999929D01*
X142421929Y-117999937D01*
X142402677Y-118219997D01*
X142402677Y-118220002D01*
X142421929Y-118440062D01*
X142421930Y-118440070D01*
X142479104Y-118653445D01*
X142479105Y-118653447D01*
X142479106Y-118653450D01*
X142497497Y-118692889D01*
X142572466Y-118853662D01*
X142572468Y-118853666D01*
X142699170Y-119034615D01*
X142699175Y-119034621D01*
X142855378Y-119190824D01*
X142855384Y-119190829D01*
X143036333Y-119317531D01*
X143036335Y-119317532D01*
X143036338Y-119317534D01*
X143236550Y-119410894D01*
X143449932Y-119468070D01*
X143607123Y-119481822D01*
X143669998Y-119487323D01*
X143670000Y-119487323D01*
X143670002Y-119487323D01*
X143725017Y-119482509D01*
X143890068Y-119468070D01*
X144103450Y-119410894D01*
X144303662Y-119317534D01*
X144484620Y-119190826D01*
X144640826Y-119034620D01*
X144767534Y-118853662D01*
X144827618Y-118724811D01*
X144873790Y-118672371D01*
X144940983Y-118653219D01*
X145007865Y-118673435D01*
X145052382Y-118724811D01*
X145112464Y-118853658D01*
X145112468Y-118853666D01*
X145239170Y-119034615D01*
X145239175Y-119034621D01*
X145395378Y-119190824D01*
X145395384Y-119190829D01*
X145576333Y-119317531D01*
X145576335Y-119317532D01*
X145576338Y-119317534D01*
X145776550Y-119410894D01*
X145989932Y-119468070D01*
X146147123Y-119481822D01*
X146209998Y-119487323D01*
X146210000Y-119487323D01*
X146210002Y-119487323D01*
X146265017Y-119482509D01*
X146430068Y-119468070D01*
X146643450Y-119410894D01*
X146843662Y-119317534D01*
X147024620Y-119190826D01*
X147180826Y-119034620D01*
X147307534Y-118853662D01*
X147367618Y-118724811D01*
X147413790Y-118672371D01*
X147480983Y-118653219D01*
X147547865Y-118673435D01*
X147592382Y-118724811D01*
X147652464Y-118853658D01*
X147652468Y-118853666D01*
X147779170Y-119034615D01*
X147779175Y-119034621D01*
X147935378Y-119190824D01*
X147935384Y-119190829D01*
X148116333Y-119317531D01*
X148116335Y-119317532D01*
X148116338Y-119317534D01*
X148316550Y-119410894D01*
X148529932Y-119468070D01*
X148687123Y-119481822D01*
X148749998Y-119487323D01*
X148750000Y-119487323D01*
X148750002Y-119487323D01*
X148805017Y-119482509D01*
X148970068Y-119468070D01*
X149183450Y-119410894D01*
X149383662Y-119317534D01*
X149564620Y-119190826D01*
X149720826Y-119034620D01*
X149847534Y-118853662D01*
X149907618Y-118724811D01*
X149953790Y-118672371D01*
X150020983Y-118653219D01*
X150087865Y-118673435D01*
X150132382Y-118724811D01*
X150192464Y-118853658D01*
X150192468Y-118853666D01*
X150319170Y-119034615D01*
X150319175Y-119034621D01*
X150475378Y-119190824D01*
X150475384Y-119190829D01*
X150656333Y-119317531D01*
X150656335Y-119317532D01*
X150656338Y-119317534D01*
X150856550Y-119410894D01*
X151069932Y-119468070D01*
X151227123Y-119481822D01*
X151289998Y-119487323D01*
X151290000Y-119487323D01*
X151290002Y-119487323D01*
X151345017Y-119482509D01*
X151510068Y-119468070D01*
X151723450Y-119410894D01*
X151923662Y-119317534D01*
X152104620Y-119190826D01*
X152260826Y-119034620D01*
X152387534Y-118853662D01*
X152447618Y-118724811D01*
X152493790Y-118672371D01*
X152560983Y-118653219D01*
X152627865Y-118673435D01*
X152672382Y-118724811D01*
X152732464Y-118853658D01*
X152732468Y-118853666D01*
X152859170Y-119034615D01*
X152859175Y-119034621D01*
X153015378Y-119190824D01*
X153015384Y-119190829D01*
X153196333Y-119317531D01*
X153196335Y-119317532D01*
X153196338Y-119317534D01*
X153396550Y-119410894D01*
X153609932Y-119468070D01*
X153767123Y-119481822D01*
X153829998Y-119487323D01*
X153830000Y-119487323D01*
X153830002Y-119487323D01*
X153885017Y-119482509D01*
X154050068Y-119468070D01*
X154263450Y-119410894D01*
X154463662Y-119317534D01*
X154644620Y-119190826D01*
X154800826Y-119034620D01*
X154927534Y-118853662D01*
X154987618Y-118724811D01*
X155033790Y-118672371D01*
X155100983Y-118653219D01*
X155167865Y-118673435D01*
X155212382Y-118724811D01*
X155272464Y-118853658D01*
X155272468Y-118853666D01*
X155399170Y-119034615D01*
X155399175Y-119034621D01*
X155555378Y-119190824D01*
X155555384Y-119190829D01*
X155736333Y-119317531D01*
X155736335Y-119317532D01*
X155736338Y-119317534D01*
X155936550Y-119410894D01*
X156149932Y-119468070D01*
X156307123Y-119481822D01*
X156369998Y-119487323D01*
X156370000Y-119487323D01*
X156370002Y-119487323D01*
X156425017Y-119482509D01*
X156590068Y-119468070D01*
X156803450Y-119410894D01*
X157003662Y-119317534D01*
X157184620Y-119190826D01*
X157340826Y-119034620D01*
X157467534Y-118853662D01*
X157527894Y-118724218D01*
X157574066Y-118671779D01*
X157641259Y-118652627D01*
X157708141Y-118672843D01*
X157752658Y-118724219D01*
X157812898Y-118853405D01*
X157812901Y-118853411D01*
X157858258Y-118918187D01*
X157858259Y-118918188D01*
X158529000Y-118247447D01*
X158529000Y-118270160D01*
X158554964Y-118367061D01*
X158605124Y-118453940D01*
X158676060Y-118524876D01*
X158762939Y-118575036D01*
X158859840Y-118601000D01*
X158882553Y-118601000D01*
X158211810Y-119271740D01*
X158276590Y-119317099D01*
X158276592Y-119317100D01*
X158476715Y-119410419D01*
X158476729Y-119410424D01*
X158690013Y-119467573D01*
X158690023Y-119467575D01*
X158909999Y-119486821D01*
X158910001Y-119486821D01*
X159129976Y-119467575D01*
X159129986Y-119467573D01*
X159343270Y-119410424D01*
X159343284Y-119410419D01*
X159543407Y-119317100D01*
X159543417Y-119317094D01*
X159608188Y-119271741D01*
X158937448Y-118601000D01*
X158960160Y-118601000D01*
X159057061Y-118575036D01*
X159143940Y-118524876D01*
X159214876Y-118453940D01*
X159265036Y-118367061D01*
X159291000Y-118270160D01*
X159291000Y-118247447D01*
X159961741Y-118918188D01*
X160007094Y-118853417D01*
X160007095Y-118853416D01*
X160067340Y-118724219D01*
X160113512Y-118671780D01*
X160180706Y-118652627D01*
X160247587Y-118672842D01*
X160292105Y-118724218D01*
X160352466Y-118853662D01*
X160352468Y-118853666D01*
X160479170Y-119034615D01*
X160479175Y-119034621D01*
X160635378Y-119190824D01*
X160635384Y-119190829D01*
X160816333Y-119317531D01*
X160816335Y-119317532D01*
X160816338Y-119317534D01*
X161016550Y-119410894D01*
X161229932Y-119468070D01*
X161387123Y-119481822D01*
X161449998Y-119487323D01*
X161450000Y-119487323D01*
X161450002Y-119487323D01*
X161505017Y-119482509D01*
X161670068Y-119468070D01*
X161883450Y-119410894D01*
X162083662Y-119317534D01*
X162264620Y-119190826D01*
X162420826Y-119034620D01*
X162547534Y-118853662D01*
X162640894Y-118653450D01*
X162698070Y-118440068D01*
X162717323Y-118220000D01*
X162698070Y-117999932D01*
X162640894Y-117786550D01*
X162547534Y-117586339D01*
X162452419Y-117450500D01*
X162420827Y-117405381D01*
X162353946Y-117338500D01*
X162264620Y-117249174D01*
X162264616Y-117249171D01*
X162264615Y-117249170D01*
X162083666Y-117122468D01*
X162083662Y-117122466D01*
X162039202Y-117101734D01*
X161883450Y-117029106D01*
X161883447Y-117029105D01*
X161883445Y-117029104D01*
X161670070Y-116971930D01*
X161670062Y-116971929D01*
X161450002Y-116952677D01*
X161449998Y-116952677D01*
X161229937Y-116971929D01*
X161229929Y-116971930D01*
X161016554Y-117029104D01*
X161016548Y-117029107D01*
X160816340Y-117122465D01*
X160816338Y-117122466D01*
X160635377Y-117249175D01*
X160479175Y-117405377D01*
X160352467Y-117586337D01*
X160292105Y-117715782D01*
X160245932Y-117768221D01*
X160178738Y-117787372D01*
X160111857Y-117767156D01*
X160067341Y-117715780D01*
X160007098Y-117586589D01*
X160007097Y-117586587D01*
X159961741Y-117521811D01*
X159961740Y-117521810D01*
X159291000Y-118192551D01*
X159291000Y-118169840D01*
X159265036Y-118072939D01*
X159214876Y-117986060D01*
X159143940Y-117915124D01*
X159057061Y-117864964D01*
X158960160Y-117839000D01*
X158937448Y-117839000D01*
X159608188Y-117168259D01*
X159608187Y-117168258D01*
X159543411Y-117122901D01*
X159543405Y-117122898D01*
X159343284Y-117029580D01*
X159343270Y-117029575D01*
X159129986Y-116972426D01*
X159129976Y-116972424D01*
X158910001Y-116953179D01*
X158909999Y-116953179D01*
X158690023Y-116972424D01*
X158690013Y-116972426D01*
X158476729Y-117029575D01*
X158476720Y-117029579D01*
X158276590Y-117122901D01*
X158211811Y-117168258D01*
X158882553Y-117839000D01*
X158859840Y-117839000D01*
X158762939Y-117864964D01*
X158676060Y-117915124D01*
X158605124Y-117986060D01*
X158554964Y-118072939D01*
X158529000Y-118169840D01*
X158529000Y-118192553D01*
X157858258Y-117521811D01*
X157812901Y-117586590D01*
X157752658Y-117715781D01*
X157706485Y-117768220D01*
X157639292Y-117787372D01*
X157572411Y-117767156D01*
X157527894Y-117715781D01*
X157467651Y-117586590D01*
X157467534Y-117586339D01*
X157372419Y-117450500D01*
X157340827Y-117405381D01*
X157273946Y-117338500D01*
X157184620Y-117249174D01*
X157184616Y-117249171D01*
X157184615Y-117249170D01*
X157003666Y-117122468D01*
X157003662Y-117122466D01*
X156959202Y-117101734D01*
X156803450Y-117029106D01*
X156803447Y-117029105D01*
X156803445Y-117029104D01*
X156590070Y-116971930D01*
X156590062Y-116971929D01*
X156370002Y-116952677D01*
X156369998Y-116952677D01*
X156149937Y-116971929D01*
X156149923Y-116971932D01*
X156078092Y-116991178D01*
X156008242Y-116989514D01*
X155958319Y-116959084D01*
X153546819Y-114547584D01*
X153513334Y-114486261D01*
X153510500Y-114459903D01*
X153510500Y-109660000D01*
X155655000Y-109660000D01*
X155655000Y-115660000D01*
X173655000Y-115660000D01*
X173655000Y-109660000D01*
X155655000Y-109660000D01*
X153510500Y-109660000D01*
X153510500Y-108230652D01*
X153530185Y-108163613D01*
X153582989Y-108117858D01*
X153620607Y-108107433D01*
X153675242Y-108101278D01*
X153689108Y-108100500D01*
X163474071Y-108100500D01*
X163558615Y-108083682D01*
X163599744Y-108075501D01*
X163718127Y-108026465D01*
X163824669Y-107955277D01*
X164393126Y-107386818D01*
X164454449Y-107353334D01*
X164480807Y-107350500D01*
X170654932Y-107350500D01*
X170720904Y-107369506D01*
X170810477Y-107425789D01*
X170810481Y-107425790D01*
X170980737Y-107485366D01*
X170980743Y-107485367D01*
X170980745Y-107485368D01*
X170980746Y-107485368D01*
X170980750Y-107485369D01*
X171159996Y-107505565D01*
X171160000Y-107505565D01*
X171160004Y-107505565D01*
X171339249Y-107485369D01*
X171339252Y-107485368D01*
X171339255Y-107485368D01*
X171509522Y-107425789D01*
X171662262Y-107329816D01*
X171789816Y-107202262D01*
X171885789Y-107049522D01*
X171945368Y-106879255D01*
X171948610Y-106850481D01*
X171965565Y-106700003D01*
X171965565Y-106699996D01*
X171945369Y-106520750D01*
X171945368Y-106520745D01*
X171885788Y-106350476D01*
X171789815Y-106197737D01*
X171662262Y-106070184D01*
X171509523Y-105974211D01*
X171339254Y-105914631D01*
X171339249Y-105914630D01*
X171160004Y-105894435D01*
X171159996Y-105894435D01*
X170980750Y-105914630D01*
X170980737Y-105914633D01*
X170810481Y-105974209D01*
X170810477Y-105974210D01*
X170720904Y-106030494D01*
X170654932Y-106049500D01*
X164934500Y-106049500D01*
X164867461Y-106029815D01*
X164821706Y-105977011D01*
X164810500Y-105925500D01*
X164810500Y-104216689D01*
X164785502Y-104091022D01*
X164785501Y-104091021D01*
X164785501Y-104091017D01*
X164736465Y-103972634D01*
X164735898Y-103971785D01*
X164665277Y-103866092D01*
X164665272Y-103866086D01*
X156993912Y-96194726D01*
X156993908Y-96194723D01*
X156887366Y-96123535D01*
X156831892Y-96100557D01*
X156768983Y-96074499D01*
X156768977Y-96074497D01*
X156643310Y-96049500D01*
X156643308Y-96049500D01*
X154915068Y-96049500D01*
X154849096Y-96030494D01*
X154759522Y-95974210D01*
X154759518Y-95974209D01*
X154589262Y-95914633D01*
X154589249Y-95914630D01*
X154410004Y-95894435D01*
X154409996Y-95894435D01*
X154230750Y-95914630D01*
X154230745Y-95914631D01*
X154060476Y-95974211D01*
X153905152Y-96071809D01*
X153837916Y-96090809D01*
X153771080Y-96070441D01*
X153751499Y-96054496D01*
X153009184Y-95312181D01*
X152975699Y-95250858D01*
X152980683Y-95181166D01*
X153022555Y-95125233D01*
X153088019Y-95100816D01*
X153096865Y-95100500D01*
X170404932Y-95100500D01*
X170470904Y-95119506D01*
X170560477Y-95175789D01*
X170560481Y-95175790D01*
X170730737Y-95235366D01*
X170730743Y-95235367D01*
X170730745Y-95235368D01*
X170730746Y-95235368D01*
X170730750Y-95235369D01*
X170909996Y-95255565D01*
X170910000Y-95255565D01*
X170910004Y-95255565D01*
X171089249Y-95235369D01*
X171089252Y-95235368D01*
X171089255Y-95235368D01*
X171259522Y-95175789D01*
X171412262Y-95079816D01*
X171539816Y-94952262D01*
X171635789Y-94799522D01*
X171695368Y-94629255D01*
X171695369Y-94629249D01*
X171715565Y-94450003D01*
X171715565Y-94449996D01*
X171695369Y-94270750D01*
X171695368Y-94270745D01*
X171681340Y-94230656D01*
X171635789Y-94100478D01*
X171539816Y-93947738D01*
X171412262Y-93820184D01*
X171349096Y-93780494D01*
X171259523Y-93724211D01*
X171089254Y-93664631D01*
X171089249Y-93664630D01*
X170910004Y-93644435D01*
X170909996Y-93644435D01*
X170730750Y-93664630D01*
X170730737Y-93664633D01*
X170560481Y-93724209D01*
X170560477Y-93724210D01*
X170470904Y-93780494D01*
X170404932Y-93799500D01*
X152671777Y-93799500D01*
X152604738Y-93779815D01*
X152558983Y-93727011D01*
X152548249Y-93664692D01*
X152548255Y-93664632D01*
X152555659Y-93580000D01*
X152535063Y-93344592D01*
X152473903Y-93116337D01*
X152374035Y-92902171D01*
X152368425Y-92894158D01*
X152238494Y-92708597D01*
X152071402Y-92541506D01*
X152071401Y-92541505D01*
X151885405Y-92411269D01*
X151841781Y-92356692D01*
X151834588Y-92287193D01*
X151866110Y-92224839D01*
X151885405Y-92208119D01*
X152071082Y-92078105D01*
X152238105Y-91911082D01*
X152373600Y-91717578D01*
X152473429Y-91503492D01*
X152473432Y-91503486D01*
X152530636Y-91290000D01*
X151633012Y-91290000D01*
X151665925Y-91232993D01*
X151700000Y-91105826D01*
X151700000Y-90974174D01*
X151665925Y-90847007D01*
X151633012Y-90790000D01*
X152530636Y-90790000D01*
X152530635Y-90789999D01*
X152473432Y-90576513D01*
X152473429Y-90576507D01*
X152373600Y-90362422D01*
X152373599Y-90362420D01*
X152238113Y-90168926D01*
X152238108Y-90168920D01*
X152071082Y-90001894D01*
X151884968Y-89871575D01*
X151841344Y-89816998D01*
X151834151Y-89747499D01*
X151865673Y-89685145D01*
X151884968Y-89668425D01*
X152071082Y-89538105D01*
X152238105Y-89371082D01*
X152373600Y-89177578D01*
X152473429Y-88963492D01*
X152473432Y-88963486D01*
X152530636Y-88750000D01*
X151633012Y-88750000D01*
X151665925Y-88692993D01*
X151700000Y-88565826D01*
X151700000Y-88434174D01*
X151665925Y-88307007D01*
X151633012Y-88250000D01*
X152530636Y-88250000D01*
X152530635Y-88249999D01*
X152473432Y-88036513D01*
X152473429Y-88036507D01*
X152399006Y-87876905D01*
X152388514Y-87807827D01*
X152417034Y-87744043D01*
X152475510Y-87705804D01*
X152511388Y-87700500D01*
X153194218Y-87700500D01*
X153261257Y-87720185D01*
X153281899Y-87736819D01*
X155997842Y-90452762D01*
X155997871Y-90452793D01*
X156140321Y-90595243D01*
X156140325Y-90595246D01*
X156304189Y-90704737D01*
X156304191Y-90704737D01*
X156304193Y-90704739D01*
X156426899Y-90755565D01*
X156486271Y-90780158D01*
X156551747Y-90793182D01*
X156583701Y-90799538D01*
X156679563Y-90818607D01*
X156679566Y-90818607D01*
X172640436Y-90818607D01*
X172725646Y-90801657D01*
X172768253Y-90793182D01*
X172833729Y-90780158D01*
X172893101Y-90755565D01*
X173015807Y-90704739D01*
X173179675Y-90595246D01*
X173319032Y-90455889D01*
X173319033Y-90455887D01*
X173326099Y-90448821D01*
X173326101Y-90448817D01*
X174297820Y-89477099D01*
X174359142Y-89443615D01*
X174428834Y-89448599D01*
X174484767Y-89490471D01*
X174509184Y-89555935D01*
X174509500Y-89564781D01*
X174509500Y-92267059D01*
X174489815Y-92334098D01*
X174473182Y-92354740D01*
X174380183Y-92447739D01*
X174284211Y-92600476D01*
X174224631Y-92770745D01*
X174224630Y-92770750D01*
X174204435Y-92949996D01*
X174204435Y-92950003D01*
X174224630Y-93129249D01*
X174224631Y-93129254D01*
X174284211Y-93299523D01*
X174368161Y-93433127D01*
X174380184Y-93452262D01*
X174507738Y-93579816D01*
X174508031Y-93580000D01*
X174642721Y-93664632D01*
X174660478Y-93675789D01*
X174798857Y-93724210D01*
X174830745Y-93735368D01*
X174830750Y-93735369D01*
X175009996Y-93755565D01*
X175010000Y-93755565D01*
X175010004Y-93755565D01*
X175134117Y-93741581D01*
X175202938Y-93753636D01*
X175254318Y-93800985D01*
X175272000Y-93864801D01*
X175272000Y-93944931D01*
X175252994Y-94010903D01*
X175196711Y-94100477D01*
X175196709Y-94100481D01*
X175137133Y-94270737D01*
X175137130Y-94270750D01*
X175116935Y-94449996D01*
X175116935Y-94450003D01*
X175137130Y-94629249D01*
X175137131Y-94629254D01*
X175196711Y-94799523D01*
X175288727Y-94945965D01*
X175292684Y-94952262D01*
X175420238Y-95079816D01*
X175572978Y-95175789D01*
X175669616Y-95209604D01*
X175743245Y-95235368D01*
X175743250Y-95235369D01*
X175922496Y-95255565D01*
X175922500Y-95255565D01*
X175922504Y-95255565D01*
X176101749Y-95235369D01*
X176101752Y-95235368D01*
X176101755Y-95235368D01*
X176272022Y-95175789D01*
X176424762Y-95079816D01*
X176552316Y-94952262D01*
X176648289Y-94799522D01*
X176707868Y-94629255D01*
X176707869Y-94629249D01*
X176728065Y-94450003D01*
X176728065Y-94449996D01*
X176707869Y-94270750D01*
X176707866Y-94270737D01*
X176648290Y-94100481D01*
X176648289Y-94100478D01*
X176626508Y-94065814D01*
X176592006Y-94010903D01*
X176573000Y-93944931D01*
X176573000Y-87989240D01*
X176548002Y-87863573D01*
X176548001Y-87863572D01*
X176548001Y-87863568D01*
X176513811Y-87781026D01*
X176498966Y-87745186D01*
X176498202Y-87744043D01*
X176427778Y-87638644D01*
X176427772Y-87638637D01*
X162783861Y-73994726D01*
X162783857Y-73994723D01*
X162677315Y-73923535D01*
X162558932Y-73874499D01*
X162558926Y-73874497D01*
X162433259Y-73849500D01*
X162433257Y-73849500D01*
X155484164Y-73849500D01*
X155417125Y-73829815D01*
X155371370Y-73777011D01*
X155361426Y-73707853D01*
X155361691Y-73706102D01*
X155380000Y-73590505D01*
X155380000Y-73100000D01*
X154530000Y-73100000D01*
X154530000Y-72600000D01*
X155380000Y-72600000D01*
X155380000Y-72109493D01*
X155351682Y-71930706D01*
X155295748Y-71758555D01*
X155295747Y-71758552D01*
X155213565Y-71597265D01*
X155107176Y-71450830D01*
X154979169Y-71322823D01*
X154832734Y-71216434D01*
X154671447Y-71134252D01*
X154671441Y-71134250D01*
X154499295Y-71078318D01*
X154499285Y-71078315D01*
X154480000Y-71075260D01*
X154480000Y-72033011D01*
X154470060Y-72015795D01*
X154414205Y-71959940D01*
X154345796Y-71920444D01*
X154269496Y-71900000D01*
X154190504Y-71900000D01*
X154114204Y-71920444D01*
X154045795Y-71959940D01*
X153989940Y-72015795D01*
X153980000Y-72033011D01*
X153980000Y-71075260D01*
X153960714Y-71078315D01*
X153960704Y-71078318D01*
X153788558Y-71134250D01*
X153788552Y-71134252D01*
X153627265Y-71216434D01*
X153480830Y-71322823D01*
X153352823Y-71450830D01*
X153246434Y-71597265D01*
X153164252Y-71758552D01*
X153164251Y-71758555D01*
X153108317Y-71930706D01*
X153080000Y-72109493D01*
X153080000Y-72600000D01*
X153930000Y-72600000D01*
X153930000Y-73100000D01*
X153080000Y-73100000D01*
X153080000Y-73590505D01*
X153098309Y-73706102D01*
X153089355Y-73775395D01*
X153044359Y-73828847D01*
X152977607Y-73849487D01*
X152975836Y-73849500D01*
X149669584Y-73849500D01*
X149543916Y-73874497D01*
X149543910Y-73874499D01*
X149425529Y-73923534D01*
X149318981Y-73994726D01*
X148254727Y-75058980D01*
X148254721Y-75058987D01*
X148210279Y-75125500D01*
X148210280Y-75125501D01*
X148183534Y-75165529D01*
X148134499Y-75283910D01*
X148134497Y-75283916D01*
X148109500Y-75409583D01*
X148109500Y-76197086D01*
X148089815Y-76264125D01*
X148073181Y-76284767D01*
X146943528Y-77414419D01*
X146882205Y-77447904D01*
X146812513Y-77442920D01*
X146756580Y-77401048D01*
X146732163Y-77335584D01*
X146733374Y-77307340D01*
X146740000Y-77265505D01*
X146740000Y-76925000D01*
X145890000Y-76925000D01*
X145890000Y-76425000D01*
X146473499Y-76425000D01*
X146535498Y-76441612D01*
X146572515Y-76462984D01*
X146712525Y-76500500D01*
X146712528Y-76500500D01*
X147107472Y-76500500D01*
X147107475Y-76500500D01*
X147247485Y-76462984D01*
X147373015Y-76390509D01*
X147475509Y-76288015D01*
X147547984Y-76162485D01*
X147585500Y-76022475D01*
X147585500Y-75877525D01*
X147547984Y-75737515D01*
X147475509Y-75611985D01*
X147373015Y-75509491D01*
X147373013Y-75509490D01*
X147373011Y-75509488D01*
X147247488Y-75437017D01*
X147247489Y-75437017D01*
X147236006Y-75433940D01*
X147107475Y-75399500D01*
X146712525Y-75399500D01*
X146572515Y-75437016D01*
X146572513Y-75437016D01*
X146567411Y-75438384D01*
X146497561Y-75436721D01*
X146447636Y-75406290D01*
X146339169Y-75297823D01*
X146192734Y-75191434D01*
X146031447Y-75109252D01*
X146031441Y-75109250D01*
X145859295Y-75053318D01*
X145859285Y-75053315D01*
X145840000Y-75050260D01*
X145840000Y-76008011D01*
X145830060Y-75990795D01*
X145774205Y-75934940D01*
X145705796Y-75895444D01*
X145629496Y-75875000D01*
X145550504Y-75875000D01*
X145474204Y-75895444D01*
X145405795Y-75934940D01*
X145349940Y-75990795D01*
X145340000Y-76008011D01*
X145340000Y-75050260D01*
X145320714Y-75053315D01*
X145320704Y-75053318D01*
X145148558Y-75109250D01*
X145148552Y-75109252D01*
X144987265Y-75191434D01*
X144840830Y-75297823D01*
X144712823Y-75425830D01*
X144606434Y-75572265D01*
X144524252Y-75733552D01*
X144524251Y-75733555D01*
X144468317Y-75905706D01*
X144440000Y-76084493D01*
X144440000Y-76425000D01*
X145290000Y-76425000D01*
X145290000Y-76925000D01*
X144440000Y-76925000D01*
X144440000Y-77265506D01*
X144468317Y-77444293D01*
X144524251Y-77616444D01*
X144524253Y-77616448D01*
X144525659Y-77619207D01*
X144525877Y-77620368D01*
X144526118Y-77620950D01*
X144525995Y-77621000D01*
X144538554Y-77687876D01*
X144512277Y-77752616D01*
X144455170Y-77792872D01*
X144415173Y-77799500D01*
X144173374Y-77799500D01*
X144132419Y-77792542D01*
X144052656Y-77764631D01*
X144052651Y-77764630D01*
X143873406Y-77744435D01*
X143873398Y-77744435D01*
X143694152Y-77764630D01*
X143694147Y-77764631D01*
X143523878Y-77824211D01*
X143371139Y-77920184D01*
X143243586Y-78047737D01*
X143147613Y-78200476D01*
X143088033Y-78370745D01*
X143088032Y-78370750D01*
X143067837Y-78549996D01*
X143067837Y-78550003D01*
X143088032Y-78729249D01*
X143088033Y-78729254D01*
X143147613Y-78899523D01*
X143243586Y-79052262D01*
X143371139Y-79179815D01*
X143371145Y-79179820D01*
X143421579Y-79211510D01*
X143467870Y-79263844D01*
X143476809Y-79318037D01*
X143479435Y-79318037D01*
X143479435Y-79325003D01*
X143499630Y-79504249D01*
X143499631Y-79504254D01*
X143559211Y-79674522D01*
X143612624Y-79759528D01*
X143631624Y-79826764D01*
X143611256Y-79893600D01*
X143557989Y-79938814D01*
X143507630Y-79949500D01*
X137324611Y-79949500D01*
X137198943Y-79974497D01*
X137198933Y-79974500D01*
X137149902Y-79994810D01*
X137080563Y-80023530D01*
X137080545Y-80023540D01*
X136974014Y-80094721D01*
X136974007Y-80094727D01*
X127404726Y-89664008D01*
X127340344Y-89760365D01*
X127340342Y-89760367D01*
X127333537Y-89770550D01*
X127333534Y-89770556D01*
X127284499Y-89888937D01*
X127284497Y-89888943D01*
X127259500Y-90014610D01*
X127259500Y-104514070D01*
X120500500Y-104514070D01*
X120500500Y-87258676D01*
X120520185Y-87191637D01*
X120536819Y-87170995D01*
X134117308Y-73590506D01*
X144440000Y-73590506D01*
X144468317Y-73769293D01*
X144524251Y-73941444D01*
X144524252Y-73941447D01*
X144606434Y-74102734D01*
X144712823Y-74249169D01*
X144840830Y-74377176D01*
X144987265Y-74483565D01*
X145148552Y-74565747D01*
X145148555Y-74565748D01*
X145320699Y-74621680D01*
X145320712Y-74621683D01*
X145340000Y-74624738D01*
X145340000Y-73666988D01*
X145349940Y-73684205D01*
X145405795Y-73740060D01*
X145474204Y-73779556D01*
X145550504Y-73800000D01*
X145629496Y-73800000D01*
X145705796Y-73779556D01*
X145774205Y-73740060D01*
X145830060Y-73684205D01*
X145840000Y-73666988D01*
X145840000Y-74624737D01*
X145859287Y-74621683D01*
X145859300Y-74621680D01*
X146031444Y-74565748D01*
X146031447Y-74565747D01*
X146192734Y-74483565D01*
X146339169Y-74377176D01*
X146467176Y-74249169D01*
X146573565Y-74102734D01*
X146655747Y-73941447D01*
X146655748Y-73941444D01*
X146711682Y-73769293D01*
X146740000Y-73590506D01*
X146740000Y-73100000D01*
X145890000Y-73100000D01*
X145890000Y-72600000D01*
X146740000Y-72600000D01*
X146740000Y-72109493D01*
X146711682Y-71930706D01*
X146655748Y-71758555D01*
X146655747Y-71758552D01*
X146573565Y-71597265D01*
X146467176Y-71450830D01*
X146339169Y-71322823D01*
X146192734Y-71216434D01*
X146031447Y-71134252D01*
X146031441Y-71134250D01*
X145859295Y-71078318D01*
X145859285Y-71078315D01*
X145840000Y-71075260D01*
X145840000Y-72033011D01*
X145830060Y-72015795D01*
X145774205Y-71959940D01*
X145705796Y-71920444D01*
X145629496Y-71900000D01*
X145550504Y-71900000D01*
X145474204Y-71920444D01*
X145405795Y-71959940D01*
X145349940Y-72015795D01*
X145340000Y-72033011D01*
X145340000Y-71075260D01*
X145320714Y-71078315D01*
X145320704Y-71078318D01*
X145148558Y-71134250D01*
X145148552Y-71134252D01*
X144987265Y-71216434D01*
X144840830Y-71322823D01*
X144712823Y-71450830D01*
X144606434Y-71597265D01*
X144524252Y-71758552D01*
X144524251Y-71758555D01*
X144468317Y-71930706D01*
X144440000Y-72109493D01*
X144440000Y-72600000D01*
X145290000Y-72600000D01*
X145290000Y-73100000D01*
X144440000Y-73100000D01*
X144440000Y-73590506D01*
X134117308Y-73590506D01*
X137170995Y-70536819D01*
X137232318Y-70503334D01*
X137258676Y-70500500D01*
X149934108Y-70500500D01*
X162741324Y-70500500D01*
X162808363Y-70520185D01*
G37*
%TD.AperFunction*%
%TD*%
M02*
