%TF.GenerationSoftware,KiCad,Pcbnew,8.0.1*%
%TF.CreationDate,2024-04-19T02:09:13-07:00*%
%TF.ProjectId,CMOD_A7_Lower,434d4f44-5f41-4375-9f4c-6f7765722e6b,rev?*%
%TF.SameCoordinates,Original*%
%TF.FileFunction,Legend,Bot*%
%TF.FilePolarity,Positive*%
%FSLAX46Y46*%
G04 Gerber Fmt 4.6, Leading zero omitted, Abs format (unit mm)*
G04 Created by KiCad (PCBNEW 8.0.1) date 2024-04-19 02:09:13*
%MOMM*%
%LPD*%
G01*
G04 APERTURE LIST*
%ADD10C,0.150000*%
%ADD11C,0.100000*%
%ADD12C,0.120000*%
G04 APERTURE END LIST*
D10*
X55583333Y-78204819D02*
X55583333Y-78919104D01*
X55583333Y-78919104D02*
X55630952Y-79061961D01*
X55630952Y-79061961D02*
X55726190Y-79157200D01*
X55726190Y-79157200D02*
X55869047Y-79204819D01*
X55869047Y-79204819D02*
X55964285Y-79204819D01*
X55059523Y-79204819D02*
X54869047Y-79204819D01*
X54869047Y-79204819D02*
X54773809Y-79157200D01*
X54773809Y-79157200D02*
X54726190Y-79109580D01*
X54726190Y-79109580D02*
X54630952Y-78966723D01*
X54630952Y-78966723D02*
X54583333Y-78776247D01*
X54583333Y-78776247D02*
X54583333Y-78395295D01*
X54583333Y-78395295D02*
X54630952Y-78300057D01*
X54630952Y-78300057D02*
X54678571Y-78252438D01*
X54678571Y-78252438D02*
X54773809Y-78204819D01*
X54773809Y-78204819D02*
X54964285Y-78204819D01*
X54964285Y-78204819D02*
X55059523Y-78252438D01*
X55059523Y-78252438D02*
X55107142Y-78300057D01*
X55107142Y-78300057D02*
X55154761Y-78395295D01*
X55154761Y-78395295D02*
X55154761Y-78633390D01*
X55154761Y-78633390D02*
X55107142Y-78728628D01*
X55107142Y-78728628D02*
X55059523Y-78776247D01*
X55059523Y-78776247D02*
X54964285Y-78823866D01*
X54964285Y-78823866D02*
X54773809Y-78823866D01*
X54773809Y-78823866D02*
X54678571Y-78776247D01*
X54678571Y-78776247D02*
X54630952Y-78728628D01*
X54630952Y-78728628D02*
X54583333Y-78633390D01*
X62984523Y-78204819D02*
X62984523Y-78919104D01*
X62984523Y-78919104D02*
X63032142Y-79061961D01*
X63032142Y-79061961D02*
X63127380Y-79157200D01*
X63127380Y-79157200D02*
X63270237Y-79204819D01*
X63270237Y-79204819D02*
X63365475Y-79204819D01*
X61984523Y-79204819D02*
X62555951Y-79204819D01*
X62270237Y-79204819D02*
X62270237Y-78204819D01*
X62270237Y-78204819D02*
X62365475Y-78347676D01*
X62365475Y-78347676D02*
X62460713Y-78442914D01*
X62460713Y-78442914D02*
X62555951Y-78490533D01*
X61032142Y-79204819D02*
X61603570Y-79204819D01*
X61317856Y-79204819D02*
X61317856Y-78204819D01*
X61317856Y-78204819D02*
X61413094Y-78347676D01*
X61413094Y-78347676D02*
X61508332Y-78442914D01*
X61508332Y-78442914D02*
X61603570Y-78490533D01*
X110809523Y-77954819D02*
X110809523Y-78669104D01*
X110809523Y-78669104D02*
X110857142Y-78811961D01*
X110857142Y-78811961D02*
X110952380Y-78907200D01*
X110952380Y-78907200D02*
X111095237Y-78954819D01*
X111095237Y-78954819D02*
X111190475Y-78954819D01*
X109809523Y-78954819D02*
X110380951Y-78954819D01*
X110095237Y-78954819D02*
X110095237Y-77954819D01*
X110095237Y-77954819D02*
X110190475Y-78097676D01*
X110190475Y-78097676D02*
X110285713Y-78192914D01*
X110285713Y-78192914D02*
X110380951Y-78240533D01*
X109476189Y-77954819D02*
X108857142Y-77954819D01*
X108857142Y-77954819D02*
X109190475Y-78335771D01*
X109190475Y-78335771D02*
X109047618Y-78335771D01*
X109047618Y-78335771D02*
X108952380Y-78383390D01*
X108952380Y-78383390D02*
X108904761Y-78431009D01*
X108904761Y-78431009D02*
X108857142Y-78526247D01*
X108857142Y-78526247D02*
X108857142Y-78764342D01*
X108857142Y-78764342D02*
X108904761Y-78859580D01*
X108904761Y-78859580D02*
X108952380Y-78907200D01*
X108952380Y-78907200D02*
X109047618Y-78954819D01*
X109047618Y-78954819D02*
X109333332Y-78954819D01*
X109333332Y-78954819D02*
X109428570Y-78907200D01*
X109428570Y-78907200D02*
X109476189Y-78859580D01*
X60416666Y-87204819D02*
X60749999Y-86728628D01*
X60988094Y-87204819D02*
X60988094Y-86204819D01*
X60988094Y-86204819D02*
X60607142Y-86204819D01*
X60607142Y-86204819D02*
X60511904Y-86252438D01*
X60511904Y-86252438D02*
X60464285Y-86300057D01*
X60464285Y-86300057D02*
X60416666Y-86395295D01*
X60416666Y-86395295D02*
X60416666Y-86538152D01*
X60416666Y-86538152D02*
X60464285Y-86633390D01*
X60464285Y-86633390D02*
X60511904Y-86681009D01*
X60511904Y-86681009D02*
X60607142Y-86728628D01*
X60607142Y-86728628D02*
X60988094Y-86728628D01*
X60083332Y-86204819D02*
X59464285Y-86204819D01*
X59464285Y-86204819D02*
X59797618Y-86585771D01*
X59797618Y-86585771D02*
X59654761Y-86585771D01*
X59654761Y-86585771D02*
X59559523Y-86633390D01*
X59559523Y-86633390D02*
X59511904Y-86681009D01*
X59511904Y-86681009D02*
X59464285Y-86776247D01*
X59464285Y-86776247D02*
X59464285Y-87014342D01*
X59464285Y-87014342D02*
X59511904Y-87109580D01*
X59511904Y-87109580D02*
X59559523Y-87157200D01*
X59559523Y-87157200D02*
X59654761Y-87204819D01*
X59654761Y-87204819D02*
X59940475Y-87204819D01*
X59940475Y-87204819D02*
X60035713Y-87157200D01*
X60035713Y-87157200D02*
X60083332Y-87109580D01*
X55484523Y-96554819D02*
X55484523Y-97269104D01*
X55484523Y-97269104D02*
X55532142Y-97411961D01*
X55532142Y-97411961D02*
X55627380Y-97507200D01*
X55627380Y-97507200D02*
X55770237Y-97554819D01*
X55770237Y-97554819D02*
X55865475Y-97554819D01*
X54484523Y-97554819D02*
X55055951Y-97554819D01*
X54770237Y-97554819D02*
X54770237Y-96554819D01*
X54770237Y-96554819D02*
X54865475Y-96697676D01*
X54865475Y-96697676D02*
X54960713Y-96792914D01*
X54960713Y-96792914D02*
X55055951Y-96840533D01*
X53865475Y-96554819D02*
X53770237Y-96554819D01*
X53770237Y-96554819D02*
X53674999Y-96602438D01*
X53674999Y-96602438D02*
X53627380Y-96650057D01*
X53627380Y-96650057D02*
X53579761Y-96745295D01*
X53579761Y-96745295D02*
X53532142Y-96935771D01*
X53532142Y-96935771D02*
X53532142Y-97173866D01*
X53532142Y-97173866D02*
X53579761Y-97364342D01*
X53579761Y-97364342D02*
X53627380Y-97459580D01*
X53627380Y-97459580D02*
X53674999Y-97507200D01*
X53674999Y-97507200D02*
X53770237Y-97554819D01*
X53770237Y-97554819D02*
X53865475Y-97554819D01*
X53865475Y-97554819D02*
X53960713Y-97507200D01*
X53960713Y-97507200D02*
X54008332Y-97459580D01*
X54008332Y-97459580D02*
X54055951Y-97364342D01*
X54055951Y-97364342D02*
X54103570Y-97173866D01*
X54103570Y-97173866D02*
X54103570Y-96935771D01*
X54103570Y-96935771D02*
X54055951Y-96745295D01*
X54055951Y-96745295D02*
X54008332Y-96650057D01*
X54008332Y-96650057D02*
X53960713Y-96602438D01*
X53960713Y-96602438D02*
X53865475Y-96554819D01*
D11*
X76238095Y-128482580D02*
X76238095Y-127673057D01*
X76238095Y-127673057D02*
X76285714Y-127577819D01*
X76285714Y-127577819D02*
X76333333Y-127530200D01*
X76333333Y-127530200D02*
X76428571Y-127482580D01*
X76428571Y-127482580D02*
X76619047Y-127482580D01*
X76619047Y-127482580D02*
X76714285Y-127530200D01*
X76714285Y-127530200D02*
X76761904Y-127577819D01*
X76761904Y-127577819D02*
X76809523Y-127673057D01*
X76809523Y-127673057D02*
X76809523Y-128482580D01*
X77761904Y-128482580D02*
X77285714Y-128482580D01*
X77285714Y-128482580D02*
X77238095Y-128006390D01*
X77238095Y-128006390D02*
X77285714Y-128054009D01*
X77285714Y-128054009D02*
X77380952Y-128101628D01*
X77380952Y-128101628D02*
X77619047Y-128101628D01*
X77619047Y-128101628D02*
X77714285Y-128054009D01*
X77714285Y-128054009D02*
X77761904Y-128006390D01*
X77761904Y-128006390D02*
X77809523Y-127911152D01*
X77809523Y-127911152D02*
X77809523Y-127673057D01*
X77809523Y-127673057D02*
X77761904Y-127577819D01*
X77761904Y-127577819D02*
X77714285Y-127530200D01*
X77714285Y-127530200D02*
X77619047Y-127482580D01*
X77619047Y-127482580D02*
X77380952Y-127482580D01*
X77380952Y-127482580D02*
X77285714Y-127530200D01*
X77285714Y-127530200D02*
X77238095Y-127577819D01*
D10*
X109166666Y-98204819D02*
X109499999Y-97728628D01*
X109738094Y-98204819D02*
X109738094Y-97204819D01*
X109738094Y-97204819D02*
X109357142Y-97204819D01*
X109357142Y-97204819D02*
X109261904Y-97252438D01*
X109261904Y-97252438D02*
X109214285Y-97300057D01*
X109214285Y-97300057D02*
X109166666Y-97395295D01*
X109166666Y-97395295D02*
X109166666Y-97538152D01*
X109166666Y-97538152D02*
X109214285Y-97633390D01*
X109214285Y-97633390D02*
X109261904Y-97681009D01*
X109261904Y-97681009D02*
X109357142Y-97728628D01*
X109357142Y-97728628D02*
X109738094Y-97728628D01*
X108309523Y-97204819D02*
X108499999Y-97204819D01*
X108499999Y-97204819D02*
X108595237Y-97252438D01*
X108595237Y-97252438D02*
X108642856Y-97300057D01*
X108642856Y-97300057D02*
X108738094Y-97442914D01*
X108738094Y-97442914D02*
X108785713Y-97633390D01*
X108785713Y-97633390D02*
X108785713Y-98014342D01*
X108785713Y-98014342D02*
X108738094Y-98109580D01*
X108738094Y-98109580D02*
X108690475Y-98157200D01*
X108690475Y-98157200D02*
X108595237Y-98204819D01*
X108595237Y-98204819D02*
X108404761Y-98204819D01*
X108404761Y-98204819D02*
X108309523Y-98157200D01*
X108309523Y-98157200D02*
X108261904Y-98109580D01*
X108261904Y-98109580D02*
X108214285Y-98014342D01*
X108214285Y-98014342D02*
X108214285Y-97776247D01*
X108214285Y-97776247D02*
X108261904Y-97681009D01*
X108261904Y-97681009D02*
X108309523Y-97633390D01*
X108309523Y-97633390D02*
X108404761Y-97585771D01*
X108404761Y-97585771D02*
X108595237Y-97585771D01*
X108595237Y-97585771D02*
X108690475Y-97633390D01*
X108690475Y-97633390D02*
X108738094Y-97681009D01*
X108738094Y-97681009D02*
X108785713Y-97776247D01*
X53666666Y-89704819D02*
X53999999Y-89228628D01*
X54238094Y-89704819D02*
X54238094Y-88704819D01*
X54238094Y-88704819D02*
X53857142Y-88704819D01*
X53857142Y-88704819D02*
X53761904Y-88752438D01*
X53761904Y-88752438D02*
X53714285Y-88800057D01*
X53714285Y-88800057D02*
X53666666Y-88895295D01*
X53666666Y-88895295D02*
X53666666Y-89038152D01*
X53666666Y-89038152D02*
X53714285Y-89133390D01*
X53714285Y-89133390D02*
X53761904Y-89181009D01*
X53761904Y-89181009D02*
X53857142Y-89228628D01*
X53857142Y-89228628D02*
X54238094Y-89228628D01*
X53285713Y-88800057D02*
X53238094Y-88752438D01*
X53238094Y-88752438D02*
X53142856Y-88704819D01*
X53142856Y-88704819D02*
X52904761Y-88704819D01*
X52904761Y-88704819D02*
X52809523Y-88752438D01*
X52809523Y-88752438D02*
X52761904Y-88800057D01*
X52761904Y-88800057D02*
X52714285Y-88895295D01*
X52714285Y-88895295D02*
X52714285Y-88990533D01*
X52714285Y-88990533D02*
X52761904Y-89133390D01*
X52761904Y-89133390D02*
X53333332Y-89704819D01*
X53333332Y-89704819D02*
X52714285Y-89704819D01*
X111954819Y-93190476D02*
X112669104Y-93190476D01*
X112669104Y-93190476D02*
X112811961Y-93142857D01*
X112811961Y-93142857D02*
X112907200Y-93047619D01*
X112907200Y-93047619D02*
X112954819Y-92904762D01*
X112954819Y-92904762D02*
X112954819Y-92809524D01*
X112954819Y-94190476D02*
X112954819Y-93619048D01*
X112954819Y-93904762D02*
X111954819Y-93904762D01*
X111954819Y-93904762D02*
X112097676Y-93809524D01*
X112097676Y-93809524D02*
X112192914Y-93714286D01*
X112192914Y-93714286D02*
X112240533Y-93619048D01*
X112288152Y-95047619D02*
X112954819Y-95047619D01*
X111907200Y-94809524D02*
X112621485Y-94571429D01*
X112621485Y-94571429D02*
X112621485Y-95190476D01*
X62984523Y-96554819D02*
X62984523Y-97269104D01*
X62984523Y-97269104D02*
X63032142Y-97411961D01*
X63032142Y-97411961D02*
X63127380Y-97507200D01*
X63127380Y-97507200D02*
X63270237Y-97554819D01*
X63270237Y-97554819D02*
X63365475Y-97554819D01*
X61984523Y-97554819D02*
X62555951Y-97554819D01*
X62270237Y-97554819D02*
X62270237Y-96554819D01*
X62270237Y-96554819D02*
X62365475Y-96697676D01*
X62365475Y-96697676D02*
X62460713Y-96792914D01*
X62460713Y-96792914D02*
X62555951Y-96840533D01*
X61603570Y-96650057D02*
X61555951Y-96602438D01*
X61555951Y-96602438D02*
X61460713Y-96554819D01*
X61460713Y-96554819D02*
X61222618Y-96554819D01*
X61222618Y-96554819D02*
X61127380Y-96602438D01*
X61127380Y-96602438D02*
X61079761Y-96650057D01*
X61079761Y-96650057D02*
X61032142Y-96745295D01*
X61032142Y-96745295D02*
X61032142Y-96840533D01*
X61032142Y-96840533D02*
X61079761Y-96983390D01*
X61079761Y-96983390D02*
X61651189Y-97554819D01*
X61651189Y-97554819D02*
X61032142Y-97554819D01*
X118916666Y-98204819D02*
X119249999Y-97728628D01*
X119488094Y-98204819D02*
X119488094Y-97204819D01*
X119488094Y-97204819D02*
X119107142Y-97204819D01*
X119107142Y-97204819D02*
X119011904Y-97252438D01*
X119011904Y-97252438D02*
X118964285Y-97300057D01*
X118964285Y-97300057D02*
X118916666Y-97395295D01*
X118916666Y-97395295D02*
X118916666Y-97538152D01*
X118916666Y-97538152D02*
X118964285Y-97633390D01*
X118964285Y-97633390D02*
X119011904Y-97681009D01*
X119011904Y-97681009D02*
X119107142Y-97728628D01*
X119107142Y-97728628D02*
X119488094Y-97728628D01*
X118345237Y-97633390D02*
X118440475Y-97585771D01*
X118440475Y-97585771D02*
X118488094Y-97538152D01*
X118488094Y-97538152D02*
X118535713Y-97442914D01*
X118535713Y-97442914D02*
X118535713Y-97395295D01*
X118535713Y-97395295D02*
X118488094Y-97300057D01*
X118488094Y-97300057D02*
X118440475Y-97252438D01*
X118440475Y-97252438D02*
X118345237Y-97204819D01*
X118345237Y-97204819D02*
X118154761Y-97204819D01*
X118154761Y-97204819D02*
X118059523Y-97252438D01*
X118059523Y-97252438D02*
X118011904Y-97300057D01*
X118011904Y-97300057D02*
X117964285Y-97395295D01*
X117964285Y-97395295D02*
X117964285Y-97442914D01*
X117964285Y-97442914D02*
X118011904Y-97538152D01*
X118011904Y-97538152D02*
X118059523Y-97585771D01*
X118059523Y-97585771D02*
X118154761Y-97633390D01*
X118154761Y-97633390D02*
X118345237Y-97633390D01*
X118345237Y-97633390D02*
X118440475Y-97681009D01*
X118440475Y-97681009D02*
X118488094Y-97728628D01*
X118488094Y-97728628D02*
X118535713Y-97823866D01*
X118535713Y-97823866D02*
X118535713Y-98014342D01*
X118535713Y-98014342D02*
X118488094Y-98109580D01*
X118488094Y-98109580D02*
X118440475Y-98157200D01*
X118440475Y-98157200D02*
X118345237Y-98204819D01*
X118345237Y-98204819D02*
X118154761Y-98204819D01*
X118154761Y-98204819D02*
X118059523Y-98157200D01*
X118059523Y-98157200D02*
X118011904Y-98109580D01*
X118011904Y-98109580D02*
X117964285Y-98014342D01*
X117964285Y-98014342D02*
X117964285Y-97823866D01*
X117964285Y-97823866D02*
X118011904Y-97728628D01*
X118011904Y-97728628D02*
X118059523Y-97681009D01*
X118059523Y-97681009D02*
X118154761Y-97633390D01*
X120204819Y-94440476D02*
X120919104Y-94440476D01*
X120919104Y-94440476D02*
X121061961Y-94392857D01*
X121061961Y-94392857D02*
X121157200Y-94297619D01*
X121157200Y-94297619D02*
X121204819Y-94154762D01*
X121204819Y-94154762D02*
X121204819Y-94059524D01*
X121204819Y-95440476D02*
X121204819Y-94869048D01*
X121204819Y-95154762D02*
X120204819Y-95154762D01*
X120204819Y-95154762D02*
X120347676Y-95059524D01*
X120347676Y-95059524D02*
X120442914Y-94964286D01*
X120442914Y-94964286D02*
X120490533Y-94869048D01*
X120204819Y-96297619D02*
X120204819Y-96107143D01*
X120204819Y-96107143D02*
X120252438Y-96011905D01*
X120252438Y-96011905D02*
X120300057Y-95964286D01*
X120300057Y-95964286D02*
X120442914Y-95869048D01*
X120442914Y-95869048D02*
X120633390Y-95821429D01*
X120633390Y-95821429D02*
X121014342Y-95821429D01*
X121014342Y-95821429D02*
X121109580Y-95869048D01*
X121109580Y-95869048D02*
X121157200Y-95916667D01*
X121157200Y-95916667D02*
X121204819Y-96011905D01*
X121204819Y-96011905D02*
X121204819Y-96202381D01*
X121204819Y-96202381D02*
X121157200Y-96297619D01*
X121157200Y-96297619D02*
X121109580Y-96345238D01*
X121109580Y-96345238D02*
X121014342Y-96392857D01*
X121014342Y-96392857D02*
X120776247Y-96392857D01*
X120776247Y-96392857D02*
X120681009Y-96345238D01*
X120681009Y-96345238D02*
X120633390Y-96297619D01*
X120633390Y-96297619D02*
X120585771Y-96202381D01*
X120585771Y-96202381D02*
X120585771Y-96011905D01*
X120585771Y-96011905D02*
X120633390Y-95916667D01*
X120633390Y-95916667D02*
X120681009Y-95869048D01*
X120681009Y-95869048D02*
X120776247Y-95821429D01*
X53666666Y-87204819D02*
X53999999Y-86728628D01*
X54238094Y-87204819D02*
X54238094Y-86204819D01*
X54238094Y-86204819D02*
X53857142Y-86204819D01*
X53857142Y-86204819D02*
X53761904Y-86252438D01*
X53761904Y-86252438D02*
X53714285Y-86300057D01*
X53714285Y-86300057D02*
X53666666Y-86395295D01*
X53666666Y-86395295D02*
X53666666Y-86538152D01*
X53666666Y-86538152D02*
X53714285Y-86633390D01*
X53714285Y-86633390D02*
X53761904Y-86681009D01*
X53761904Y-86681009D02*
X53857142Y-86728628D01*
X53857142Y-86728628D02*
X54238094Y-86728628D01*
X52714285Y-87204819D02*
X53285713Y-87204819D01*
X52999999Y-87204819D02*
X52999999Y-86204819D01*
X52999999Y-86204819D02*
X53095237Y-86347676D01*
X53095237Y-86347676D02*
X53190475Y-86442914D01*
X53190475Y-86442914D02*
X53285713Y-86490533D01*
X117166666Y-87204819D02*
X117499999Y-86728628D01*
X117738094Y-87204819D02*
X117738094Y-86204819D01*
X117738094Y-86204819D02*
X117357142Y-86204819D01*
X117357142Y-86204819D02*
X117261904Y-86252438D01*
X117261904Y-86252438D02*
X117214285Y-86300057D01*
X117214285Y-86300057D02*
X117166666Y-86395295D01*
X117166666Y-86395295D02*
X117166666Y-86538152D01*
X117166666Y-86538152D02*
X117214285Y-86633390D01*
X117214285Y-86633390D02*
X117261904Y-86681009D01*
X117261904Y-86681009D02*
X117357142Y-86728628D01*
X117357142Y-86728628D02*
X117738094Y-86728628D01*
X116833332Y-86204819D02*
X116166666Y-86204819D01*
X116166666Y-86204819D02*
X116595237Y-87204819D01*
X109166666Y-87204819D02*
X109499999Y-86728628D01*
X109738094Y-87204819D02*
X109738094Y-86204819D01*
X109738094Y-86204819D02*
X109357142Y-86204819D01*
X109357142Y-86204819D02*
X109261904Y-86252438D01*
X109261904Y-86252438D02*
X109214285Y-86300057D01*
X109214285Y-86300057D02*
X109166666Y-86395295D01*
X109166666Y-86395295D02*
X109166666Y-86538152D01*
X109166666Y-86538152D02*
X109214285Y-86633390D01*
X109214285Y-86633390D02*
X109261904Y-86681009D01*
X109261904Y-86681009D02*
X109357142Y-86728628D01*
X109357142Y-86728628D02*
X109738094Y-86728628D01*
X108261904Y-86204819D02*
X108738094Y-86204819D01*
X108738094Y-86204819D02*
X108785713Y-86681009D01*
X108785713Y-86681009D02*
X108738094Y-86633390D01*
X108738094Y-86633390D02*
X108642856Y-86585771D01*
X108642856Y-86585771D02*
X108404761Y-86585771D01*
X108404761Y-86585771D02*
X108309523Y-86633390D01*
X108309523Y-86633390D02*
X108261904Y-86681009D01*
X108261904Y-86681009D02*
X108214285Y-86776247D01*
X108214285Y-86776247D02*
X108214285Y-87014342D01*
X108214285Y-87014342D02*
X108261904Y-87109580D01*
X108261904Y-87109580D02*
X108309523Y-87157200D01*
X108309523Y-87157200D02*
X108404761Y-87204819D01*
X108404761Y-87204819D02*
X108642856Y-87204819D01*
X108642856Y-87204819D02*
X108738094Y-87157200D01*
X108738094Y-87157200D02*
X108785713Y-87109580D01*
X60416666Y-89704819D02*
X60749999Y-89228628D01*
X60988094Y-89704819D02*
X60988094Y-88704819D01*
X60988094Y-88704819D02*
X60607142Y-88704819D01*
X60607142Y-88704819D02*
X60511904Y-88752438D01*
X60511904Y-88752438D02*
X60464285Y-88800057D01*
X60464285Y-88800057D02*
X60416666Y-88895295D01*
X60416666Y-88895295D02*
X60416666Y-89038152D01*
X60416666Y-89038152D02*
X60464285Y-89133390D01*
X60464285Y-89133390D02*
X60511904Y-89181009D01*
X60511904Y-89181009D02*
X60607142Y-89228628D01*
X60607142Y-89228628D02*
X60988094Y-89228628D01*
X59559523Y-89038152D02*
X59559523Y-89704819D01*
X59797618Y-88657200D02*
X60035713Y-89371485D01*
X60035713Y-89371485D02*
X59416666Y-89371485D01*
X118309523Y-77954819D02*
X118309523Y-78669104D01*
X118309523Y-78669104D02*
X118357142Y-78811961D01*
X118357142Y-78811961D02*
X118452380Y-78907200D01*
X118452380Y-78907200D02*
X118595237Y-78954819D01*
X118595237Y-78954819D02*
X118690475Y-78954819D01*
X117309523Y-78954819D02*
X117880951Y-78954819D01*
X117595237Y-78954819D02*
X117595237Y-77954819D01*
X117595237Y-77954819D02*
X117690475Y-78097676D01*
X117690475Y-78097676D02*
X117785713Y-78192914D01*
X117785713Y-78192914D02*
X117880951Y-78240533D01*
X116404761Y-77954819D02*
X116880951Y-77954819D01*
X116880951Y-77954819D02*
X116928570Y-78431009D01*
X116928570Y-78431009D02*
X116880951Y-78383390D01*
X116880951Y-78383390D02*
X116785713Y-78335771D01*
X116785713Y-78335771D02*
X116547618Y-78335771D01*
X116547618Y-78335771D02*
X116452380Y-78383390D01*
X116452380Y-78383390D02*
X116404761Y-78431009D01*
X116404761Y-78431009D02*
X116357142Y-78526247D01*
X116357142Y-78526247D02*
X116357142Y-78764342D01*
X116357142Y-78764342D02*
X116404761Y-78859580D01*
X116404761Y-78859580D02*
X116452380Y-78907200D01*
X116452380Y-78907200D02*
X116547618Y-78954819D01*
X116547618Y-78954819D02*
X116785713Y-78954819D01*
X116785713Y-78954819D02*
X116880951Y-78907200D01*
X116880951Y-78907200D02*
X116928570Y-78859580D01*
D12*
%TO.C,J9*%
X51805000Y-84550000D02*
X53325000Y-84550000D01*
X53325000Y-79920000D02*
X53325000Y-83030000D01*
X53325000Y-84550000D02*
X53325000Y-85120000D01*
X55985000Y-79920000D02*
X53325000Y-79920000D01*
X55985000Y-79920000D02*
X55985000Y-80490000D01*
X55985000Y-82010000D02*
X55985000Y-85120000D01*
X55985000Y-85120000D02*
X53325000Y-85120000D01*
%TO.C,J11*%
X59325000Y-84530000D02*
X60845000Y-84530000D01*
X60845000Y-79900000D02*
X60845000Y-83010000D01*
X60845000Y-84530000D02*
X60845000Y-85100000D01*
X63505000Y-79900000D02*
X60845000Y-79900000D01*
X63505000Y-79900000D02*
X63505000Y-80470000D01*
X63505000Y-81990000D02*
X63505000Y-85100000D01*
X63505000Y-85100000D02*
X60845000Y-85100000D01*
%TO.C,J13*%
X107200000Y-84530000D02*
X108720000Y-84530000D01*
X108720000Y-79900000D02*
X108720000Y-83010000D01*
X108720000Y-84530000D02*
X108720000Y-85100000D01*
X111380000Y-79900000D02*
X108720000Y-79900000D01*
X111380000Y-79900000D02*
X111380000Y-80470000D01*
X111380000Y-81990000D02*
X111380000Y-85100000D01*
X111380000Y-85100000D02*
X108720000Y-85100000D01*
%TO.C,R3*%
X62745276Y-86227500D02*
X63254724Y-86227500D01*
X62745276Y-87272500D02*
X63254724Y-87272500D01*
%TO.C,J10*%
X51825000Y-95530000D02*
X53345000Y-95530000D01*
X53345000Y-90900000D02*
X53345000Y-94010000D01*
X53345000Y-95530000D02*
X53345000Y-96100000D01*
X56005000Y-90900000D02*
X53345000Y-90900000D01*
X56005000Y-90900000D02*
X56005000Y-91470000D01*
X56005000Y-92990000D02*
X56005000Y-96100000D01*
X56005000Y-96100000D02*
X53345000Y-96100000D01*
%TO.C,U5*%
D11*
X89700000Y-50470000D02*
X82080000Y-50470000D01*
X82080000Y-56820000D01*
X89700000Y-56820000D01*
X89700000Y-50470000D01*
X93510000Y-115240000D02*
X78270000Y-115240000D01*
X78270000Y-121590000D01*
X93510000Y-121590000D01*
X93510000Y-115240000D01*
X94780000Y-53010000D02*
X77000000Y-53010000D01*
X77000000Y-122860000D01*
X94780000Y-122860000D01*
X94780000Y-53010000D01*
D12*
%TO.C,R6*%
X111495276Y-97227500D02*
X112004724Y-97227500D01*
X111495276Y-98272500D02*
X112004724Y-98272500D01*
%TO.C,R2*%
X55995276Y-88727500D02*
X56504724Y-88727500D01*
X55995276Y-89772500D02*
X56504724Y-89772500D01*
%TO.C,J14*%
X107150000Y-95530000D02*
X108670000Y-95530000D01*
X108670000Y-90900000D02*
X108670000Y-94010000D01*
X108670000Y-95530000D02*
X108670000Y-96100000D01*
X111330000Y-90900000D02*
X108670000Y-90900000D01*
X111330000Y-90900000D02*
X111330000Y-91470000D01*
X111330000Y-92990000D02*
X111330000Y-96100000D01*
X111330000Y-96100000D02*
X108670000Y-96100000D01*
%TO.C,J12*%
X59325000Y-95530000D02*
X60845000Y-95530000D01*
X60845000Y-90900000D02*
X60845000Y-94010000D01*
X60845000Y-95530000D02*
X60845000Y-96100000D01*
X63505000Y-90900000D02*
X60845000Y-90900000D01*
X63505000Y-90900000D02*
X63505000Y-91470000D01*
X63505000Y-92990000D02*
X63505000Y-96100000D01*
X63505000Y-96100000D02*
X60845000Y-96100000D01*
%TO.C,R8*%
X115657776Y-97227500D02*
X116167224Y-97227500D01*
X115657776Y-98272500D02*
X116167224Y-98272500D01*
%TO.C,J16*%
X114745000Y-95530000D02*
X116265000Y-95530000D01*
X116265000Y-90900000D02*
X116265000Y-94010000D01*
X116265000Y-95530000D02*
X116265000Y-96100000D01*
X118925000Y-90900000D02*
X116265000Y-90900000D01*
X118925000Y-90900000D02*
X118925000Y-91470000D01*
X118925000Y-92990000D02*
X118925000Y-96100000D01*
X118925000Y-96100000D02*
X116265000Y-96100000D01*
%TO.C,R1*%
X55995276Y-86227500D02*
X56504724Y-86227500D01*
X55995276Y-87272500D02*
X56504724Y-87272500D01*
%TO.C,R7*%
X119245276Y-86227500D02*
X119754724Y-86227500D01*
X119245276Y-87272500D02*
X119754724Y-87272500D01*
%TO.C,R5*%
X111495276Y-86227500D02*
X112004724Y-86227500D01*
X111495276Y-87272500D02*
X112004724Y-87272500D01*
%TO.C,R4*%
X62745276Y-88727500D02*
X63254724Y-88727500D01*
X62745276Y-89772500D02*
X63254724Y-89772500D01*
%TO.C,J15*%
X114745000Y-84530000D02*
X116265000Y-84530000D01*
X116265000Y-79900000D02*
X116265000Y-83010000D01*
X116265000Y-84530000D02*
X116265000Y-85100000D01*
X118925000Y-79900000D02*
X116265000Y-79900000D01*
X118925000Y-79900000D02*
X118925000Y-80470000D01*
X118925000Y-81990000D02*
X118925000Y-85100000D01*
X118925000Y-85100000D02*
X116265000Y-85100000D01*
%TD*%
M02*
