%TF.GenerationSoftware,KiCad,Pcbnew,8.0.1*%
%TF.CreationDate,2024-04-19T02:09:13-07:00*%
%TF.ProjectId,CMOD_A7_Lower,434d4f44-5f41-4375-9f4c-6f7765722e6b,rev?*%
%TF.SameCoordinates,Original*%
%TF.FileFunction,Profile,NP*%
%FSLAX46Y46*%
G04 Gerber Fmt 4.6, Leading zero omitted, Abs format (unit mm)*
G04 Created by KiCad (PCBNEW 8.0.1) date 2024-04-19 02:09:13*
%MOMM*%
%LPD*%
G01*
G04 APERTURE LIST*
%TA.AperFunction,Profile*%
%ADD10C,0.050000*%
%TD*%
G04 APERTURE END LIST*
D10*
X52000000Y-99000000D02*
X62000000Y-99000000D01*
X50000000Y-79000000D02*
G75*
G02*
X52000000Y-77000000I2000000J0D01*
G01*
X97000000Y-54000000D02*
X97000000Y-64000000D01*
X52000000Y-77000000D02*
X62000000Y-77000000D01*
X62000000Y-99000000D02*
X75000000Y-112000000D01*
X97000000Y-122000000D02*
G75*
G02*
X95000000Y-124000000I-2000000J0D01*
G01*
X75000000Y-54000000D02*
X75000000Y-64000000D01*
X122000000Y-79000000D02*
X122000000Y-97000000D01*
X75000000Y-122000000D02*
X75000000Y-112000000D01*
X77000000Y-124000000D02*
G75*
G02*
X75000000Y-122000000I0J2000000D01*
G01*
X75000000Y-54000000D02*
G75*
G02*
X77000000Y-52000000I2000000J0D01*
G01*
X75000000Y-64000000D02*
X62000000Y-77000000D01*
X120000000Y-77000000D02*
X110000000Y-77000000D01*
X52000000Y-99000000D02*
G75*
G02*
X50000000Y-97000000I0J2000000D01*
G01*
X77000000Y-124000000D02*
X95000000Y-124000000D01*
X122000000Y-97000000D02*
G75*
G02*
X120000000Y-99000000I-2000000J0D01*
G01*
X120000000Y-99000000D02*
X110000000Y-99000000D01*
X50000000Y-79000000D02*
X50000000Y-97000000D01*
X77000000Y-52000000D02*
X95000000Y-52000000D01*
X120000000Y-77000000D02*
G75*
G02*
X122000000Y-79000000I0J-2000000D01*
G01*
X97000000Y-122000000D02*
X97000000Y-112000000D01*
X95000000Y-52000000D02*
G75*
G02*
X97000000Y-54000000I0J-2000000D01*
G01*
X97000000Y-112000000D02*
X110000000Y-99000000D01*
X110000000Y-77000000D02*
X97000000Y-64000000D01*
M02*
