%TF.GenerationSoftware,KiCad,Pcbnew,8.0.1*%
%TF.CreationDate,2024-04-19T02:09:13-07:00*%
%TF.ProjectId,CMOD_A7_Lower,434d4f44-5f41-4375-9f4c-6f7765722e6b,rev?*%
%TF.SameCoordinates,Original*%
%TF.FileFunction,Paste,Top*%
%TF.FilePolarity,Positive*%
%FSLAX46Y46*%
G04 Gerber Fmt 4.6, Leading zero omitted, Abs format (unit mm)*
G04 Created by KiCad (PCBNEW 8.0.1) date 2024-04-19 02:09:13*
%MOMM*%
%LPD*%
G01*
G04 APERTURE LIST*
G04 Aperture macros list*
%AMRoundRect*
0 Rectangle with rounded corners*
0 $1 Rounding radius*
0 $2 $3 $4 $5 $6 $7 $8 $9 X,Y pos of 4 corners*
0 Add a 4 corners polygon primitive as box body*
4,1,4,$2,$3,$4,$5,$6,$7,$8,$9,$2,$3,0*
0 Add four circle primitives for the rounded corners*
1,1,$1+$1,$2,$3*
1,1,$1+$1,$4,$5*
1,1,$1+$1,$6,$7*
1,1,$1+$1,$8,$9*
0 Add four rect primitives between the rounded corners*
20,1,$1+$1,$2,$3,$4,$5,0*
20,1,$1+$1,$4,$5,$6,$7,0*
20,1,$1+$1,$6,$7,$8,$9,0*
20,1,$1+$1,$8,$9,$2,$3,0*%
G04 Aperture macros list end*
%ADD10RoundRect,0.225000X-0.250000X0.225000X-0.250000X-0.225000X0.250000X-0.225000X0.250000X0.225000X0*%
%ADD11RoundRect,0.250000X-0.475000X0.250000X-0.475000X-0.250000X0.475000X-0.250000X0.475000X0.250000X0*%
%ADD12R,0.700000X0.250000*%
%ADD13RoundRect,0.150000X0.625000X-0.150000X0.625000X0.150000X-0.625000X0.150000X-0.625000X-0.150000X0*%
%ADD14RoundRect,0.250000X0.650000X-0.350000X0.650000X0.350000X-0.650000X0.350000X-0.650000X-0.350000X0*%
%ADD15RoundRect,0.250000X1.000000X0.650000X-1.000000X0.650000X-1.000000X-0.650000X1.000000X-0.650000X0*%
%ADD16RoundRect,0.150000X0.150000X-0.587500X0.150000X0.587500X-0.150000X0.587500X-0.150000X-0.587500X0*%
%ADD17RoundRect,0.150000X-0.625000X0.150000X-0.625000X-0.150000X0.625000X-0.150000X0.625000X0.150000X0*%
%ADD18RoundRect,0.250000X-0.650000X0.350000X-0.650000X-0.350000X0.650000X-0.350000X0.650000X0.350000X0*%
%ADD19RoundRect,0.237500X0.250000X0.237500X-0.250000X0.237500X-0.250000X-0.237500X0.250000X-0.237500X0*%
%ADD20RoundRect,0.250000X-0.250000X-0.475000X0.250000X-0.475000X0.250000X0.475000X-0.250000X0.475000X0*%
%ADD21RoundRect,0.250000X0.475000X-0.250000X0.475000X0.250000X-0.475000X0.250000X-0.475000X-0.250000X0*%
%ADD22RoundRect,0.250000X0.250000X0.475000X-0.250000X0.475000X-0.250000X-0.475000X0.250000X-0.475000X0*%
%ADD23R,1.050000X0.450000*%
%ADD24R,0.882000X0.537000*%
%ADD25RoundRect,0.225000X0.250000X-0.225000X0.250000X0.225000X-0.250000X0.225000X-0.250000X-0.225000X0*%
%ADD26RoundRect,0.150000X-0.150000X0.587500X-0.150000X-0.587500X0.150000X-0.587500X0.150000X0.587500X0*%
%ADD27RoundRect,0.250000X-1.000000X-0.650000X1.000000X-0.650000X1.000000X0.650000X-1.000000X0.650000X0*%
G04 APERTURE END LIST*
D10*
%TO.C,R15*%
X101750000Y-91500000D03*
X101750000Y-93050000D03*
%TD*%
D11*
%TO.C,C7*%
X72000000Y-93050000D03*
X72000000Y-94950000D03*
%TD*%
D10*
%TO.C,R12*%
X70000000Y-82700000D03*
X70000000Y-84250000D03*
%TD*%
D12*
%TO.C,U2*%
X105600000Y-86250000D03*
X105600000Y-85750000D03*
X105600000Y-85250000D03*
X105600000Y-84750000D03*
X105600000Y-84250000D03*
X105600000Y-83750000D03*
X104000000Y-83750000D03*
X104000000Y-84250000D03*
X104000000Y-84750000D03*
X104000000Y-85250000D03*
X104000000Y-85750000D03*
X104000000Y-86250000D03*
%TD*%
D13*
%TO.C,J1*%
X55525000Y-85000000D03*
X55525000Y-84000000D03*
X55525000Y-83000000D03*
X55525000Y-82000000D03*
X55525000Y-81000000D03*
X55525000Y-80000000D03*
D14*
X53000000Y-86300000D03*
X53000000Y-78700000D03*
%TD*%
D13*
%TO.C,J3*%
X62525000Y-85000000D03*
X62525000Y-84000000D03*
X62525000Y-83000000D03*
X62525000Y-82000000D03*
X62525000Y-81000000D03*
X62525000Y-80000000D03*
D14*
X60000000Y-86300000D03*
X60000000Y-78700000D03*
%TD*%
D15*
%TO.C,D2*%
X100500000Y-86000000D03*
X96500000Y-86000000D03*
%TD*%
D10*
%TO.C,R14*%
X70000000Y-92975000D03*
X70000000Y-94525000D03*
%TD*%
D16*
%TO.C,Q2*%
X95750000Y-83000000D03*
X97650000Y-83000000D03*
X96700000Y-81125000D03*
%TD*%
D17*
%TO.C,J4*%
X116725000Y-80000000D03*
X116725000Y-81000000D03*
X116725000Y-82000000D03*
X116725000Y-83000000D03*
X116725000Y-84000000D03*
X116725000Y-85000000D03*
D18*
X119250000Y-78700000D03*
X119250000Y-86300000D03*
%TD*%
D12*
%TO.C,U3*%
X65750000Y-91250000D03*
X65750000Y-91750000D03*
X65750000Y-92250000D03*
X65750000Y-92750000D03*
X65750000Y-93250000D03*
X65750000Y-93750000D03*
X67350000Y-93750000D03*
X67350000Y-93250000D03*
X67350000Y-92750000D03*
X67350000Y-92250000D03*
X67350000Y-91750000D03*
X67350000Y-91250000D03*
%TD*%
D19*
%TO.C,R9*%
X93000000Y-116500000D03*
X91175000Y-116500000D03*
%TD*%
D20*
%TO.C,C3*%
X101800000Y-79750000D03*
X103700000Y-79750000D03*
%TD*%
D16*
%TO.C,Q4*%
X95800000Y-93625000D03*
X97700000Y-93625000D03*
X96750000Y-91750000D03*
%TD*%
D12*
%TO.C,U4*%
X105600000Y-91500000D03*
X105600000Y-91000000D03*
X105600000Y-90500000D03*
X105600000Y-90000000D03*
X105600000Y-89500000D03*
X105600000Y-89000000D03*
X104000000Y-89000000D03*
X104000000Y-89500000D03*
X104000000Y-90000000D03*
X104000000Y-90500000D03*
X104000000Y-91000000D03*
X104000000Y-91500000D03*
%TD*%
D21*
%TO.C,C4*%
X99750000Y-82950000D03*
X99750000Y-81050000D03*
%TD*%
D12*
%TO.C,U1*%
X65650000Y-81500000D03*
X65650000Y-82000000D03*
X65650000Y-82500000D03*
X65650000Y-83000000D03*
X65650000Y-83500000D03*
X65650000Y-84000000D03*
X67250000Y-84000000D03*
X67250000Y-83500000D03*
X67250000Y-83000000D03*
X67250000Y-82500000D03*
X67250000Y-82000000D03*
X67250000Y-81500000D03*
%TD*%
D13*
%TO.C,J7*%
X62575000Y-96000000D03*
X62575000Y-95000000D03*
X62575000Y-94000000D03*
X62575000Y-93000000D03*
X62575000Y-92000000D03*
X62575000Y-91000000D03*
D14*
X60050000Y-97300000D03*
X60050000Y-89700000D03*
%TD*%
D15*
%TO.C,D4*%
X100500000Y-96500000D03*
X96500000Y-96500000D03*
%TD*%
D22*
%TO.C,C5*%
X69950000Y-96750000D03*
X68050000Y-96750000D03*
%TD*%
D19*
%TO.C,R10*%
X93000000Y-118250000D03*
X91175000Y-118250000D03*
%TD*%
D20*
%TO.C,C6*%
X103300000Y-95000000D03*
X105200000Y-95000000D03*
%TD*%
D23*
%TO.C,U6*%
X82500000Y-116200000D03*
X82500000Y-116850000D03*
X82500000Y-117500000D03*
X82500000Y-118150000D03*
X82500000Y-118800000D03*
X82500000Y-119450000D03*
X82500000Y-120100000D03*
X82500000Y-120750000D03*
X88050000Y-120750000D03*
X88050000Y-120100000D03*
X88050000Y-119450000D03*
X88050000Y-118800000D03*
X88050000Y-118150000D03*
X88050000Y-117500000D03*
X88050000Y-116850000D03*
X88050000Y-116200000D03*
D24*
X84540000Y-117132500D03*
X84540000Y-118027500D03*
X84540000Y-118922500D03*
X84540000Y-119817500D03*
X86010000Y-117132500D03*
X86010000Y-118027500D03*
X86010000Y-118922500D03*
X86010000Y-119817500D03*
%TD*%
D17*
%TO.C,J8*%
X116725000Y-90950000D03*
X116725000Y-91950000D03*
X116725000Y-92950000D03*
X116725000Y-93950000D03*
X116725000Y-94950000D03*
X116725000Y-95950000D03*
D18*
X119250000Y-89650000D03*
X119250000Y-97250000D03*
%TD*%
D25*
%TO.C,R13*%
X101750000Y-83300000D03*
X101750000Y-81750000D03*
%TD*%
D26*
%TO.C,Q1*%
X75950000Y-82875000D03*
X74050000Y-82875000D03*
X75000000Y-84750000D03*
%TD*%
D27*
%TO.C,D3*%
X71250000Y-90250000D03*
X75250000Y-90250000D03*
%TD*%
D17*
%TO.C,J2*%
X109475000Y-80000000D03*
X109475000Y-81000000D03*
X109475000Y-82000000D03*
X109475000Y-83000000D03*
X109475000Y-84000000D03*
X109475000Y-85000000D03*
D18*
X112000000Y-78700000D03*
X112000000Y-86300000D03*
%TD*%
D17*
%TO.C,J6*%
X109475000Y-91000000D03*
X109475000Y-92000000D03*
X109475000Y-93000000D03*
X109475000Y-94000000D03*
X109475000Y-95000000D03*
X109475000Y-96000000D03*
D18*
X112000000Y-89700000D03*
X112000000Y-97300000D03*
%TD*%
D13*
%TO.C,J5*%
X55575000Y-96000000D03*
X55575000Y-95000000D03*
X55575000Y-94000000D03*
X55575000Y-93000000D03*
X55575000Y-92000000D03*
X55575000Y-91000000D03*
D14*
X53050000Y-97300000D03*
X53050000Y-89700000D03*
%TD*%
D27*
%TO.C,D1*%
X71250000Y-80000000D03*
X75250000Y-80000000D03*
%TD*%
D20*
%TO.C,C1*%
X70350000Y-86750000D03*
X72250000Y-86750000D03*
%TD*%
D11*
%TO.C,C2*%
X72000000Y-82800000D03*
X72000000Y-84700000D03*
%TD*%
D26*
%TO.C,Q3*%
X76000000Y-93250000D03*
X74100000Y-93250000D03*
X75050000Y-95125000D03*
%TD*%
D19*
%TO.C,R11*%
X93000000Y-120000000D03*
X91175000Y-120000000D03*
%TD*%
D11*
%TO.C,C8*%
X99750000Y-91500000D03*
X99750000Y-93400000D03*
%TD*%
M02*
