M48
; DRILL file {KiCad 8.0.1} date 2024-04-19T02:09:11-0700
; FORMAT={-:-/ absolute / inch / decimal}
; #@! TF.CreationDate,2024-04-19T02:09:11-07:00
; #@! TF.GenerationSoftware,Kicad,Pcbnew,8.0.1
; #@! TF.FileFunction,Plated,1,4,PTH
FMAT,2
INCH
; #@! TA.AperFunction,Plated,PTH,ViaDrill
T1C0.0118
; #@! TA.AperFunction,Plated,PTH,ComponentDrill
T2C0.0300
; #@! TA.AperFunction,Plated,PTH,ComponentDrill
T3C0.0315
; #@! TA.AperFunction,Plated,PTH,ComponentDrill
T4C0.0394
%
G90
G05
T1
X2.0177Y-3.1693
X2.0374Y-3.6122
X2.0571Y-3.2283
X2.0866Y-3.6909
X2.0965Y-3.1693
X2.116Y-3.1985
X2.126Y-3.2283
X2.126Y-3.6024
X2.126Y-3.6516
X2.1358Y-3.4646
X2.2539Y-3.2382
X2.2539Y-3.2776
X2.2539Y-3.3169
X2.2539Y-3.7402
X2.2835Y-3.7795
X2.2933Y-3.435
X2.2933Y-3.4665
X2.3031Y-3.3169
X2.3228Y-3.189
X2.3524Y-3.6713
X2.3622Y-3.1791
X2.3917Y-3.6909
X2.4016Y-3.1496
X2.4016Y-3.4744
X2.4016Y-3.622
X2.5098Y-3.248
X2.5197Y-3.5827
X2.5295Y-3.1496
X2.5394Y-3.0118
X2.5477Y-3.0536
X2.5551Y-3.5531
X2.5689Y-3.435
X2.5787Y-3.3465
X2.5787Y-3.378
X2.5886Y-3.9075
X2.5944Y-3.5177
X2.5984Y-3.755
X2.622Y-3.4467
X2.6253Y-3.7323
X2.6417Y-3.3465
X2.6476Y-3.189
X2.6476Y-3.3957
X2.6506Y-3.7136
X2.6577Y-3.5731
X2.7146Y-3.7756
X2.9134Y-3.7913
X2.9528Y-3.3858
X3.0315Y-4.6654
X3.0571Y-4.626
X3.0807Y-4.6752
X3.1002Y-4.725
X3.5384Y-4.5719
X3.5433Y-4.6555
X3.6024Y-4.3504
X3.6122Y-3.4941
X3.6909Y-4.8425
X3.7106Y-4.7933
X3.7697Y-4.8031
X3.7874Y-4.7638
X3.8401Y-3.1609
X3.8681Y-3.5531
X3.9469Y-3.4843
X3.9567Y-3.5531
X3.9764Y-3.7106
X3.9907Y-3.5191
X4.0262Y-3.3191
X4.0673Y-3.4622
X4.0748Y-3.2382
X4.094Y-3.6225
X4.0945Y-3.4154
X4.1049Y-3.2289
X4.1179Y-3.2612
X4.124Y-3.4646
X4.1339Y-3.1496
X4.1535Y-3.2579
X4.2028Y-3.6614
X4.2293Y-3.1466
X4.2421Y-3.4646
X4.2815Y-3.5236
X4.2913Y-3.4154
X4.2913Y-3.8386
X4.3012Y-3.4941
X4.3445Y-3.1102
X4.3602Y-3.6811
X4.3898Y-3.2677
X4.3996Y-3.6811
X4.4783Y-3.3071
X4.4783Y-3.7697
X4.4882Y-3.2283
X4.4882Y-3.435
X4.4882Y-3.8091
X4.5098Y-3.563
X4.5128Y-3.6171
X4.5177Y-3.1482
X4.5177Y-3.189
X4.5177Y-3.6614
X4.5276Y-3.3957
X4.6161Y-3.4646
X4.6555Y-3.3071
X4.6555Y-3.7382
X4.6752Y-3.7697
X4.685Y-3.3366
X4.6949Y-3.1496
X4.7441Y-3.4646
T2
X3.0815Y-2.137
X3.0815Y-2.237
X3.0815Y-2.337
X3.0815Y-2.437
X3.0815Y-2.537
X3.0815Y-2.637
X3.0815Y-2.737
X3.0815Y-2.837
X3.0815Y-2.937
X3.0815Y-3.037
X3.0815Y-3.137
X3.0815Y-3.237
X3.0815Y-3.337
X3.0815Y-3.437
X3.0815Y-3.537
X3.0815Y-3.637
X3.0815Y-3.737
X3.0815Y-3.837
X3.0815Y-3.937
X3.0815Y-4.037
X3.0815Y-4.137
X3.0815Y-4.237
X3.0815Y-4.337
X3.0815Y-4.437
X3.6815Y-2.137
X3.6815Y-2.237
X3.6815Y-2.337
X3.6815Y-2.437
X3.6815Y-2.537
X3.6815Y-2.637
X3.6815Y-2.737
X3.6815Y-2.837
X3.6815Y-2.937
X3.6815Y-3.037
X3.6815Y-3.137
X3.6815Y-3.237
X3.6815Y-3.337
X3.6815Y-3.437
X3.6815Y-3.537
X3.6815Y-3.637
X3.6815Y-3.737
X3.6815Y-3.837
X3.6815Y-3.937
X3.6815Y-4.037
X3.6815Y-4.137
X3.6815Y-4.237
X3.6815Y-4.337
X3.6815Y-4.437
T3
X3.2167Y-4.1043
X3.2955Y-4.1043
X3.4744Y-4.1043
X3.5531Y-4.1043
T4
X3.335Y-3.0138
X3.335Y-3.1138
X3.335Y-3.2138
X3.335Y-3.3138
X3.335Y-3.4138
X3.335Y-3.5138
X3.335Y-3.6138
X3.335Y-3.7138
X3.335Y-3.8138
X3.335Y-3.9138
X3.435Y-3.0138
X3.435Y-3.1138
X3.435Y-3.2138
X3.435Y-3.3138
X3.435Y-3.4138
X3.435Y-3.5138
X3.435Y-3.6138
X3.435Y-3.7138
X3.435Y-3.8138
X3.435Y-3.9138
M30
