%TF.GenerationSoftware,KiCad,Pcbnew,8.0.1*%
%TF.CreationDate,2024-04-19T02:09:13-07:00*%
%TF.ProjectId,CMOD_A7_Lower,434d4f44-5f41-4375-9f4c-6f7765722e6b,rev?*%
%TF.SameCoordinates,Original*%
%TF.FileFunction,Copper,L3,Inr*%
%TF.FilePolarity,Positive*%
%FSLAX46Y46*%
G04 Gerber Fmt 4.6, Leading zero omitted, Abs format (unit mm)*
G04 Created by KiCad (PCBNEW 8.0.1) date 2024-04-19 02:09:13*
%MOMM*%
%LPD*%
G01*
G04 APERTURE LIST*
G04 Aperture macros list*
%AMRoundRect*
0 Rectangle with rounded corners*
0 $1 Rounding radius*
0 $2 $3 $4 $5 $6 $7 $8 $9 X,Y pos of 4 corners*
0 Add a 4 corners polygon primitive as box body*
4,1,4,$2,$3,$4,$5,$6,$7,$8,$9,$2,$3,0*
0 Add four circle primitives for the rounded corners*
1,1,$1+$1,$2,$3*
1,1,$1+$1,$4,$5*
1,1,$1+$1,$6,$7*
1,1,$1+$1,$8,$9*
0 Add four rect primitives between the rounded corners*
20,1,$1+$1,$2,$3,$4,$5,0*
20,1,$1+$1,$4,$5,$6,$7,0*
20,1,$1+$1,$6,$7,$8,$9,0*
20,1,$1+$1,$8,$9,$2,$3,0*%
G04 Aperture macros list end*
%TA.AperFunction,ComponentPad*%
%ADD10R,1.600000X1.600000*%
%TD*%
%TA.AperFunction,ComponentPad*%
%ADD11C,1.600000*%
%TD*%
%TA.AperFunction,ComponentPad*%
%ADD12R,1.700000X1.700000*%
%TD*%
%TA.AperFunction,ComponentPad*%
%ADD13O,1.700000X1.700000*%
%TD*%
%TA.AperFunction,ComponentPad*%
%ADD14C,1.524000*%
%TD*%
%TA.AperFunction,ComponentPad*%
%ADD15RoundRect,0.381000X-0.381000X-0.381000X0.381000X-0.381000X0.381000X0.381000X-0.381000X0.381000X0*%
%TD*%
%TA.AperFunction,ViaPad*%
%ADD16C,0.600000*%
%TD*%
%TA.AperFunction,Conductor*%
%ADD17C,0.200000*%
%TD*%
G04 APERTURE END LIST*
D10*
%TO.N,+12V*%
%TO.C,C9*%
X88250000Y-104250000D03*
D11*
%TO.N,GND*%
X90250000Y-104250000D03*
%TD*%
D12*
%TO.N,+12V*%
%TO.C,J17*%
X87250000Y-99410000D03*
D13*
%TO.N,+3.3V*%
X84710000Y-99410000D03*
%TO.N,+12V*%
X87250000Y-96870000D03*
%TO.N,+3.3V*%
X84710000Y-96870000D03*
%TO.N,/FPGA5*%
X87250000Y-94330000D03*
%TO.N,/SDA*%
X84710000Y-94330000D03*
%TO.N,/FPGA4*%
X87250000Y-91790000D03*
%TO.N,/SCL*%
X84710000Y-91790000D03*
%TO.N,/FPGA3*%
X87250000Y-89250000D03*
%TO.N,/FPGA9*%
X84710000Y-89250000D03*
%TO.N,/FPGA2*%
X87250000Y-86710000D03*
%TO.N,/FPGA8*%
X84710000Y-86710000D03*
%TO.N,/FPGA1*%
X87250000Y-84170000D03*
%TO.N,/FPGA7*%
X84710000Y-84170000D03*
%TO.N,/FPGA0*%
X87250000Y-81630000D03*
%TO.N,/FPGA6*%
X84710000Y-81630000D03*
%TO.N,GND*%
X87250000Y-79090000D03*
X84710000Y-79090000D03*
X87250000Y-76550000D03*
X84710000Y-76550000D03*
%TD*%
D10*
%TO.N,+3.3V*%
%TO.C,C10*%
X83705113Y-104250000D03*
D11*
%TO.N,GND*%
X81705113Y-104250000D03*
%TD*%
D14*
%TO.N,/FPGA9*%
%TO.C,U5*%
X78270000Y-112700000D03*
%TO.N,/FPGA8*%
X78270000Y-110160000D03*
%TO.N,/FPGA7*%
X78270000Y-107620000D03*
%TO.N,/SDA*%
X78270000Y-105080000D03*
%TO.N,/SCL*%
X78270000Y-102540000D03*
%TO.N,/INA_10*%
X78270000Y-100000000D03*
%TO.N,/INB_10*%
X78270000Y-97460000D03*
%TO.N,/INA_11*%
X78270000Y-94920000D03*
%TO.N,/INB_11*%
X78270000Y-92380000D03*
%TO.N,/INA_00*%
X78270000Y-89840000D03*
%TO.N,/INB_00*%
X78270000Y-87300000D03*
%TO.N,/INA_01*%
X78270000Y-84760000D03*
%TO.N,/INB_01*%
X78270000Y-82220000D03*
%TO.N,/EA_11*%
X78270000Y-79680000D03*
%TO.N,unconnected-(U5-A1-Pad15)*%
X78270000Y-77140000D03*
%TO.N,unconnected-(U5-A2-Pad16)*%
X78270000Y-74600000D03*
%TO.N,/EB_11*%
X78270000Y-72060000D03*
%TO.N,/EA_10*%
X78270000Y-69520000D03*
%TO.N,/EB_10*%
X78270000Y-66980000D03*
%TO.N,/EA_01*%
X78270000Y-64440000D03*
%TO.N,/EB_01*%
X78270000Y-61900000D03*
%TO.N,/EA_00*%
X78270000Y-59360000D03*
%TO.N,/EB_00*%
X78270000Y-56820000D03*
%TO.N,+3.3V*%
X78270000Y-54280000D03*
D15*
%TO.N,GND*%
X93510000Y-54280000D03*
D14*
%TO.N,/EB_20*%
X93510000Y-56820000D03*
%TO.N,/EA_20*%
X93510000Y-59360000D03*
%TO.N,/EB_21*%
X93510000Y-61900000D03*
%TO.N,/EA_21*%
X93510000Y-64440000D03*
%TO.N,/EB_30*%
X93510000Y-66980000D03*
%TO.N,/EA_30*%
X93510000Y-69520000D03*
%TO.N,/EB_31*%
X93510000Y-72060000D03*
%TO.N,/FPGA0*%
X93510000Y-74600000D03*
%TO.N,/FPGA1*%
X93510000Y-77140000D03*
%TO.N,/EA_31*%
X93510000Y-79680000D03*
%TO.N,/INB_21*%
X93510000Y-82220000D03*
%TO.N,/INA_21*%
X93510000Y-84760000D03*
%TO.N,/INB_20*%
X93510000Y-87300000D03*
%TO.N,/INA_20*%
X93510000Y-89840000D03*
%TO.N,/INB_31*%
X93510000Y-92380000D03*
%TO.N,/INA_31*%
X93510000Y-94920000D03*
%TO.N,/INB_30*%
X93510000Y-97460000D03*
%TO.N,/INA_30*%
X93510000Y-100000000D03*
%TO.N,/FPGA2*%
X93510000Y-102540000D03*
%TO.N,/FPGA3*%
X93510000Y-105080000D03*
%TO.N,/FPGA4*%
X93510000Y-107620000D03*
%TO.N,/FPGA5*%
X93510000Y-110160000D03*
%TO.N,/FPGA6*%
X93510000Y-112700000D03*
%TD*%
D16*
%TO.N,GND*%
X114000000Y-96750000D03*
X51750000Y-91750000D03*
X54250000Y-88000000D03*
X65500000Y-85000000D03*
X51250000Y-80500000D03*
X104750000Y-88000000D03*
X64712132Y-77560662D03*
X117250000Y-88000000D03*
X109000000Y-86750000D03*
X101000000Y-94250000D03*
X115000000Y-86250000D03*
X105500000Y-82750000D03*
X58500000Y-84250000D03*
X91750000Y-88750000D03*
X61000000Y-88250000D03*
X53250000Y-80500000D03*
%TO.N,/VM0*%
X67250000Y-81000000D03*
%TO.N,/VM2*%
X104000000Y-86750000D03*
%TO.N,/VM1*%
X67506372Y-90756372D03*
%TO.N,/VM3*%
X103988603Y-92011397D03*
%TO.N,+3.3V*%
X105000000Y-80000000D03*
X59000000Y-81000000D03*
X53000000Y-93750000D03*
X60750000Y-93750000D03*
X107750000Y-88000000D03*
X114750000Y-93000000D03*
X52250000Y-82000000D03*
X106750000Y-93000000D03*
X114000000Y-82000000D03*
X65898111Y-89350000D03*
X64500000Y-76500000D03*
X119250000Y-80000000D03*
%TO.N,/MA_00*%
X63750000Y-82500000D03*
X57250000Y-84250000D03*
%TO.N,/EB_00*%
X53747017Y-81241051D03*
%TO.N,/MB_00*%
X57250000Y-83250000D03*
X64250000Y-80000000D03*
%TO.N,/EA_00*%
X54000000Y-82000000D03*
%TO.N,/EB_20*%
X113750000Y-84000000D03*
%TO.N,/EA_20*%
X111500000Y-83000000D03*
%TO.N,/EB_01*%
X61000000Y-80000000D03*
%TO.N,/EA_01*%
X60000000Y-80750000D03*
%TO.N,/EA_21*%
X119000000Y-84750000D03*
%TO.N,/MB_21*%
X114750000Y-81000000D03*
X107424265Y-79924265D03*
%TO.N,/EB_21*%
X118250000Y-84000000D03*
%TO.N,/MA_21*%
X110351472Y-79000000D03*
X114750000Y-79965533D03*
%TO.N,/EA_10*%
X54000000Y-92750000D03*
%TO.N,/EB_10*%
X54000000Y-91500000D03*
%TO.N,/MB_10*%
X57250000Y-95000000D03*
X64900000Y-90250000D03*
%TO.N,/MA_10*%
X58000000Y-96000000D03*
X64000000Y-91000000D03*
%TO.N,/EA_30*%
X110750000Y-93500000D03*
%TO.N,/EB_30*%
X111750000Y-93500000D03*
%TO.N,/EA_11*%
X59750000Y-93250000D03*
%TO.N,/EB_11*%
X61000000Y-92000000D03*
%TO.N,/EB_31*%
X118250000Y-94950000D03*
%TO.N,/MB_31*%
X108750000Y-89500000D03*
X114625000Y-91875000D03*
%TO.N,/MA_31*%
X109250000Y-88750000D03*
X114549265Y-90500000D03*
%TO.N,/EA_31*%
X118750000Y-95750000D03*
%TO.N,/SW_00*%
X57250000Y-82250000D03*
X58250000Y-87250000D03*
X77650000Y-117500000D03*
%TO.N,/SW_01*%
X58250000Y-88050003D03*
X77000000Y-118500000D03*
%TO.N,/SW_10*%
X78250000Y-118750000D03*
X65250000Y-87250000D03*
%TO.N,/SW_11*%
X65750000Y-99250000D03*
X78744954Y-120013877D03*
%TO.N,/SW_20*%
X114000000Y-87250000D03*
X93750000Y-123000000D03*
%TO.N,/SW_21*%
X95750000Y-122000000D03*
X109000000Y-97500000D03*
%TO.N,/SW_30*%
X94250000Y-121750000D03*
X120500000Y-88000000D03*
%TO.N,/SW_31*%
X96200000Y-121000000D03*
X113750000Y-95750000D03*
%TO.N,+12V*%
X98250000Y-90250000D03*
X97537500Y-80287500D03*
X75000000Y-86000000D03*
X74000000Y-96300000D03*
%TO.N,/SDA*%
X89875000Y-116125000D03*
%TO.N,/SCL*%
X90000000Y-118250000D03*
%TO.N,/INA_01*%
X67100000Y-85000000D03*
%TO.N,/INA_00*%
X66600000Y-87545074D03*
%TO.N,/INB_00*%
X67250000Y-86250000D03*
%TO.N,/INB_01*%
X65500000Y-85800003D03*
%TO.N,/INA_21*%
X104264656Y-82014058D03*
%TO.N,/INB_20*%
X103500000Y-82249231D03*
%TO.N,/INA_20*%
X102266686Y-84306205D03*
%TO.N,/INB_21*%
X104595804Y-82835664D03*
%TO.N,/INB_11*%
X67325735Y-94325735D03*
%TO.N,/INA_11*%
X66681709Y-94800324D03*
%TO.N,/INB_10*%
X66000000Y-95377423D03*
%TO.N,/INA_10*%
X68950636Y-95900000D03*
%TO.N,/INA_30*%
X100500000Y-90250000D03*
%TO.N,/INB_31*%
X103310662Y-87939338D03*
%TO.N,/INB_30*%
X101363603Y-89386397D03*
%TO.N,/INA_31*%
X100250000Y-88500000D03*
%TO.N,/FPGA5*%
X91500000Y-110500000D03*
%TD*%
D17*
%TO.N,/EB_00*%
X64552941Y-78250000D02*
X65684314Y-78250000D01*
X60184314Y-78000000D02*
X64302941Y-78000000D01*
X53747017Y-81241051D02*
X54488068Y-80500000D01*
X75910000Y-64590000D02*
X75910000Y-59180000D01*
X66800000Y-77134314D02*
X66800000Y-73700000D01*
X66800000Y-73700000D02*
X75910000Y-64590000D01*
X64302941Y-78000000D02*
X64552941Y-78250000D01*
X65684314Y-78250000D02*
X66800000Y-77134314D01*
X57684314Y-80500000D02*
X60184314Y-78000000D01*
X54488068Y-80500000D02*
X57684314Y-80500000D01*
X75910000Y-59180000D02*
X78270000Y-56820000D01*
%TO.N,/EA_00*%
X76310000Y-64808628D02*
X76310000Y-63874314D01*
X64137255Y-78400000D02*
X64387256Y-78650000D01*
X67200000Y-73918628D02*
X76310000Y-64808628D01*
X76750000Y-60880000D02*
X78270000Y-59360000D01*
X60350000Y-78400000D02*
X64137255Y-78400000D01*
X67200000Y-77300000D02*
X67200000Y-73918628D01*
X54000000Y-82000000D02*
X54500000Y-81500000D01*
X54500000Y-81500000D02*
X57250000Y-81500000D01*
X76750000Y-63434314D02*
X76750000Y-60880000D01*
X64387256Y-78650000D02*
X65849999Y-78650000D01*
X57250000Y-81500000D02*
X60350000Y-78400000D01*
X76310000Y-63874314D02*
X76750000Y-63434314D01*
X65849999Y-78650000D02*
X67200000Y-77300000D01*
%TO.N,/EB_20*%
X109751472Y-77827207D02*
X96400000Y-64475735D01*
X113750000Y-84000000D02*
X109751472Y-80001472D01*
X96400000Y-64475735D02*
X96400000Y-59710000D01*
X96400000Y-59710000D02*
X93510000Y-56820000D01*
X109751472Y-80001472D02*
X109751472Y-77827207D01*
%TO.N,/EA_20*%
X96000000Y-64641421D02*
X96000000Y-61850000D01*
X109351472Y-80167157D02*
X109351472Y-77992893D01*
X111500000Y-83000000D02*
X111500000Y-82315686D01*
X96000000Y-61850000D02*
X93510000Y-59360000D01*
X109351472Y-77992893D02*
X96000000Y-64641421D01*
X111500000Y-82315686D02*
X109351472Y-80167157D01*
%TO.N,/EB_01*%
X78270000Y-62480000D02*
X78270000Y-61900000D01*
X66884314Y-79050000D02*
X67600000Y-78334314D01*
X64221571Y-79050000D02*
X66884314Y-79050000D01*
X61000000Y-80000000D02*
X62200000Y-78800000D01*
X67600000Y-78334314D02*
X67600000Y-74084314D01*
X67600000Y-74084314D02*
X76710000Y-64974314D01*
X76710000Y-64974314D02*
X76710000Y-64040000D01*
X63971570Y-78800000D02*
X64221571Y-79050000D01*
X62200000Y-78800000D02*
X63971570Y-78800000D01*
X76710000Y-64040000D02*
X78270000Y-62480000D01*
%TO.N,/EA_01*%
X68000000Y-74710000D02*
X78270000Y-64440000D01*
X60150000Y-80600000D02*
X61400000Y-80600000D01*
X68000000Y-78500000D02*
X68000000Y-74710000D01*
X60000000Y-80750000D02*
X60150000Y-80600000D01*
X62300000Y-81500000D02*
X65000000Y-81500000D01*
X61400000Y-80600000D02*
X62300000Y-81500000D01*
X65000000Y-81500000D02*
X68000000Y-78500000D01*
%TO.N,/EA_21*%
X119000000Y-84750000D02*
X118650000Y-85100000D01*
X112185785Y-85100000D02*
X108551472Y-81465687D01*
X118650000Y-85100000D02*
X112185785Y-85100000D01*
X108551472Y-78324265D02*
X94667207Y-64440000D01*
X108551472Y-81465687D02*
X108551472Y-78324265D01*
X94667207Y-64440000D02*
X93510000Y-64440000D01*
%TO.N,/EB_21*%
X95600000Y-64807107D02*
X95600000Y-62350000D01*
X95600000Y-62350000D02*
X95150000Y-61900000D01*
X108951472Y-81300001D02*
X108951472Y-78158579D01*
X108951472Y-78158579D02*
X95600000Y-64807107D01*
X118250000Y-84000000D02*
X117650000Y-84600000D01*
X112251471Y-84600000D02*
X108951472Y-81300001D01*
X117650000Y-84600000D02*
X112251471Y-84600000D01*
X95150000Y-61900000D02*
X93510000Y-61900000D01*
%TO.N,/EA_10*%
X68515686Y-87050000D02*
X68765686Y-87050000D01*
X76150000Y-71640000D02*
X78270000Y-69520000D01*
X66815686Y-88750000D02*
X68515686Y-87050000D01*
X54000000Y-92750000D02*
X58065686Y-92750000D01*
X58065686Y-92750000D02*
X62065686Y-88750000D01*
X68765686Y-87050000D02*
X76150000Y-79665686D01*
X76150000Y-79665686D02*
X76150000Y-71640000D01*
X62065686Y-88750000D02*
X66815686Y-88750000D01*
%TO.N,/EB_10*%
X66750000Y-88250000D02*
X68350000Y-86650000D01*
X54100000Y-91400000D02*
X58850000Y-91400000D01*
X54000000Y-91500000D02*
X54100000Y-91400000D01*
X62000000Y-88250000D02*
X66750000Y-88250000D01*
X75750000Y-79500000D02*
X75750000Y-69500000D01*
X75750000Y-69500000D02*
X78270000Y-66980000D01*
X58850000Y-91400000D02*
X62000000Y-88250000D01*
X68600000Y-86650000D02*
X75750000Y-79500000D01*
X68350000Y-86650000D02*
X68600000Y-86650000D01*
%TO.N,/EA_30*%
X105957108Y-92000000D02*
X101550000Y-87592892D01*
X95600000Y-80218628D02*
X95600000Y-71610000D01*
X101550000Y-86168630D02*
X95600000Y-80218628D01*
X101550000Y-87592892D02*
X101550000Y-86168630D01*
X107164214Y-92000000D02*
X105957108Y-92000000D01*
X95600000Y-71610000D02*
X93510000Y-69520000D01*
X108664215Y-93500000D02*
X107164214Y-92000000D01*
X110750000Y-93500000D02*
X108664215Y-93500000D01*
%TO.N,/EB_30*%
X96000000Y-80052942D02*
X96000000Y-69470000D01*
X111750000Y-93500000D02*
X110750000Y-92500000D01*
X106122794Y-91600000D02*
X101950000Y-87427206D01*
X108229901Y-92500000D02*
X107329899Y-91600000D01*
X101950000Y-86002944D02*
X96000000Y-80052942D01*
X96000000Y-69470000D02*
X93510000Y-66980000D01*
X110750000Y-92500000D02*
X108229901Y-92500000D01*
X107329899Y-91600000D02*
X106122794Y-91600000D01*
X101950000Y-87427206D02*
X101950000Y-86002944D01*
%TO.N,/EA_11*%
X67000000Y-89750000D02*
X68900000Y-87850000D01*
X68900000Y-87850000D02*
X70100000Y-87850000D01*
X59750000Y-93250000D02*
X59850000Y-93150000D01*
X59850000Y-93150000D02*
X64114215Y-93150000D01*
X67000000Y-90264215D02*
X67000000Y-89750000D01*
X64114215Y-93150000D02*
X67000000Y-90264215D01*
X70100000Y-87850000D02*
X78270000Y-79680000D01*
%TO.N,/EB_11*%
X68931372Y-87450000D02*
X76550000Y-79831372D01*
X64698529Y-92000000D02*
X66600000Y-90098529D01*
X66600000Y-89531372D02*
X68681372Y-87450000D01*
X76550000Y-73780000D02*
X78270000Y-72060000D01*
X76550000Y-79831372D02*
X76550000Y-73780000D01*
X66600000Y-90098529D02*
X66600000Y-89531372D01*
X68681372Y-87450000D02*
X68931372Y-87450000D01*
X61000000Y-92000000D02*
X64698529Y-92000000D01*
%TO.N,/EB_31*%
X118250000Y-94950000D02*
X118050000Y-94750000D01*
X106998529Y-92400000D02*
X105791422Y-92400000D01*
X105791422Y-92400000D02*
X101150000Y-87758578D01*
X118050000Y-94750000D02*
X111000000Y-94750000D01*
X111000000Y-94750000D02*
X110150000Y-93900000D01*
X110150000Y-93900000D02*
X108498530Y-93900000D01*
X108498530Y-93900000D02*
X106998529Y-92400000D01*
X101150000Y-86334315D02*
X95000000Y-80184314D01*
X101150000Y-87758578D02*
X101150000Y-86334315D01*
X95000000Y-80184314D02*
X95000000Y-73550000D01*
X95000000Y-73550000D02*
X93510000Y-72060000D01*
%TO.N,/EA_31*%
X118201471Y-95750000D02*
X117601471Y-95150000D01*
X117601471Y-95150000D02*
X107975736Y-95150000D01*
X118750000Y-95750000D02*
X118201471Y-95750000D01*
X107975736Y-95150000D02*
X93510000Y-80684264D01*
X93510000Y-80684264D02*
X93510000Y-79680000D01*
%TO.N,/SW_00*%
X57850000Y-82850000D02*
X57850000Y-86850000D01*
X57250000Y-82250000D02*
X57850000Y-82850000D01*
X57850000Y-86850000D02*
X58250000Y-87250000D01*
%TO.N,/FPGA9*%
X78270000Y-112700000D02*
X80132000Y-110838000D01*
X80132000Y-90368000D02*
X81250000Y-89250000D01*
X81250000Y-89250000D02*
X84710000Y-89250000D01*
X80132000Y-110838000D02*
X80132000Y-90368000D01*
%TO.N,/FPGA5*%
X87250000Y-94330000D02*
X92000000Y-99080000D01*
X92000000Y-110000000D02*
X91500000Y-110500000D01*
X92000000Y-99080000D02*
X92000000Y-110000000D01*
%TO.N,/FPGA6*%
X92448000Y-87698000D02*
X92448000Y-111638000D01*
X84710000Y-81630000D02*
X85860000Y-82780000D01*
X92448000Y-111638000D02*
X93510000Y-112700000D01*
X87530000Y-82780000D02*
X92448000Y-87698000D01*
X85860000Y-82780000D02*
X87530000Y-82780000D01*
%TO.N,/FPGA8*%
X78270000Y-110160000D02*
X79732000Y-108698000D01*
X79732000Y-108698000D02*
X79732000Y-90018000D01*
X79732000Y-90018000D02*
X83040000Y-86710000D01*
X83040000Y-86710000D02*
X84710000Y-86710000D01*
%TO.N,/FPGA7*%
X79332000Y-89548000D02*
X84710000Y-84170000D01*
X78270000Y-107620000D02*
X79332000Y-106558000D01*
X79332000Y-106558000D02*
X79332000Y-89548000D01*
%TD*%
%TA.AperFunction,Conductor*%
%TO.N,+12V*%
G36*
X94600043Y-65237917D02*
G01*
X94644390Y-65266418D01*
X107914653Y-78536681D01*
X107948138Y-78598004D01*
X107950972Y-78624362D01*
X107950972Y-79086458D01*
X107931287Y-79153497D01*
X107878483Y-79199252D01*
X107809325Y-79209196D01*
X107780488Y-79200408D01*
X107780360Y-79200776D01*
X107603519Y-79138896D01*
X107603514Y-79138895D01*
X107424269Y-79118700D01*
X107424261Y-79118700D01*
X107245015Y-79138895D01*
X107245010Y-79138896D01*
X107074741Y-79198476D01*
X106922002Y-79294449D01*
X106794449Y-79422002D01*
X106698476Y-79574741D01*
X106638896Y-79745010D01*
X106638895Y-79745015D01*
X106618700Y-79924261D01*
X106618700Y-79924268D01*
X106638895Y-80103514D01*
X106638896Y-80103519D01*
X106698476Y-80273788D01*
X106746064Y-80349523D01*
X106794449Y-80426527D01*
X106922003Y-80554081D01*
X107012345Y-80610847D01*
X107073213Y-80649093D01*
X107074743Y-80650054D01*
X107158178Y-80679249D01*
X107245010Y-80709633D01*
X107245015Y-80709634D01*
X107424261Y-80729830D01*
X107424265Y-80729830D01*
X107424269Y-80729830D01*
X107603514Y-80709634D01*
X107603517Y-80709633D01*
X107603520Y-80709633D01*
X107773787Y-80650054D01*
X107773787Y-80650053D01*
X107780360Y-80647754D01*
X107780828Y-80649093D01*
X107842099Y-80638997D01*
X107906236Y-80666713D01*
X107945208Y-80724704D01*
X107950972Y-80762071D01*
X107950972Y-81379017D01*
X107950971Y-81379035D01*
X107950971Y-81544741D01*
X107950970Y-81544741D01*
X107962116Y-81586338D01*
X107987214Y-81680004D01*
X107991896Y-81697474D01*
X108005807Y-81721568D01*
X108005808Y-81721570D01*
X108070949Y-81834399D01*
X108070953Y-81834404D01*
X108189821Y-81953272D01*
X108189826Y-81953276D01*
X111817069Y-85580520D01*
X111817071Y-85580521D01*
X111817075Y-85580524D01*
X111953994Y-85659573D01*
X111953997Y-85659575D01*
X111954001Y-85659577D01*
X112106728Y-85700501D01*
X112106730Y-85700501D01*
X112272439Y-85700501D01*
X112272455Y-85700500D01*
X114175504Y-85700500D01*
X114242543Y-85720185D01*
X114288298Y-85772989D01*
X114298242Y-85842147D01*
X114280497Y-85890473D01*
X114274211Y-85900475D01*
X114214631Y-86070745D01*
X114214630Y-86070750D01*
X114194435Y-86249996D01*
X114194435Y-86250004D01*
X114201714Y-86314611D01*
X114189659Y-86383433D01*
X114142310Y-86434812D01*
X114074699Y-86452436D01*
X114064611Y-86451714D01*
X114000004Y-86444435D01*
X113999996Y-86444435D01*
X113820750Y-86464630D01*
X113820745Y-86464631D01*
X113650476Y-86524211D01*
X113497737Y-86620184D01*
X113370184Y-86747737D01*
X113274211Y-86900476D01*
X113214631Y-87070745D01*
X113214630Y-87070750D01*
X113194435Y-87249996D01*
X113194435Y-87250003D01*
X113214630Y-87429249D01*
X113214631Y-87429254D01*
X113274211Y-87599523D01*
X113358099Y-87733029D01*
X113370184Y-87752262D01*
X113497738Y-87879816D01*
X113543215Y-87908391D01*
X113632721Y-87964632D01*
X113650478Y-87975789D01*
X113739571Y-88006964D01*
X113820745Y-88035368D01*
X113820750Y-88035369D01*
X113999996Y-88055565D01*
X114000000Y-88055565D01*
X114000004Y-88055565D01*
X114179249Y-88035369D01*
X114179252Y-88035368D01*
X114179255Y-88035368D01*
X114280322Y-88000003D01*
X116444435Y-88000003D01*
X116464630Y-88179249D01*
X116464631Y-88179254D01*
X116524211Y-88349523D01*
X116613041Y-88490894D01*
X116620184Y-88502262D01*
X116747738Y-88629816D01*
X116900478Y-88725789D01*
X117049594Y-88777967D01*
X117070745Y-88785368D01*
X117070750Y-88785369D01*
X117249996Y-88805565D01*
X117250000Y-88805565D01*
X117250004Y-88805565D01*
X117429249Y-88785369D01*
X117429252Y-88785368D01*
X117429255Y-88785368D01*
X117599522Y-88725789D01*
X117752262Y-88629816D01*
X117879816Y-88502262D01*
X117975789Y-88349522D01*
X118035368Y-88179255D01*
X118036001Y-88173636D01*
X118055565Y-88000003D01*
X118055565Y-87999996D01*
X118035369Y-87820750D01*
X118035368Y-87820745D01*
X118008458Y-87743840D01*
X117975789Y-87650478D01*
X117975489Y-87650001D01*
X117903461Y-87535369D01*
X117879816Y-87497738D01*
X117752262Y-87370184D01*
X117712219Y-87345023D01*
X117599523Y-87274211D01*
X117429254Y-87214631D01*
X117429249Y-87214630D01*
X117250004Y-87194435D01*
X117249996Y-87194435D01*
X117070750Y-87214630D01*
X117070745Y-87214631D01*
X116900476Y-87274211D01*
X116747737Y-87370184D01*
X116620184Y-87497737D01*
X116524211Y-87650476D01*
X116464631Y-87820745D01*
X116464630Y-87820750D01*
X116444435Y-87999996D01*
X116444435Y-88000003D01*
X114280322Y-88000003D01*
X114349522Y-87975789D01*
X114502262Y-87879816D01*
X114629816Y-87752262D01*
X114725789Y-87599522D01*
X114785368Y-87429255D01*
X114790035Y-87387834D01*
X114805565Y-87250003D01*
X114805565Y-87249997D01*
X114798285Y-87185389D01*
X114810339Y-87116567D01*
X114857688Y-87065188D01*
X114925298Y-87047563D01*
X114935385Y-87048284D01*
X114960549Y-87051120D01*
X114999998Y-87055565D01*
X115000000Y-87055565D01*
X115000004Y-87055565D01*
X115179249Y-87035369D01*
X115179252Y-87035368D01*
X115179255Y-87035368D01*
X115349522Y-86975789D01*
X115502262Y-86879816D01*
X115629816Y-86752262D01*
X115725789Y-86599522D01*
X115785368Y-86429255D01*
X115788481Y-86401630D01*
X115805565Y-86250003D01*
X115805565Y-86249996D01*
X115785369Y-86070750D01*
X115785368Y-86070745D01*
X115725788Y-85900475D01*
X115719503Y-85890473D01*
X115700502Y-85823236D01*
X115720869Y-85756401D01*
X115774137Y-85711186D01*
X115824496Y-85700500D01*
X118563331Y-85700500D01*
X118563347Y-85700501D01*
X118570943Y-85700501D01*
X118729054Y-85700501D01*
X118729057Y-85700501D01*
X118881785Y-85659577D01*
X118950015Y-85620184D01*
X119018716Y-85580520D01*
X119018718Y-85580517D01*
X119025157Y-85575577D01*
X119025973Y-85576640D01*
X119079847Y-85547217D01*
X119092313Y-85545163D01*
X119179255Y-85535368D01*
X119349522Y-85475789D01*
X119502262Y-85379816D01*
X119629816Y-85252262D01*
X119725789Y-85099522D01*
X119785368Y-84929255D01*
X119785369Y-84929249D01*
X119805565Y-84750003D01*
X119805565Y-84749996D01*
X119785369Y-84570750D01*
X119785368Y-84570745D01*
X119755523Y-84485454D01*
X119725789Y-84400478D01*
X119629816Y-84247738D01*
X119502262Y-84120184D01*
X119349521Y-84024210D01*
X119179249Y-83964630D01*
X119148201Y-83961132D01*
X119083787Y-83934065D01*
X119044233Y-83876469D01*
X119038867Y-83851802D01*
X119035368Y-83820745D01*
X118975789Y-83650478D01*
X118969977Y-83641229D01*
X118931766Y-83580416D01*
X118879816Y-83497738D01*
X118752262Y-83370184D01*
X118700924Y-83337926D01*
X118599523Y-83274211D01*
X118429254Y-83214631D01*
X118429249Y-83214630D01*
X118250004Y-83194435D01*
X118249996Y-83194435D01*
X118070750Y-83214630D01*
X118070745Y-83214631D01*
X117900476Y-83274211D01*
X117747737Y-83370184D01*
X117620184Y-83497737D01*
X117524210Y-83650478D01*
X117464630Y-83820750D01*
X117456898Y-83889383D01*
X117429832Y-83953797D01*
X117372237Y-83993352D01*
X117333678Y-83999500D01*
X114666322Y-83999500D01*
X114599283Y-83979815D01*
X114553528Y-83927011D01*
X114543102Y-83889383D01*
X114535369Y-83820750D01*
X114535368Y-83820748D01*
X114535368Y-83820745D01*
X114475789Y-83650478D01*
X114379816Y-83497738D01*
X114252262Y-83370184D01*
X114200924Y-83337926D01*
X114099521Y-83274210D01*
X113929249Y-83214630D01*
X113842331Y-83204837D01*
X113777917Y-83177770D01*
X113768534Y-83169298D01*
X113534003Y-82934767D01*
X113500518Y-82873444D01*
X113505502Y-82803752D01*
X113547374Y-82747819D01*
X113612838Y-82723402D01*
X113662639Y-82730045D01*
X113820737Y-82785366D01*
X113820743Y-82785367D01*
X113820745Y-82785368D01*
X113820746Y-82785368D01*
X113820750Y-82785369D01*
X113999996Y-82805565D01*
X114000000Y-82805565D01*
X114000004Y-82805565D01*
X114179249Y-82785369D01*
X114179252Y-82785368D01*
X114179255Y-82785368D01*
X114349522Y-82725789D01*
X114502262Y-82629816D01*
X114629816Y-82502262D01*
X114725789Y-82349522D01*
X114785368Y-82179255D01*
X114786395Y-82170142D01*
X114805565Y-82000003D01*
X114805565Y-81999997D01*
X114797119Y-81925041D01*
X114809173Y-81856219D01*
X114856522Y-81804840D01*
X114906456Y-81787936D01*
X114929255Y-81785368D01*
X115099522Y-81725789D01*
X115252262Y-81629816D01*
X115379816Y-81502262D01*
X115475789Y-81349522D01*
X115535368Y-81179255D01*
X115535368Y-81179252D01*
X115535369Y-81179249D01*
X115555565Y-81000003D01*
X115555565Y-80999996D01*
X115535369Y-80820750D01*
X115535368Y-80820745D01*
X115475788Y-80650475D01*
X115411862Y-80548739D01*
X115392861Y-80481502D01*
X115411862Y-80416794D01*
X115475789Y-80315055D01*
X115535368Y-80144788D01*
X115535369Y-80144782D01*
X115551682Y-80000003D01*
X118444435Y-80000003D01*
X118464630Y-80179249D01*
X118464631Y-80179254D01*
X118524211Y-80349523D01*
X118597398Y-80465998D01*
X118620184Y-80502262D01*
X118747738Y-80629816D01*
X118900478Y-80725789D01*
X118912027Y-80729830D01*
X119070745Y-80785368D01*
X119070750Y-80785369D01*
X119249996Y-80805565D01*
X119250000Y-80805565D01*
X119250004Y-80805565D01*
X119429249Y-80785369D01*
X119429252Y-80785368D01*
X119429255Y-80785368D01*
X119599522Y-80725789D01*
X119752262Y-80629816D01*
X119879816Y-80502262D01*
X119975789Y-80349522D01*
X120035368Y-80179255D01*
X120037562Y-80159786D01*
X120055565Y-80000003D01*
X120055565Y-79999996D01*
X120035369Y-79820750D01*
X120035368Y-79820745D01*
X119991170Y-79694435D01*
X119975789Y-79650478D01*
X119879816Y-79497738D01*
X119752262Y-79370184D01*
X119697408Y-79335717D01*
X119599523Y-79274211D01*
X119429254Y-79214631D01*
X119429249Y-79214630D01*
X119250004Y-79194435D01*
X119249996Y-79194435D01*
X119070750Y-79214630D01*
X119070745Y-79214631D01*
X118900476Y-79274211D01*
X118747737Y-79370184D01*
X118620184Y-79497737D01*
X118524211Y-79650476D01*
X118464631Y-79820745D01*
X118464630Y-79820750D01*
X118444435Y-79999996D01*
X118444435Y-80000003D01*
X115551682Y-80000003D01*
X115555565Y-79965536D01*
X115555565Y-79965529D01*
X115535369Y-79786283D01*
X115535368Y-79786278D01*
X115498180Y-79680000D01*
X115475789Y-79616011D01*
X115379816Y-79463271D01*
X115252262Y-79335717D01*
X115235847Y-79325403D01*
X115099523Y-79239744D01*
X114929254Y-79180164D01*
X114929249Y-79180163D01*
X114750004Y-79159968D01*
X114749996Y-79159968D01*
X114570750Y-79180163D01*
X114570745Y-79180164D01*
X114400476Y-79239744D01*
X114247737Y-79335717D01*
X114120184Y-79463270D01*
X114024211Y-79616009D01*
X113964631Y-79786278D01*
X113964630Y-79786283D01*
X113944435Y-79965529D01*
X113944435Y-79965536D01*
X113964630Y-80144782D01*
X113964631Y-80144787D01*
X114024211Y-80315056D01*
X114088138Y-80416794D01*
X114107138Y-80484030D01*
X114088138Y-80548738D01*
X114024211Y-80650476D01*
X113964631Y-80820745D01*
X113964630Y-80820750D01*
X113944435Y-80999996D01*
X113944435Y-81000004D01*
X113952880Y-81074959D01*
X113940825Y-81143781D01*
X113893476Y-81195160D01*
X113843546Y-81212062D01*
X113820751Y-81214630D01*
X113820747Y-81214631D01*
X113650478Y-81274210D01*
X113497737Y-81370184D01*
X113370184Y-81497737D01*
X113274211Y-81650476D01*
X113214631Y-81820745D01*
X113214630Y-81820750D01*
X113194435Y-81999996D01*
X113194435Y-82000003D01*
X113214630Y-82179249D01*
X113214632Y-82179257D01*
X113269955Y-82337361D01*
X113273516Y-82407139D01*
X113238787Y-82467767D01*
X113176794Y-82499994D01*
X113107218Y-82493589D01*
X113065232Y-82465996D01*
X110562024Y-79962789D01*
X110528539Y-79901466D01*
X110533523Y-79831774D01*
X110575395Y-79775841D01*
X110608749Y-79758066D01*
X110700994Y-79725789D01*
X110853734Y-79629816D01*
X110981288Y-79502262D01*
X111077261Y-79349522D01*
X111136840Y-79179255D01*
X111139013Y-79159968D01*
X111157037Y-79000003D01*
X111157037Y-78999996D01*
X111136841Y-78820750D01*
X111136840Y-78820745D01*
X111105713Y-78731790D01*
X111077261Y-78650478D01*
X110981288Y-78497738D01*
X110853734Y-78370184D01*
X110809094Y-78342135D01*
X110700993Y-78274210D01*
X110530721Y-78214630D01*
X110462088Y-78206897D01*
X110397674Y-78179830D01*
X110358119Y-78122235D01*
X110351972Y-78083677D01*
X110351972Y-77916267D01*
X110351973Y-77916254D01*
X110351973Y-77748151D01*
X110350821Y-77743853D01*
X110327440Y-77656593D01*
X110329103Y-77586744D01*
X110368265Y-77528881D01*
X110432494Y-77501377D01*
X110447215Y-77500500D01*
X119934108Y-77500500D01*
X119995572Y-77500500D01*
X120004418Y-77500816D01*
X120204561Y-77515130D01*
X120222063Y-77517647D01*
X120413797Y-77559355D01*
X120430755Y-77564334D01*
X120610252Y-77631284D01*
X120614609Y-77632909D01*
X120630701Y-77640259D01*
X120802904Y-77734288D01*
X120817784Y-77743849D01*
X120949565Y-77842500D01*
X120974867Y-77861441D01*
X120988237Y-77873027D01*
X121126972Y-78011762D01*
X121138558Y-78025132D01*
X121182384Y-78083677D01*
X121256146Y-78182210D01*
X121265711Y-78197095D01*
X121359740Y-78369298D01*
X121367090Y-78385390D01*
X121435662Y-78569236D01*
X121440646Y-78586212D01*
X121482351Y-78777931D01*
X121484869Y-78795442D01*
X121499184Y-78995580D01*
X121499500Y-79004427D01*
X121499500Y-87702885D01*
X121479815Y-87769924D01*
X121427011Y-87815679D01*
X121357853Y-87825623D01*
X121294297Y-87796598D01*
X121258459Y-87743840D01*
X121225790Y-87650480D01*
X121225789Y-87650478D01*
X121129816Y-87497738D01*
X121002262Y-87370184D01*
X120962219Y-87345023D01*
X120849523Y-87274211D01*
X120679254Y-87214631D01*
X120679249Y-87214630D01*
X120500004Y-87194435D01*
X120499996Y-87194435D01*
X120320750Y-87214630D01*
X120320745Y-87214631D01*
X120150476Y-87274211D01*
X119997737Y-87370184D01*
X119870184Y-87497737D01*
X119774211Y-87650476D01*
X119714631Y-87820745D01*
X119714630Y-87820750D01*
X119694435Y-87999996D01*
X119694435Y-88000003D01*
X119714630Y-88179249D01*
X119714631Y-88179254D01*
X119774211Y-88349523D01*
X119863041Y-88490894D01*
X119870184Y-88502262D01*
X119997738Y-88629816D01*
X120150478Y-88725789D01*
X120299594Y-88777967D01*
X120320745Y-88785368D01*
X120320750Y-88785369D01*
X120499996Y-88805565D01*
X120500000Y-88805565D01*
X120500004Y-88805565D01*
X120679249Y-88785369D01*
X120679252Y-88785368D01*
X120679255Y-88785368D01*
X120849522Y-88725789D01*
X121002262Y-88629816D01*
X121129816Y-88502262D01*
X121225789Y-88349522D01*
X121258458Y-88256160D01*
X121299180Y-88199383D01*
X121364133Y-88173636D01*
X121432694Y-88187092D01*
X121483097Y-88235479D01*
X121499500Y-88297114D01*
X121499500Y-96995572D01*
X121499184Y-97004419D01*
X121484869Y-97204557D01*
X121482351Y-97222068D01*
X121440646Y-97413787D01*
X121435662Y-97430763D01*
X121367090Y-97614609D01*
X121359740Y-97630701D01*
X121265711Y-97802904D01*
X121256146Y-97817789D01*
X121138558Y-97974867D01*
X121126972Y-97988237D01*
X120988237Y-98126972D01*
X120974867Y-98138558D01*
X120817789Y-98256146D01*
X120802904Y-98265711D01*
X120630701Y-98359740D01*
X120614609Y-98367090D01*
X120430763Y-98435662D01*
X120413787Y-98440646D01*
X120222068Y-98482351D01*
X120204557Y-98484869D01*
X120023779Y-98497799D01*
X120004417Y-98499184D01*
X119995572Y-98499500D01*
X109934107Y-98499500D01*
X109841883Y-98524211D01*
X109841882Y-98524210D01*
X109806815Y-98533607D01*
X109806814Y-98533607D01*
X109692686Y-98599500D01*
X109692683Y-98599502D01*
X109641292Y-98650894D01*
X109599500Y-98692686D01*
X109599498Y-98692688D01*
X103140818Y-105151368D01*
X96675245Y-111616940D01*
X96675244Y-111616940D01*
X96675245Y-111616941D01*
X96599500Y-111692686D01*
X96533608Y-111806812D01*
X96499500Y-111934108D01*
X96499500Y-120089424D01*
X96479815Y-120156463D01*
X96427011Y-120202218D01*
X96361617Y-120212644D01*
X96200004Y-120194435D01*
X96199996Y-120194435D01*
X96020750Y-120214630D01*
X96020745Y-120214631D01*
X95850476Y-120274211D01*
X95697737Y-120370184D01*
X95570184Y-120497737D01*
X95474211Y-120650476D01*
X95414631Y-120820745D01*
X95414630Y-120820750D01*
X95394435Y-120999996D01*
X95394435Y-121000003D01*
X95414963Y-121182203D01*
X95402908Y-121251025D01*
X95357716Y-121301079D01*
X95247740Y-121370182D01*
X95177912Y-121440010D01*
X95116588Y-121473494D01*
X95046897Y-121468509D01*
X94990963Y-121426638D01*
X94978510Y-121406128D01*
X94975789Y-121400477D01*
X94879815Y-121247737D01*
X94752262Y-121120184D01*
X94599523Y-121024211D01*
X94429254Y-120964631D01*
X94429249Y-120964630D01*
X94250004Y-120944435D01*
X94249996Y-120944435D01*
X94070750Y-120964630D01*
X94070745Y-120964631D01*
X93900476Y-121024211D01*
X93747737Y-121120184D01*
X93620184Y-121247737D01*
X93524211Y-121400476D01*
X93464631Y-121570745D01*
X93464630Y-121570750D01*
X93444435Y-121749996D01*
X93444435Y-121750003D01*
X93464630Y-121929249D01*
X93464631Y-121929254D01*
X93524217Y-122099539D01*
X93527778Y-122169318D01*
X93493049Y-122229946D01*
X93448131Y-122257535D01*
X93400479Y-122274209D01*
X93247737Y-122370184D01*
X93120184Y-122497737D01*
X93024211Y-122650476D01*
X92964631Y-122820745D01*
X92964630Y-122820750D01*
X92944435Y-122999996D01*
X92944435Y-123000003D01*
X92964630Y-123179249D01*
X92964632Y-123179257D01*
X93018970Y-123334546D01*
X93022531Y-123404324D01*
X92987802Y-123464952D01*
X92925809Y-123497179D01*
X92901928Y-123499500D01*
X77004428Y-123499500D01*
X76995582Y-123499184D01*
X76967549Y-123497179D01*
X76795442Y-123484869D01*
X76777931Y-123482351D01*
X76586212Y-123440646D01*
X76569236Y-123435662D01*
X76385390Y-123367090D01*
X76369298Y-123359740D01*
X76197095Y-123265711D01*
X76182210Y-123256146D01*
X76079496Y-123179255D01*
X76025132Y-123138558D01*
X76011762Y-123126972D01*
X75873027Y-122988237D01*
X75861441Y-122974867D01*
X75817381Y-122916010D01*
X75743849Y-122817784D01*
X75734288Y-122802904D01*
X75640259Y-122630701D01*
X75632909Y-122614609D01*
X75620254Y-122580681D01*
X75564334Y-122430755D01*
X75559355Y-122413797D01*
X75517647Y-122222063D01*
X75515130Y-122204556D01*
X75513320Y-122179255D01*
X75500816Y-122004418D01*
X75500500Y-121995572D01*
X75500500Y-118500003D01*
X76194435Y-118500003D01*
X76214630Y-118679249D01*
X76214631Y-118679254D01*
X76274211Y-118849523D01*
X76353549Y-118975788D01*
X76370184Y-119002262D01*
X76497738Y-119129816D01*
X76543110Y-119158325D01*
X76649871Y-119225408D01*
X76650478Y-119225789D01*
X76780204Y-119271182D01*
X76820745Y-119285368D01*
X76820750Y-119285369D01*
X76999996Y-119305565D01*
X77000000Y-119305565D01*
X77000004Y-119305565D01*
X77179249Y-119285369D01*
X77179252Y-119285368D01*
X77179255Y-119285368D01*
X77349522Y-119225789D01*
X77350129Y-119225408D01*
X77426650Y-119177326D01*
X77493887Y-119158325D01*
X77560722Y-119178692D01*
X77597616Y-119216346D01*
X77620182Y-119252260D01*
X77620184Y-119252262D01*
X77747738Y-119379816D01*
X77754494Y-119384061D01*
X77900480Y-119475790D01*
X77948792Y-119492696D01*
X78005568Y-119533417D01*
X78031315Y-119598370D01*
X78020649Y-119657498D01*
X78021464Y-119657783D01*
X78019677Y-119662889D01*
X78019562Y-119663528D01*
X78019165Y-119664351D01*
X77959587Y-119834614D01*
X77959584Y-119834627D01*
X77939389Y-120013873D01*
X77939389Y-120013880D01*
X77959584Y-120193126D01*
X77959585Y-120193131D01*
X78019165Y-120363400D01*
X78023428Y-120370184D01*
X78115138Y-120516139D01*
X78242692Y-120643693D01*
X78395432Y-120739666D01*
X78565699Y-120799245D01*
X78565704Y-120799246D01*
X78744950Y-120819442D01*
X78744954Y-120819442D01*
X78744958Y-120819442D01*
X78924203Y-120799246D01*
X78924206Y-120799245D01*
X78924209Y-120799245D01*
X79094476Y-120739666D01*
X79247216Y-120643693D01*
X79374770Y-120516139D01*
X79470743Y-120363399D01*
X79530322Y-120193132D01*
X79550519Y-120013877D01*
X79530322Y-119834622D01*
X79470743Y-119664355D01*
X79470740Y-119664351D01*
X79374769Y-119511614D01*
X79247216Y-119384061D01*
X79094475Y-119288087D01*
X79046162Y-119271182D01*
X78989386Y-119230460D01*
X78963638Y-119165507D01*
X78974307Y-119106381D01*
X78973489Y-119106095D01*
X78975286Y-119100957D01*
X78975400Y-119100330D01*
X78975788Y-119099523D01*
X78975789Y-119099522D01*
X79035368Y-118929255D01*
X79035369Y-118929249D01*
X79055565Y-118750003D01*
X79055565Y-118749996D01*
X79035369Y-118570750D01*
X79035368Y-118570745D01*
X79010612Y-118499996D01*
X78975789Y-118400478D01*
X78881239Y-118250003D01*
X89194435Y-118250003D01*
X89214630Y-118429249D01*
X89214631Y-118429254D01*
X89274211Y-118599523D01*
X89368760Y-118749996D01*
X89370184Y-118752262D01*
X89497738Y-118879816D01*
X89650478Y-118975789D01*
X89820745Y-119035368D01*
X89820750Y-119035369D01*
X89999996Y-119055565D01*
X90000000Y-119055565D01*
X90000004Y-119055565D01*
X90179249Y-119035369D01*
X90179252Y-119035368D01*
X90179255Y-119035368D01*
X90349522Y-118975789D01*
X90502262Y-118879816D01*
X90629816Y-118752262D01*
X90725789Y-118599522D01*
X90785368Y-118429255D01*
X90785369Y-118429249D01*
X90805565Y-118250003D01*
X90805565Y-118249996D01*
X90785369Y-118070750D01*
X90785368Y-118070745D01*
X90748237Y-117964632D01*
X90725789Y-117900478D01*
X90629816Y-117747738D01*
X90502262Y-117620184D01*
X90349523Y-117524211D01*
X90179254Y-117464631D01*
X90179249Y-117464630D01*
X90000004Y-117444435D01*
X89999996Y-117444435D01*
X89820750Y-117464630D01*
X89820745Y-117464631D01*
X89650476Y-117524211D01*
X89497737Y-117620184D01*
X89370184Y-117747737D01*
X89274211Y-117900476D01*
X89214631Y-118070745D01*
X89214630Y-118070750D01*
X89194435Y-118249996D01*
X89194435Y-118250003D01*
X78881239Y-118250003D01*
X78879816Y-118247738D01*
X78752262Y-118120184D01*
X78599523Y-118024211D01*
X78462777Y-117976362D01*
X78406001Y-117935640D01*
X78380254Y-117870687D01*
X78386690Y-117818366D01*
X78435368Y-117679255D01*
X78435369Y-117679249D01*
X78455565Y-117500003D01*
X78455565Y-117499996D01*
X78435369Y-117320750D01*
X78435368Y-117320745D01*
X78375788Y-117150476D01*
X78279815Y-116997737D01*
X78152262Y-116870184D01*
X77999523Y-116774211D01*
X77829254Y-116714631D01*
X77829249Y-116714630D01*
X77650004Y-116694435D01*
X77649996Y-116694435D01*
X77470750Y-116714630D01*
X77470745Y-116714631D01*
X77300476Y-116774211D01*
X77147737Y-116870184D01*
X77020184Y-116997737D01*
X76924211Y-117150476D01*
X76864631Y-117320745D01*
X76864630Y-117320750D01*
X76844435Y-117499996D01*
X76844435Y-117500005D01*
X76855729Y-117600252D01*
X76843674Y-117669073D01*
X76796324Y-117720452D01*
X76773464Y-117731175D01*
X76650480Y-117774209D01*
X76497737Y-117870184D01*
X76370184Y-117997737D01*
X76274211Y-118150476D01*
X76214631Y-118320745D01*
X76214630Y-118320750D01*
X76194435Y-118499996D01*
X76194435Y-118500003D01*
X75500500Y-118500003D01*
X75500500Y-116125003D01*
X89069435Y-116125003D01*
X89089630Y-116304249D01*
X89089631Y-116304254D01*
X89149211Y-116474523D01*
X89245184Y-116627262D01*
X89372738Y-116754816D01*
X89525478Y-116850789D01*
X89580906Y-116870184D01*
X89695745Y-116910368D01*
X89695750Y-116910369D01*
X89874996Y-116930565D01*
X89875000Y-116930565D01*
X89875004Y-116930565D01*
X90054249Y-116910369D01*
X90054252Y-116910368D01*
X90054255Y-116910368D01*
X90224522Y-116850789D01*
X90377262Y-116754816D01*
X90504816Y-116627262D01*
X90600789Y-116474522D01*
X90660368Y-116304255D01*
X90680565Y-116125000D01*
X90660368Y-115945745D01*
X90600789Y-115775478D01*
X90504816Y-115622738D01*
X90377262Y-115495184D01*
X90224523Y-115399211D01*
X90054254Y-115339631D01*
X90054249Y-115339630D01*
X89875004Y-115319435D01*
X89874996Y-115319435D01*
X89695750Y-115339630D01*
X89695745Y-115339631D01*
X89525476Y-115399211D01*
X89372737Y-115495184D01*
X89245184Y-115622737D01*
X89149211Y-115775476D01*
X89089631Y-115945745D01*
X89089630Y-115945750D01*
X89069435Y-116124996D01*
X89069435Y-116125003D01*
X75500500Y-116125003D01*
X75500500Y-111934109D01*
X75487443Y-111885380D01*
X75487443Y-111885378D01*
X75466393Y-111806815D01*
X75421566Y-111729174D01*
X75421566Y-111729173D01*
X75400502Y-111692689D01*
X75400501Y-111692688D01*
X75400500Y-111692686D01*
X75307314Y-111599500D01*
X75307313Y-111599499D01*
X75302983Y-111595169D01*
X75302972Y-111595159D01*
X68805696Y-105097883D01*
X65829102Y-102121288D01*
X70149500Y-102121288D01*
X70181161Y-102361785D01*
X70243947Y-102596104D01*
X70311864Y-102760070D01*
X70336776Y-102820212D01*
X70458064Y-103030289D01*
X70458066Y-103030292D01*
X70458067Y-103030293D01*
X70605733Y-103222736D01*
X70605739Y-103222743D01*
X70777256Y-103394260D01*
X70777263Y-103394266D01*
X70798886Y-103410858D01*
X70969711Y-103541936D01*
X71179788Y-103663224D01*
X71403900Y-103756054D01*
X71638211Y-103818838D01*
X71818586Y-103842584D01*
X71878711Y-103850500D01*
X71878712Y-103850500D01*
X72121289Y-103850500D01*
X72169388Y-103844167D01*
X72361789Y-103818838D01*
X72596100Y-103756054D01*
X72820212Y-103663224D01*
X73030289Y-103541936D01*
X73222738Y-103394265D01*
X73394265Y-103222738D01*
X73541936Y-103030289D01*
X73663224Y-102820212D01*
X73756054Y-102596100D01*
X73818838Y-102361789D01*
X73850500Y-102121288D01*
X73850500Y-101878712D01*
X73818838Y-101638211D01*
X73756054Y-101403900D01*
X73663224Y-101179788D01*
X73541936Y-100969711D01*
X73394265Y-100777262D01*
X73394260Y-100777256D01*
X73222743Y-100605739D01*
X73222736Y-100605733D01*
X73030293Y-100458067D01*
X73030292Y-100458066D01*
X73030289Y-100458064D01*
X72820212Y-100336776D01*
X72820205Y-100336773D01*
X72596104Y-100243947D01*
X72361785Y-100181161D01*
X72121289Y-100149500D01*
X72121288Y-100149500D01*
X71878712Y-100149500D01*
X71878711Y-100149500D01*
X71638214Y-100181161D01*
X71403895Y-100243947D01*
X71179794Y-100336773D01*
X71179785Y-100336777D01*
X71012352Y-100433445D01*
X70986289Y-100448493D01*
X70969706Y-100458067D01*
X70777263Y-100605733D01*
X70777256Y-100605739D01*
X70605739Y-100777256D01*
X70605733Y-100777263D01*
X70458067Y-100969706D01*
X70458064Y-100969710D01*
X70458064Y-100969711D01*
X70457420Y-100970826D01*
X70336777Y-101179785D01*
X70336773Y-101179794D01*
X70243947Y-101403895D01*
X70181161Y-101638214D01*
X70149500Y-101878711D01*
X70149500Y-102121288D01*
X65829102Y-102121288D01*
X62957817Y-99250003D01*
X64944435Y-99250003D01*
X64964630Y-99429249D01*
X64964631Y-99429254D01*
X65024211Y-99599523D01*
X65053040Y-99645403D01*
X65120184Y-99752262D01*
X65247738Y-99879816D01*
X65400478Y-99975789D01*
X65469675Y-100000002D01*
X65570745Y-100035368D01*
X65570750Y-100035369D01*
X65749996Y-100055565D01*
X65750000Y-100055565D01*
X65750004Y-100055565D01*
X65929249Y-100035369D01*
X65929252Y-100035368D01*
X65929255Y-100035368D01*
X66099522Y-99975789D01*
X66252262Y-99879816D01*
X66379816Y-99752262D01*
X66475789Y-99599522D01*
X66535368Y-99429255D01*
X66535369Y-99429249D01*
X66555565Y-99250003D01*
X66555565Y-99249996D01*
X66535369Y-99070750D01*
X66535368Y-99070745D01*
X66476485Y-98902468D01*
X66475789Y-98900478D01*
X66379816Y-98747738D01*
X66252262Y-98620184D01*
X66152557Y-98557535D01*
X66099523Y-98524211D01*
X65929254Y-98464631D01*
X65929249Y-98464630D01*
X65750004Y-98444435D01*
X65749996Y-98444435D01*
X65570750Y-98464630D01*
X65570745Y-98464631D01*
X65400476Y-98524211D01*
X65247737Y-98620184D01*
X65120184Y-98747737D01*
X65024211Y-98900476D01*
X64964631Y-99070745D01*
X64964630Y-99070750D01*
X64944435Y-99249996D01*
X64944435Y-99250003D01*
X62957817Y-99250003D01*
X62307314Y-98599500D01*
X62201831Y-98538599D01*
X62193187Y-98533608D01*
X62129539Y-98516554D01*
X62065892Y-98499500D01*
X62065891Y-98499500D01*
X52004428Y-98499500D01*
X51995582Y-98499184D01*
X51973622Y-98497613D01*
X51795442Y-98484869D01*
X51777931Y-98482351D01*
X51586212Y-98440646D01*
X51569236Y-98435662D01*
X51385390Y-98367090D01*
X51369298Y-98359740D01*
X51197095Y-98265711D01*
X51182210Y-98256146D01*
X51140410Y-98224855D01*
X51025132Y-98138558D01*
X51011762Y-98126972D01*
X50873027Y-97988237D01*
X50861441Y-97974867D01*
X50743849Y-97817784D01*
X50734288Y-97802904D01*
X50640259Y-97630701D01*
X50632909Y-97614609D01*
X50564334Y-97430755D01*
X50559355Y-97413797D01*
X50517647Y-97222063D01*
X50515130Y-97204556D01*
X50511262Y-97150478D01*
X50500816Y-97004418D01*
X50500500Y-96995572D01*
X50500500Y-95000003D01*
X56444435Y-95000003D01*
X56464630Y-95179249D01*
X56464631Y-95179254D01*
X56524211Y-95349523D01*
X56617341Y-95497737D01*
X56620184Y-95502262D01*
X56747738Y-95629816D01*
X56900478Y-95725789D01*
X57070745Y-95785368D01*
X57093543Y-95787936D01*
X57157956Y-95815002D01*
X57197512Y-95872597D01*
X57202880Y-95925040D01*
X57194435Y-95999995D01*
X57194435Y-96000003D01*
X57214630Y-96179249D01*
X57214631Y-96179254D01*
X57274211Y-96349523D01*
X57312847Y-96411011D01*
X57370184Y-96502262D01*
X57497738Y-96629816D01*
X57522508Y-96645380D01*
X57632721Y-96714632D01*
X57650478Y-96725789D01*
X57719678Y-96750003D01*
X57820745Y-96785368D01*
X57820750Y-96785369D01*
X57999996Y-96805565D01*
X58000000Y-96805565D01*
X58000004Y-96805565D01*
X58179249Y-96785369D01*
X58179252Y-96785368D01*
X58179255Y-96785368D01*
X58349522Y-96725789D01*
X58502262Y-96629816D01*
X58629816Y-96502262D01*
X58725789Y-96349522D01*
X58785368Y-96179255D01*
X58785369Y-96179249D01*
X58805565Y-96000003D01*
X58805565Y-95999996D01*
X58785369Y-95820750D01*
X58785368Y-95820745D01*
X58762939Y-95756648D01*
X58725789Y-95650478D01*
X58723602Y-95646998D01*
X58679934Y-95577500D01*
X58629816Y-95497738D01*
X58509504Y-95377426D01*
X65194435Y-95377426D01*
X65214630Y-95556672D01*
X65214631Y-95556677D01*
X65274211Y-95726946D01*
X65339908Y-95831501D01*
X65370184Y-95879685D01*
X65497738Y-96007239D01*
X65588080Y-96064005D01*
X65644603Y-96099521D01*
X65650478Y-96103212D01*
X65704557Y-96122135D01*
X65820745Y-96162791D01*
X65820750Y-96162792D01*
X65999996Y-96182988D01*
X66000000Y-96182988D01*
X66000004Y-96182988D01*
X66179249Y-96162792D01*
X66179252Y-96162791D01*
X66179255Y-96162791D01*
X66349522Y-96103212D01*
X66502262Y-96007239D01*
X66609498Y-95900003D01*
X68145071Y-95900003D01*
X68165266Y-96079249D01*
X68165267Y-96079254D01*
X68224847Y-96249523D01*
X68306715Y-96379814D01*
X68320820Y-96402262D01*
X68448374Y-96529816D01*
X68601114Y-96625789D01*
X68657102Y-96645380D01*
X68771381Y-96685368D01*
X68771386Y-96685369D01*
X68950632Y-96705565D01*
X68950636Y-96705565D01*
X68950640Y-96705565D01*
X69129885Y-96685369D01*
X69129888Y-96685368D01*
X69129891Y-96685368D01*
X69300158Y-96625789D01*
X69452898Y-96529816D01*
X69580452Y-96402262D01*
X69676425Y-96249522D01*
X69736004Y-96079255D01*
X69736005Y-96079249D01*
X69756201Y-95900003D01*
X69756201Y-95899996D01*
X69736005Y-95720750D01*
X69736004Y-95720745D01*
X69723727Y-95685659D01*
X69676425Y-95550478D01*
X69661115Y-95526113D01*
X69637218Y-95488080D01*
X69580452Y-95397738D01*
X69452898Y-95270184D01*
X69300159Y-95174211D01*
X69129890Y-95114631D01*
X69129885Y-95114630D01*
X68950640Y-95094435D01*
X68950632Y-95094435D01*
X68771386Y-95114630D01*
X68771381Y-95114631D01*
X68601112Y-95174211D01*
X68448373Y-95270184D01*
X68320820Y-95397737D01*
X68224847Y-95550476D01*
X68165267Y-95720745D01*
X68165266Y-95720750D01*
X68145071Y-95899996D01*
X68145071Y-95900003D01*
X66609498Y-95900003D01*
X66629816Y-95879685D01*
X66725789Y-95726945D01*
X66745962Y-95669290D01*
X66786683Y-95612516D01*
X66849125Y-95587025D01*
X66860964Y-95585692D01*
X67031231Y-95526113D01*
X67183971Y-95430140D01*
X67311525Y-95302586D01*
X67394499Y-95170532D01*
X67446831Y-95124244D01*
X67485607Y-95113286D01*
X67504990Y-95111103D01*
X67675257Y-95051524D01*
X67827997Y-94955551D01*
X67955551Y-94827997D01*
X68051524Y-94675257D01*
X68111103Y-94504990D01*
X68111920Y-94497738D01*
X68131300Y-94325738D01*
X68131300Y-94325731D01*
X68111104Y-94146485D01*
X68111103Y-94146480D01*
X68092947Y-94094592D01*
X68051524Y-93976213D01*
X68041039Y-93959527D01*
X67990953Y-93879815D01*
X67955551Y-93823473D01*
X67827997Y-93695919D01*
X67811239Y-93685389D01*
X67675258Y-93599946D01*
X67504989Y-93540366D01*
X67504984Y-93540365D01*
X67325739Y-93520170D01*
X67325731Y-93520170D01*
X67146485Y-93540365D01*
X67146480Y-93540366D01*
X66976211Y-93599946D01*
X66823472Y-93695919D01*
X66695919Y-93823472D01*
X66612946Y-93955523D01*
X66560611Y-94001814D01*
X66521838Y-94012771D01*
X66502459Y-94014954D01*
X66332187Y-94074534D01*
X66179446Y-94170508D01*
X66051893Y-94298061D01*
X65955921Y-94450799D01*
X65935745Y-94508456D01*
X65895022Y-94565231D01*
X65832594Y-94590719D01*
X65820749Y-94592054D01*
X65820746Y-94592054D01*
X65820745Y-94592055D01*
X65772129Y-94609066D01*
X65650478Y-94651633D01*
X65497737Y-94747607D01*
X65370184Y-94875160D01*
X65274211Y-95027899D01*
X65214631Y-95198168D01*
X65214630Y-95198173D01*
X65194435Y-95377419D01*
X65194435Y-95377426D01*
X58509504Y-95377426D01*
X58502262Y-95370184D01*
X58394681Y-95302586D01*
X58349523Y-95274211D01*
X58179253Y-95214631D01*
X58156453Y-95212062D01*
X58092040Y-95184994D01*
X58052486Y-95127399D01*
X58047119Y-95074958D01*
X58055565Y-95000002D01*
X58055565Y-94999996D01*
X58035369Y-94820750D01*
X58035368Y-94820745D01*
X57993095Y-94699937D01*
X57975789Y-94650478D01*
X57879816Y-94497738D01*
X57752262Y-94370184D01*
X57637481Y-94298062D01*
X57599523Y-94274211D01*
X57429254Y-94214631D01*
X57429249Y-94214630D01*
X57250004Y-94194435D01*
X57249996Y-94194435D01*
X57070750Y-94214630D01*
X57070745Y-94214631D01*
X56900476Y-94274211D01*
X56747737Y-94370184D01*
X56620184Y-94497737D01*
X56524211Y-94650476D01*
X56464631Y-94820745D01*
X56464630Y-94820750D01*
X56444435Y-94999996D01*
X56444435Y-95000003D01*
X50500500Y-95000003D01*
X50500500Y-91750003D01*
X50944435Y-91750003D01*
X50964630Y-91929249D01*
X50964631Y-91929254D01*
X51024211Y-92099523D01*
X51102751Y-92224518D01*
X51120184Y-92252262D01*
X51247738Y-92379816D01*
X51331134Y-92432217D01*
X51387817Y-92467834D01*
X51400478Y-92475789D01*
X51538860Y-92524211D01*
X51570745Y-92535368D01*
X51570750Y-92535369D01*
X51749996Y-92555565D01*
X51750000Y-92555565D01*
X51750004Y-92555565D01*
X51929249Y-92535369D01*
X51929252Y-92535368D01*
X51929255Y-92535368D01*
X52099522Y-92475789D01*
X52252262Y-92379816D01*
X52379816Y-92252262D01*
X52475789Y-92099522D01*
X52535368Y-91929255D01*
X52538721Y-91899499D01*
X52555565Y-91750003D01*
X52555565Y-91749996D01*
X52535369Y-91570750D01*
X52535368Y-91570745D01*
X52475788Y-91400476D01*
X52429202Y-91326335D01*
X52379816Y-91247738D01*
X52252262Y-91120184D01*
X52139421Y-91049281D01*
X52099523Y-91024211D01*
X51929254Y-90964631D01*
X51929249Y-90964630D01*
X51750004Y-90944435D01*
X51749996Y-90944435D01*
X51570750Y-90964630D01*
X51570745Y-90964631D01*
X51400476Y-91024211D01*
X51247737Y-91120184D01*
X51120184Y-91247737D01*
X51024211Y-91400476D01*
X50964631Y-91570745D01*
X50964630Y-91570750D01*
X50944435Y-91749996D01*
X50944435Y-91750003D01*
X50500500Y-91750003D01*
X50500500Y-88000003D01*
X53444435Y-88000003D01*
X53464630Y-88179249D01*
X53464631Y-88179254D01*
X53524211Y-88349523D01*
X53613041Y-88490894D01*
X53620184Y-88502262D01*
X53747738Y-88629816D01*
X53900478Y-88725789D01*
X54049594Y-88777967D01*
X54070745Y-88785368D01*
X54070750Y-88785369D01*
X54249996Y-88805565D01*
X54250000Y-88805565D01*
X54250004Y-88805565D01*
X54429249Y-88785369D01*
X54429252Y-88785368D01*
X54429255Y-88785368D01*
X54599522Y-88725789D01*
X54752262Y-88629816D01*
X54879816Y-88502262D01*
X54975789Y-88349522D01*
X55035368Y-88179255D01*
X55036001Y-88173636D01*
X55055565Y-88000003D01*
X55055565Y-87999996D01*
X55035369Y-87820750D01*
X55035368Y-87820745D01*
X55008458Y-87743840D01*
X54975789Y-87650478D01*
X54975489Y-87650001D01*
X54903461Y-87535369D01*
X54879816Y-87497738D01*
X54752262Y-87370184D01*
X54712219Y-87345023D01*
X54599523Y-87274211D01*
X54429254Y-87214631D01*
X54429249Y-87214630D01*
X54250004Y-87194435D01*
X54249996Y-87194435D01*
X54070750Y-87214630D01*
X54070745Y-87214631D01*
X53900476Y-87274211D01*
X53747737Y-87370184D01*
X53620184Y-87497737D01*
X53524211Y-87650476D01*
X53464631Y-87820745D01*
X53464630Y-87820750D01*
X53444435Y-87999996D01*
X53444435Y-88000003D01*
X50500500Y-88000003D01*
X50500500Y-81181940D01*
X50520185Y-81114901D01*
X50572989Y-81069146D01*
X50642147Y-81059202D01*
X50705703Y-81088227D01*
X50712181Y-81094259D01*
X50747738Y-81129816D01*
X50825328Y-81178569D01*
X50893029Y-81221109D01*
X50900478Y-81225789D01*
X50995158Y-81258919D01*
X51070745Y-81285368D01*
X51070750Y-81285369D01*
X51249996Y-81305565D01*
X51250000Y-81305565D01*
X51250004Y-81305565D01*
X51429249Y-81285369D01*
X51429251Y-81285368D01*
X51429255Y-81285368D01*
X51429258Y-81285366D01*
X51429262Y-81285366D01*
X51536840Y-81247723D01*
X51606619Y-81244161D01*
X51667246Y-81278889D01*
X51699474Y-81340883D01*
X51693069Y-81410458D01*
X51665477Y-81452444D01*
X51620184Y-81497737D01*
X51524211Y-81650476D01*
X51464631Y-81820745D01*
X51464630Y-81820750D01*
X51444435Y-81999996D01*
X51444435Y-82000003D01*
X51464630Y-82179249D01*
X51464631Y-82179254D01*
X51524211Y-82349523D01*
X51614734Y-82493589D01*
X51620184Y-82502262D01*
X51747738Y-82629816D01*
X51900478Y-82725789D01*
X52070739Y-82785366D01*
X52070745Y-82785368D01*
X52070750Y-82785369D01*
X52249996Y-82805565D01*
X52250000Y-82805565D01*
X52250004Y-82805565D01*
X52429249Y-82785369D01*
X52429252Y-82785368D01*
X52429255Y-82785368D01*
X52599522Y-82725789D01*
X52752262Y-82629816D01*
X52879816Y-82502262D01*
X52975789Y-82349522D01*
X53007958Y-82257587D01*
X53048680Y-82200812D01*
X53113633Y-82175065D01*
X53182194Y-82188521D01*
X53232597Y-82236908D01*
X53242042Y-82257588D01*
X53274211Y-82349523D01*
X53364734Y-82493589D01*
X53370184Y-82502262D01*
X53497738Y-82629816D01*
X53650478Y-82725789D01*
X53820739Y-82785366D01*
X53820745Y-82785368D01*
X53820750Y-82785369D01*
X53999996Y-82805565D01*
X54000000Y-82805565D01*
X54000004Y-82805565D01*
X54179249Y-82785369D01*
X54179252Y-82785368D01*
X54179255Y-82785368D01*
X54349522Y-82725789D01*
X54502262Y-82629816D01*
X54629816Y-82502262D01*
X54725789Y-82349522D01*
X54783867Y-82183545D01*
X54824589Y-82126769D01*
X54889542Y-82101022D01*
X54900909Y-82100500D01*
X56322524Y-82100500D01*
X56389563Y-82120185D01*
X56435318Y-82172989D01*
X56445744Y-82238386D01*
X56444435Y-82250001D01*
X56444435Y-82250003D01*
X56464630Y-82429249D01*
X56464633Y-82429262D01*
X56524209Y-82599520D01*
X56577309Y-82684029D01*
X56596309Y-82751266D01*
X56577309Y-82815971D01*
X56524209Y-82900479D01*
X56464633Y-83070737D01*
X56464630Y-83070750D01*
X56444435Y-83249996D01*
X56444435Y-83250003D01*
X56464630Y-83429249D01*
X56464633Y-83429262D01*
X56524209Y-83599520D01*
X56577309Y-83684029D01*
X56596309Y-83751266D01*
X56577309Y-83815971D01*
X56524209Y-83900479D01*
X56464633Y-84070737D01*
X56464630Y-84070750D01*
X56444435Y-84249996D01*
X56444435Y-84250003D01*
X56464630Y-84429249D01*
X56464631Y-84429254D01*
X56524211Y-84599523D01*
X56597016Y-84715391D01*
X56620184Y-84752262D01*
X56747738Y-84879816D01*
X56900478Y-84975789D01*
X57070745Y-85035368D01*
X57139384Y-85043101D01*
X57203796Y-85070166D01*
X57243352Y-85127760D01*
X57249500Y-85166321D01*
X57249500Y-86763330D01*
X57249499Y-86763348D01*
X57249499Y-86929054D01*
X57249498Y-86929054D01*
X57290423Y-87081786D01*
X57300663Y-87099520D01*
X57300665Y-87099525D01*
X57369475Y-87218709D01*
X57369481Y-87218717D01*
X57419298Y-87268534D01*
X57452783Y-87329857D01*
X57454837Y-87342331D01*
X57464630Y-87429249D01*
X57464631Y-87429254D01*
X57464632Y-87429255D01*
X57469944Y-87444435D01*
X57526511Y-87606095D01*
X57524367Y-87606845D01*
X57533960Y-87665161D01*
X57525612Y-87693595D01*
X57526510Y-87693909D01*
X57464633Y-87870740D01*
X57464630Y-87870753D01*
X57444435Y-88049999D01*
X57444435Y-88050006D01*
X57464630Y-88229252D01*
X57464631Y-88229257D01*
X57524211Y-88399526D01*
X57588685Y-88502135D01*
X57620184Y-88552265D01*
X57747738Y-88679819D01*
X57820897Y-88725788D01*
X57897961Y-88774211D01*
X57900478Y-88775792D01*
X58015446Y-88816021D01*
X58070745Y-88835371D01*
X58070750Y-88835372D01*
X58249996Y-88855568D01*
X58250000Y-88855568D01*
X58250004Y-88855568D01*
X58429249Y-88835372D01*
X58429252Y-88835371D01*
X58429255Y-88835371D01*
X58599522Y-88775792D01*
X58752262Y-88679819D01*
X58879816Y-88552265D01*
X58975789Y-88399525D01*
X59035368Y-88229258D01*
X59037368Y-88211506D01*
X59055565Y-88050006D01*
X59055565Y-88049999D01*
X59035369Y-87870753D01*
X59035368Y-87870748D01*
X58973489Y-87693908D01*
X58975635Y-87693156D01*
X58966037Y-87634857D01*
X58974391Y-87606410D01*
X58973489Y-87606095D01*
X59035366Y-87429262D01*
X59035369Y-87429249D01*
X59055565Y-87250003D01*
X59055565Y-87249996D01*
X59035369Y-87070750D01*
X59035368Y-87070745D01*
X58991512Y-86945413D01*
X58975789Y-86900478D01*
X58879816Y-86747738D01*
X58752262Y-86620184D01*
X58686209Y-86578680D01*
X58599524Y-86524212D01*
X58599523Y-86524211D01*
X58533544Y-86501124D01*
X58476769Y-86460402D01*
X58451022Y-86395449D01*
X58450500Y-86384083D01*
X58450500Y-85171955D01*
X58470185Y-85104916D01*
X58522989Y-85059161D01*
X58560615Y-85048735D01*
X58593568Y-85045022D01*
X58679250Y-85035369D01*
X58679253Y-85035368D01*
X58679255Y-85035368D01*
X58849522Y-84975789D01*
X59002262Y-84879816D01*
X59129816Y-84752262D01*
X59225789Y-84599522D01*
X59285368Y-84429255D01*
X59285617Y-84427048D01*
X59305565Y-84250003D01*
X59305565Y-84249996D01*
X59285369Y-84070750D01*
X59285368Y-84070745D01*
X59237724Y-83934586D01*
X59225789Y-83900478D01*
X59129816Y-83747738D01*
X59002262Y-83620184D01*
X58969379Y-83599522D01*
X58849523Y-83524211D01*
X58679254Y-83464631D01*
X58679250Y-83464630D01*
X58560616Y-83451264D01*
X58496202Y-83424197D01*
X58456647Y-83366603D01*
X58450500Y-83328044D01*
X58450500Y-82770945D01*
X58450500Y-82770943D01*
X58427346Y-82684530D01*
X58409577Y-82618215D01*
X58369162Y-82548215D01*
X58369162Y-82548214D01*
X58330522Y-82481287D01*
X58330521Y-82481286D01*
X58330520Y-82481284D01*
X58218716Y-82369480D01*
X58218715Y-82369479D01*
X58214385Y-82365149D01*
X58214374Y-82365139D01*
X58080700Y-82231465D01*
X58047215Y-82170142D01*
X58045163Y-82157686D01*
X58035368Y-82070745D01*
X57975789Y-81900478D01*
X57973181Y-81896328D01*
X57921499Y-81814076D01*
X57902498Y-81746839D01*
X57922865Y-81680004D01*
X57938806Y-81660427D01*
X58154810Y-81444423D01*
X58216131Y-81410940D01*
X58285823Y-81415924D01*
X58341756Y-81457796D01*
X58347482Y-81466133D01*
X58367341Y-81497737D01*
X58370184Y-81502262D01*
X58497738Y-81629816D01*
X58552995Y-81664536D01*
X58643763Y-81721570D01*
X58650478Y-81725789D01*
X58713205Y-81747738D01*
X58820745Y-81785368D01*
X58820750Y-81785369D01*
X58999996Y-81805565D01*
X59000000Y-81805565D01*
X59000004Y-81805565D01*
X59179249Y-81785369D01*
X59179252Y-81785368D01*
X59179255Y-81785368D01*
X59349522Y-81725789D01*
X59502262Y-81629816D01*
X59599689Y-81532389D01*
X59661012Y-81498904D01*
X59728325Y-81503028D01*
X59747271Y-81509658D01*
X59820740Y-81535367D01*
X59820750Y-81535369D01*
X59999996Y-81555565D01*
X60000000Y-81555565D01*
X60000004Y-81555565D01*
X60179249Y-81535369D01*
X60179252Y-81535368D01*
X60179255Y-81535368D01*
X60349522Y-81475789D01*
X60502262Y-81379816D01*
X60629816Y-81252262D01*
X60629818Y-81252257D01*
X60633865Y-81247185D01*
X60691054Y-81207046D01*
X60730810Y-81200500D01*
X61099903Y-81200500D01*
X61166942Y-81220185D01*
X61187584Y-81236819D01*
X61815139Y-81864374D01*
X61815149Y-81864385D01*
X61819479Y-81868715D01*
X61819480Y-81868716D01*
X61931284Y-81980520D01*
X62006960Y-82024211D01*
X62068215Y-82059577D01*
X62220942Y-82100500D01*
X62220943Y-82100500D01*
X62866937Y-82100500D01*
X62933976Y-82120185D01*
X62979731Y-82172989D01*
X62989675Y-82242147D01*
X62983978Y-82265455D01*
X62964633Y-82320737D01*
X62964630Y-82320750D01*
X62944435Y-82499994D01*
X62944435Y-82500003D01*
X62964630Y-82679249D01*
X62964631Y-82679254D01*
X63024211Y-82849523D01*
X63077774Y-82934767D01*
X63120184Y-83002262D01*
X63247738Y-83129816D01*
X63310573Y-83169298D01*
X63382721Y-83214632D01*
X63400478Y-83225789D01*
X63538857Y-83274210D01*
X63570745Y-83285368D01*
X63570750Y-83285369D01*
X63749996Y-83305565D01*
X63750000Y-83305565D01*
X63750004Y-83305565D01*
X63929249Y-83285369D01*
X63929252Y-83285368D01*
X63929255Y-83285368D01*
X64099522Y-83225789D01*
X64252262Y-83129816D01*
X64379816Y-83002262D01*
X64475789Y-82849522D01*
X64535368Y-82679255D01*
X64536580Y-82668498D01*
X64555565Y-82500003D01*
X64555565Y-82499994D01*
X64535369Y-82320750D01*
X64535366Y-82320737D01*
X64516022Y-82265455D01*
X64512460Y-82195676D01*
X64547188Y-82135049D01*
X64609182Y-82102821D01*
X64633063Y-82100500D01*
X64913331Y-82100500D01*
X64913347Y-82100501D01*
X64920943Y-82100501D01*
X65079054Y-82100501D01*
X65079057Y-82100501D01*
X65231785Y-82059577D01*
X65293040Y-82024211D01*
X65368716Y-81980520D01*
X65480520Y-81868716D01*
X65480520Y-81868714D01*
X65490724Y-81858511D01*
X65490727Y-81858506D01*
X66252723Y-81096511D01*
X66314045Y-81063027D01*
X66383737Y-81068011D01*
X66439670Y-81109883D01*
X66463623Y-81170306D01*
X66464631Y-81179251D01*
X66464631Y-81179254D01*
X66524211Y-81349523D01*
X66602409Y-81473974D01*
X66620184Y-81502262D01*
X66747738Y-81629816D01*
X66802995Y-81664536D01*
X66893763Y-81721570D01*
X66900478Y-81725789D01*
X66963205Y-81747738D01*
X67070745Y-81785368D01*
X67070750Y-81785369D01*
X67249996Y-81805565D01*
X67250000Y-81805565D01*
X67250004Y-81805565D01*
X67429249Y-81785369D01*
X67429252Y-81785368D01*
X67429255Y-81785368D01*
X67599522Y-81725789D01*
X67752262Y-81629816D01*
X67879816Y-81502262D01*
X67975789Y-81349522D01*
X68035368Y-81179255D01*
X68035368Y-81179252D01*
X68035369Y-81179249D01*
X68055565Y-81000003D01*
X68055565Y-80999996D01*
X68035369Y-80820750D01*
X68035368Y-80820745D01*
X68001110Y-80722841D01*
X67975789Y-80650478D01*
X67974077Y-80647754D01*
X67899859Y-80529636D01*
X67879816Y-80497738D01*
X67752262Y-80370184D01*
X67700026Y-80337362D01*
X67599523Y-80274211D01*
X67429253Y-80214631D01*
X67420306Y-80213623D01*
X67355893Y-80186554D01*
X67316339Y-80128958D01*
X67314204Y-80059121D01*
X67346510Y-80002724D01*
X68480520Y-78868716D01*
X68559577Y-78731784D01*
X68600501Y-78579057D01*
X68600501Y-78420942D01*
X68600501Y-78413347D01*
X68600500Y-78413329D01*
X68600500Y-75010096D01*
X68620185Y-74943057D01*
X68636814Y-74922420D01*
X69962304Y-73596929D01*
X70023625Y-73563446D01*
X70093317Y-73568430D01*
X70149250Y-73610302D01*
X70173667Y-73675766D01*
X70172922Y-73700797D01*
X70149500Y-73878711D01*
X70149500Y-74121288D01*
X70179096Y-74346100D01*
X70181162Y-74361789D01*
X70186025Y-74379937D01*
X70243947Y-74596104D01*
X70245560Y-74599997D01*
X70336776Y-74820212D01*
X70458064Y-75030289D01*
X70458066Y-75030292D01*
X70458067Y-75030293D01*
X70605733Y-75222736D01*
X70605739Y-75222743D01*
X70777256Y-75394260D01*
X70777263Y-75394266D01*
X70840214Y-75442570D01*
X70969711Y-75541936D01*
X71179788Y-75663224D01*
X71403900Y-75756054D01*
X71638211Y-75818838D01*
X71818586Y-75842584D01*
X71878711Y-75850500D01*
X71878712Y-75850500D01*
X72121289Y-75850500D01*
X72169388Y-75844167D01*
X72361789Y-75818838D01*
X72596100Y-75756054D01*
X72820212Y-75663224D01*
X73030289Y-75541936D01*
X73222738Y-75394265D01*
X73394265Y-75222738D01*
X73541936Y-75030289D01*
X73663224Y-74820212D01*
X73756054Y-74596100D01*
X73818838Y-74361789D01*
X73850500Y-74121288D01*
X73850500Y-73878712D01*
X73818838Y-73638211D01*
X73756054Y-73403900D01*
X73663224Y-73179788D01*
X73541936Y-72969711D01*
X73394265Y-72777262D01*
X73394260Y-72777256D01*
X73222743Y-72605739D01*
X73222736Y-72605733D01*
X73030293Y-72458067D01*
X73030292Y-72458066D01*
X73030289Y-72458064D01*
X72853050Y-72355735D01*
X72820214Y-72336777D01*
X72820205Y-72336773D01*
X72596104Y-72243947D01*
X72361785Y-72181161D01*
X72121289Y-72149500D01*
X72121288Y-72149500D01*
X71878712Y-72149500D01*
X71878711Y-72149500D01*
X71700797Y-72172922D01*
X71631761Y-72162156D01*
X71579506Y-72115776D01*
X71560621Y-72048507D01*
X71581102Y-71981706D01*
X71596926Y-71962307D01*
X76802375Y-66756858D01*
X76863696Y-66723375D01*
X76933388Y-66728359D01*
X76989321Y-66770231D01*
X77013738Y-66835695D01*
X77013582Y-66855348D01*
X77002677Y-66979997D01*
X77002677Y-66980002D01*
X77021929Y-67200062D01*
X77021932Y-67200076D01*
X77041178Y-67271906D01*
X77039515Y-67341755D01*
X77009084Y-67391679D01*
X75381286Y-69019478D01*
X75269481Y-69131282D01*
X75269479Y-69131285D01*
X75219361Y-69218094D01*
X75219359Y-69218096D01*
X75190425Y-69268209D01*
X75190424Y-69268210D01*
X75190423Y-69268215D01*
X75149499Y-69420943D01*
X75149499Y-69420945D01*
X75149499Y-69589046D01*
X75149500Y-69589059D01*
X75149500Y-79199903D01*
X75129815Y-79266942D01*
X75113181Y-79287584D01*
X68387585Y-86013180D01*
X68326262Y-86046665D01*
X68299904Y-86049499D01*
X68270942Y-86049499D01*
X68159899Y-86079253D01*
X68090049Y-86077590D01*
X68032187Y-86038427D01*
X68010764Y-86000432D01*
X67998236Y-85964630D01*
X67975789Y-85900478D01*
X67879816Y-85747738D01*
X67762897Y-85630819D01*
X67729412Y-85569496D01*
X67734396Y-85499804D01*
X67745583Y-85477168D01*
X67825789Y-85349522D01*
X67885368Y-85179255D01*
X67886191Y-85171955D01*
X67905565Y-85000003D01*
X67905565Y-84999996D01*
X67885369Y-84820750D01*
X67885368Y-84820745D01*
X67860612Y-84749996D01*
X67825789Y-84650478D01*
X67824092Y-84647778D01*
X67786582Y-84588080D01*
X67729816Y-84497738D01*
X67602262Y-84370184D01*
X67583231Y-84358226D01*
X67449523Y-84274211D01*
X67279254Y-84214631D01*
X67279249Y-84214630D01*
X67100004Y-84194435D01*
X67099996Y-84194435D01*
X66920750Y-84214630D01*
X66920745Y-84214631D01*
X66750476Y-84274211D01*
X66597737Y-84370184D01*
X66470184Y-84497737D01*
X66404994Y-84601487D01*
X66352659Y-84647778D01*
X66283605Y-84658426D01*
X66219757Y-84630051D01*
X66195006Y-84601487D01*
X66179428Y-84576696D01*
X66129816Y-84497738D01*
X66002262Y-84370184D01*
X65983231Y-84358226D01*
X65849523Y-84274211D01*
X65679254Y-84214631D01*
X65679249Y-84214630D01*
X65500004Y-84194435D01*
X65499996Y-84194435D01*
X65320750Y-84214630D01*
X65320745Y-84214631D01*
X65150476Y-84274211D01*
X64997737Y-84370184D01*
X64870184Y-84497737D01*
X64774211Y-84650476D01*
X64714631Y-84820745D01*
X64714630Y-84820750D01*
X64694435Y-84999996D01*
X64694435Y-85000003D01*
X64714630Y-85179249D01*
X64714633Y-85179262D01*
X64776510Y-85356094D01*
X64774366Y-85356843D01*
X64783960Y-85415161D01*
X64775612Y-85443595D01*
X64776510Y-85443909D01*
X64714633Y-85620740D01*
X64714630Y-85620753D01*
X64694435Y-85799999D01*
X64694435Y-85800006D01*
X64714630Y-85979252D01*
X64714631Y-85979257D01*
X64774211Y-86149526D01*
X64870184Y-86302265D01*
X64908226Y-86340307D01*
X64941711Y-86401630D01*
X64936727Y-86471322D01*
X64894855Y-86527255D01*
X64886518Y-86532981D01*
X64747740Y-86620182D01*
X64747737Y-86620184D01*
X64620184Y-86747737D01*
X64524211Y-86900476D01*
X64464631Y-87070745D01*
X64464630Y-87070750D01*
X64444435Y-87249996D01*
X64444435Y-87250003D01*
X64464630Y-87429249D01*
X64464633Y-87429262D01*
X64483978Y-87484545D01*
X64487540Y-87554324D01*
X64452812Y-87614951D01*
X64390818Y-87647179D01*
X64366937Y-87649500D01*
X62086670Y-87649500D01*
X62086654Y-87649499D01*
X62079058Y-87649499D01*
X61920943Y-87649499D01*
X61862493Y-87665161D01*
X61768214Y-87690423D01*
X61768213Y-87690424D01*
X61726535Y-87714486D01*
X61658634Y-87730956D01*
X61592608Y-87708102D01*
X61576857Y-87694779D01*
X61547239Y-87665161D01*
X61502262Y-87620184D01*
X61440530Y-87581395D01*
X61349523Y-87524211D01*
X61179254Y-87464631D01*
X61179249Y-87464630D01*
X61000004Y-87444435D01*
X60999996Y-87444435D01*
X60820750Y-87464630D01*
X60820745Y-87464631D01*
X60650476Y-87524211D01*
X60497737Y-87620184D01*
X60370184Y-87747737D01*
X60274211Y-87900476D01*
X60214631Y-88070745D01*
X60214630Y-88070750D01*
X60194435Y-88249996D01*
X60194435Y-88250003D01*
X60214630Y-88429249D01*
X60214631Y-88429254D01*
X60274211Y-88599523D01*
X60370184Y-88752262D01*
X60421661Y-88803739D01*
X60455146Y-88865062D01*
X60450162Y-88934754D01*
X60421661Y-88979101D01*
X58637584Y-90763181D01*
X58576261Y-90796666D01*
X58549903Y-90799500D01*
X54425494Y-90799500D01*
X54359523Y-90780494D01*
X54349525Y-90774212D01*
X54179254Y-90714631D01*
X54179249Y-90714630D01*
X54000004Y-90694435D01*
X53999996Y-90694435D01*
X53820750Y-90714630D01*
X53820745Y-90714631D01*
X53650476Y-90774211D01*
X53497737Y-90870184D01*
X53370184Y-90997737D01*
X53274211Y-91150476D01*
X53214631Y-91320745D01*
X53214630Y-91320750D01*
X53194435Y-91499996D01*
X53194435Y-91500003D01*
X53214630Y-91679249D01*
X53214631Y-91679254D01*
X53274211Y-91849523D01*
X53370184Y-92002262D01*
X53405241Y-92037319D01*
X53438726Y-92098642D01*
X53433742Y-92168334D01*
X53405241Y-92212681D01*
X53370184Y-92247737D01*
X53274211Y-92400476D01*
X53214631Y-92570745D01*
X53214630Y-92570750D01*
X53194435Y-92749996D01*
X53194435Y-92750004D01*
X53201714Y-92814611D01*
X53189659Y-92883433D01*
X53142310Y-92934812D01*
X53074699Y-92952436D01*
X53064611Y-92951714D01*
X53000004Y-92944435D01*
X52999996Y-92944435D01*
X52820750Y-92964630D01*
X52820745Y-92964631D01*
X52650476Y-93024211D01*
X52497737Y-93120184D01*
X52370184Y-93247737D01*
X52274211Y-93400476D01*
X52214631Y-93570745D01*
X52214630Y-93570750D01*
X52194435Y-93749996D01*
X52194435Y-93750003D01*
X52214630Y-93929249D01*
X52214631Y-93929254D01*
X52274211Y-94099523D01*
X52333849Y-94194435D01*
X52370184Y-94252262D01*
X52497738Y-94379816D01*
X52575283Y-94428541D01*
X52605833Y-94447737D01*
X52650478Y-94475789D01*
X52681243Y-94486554D01*
X52820745Y-94535368D01*
X52820750Y-94535369D01*
X52999996Y-94555565D01*
X53000000Y-94555565D01*
X53000004Y-94555565D01*
X53179249Y-94535369D01*
X53179252Y-94535368D01*
X53179255Y-94535368D01*
X53349522Y-94475789D01*
X53502262Y-94379816D01*
X53629816Y-94252262D01*
X53725789Y-94099522D01*
X53785368Y-93929255D01*
X53785369Y-93929249D01*
X53805565Y-93750003D01*
X53805565Y-93749997D01*
X53798285Y-93685389D01*
X53810339Y-93616567D01*
X53857688Y-93565188D01*
X53925298Y-93547563D01*
X53935385Y-93548284D01*
X53961857Y-93551267D01*
X53999998Y-93555565D01*
X54000000Y-93555565D01*
X54000004Y-93555565D01*
X54179249Y-93535369D01*
X54179252Y-93535368D01*
X54179255Y-93535368D01*
X54349522Y-93475789D01*
X54502262Y-93379816D01*
X54502267Y-93379810D01*
X54505097Y-93377555D01*
X54507275Y-93376665D01*
X54508158Y-93376111D01*
X54508255Y-93376265D01*
X54569783Y-93351145D01*
X54582412Y-93350500D01*
X57979017Y-93350500D01*
X57979033Y-93350501D01*
X57986629Y-93350501D01*
X58144740Y-93350501D01*
X58144743Y-93350501D01*
X58297471Y-93309577D01*
X58369110Y-93268216D01*
X58434402Y-93230520D01*
X58546206Y-93118716D01*
X58546206Y-93118714D01*
X58556410Y-93108511D01*
X58556413Y-93108506D01*
X58779879Y-92885040D01*
X58841200Y-92851557D01*
X58910892Y-92856541D01*
X58966825Y-92898413D01*
X58991242Y-92963877D01*
X58984600Y-93013677D01*
X58964632Y-93070742D01*
X58964630Y-93070750D01*
X58944435Y-93249996D01*
X58944435Y-93250003D01*
X58964630Y-93429249D01*
X58964631Y-93429254D01*
X59024211Y-93599523D01*
X59078165Y-93685389D01*
X59120184Y-93752262D01*
X59247738Y-93879816D01*
X59326410Y-93929249D01*
X59358120Y-93949174D01*
X59400478Y-93975789D01*
X59512405Y-94014954D01*
X59570745Y-94035368D01*
X59570750Y-94035369D01*
X59749996Y-94055565D01*
X59750000Y-94055565D01*
X59750003Y-94055565D01*
X59902862Y-94038342D01*
X59971684Y-94050396D01*
X60021740Y-94095590D01*
X60083849Y-94194435D01*
X60120184Y-94252262D01*
X60247738Y-94379816D01*
X60325283Y-94428541D01*
X60355833Y-94447737D01*
X60400478Y-94475789D01*
X60431243Y-94486554D01*
X60570745Y-94535368D01*
X60570750Y-94535369D01*
X60749996Y-94555565D01*
X60750000Y-94555565D01*
X60750004Y-94555565D01*
X60929249Y-94535369D01*
X60929252Y-94535368D01*
X60929255Y-94535368D01*
X61099522Y-94475789D01*
X61252262Y-94379816D01*
X61379816Y-94252262D01*
X61475789Y-94099522D01*
X61535368Y-93929255D01*
X61538611Y-93900478D01*
X61543102Y-93860617D01*
X61570168Y-93796203D01*
X61627763Y-93756648D01*
X61666322Y-93750500D01*
X64027546Y-93750500D01*
X64027562Y-93750501D01*
X64035158Y-93750501D01*
X64193269Y-93750501D01*
X64193272Y-93750501D01*
X64346000Y-93709577D01*
X64398519Y-93679255D01*
X64398520Y-93679255D01*
X64482924Y-93630524D01*
X64482923Y-93630524D01*
X64482931Y-93630520D01*
X64594735Y-93518716D01*
X64594735Y-93518714D01*
X64604939Y-93508511D01*
X64604943Y-93508506D01*
X66778006Y-91335442D01*
X66839327Y-91301959D01*
X66909019Y-91306943D01*
X66953366Y-91335444D01*
X67004110Y-91386188D01*
X67156850Y-91482161D01*
X67250593Y-91514963D01*
X67327117Y-91541740D01*
X67327122Y-91541741D01*
X67506368Y-91561937D01*
X67506372Y-91561937D01*
X67506376Y-91561937D01*
X67685621Y-91541741D01*
X67685624Y-91541740D01*
X67685627Y-91541740D01*
X67855894Y-91482161D01*
X68008634Y-91386188D01*
X68136188Y-91258634D01*
X68232161Y-91105894D01*
X68291740Y-90935627D01*
X68293659Y-90918597D01*
X68311937Y-90756375D01*
X68311937Y-90756368D01*
X68291741Y-90577122D01*
X68291740Y-90577117D01*
X68264757Y-90500003D01*
X68232161Y-90406850D01*
X68136188Y-90254110D01*
X68008634Y-90126556D01*
X67941989Y-90084680D01*
X67855893Y-90030582D01*
X67829376Y-90021303D01*
X67772601Y-89980580D01*
X67746855Y-89915627D01*
X67760312Y-89847066D01*
X67782648Y-89816585D01*
X69112417Y-88486819D01*
X69173740Y-88453334D01*
X69200098Y-88450500D01*
X70013331Y-88450500D01*
X70013347Y-88450501D01*
X70020943Y-88450501D01*
X70179054Y-88450501D01*
X70179057Y-88450501D01*
X70331785Y-88409577D01*
X70393634Y-88373868D01*
X70468716Y-88330520D01*
X70580520Y-88218716D01*
X70580520Y-88218714D01*
X70590724Y-88208511D01*
X70590728Y-88208506D01*
X76802375Y-81996858D01*
X76863696Y-81963375D01*
X76933388Y-81968359D01*
X76989321Y-82010231D01*
X77013738Y-82075695D01*
X77013582Y-82095348D01*
X77002677Y-82219997D01*
X77002677Y-82220002D01*
X77021929Y-82440062D01*
X77021930Y-82440070D01*
X77079104Y-82653445D01*
X77079105Y-82653447D01*
X77079106Y-82653450D01*
X77170536Y-82849523D01*
X77172466Y-82853662D01*
X77172468Y-82853666D01*
X77299170Y-83034615D01*
X77299175Y-83034621D01*
X77455378Y-83190824D01*
X77455384Y-83190829D01*
X77636333Y-83317531D01*
X77636335Y-83317532D01*
X77636338Y-83317534D01*
X77704937Y-83349522D01*
X77765189Y-83377618D01*
X77817628Y-83423790D01*
X77836780Y-83490984D01*
X77816564Y-83557865D01*
X77765189Y-83602382D01*
X77636340Y-83662465D01*
X77636338Y-83662466D01*
X77455377Y-83789175D01*
X77299175Y-83945377D01*
X77172466Y-84126338D01*
X77172465Y-84126340D01*
X77079107Y-84326548D01*
X77079104Y-84326554D01*
X77021930Y-84539929D01*
X77021929Y-84539937D01*
X77002677Y-84759997D01*
X77002677Y-84760002D01*
X77021929Y-84980062D01*
X77021930Y-84980070D01*
X77079104Y-85193445D01*
X77079105Y-85193447D01*
X77079106Y-85193450D01*
X77146709Y-85338425D01*
X77172466Y-85393662D01*
X77172468Y-85393666D01*
X77299170Y-85574615D01*
X77299175Y-85574621D01*
X77455378Y-85730824D01*
X77455384Y-85730829D01*
X77636333Y-85857531D01*
X77636335Y-85857532D01*
X77636338Y-85857534D01*
X77728426Y-85900475D01*
X77765189Y-85917618D01*
X77817628Y-85963790D01*
X77836780Y-86030984D01*
X77816564Y-86097865D01*
X77765189Y-86142382D01*
X77636340Y-86202465D01*
X77636338Y-86202466D01*
X77455377Y-86329175D01*
X77299175Y-86485377D01*
X77172466Y-86666338D01*
X77172465Y-86666340D01*
X77079107Y-86866548D01*
X77079104Y-86866554D01*
X77021930Y-87079929D01*
X77021929Y-87079937D01*
X77002677Y-87299997D01*
X77002677Y-87300002D01*
X77021929Y-87520062D01*
X77021930Y-87520070D01*
X77079104Y-87733445D01*
X77079105Y-87733447D01*
X77079106Y-87733450D01*
X77140003Y-87864044D01*
X77172466Y-87933662D01*
X77172468Y-87933666D01*
X77299170Y-88114615D01*
X77299175Y-88114621D01*
X77455378Y-88270824D01*
X77455384Y-88270829D01*
X77636333Y-88397531D01*
X77636335Y-88397532D01*
X77636338Y-88397534D01*
X77722730Y-88437819D01*
X77765189Y-88457618D01*
X77817628Y-88503790D01*
X77836780Y-88570984D01*
X77816564Y-88637865D01*
X77765189Y-88682382D01*
X77636340Y-88742465D01*
X77636338Y-88742466D01*
X77455377Y-88869175D01*
X77299175Y-89025377D01*
X77172466Y-89206338D01*
X77172465Y-89206340D01*
X77079107Y-89406548D01*
X77079104Y-89406554D01*
X77021930Y-89619929D01*
X77021929Y-89619937D01*
X77002677Y-89839997D01*
X77002677Y-89840002D01*
X77021929Y-90060062D01*
X77021930Y-90060070D01*
X77079104Y-90273445D01*
X77079105Y-90273447D01*
X77079106Y-90273450D01*
X77151758Y-90429254D01*
X77172466Y-90473662D01*
X77172468Y-90473666D01*
X77299170Y-90654615D01*
X77299175Y-90654621D01*
X77455378Y-90810824D01*
X77455384Y-90810829D01*
X77636333Y-90937531D01*
X77636335Y-90937532D01*
X77636338Y-90937534D01*
X77755748Y-90993215D01*
X77765189Y-90997618D01*
X77817628Y-91043790D01*
X77836780Y-91110984D01*
X77816564Y-91177865D01*
X77765189Y-91222382D01*
X77636340Y-91282465D01*
X77636338Y-91282466D01*
X77455377Y-91409175D01*
X77299175Y-91565377D01*
X77172466Y-91746338D01*
X77172465Y-91746340D01*
X77079107Y-91946548D01*
X77079104Y-91946554D01*
X77021930Y-92159929D01*
X77021929Y-92159937D01*
X77002677Y-92379997D01*
X77002677Y-92380002D01*
X77021929Y-92600062D01*
X77021930Y-92600070D01*
X77079104Y-92813445D01*
X77079105Y-92813447D01*
X77079106Y-92813450D01*
X77166095Y-93000000D01*
X77172466Y-93013662D01*
X77172468Y-93013666D01*
X77299170Y-93194615D01*
X77299175Y-93194621D01*
X77455378Y-93350824D01*
X77455384Y-93350829D01*
X77636333Y-93477531D01*
X77636335Y-93477532D01*
X77636338Y-93477534D01*
X77727772Y-93520170D01*
X77765189Y-93537618D01*
X77817628Y-93583790D01*
X77836780Y-93650984D01*
X77816564Y-93717865D01*
X77765189Y-93762382D01*
X77636340Y-93822465D01*
X77636338Y-93822466D01*
X77455377Y-93949175D01*
X77299175Y-94105377D01*
X77172466Y-94286338D01*
X77172465Y-94286340D01*
X77079107Y-94486548D01*
X77079104Y-94486554D01*
X77021930Y-94699929D01*
X77021929Y-94699937D01*
X77002677Y-94919997D01*
X77002677Y-94920002D01*
X77021929Y-95140062D01*
X77021930Y-95140070D01*
X77079104Y-95353445D01*
X77079105Y-95353447D01*
X77079106Y-95353450D01*
X77159620Y-95526113D01*
X77172466Y-95553662D01*
X77172468Y-95553666D01*
X77299170Y-95734615D01*
X77299175Y-95734621D01*
X77455378Y-95890824D01*
X77455384Y-95890829D01*
X77636333Y-96017531D01*
X77636335Y-96017532D01*
X77636338Y-96017534D01*
X77755748Y-96073215D01*
X77765189Y-96077618D01*
X77817628Y-96123790D01*
X77836780Y-96190984D01*
X77816564Y-96257865D01*
X77765189Y-96302382D01*
X77636340Y-96362465D01*
X77636338Y-96362466D01*
X77455377Y-96489175D01*
X77299175Y-96645377D01*
X77172466Y-96826338D01*
X77172465Y-96826340D01*
X77079107Y-97026548D01*
X77079104Y-97026554D01*
X77021930Y-97239929D01*
X77021929Y-97239937D01*
X77002677Y-97459997D01*
X77002677Y-97460002D01*
X77021929Y-97680062D01*
X77021930Y-97680070D01*
X77079104Y-97893445D01*
X77079105Y-97893447D01*
X77079106Y-97893450D01*
X77120381Y-97981964D01*
X77172466Y-98093662D01*
X77172468Y-98093666D01*
X77299170Y-98274615D01*
X77299175Y-98274621D01*
X77455378Y-98430824D01*
X77455384Y-98430829D01*
X77636333Y-98557531D01*
X77636335Y-98557532D01*
X77636338Y-98557534D01*
X77726335Y-98599500D01*
X77765189Y-98617618D01*
X77817628Y-98663790D01*
X77836780Y-98730984D01*
X77816564Y-98797865D01*
X77765189Y-98842382D01*
X77636340Y-98902465D01*
X77636338Y-98902466D01*
X77455377Y-99029175D01*
X77299175Y-99185377D01*
X77172466Y-99366338D01*
X77172465Y-99366340D01*
X77079107Y-99566548D01*
X77079104Y-99566554D01*
X77021930Y-99779929D01*
X77021929Y-99779937D01*
X77002677Y-99999997D01*
X77002677Y-100000002D01*
X77021929Y-100220062D01*
X77021930Y-100220070D01*
X77079104Y-100433445D01*
X77079105Y-100433447D01*
X77079106Y-100433450D01*
X77159445Y-100605739D01*
X77172466Y-100633662D01*
X77172468Y-100633666D01*
X77299170Y-100814615D01*
X77299175Y-100814621D01*
X77455378Y-100970824D01*
X77455384Y-100970829D01*
X77636333Y-101097531D01*
X77636335Y-101097532D01*
X77636338Y-101097534D01*
X77755748Y-101153215D01*
X77765189Y-101157618D01*
X77817628Y-101203790D01*
X77836780Y-101270984D01*
X77816564Y-101337865D01*
X77765189Y-101382382D01*
X77636340Y-101442465D01*
X77636338Y-101442466D01*
X77455377Y-101569175D01*
X77299175Y-101725377D01*
X77172466Y-101906338D01*
X77172465Y-101906340D01*
X77079107Y-102106548D01*
X77079104Y-102106554D01*
X77021930Y-102319929D01*
X77021929Y-102319937D01*
X77002677Y-102539997D01*
X77002677Y-102540002D01*
X77021929Y-102760062D01*
X77021930Y-102760070D01*
X77079104Y-102973445D01*
X77079105Y-102973447D01*
X77079106Y-102973450D01*
X77134598Y-103092454D01*
X77172466Y-103173662D01*
X77172468Y-103173666D01*
X77299170Y-103354615D01*
X77299175Y-103354621D01*
X77455378Y-103510824D01*
X77455384Y-103510829D01*
X77636333Y-103637531D01*
X77636335Y-103637532D01*
X77636338Y-103637534D01*
X77755748Y-103693215D01*
X77765189Y-103697618D01*
X77817628Y-103743790D01*
X77836780Y-103810984D01*
X77816564Y-103877865D01*
X77765189Y-103922382D01*
X77636340Y-103982465D01*
X77636338Y-103982466D01*
X77455377Y-104109175D01*
X77299175Y-104265377D01*
X77172466Y-104446338D01*
X77172465Y-104446340D01*
X77079107Y-104646548D01*
X77079104Y-104646554D01*
X77021930Y-104859929D01*
X77021929Y-104859937D01*
X77002677Y-105079997D01*
X77002677Y-105080002D01*
X77021929Y-105300062D01*
X77021930Y-105300070D01*
X77079104Y-105513445D01*
X77079105Y-105513447D01*
X77079106Y-105513450D01*
X77172466Y-105713662D01*
X77172468Y-105713666D01*
X77299170Y-105894615D01*
X77299175Y-105894621D01*
X77455378Y-106050824D01*
X77455384Y-106050829D01*
X77636333Y-106177531D01*
X77636335Y-106177532D01*
X77636338Y-106177534D01*
X77755748Y-106233215D01*
X77765189Y-106237618D01*
X77817628Y-106283790D01*
X77836780Y-106350984D01*
X77816564Y-106417865D01*
X77765189Y-106462382D01*
X77636340Y-106522465D01*
X77636338Y-106522466D01*
X77455377Y-106649175D01*
X77299175Y-106805377D01*
X77172466Y-106986338D01*
X77172465Y-106986340D01*
X77079107Y-107186548D01*
X77079104Y-107186554D01*
X77021930Y-107399929D01*
X77021929Y-107399937D01*
X77002677Y-107619997D01*
X77002677Y-107620002D01*
X77021929Y-107840062D01*
X77021930Y-107840070D01*
X77079104Y-108053445D01*
X77079105Y-108053447D01*
X77079106Y-108053450D01*
X77172466Y-108253662D01*
X77172468Y-108253666D01*
X77299170Y-108434615D01*
X77299175Y-108434621D01*
X77455378Y-108590824D01*
X77455384Y-108590829D01*
X77636333Y-108717531D01*
X77636335Y-108717532D01*
X77636338Y-108717534D01*
X77712093Y-108752859D01*
X77765189Y-108777618D01*
X77817628Y-108823790D01*
X77836780Y-108890984D01*
X77816564Y-108957865D01*
X77765189Y-109002382D01*
X77636340Y-109062465D01*
X77636338Y-109062466D01*
X77455377Y-109189175D01*
X77299175Y-109345377D01*
X77172466Y-109526338D01*
X77172465Y-109526340D01*
X77079107Y-109726548D01*
X77079104Y-109726554D01*
X77021930Y-109939929D01*
X77021929Y-109939937D01*
X77002677Y-110159997D01*
X77002677Y-110160002D01*
X77021929Y-110380062D01*
X77021930Y-110380070D01*
X77079104Y-110593445D01*
X77079105Y-110593447D01*
X77079106Y-110593450D01*
X77137139Y-110717903D01*
X77172466Y-110793662D01*
X77172468Y-110793666D01*
X77299170Y-110974615D01*
X77299175Y-110974621D01*
X77455378Y-111130824D01*
X77455384Y-111130829D01*
X77636333Y-111257531D01*
X77636335Y-111257532D01*
X77636338Y-111257534D01*
X77739341Y-111305565D01*
X77765189Y-111317618D01*
X77817628Y-111363790D01*
X77836780Y-111430984D01*
X77816564Y-111497865D01*
X77765189Y-111542382D01*
X77636340Y-111602465D01*
X77636338Y-111602466D01*
X77455379Y-111729174D01*
X77299175Y-111885377D01*
X77172466Y-112066338D01*
X77172465Y-112066340D01*
X77079107Y-112266548D01*
X77079104Y-112266554D01*
X77021930Y-112479929D01*
X77021929Y-112479937D01*
X77002677Y-112699997D01*
X77002677Y-112700002D01*
X77021929Y-112920062D01*
X77021930Y-112920070D01*
X77079104Y-113133445D01*
X77079105Y-113133447D01*
X77079106Y-113133450D01*
X77172466Y-113333662D01*
X77172468Y-113333666D01*
X77299170Y-113514615D01*
X77299175Y-113514621D01*
X77455378Y-113670824D01*
X77455384Y-113670829D01*
X77636333Y-113797531D01*
X77636335Y-113797532D01*
X77636338Y-113797534D01*
X77836550Y-113890894D01*
X78049932Y-113948070D01*
X78207123Y-113961822D01*
X78269998Y-113967323D01*
X78270000Y-113967323D01*
X78270002Y-113967323D01*
X78325017Y-113962509D01*
X78490068Y-113948070D01*
X78703450Y-113890894D01*
X78903662Y-113797534D01*
X79084620Y-113670826D01*
X79240826Y-113514620D01*
X79367534Y-113333662D01*
X79460894Y-113133450D01*
X79518070Y-112920068D01*
X79537323Y-112700000D01*
X79518070Y-112479932D01*
X79498821Y-112408095D01*
X79500482Y-112338245D01*
X79530912Y-112288321D01*
X80612520Y-111206716D01*
X80691577Y-111069784D01*
X80732501Y-110917057D01*
X80732501Y-110758942D01*
X80732501Y-110751347D01*
X80732500Y-110751329D01*
X80732500Y-105394788D01*
X80752185Y-105327749D01*
X80804989Y-105281994D01*
X80874147Y-105272050D01*
X80927620Y-105293212D01*
X81052379Y-105380568D01*
X81258617Y-105476739D01*
X81478421Y-105535635D01*
X81640343Y-105549801D01*
X81705111Y-105555468D01*
X81705113Y-105555468D01*
X81705115Y-105555468D01*
X81761920Y-105550498D01*
X81931805Y-105535635D01*
X82151609Y-105476739D01*
X82357847Y-105380568D01*
X82370664Y-105371592D01*
X82436869Y-105349262D01*
X82504637Y-105366269D01*
X82541058Y-105398852D01*
X82547563Y-105407542D01*
X82547565Y-105407544D01*
X82547567Y-105407546D01*
X82547570Y-105407548D01*
X82662777Y-105493793D01*
X82662784Y-105493797D01*
X82797630Y-105544091D01*
X82797629Y-105544091D01*
X82804557Y-105544835D01*
X82857240Y-105550500D01*
X84552985Y-105550499D01*
X84612596Y-105544091D01*
X84747444Y-105493796D01*
X84862659Y-105407546D01*
X84948909Y-105292331D01*
X84999204Y-105157483D01*
X85005613Y-105097873D01*
X85005612Y-103402128D01*
X84999204Y-103342517D01*
X84964680Y-103249954D01*
X84948910Y-103207671D01*
X84948906Y-103207664D01*
X84862660Y-103092455D01*
X84862657Y-103092452D01*
X84747448Y-103006206D01*
X84747441Y-103006202D01*
X84612595Y-102955908D01*
X84612596Y-102955908D01*
X84552996Y-102949501D01*
X84552994Y-102949500D01*
X84552986Y-102949500D01*
X84552977Y-102949500D01*
X82857242Y-102949500D01*
X82857236Y-102949501D01*
X82797629Y-102955908D01*
X82662784Y-103006202D01*
X82662777Y-103006206D01*
X82547570Y-103092451D01*
X82547559Y-103092462D01*
X82541055Y-103101150D01*
X82485120Y-103143019D01*
X82415428Y-103148000D01*
X82370668Y-103128409D01*
X82357850Y-103119433D01*
X82357846Y-103119431D01*
X82254728Y-103071346D01*
X82151609Y-103023261D01*
X82151605Y-103023260D01*
X82151601Y-103023258D01*
X81931810Y-102964366D01*
X81931806Y-102964365D01*
X81931805Y-102964365D01*
X81931804Y-102964364D01*
X81931799Y-102964364D01*
X81705115Y-102944532D01*
X81705111Y-102944532D01*
X81478426Y-102964364D01*
X81478415Y-102964366D01*
X81258624Y-103023258D01*
X81258615Y-103023261D01*
X81052380Y-103119431D01*
X81052378Y-103119432D01*
X80927623Y-103206786D01*
X80861416Y-103229113D01*
X80793649Y-103212102D01*
X80745837Y-103161154D01*
X80732500Y-103105211D01*
X80732500Y-90668097D01*
X80752185Y-90601058D01*
X80768819Y-90580416D01*
X81462417Y-89886819D01*
X81523740Y-89853334D01*
X81550098Y-89850500D01*
X83420909Y-89850500D01*
X83487948Y-89870185D01*
X83533292Y-89922097D01*
X83535965Y-89927830D01*
X83671501Y-90121396D01*
X83671506Y-90121402D01*
X83838597Y-90288493D01*
X83838603Y-90288498D01*
X84024158Y-90418425D01*
X84067783Y-90473002D01*
X84074977Y-90542500D01*
X84043454Y-90604855D01*
X84024158Y-90621575D01*
X83838597Y-90751505D01*
X83671505Y-90918597D01*
X83535965Y-91112170D01*
X83436098Y-91326335D01*
X83436094Y-91326344D01*
X83374938Y-91554586D01*
X83374936Y-91554596D01*
X83354341Y-91789999D01*
X83354341Y-91790000D01*
X83374936Y-92025403D01*
X83374938Y-92025413D01*
X83436094Y-92253655D01*
X83436096Y-92253659D01*
X83436097Y-92253663D01*
X83494923Y-92379815D01*
X83535965Y-92467830D01*
X83535967Y-92467834D01*
X83642645Y-92620184D01*
X83671501Y-92661396D01*
X83671506Y-92661402D01*
X83838597Y-92828493D01*
X83838603Y-92828498D01*
X84024158Y-92958425D01*
X84067783Y-93013002D01*
X84074977Y-93082500D01*
X84043454Y-93144855D01*
X84024158Y-93161575D01*
X83838597Y-93291505D01*
X83671505Y-93458597D01*
X83535965Y-93652169D01*
X83535964Y-93652171D01*
X83436098Y-93866335D01*
X83436094Y-93866344D01*
X83374938Y-94094586D01*
X83374936Y-94094596D01*
X83354341Y-94329999D01*
X83354341Y-94330000D01*
X83374936Y-94565403D01*
X83374938Y-94565413D01*
X83436094Y-94793655D01*
X83436096Y-94793659D01*
X83436097Y-94793663D01*
X83530703Y-94996546D01*
X83535965Y-95007830D01*
X83535967Y-95007834D01*
X83635406Y-95149846D01*
X83671501Y-95201396D01*
X83671506Y-95201402D01*
X83838597Y-95368493D01*
X83838603Y-95368498D01*
X84024158Y-95498425D01*
X84067783Y-95553002D01*
X84074977Y-95622500D01*
X84043454Y-95684855D01*
X84024158Y-95701575D01*
X83838597Y-95831505D01*
X83671505Y-95998597D01*
X83535965Y-96192169D01*
X83535964Y-96192171D01*
X83436098Y-96406335D01*
X83436094Y-96406344D01*
X83374938Y-96634586D01*
X83374936Y-96634596D01*
X83354341Y-96869999D01*
X83354341Y-96870000D01*
X83374936Y-97105403D01*
X83374938Y-97105413D01*
X83436094Y-97333655D01*
X83436096Y-97333659D01*
X83436097Y-97333663D01*
X83513663Y-97500003D01*
X83535965Y-97547830D01*
X83535967Y-97547834D01*
X83671501Y-97741395D01*
X83671506Y-97741402D01*
X83838597Y-97908493D01*
X83838603Y-97908498D01*
X84024158Y-98038425D01*
X84067783Y-98093002D01*
X84074977Y-98162500D01*
X84043454Y-98224855D01*
X84024158Y-98241575D01*
X83838597Y-98371505D01*
X83671505Y-98538597D01*
X83535965Y-98732169D01*
X83535964Y-98732171D01*
X83436098Y-98946335D01*
X83436094Y-98946344D01*
X83374938Y-99174586D01*
X83374936Y-99174596D01*
X83354341Y-99409999D01*
X83354341Y-99410000D01*
X83374936Y-99645403D01*
X83374938Y-99645413D01*
X83436094Y-99873655D01*
X83436096Y-99873659D01*
X83436097Y-99873663D01*
X83511502Y-100035369D01*
X83535965Y-100087830D01*
X83535967Y-100087834D01*
X83644281Y-100242521D01*
X83671505Y-100281401D01*
X83838599Y-100448495D01*
X83935384Y-100516265D01*
X84032165Y-100584032D01*
X84032167Y-100584033D01*
X84032170Y-100584035D01*
X84246337Y-100683903D01*
X84474592Y-100745063D01*
X84662918Y-100761539D01*
X84709999Y-100765659D01*
X84710000Y-100765659D01*
X84710001Y-100765659D01*
X84749234Y-100762226D01*
X84945408Y-100745063D01*
X85173663Y-100683903D01*
X85387830Y-100584035D01*
X85581401Y-100448495D01*
X85748495Y-100281401D01*
X85884035Y-100087830D01*
X85983903Y-99873663D01*
X86045063Y-99645408D01*
X86065659Y-99410000D01*
X86045063Y-99174592D01*
X85983903Y-98946337D01*
X85884035Y-98732171D01*
X85880641Y-98727323D01*
X85748494Y-98538597D01*
X85581402Y-98371506D01*
X85581396Y-98371501D01*
X85395842Y-98241575D01*
X85352217Y-98186998D01*
X85345023Y-98117500D01*
X85376546Y-98055145D01*
X85395842Y-98038425D01*
X85486612Y-97974867D01*
X85581401Y-97908495D01*
X85748495Y-97741401D01*
X85884035Y-97547830D01*
X85983903Y-97333663D01*
X86045063Y-97105408D01*
X86065659Y-96870000D01*
X86045063Y-96634592D01*
X85983903Y-96406337D01*
X85884035Y-96192171D01*
X85880641Y-96187323D01*
X85748494Y-95998597D01*
X85581402Y-95831506D01*
X85581396Y-95831501D01*
X85395842Y-95701575D01*
X85352217Y-95646998D01*
X85345023Y-95577500D01*
X85376546Y-95515145D01*
X85395842Y-95498425D01*
X85493364Y-95430139D01*
X85581401Y-95368495D01*
X85748495Y-95201401D01*
X85878425Y-95015842D01*
X85933002Y-94972217D01*
X86002500Y-94965023D01*
X86064855Y-94996546D01*
X86081575Y-95015842D01*
X86211500Y-95201395D01*
X86211505Y-95201401D01*
X86378599Y-95368495D01*
X86466636Y-95430139D01*
X86572165Y-95504032D01*
X86572167Y-95504033D01*
X86572170Y-95504035D01*
X86786337Y-95603903D01*
X86786343Y-95603904D01*
X86786344Y-95603905D01*
X86841285Y-95618626D01*
X87014592Y-95665063D01*
X87202918Y-95681539D01*
X87249999Y-95685659D01*
X87250000Y-95685659D01*
X87250001Y-95685659D01*
X87289234Y-95682226D01*
X87485408Y-95665063D01*
X87613757Y-95630672D01*
X87683606Y-95632335D01*
X87733531Y-95662766D01*
X91363181Y-99292416D01*
X91396666Y-99353739D01*
X91399500Y-99380097D01*
X91399500Y-103260951D01*
X91379815Y-103327990D01*
X91327011Y-103373745D01*
X91257853Y-103383689D01*
X91194297Y-103354664D01*
X91187819Y-103348632D01*
X91089141Y-103249954D01*
X90902734Y-103119432D01*
X90902732Y-103119431D01*
X90696497Y-103023261D01*
X90696488Y-103023258D01*
X90476697Y-102964366D01*
X90476693Y-102964365D01*
X90476692Y-102964365D01*
X90476691Y-102964364D01*
X90476686Y-102964364D01*
X90250002Y-102944532D01*
X90249998Y-102944532D01*
X90023313Y-102964364D01*
X90023302Y-102964366D01*
X89803511Y-103023258D01*
X89803502Y-103023261D01*
X89597267Y-103119431D01*
X89597265Y-103119432D01*
X89410858Y-103249954D01*
X89249954Y-103410858D01*
X89119432Y-103597265D01*
X89119431Y-103597267D01*
X89023261Y-103803502D01*
X89023258Y-103803511D01*
X88964366Y-104023302D01*
X88964364Y-104023313D01*
X88944532Y-104249998D01*
X88944532Y-104250001D01*
X88964364Y-104476686D01*
X88964366Y-104476697D01*
X89023258Y-104696488D01*
X89023261Y-104696497D01*
X89119431Y-104902732D01*
X89119432Y-104902734D01*
X89249954Y-105089141D01*
X89410858Y-105250045D01*
X89410861Y-105250047D01*
X89597266Y-105380568D01*
X89803504Y-105476739D01*
X90023308Y-105535635D01*
X90185230Y-105549801D01*
X90249998Y-105555468D01*
X90250000Y-105555468D01*
X90250002Y-105555468D01*
X90306807Y-105550498D01*
X90476692Y-105535635D01*
X90696496Y-105476739D01*
X90902734Y-105380568D01*
X91089139Y-105250047D01*
X91108983Y-105230203D01*
X91187819Y-105151368D01*
X91249142Y-105117883D01*
X91318834Y-105122867D01*
X91374767Y-105164739D01*
X91399184Y-105230203D01*
X91399500Y-105239049D01*
X91399500Y-109599092D01*
X91379815Y-109666131D01*
X91327011Y-109711886D01*
X91316463Y-109716130D01*
X91260093Y-109735854D01*
X91150478Y-109774210D01*
X90997737Y-109870184D01*
X90870184Y-109997737D01*
X90774211Y-110150476D01*
X90714631Y-110320745D01*
X90714630Y-110320750D01*
X90694435Y-110499996D01*
X90694435Y-110500003D01*
X90714630Y-110679249D01*
X90714631Y-110679254D01*
X90774211Y-110849523D01*
X90816646Y-110917057D01*
X90870184Y-111002262D01*
X90997738Y-111129816D01*
X91088080Y-111186582D01*
X91120123Y-111206716D01*
X91150478Y-111225789D01*
X91320745Y-111285368D01*
X91320750Y-111285369D01*
X91499996Y-111305565D01*
X91500000Y-111305565D01*
X91500004Y-111305565D01*
X91679246Y-111285369D01*
X91679245Y-111285369D01*
X91679255Y-111285368D01*
X91682542Y-111284217D01*
X91684797Y-111284102D01*
X91686039Y-111283819D01*
X91686088Y-111284036D01*
X91752316Y-111280652D01*
X91812945Y-111315376D01*
X91845177Y-111377367D01*
X91847500Y-111401257D01*
X91847500Y-111551330D01*
X91847499Y-111551348D01*
X91847499Y-111717054D01*
X91847498Y-111717054D01*
X91850746Y-111729174D01*
X91888423Y-111869785D01*
X91888424Y-111869786D01*
X91897426Y-111885378D01*
X91897427Y-111885380D01*
X91967477Y-112006712D01*
X91967481Y-112006717D01*
X92086349Y-112125585D01*
X92086355Y-112125590D01*
X92249084Y-112288319D01*
X92282569Y-112349642D01*
X92281178Y-112408092D01*
X92261932Y-112479923D01*
X92261929Y-112479937D01*
X92242677Y-112699997D01*
X92242677Y-112700002D01*
X92261929Y-112920062D01*
X92261930Y-112920070D01*
X92319104Y-113133445D01*
X92319105Y-113133447D01*
X92319106Y-113133450D01*
X92412466Y-113333662D01*
X92412468Y-113333666D01*
X92539170Y-113514615D01*
X92539175Y-113514621D01*
X92695378Y-113670824D01*
X92695384Y-113670829D01*
X92876333Y-113797531D01*
X92876335Y-113797532D01*
X92876338Y-113797534D01*
X93076550Y-113890894D01*
X93289932Y-113948070D01*
X93447123Y-113961822D01*
X93509998Y-113967323D01*
X93510000Y-113967323D01*
X93510002Y-113967323D01*
X93565017Y-113962509D01*
X93730068Y-113948070D01*
X93943450Y-113890894D01*
X94143662Y-113797534D01*
X94324620Y-113670826D01*
X94480826Y-113514620D01*
X94607534Y-113333662D01*
X94700894Y-113133450D01*
X94758070Y-112920068D01*
X94777323Y-112700000D01*
X94758070Y-112479932D01*
X94700894Y-112266550D01*
X94607534Y-112066339D01*
X94480826Y-111885380D01*
X94324620Y-111729174D01*
X94324616Y-111729171D01*
X94324615Y-111729170D01*
X94143666Y-111602468D01*
X94143658Y-111602464D01*
X94014811Y-111542382D01*
X93962371Y-111496210D01*
X93943219Y-111429017D01*
X93963435Y-111362135D01*
X94014811Y-111317618D01*
X94020802Y-111314824D01*
X94143662Y-111257534D01*
X94324620Y-111130826D01*
X94480826Y-110974620D01*
X94607534Y-110793662D01*
X94700894Y-110593450D01*
X94758070Y-110380068D01*
X94777323Y-110160000D01*
X94758070Y-109939932D01*
X94700894Y-109726550D01*
X94607534Y-109526339D01*
X94480826Y-109345380D01*
X94324620Y-109189174D01*
X94324616Y-109189171D01*
X94324615Y-109189170D01*
X94143666Y-109062468D01*
X94143658Y-109062464D01*
X94014811Y-109002382D01*
X93962371Y-108956210D01*
X93943219Y-108889017D01*
X93963435Y-108822135D01*
X94014811Y-108777618D01*
X94020802Y-108774824D01*
X94143662Y-108717534D01*
X94324620Y-108590826D01*
X94480826Y-108434620D01*
X94607534Y-108253662D01*
X94700894Y-108053450D01*
X94758070Y-107840068D01*
X94777323Y-107620000D01*
X94758070Y-107399932D01*
X94700894Y-107186550D01*
X94607534Y-106986339D01*
X94480826Y-106805380D01*
X94324620Y-106649174D01*
X94324616Y-106649171D01*
X94324615Y-106649170D01*
X94143666Y-106522468D01*
X94143658Y-106522464D01*
X94014811Y-106462382D01*
X93962371Y-106416210D01*
X93943219Y-106349017D01*
X93963435Y-106282135D01*
X94014811Y-106237618D01*
X94020802Y-106234824D01*
X94143662Y-106177534D01*
X94324620Y-106050826D01*
X94480826Y-105894620D01*
X94607534Y-105713662D01*
X94700894Y-105513450D01*
X94758070Y-105300068D01*
X94774123Y-105116573D01*
X94777323Y-105080002D01*
X94777323Y-105079997D01*
X94770103Y-104997474D01*
X94758070Y-104859932D01*
X94700894Y-104646550D01*
X94607534Y-104446339D01*
X94480826Y-104265380D01*
X94324620Y-104109174D01*
X94324616Y-104109171D01*
X94324615Y-104109170D01*
X94143666Y-103982468D01*
X94143658Y-103982464D01*
X94014811Y-103922382D01*
X93962371Y-103876210D01*
X93943219Y-103809017D01*
X93963435Y-103742135D01*
X94014811Y-103697618D01*
X94020802Y-103694824D01*
X94143662Y-103637534D01*
X94324620Y-103510826D01*
X94480826Y-103354620D01*
X94607534Y-103173662D01*
X94700894Y-102973450D01*
X94758070Y-102760068D01*
X94777323Y-102540000D01*
X94758070Y-102319932D01*
X94704843Y-102121288D01*
X98149500Y-102121288D01*
X98181161Y-102361785D01*
X98243947Y-102596104D01*
X98311864Y-102760070D01*
X98336776Y-102820212D01*
X98458064Y-103030289D01*
X98458066Y-103030292D01*
X98458067Y-103030293D01*
X98605733Y-103222736D01*
X98605739Y-103222743D01*
X98777256Y-103394260D01*
X98777263Y-103394266D01*
X98798886Y-103410858D01*
X98969711Y-103541936D01*
X99179788Y-103663224D01*
X99403900Y-103756054D01*
X99638211Y-103818838D01*
X99818586Y-103842584D01*
X99878711Y-103850500D01*
X99878712Y-103850500D01*
X100121289Y-103850500D01*
X100169388Y-103844167D01*
X100361789Y-103818838D01*
X100596100Y-103756054D01*
X100820212Y-103663224D01*
X101030289Y-103541936D01*
X101222738Y-103394265D01*
X101394265Y-103222738D01*
X101541936Y-103030289D01*
X101663224Y-102820212D01*
X101756054Y-102596100D01*
X101818838Y-102361789D01*
X101850500Y-102121288D01*
X101850500Y-101878712D01*
X101818838Y-101638211D01*
X101756054Y-101403900D01*
X101663224Y-101179788D01*
X101541936Y-100969711D01*
X101394265Y-100777262D01*
X101394260Y-100777256D01*
X101222743Y-100605739D01*
X101222736Y-100605733D01*
X101030293Y-100458067D01*
X101030292Y-100458066D01*
X101030289Y-100458064D01*
X100820212Y-100336776D01*
X100820205Y-100336773D01*
X100596104Y-100243947D01*
X100361785Y-100181161D01*
X100121289Y-100149500D01*
X100121288Y-100149500D01*
X99878712Y-100149500D01*
X99878711Y-100149500D01*
X99638214Y-100181161D01*
X99403895Y-100243947D01*
X99179794Y-100336773D01*
X99179785Y-100336777D01*
X99012352Y-100433445D01*
X98986289Y-100448493D01*
X98969706Y-100458067D01*
X98777263Y-100605733D01*
X98777256Y-100605739D01*
X98605739Y-100777256D01*
X98605733Y-100777263D01*
X98458067Y-100969706D01*
X98458064Y-100969710D01*
X98458064Y-100969711D01*
X98457420Y-100970826D01*
X98336777Y-101179785D01*
X98336773Y-101179794D01*
X98243947Y-101403895D01*
X98181161Y-101638214D01*
X98149500Y-101878711D01*
X98149500Y-102121288D01*
X94704843Y-102121288D01*
X94700894Y-102106550D01*
X94607534Y-101906339D01*
X94480826Y-101725380D01*
X94324620Y-101569174D01*
X94324616Y-101569171D01*
X94324615Y-101569170D01*
X94143666Y-101442468D01*
X94143658Y-101442464D01*
X94014811Y-101382382D01*
X93962371Y-101336210D01*
X93943219Y-101269017D01*
X93963435Y-101202135D01*
X94014811Y-101157618D01*
X94020802Y-101154824D01*
X94143662Y-101097534D01*
X94324620Y-100970826D01*
X94480826Y-100814620D01*
X94607534Y-100633662D01*
X94700894Y-100433450D01*
X94758070Y-100220068D01*
X94777323Y-100000000D01*
X94758070Y-99779932D01*
X94700894Y-99566550D01*
X94607534Y-99366339D01*
X94480826Y-99185380D01*
X94324620Y-99029174D01*
X94324616Y-99029171D01*
X94324615Y-99029170D01*
X94143666Y-98902468D01*
X94143658Y-98902464D01*
X94014811Y-98842382D01*
X93962371Y-98796210D01*
X93943219Y-98729017D01*
X93963435Y-98662135D01*
X94014811Y-98617618D01*
X94020802Y-98614824D01*
X94143662Y-98557534D01*
X94324620Y-98430826D01*
X94480826Y-98274620D01*
X94607534Y-98093662D01*
X94700894Y-97893450D01*
X94758070Y-97680068D01*
X94773823Y-97500003D01*
X108194435Y-97500003D01*
X108214630Y-97679249D01*
X108214631Y-97679254D01*
X108274211Y-97849523D01*
X108357430Y-97981964D01*
X108370184Y-98002262D01*
X108497738Y-98129816D01*
X108503197Y-98133246D01*
X108648991Y-98224855D01*
X108650478Y-98225789D01*
X108752420Y-98261460D01*
X108820745Y-98285368D01*
X108820750Y-98285369D01*
X108999996Y-98305565D01*
X109000000Y-98305565D01*
X109000004Y-98305565D01*
X109179249Y-98285369D01*
X109179252Y-98285368D01*
X109179255Y-98285368D01*
X109349522Y-98225789D01*
X109502262Y-98129816D01*
X109629816Y-98002262D01*
X109725789Y-97849522D01*
X109785368Y-97679255D01*
X109792652Y-97614609D01*
X109805565Y-97500003D01*
X109805565Y-97499996D01*
X109785369Y-97320750D01*
X109785368Y-97320745D01*
X109725788Y-97150476D01*
X109647920Y-97026550D01*
X109629816Y-96997738D01*
X109502262Y-96870184D01*
X109432485Y-96826340D01*
X109349523Y-96774211D01*
X109179254Y-96714631D01*
X109179249Y-96714630D01*
X109000004Y-96694435D01*
X108999996Y-96694435D01*
X108820750Y-96714630D01*
X108820745Y-96714631D01*
X108650476Y-96774211D01*
X108497737Y-96870184D01*
X108370184Y-96997737D01*
X108274211Y-97150476D01*
X108214631Y-97320745D01*
X108214630Y-97320750D01*
X108194435Y-97499996D01*
X108194435Y-97500003D01*
X94773823Y-97500003D01*
X94777323Y-97460000D01*
X94758070Y-97239932D01*
X94700894Y-97026550D01*
X94607534Y-96826339D01*
X94537128Y-96725788D01*
X94480827Y-96645381D01*
X94406188Y-96570742D01*
X94324620Y-96489174D01*
X94324616Y-96489171D01*
X94324615Y-96489170D01*
X94143666Y-96362468D01*
X94143658Y-96362464D01*
X94014811Y-96302382D01*
X93962371Y-96256210D01*
X93943219Y-96189017D01*
X93963435Y-96122135D01*
X94014811Y-96077618D01*
X94020802Y-96074824D01*
X94143662Y-96017534D01*
X94324620Y-95890826D01*
X94480826Y-95734620D01*
X94607534Y-95553662D01*
X94700894Y-95353450D01*
X94758070Y-95140068D01*
X94777323Y-94920000D01*
X94773807Y-94879816D01*
X94768640Y-94820750D01*
X94758070Y-94699932D01*
X94700894Y-94486550D01*
X94607534Y-94286339D01*
X94582091Y-94250003D01*
X100194435Y-94250003D01*
X100214630Y-94429249D01*
X100214631Y-94429254D01*
X100274211Y-94599523D01*
X100321799Y-94675258D01*
X100370184Y-94752262D01*
X100497738Y-94879816D01*
X100650478Y-94975789D01*
X100764943Y-95015842D01*
X100820745Y-95035368D01*
X100820750Y-95035369D01*
X100999996Y-95055565D01*
X101000000Y-95055565D01*
X101000004Y-95055565D01*
X101179249Y-95035369D01*
X101179252Y-95035368D01*
X101179255Y-95035368D01*
X101349522Y-94975789D01*
X101502262Y-94879816D01*
X101629816Y-94752262D01*
X101725789Y-94599522D01*
X101785368Y-94429255D01*
X101785369Y-94429249D01*
X101805565Y-94250003D01*
X101805565Y-94249996D01*
X101785369Y-94070750D01*
X101785368Y-94070745D01*
X101772989Y-94035368D01*
X101725789Y-93900478D01*
X101629816Y-93747738D01*
X101502262Y-93620184D01*
X101475794Y-93603553D01*
X101349523Y-93524211D01*
X101179254Y-93464631D01*
X101179249Y-93464630D01*
X101000004Y-93444435D01*
X100999996Y-93444435D01*
X100820750Y-93464630D01*
X100820745Y-93464631D01*
X100650476Y-93524211D01*
X100497737Y-93620184D01*
X100370184Y-93747737D01*
X100274211Y-93900476D01*
X100214631Y-94070745D01*
X100214630Y-94070750D01*
X100194435Y-94249996D01*
X100194435Y-94250003D01*
X94582091Y-94250003D01*
X94526429Y-94170508D01*
X94480827Y-94105381D01*
X94410814Y-94035368D01*
X94324620Y-93949174D01*
X94324616Y-93949171D01*
X94324615Y-93949170D01*
X94143666Y-93822468D01*
X94143658Y-93822464D01*
X94014811Y-93762382D01*
X93962371Y-93716210D01*
X93943219Y-93649017D01*
X93963435Y-93582135D01*
X94014811Y-93537618D01*
X94052228Y-93520170D01*
X94143662Y-93477534D01*
X94324620Y-93350826D01*
X94480826Y-93194620D01*
X94607534Y-93013662D01*
X94700894Y-92813450D01*
X94758070Y-92600068D01*
X94773384Y-92425023D01*
X94777323Y-92380002D01*
X94777323Y-92379997D01*
X94766270Y-92253663D01*
X94758070Y-92159932D01*
X94700894Y-91946550D01*
X94607534Y-91746339D01*
X94480826Y-91565380D01*
X94324620Y-91409174D01*
X94324616Y-91409171D01*
X94324615Y-91409170D01*
X94143666Y-91282468D01*
X94143658Y-91282464D01*
X94014811Y-91222382D01*
X93962371Y-91176210D01*
X93943219Y-91109017D01*
X93963435Y-91042135D01*
X94014811Y-90997618D01*
X94020802Y-90994824D01*
X94143662Y-90937534D01*
X94324620Y-90810826D01*
X94480826Y-90654620D01*
X94607534Y-90473662D01*
X94700894Y-90273450D01*
X94758070Y-90060068D01*
X94774682Y-89870184D01*
X94777323Y-89840002D01*
X94777323Y-89839997D01*
X94766270Y-89713663D01*
X94758070Y-89619932D01*
X94700894Y-89406550D01*
X94607534Y-89206339D01*
X94480826Y-89025380D01*
X94324620Y-88869174D01*
X94324616Y-88869171D01*
X94324615Y-88869170D01*
X94143666Y-88742468D01*
X94143658Y-88742464D01*
X94014811Y-88682382D01*
X93962371Y-88636210D01*
X93943219Y-88569017D01*
X93963435Y-88502135D01*
X94014811Y-88457618D01*
X94030073Y-88450501D01*
X94143662Y-88397534D01*
X94324620Y-88270826D01*
X94480826Y-88114620D01*
X94607534Y-87933662D01*
X94700894Y-87733450D01*
X94758070Y-87520068D01*
X94775148Y-87324859D01*
X94777323Y-87300002D01*
X94777323Y-87299997D01*
X94766691Y-87178471D01*
X94758070Y-87079932D01*
X94700894Y-86866550D01*
X94607534Y-86666339D01*
X94508016Y-86524211D01*
X94480827Y-86485381D01*
X94424695Y-86429249D01*
X94324620Y-86329174D01*
X94324616Y-86329171D01*
X94324615Y-86329170D01*
X94143666Y-86202468D01*
X94143658Y-86202464D01*
X94014811Y-86142382D01*
X93962371Y-86096210D01*
X93943219Y-86029017D01*
X93963435Y-85962135D01*
X94014811Y-85917618D01*
X94020802Y-85914824D01*
X94143662Y-85857534D01*
X94324620Y-85730826D01*
X94480826Y-85574620D01*
X94607534Y-85393662D01*
X94700894Y-85193450D01*
X94758070Y-84980068D01*
X94777323Y-84760000D01*
X94776597Y-84751706D01*
X94768201Y-84655728D01*
X94758070Y-84539932D01*
X94700894Y-84326550D01*
X94607534Y-84126339D01*
X94514416Y-83993352D01*
X94480827Y-83945381D01*
X94411915Y-83876469D01*
X94324620Y-83789174D01*
X94324616Y-83789171D01*
X94324615Y-83789170D01*
X94143666Y-83662468D01*
X94143658Y-83662464D01*
X94014811Y-83602382D01*
X93962371Y-83556210D01*
X93943219Y-83489017D01*
X93963435Y-83422135D01*
X94014811Y-83377618D01*
X94030753Y-83370184D01*
X94143662Y-83317534D01*
X94324620Y-83190826D01*
X94480826Y-83034620D01*
X94607534Y-82853662D01*
X94607536Y-82853655D01*
X94608219Y-82852475D01*
X94608659Y-82852054D01*
X94610639Y-82849228D01*
X94611206Y-82849625D01*
X94658783Y-82804257D01*
X94727390Y-82791031D01*
X94792256Y-82816996D01*
X94803290Y-82826789D01*
X99709530Y-87733029D01*
X99743015Y-87794352D01*
X99738031Y-87864044D01*
X99709531Y-87908391D01*
X99620183Y-87997739D01*
X99524211Y-88150476D01*
X99464631Y-88320745D01*
X99464630Y-88320750D01*
X99444435Y-88499996D01*
X99444435Y-88500003D01*
X99464630Y-88679249D01*
X99464631Y-88679254D01*
X99524211Y-88849523D01*
X99577766Y-88934754D01*
X99620184Y-89002262D01*
X99747738Y-89129816D01*
X99838080Y-89186582D01*
X99869523Y-89206339D01*
X99900478Y-89225789D01*
X100070745Y-89285368D01*
X100109577Y-89289743D01*
X100173989Y-89316808D01*
X100213545Y-89374402D01*
X100215684Y-89444239D01*
X100179727Y-89504146D01*
X100156156Y-89520160D01*
X100156374Y-89520506D01*
X99997737Y-89620184D01*
X99870184Y-89747737D01*
X99774211Y-89900476D01*
X99714631Y-90070745D01*
X99714630Y-90070750D01*
X99694435Y-90249996D01*
X99694435Y-90250003D01*
X99714630Y-90429249D01*
X99714631Y-90429254D01*
X99774211Y-90599523D01*
X99833849Y-90694435D01*
X99870184Y-90752262D01*
X99997738Y-90879816D01*
X100059458Y-90918597D01*
X100132721Y-90964632D01*
X100150478Y-90975789D01*
X100270579Y-91017814D01*
X100320745Y-91035368D01*
X100320750Y-91035369D01*
X100499996Y-91055565D01*
X100500000Y-91055565D01*
X100500004Y-91055565D01*
X100679249Y-91035369D01*
X100679252Y-91035368D01*
X100679255Y-91035368D01*
X100849522Y-90975789D01*
X101002262Y-90879816D01*
X101129816Y-90752262D01*
X101225789Y-90599522D01*
X101285368Y-90429255D01*
X101285957Y-90424035D01*
X101300370Y-90296104D01*
X101327436Y-90231690D01*
X101385030Y-90192135D01*
X101409703Y-90186767D01*
X101471232Y-90179835D01*
X101542853Y-90171766D01*
X101542856Y-90171765D01*
X101542858Y-90171765D01*
X101713125Y-90112186D01*
X101713127Y-90112184D01*
X101713129Y-90112184D01*
X101860036Y-90019876D01*
X101927272Y-90000875D01*
X101994107Y-90021242D01*
X102013689Y-90037188D01*
X103337811Y-91361310D01*
X103371296Y-91422633D01*
X103366312Y-91492325D01*
X103355124Y-91514963D01*
X103262814Y-91661873D01*
X103203234Y-91832142D01*
X103203233Y-91832147D01*
X103183038Y-92011393D01*
X103183038Y-92011400D01*
X103203233Y-92190646D01*
X103203234Y-92190651D01*
X103262814Y-92360920D01*
X103348783Y-92497738D01*
X103358787Y-92513659D01*
X103486341Y-92641213D01*
X103531038Y-92669298D01*
X103639077Y-92737184D01*
X103639081Y-92737186D01*
X103809348Y-92796765D01*
X103809353Y-92796766D01*
X103988599Y-92816962D01*
X103988603Y-92816962D01*
X103988607Y-92816962D01*
X104167852Y-92796766D01*
X104167855Y-92796765D01*
X104167858Y-92796765D01*
X104338125Y-92737186D01*
X104338127Y-92737184D01*
X104338129Y-92737184D01*
X104485036Y-92644876D01*
X104552272Y-92625875D01*
X104619107Y-92646242D01*
X104638689Y-92662188D01*
X107490875Y-95514374D01*
X107490885Y-95514385D01*
X107495215Y-95518715D01*
X107495216Y-95518716D01*
X107607020Y-95630520D01*
X107685429Y-95675789D01*
X107743951Y-95709577D01*
X107896679Y-95750501D01*
X107896682Y-95750501D01*
X108062389Y-95750501D01*
X108062405Y-95750500D01*
X112833678Y-95750500D01*
X112900717Y-95770185D01*
X112946472Y-95822989D01*
X112956898Y-95860617D01*
X112964630Y-95929249D01*
X113024210Y-96099521D01*
X113120184Y-96252262D01*
X113217610Y-96349688D01*
X113251095Y-96411011D01*
X113246971Y-96478323D01*
X113214632Y-96570742D01*
X113214630Y-96570750D01*
X113194435Y-96749996D01*
X113194435Y-96750003D01*
X113214630Y-96929249D01*
X113214631Y-96929254D01*
X113274211Y-97099523D01*
X113362440Y-97239937D01*
X113370184Y-97252262D01*
X113497738Y-97379816D01*
X113650478Y-97475789D01*
X113719678Y-97500003D01*
X113820745Y-97535368D01*
X113820750Y-97535369D01*
X113999996Y-97555565D01*
X114000000Y-97555565D01*
X114000004Y-97555565D01*
X114179249Y-97535369D01*
X114179252Y-97535368D01*
X114179255Y-97535368D01*
X114349522Y-97475789D01*
X114502262Y-97379816D01*
X114629816Y-97252262D01*
X114725789Y-97099522D01*
X114785368Y-96929255D01*
X114792024Y-96870184D01*
X114805565Y-96750003D01*
X114805565Y-96749996D01*
X114785369Y-96570750D01*
X114785368Y-96570745D01*
X114752141Y-96475788D01*
X114725789Y-96400478D01*
X114723974Y-96397590D01*
X114664151Y-96302382D01*
X114629816Y-96247738D01*
X114532389Y-96150311D01*
X114498904Y-96088988D01*
X114503028Y-96021676D01*
X114504477Y-96017535D01*
X114535368Y-95929255D01*
X114538665Y-95900000D01*
X114543102Y-95860617D01*
X114570168Y-95796203D01*
X114627763Y-95756648D01*
X114666322Y-95750500D01*
X117301374Y-95750500D01*
X117368413Y-95770185D01*
X117389055Y-95786819D01*
X117716610Y-96114374D01*
X117716620Y-96114385D01*
X117720950Y-96118715D01*
X117720951Y-96118716D01*
X117832755Y-96230520D01*
X117832757Y-96230521D01*
X117832758Y-96230522D01*
X117899586Y-96269104D01*
X117899588Y-96269106D01*
X117899589Y-96269106D01*
X117969686Y-96309577D01*
X118122414Y-96350500D01*
X118167588Y-96350500D01*
X118234627Y-96370185D01*
X118244903Y-96377555D01*
X118247736Y-96379814D01*
X118247738Y-96379816D01*
X118400478Y-96475789D01*
X118554878Y-96529816D01*
X118570745Y-96535368D01*
X118570750Y-96535369D01*
X118749996Y-96555565D01*
X118750000Y-96555565D01*
X118750004Y-96555565D01*
X118929249Y-96535369D01*
X118929252Y-96535368D01*
X118929255Y-96535368D01*
X119099522Y-96475789D01*
X119252262Y-96379816D01*
X119379816Y-96252262D01*
X119475789Y-96099522D01*
X119535368Y-95929255D01*
X119538664Y-95900003D01*
X119555565Y-95750003D01*
X119555565Y-95749996D01*
X119535369Y-95570750D01*
X119535368Y-95570745D01*
X119475788Y-95400476D01*
X119396450Y-95274211D01*
X119379816Y-95247738D01*
X119252262Y-95120184D01*
X119252260Y-95120182D01*
X119111775Y-95031909D01*
X119065485Y-94979575D01*
X119054528Y-94940799D01*
X119052184Y-94919997D01*
X119038893Y-94802032D01*
X119035369Y-94770750D01*
X119035368Y-94770745D01*
X119032626Y-94762908D01*
X118975789Y-94600478D01*
X118975188Y-94599522D01*
X118912969Y-94500501D01*
X118879816Y-94447738D01*
X118752262Y-94320184D01*
X118717055Y-94298062D01*
X118599523Y-94224211D01*
X118429254Y-94164631D01*
X118429249Y-94164630D01*
X118250004Y-94144435D01*
X118249996Y-94144435D01*
X118174867Y-94152899D01*
X118137177Y-94150076D01*
X118137114Y-94150560D01*
X118129057Y-94149499D01*
X117970943Y-94149499D01*
X117963347Y-94149499D01*
X117963331Y-94149500D01*
X112511661Y-94149500D01*
X112444622Y-94129815D01*
X112398867Y-94077011D01*
X112388923Y-94007853D01*
X112406668Y-93959527D01*
X112475788Y-93849524D01*
X112484904Y-93823472D01*
X112535368Y-93679255D01*
X112535369Y-93679249D01*
X112555565Y-93500003D01*
X112555565Y-93499996D01*
X112535369Y-93320750D01*
X112535368Y-93320745D01*
X112491233Y-93194615D01*
X112475789Y-93150478D01*
X112379816Y-92997738D01*
X112252262Y-92870184D01*
X112185919Y-92828498D01*
X112099521Y-92774210D01*
X111929249Y-92714630D01*
X111842330Y-92704837D01*
X111777916Y-92677770D01*
X111768533Y-92669298D01*
X111237590Y-92138355D01*
X111237588Y-92138352D01*
X111118717Y-92019481D01*
X111118709Y-92019475D01*
X111023717Y-91964632D01*
X111023715Y-91964631D01*
X110981790Y-91940425D01*
X110981789Y-91940424D01*
X110940102Y-91929254D01*
X110829057Y-91899499D01*
X110670943Y-91899499D01*
X110663347Y-91899499D01*
X110663331Y-91899500D01*
X108529998Y-91899500D01*
X108462959Y-91879815D01*
X108442317Y-91863181D01*
X107810420Y-91231285D01*
X107698616Y-91119481D01*
X107698608Y-91119475D01*
X107561689Y-91040426D01*
X107561684Y-91040423D01*
X107501180Y-91024211D01*
X107408956Y-90999499D01*
X107408953Y-90999499D01*
X107250841Y-90999500D01*
X106422891Y-90999500D01*
X106355852Y-90979815D01*
X106335210Y-90963181D01*
X105872032Y-90500003D01*
X113743700Y-90500003D01*
X113763895Y-90679249D01*
X113763896Y-90679254D01*
X113823476Y-90849523D01*
X113919449Y-91002262D01*
X114051927Y-91134740D01*
X114050504Y-91136162D01*
X114084976Y-91185274D01*
X114087828Y-91255085D01*
X114055206Y-91312716D01*
X113995183Y-91372739D01*
X113899211Y-91525476D01*
X113839631Y-91695745D01*
X113839630Y-91695750D01*
X113819435Y-91874996D01*
X113819435Y-91875003D01*
X113839630Y-92054249D01*
X113839631Y-92054254D01*
X113899211Y-92224523D01*
X113995184Y-92377262D01*
X114048514Y-92430592D01*
X114081999Y-92491915D01*
X114077015Y-92561607D01*
X114065827Y-92584244D01*
X114024213Y-92650472D01*
X114024209Y-92650481D01*
X113964633Y-92820737D01*
X113964630Y-92820750D01*
X113944435Y-92999996D01*
X113944435Y-93000003D01*
X113964630Y-93179249D01*
X113964631Y-93179254D01*
X114024211Y-93349523D01*
X114083849Y-93444435D01*
X114120184Y-93502262D01*
X114247738Y-93629816D01*
X114281427Y-93650984D01*
X114374673Y-93709575D01*
X114400478Y-93725789D01*
X114488668Y-93756648D01*
X114570745Y-93785368D01*
X114570750Y-93785369D01*
X114749996Y-93805565D01*
X114750000Y-93805565D01*
X114750004Y-93805565D01*
X114929249Y-93785369D01*
X114929252Y-93785368D01*
X114929255Y-93785368D01*
X115099522Y-93725789D01*
X115252262Y-93629816D01*
X115379816Y-93502262D01*
X115475789Y-93349522D01*
X115535368Y-93179255D01*
X115537992Y-93155965D01*
X115555565Y-93000003D01*
X115555565Y-92999996D01*
X115535369Y-92820750D01*
X115535368Y-92820745D01*
X115482374Y-92669298D01*
X115475789Y-92650478D01*
X115473127Y-92646242D01*
X115430115Y-92577788D01*
X115379816Y-92497738D01*
X115326484Y-92444406D01*
X115292999Y-92383083D01*
X115297983Y-92313391D01*
X115309164Y-92290765D01*
X115350789Y-92224522D01*
X115410368Y-92054255D01*
X115410369Y-92054249D01*
X115430565Y-91875003D01*
X115430565Y-91874996D01*
X115410369Y-91695750D01*
X115410368Y-91695745D01*
X115389127Y-91635043D01*
X115350789Y-91525478D01*
X115323570Y-91482160D01*
X115272245Y-91400476D01*
X115254816Y-91372738D01*
X115127262Y-91245184D01*
X115122338Y-91240260D01*
X115123760Y-91238837D01*
X115089286Y-91189721D01*
X115086437Y-91119909D01*
X115119056Y-91062286D01*
X115179081Y-91002262D01*
X115275054Y-90849522D01*
X115334633Y-90679255D01*
X115334634Y-90679249D01*
X115354830Y-90500003D01*
X115354830Y-90499996D01*
X115334634Y-90320750D01*
X115334633Y-90320745D01*
X115323348Y-90288495D01*
X115275054Y-90150478D01*
X115274184Y-90149094D01*
X115233710Y-90084680D01*
X115179081Y-89997738D01*
X115051527Y-89870184D01*
X114898788Y-89774211D01*
X114728519Y-89714631D01*
X114728514Y-89714630D01*
X114549269Y-89694435D01*
X114549261Y-89694435D01*
X114370015Y-89714630D01*
X114370010Y-89714631D01*
X114199741Y-89774211D01*
X114047002Y-89870184D01*
X113919449Y-89997737D01*
X113823476Y-90150476D01*
X113763896Y-90320745D01*
X113763895Y-90320750D01*
X113743700Y-90499996D01*
X113743700Y-90500003D01*
X105872032Y-90500003D01*
X104319065Y-88947036D01*
X104285580Y-88885713D01*
X104290564Y-88816021D01*
X104332436Y-88760088D01*
X104397900Y-88735671D01*
X104447700Y-88742312D01*
X104493944Y-88758494D01*
X104570745Y-88785368D01*
X104570750Y-88785369D01*
X104749996Y-88805565D01*
X104750000Y-88805565D01*
X104750004Y-88805565D01*
X104929249Y-88785369D01*
X104929252Y-88785368D01*
X104929255Y-88785368D01*
X105099522Y-88725789D01*
X105252262Y-88629816D01*
X105379816Y-88502262D01*
X105475789Y-88349522D01*
X105535368Y-88179255D01*
X105536001Y-88173636D01*
X105555565Y-88000003D01*
X106944435Y-88000003D01*
X106964630Y-88179249D01*
X106964631Y-88179254D01*
X107024211Y-88349523D01*
X107113041Y-88490894D01*
X107120184Y-88502262D01*
X107247738Y-88629816D01*
X107400478Y-88725789D01*
X107549594Y-88777967D01*
X107570745Y-88785368D01*
X107570750Y-88785369D01*
X107749996Y-88805565D01*
X107750000Y-88805565D01*
X107750004Y-88805565D01*
X107929249Y-88785369D01*
X107929251Y-88785368D01*
X107929255Y-88785368D01*
X107929258Y-88785366D01*
X107929262Y-88785366D01*
X108036840Y-88747723D01*
X108106619Y-88744161D01*
X108167246Y-88778889D01*
X108199474Y-88840883D01*
X108193069Y-88910458D01*
X108165477Y-88952444D01*
X108120184Y-88997737D01*
X108024211Y-89150476D01*
X107964631Y-89320745D01*
X107964630Y-89320750D01*
X107944435Y-89499996D01*
X107944435Y-89500003D01*
X107964630Y-89679249D01*
X107964631Y-89679254D01*
X108024211Y-89849523D01*
X108089097Y-89952788D01*
X108120184Y-90002262D01*
X108247738Y-90129816D01*
X108314501Y-90171766D01*
X108382721Y-90214632D01*
X108400478Y-90225789D01*
X108469678Y-90250003D01*
X108570745Y-90285368D01*
X108570750Y-90285369D01*
X108749996Y-90305565D01*
X108750000Y-90305565D01*
X108750004Y-90305565D01*
X108929249Y-90285369D01*
X108929252Y-90285368D01*
X108929255Y-90285368D01*
X109099522Y-90225789D01*
X109252262Y-90129816D01*
X109379816Y-90002262D01*
X109475789Y-89849522D01*
X109535368Y-89679255D01*
X109548465Y-89563006D01*
X109575531Y-89498595D01*
X109605708Y-89471901D01*
X109752262Y-89379816D01*
X109879816Y-89252262D01*
X109975789Y-89099522D01*
X110035368Y-88929255D01*
X110037486Y-88910458D01*
X110055565Y-88750003D01*
X110055565Y-88749996D01*
X110035369Y-88570750D01*
X110035368Y-88570745D01*
X109988855Y-88437819D01*
X109975789Y-88400478D01*
X109973937Y-88397531D01*
X109927150Y-88323070D01*
X109879816Y-88247738D01*
X109752262Y-88120184D01*
X109743399Y-88114615D01*
X109599523Y-88024211D01*
X109429254Y-87964631D01*
X109429249Y-87964630D01*
X109250004Y-87944435D01*
X109249996Y-87944435D01*
X109070750Y-87964630D01*
X109070745Y-87964631D01*
X108900476Y-88024211D01*
X108744371Y-88122299D01*
X108677134Y-88141299D01*
X108610299Y-88120931D01*
X108565085Y-88067663D01*
X108555728Y-88006964D01*
X108555565Y-88006964D01*
X108555565Y-88005908D01*
X108555180Y-88003413D01*
X108555565Y-88000000D01*
X108555310Y-87997739D01*
X108535369Y-87820750D01*
X108535368Y-87820745D01*
X108475788Y-87650475D01*
X108469496Y-87640462D01*
X108450495Y-87573225D01*
X108470862Y-87506390D01*
X108524130Y-87461176D01*
X108593386Y-87451937D01*
X108640462Y-87469496D01*
X108650475Y-87475788D01*
X108820745Y-87535368D01*
X108820750Y-87535369D01*
X108999996Y-87555565D01*
X109000000Y-87555565D01*
X109000004Y-87555565D01*
X109179249Y-87535369D01*
X109179252Y-87535368D01*
X109179255Y-87535368D01*
X109349522Y-87475789D01*
X109502262Y-87379816D01*
X109629816Y-87252262D01*
X109725789Y-87099522D01*
X109785368Y-86929255D01*
X109785369Y-86929249D01*
X109805565Y-86750003D01*
X109805565Y-86749996D01*
X109785369Y-86570750D01*
X109785368Y-86570745D01*
X109766569Y-86517020D01*
X109725789Y-86400478D01*
X109715487Y-86384083D01*
X109671835Y-86314611D01*
X109629816Y-86247738D01*
X109502262Y-86120184D01*
X109497647Y-86117284D01*
X109349523Y-86024211D01*
X109179254Y-85964631D01*
X109179249Y-85964630D01*
X109000004Y-85944435D01*
X108999996Y-85944435D01*
X108820750Y-85964630D01*
X108820745Y-85964631D01*
X108650476Y-86024211D01*
X108497737Y-86120184D01*
X108370184Y-86247737D01*
X108274211Y-86400476D01*
X108214631Y-86570745D01*
X108214630Y-86570750D01*
X108194435Y-86749996D01*
X108194435Y-86750003D01*
X108214630Y-86929249D01*
X108214631Y-86929254D01*
X108274212Y-87099525D01*
X108280504Y-87109539D01*
X108299504Y-87176776D01*
X108279136Y-87243611D01*
X108225867Y-87288824D01*
X108156611Y-87298061D01*
X108109539Y-87280504D01*
X108099525Y-87274212D01*
X107929254Y-87214631D01*
X107929249Y-87214630D01*
X107750004Y-87194435D01*
X107749996Y-87194435D01*
X107570750Y-87214630D01*
X107570745Y-87214631D01*
X107400476Y-87274211D01*
X107247737Y-87370184D01*
X107120184Y-87497737D01*
X107024211Y-87650476D01*
X106964631Y-87820745D01*
X106964630Y-87820750D01*
X106944435Y-87999996D01*
X106944435Y-88000003D01*
X105555565Y-88000003D01*
X105555565Y-87999996D01*
X105535369Y-87820750D01*
X105535368Y-87820745D01*
X105508458Y-87743840D01*
X105475789Y-87650478D01*
X105475489Y-87650001D01*
X105403461Y-87535369D01*
X105379816Y-87497738D01*
X105252262Y-87370184D01*
X105212219Y-87345023D01*
X105099523Y-87274211D01*
X104929254Y-87214631D01*
X104929250Y-87214630D01*
X104849269Y-87205619D01*
X104784855Y-87178552D01*
X104745300Y-87120957D01*
X104743163Y-87051120D01*
X104746112Y-87041444D01*
X104785366Y-86929262D01*
X104785369Y-86929249D01*
X104805565Y-86750003D01*
X104805565Y-86749996D01*
X104785369Y-86570750D01*
X104785368Y-86570745D01*
X104766569Y-86517020D01*
X104725789Y-86400478D01*
X104715487Y-86384083D01*
X104671835Y-86314611D01*
X104629816Y-86247738D01*
X104502262Y-86120184D01*
X104497647Y-86117284D01*
X104349523Y-86024211D01*
X104179254Y-85964631D01*
X104179249Y-85964630D01*
X104000004Y-85944435D01*
X103999996Y-85944435D01*
X103820750Y-85964630D01*
X103820745Y-85964631D01*
X103650476Y-86024211D01*
X103497737Y-86120184D01*
X103370184Y-86247737D01*
X103274211Y-86400476D01*
X103214631Y-86570745D01*
X103214630Y-86570750D01*
X103194435Y-86749996D01*
X103194435Y-86750003D01*
X103214630Y-86929249D01*
X103214633Y-86929262D01*
X103235767Y-86989658D01*
X103239329Y-87059437D01*
X103204601Y-87120064D01*
X103142607Y-87152292D01*
X103132621Y-87153832D01*
X103131414Y-87153968D01*
X103131408Y-87153969D01*
X103131407Y-87153970D01*
X103088885Y-87168848D01*
X102961139Y-87213548D01*
X102814228Y-87305859D01*
X102746991Y-87324859D01*
X102680156Y-87304491D01*
X102660575Y-87288546D01*
X102586819Y-87214790D01*
X102553334Y-87153467D01*
X102550500Y-87127109D01*
X102550500Y-85923889D01*
X102550500Y-85923887D01*
X102518796Y-85805565D01*
X102509577Y-85771159D01*
X102486291Y-85730829D01*
X102480639Y-85721039D01*
X102480637Y-85721036D01*
X102480146Y-85720185D01*
X102430520Y-85634228D01*
X102318716Y-85522424D01*
X102318715Y-85522423D01*
X102314385Y-85518093D01*
X102314374Y-85518083D01*
X102113101Y-85316810D01*
X102079616Y-85255487D01*
X102084600Y-85185795D01*
X102126472Y-85129862D01*
X102191936Y-85105445D01*
X102214666Y-85105909D01*
X102266683Y-85111770D01*
X102266686Y-85111770D01*
X102266690Y-85111770D01*
X102445935Y-85091574D01*
X102445938Y-85091573D01*
X102445941Y-85091573D01*
X102616208Y-85031994D01*
X102768948Y-84936021D01*
X102896502Y-84808467D01*
X102992475Y-84655727D01*
X103052054Y-84485460D01*
X103052055Y-84485454D01*
X103072251Y-84306208D01*
X103072251Y-84306201D01*
X103052055Y-84126955D01*
X103052054Y-84126950D01*
X102995256Y-83964632D01*
X102992475Y-83956683D01*
X102988768Y-83950784D01*
X102942073Y-83876469D01*
X102896502Y-83803943D01*
X102768948Y-83676389D01*
X102727708Y-83650476D01*
X102616209Y-83580416D01*
X102445940Y-83520836D01*
X102445935Y-83520835D01*
X102266690Y-83500640D01*
X102266682Y-83500640D01*
X102087436Y-83520835D01*
X102087431Y-83520836D01*
X101917162Y-83580416D01*
X101764423Y-83676389D01*
X101636870Y-83803942D01*
X101540897Y-83956681D01*
X101481317Y-84126950D01*
X101481316Y-84126955D01*
X101461121Y-84306201D01*
X101461121Y-84306205D01*
X101463413Y-84326548D01*
X101466982Y-84358226D01*
X101454926Y-84427048D01*
X101407576Y-84478427D01*
X101339965Y-84496050D01*
X101273560Y-84474323D01*
X101256080Y-84459789D01*
X100867041Y-84070750D01*
X99045526Y-82249234D01*
X102694435Y-82249234D01*
X102714630Y-82428480D01*
X102714631Y-82428485D01*
X102774211Y-82598754D01*
X102828108Y-82684530D01*
X102870184Y-82751493D01*
X102997738Y-82879047D01*
X103150478Y-82975020D01*
X103264503Y-83014919D01*
X103320745Y-83034599D01*
X103320750Y-83034600D01*
X103499996Y-83054796D01*
X103500000Y-83054796D01*
X103500004Y-83054796D01*
X103679249Y-83034600D01*
X103679250Y-83034599D01*
X103679255Y-83034599D01*
X103685219Y-83032511D01*
X103754997Y-83028949D01*
X103815625Y-83063678D01*
X103843216Y-83108599D01*
X103870014Y-83185185D01*
X103932964Y-83285369D01*
X103965988Y-83337926D01*
X104093542Y-83465480D01*
X104149499Y-83500640D01*
X104240571Y-83557865D01*
X104246282Y-83561453D01*
X104414126Y-83620184D01*
X104416549Y-83621032D01*
X104416554Y-83621033D01*
X104595800Y-83641229D01*
X104595804Y-83641229D01*
X104595808Y-83641229D01*
X104775053Y-83621033D01*
X104775056Y-83621032D01*
X104775059Y-83621032D01*
X104945326Y-83561453D01*
X104951037Y-83557865D01*
X105009966Y-83520837D01*
X105055712Y-83492092D01*
X105122948Y-83473092D01*
X105162639Y-83480045D01*
X105320737Y-83535366D01*
X105320743Y-83535367D01*
X105320745Y-83535368D01*
X105320746Y-83535368D01*
X105320750Y-83535369D01*
X105499996Y-83555565D01*
X105500000Y-83555565D01*
X105500004Y-83555565D01*
X105679249Y-83535369D01*
X105679252Y-83535368D01*
X105679255Y-83535368D01*
X105849522Y-83475789D01*
X106002262Y-83379816D01*
X106129816Y-83252262D01*
X106225789Y-83099522D01*
X106285368Y-82929255D01*
X106286129Y-82922500D01*
X106305565Y-82750003D01*
X106305565Y-82749996D01*
X106285369Y-82570750D01*
X106285368Y-82570745D01*
X106235861Y-82429262D01*
X106225789Y-82400478D01*
X106206310Y-82369478D01*
X106186130Y-82337361D01*
X106129816Y-82247738D01*
X106002262Y-82120184D01*
X105960054Y-82093663D01*
X105849523Y-82024211D01*
X105679254Y-81964631D01*
X105679249Y-81964630D01*
X105500004Y-81944435D01*
X105499996Y-81944435D01*
X105320750Y-81964630D01*
X105320742Y-81964632D01*
X105221130Y-81999488D01*
X105151351Y-82003049D01*
X105090724Y-81968320D01*
X105058497Y-81906327D01*
X105056959Y-81896355D01*
X105050024Y-81834803D01*
X104990445Y-81664536D01*
X104894472Y-81511796D01*
X104766918Y-81384242D01*
X104759874Y-81379816D01*
X104614179Y-81288269D01*
X104443910Y-81228689D01*
X104443905Y-81228688D01*
X104264660Y-81208493D01*
X104264652Y-81208493D01*
X104085406Y-81228688D01*
X104085401Y-81228689D01*
X103915132Y-81288269D01*
X103762390Y-81384244D01*
X103762389Y-81384245D01*
X103724638Y-81421995D01*
X103663314Y-81455479D01*
X103623076Y-81457532D01*
X103500004Y-81443666D01*
X103499996Y-81443666D01*
X103320750Y-81463861D01*
X103320745Y-81463862D01*
X103150476Y-81523442D01*
X102997737Y-81619415D01*
X102870184Y-81746968D01*
X102774211Y-81899707D01*
X102714631Y-82069976D01*
X102714630Y-82069981D01*
X102694435Y-82249227D01*
X102694435Y-82249234D01*
X99045526Y-82249234D01*
X96796296Y-80000003D01*
X104194435Y-80000003D01*
X104214630Y-80179249D01*
X104214631Y-80179254D01*
X104274211Y-80349523D01*
X104347398Y-80465998D01*
X104370184Y-80502262D01*
X104497738Y-80629816D01*
X104650478Y-80725789D01*
X104662027Y-80729830D01*
X104820745Y-80785368D01*
X104820750Y-80785369D01*
X104999996Y-80805565D01*
X105000000Y-80805565D01*
X105000004Y-80805565D01*
X105179249Y-80785369D01*
X105179252Y-80785368D01*
X105179255Y-80785368D01*
X105349522Y-80725789D01*
X105502262Y-80629816D01*
X105629816Y-80502262D01*
X105725789Y-80349522D01*
X105785368Y-80179255D01*
X105787562Y-80159786D01*
X105805565Y-80000003D01*
X105805565Y-79999996D01*
X105785369Y-79820750D01*
X105785368Y-79820745D01*
X105741170Y-79694435D01*
X105725789Y-79650478D01*
X105629816Y-79497738D01*
X105502262Y-79370184D01*
X105447408Y-79335717D01*
X105349523Y-79274211D01*
X105179254Y-79214631D01*
X105179249Y-79214630D01*
X105000004Y-79194435D01*
X104999996Y-79194435D01*
X104820750Y-79214630D01*
X104820745Y-79214631D01*
X104650476Y-79274211D01*
X104497737Y-79370184D01*
X104370184Y-79497737D01*
X104274211Y-79650476D01*
X104214631Y-79820745D01*
X104214630Y-79820750D01*
X104194435Y-79999996D01*
X104194435Y-80000003D01*
X96796296Y-80000003D01*
X96636819Y-79840526D01*
X96603334Y-79779203D01*
X96600500Y-79752845D01*
X96600500Y-73871288D01*
X98149500Y-73871288D01*
X98181161Y-74111785D01*
X98243947Y-74346104D01*
X98336773Y-74570205D01*
X98336776Y-74570212D01*
X98458064Y-74780289D01*
X98458066Y-74780292D01*
X98458067Y-74780293D01*
X98605733Y-74972736D01*
X98605739Y-74972743D01*
X98777256Y-75144260D01*
X98777263Y-75144266D01*
X98842522Y-75194341D01*
X98969711Y-75291936D01*
X99179788Y-75413224D01*
X99403900Y-75506054D01*
X99638211Y-75568838D01*
X99818586Y-75592584D01*
X99878711Y-75600500D01*
X99878712Y-75600500D01*
X100121289Y-75600500D01*
X100169388Y-75594167D01*
X100361789Y-75568838D01*
X100596100Y-75506054D01*
X100820212Y-75413224D01*
X101030289Y-75291936D01*
X101222738Y-75144265D01*
X101394265Y-74972738D01*
X101541936Y-74780289D01*
X101663224Y-74570212D01*
X101756054Y-74346100D01*
X101818838Y-74111789D01*
X101850500Y-73871288D01*
X101850500Y-73628712D01*
X101818838Y-73388211D01*
X101756054Y-73153900D01*
X101663224Y-72929788D01*
X101541936Y-72719711D01*
X101394265Y-72527262D01*
X101394260Y-72527256D01*
X101222743Y-72355739D01*
X101222736Y-72355733D01*
X101030293Y-72208067D01*
X101030292Y-72208066D01*
X101030289Y-72208064D01*
X100820212Y-72086776D01*
X100755562Y-72059997D01*
X100596104Y-71993947D01*
X100361785Y-71931161D01*
X100121289Y-71899500D01*
X100121288Y-71899500D01*
X99878712Y-71899500D01*
X99878711Y-71899500D01*
X99638214Y-71931161D01*
X99403895Y-71993947D01*
X99179794Y-72086773D01*
X99179785Y-72086777D01*
X98969706Y-72208067D01*
X98777263Y-72355733D01*
X98777256Y-72355739D01*
X98605739Y-72527256D01*
X98605733Y-72527263D01*
X98458067Y-72719706D01*
X98336777Y-72929785D01*
X98336773Y-72929794D01*
X98243947Y-73153895D01*
X98181161Y-73388214D01*
X98149500Y-73628711D01*
X98149500Y-73871288D01*
X96600500Y-73871288D01*
X96600500Y-69559060D01*
X96600501Y-69559047D01*
X96600501Y-69390944D01*
X96576113Y-69299929D01*
X96559577Y-69238216D01*
X96497841Y-69131285D01*
X96480524Y-69101290D01*
X96480518Y-69101282D01*
X95626559Y-68247323D01*
X94770913Y-67391678D01*
X94737429Y-67330356D01*
X94738821Y-67271902D01*
X94758069Y-67200072D01*
X94758069Y-67200070D01*
X94758070Y-67200068D01*
X94777323Y-66980000D01*
X94758070Y-66759932D01*
X94700894Y-66546550D01*
X94607534Y-66346339D01*
X94480826Y-66165380D01*
X94324620Y-66009174D01*
X94324616Y-66009171D01*
X94324615Y-66009170D01*
X94143666Y-65882468D01*
X94143658Y-65882464D01*
X94014811Y-65822382D01*
X93962371Y-65776210D01*
X93943219Y-65709017D01*
X93963435Y-65642135D01*
X94014811Y-65597618D01*
X94020802Y-65594824D01*
X94143662Y-65537534D01*
X94324620Y-65410826D01*
X94469028Y-65266418D01*
X94530351Y-65232933D01*
X94600043Y-65237917D01*
G37*
%TD.AperFunction*%
%TD*%
M02*
