M48
; DRILL file {KiCad 8.0.1} date 2024-04-19T02:29:29-0700
; FORMAT={-:-/ absolute / inch / decimal}
; #@! TF.CreationDate,2024-04-19T02:29:29-07:00
; #@! TF.GenerationSoftware,Kicad,Pcbnew,8.0.1
; #@! TF.FileFunction,Plated,1,2,PTH
FMAT,2
INCH
; #@! TA.AperFunction,Plated,PTH,ViaDrill
T1C0.0118
; #@! TA.AperFunction,Plated,PTH,ComponentDrill
T2C0.0236
; #@! TA.AperFunction,Plated,PTH,ComponentDrill
T3C0.0300
; #@! TA.AperFunction,Plated,PTH,ComponentDrill
T4C0.0315
; #@! TA.AperFunction,Plated,PTH,ComponentDrill
T5C0.0374
; #@! TA.AperFunction,Plated,PTH,ComponentDrill
T6C0.0394
%
G90
G05
T1
X4.839Y-4.1713
X4.8587Y-3.6988
X4.8587Y-3.9449
X5.0555Y-4.2205
X5.0752Y-4.0531
X5.0949Y-3.748
X5.1047Y-3.5807
X5.1343Y-4.0728
X5.1835Y-3.5285
X5.2091Y-3.503
X5.213Y-4.5945
X5.2327Y-3.7972
X5.2425Y-4.1516
X5.4492Y-3.2854
X5.5575Y-3.8563
X5.587Y-3.5413
X5.6165Y-3.2756
X5.6643Y-3.0925
X5.6657Y-3.7283
X5.6657Y-3.7972
X5.6805Y-3.123
X5.7051Y-3.6201
X5.7543Y-3.1476
X5.7642Y-4.378
X5.8134Y-3.1476
X5.902Y-2.9902
X5.902Y-3.0787
X6.0201Y-3.1476
X6.0442Y-4.2249
X6.0594Y-3.3051
X6.0693Y-3.876
X6.0791Y-3.8071
X6.1927Y-3.4807
X6.2287Y-3.4724
X6.2465Y-3.9646
X6.2661Y-3.4724
X6.285Y-3.9835
X6.2858Y-4.0374
X6.3055Y-3.4724
X6.3154Y-3.9941
X6.3252Y-3.6201
X6.4638Y-3.4968
X6.4981Y-3.4866
X6.7189Y-3.8366
X6.7287Y-3.7185
X6.7386Y-4.2008
X6.8567Y-3.4724
X6.8902Y-3.6594
X6.9261Y-3.7185
X6.965Y-3.8563
X6.9846Y-3.4626
T3
X5.6563Y-4.6543
X5.7563Y-4.6543
X5.8563Y-4.6543
X5.9563Y-4.6543
X6.0563Y-4.6543
X6.1563Y-4.6543
X6.2563Y-4.6543
X6.3563Y-4.6543
T4
X5.1414Y-3.8858
X5.2399Y-3.8858
X5.4146Y-4.4862
X5.5146Y-4.4862
X5.6146Y-4.4862
X5.6165Y-4.2795
X5.6953Y-4.2795
T5
X5.3705Y-4.811
X5.4689Y-4.811
T6
X5.8528Y-3.4843
X5.8528Y-3.5843
X5.8528Y-3.6843
X5.8528Y-3.7843
X5.8528Y-3.8843
X5.8528Y-3.9843
X5.8528Y-4.0843
X5.8528Y-4.1843
X5.8528Y-4.2843
X5.8528Y-4.3843
X5.9528Y-3.4843
X5.9528Y-3.5843
X5.9528Y-3.6843
X5.9528Y-3.7843
X5.9528Y-3.8843
X5.9528Y-3.9843
X5.9528Y-4.0843
X5.9528Y-4.1843
X5.9528Y-4.2843
X5.9528Y-4.3843
T2
G00X5.7319Y-2.8937
M15
G01X5.7319Y-2.8425
M16
G05
G00X5.7319Y-3.0384
M15
G01X5.7319Y-2.999
M16
G05
G00X6.072Y-2.8937
M15
G01X6.072Y-2.8425
M16
G05
G00X6.072Y-3.0384
M15
G01X6.072Y-2.999
M16
G05
M30
