%TF.GenerationSoftware,KiCad,Pcbnew,8.0.1*%
%TF.CreationDate,2024-04-19T02:29:26-07:00*%
%TF.ProjectId,ESP32C3_Upper,45535033-3243-4335-9f55-707065722e6b,rev?*%
%TF.SameCoordinates,Original*%
%TF.FileFunction,Legend,Top*%
%TF.FilePolarity,Positive*%
%FSLAX46Y46*%
G04 Gerber Fmt 4.6, Leading zero omitted, Abs format (unit mm)*
G04 Created by KiCad (PCBNEW 8.0.1) date 2024-04-19 02:29:26*
%MOMM*%
%LPD*%
G01*
G04 APERTURE LIST*
%ADD10C,0.250000*%
%ADD11C,0.300000*%
%ADD12C,0.150000*%
%ADD13C,0.100000*%
%ADD14C,0.120000*%
G04 APERTURE END LIST*
D10*
X139926377Y-126162238D02*
X139831139Y-126114619D01*
X139831139Y-126114619D02*
X139688282Y-126114619D01*
X139688282Y-126114619D02*
X139545425Y-126162238D01*
X139545425Y-126162238D02*
X139450187Y-126257476D01*
X139450187Y-126257476D02*
X139402568Y-126352714D01*
X139402568Y-126352714D02*
X139354949Y-126543190D01*
X139354949Y-126543190D02*
X139354949Y-126686047D01*
X139354949Y-126686047D02*
X139402568Y-126876523D01*
X139402568Y-126876523D02*
X139450187Y-126971761D01*
X139450187Y-126971761D02*
X139545425Y-127067000D01*
X139545425Y-127067000D02*
X139688282Y-127114619D01*
X139688282Y-127114619D02*
X139783520Y-127114619D01*
X139783520Y-127114619D02*
X139926377Y-127067000D01*
X139926377Y-127067000D02*
X139973996Y-127019380D01*
X139973996Y-127019380D02*
X139973996Y-126686047D01*
X139973996Y-126686047D02*
X139783520Y-126686047D01*
X140402568Y-127114619D02*
X140402568Y-126114619D01*
X140402568Y-126114619D02*
X140973996Y-127114619D01*
X140973996Y-127114619D02*
X140973996Y-126114619D01*
X141450187Y-127114619D02*
X141450187Y-126114619D01*
X141450187Y-126114619D02*
X141688282Y-126114619D01*
X141688282Y-126114619D02*
X141831139Y-126162238D01*
X141831139Y-126162238D02*
X141926377Y-126257476D01*
X141926377Y-126257476D02*
X141973996Y-126352714D01*
X141973996Y-126352714D02*
X142021615Y-126543190D01*
X142021615Y-126543190D02*
X142021615Y-126686047D01*
X142021615Y-126686047D02*
X141973996Y-126876523D01*
X141973996Y-126876523D02*
X141926377Y-126971761D01*
X141926377Y-126971761D02*
X141831139Y-127067000D01*
X141831139Y-127067000D02*
X141688282Y-127114619D01*
X141688282Y-127114619D02*
X141450187Y-127114619D01*
D11*
X146500000Y-86250000D02*
X153500000Y-86250000D01*
X146500000Y-86250000D02*
X146500000Y-89250000D01*
X153500000Y-86250000D02*
X153500000Y-89250000D01*
D10*
X149176377Y-84912238D02*
X149081139Y-84864619D01*
X149081139Y-84864619D02*
X148938282Y-84864619D01*
X148938282Y-84864619D02*
X148795425Y-84912238D01*
X148795425Y-84912238D02*
X148700187Y-85007476D01*
X148700187Y-85007476D02*
X148652568Y-85102714D01*
X148652568Y-85102714D02*
X148604949Y-85293190D01*
X148604949Y-85293190D02*
X148604949Y-85436047D01*
X148604949Y-85436047D02*
X148652568Y-85626523D01*
X148652568Y-85626523D02*
X148700187Y-85721761D01*
X148700187Y-85721761D02*
X148795425Y-85817000D01*
X148795425Y-85817000D02*
X148938282Y-85864619D01*
X148938282Y-85864619D02*
X149033520Y-85864619D01*
X149033520Y-85864619D02*
X149176377Y-85817000D01*
X149176377Y-85817000D02*
X149223996Y-85769380D01*
X149223996Y-85769380D02*
X149223996Y-85436047D01*
X149223996Y-85436047D02*
X149033520Y-85436047D01*
X149652568Y-85864619D02*
X149652568Y-84864619D01*
X149652568Y-84864619D02*
X150223996Y-85864619D01*
X150223996Y-85864619D02*
X150223996Y-84864619D01*
X150700187Y-85864619D02*
X150700187Y-84864619D01*
X150700187Y-84864619D02*
X150938282Y-84864619D01*
X150938282Y-84864619D02*
X151081139Y-84912238D01*
X151081139Y-84912238D02*
X151176377Y-85007476D01*
X151176377Y-85007476D02*
X151223996Y-85102714D01*
X151223996Y-85102714D02*
X151271615Y-85293190D01*
X151271615Y-85293190D02*
X151271615Y-85436047D01*
X151271615Y-85436047D02*
X151223996Y-85626523D01*
X151223996Y-85626523D02*
X151176377Y-85721761D01*
X151176377Y-85721761D02*
X151081139Y-85817000D01*
X151081139Y-85817000D02*
X150938282Y-85864619D01*
X150938282Y-85864619D02*
X150700187Y-85864619D01*
D12*
X150544819Y-82430357D02*
X150068628Y-82763690D01*
X150544819Y-83001785D02*
X149544819Y-83001785D01*
X149544819Y-83001785D02*
X149544819Y-82620833D01*
X149544819Y-82620833D02*
X149592438Y-82525595D01*
X149592438Y-82525595D02*
X149640057Y-82477976D01*
X149640057Y-82477976D02*
X149735295Y-82430357D01*
X149735295Y-82430357D02*
X149878152Y-82430357D01*
X149878152Y-82430357D02*
X149973390Y-82477976D01*
X149973390Y-82477976D02*
X150021009Y-82525595D01*
X150021009Y-82525595D02*
X150068628Y-82620833D01*
X150068628Y-82620833D02*
X150068628Y-83001785D01*
X150544819Y-81477976D02*
X150544819Y-82049404D01*
X150544819Y-81763690D02*
X149544819Y-81763690D01*
X149544819Y-81763690D02*
X149687676Y-81858928D01*
X149687676Y-81858928D02*
X149782914Y-81954166D01*
X149782914Y-81954166D02*
X149830533Y-82049404D01*
X149640057Y-81097023D02*
X149592438Y-81049404D01*
X149592438Y-81049404D02*
X149544819Y-80954166D01*
X149544819Y-80954166D02*
X149544819Y-80716071D01*
X149544819Y-80716071D02*
X149592438Y-80620833D01*
X149592438Y-80620833D02*
X149640057Y-80573214D01*
X149640057Y-80573214D02*
X149735295Y-80525595D01*
X149735295Y-80525595D02*
X149830533Y-80525595D01*
X149830533Y-80525595D02*
X149973390Y-80573214D01*
X149973390Y-80573214D02*
X150544819Y-81144642D01*
X150544819Y-81144642D02*
X150544819Y-80525595D01*
X139864819Y-78811904D02*
X140674342Y-78811904D01*
X140674342Y-78811904D02*
X140769580Y-78764285D01*
X140769580Y-78764285D02*
X140817200Y-78716666D01*
X140817200Y-78716666D02*
X140864819Y-78621428D01*
X140864819Y-78621428D02*
X140864819Y-78430952D01*
X140864819Y-78430952D02*
X140817200Y-78335714D01*
X140817200Y-78335714D02*
X140769580Y-78288095D01*
X140769580Y-78288095D02*
X140674342Y-78240476D01*
X140674342Y-78240476D02*
X139864819Y-78240476D01*
X140864819Y-77240476D02*
X140864819Y-77811904D01*
X140864819Y-77526190D02*
X139864819Y-77526190D01*
X139864819Y-77526190D02*
X140007676Y-77621428D01*
X140007676Y-77621428D02*
X140102914Y-77716666D01*
X140102914Y-77716666D02*
X140150533Y-77811904D01*
X153738333Y-108114819D02*
X153405000Y-107638628D01*
X153166905Y-108114819D02*
X153166905Y-107114819D01*
X153166905Y-107114819D02*
X153547857Y-107114819D01*
X153547857Y-107114819D02*
X153643095Y-107162438D01*
X153643095Y-107162438D02*
X153690714Y-107210057D01*
X153690714Y-107210057D02*
X153738333Y-107305295D01*
X153738333Y-107305295D02*
X153738333Y-107448152D01*
X153738333Y-107448152D02*
X153690714Y-107543390D01*
X153690714Y-107543390D02*
X153643095Y-107591009D01*
X153643095Y-107591009D02*
X153547857Y-107638628D01*
X153547857Y-107638628D02*
X153166905Y-107638628D01*
X154595476Y-107448152D02*
X154595476Y-108114819D01*
X154357381Y-107067200D02*
X154119286Y-107781485D01*
X154119286Y-107781485D02*
X154738333Y-107781485D01*
X141243333Y-101809580D02*
X141195714Y-101857200D01*
X141195714Y-101857200D02*
X141052857Y-101904819D01*
X141052857Y-101904819D02*
X140957619Y-101904819D01*
X140957619Y-101904819D02*
X140814762Y-101857200D01*
X140814762Y-101857200D02*
X140719524Y-101761961D01*
X140719524Y-101761961D02*
X140671905Y-101666723D01*
X140671905Y-101666723D02*
X140624286Y-101476247D01*
X140624286Y-101476247D02*
X140624286Y-101333390D01*
X140624286Y-101333390D02*
X140671905Y-101142914D01*
X140671905Y-101142914D02*
X140719524Y-101047676D01*
X140719524Y-101047676D02*
X140814762Y-100952438D01*
X140814762Y-100952438D02*
X140957619Y-100904819D01*
X140957619Y-100904819D02*
X141052857Y-100904819D01*
X141052857Y-100904819D02*
X141195714Y-100952438D01*
X141195714Y-100952438D02*
X141243333Y-101000057D01*
X141814762Y-101333390D02*
X141719524Y-101285771D01*
X141719524Y-101285771D02*
X141671905Y-101238152D01*
X141671905Y-101238152D02*
X141624286Y-101142914D01*
X141624286Y-101142914D02*
X141624286Y-101095295D01*
X141624286Y-101095295D02*
X141671905Y-101000057D01*
X141671905Y-101000057D02*
X141719524Y-100952438D01*
X141719524Y-100952438D02*
X141814762Y-100904819D01*
X141814762Y-100904819D02*
X142005238Y-100904819D01*
X142005238Y-100904819D02*
X142100476Y-100952438D01*
X142100476Y-100952438D02*
X142148095Y-101000057D01*
X142148095Y-101000057D02*
X142195714Y-101095295D01*
X142195714Y-101095295D02*
X142195714Y-101142914D01*
X142195714Y-101142914D02*
X142148095Y-101238152D01*
X142148095Y-101238152D02*
X142100476Y-101285771D01*
X142100476Y-101285771D02*
X142005238Y-101333390D01*
X142005238Y-101333390D02*
X141814762Y-101333390D01*
X141814762Y-101333390D02*
X141719524Y-101381009D01*
X141719524Y-101381009D02*
X141671905Y-101428628D01*
X141671905Y-101428628D02*
X141624286Y-101523866D01*
X141624286Y-101523866D02*
X141624286Y-101714342D01*
X141624286Y-101714342D02*
X141671905Y-101809580D01*
X141671905Y-101809580D02*
X141719524Y-101857200D01*
X141719524Y-101857200D02*
X141814762Y-101904819D01*
X141814762Y-101904819D02*
X142005238Y-101904819D01*
X142005238Y-101904819D02*
X142100476Y-101857200D01*
X142100476Y-101857200D02*
X142148095Y-101809580D01*
X142148095Y-101809580D02*
X142195714Y-101714342D01*
X142195714Y-101714342D02*
X142195714Y-101523866D01*
X142195714Y-101523866D02*
X142148095Y-101428628D01*
X142148095Y-101428628D02*
X142100476Y-101381009D01*
X142100476Y-101381009D02*
X142005238Y-101333390D01*
X156826667Y-76857200D02*
X156969524Y-76904819D01*
X156969524Y-76904819D02*
X157207619Y-76904819D01*
X157207619Y-76904819D02*
X157302857Y-76857200D01*
X157302857Y-76857200D02*
X157350476Y-76809580D01*
X157350476Y-76809580D02*
X157398095Y-76714342D01*
X157398095Y-76714342D02*
X157398095Y-76619104D01*
X157398095Y-76619104D02*
X157350476Y-76523866D01*
X157350476Y-76523866D02*
X157302857Y-76476247D01*
X157302857Y-76476247D02*
X157207619Y-76428628D01*
X157207619Y-76428628D02*
X157017143Y-76381009D01*
X157017143Y-76381009D02*
X156921905Y-76333390D01*
X156921905Y-76333390D02*
X156874286Y-76285771D01*
X156874286Y-76285771D02*
X156826667Y-76190533D01*
X156826667Y-76190533D02*
X156826667Y-76095295D01*
X156826667Y-76095295D02*
X156874286Y-76000057D01*
X156874286Y-76000057D02*
X156921905Y-75952438D01*
X156921905Y-75952438D02*
X157017143Y-75904819D01*
X157017143Y-75904819D02*
X157255238Y-75904819D01*
X157255238Y-75904819D02*
X157398095Y-75952438D01*
X157731429Y-75904819D02*
X157969524Y-76904819D01*
X157969524Y-76904819D02*
X158160000Y-76190533D01*
X158160000Y-76190533D02*
X158350476Y-76904819D01*
X158350476Y-76904819D02*
X158588572Y-75904819D01*
X158874286Y-75904819D02*
X159493333Y-75904819D01*
X159493333Y-75904819D02*
X159160000Y-76285771D01*
X159160000Y-76285771D02*
X159302857Y-76285771D01*
X159302857Y-76285771D02*
X159398095Y-76333390D01*
X159398095Y-76333390D02*
X159445714Y-76381009D01*
X159445714Y-76381009D02*
X159493333Y-76476247D01*
X159493333Y-76476247D02*
X159493333Y-76714342D01*
X159493333Y-76714342D02*
X159445714Y-76809580D01*
X159445714Y-76809580D02*
X159398095Y-76857200D01*
X159398095Y-76857200D02*
X159302857Y-76904819D01*
X159302857Y-76904819D02*
X159017143Y-76904819D01*
X159017143Y-76904819D02*
X158921905Y-76857200D01*
X158921905Y-76857200D02*
X158874286Y-76809580D01*
X178743333Y-107224580D02*
X178695714Y-107272200D01*
X178695714Y-107272200D02*
X178552857Y-107319819D01*
X178552857Y-107319819D02*
X178457619Y-107319819D01*
X178457619Y-107319819D02*
X178314762Y-107272200D01*
X178314762Y-107272200D02*
X178219524Y-107176961D01*
X178219524Y-107176961D02*
X178171905Y-107081723D01*
X178171905Y-107081723D02*
X178124286Y-106891247D01*
X178124286Y-106891247D02*
X178124286Y-106748390D01*
X178124286Y-106748390D02*
X178171905Y-106557914D01*
X178171905Y-106557914D02*
X178219524Y-106462676D01*
X178219524Y-106462676D02*
X178314762Y-106367438D01*
X178314762Y-106367438D02*
X178457619Y-106319819D01*
X178457619Y-106319819D02*
X178552857Y-106319819D01*
X178552857Y-106319819D02*
X178695714Y-106367438D01*
X178695714Y-106367438D02*
X178743333Y-106415057D01*
X179695714Y-107319819D02*
X179124286Y-107319819D01*
X179410000Y-107319819D02*
X179410000Y-106319819D01*
X179410000Y-106319819D02*
X179314762Y-106462676D01*
X179314762Y-106462676D02*
X179219524Y-106557914D01*
X179219524Y-106557914D02*
X179124286Y-106605533D01*
X129693333Y-115059580D02*
X129645714Y-115107200D01*
X129645714Y-115107200D02*
X129502857Y-115154819D01*
X129502857Y-115154819D02*
X129407619Y-115154819D01*
X129407619Y-115154819D02*
X129264762Y-115107200D01*
X129264762Y-115107200D02*
X129169524Y-115011961D01*
X129169524Y-115011961D02*
X129121905Y-114916723D01*
X129121905Y-114916723D02*
X129074286Y-114726247D01*
X129074286Y-114726247D02*
X129074286Y-114583390D01*
X129074286Y-114583390D02*
X129121905Y-114392914D01*
X129121905Y-114392914D02*
X129169524Y-114297676D01*
X129169524Y-114297676D02*
X129264762Y-114202438D01*
X129264762Y-114202438D02*
X129407619Y-114154819D01*
X129407619Y-114154819D02*
X129502857Y-114154819D01*
X129502857Y-114154819D02*
X129645714Y-114202438D01*
X129645714Y-114202438D02*
X129693333Y-114250057D01*
X130550476Y-114154819D02*
X130360000Y-114154819D01*
X130360000Y-114154819D02*
X130264762Y-114202438D01*
X130264762Y-114202438D02*
X130217143Y-114250057D01*
X130217143Y-114250057D02*
X130121905Y-114392914D01*
X130121905Y-114392914D02*
X130074286Y-114583390D01*
X130074286Y-114583390D02*
X130074286Y-114964342D01*
X130074286Y-114964342D02*
X130121905Y-115059580D01*
X130121905Y-115059580D02*
X130169524Y-115107200D01*
X130169524Y-115107200D02*
X130264762Y-115154819D01*
X130264762Y-115154819D02*
X130455238Y-115154819D01*
X130455238Y-115154819D02*
X130550476Y-115107200D01*
X130550476Y-115107200D02*
X130598095Y-115059580D01*
X130598095Y-115059580D02*
X130645714Y-114964342D01*
X130645714Y-114964342D02*
X130645714Y-114726247D01*
X130645714Y-114726247D02*
X130598095Y-114631009D01*
X130598095Y-114631009D02*
X130550476Y-114583390D01*
X130550476Y-114583390D02*
X130455238Y-114535771D01*
X130455238Y-114535771D02*
X130264762Y-114535771D01*
X130264762Y-114535771D02*
X130169524Y-114583390D01*
X130169524Y-114583390D02*
X130121905Y-114631009D01*
X130121905Y-114631009D02*
X130074286Y-114726247D01*
X120792142Y-93654819D02*
X120458809Y-93178628D01*
X120220714Y-93654819D02*
X120220714Y-92654819D01*
X120220714Y-92654819D02*
X120601666Y-92654819D01*
X120601666Y-92654819D02*
X120696904Y-92702438D01*
X120696904Y-92702438D02*
X120744523Y-92750057D01*
X120744523Y-92750057D02*
X120792142Y-92845295D01*
X120792142Y-92845295D02*
X120792142Y-92988152D01*
X120792142Y-92988152D02*
X120744523Y-93083390D01*
X120744523Y-93083390D02*
X120696904Y-93131009D01*
X120696904Y-93131009D02*
X120601666Y-93178628D01*
X120601666Y-93178628D02*
X120220714Y-93178628D01*
X121173095Y-92750057D02*
X121220714Y-92702438D01*
X121220714Y-92702438D02*
X121315952Y-92654819D01*
X121315952Y-92654819D02*
X121554047Y-92654819D01*
X121554047Y-92654819D02*
X121649285Y-92702438D01*
X121649285Y-92702438D02*
X121696904Y-92750057D01*
X121696904Y-92750057D02*
X121744523Y-92845295D01*
X121744523Y-92845295D02*
X121744523Y-92940533D01*
X121744523Y-92940533D02*
X121696904Y-93083390D01*
X121696904Y-93083390D02*
X121125476Y-93654819D01*
X121125476Y-93654819D02*
X121744523Y-93654819D01*
X122077857Y-92654819D02*
X122696904Y-92654819D01*
X122696904Y-92654819D02*
X122363571Y-93035771D01*
X122363571Y-93035771D02*
X122506428Y-93035771D01*
X122506428Y-93035771D02*
X122601666Y-93083390D01*
X122601666Y-93083390D02*
X122649285Y-93131009D01*
X122649285Y-93131009D02*
X122696904Y-93226247D01*
X122696904Y-93226247D02*
X122696904Y-93464342D01*
X122696904Y-93464342D02*
X122649285Y-93559580D01*
X122649285Y-93559580D02*
X122601666Y-93607200D01*
X122601666Y-93607200D02*
X122506428Y-93654819D01*
X122506428Y-93654819D02*
X122220714Y-93654819D01*
X122220714Y-93654819D02*
X122125476Y-93607200D01*
X122125476Y-93607200D02*
X122077857Y-93559580D01*
X135864819Y-79663094D02*
X134864819Y-79663094D01*
X134864819Y-79663094D02*
X134864819Y-79424999D01*
X134864819Y-79424999D02*
X134912438Y-79282142D01*
X134912438Y-79282142D02*
X135007676Y-79186904D01*
X135007676Y-79186904D02*
X135102914Y-79139285D01*
X135102914Y-79139285D02*
X135293390Y-79091666D01*
X135293390Y-79091666D02*
X135436247Y-79091666D01*
X135436247Y-79091666D02*
X135626723Y-79139285D01*
X135626723Y-79139285D02*
X135721961Y-79186904D01*
X135721961Y-79186904D02*
X135817200Y-79282142D01*
X135817200Y-79282142D02*
X135864819Y-79424999D01*
X135864819Y-79424999D02*
X135864819Y-79663094D01*
X134960057Y-78710713D02*
X134912438Y-78663094D01*
X134912438Y-78663094D02*
X134864819Y-78567856D01*
X134864819Y-78567856D02*
X134864819Y-78329761D01*
X134864819Y-78329761D02*
X134912438Y-78234523D01*
X134912438Y-78234523D02*
X134960057Y-78186904D01*
X134960057Y-78186904D02*
X135055295Y-78139285D01*
X135055295Y-78139285D02*
X135150533Y-78139285D01*
X135150533Y-78139285D02*
X135293390Y-78186904D01*
X135293390Y-78186904D02*
X135864819Y-78758332D01*
X135864819Y-78758332D02*
X135864819Y-78139285D01*
X131714819Y-108116666D02*
X131238628Y-108449999D01*
X131714819Y-108688094D02*
X130714819Y-108688094D01*
X130714819Y-108688094D02*
X130714819Y-108307142D01*
X130714819Y-108307142D02*
X130762438Y-108211904D01*
X130762438Y-108211904D02*
X130810057Y-108164285D01*
X130810057Y-108164285D02*
X130905295Y-108116666D01*
X130905295Y-108116666D02*
X131048152Y-108116666D01*
X131048152Y-108116666D02*
X131143390Y-108164285D01*
X131143390Y-108164285D02*
X131191009Y-108211904D01*
X131191009Y-108211904D02*
X131238628Y-108307142D01*
X131238628Y-108307142D02*
X131238628Y-108688094D01*
X130714819Y-107783332D02*
X130714819Y-107164285D01*
X130714819Y-107164285D02*
X131095771Y-107497618D01*
X131095771Y-107497618D02*
X131095771Y-107354761D01*
X131095771Y-107354761D02*
X131143390Y-107259523D01*
X131143390Y-107259523D02*
X131191009Y-107211904D01*
X131191009Y-107211904D02*
X131286247Y-107164285D01*
X131286247Y-107164285D02*
X131524342Y-107164285D01*
X131524342Y-107164285D02*
X131619580Y-107211904D01*
X131619580Y-107211904D02*
X131667200Y-107259523D01*
X131667200Y-107259523D02*
X131714819Y-107354761D01*
X131714819Y-107354761D02*
X131714819Y-107640475D01*
X131714819Y-107640475D02*
X131667200Y-107735713D01*
X131667200Y-107735713D02*
X131619580Y-107783332D01*
X135204819Y-93642857D02*
X134728628Y-93976190D01*
X135204819Y-94214285D02*
X134204819Y-94214285D01*
X134204819Y-94214285D02*
X134204819Y-93833333D01*
X134204819Y-93833333D02*
X134252438Y-93738095D01*
X134252438Y-93738095D02*
X134300057Y-93690476D01*
X134300057Y-93690476D02*
X134395295Y-93642857D01*
X134395295Y-93642857D02*
X134538152Y-93642857D01*
X134538152Y-93642857D02*
X134633390Y-93690476D01*
X134633390Y-93690476D02*
X134681009Y-93738095D01*
X134681009Y-93738095D02*
X134728628Y-93833333D01*
X134728628Y-93833333D02*
X134728628Y-94214285D01*
X135204819Y-92690476D02*
X135204819Y-93261904D01*
X135204819Y-92976190D02*
X134204819Y-92976190D01*
X134204819Y-92976190D02*
X134347676Y-93071428D01*
X134347676Y-93071428D02*
X134442914Y-93166666D01*
X134442914Y-93166666D02*
X134490533Y-93261904D01*
X134204819Y-92357142D02*
X134204819Y-91738095D01*
X134204819Y-91738095D02*
X134585771Y-92071428D01*
X134585771Y-92071428D02*
X134585771Y-91928571D01*
X134585771Y-91928571D02*
X134633390Y-91833333D01*
X134633390Y-91833333D02*
X134681009Y-91785714D01*
X134681009Y-91785714D02*
X134776247Y-91738095D01*
X134776247Y-91738095D02*
X135014342Y-91738095D01*
X135014342Y-91738095D02*
X135109580Y-91785714D01*
X135109580Y-91785714D02*
X135157200Y-91833333D01*
X135157200Y-91833333D02*
X135204819Y-91928571D01*
X135204819Y-91928571D02*
X135204819Y-92214285D01*
X135204819Y-92214285D02*
X135157200Y-92309523D01*
X135157200Y-92309523D02*
X135109580Y-92357142D01*
X131864819Y-89342857D02*
X131388628Y-89676190D01*
X131864819Y-89914285D02*
X130864819Y-89914285D01*
X130864819Y-89914285D02*
X130864819Y-89533333D01*
X130864819Y-89533333D02*
X130912438Y-89438095D01*
X130912438Y-89438095D02*
X130960057Y-89390476D01*
X130960057Y-89390476D02*
X131055295Y-89342857D01*
X131055295Y-89342857D02*
X131198152Y-89342857D01*
X131198152Y-89342857D02*
X131293390Y-89390476D01*
X131293390Y-89390476D02*
X131341009Y-89438095D01*
X131341009Y-89438095D02*
X131388628Y-89533333D01*
X131388628Y-89533333D02*
X131388628Y-89914285D01*
X131864819Y-88390476D02*
X131864819Y-88961904D01*
X131864819Y-88676190D02*
X130864819Y-88676190D01*
X130864819Y-88676190D02*
X131007676Y-88771428D01*
X131007676Y-88771428D02*
X131102914Y-88866666D01*
X131102914Y-88866666D02*
X131150533Y-88961904D01*
X130864819Y-87771428D02*
X130864819Y-87676190D01*
X130864819Y-87676190D02*
X130912438Y-87580952D01*
X130912438Y-87580952D02*
X130960057Y-87533333D01*
X130960057Y-87533333D02*
X131055295Y-87485714D01*
X131055295Y-87485714D02*
X131245771Y-87438095D01*
X131245771Y-87438095D02*
X131483866Y-87438095D01*
X131483866Y-87438095D02*
X131674342Y-87485714D01*
X131674342Y-87485714D02*
X131769580Y-87533333D01*
X131769580Y-87533333D02*
X131817200Y-87580952D01*
X131817200Y-87580952D02*
X131864819Y-87676190D01*
X131864819Y-87676190D02*
X131864819Y-87771428D01*
X131864819Y-87771428D02*
X131817200Y-87866666D01*
X131817200Y-87866666D02*
X131769580Y-87914285D01*
X131769580Y-87914285D02*
X131674342Y-87961904D01*
X131674342Y-87961904D02*
X131483866Y-88009523D01*
X131483866Y-88009523D02*
X131245771Y-88009523D01*
X131245771Y-88009523D02*
X131055295Y-87961904D01*
X131055295Y-87961904D02*
X130960057Y-87914285D01*
X130960057Y-87914285D02*
X130912438Y-87866666D01*
X130912438Y-87866666D02*
X130864819Y-87771428D01*
D13*
X163952580Y-119938095D02*
X163143057Y-119938095D01*
X163143057Y-119938095D02*
X163047819Y-119985714D01*
X163047819Y-119985714D02*
X163000200Y-120033333D01*
X163000200Y-120033333D02*
X162952580Y-120128571D01*
X162952580Y-120128571D02*
X162952580Y-120319047D01*
X162952580Y-120319047D02*
X163000200Y-120414285D01*
X163000200Y-120414285D02*
X163047819Y-120461904D01*
X163047819Y-120461904D02*
X163143057Y-120509523D01*
X163143057Y-120509523D02*
X163952580Y-120509523D01*
X163619247Y-121414285D02*
X162952580Y-121414285D01*
X164000200Y-121176190D02*
X163285914Y-120938095D01*
X163285914Y-120938095D02*
X163285914Y-121557142D01*
D12*
X120101667Y-91107200D02*
X120244524Y-91154819D01*
X120244524Y-91154819D02*
X120482619Y-91154819D01*
X120482619Y-91154819D02*
X120577857Y-91107200D01*
X120577857Y-91107200D02*
X120625476Y-91059580D01*
X120625476Y-91059580D02*
X120673095Y-90964342D01*
X120673095Y-90964342D02*
X120673095Y-90869104D01*
X120673095Y-90869104D02*
X120625476Y-90773866D01*
X120625476Y-90773866D02*
X120577857Y-90726247D01*
X120577857Y-90726247D02*
X120482619Y-90678628D01*
X120482619Y-90678628D02*
X120292143Y-90631009D01*
X120292143Y-90631009D02*
X120196905Y-90583390D01*
X120196905Y-90583390D02*
X120149286Y-90535771D01*
X120149286Y-90535771D02*
X120101667Y-90440533D01*
X120101667Y-90440533D02*
X120101667Y-90345295D01*
X120101667Y-90345295D02*
X120149286Y-90250057D01*
X120149286Y-90250057D02*
X120196905Y-90202438D01*
X120196905Y-90202438D02*
X120292143Y-90154819D01*
X120292143Y-90154819D02*
X120530238Y-90154819D01*
X120530238Y-90154819D02*
X120673095Y-90202438D01*
X121006429Y-90154819D02*
X121244524Y-91154819D01*
X121244524Y-91154819D02*
X121435000Y-90440533D01*
X121435000Y-90440533D02*
X121625476Y-91154819D01*
X121625476Y-91154819D02*
X121863572Y-90154819D01*
X122149286Y-90154819D02*
X122815952Y-90154819D01*
X122815952Y-90154819D02*
X122387381Y-91154819D01*
X145114819Y-96688094D02*
X144114819Y-96688094D01*
X144114819Y-96688094D02*
X144114819Y-96449999D01*
X144114819Y-96449999D02*
X144162438Y-96307142D01*
X144162438Y-96307142D02*
X144257676Y-96211904D01*
X144257676Y-96211904D02*
X144352914Y-96164285D01*
X144352914Y-96164285D02*
X144543390Y-96116666D01*
X144543390Y-96116666D02*
X144686247Y-96116666D01*
X144686247Y-96116666D02*
X144876723Y-96164285D01*
X144876723Y-96164285D02*
X144971961Y-96211904D01*
X144971961Y-96211904D02*
X145067200Y-96307142D01*
X145067200Y-96307142D02*
X145114819Y-96449999D01*
X145114819Y-96449999D02*
X145114819Y-96688094D01*
X145114819Y-95164285D02*
X145114819Y-95735713D01*
X145114819Y-95449999D02*
X144114819Y-95449999D01*
X144114819Y-95449999D02*
X144257676Y-95545237D01*
X144257676Y-95545237D02*
X144352914Y-95640475D01*
X144352914Y-95640475D02*
X144400533Y-95735713D01*
X166064761Y-87750057D02*
X165969523Y-87702438D01*
X165969523Y-87702438D02*
X165874285Y-87607200D01*
X165874285Y-87607200D02*
X165731428Y-87464342D01*
X165731428Y-87464342D02*
X165636190Y-87416723D01*
X165636190Y-87416723D02*
X165540952Y-87416723D01*
X165588571Y-87654819D02*
X165493333Y-87607200D01*
X165493333Y-87607200D02*
X165398095Y-87511961D01*
X165398095Y-87511961D02*
X165350476Y-87321485D01*
X165350476Y-87321485D02*
X165350476Y-86988152D01*
X165350476Y-86988152D02*
X165398095Y-86797676D01*
X165398095Y-86797676D02*
X165493333Y-86702438D01*
X165493333Y-86702438D02*
X165588571Y-86654819D01*
X165588571Y-86654819D02*
X165779047Y-86654819D01*
X165779047Y-86654819D02*
X165874285Y-86702438D01*
X165874285Y-86702438D02*
X165969523Y-86797676D01*
X165969523Y-86797676D02*
X166017142Y-86988152D01*
X166017142Y-86988152D02*
X166017142Y-87321485D01*
X166017142Y-87321485D02*
X165969523Y-87511961D01*
X165969523Y-87511961D02*
X165874285Y-87607200D01*
X165874285Y-87607200D02*
X165779047Y-87654819D01*
X165779047Y-87654819D02*
X165588571Y-87654819D01*
X166969523Y-87654819D02*
X166398095Y-87654819D01*
X166683809Y-87654819D02*
X166683809Y-86654819D01*
X166683809Y-86654819D02*
X166588571Y-86797676D01*
X166588571Y-86797676D02*
X166493333Y-86892914D01*
X166493333Y-86892914D02*
X166398095Y-86940533D01*
X120326667Y-96607200D02*
X120469524Y-96654819D01*
X120469524Y-96654819D02*
X120707619Y-96654819D01*
X120707619Y-96654819D02*
X120802857Y-96607200D01*
X120802857Y-96607200D02*
X120850476Y-96559580D01*
X120850476Y-96559580D02*
X120898095Y-96464342D01*
X120898095Y-96464342D02*
X120898095Y-96369104D01*
X120898095Y-96369104D02*
X120850476Y-96273866D01*
X120850476Y-96273866D02*
X120802857Y-96226247D01*
X120802857Y-96226247D02*
X120707619Y-96178628D01*
X120707619Y-96178628D02*
X120517143Y-96131009D01*
X120517143Y-96131009D02*
X120421905Y-96083390D01*
X120421905Y-96083390D02*
X120374286Y-96035771D01*
X120374286Y-96035771D02*
X120326667Y-95940533D01*
X120326667Y-95940533D02*
X120326667Y-95845295D01*
X120326667Y-95845295D02*
X120374286Y-95750057D01*
X120374286Y-95750057D02*
X120421905Y-95702438D01*
X120421905Y-95702438D02*
X120517143Y-95654819D01*
X120517143Y-95654819D02*
X120755238Y-95654819D01*
X120755238Y-95654819D02*
X120898095Y-95702438D01*
X121231429Y-95654819D02*
X121469524Y-96654819D01*
X121469524Y-96654819D02*
X121660000Y-95940533D01*
X121660000Y-95940533D02*
X121850476Y-96654819D01*
X121850476Y-96654819D02*
X122088572Y-95654819D01*
X122898095Y-95654819D02*
X122707619Y-95654819D01*
X122707619Y-95654819D02*
X122612381Y-95702438D01*
X122612381Y-95702438D02*
X122564762Y-95750057D01*
X122564762Y-95750057D02*
X122469524Y-95892914D01*
X122469524Y-95892914D02*
X122421905Y-96083390D01*
X122421905Y-96083390D02*
X122421905Y-96464342D01*
X122421905Y-96464342D02*
X122469524Y-96559580D01*
X122469524Y-96559580D02*
X122517143Y-96607200D01*
X122517143Y-96607200D02*
X122612381Y-96654819D01*
X122612381Y-96654819D02*
X122802857Y-96654819D01*
X122802857Y-96654819D02*
X122898095Y-96607200D01*
X122898095Y-96607200D02*
X122945714Y-96559580D01*
X122945714Y-96559580D02*
X122993333Y-96464342D01*
X122993333Y-96464342D02*
X122993333Y-96226247D01*
X122993333Y-96226247D02*
X122945714Y-96131009D01*
X122945714Y-96131009D02*
X122898095Y-96083390D01*
X122898095Y-96083390D02*
X122802857Y-96035771D01*
X122802857Y-96035771D02*
X122612381Y-96035771D01*
X122612381Y-96035771D02*
X122517143Y-96083390D01*
X122517143Y-96083390D02*
X122469524Y-96131009D01*
X122469524Y-96131009D02*
X122421905Y-96226247D01*
X149596666Y-113144819D02*
X149596666Y-113859104D01*
X149596666Y-113859104D02*
X149549047Y-114001961D01*
X149549047Y-114001961D02*
X149453809Y-114097200D01*
X149453809Y-114097200D02*
X149310952Y-114144819D01*
X149310952Y-114144819D02*
X149215714Y-114144819D01*
X150025238Y-113240057D02*
X150072857Y-113192438D01*
X150072857Y-113192438D02*
X150168095Y-113144819D01*
X150168095Y-113144819D02*
X150406190Y-113144819D01*
X150406190Y-113144819D02*
X150501428Y-113192438D01*
X150501428Y-113192438D02*
X150549047Y-113240057D01*
X150549047Y-113240057D02*
X150596666Y-113335295D01*
X150596666Y-113335295D02*
X150596666Y-113430533D01*
X150596666Y-113430533D02*
X150549047Y-113573390D01*
X150549047Y-113573390D02*
X149977619Y-114144819D01*
X149977619Y-114144819D02*
X150596666Y-114144819D01*
X175580833Y-97809580D02*
X175533214Y-97857200D01*
X175533214Y-97857200D02*
X175390357Y-97904819D01*
X175390357Y-97904819D02*
X175295119Y-97904819D01*
X175295119Y-97904819D02*
X175152262Y-97857200D01*
X175152262Y-97857200D02*
X175057024Y-97761961D01*
X175057024Y-97761961D02*
X175009405Y-97666723D01*
X175009405Y-97666723D02*
X174961786Y-97476247D01*
X174961786Y-97476247D02*
X174961786Y-97333390D01*
X174961786Y-97333390D02*
X175009405Y-97142914D01*
X175009405Y-97142914D02*
X175057024Y-97047676D01*
X175057024Y-97047676D02*
X175152262Y-96952438D01*
X175152262Y-96952438D02*
X175295119Y-96904819D01*
X175295119Y-96904819D02*
X175390357Y-96904819D01*
X175390357Y-96904819D02*
X175533214Y-96952438D01*
X175533214Y-96952438D02*
X175580833Y-97000057D01*
X176485595Y-96904819D02*
X176009405Y-96904819D01*
X176009405Y-96904819D02*
X175961786Y-97381009D01*
X175961786Y-97381009D02*
X176009405Y-97333390D01*
X176009405Y-97333390D02*
X176104643Y-97285771D01*
X176104643Y-97285771D02*
X176342738Y-97285771D01*
X176342738Y-97285771D02*
X176437976Y-97333390D01*
X176437976Y-97333390D02*
X176485595Y-97381009D01*
X176485595Y-97381009D02*
X176533214Y-97476247D01*
X176533214Y-97476247D02*
X176533214Y-97714342D01*
X176533214Y-97714342D02*
X176485595Y-97809580D01*
X176485595Y-97809580D02*
X176437976Y-97857200D01*
X176437976Y-97857200D02*
X176342738Y-97904819D01*
X176342738Y-97904819D02*
X176104643Y-97904819D01*
X176104643Y-97904819D02*
X176009405Y-97857200D01*
X176009405Y-97857200D02*
X175961786Y-97809580D01*
X134898095Y-109904819D02*
X134898095Y-110714342D01*
X134898095Y-110714342D02*
X134945714Y-110809580D01*
X134945714Y-110809580D02*
X134993333Y-110857200D01*
X134993333Y-110857200D02*
X135088571Y-110904819D01*
X135088571Y-110904819D02*
X135279047Y-110904819D01*
X135279047Y-110904819D02*
X135374285Y-110857200D01*
X135374285Y-110857200D02*
X135421904Y-110809580D01*
X135421904Y-110809580D02*
X135469523Y-110714342D01*
X135469523Y-110714342D02*
X135469523Y-109904819D01*
X135898095Y-110000057D02*
X135945714Y-109952438D01*
X135945714Y-109952438D02*
X136040952Y-109904819D01*
X136040952Y-109904819D02*
X136279047Y-109904819D01*
X136279047Y-109904819D02*
X136374285Y-109952438D01*
X136374285Y-109952438D02*
X136421904Y-110000057D01*
X136421904Y-110000057D02*
X136469523Y-110095295D01*
X136469523Y-110095295D02*
X136469523Y-110190533D01*
X136469523Y-110190533D02*
X136421904Y-110333390D01*
X136421904Y-110333390D02*
X135850476Y-110904819D01*
X135850476Y-110904819D02*
X136469523Y-110904819D01*
X120967142Y-105154819D02*
X120633809Y-104678628D01*
X120395714Y-105154819D02*
X120395714Y-104154819D01*
X120395714Y-104154819D02*
X120776666Y-104154819D01*
X120776666Y-104154819D02*
X120871904Y-104202438D01*
X120871904Y-104202438D02*
X120919523Y-104250057D01*
X120919523Y-104250057D02*
X120967142Y-104345295D01*
X120967142Y-104345295D02*
X120967142Y-104488152D01*
X120967142Y-104488152D02*
X120919523Y-104583390D01*
X120919523Y-104583390D02*
X120871904Y-104631009D01*
X120871904Y-104631009D02*
X120776666Y-104678628D01*
X120776666Y-104678628D02*
X120395714Y-104678628D01*
X121348095Y-104250057D02*
X121395714Y-104202438D01*
X121395714Y-104202438D02*
X121490952Y-104154819D01*
X121490952Y-104154819D02*
X121729047Y-104154819D01*
X121729047Y-104154819D02*
X121824285Y-104202438D01*
X121824285Y-104202438D02*
X121871904Y-104250057D01*
X121871904Y-104250057D02*
X121919523Y-104345295D01*
X121919523Y-104345295D02*
X121919523Y-104440533D01*
X121919523Y-104440533D02*
X121871904Y-104583390D01*
X121871904Y-104583390D02*
X121300476Y-105154819D01*
X121300476Y-105154819D02*
X121919523Y-105154819D01*
X122871904Y-105154819D02*
X122300476Y-105154819D01*
X122586190Y-105154819D02*
X122586190Y-104154819D01*
X122586190Y-104154819D02*
X122490952Y-104297676D01*
X122490952Y-104297676D02*
X122395714Y-104392914D01*
X122395714Y-104392914D02*
X122300476Y-104440533D01*
X141243333Y-92154819D02*
X140767143Y-92154819D01*
X140767143Y-92154819D02*
X140767143Y-91154819D01*
X142100476Y-92154819D02*
X141529048Y-92154819D01*
X141814762Y-92154819D02*
X141814762Y-91154819D01*
X141814762Y-91154819D02*
X141719524Y-91297676D01*
X141719524Y-91297676D02*
X141624286Y-91392914D01*
X141624286Y-91392914D02*
X141529048Y-91440533D01*
X121017142Y-99154819D02*
X120683809Y-98678628D01*
X120445714Y-99154819D02*
X120445714Y-98154819D01*
X120445714Y-98154819D02*
X120826666Y-98154819D01*
X120826666Y-98154819D02*
X120921904Y-98202438D01*
X120921904Y-98202438D02*
X120969523Y-98250057D01*
X120969523Y-98250057D02*
X121017142Y-98345295D01*
X121017142Y-98345295D02*
X121017142Y-98488152D01*
X121017142Y-98488152D02*
X120969523Y-98583390D01*
X120969523Y-98583390D02*
X120921904Y-98631009D01*
X120921904Y-98631009D02*
X120826666Y-98678628D01*
X120826666Y-98678628D02*
X120445714Y-98678628D01*
X121398095Y-98250057D02*
X121445714Y-98202438D01*
X121445714Y-98202438D02*
X121540952Y-98154819D01*
X121540952Y-98154819D02*
X121779047Y-98154819D01*
X121779047Y-98154819D02*
X121874285Y-98202438D01*
X121874285Y-98202438D02*
X121921904Y-98250057D01*
X121921904Y-98250057D02*
X121969523Y-98345295D01*
X121969523Y-98345295D02*
X121969523Y-98440533D01*
X121969523Y-98440533D02*
X121921904Y-98583390D01*
X121921904Y-98583390D02*
X121350476Y-99154819D01*
X121350476Y-99154819D02*
X121969523Y-99154819D01*
X122350476Y-98250057D02*
X122398095Y-98202438D01*
X122398095Y-98202438D02*
X122493333Y-98154819D01*
X122493333Y-98154819D02*
X122731428Y-98154819D01*
X122731428Y-98154819D02*
X122826666Y-98202438D01*
X122826666Y-98202438D02*
X122874285Y-98250057D01*
X122874285Y-98250057D02*
X122921904Y-98345295D01*
X122921904Y-98345295D02*
X122921904Y-98440533D01*
X122921904Y-98440533D02*
X122874285Y-98583390D01*
X122874285Y-98583390D02*
X122302857Y-99154819D01*
X122302857Y-99154819D02*
X122921904Y-99154819D01*
X168267142Y-87559580D02*
X168219523Y-87607200D01*
X168219523Y-87607200D02*
X168076666Y-87654819D01*
X168076666Y-87654819D02*
X167981428Y-87654819D01*
X167981428Y-87654819D02*
X167838571Y-87607200D01*
X167838571Y-87607200D02*
X167743333Y-87511961D01*
X167743333Y-87511961D02*
X167695714Y-87416723D01*
X167695714Y-87416723D02*
X167648095Y-87226247D01*
X167648095Y-87226247D02*
X167648095Y-87083390D01*
X167648095Y-87083390D02*
X167695714Y-86892914D01*
X167695714Y-86892914D02*
X167743333Y-86797676D01*
X167743333Y-86797676D02*
X167838571Y-86702438D01*
X167838571Y-86702438D02*
X167981428Y-86654819D01*
X167981428Y-86654819D02*
X168076666Y-86654819D01*
X168076666Y-86654819D02*
X168219523Y-86702438D01*
X168219523Y-86702438D02*
X168267142Y-86750057D01*
X169219523Y-87654819D02*
X168648095Y-87654819D01*
X168933809Y-87654819D02*
X168933809Y-86654819D01*
X168933809Y-86654819D02*
X168838571Y-86797676D01*
X168838571Y-86797676D02*
X168743333Y-86892914D01*
X168743333Y-86892914D02*
X168648095Y-86940533D01*
X169838571Y-86654819D02*
X169933809Y-86654819D01*
X169933809Y-86654819D02*
X170029047Y-86702438D01*
X170029047Y-86702438D02*
X170076666Y-86750057D01*
X170076666Y-86750057D02*
X170124285Y-86845295D01*
X170124285Y-86845295D02*
X170171904Y-87035771D01*
X170171904Y-87035771D02*
X170171904Y-87273866D01*
X170171904Y-87273866D02*
X170124285Y-87464342D01*
X170124285Y-87464342D02*
X170076666Y-87559580D01*
X170076666Y-87559580D02*
X170029047Y-87607200D01*
X170029047Y-87607200D02*
X169933809Y-87654819D01*
X169933809Y-87654819D02*
X169838571Y-87654819D01*
X169838571Y-87654819D02*
X169743333Y-87607200D01*
X169743333Y-87607200D02*
X169695714Y-87559580D01*
X169695714Y-87559580D02*
X169648095Y-87464342D01*
X169648095Y-87464342D02*
X169600476Y-87273866D01*
X169600476Y-87273866D02*
X169600476Y-87035771D01*
X169600476Y-87035771D02*
X169648095Y-86845295D01*
X169648095Y-86845295D02*
X169695714Y-86750057D01*
X169695714Y-86750057D02*
X169743333Y-86702438D01*
X169743333Y-86702438D02*
X169838571Y-86654819D01*
X136493333Y-90309580D02*
X136445714Y-90357200D01*
X136445714Y-90357200D02*
X136302857Y-90404819D01*
X136302857Y-90404819D02*
X136207619Y-90404819D01*
X136207619Y-90404819D02*
X136064762Y-90357200D01*
X136064762Y-90357200D02*
X135969524Y-90261961D01*
X135969524Y-90261961D02*
X135921905Y-90166723D01*
X135921905Y-90166723D02*
X135874286Y-89976247D01*
X135874286Y-89976247D02*
X135874286Y-89833390D01*
X135874286Y-89833390D02*
X135921905Y-89642914D01*
X135921905Y-89642914D02*
X135969524Y-89547676D01*
X135969524Y-89547676D02*
X136064762Y-89452438D01*
X136064762Y-89452438D02*
X136207619Y-89404819D01*
X136207619Y-89404819D02*
X136302857Y-89404819D01*
X136302857Y-89404819D02*
X136445714Y-89452438D01*
X136445714Y-89452438D02*
X136493333Y-89500057D01*
X136826667Y-89404819D02*
X137493333Y-89404819D01*
X137493333Y-89404819D02*
X137064762Y-90404819D01*
X153544819Y-82430357D02*
X153068628Y-82763690D01*
X153544819Y-83001785D02*
X152544819Y-83001785D01*
X152544819Y-83001785D02*
X152544819Y-82620833D01*
X152544819Y-82620833D02*
X152592438Y-82525595D01*
X152592438Y-82525595D02*
X152640057Y-82477976D01*
X152640057Y-82477976D02*
X152735295Y-82430357D01*
X152735295Y-82430357D02*
X152878152Y-82430357D01*
X152878152Y-82430357D02*
X152973390Y-82477976D01*
X152973390Y-82477976D02*
X153021009Y-82525595D01*
X153021009Y-82525595D02*
X153068628Y-82620833D01*
X153068628Y-82620833D02*
X153068628Y-83001785D01*
X153544819Y-81477976D02*
X153544819Y-82049404D01*
X153544819Y-81763690D02*
X152544819Y-81763690D01*
X152544819Y-81763690D02*
X152687676Y-81858928D01*
X152687676Y-81858928D02*
X152782914Y-81954166D01*
X152782914Y-81954166D02*
X152830533Y-82049404D01*
X152878152Y-80620833D02*
X153544819Y-80620833D01*
X152497200Y-80858928D02*
X153211485Y-81097023D01*
X153211485Y-81097023D02*
X153211485Y-80477976D01*
X160517142Y-87559580D02*
X160469523Y-87607200D01*
X160469523Y-87607200D02*
X160326666Y-87654819D01*
X160326666Y-87654819D02*
X160231428Y-87654819D01*
X160231428Y-87654819D02*
X160088571Y-87607200D01*
X160088571Y-87607200D02*
X159993333Y-87511961D01*
X159993333Y-87511961D02*
X159945714Y-87416723D01*
X159945714Y-87416723D02*
X159898095Y-87226247D01*
X159898095Y-87226247D02*
X159898095Y-87083390D01*
X159898095Y-87083390D02*
X159945714Y-86892914D01*
X159945714Y-86892914D02*
X159993333Y-86797676D01*
X159993333Y-86797676D02*
X160088571Y-86702438D01*
X160088571Y-86702438D02*
X160231428Y-86654819D01*
X160231428Y-86654819D02*
X160326666Y-86654819D01*
X160326666Y-86654819D02*
X160469523Y-86702438D01*
X160469523Y-86702438D02*
X160517142Y-86750057D01*
X161469523Y-87654819D02*
X160898095Y-87654819D01*
X161183809Y-87654819D02*
X161183809Y-86654819D01*
X161183809Y-86654819D02*
X161088571Y-86797676D01*
X161088571Y-86797676D02*
X160993333Y-86892914D01*
X160993333Y-86892914D02*
X160898095Y-86940533D01*
X162421904Y-87654819D02*
X161850476Y-87654819D01*
X162136190Y-87654819D02*
X162136190Y-86654819D01*
X162136190Y-86654819D02*
X162040952Y-86797676D01*
X162040952Y-86797676D02*
X161945714Y-86892914D01*
X161945714Y-86892914D02*
X161850476Y-86940533D01*
X120101667Y-108107200D02*
X120244524Y-108154819D01*
X120244524Y-108154819D02*
X120482619Y-108154819D01*
X120482619Y-108154819D02*
X120577857Y-108107200D01*
X120577857Y-108107200D02*
X120625476Y-108059580D01*
X120625476Y-108059580D02*
X120673095Y-107964342D01*
X120673095Y-107964342D02*
X120673095Y-107869104D01*
X120673095Y-107869104D02*
X120625476Y-107773866D01*
X120625476Y-107773866D02*
X120577857Y-107726247D01*
X120577857Y-107726247D02*
X120482619Y-107678628D01*
X120482619Y-107678628D02*
X120292143Y-107631009D01*
X120292143Y-107631009D02*
X120196905Y-107583390D01*
X120196905Y-107583390D02*
X120149286Y-107535771D01*
X120149286Y-107535771D02*
X120101667Y-107440533D01*
X120101667Y-107440533D02*
X120101667Y-107345295D01*
X120101667Y-107345295D02*
X120149286Y-107250057D01*
X120149286Y-107250057D02*
X120196905Y-107202438D01*
X120196905Y-107202438D02*
X120292143Y-107154819D01*
X120292143Y-107154819D02*
X120530238Y-107154819D01*
X120530238Y-107154819D02*
X120673095Y-107202438D01*
X121006429Y-107154819D02*
X121244524Y-108154819D01*
X121244524Y-108154819D02*
X121435000Y-107440533D01*
X121435000Y-107440533D02*
X121625476Y-108154819D01*
X121625476Y-108154819D02*
X121863572Y-107154819D01*
X122720714Y-107154819D02*
X122244524Y-107154819D01*
X122244524Y-107154819D02*
X122196905Y-107631009D01*
X122196905Y-107631009D02*
X122244524Y-107583390D01*
X122244524Y-107583390D02*
X122339762Y-107535771D01*
X122339762Y-107535771D02*
X122577857Y-107535771D01*
X122577857Y-107535771D02*
X122673095Y-107583390D01*
X122673095Y-107583390D02*
X122720714Y-107631009D01*
X122720714Y-107631009D02*
X122768333Y-107726247D01*
X122768333Y-107726247D02*
X122768333Y-107964342D01*
X122768333Y-107964342D02*
X122720714Y-108059580D01*
X122720714Y-108059580D02*
X122673095Y-108107200D01*
X122673095Y-108107200D02*
X122577857Y-108154819D01*
X122577857Y-108154819D02*
X122339762Y-108154819D01*
X122339762Y-108154819D02*
X122244524Y-108107200D01*
X122244524Y-108107200D02*
X122196905Y-108059580D01*
X133864819Y-88366666D02*
X133388628Y-88699999D01*
X133864819Y-88938094D02*
X132864819Y-88938094D01*
X132864819Y-88938094D02*
X132864819Y-88557142D01*
X132864819Y-88557142D02*
X132912438Y-88461904D01*
X132912438Y-88461904D02*
X132960057Y-88414285D01*
X132960057Y-88414285D02*
X133055295Y-88366666D01*
X133055295Y-88366666D02*
X133198152Y-88366666D01*
X133198152Y-88366666D02*
X133293390Y-88414285D01*
X133293390Y-88414285D02*
X133341009Y-88461904D01*
X133341009Y-88461904D02*
X133388628Y-88557142D01*
X133388628Y-88557142D02*
X133388628Y-88938094D01*
X133864819Y-87890475D02*
X133864819Y-87699999D01*
X133864819Y-87699999D02*
X133817200Y-87604761D01*
X133817200Y-87604761D02*
X133769580Y-87557142D01*
X133769580Y-87557142D02*
X133626723Y-87461904D01*
X133626723Y-87461904D02*
X133436247Y-87414285D01*
X133436247Y-87414285D02*
X133055295Y-87414285D01*
X133055295Y-87414285D02*
X132960057Y-87461904D01*
X132960057Y-87461904D02*
X132912438Y-87509523D01*
X132912438Y-87509523D02*
X132864819Y-87604761D01*
X132864819Y-87604761D02*
X132864819Y-87795237D01*
X132864819Y-87795237D02*
X132912438Y-87890475D01*
X132912438Y-87890475D02*
X132960057Y-87938094D01*
X132960057Y-87938094D02*
X133055295Y-87985713D01*
X133055295Y-87985713D02*
X133293390Y-87985713D01*
X133293390Y-87985713D02*
X133388628Y-87938094D01*
X133388628Y-87938094D02*
X133436247Y-87890475D01*
X133436247Y-87890475D02*
X133483866Y-87795237D01*
X133483866Y-87795237D02*
X133483866Y-87604761D01*
X133483866Y-87604761D02*
X133436247Y-87509523D01*
X133436247Y-87509523D02*
X133388628Y-87461904D01*
X133388628Y-87461904D02*
X133293390Y-87414285D01*
X146519580Y-111616666D02*
X146567200Y-111664285D01*
X146567200Y-111664285D02*
X146614819Y-111807142D01*
X146614819Y-111807142D02*
X146614819Y-111902380D01*
X146614819Y-111902380D02*
X146567200Y-112045237D01*
X146567200Y-112045237D02*
X146471961Y-112140475D01*
X146471961Y-112140475D02*
X146376723Y-112188094D01*
X146376723Y-112188094D02*
X146186247Y-112235713D01*
X146186247Y-112235713D02*
X146043390Y-112235713D01*
X146043390Y-112235713D02*
X145852914Y-112188094D01*
X145852914Y-112188094D02*
X145757676Y-112140475D01*
X145757676Y-112140475D02*
X145662438Y-112045237D01*
X145662438Y-112045237D02*
X145614819Y-111902380D01*
X145614819Y-111902380D02*
X145614819Y-111807142D01*
X145614819Y-111807142D02*
X145662438Y-111664285D01*
X145662438Y-111664285D02*
X145710057Y-111616666D01*
X145948152Y-110759523D02*
X146614819Y-110759523D01*
X145567200Y-110997618D02*
X146281485Y-111235713D01*
X146281485Y-111235713D02*
X146281485Y-110616666D01*
X164826667Y-77107200D02*
X164969524Y-77154819D01*
X164969524Y-77154819D02*
X165207619Y-77154819D01*
X165207619Y-77154819D02*
X165302857Y-77107200D01*
X165302857Y-77107200D02*
X165350476Y-77059580D01*
X165350476Y-77059580D02*
X165398095Y-76964342D01*
X165398095Y-76964342D02*
X165398095Y-76869104D01*
X165398095Y-76869104D02*
X165350476Y-76773866D01*
X165350476Y-76773866D02*
X165302857Y-76726247D01*
X165302857Y-76726247D02*
X165207619Y-76678628D01*
X165207619Y-76678628D02*
X165017143Y-76631009D01*
X165017143Y-76631009D02*
X164921905Y-76583390D01*
X164921905Y-76583390D02*
X164874286Y-76535771D01*
X164874286Y-76535771D02*
X164826667Y-76440533D01*
X164826667Y-76440533D02*
X164826667Y-76345295D01*
X164826667Y-76345295D02*
X164874286Y-76250057D01*
X164874286Y-76250057D02*
X164921905Y-76202438D01*
X164921905Y-76202438D02*
X165017143Y-76154819D01*
X165017143Y-76154819D02*
X165255238Y-76154819D01*
X165255238Y-76154819D02*
X165398095Y-76202438D01*
X165731429Y-76154819D02*
X165969524Y-77154819D01*
X165969524Y-77154819D02*
X166160000Y-76440533D01*
X166160000Y-76440533D02*
X166350476Y-77154819D01*
X166350476Y-77154819D02*
X166588572Y-76154819D01*
X166921905Y-76250057D02*
X166969524Y-76202438D01*
X166969524Y-76202438D02*
X167064762Y-76154819D01*
X167064762Y-76154819D02*
X167302857Y-76154819D01*
X167302857Y-76154819D02*
X167398095Y-76202438D01*
X167398095Y-76202438D02*
X167445714Y-76250057D01*
X167445714Y-76250057D02*
X167493333Y-76345295D01*
X167493333Y-76345295D02*
X167493333Y-76440533D01*
X167493333Y-76440533D02*
X167445714Y-76583390D01*
X167445714Y-76583390D02*
X166874286Y-77154819D01*
X166874286Y-77154819D02*
X167493333Y-77154819D01*
X178835833Y-103194819D02*
X178502500Y-102718628D01*
X178264405Y-103194819D02*
X178264405Y-102194819D01*
X178264405Y-102194819D02*
X178645357Y-102194819D01*
X178645357Y-102194819D02*
X178740595Y-102242438D01*
X178740595Y-102242438D02*
X178788214Y-102290057D01*
X178788214Y-102290057D02*
X178835833Y-102385295D01*
X178835833Y-102385295D02*
X178835833Y-102528152D01*
X178835833Y-102528152D02*
X178788214Y-102623390D01*
X178788214Y-102623390D02*
X178740595Y-102671009D01*
X178740595Y-102671009D02*
X178645357Y-102718628D01*
X178645357Y-102718628D02*
X178264405Y-102718628D01*
X179788214Y-103194819D02*
X179216786Y-103194819D01*
X179502500Y-103194819D02*
X179502500Y-102194819D01*
X179502500Y-102194819D02*
X179407262Y-102337676D01*
X179407262Y-102337676D02*
X179312024Y-102432914D01*
X179312024Y-102432914D02*
X179216786Y-102480533D01*
X131364819Y-79663094D02*
X130364819Y-79663094D01*
X130364819Y-79663094D02*
X130364819Y-79424999D01*
X130364819Y-79424999D02*
X130412438Y-79282142D01*
X130412438Y-79282142D02*
X130507676Y-79186904D01*
X130507676Y-79186904D02*
X130602914Y-79139285D01*
X130602914Y-79139285D02*
X130793390Y-79091666D01*
X130793390Y-79091666D02*
X130936247Y-79091666D01*
X130936247Y-79091666D02*
X131126723Y-79139285D01*
X131126723Y-79139285D02*
X131221961Y-79186904D01*
X131221961Y-79186904D02*
X131317200Y-79282142D01*
X131317200Y-79282142D02*
X131364819Y-79424999D01*
X131364819Y-79424999D02*
X131364819Y-79663094D01*
X130698152Y-78234523D02*
X131364819Y-78234523D01*
X130317200Y-78472618D02*
X131031485Y-78710713D01*
X131031485Y-78710713D02*
X131031485Y-78091666D01*
X161493333Y-77974819D02*
X161160000Y-77498628D01*
X160921905Y-77974819D02*
X160921905Y-76974819D01*
X160921905Y-76974819D02*
X161302857Y-76974819D01*
X161302857Y-76974819D02*
X161398095Y-77022438D01*
X161398095Y-77022438D02*
X161445714Y-77070057D01*
X161445714Y-77070057D02*
X161493333Y-77165295D01*
X161493333Y-77165295D02*
X161493333Y-77308152D01*
X161493333Y-77308152D02*
X161445714Y-77403390D01*
X161445714Y-77403390D02*
X161398095Y-77451009D01*
X161398095Y-77451009D02*
X161302857Y-77498628D01*
X161302857Y-77498628D02*
X160921905Y-77498628D01*
X162350476Y-76974819D02*
X162160000Y-76974819D01*
X162160000Y-76974819D02*
X162064762Y-77022438D01*
X162064762Y-77022438D02*
X162017143Y-77070057D01*
X162017143Y-77070057D02*
X161921905Y-77212914D01*
X161921905Y-77212914D02*
X161874286Y-77403390D01*
X161874286Y-77403390D02*
X161874286Y-77784342D01*
X161874286Y-77784342D02*
X161921905Y-77879580D01*
X161921905Y-77879580D02*
X161969524Y-77927200D01*
X161969524Y-77927200D02*
X162064762Y-77974819D01*
X162064762Y-77974819D02*
X162255238Y-77974819D01*
X162255238Y-77974819D02*
X162350476Y-77927200D01*
X162350476Y-77927200D02*
X162398095Y-77879580D01*
X162398095Y-77879580D02*
X162445714Y-77784342D01*
X162445714Y-77784342D02*
X162445714Y-77546247D01*
X162445714Y-77546247D02*
X162398095Y-77451009D01*
X162398095Y-77451009D02*
X162350476Y-77403390D01*
X162350476Y-77403390D02*
X162255238Y-77355771D01*
X162255238Y-77355771D02*
X162064762Y-77355771D01*
X162064762Y-77355771D02*
X161969524Y-77403390D01*
X161969524Y-77403390D02*
X161921905Y-77451009D01*
X161921905Y-77451009D02*
X161874286Y-77546247D01*
X129743333Y-112904819D02*
X129410000Y-112428628D01*
X129171905Y-112904819D02*
X129171905Y-111904819D01*
X129171905Y-111904819D02*
X129552857Y-111904819D01*
X129552857Y-111904819D02*
X129648095Y-111952438D01*
X129648095Y-111952438D02*
X129695714Y-112000057D01*
X129695714Y-112000057D02*
X129743333Y-112095295D01*
X129743333Y-112095295D02*
X129743333Y-112238152D01*
X129743333Y-112238152D02*
X129695714Y-112333390D01*
X129695714Y-112333390D02*
X129648095Y-112381009D01*
X129648095Y-112381009D02*
X129552857Y-112428628D01*
X129552857Y-112428628D02*
X129171905Y-112428628D01*
X130124286Y-112000057D02*
X130171905Y-111952438D01*
X130171905Y-111952438D02*
X130267143Y-111904819D01*
X130267143Y-111904819D02*
X130505238Y-111904819D01*
X130505238Y-111904819D02*
X130600476Y-111952438D01*
X130600476Y-111952438D02*
X130648095Y-112000057D01*
X130648095Y-112000057D02*
X130695714Y-112095295D01*
X130695714Y-112095295D02*
X130695714Y-112190533D01*
X130695714Y-112190533D02*
X130648095Y-112333390D01*
X130648095Y-112333390D02*
X130076667Y-112904819D01*
X130076667Y-112904819D02*
X130695714Y-112904819D01*
X149576666Y-78454819D02*
X149576666Y-79169104D01*
X149576666Y-79169104D02*
X149529047Y-79311961D01*
X149529047Y-79311961D02*
X149433809Y-79407200D01*
X149433809Y-79407200D02*
X149290952Y-79454819D01*
X149290952Y-79454819D02*
X149195714Y-79454819D01*
X149957619Y-78454819D02*
X150576666Y-78454819D01*
X150576666Y-78454819D02*
X150243333Y-78835771D01*
X150243333Y-78835771D02*
X150386190Y-78835771D01*
X150386190Y-78835771D02*
X150481428Y-78883390D01*
X150481428Y-78883390D02*
X150529047Y-78931009D01*
X150529047Y-78931009D02*
X150576666Y-79026247D01*
X150576666Y-79026247D02*
X150576666Y-79264342D01*
X150576666Y-79264342D02*
X150529047Y-79359580D01*
X150529047Y-79359580D02*
X150481428Y-79407200D01*
X150481428Y-79407200D02*
X150386190Y-79454819D01*
X150386190Y-79454819D02*
X150100476Y-79454819D01*
X150100476Y-79454819D02*
X150005238Y-79407200D01*
X150005238Y-79407200D02*
X149957619Y-79359580D01*
X158014761Y-87750057D02*
X157919523Y-87702438D01*
X157919523Y-87702438D02*
X157824285Y-87607200D01*
X157824285Y-87607200D02*
X157681428Y-87464342D01*
X157681428Y-87464342D02*
X157586190Y-87416723D01*
X157586190Y-87416723D02*
X157490952Y-87416723D01*
X157538571Y-87654819D02*
X157443333Y-87607200D01*
X157443333Y-87607200D02*
X157348095Y-87511961D01*
X157348095Y-87511961D02*
X157300476Y-87321485D01*
X157300476Y-87321485D02*
X157300476Y-86988152D01*
X157300476Y-86988152D02*
X157348095Y-86797676D01*
X157348095Y-86797676D02*
X157443333Y-86702438D01*
X157443333Y-86702438D02*
X157538571Y-86654819D01*
X157538571Y-86654819D02*
X157729047Y-86654819D01*
X157729047Y-86654819D02*
X157824285Y-86702438D01*
X157824285Y-86702438D02*
X157919523Y-86797676D01*
X157919523Y-86797676D02*
X157967142Y-86988152D01*
X157967142Y-86988152D02*
X157967142Y-87321485D01*
X157967142Y-87321485D02*
X157919523Y-87511961D01*
X157919523Y-87511961D02*
X157824285Y-87607200D01*
X157824285Y-87607200D02*
X157729047Y-87654819D01*
X157729047Y-87654819D02*
X157538571Y-87654819D01*
X158348095Y-86750057D02*
X158395714Y-86702438D01*
X158395714Y-86702438D02*
X158490952Y-86654819D01*
X158490952Y-86654819D02*
X158729047Y-86654819D01*
X158729047Y-86654819D02*
X158824285Y-86702438D01*
X158824285Y-86702438D02*
X158871904Y-86750057D01*
X158871904Y-86750057D02*
X158919523Y-86845295D01*
X158919523Y-86845295D02*
X158919523Y-86940533D01*
X158919523Y-86940533D02*
X158871904Y-87083390D01*
X158871904Y-87083390D02*
X158300476Y-87654819D01*
X158300476Y-87654819D02*
X158919523Y-87654819D01*
X133614819Y-79663094D02*
X132614819Y-79663094D01*
X132614819Y-79663094D02*
X132614819Y-79424999D01*
X132614819Y-79424999D02*
X132662438Y-79282142D01*
X132662438Y-79282142D02*
X132757676Y-79186904D01*
X132757676Y-79186904D02*
X132852914Y-79139285D01*
X132852914Y-79139285D02*
X133043390Y-79091666D01*
X133043390Y-79091666D02*
X133186247Y-79091666D01*
X133186247Y-79091666D02*
X133376723Y-79139285D01*
X133376723Y-79139285D02*
X133471961Y-79186904D01*
X133471961Y-79186904D02*
X133567200Y-79282142D01*
X133567200Y-79282142D02*
X133614819Y-79424999D01*
X133614819Y-79424999D02*
X133614819Y-79663094D01*
X132614819Y-78758332D02*
X132614819Y-78139285D01*
X132614819Y-78139285D02*
X132995771Y-78472618D01*
X132995771Y-78472618D02*
X132995771Y-78329761D01*
X132995771Y-78329761D02*
X133043390Y-78234523D01*
X133043390Y-78234523D02*
X133091009Y-78186904D01*
X133091009Y-78186904D02*
X133186247Y-78139285D01*
X133186247Y-78139285D02*
X133424342Y-78139285D01*
X133424342Y-78139285D02*
X133519580Y-78186904D01*
X133519580Y-78186904D02*
X133567200Y-78234523D01*
X133567200Y-78234523D02*
X133614819Y-78329761D01*
X133614819Y-78329761D02*
X133614819Y-78615475D01*
X133614819Y-78615475D02*
X133567200Y-78710713D01*
X133567200Y-78710713D02*
X133519580Y-78758332D01*
X161493333Y-82584819D02*
X161160000Y-82108628D01*
X160921905Y-82584819D02*
X160921905Y-81584819D01*
X160921905Y-81584819D02*
X161302857Y-81584819D01*
X161302857Y-81584819D02*
X161398095Y-81632438D01*
X161398095Y-81632438D02*
X161445714Y-81680057D01*
X161445714Y-81680057D02*
X161493333Y-81775295D01*
X161493333Y-81775295D02*
X161493333Y-81918152D01*
X161493333Y-81918152D02*
X161445714Y-82013390D01*
X161445714Y-82013390D02*
X161398095Y-82061009D01*
X161398095Y-82061009D02*
X161302857Y-82108628D01*
X161302857Y-82108628D02*
X160921905Y-82108628D01*
X161826667Y-81584819D02*
X162493333Y-81584819D01*
X162493333Y-81584819D02*
X162064762Y-82584819D01*
X145519580Y-83466666D02*
X145567200Y-83514285D01*
X145567200Y-83514285D02*
X145614819Y-83657142D01*
X145614819Y-83657142D02*
X145614819Y-83752380D01*
X145614819Y-83752380D02*
X145567200Y-83895237D01*
X145567200Y-83895237D02*
X145471961Y-83990475D01*
X145471961Y-83990475D02*
X145376723Y-84038094D01*
X145376723Y-84038094D02*
X145186247Y-84085713D01*
X145186247Y-84085713D02*
X145043390Y-84085713D01*
X145043390Y-84085713D02*
X144852914Y-84038094D01*
X144852914Y-84038094D02*
X144757676Y-83990475D01*
X144757676Y-83990475D02*
X144662438Y-83895237D01*
X144662438Y-83895237D02*
X144614819Y-83752380D01*
X144614819Y-83752380D02*
X144614819Y-83657142D01*
X144614819Y-83657142D02*
X144662438Y-83514285D01*
X144662438Y-83514285D02*
X144710057Y-83466666D01*
X144710057Y-83085713D02*
X144662438Y-83038094D01*
X144662438Y-83038094D02*
X144614819Y-82942856D01*
X144614819Y-82942856D02*
X144614819Y-82704761D01*
X144614819Y-82704761D02*
X144662438Y-82609523D01*
X144662438Y-82609523D02*
X144710057Y-82561904D01*
X144710057Y-82561904D02*
X144805295Y-82514285D01*
X144805295Y-82514285D02*
X144900533Y-82514285D01*
X144900533Y-82514285D02*
X145043390Y-82561904D01*
X145043390Y-82561904D02*
X145614819Y-83133332D01*
X145614819Y-83133332D02*
X145614819Y-82514285D01*
X137326666Y-126054819D02*
X137326666Y-126769104D01*
X137326666Y-126769104D02*
X137279047Y-126911961D01*
X137279047Y-126911961D02*
X137183809Y-127007200D01*
X137183809Y-127007200D02*
X137040952Y-127054819D01*
X137040952Y-127054819D02*
X136945714Y-127054819D01*
X138326666Y-127054819D02*
X137755238Y-127054819D01*
X138040952Y-127054819D02*
X138040952Y-126054819D01*
X138040952Y-126054819D02*
X137945714Y-126197676D01*
X137945714Y-126197676D02*
X137850476Y-126292914D01*
X137850476Y-126292914D02*
X137755238Y-126340533D01*
X120326667Y-102607200D02*
X120469524Y-102654819D01*
X120469524Y-102654819D02*
X120707619Y-102654819D01*
X120707619Y-102654819D02*
X120802857Y-102607200D01*
X120802857Y-102607200D02*
X120850476Y-102559580D01*
X120850476Y-102559580D02*
X120898095Y-102464342D01*
X120898095Y-102464342D02*
X120898095Y-102369104D01*
X120898095Y-102369104D02*
X120850476Y-102273866D01*
X120850476Y-102273866D02*
X120802857Y-102226247D01*
X120802857Y-102226247D02*
X120707619Y-102178628D01*
X120707619Y-102178628D02*
X120517143Y-102131009D01*
X120517143Y-102131009D02*
X120421905Y-102083390D01*
X120421905Y-102083390D02*
X120374286Y-102035771D01*
X120374286Y-102035771D02*
X120326667Y-101940533D01*
X120326667Y-101940533D02*
X120326667Y-101845295D01*
X120326667Y-101845295D02*
X120374286Y-101750057D01*
X120374286Y-101750057D02*
X120421905Y-101702438D01*
X120421905Y-101702438D02*
X120517143Y-101654819D01*
X120517143Y-101654819D02*
X120755238Y-101654819D01*
X120755238Y-101654819D02*
X120898095Y-101702438D01*
X121231429Y-101654819D02*
X121469524Y-102654819D01*
X121469524Y-102654819D02*
X121660000Y-101940533D01*
X121660000Y-101940533D02*
X121850476Y-102654819D01*
X121850476Y-102654819D02*
X122088572Y-101654819D01*
X122898095Y-101988152D02*
X122898095Y-102654819D01*
X122660000Y-101607200D02*
X122421905Y-102321485D01*
X122421905Y-102321485D02*
X123040952Y-102321485D01*
X163893095Y-116414819D02*
X163893095Y-117224342D01*
X163893095Y-117224342D02*
X163940714Y-117319580D01*
X163940714Y-117319580D02*
X163988333Y-117367200D01*
X163988333Y-117367200D02*
X164083571Y-117414819D01*
X164083571Y-117414819D02*
X164274047Y-117414819D01*
X164274047Y-117414819D02*
X164369285Y-117367200D01*
X164369285Y-117367200D02*
X164416904Y-117319580D01*
X164416904Y-117319580D02*
X164464523Y-117224342D01*
X164464523Y-117224342D02*
X164464523Y-116414819D01*
X164845476Y-116414819D02*
X165464523Y-116414819D01*
X165464523Y-116414819D02*
X165131190Y-116795771D01*
X165131190Y-116795771D02*
X165274047Y-116795771D01*
X165274047Y-116795771D02*
X165369285Y-116843390D01*
X165369285Y-116843390D02*
X165416904Y-116891009D01*
X165416904Y-116891009D02*
X165464523Y-116986247D01*
X165464523Y-116986247D02*
X165464523Y-117224342D01*
X165464523Y-117224342D02*
X165416904Y-117319580D01*
X165416904Y-117319580D02*
X165369285Y-117367200D01*
X165369285Y-117367200D02*
X165274047Y-117414819D01*
X165274047Y-117414819D02*
X164988333Y-117414819D01*
X164988333Y-117414819D02*
X164893095Y-117367200D01*
X164893095Y-117367200D02*
X164845476Y-117319580D01*
X159893094Y-112829104D02*
X160369284Y-112829104D01*
X159797856Y-113114819D02*
X160131189Y-112114819D01*
X160131189Y-112114819D02*
X160464522Y-113114819D01*
X160797856Y-112448152D02*
X160797856Y-113114819D01*
X160797856Y-112543390D02*
X160845475Y-112495771D01*
X160845475Y-112495771D02*
X160940713Y-112448152D01*
X160940713Y-112448152D02*
X161083570Y-112448152D01*
X161083570Y-112448152D02*
X161178808Y-112495771D01*
X161178808Y-112495771D02*
X161226427Y-112591009D01*
X161226427Y-112591009D02*
X161226427Y-113114819D01*
X161559761Y-112448152D02*
X161940713Y-112448152D01*
X161702618Y-112114819D02*
X161702618Y-112971961D01*
X161702618Y-112971961D02*
X161750237Y-113067200D01*
X161750237Y-113067200D02*
X161845475Y-113114819D01*
X161845475Y-113114819D02*
X161940713Y-113114819D01*
X162654999Y-113067200D02*
X162559761Y-113114819D01*
X162559761Y-113114819D02*
X162369285Y-113114819D01*
X162369285Y-113114819D02*
X162274047Y-113067200D01*
X162274047Y-113067200D02*
X162226428Y-112971961D01*
X162226428Y-112971961D02*
X162226428Y-112591009D01*
X162226428Y-112591009D02*
X162274047Y-112495771D01*
X162274047Y-112495771D02*
X162369285Y-112448152D01*
X162369285Y-112448152D02*
X162559761Y-112448152D01*
X162559761Y-112448152D02*
X162654999Y-112495771D01*
X162654999Y-112495771D02*
X162702618Y-112591009D01*
X162702618Y-112591009D02*
X162702618Y-112686247D01*
X162702618Y-112686247D02*
X162226428Y-112781485D01*
X163131190Y-112448152D02*
X163131190Y-113114819D01*
X163131190Y-112543390D02*
X163178809Y-112495771D01*
X163178809Y-112495771D02*
X163274047Y-112448152D01*
X163274047Y-112448152D02*
X163416904Y-112448152D01*
X163416904Y-112448152D02*
X163512142Y-112495771D01*
X163512142Y-112495771D02*
X163559761Y-112591009D01*
X163559761Y-112591009D02*
X163559761Y-113114819D01*
X164035952Y-112448152D02*
X164035952Y-113114819D01*
X164035952Y-112543390D02*
X164083571Y-112495771D01*
X164083571Y-112495771D02*
X164178809Y-112448152D01*
X164178809Y-112448152D02*
X164321666Y-112448152D01*
X164321666Y-112448152D02*
X164416904Y-112495771D01*
X164416904Y-112495771D02*
X164464523Y-112591009D01*
X164464523Y-112591009D02*
X164464523Y-113114819D01*
X165369285Y-113114819D02*
X165369285Y-112591009D01*
X165369285Y-112591009D02*
X165321666Y-112495771D01*
X165321666Y-112495771D02*
X165226428Y-112448152D01*
X165226428Y-112448152D02*
X165035952Y-112448152D01*
X165035952Y-112448152D02*
X164940714Y-112495771D01*
X165369285Y-113067200D02*
X165274047Y-113114819D01*
X165274047Y-113114819D02*
X165035952Y-113114819D01*
X165035952Y-113114819D02*
X164940714Y-113067200D01*
X164940714Y-113067200D02*
X164893095Y-112971961D01*
X164893095Y-112971961D02*
X164893095Y-112876723D01*
X164893095Y-112876723D02*
X164940714Y-112781485D01*
X164940714Y-112781485D02*
X165035952Y-112733866D01*
X165035952Y-112733866D02*
X165274047Y-112733866D01*
X165274047Y-112733866D02*
X165369285Y-112686247D01*
X166559762Y-112829104D02*
X167035952Y-112829104D01*
X166464524Y-113114819D02*
X166797857Y-112114819D01*
X166797857Y-112114819D02*
X167131190Y-113114819D01*
X167464524Y-113114819D02*
X167464524Y-112448152D01*
X167464524Y-112638628D02*
X167512143Y-112543390D01*
X167512143Y-112543390D02*
X167559762Y-112495771D01*
X167559762Y-112495771D02*
X167655000Y-112448152D01*
X167655000Y-112448152D02*
X167750238Y-112448152D01*
X168464524Y-113067200D02*
X168369286Y-113114819D01*
X168369286Y-113114819D02*
X168178810Y-113114819D01*
X168178810Y-113114819D02*
X168083572Y-113067200D01*
X168083572Y-113067200D02*
X168035953Y-112971961D01*
X168035953Y-112971961D02*
X168035953Y-112591009D01*
X168035953Y-112591009D02*
X168083572Y-112495771D01*
X168083572Y-112495771D02*
X168178810Y-112448152D01*
X168178810Y-112448152D02*
X168369286Y-112448152D01*
X168369286Y-112448152D02*
X168464524Y-112495771D01*
X168464524Y-112495771D02*
X168512143Y-112591009D01*
X168512143Y-112591009D02*
X168512143Y-112686247D01*
X168512143Y-112686247D02*
X168035953Y-112781485D01*
X169369286Y-113114819D02*
X169369286Y-112591009D01*
X169369286Y-112591009D02*
X169321667Y-112495771D01*
X169321667Y-112495771D02*
X169226429Y-112448152D01*
X169226429Y-112448152D02*
X169035953Y-112448152D01*
X169035953Y-112448152D02*
X168940715Y-112495771D01*
X169369286Y-113067200D02*
X169274048Y-113114819D01*
X169274048Y-113114819D02*
X169035953Y-113114819D01*
X169035953Y-113114819D02*
X168940715Y-113067200D01*
X168940715Y-113067200D02*
X168893096Y-112971961D01*
X168893096Y-112971961D02*
X168893096Y-112876723D01*
X168893096Y-112876723D02*
X168940715Y-112781485D01*
X168940715Y-112781485D02*
X169035953Y-112733866D01*
X169035953Y-112733866D02*
X169274048Y-112733866D01*
X169274048Y-112733866D02*
X169369286Y-112686247D01*
X178738333Y-105434580D02*
X178690714Y-105482200D01*
X178690714Y-105482200D02*
X178547857Y-105529819D01*
X178547857Y-105529819D02*
X178452619Y-105529819D01*
X178452619Y-105529819D02*
X178309762Y-105482200D01*
X178309762Y-105482200D02*
X178214524Y-105386961D01*
X178214524Y-105386961D02*
X178166905Y-105291723D01*
X178166905Y-105291723D02*
X178119286Y-105101247D01*
X178119286Y-105101247D02*
X178119286Y-104958390D01*
X178119286Y-104958390D02*
X178166905Y-104767914D01*
X178166905Y-104767914D02*
X178214524Y-104672676D01*
X178214524Y-104672676D02*
X178309762Y-104577438D01*
X178309762Y-104577438D02*
X178452619Y-104529819D01*
X178452619Y-104529819D02*
X178547857Y-104529819D01*
X178547857Y-104529819D02*
X178690714Y-104577438D01*
X178690714Y-104577438D02*
X178738333Y-104625057D01*
X179071667Y-104529819D02*
X179690714Y-104529819D01*
X179690714Y-104529819D02*
X179357381Y-104910771D01*
X179357381Y-104910771D02*
X179500238Y-104910771D01*
X179500238Y-104910771D02*
X179595476Y-104958390D01*
X179595476Y-104958390D02*
X179643095Y-105006009D01*
X179643095Y-105006009D02*
X179690714Y-105101247D01*
X179690714Y-105101247D02*
X179690714Y-105339342D01*
X179690714Y-105339342D02*
X179643095Y-105434580D01*
X179643095Y-105434580D02*
X179595476Y-105482200D01*
X179595476Y-105482200D02*
X179500238Y-105529819D01*
X179500238Y-105529819D02*
X179214524Y-105529819D01*
X179214524Y-105529819D02*
X179119286Y-105482200D01*
X179119286Y-105482200D02*
X179071667Y-105434580D01*
X130421905Y-91154819D02*
X130421905Y-90154819D01*
X130421905Y-90154819D02*
X130660000Y-90154819D01*
X130660000Y-90154819D02*
X130802857Y-90202438D01*
X130802857Y-90202438D02*
X130898095Y-90297676D01*
X130898095Y-90297676D02*
X130945714Y-90392914D01*
X130945714Y-90392914D02*
X130993333Y-90583390D01*
X130993333Y-90583390D02*
X130993333Y-90726247D01*
X130993333Y-90726247D02*
X130945714Y-90916723D01*
X130945714Y-90916723D02*
X130898095Y-91011961D01*
X130898095Y-91011961D02*
X130802857Y-91107200D01*
X130802857Y-91107200D02*
X130660000Y-91154819D01*
X130660000Y-91154819D02*
X130421905Y-91154819D01*
X131850476Y-90154819D02*
X131660000Y-90154819D01*
X131660000Y-90154819D02*
X131564762Y-90202438D01*
X131564762Y-90202438D02*
X131517143Y-90250057D01*
X131517143Y-90250057D02*
X131421905Y-90392914D01*
X131421905Y-90392914D02*
X131374286Y-90583390D01*
X131374286Y-90583390D02*
X131374286Y-90964342D01*
X131374286Y-90964342D02*
X131421905Y-91059580D01*
X131421905Y-91059580D02*
X131469524Y-91107200D01*
X131469524Y-91107200D02*
X131564762Y-91154819D01*
X131564762Y-91154819D02*
X131755238Y-91154819D01*
X131755238Y-91154819D02*
X131850476Y-91107200D01*
X131850476Y-91107200D02*
X131898095Y-91059580D01*
X131898095Y-91059580D02*
X131945714Y-90964342D01*
X131945714Y-90964342D02*
X131945714Y-90726247D01*
X131945714Y-90726247D02*
X131898095Y-90631009D01*
X131898095Y-90631009D02*
X131850476Y-90583390D01*
X131850476Y-90583390D02*
X131755238Y-90535771D01*
X131755238Y-90535771D02*
X131564762Y-90535771D01*
X131564762Y-90535771D02*
X131469524Y-90583390D01*
X131469524Y-90583390D02*
X131421905Y-90631009D01*
X131421905Y-90631009D02*
X131374286Y-90726247D01*
X135864819Y-88366666D02*
X135388628Y-88699999D01*
X135864819Y-88938094D02*
X134864819Y-88938094D01*
X134864819Y-88938094D02*
X134864819Y-88557142D01*
X134864819Y-88557142D02*
X134912438Y-88461904D01*
X134912438Y-88461904D02*
X134960057Y-88414285D01*
X134960057Y-88414285D02*
X135055295Y-88366666D01*
X135055295Y-88366666D02*
X135198152Y-88366666D01*
X135198152Y-88366666D02*
X135293390Y-88414285D01*
X135293390Y-88414285D02*
X135341009Y-88461904D01*
X135341009Y-88461904D02*
X135388628Y-88557142D01*
X135388628Y-88557142D02*
X135388628Y-88938094D01*
X135293390Y-87795237D02*
X135245771Y-87890475D01*
X135245771Y-87890475D02*
X135198152Y-87938094D01*
X135198152Y-87938094D02*
X135102914Y-87985713D01*
X135102914Y-87985713D02*
X135055295Y-87985713D01*
X135055295Y-87985713D02*
X134960057Y-87938094D01*
X134960057Y-87938094D02*
X134912438Y-87890475D01*
X134912438Y-87890475D02*
X134864819Y-87795237D01*
X134864819Y-87795237D02*
X134864819Y-87604761D01*
X134864819Y-87604761D02*
X134912438Y-87509523D01*
X134912438Y-87509523D02*
X134960057Y-87461904D01*
X134960057Y-87461904D02*
X135055295Y-87414285D01*
X135055295Y-87414285D02*
X135102914Y-87414285D01*
X135102914Y-87414285D02*
X135198152Y-87461904D01*
X135198152Y-87461904D02*
X135245771Y-87509523D01*
X135245771Y-87509523D02*
X135293390Y-87604761D01*
X135293390Y-87604761D02*
X135293390Y-87795237D01*
X135293390Y-87795237D02*
X135341009Y-87890475D01*
X135341009Y-87890475D02*
X135388628Y-87938094D01*
X135388628Y-87938094D02*
X135483866Y-87985713D01*
X135483866Y-87985713D02*
X135674342Y-87985713D01*
X135674342Y-87985713D02*
X135769580Y-87938094D01*
X135769580Y-87938094D02*
X135817200Y-87890475D01*
X135817200Y-87890475D02*
X135864819Y-87795237D01*
X135864819Y-87795237D02*
X135864819Y-87604761D01*
X135864819Y-87604761D02*
X135817200Y-87509523D01*
X135817200Y-87509523D02*
X135769580Y-87461904D01*
X135769580Y-87461904D02*
X135674342Y-87414285D01*
X135674342Y-87414285D02*
X135483866Y-87414285D01*
X135483866Y-87414285D02*
X135388628Y-87461904D01*
X135388628Y-87461904D02*
X135341009Y-87509523D01*
X135341009Y-87509523D02*
X135293390Y-87604761D01*
X153738333Y-99864819D02*
X153405000Y-99388628D01*
X153166905Y-99864819D02*
X153166905Y-98864819D01*
X153166905Y-98864819D02*
X153547857Y-98864819D01*
X153547857Y-98864819D02*
X153643095Y-98912438D01*
X153643095Y-98912438D02*
X153690714Y-98960057D01*
X153690714Y-98960057D02*
X153738333Y-99055295D01*
X153738333Y-99055295D02*
X153738333Y-99198152D01*
X153738333Y-99198152D02*
X153690714Y-99293390D01*
X153690714Y-99293390D02*
X153643095Y-99341009D01*
X153643095Y-99341009D02*
X153547857Y-99388628D01*
X153547857Y-99388628D02*
X153166905Y-99388628D01*
X154643095Y-98864819D02*
X154166905Y-98864819D01*
X154166905Y-98864819D02*
X154119286Y-99341009D01*
X154119286Y-99341009D02*
X154166905Y-99293390D01*
X154166905Y-99293390D02*
X154262143Y-99245771D01*
X154262143Y-99245771D02*
X154500238Y-99245771D01*
X154500238Y-99245771D02*
X154595476Y-99293390D01*
X154595476Y-99293390D02*
X154643095Y-99341009D01*
X154643095Y-99341009D02*
X154690714Y-99436247D01*
X154690714Y-99436247D02*
X154690714Y-99674342D01*
X154690714Y-99674342D02*
X154643095Y-99769580D01*
X154643095Y-99769580D02*
X154595476Y-99817200D01*
X154595476Y-99817200D02*
X154500238Y-99864819D01*
X154500238Y-99864819D02*
X154262143Y-99864819D01*
X154262143Y-99864819D02*
X154166905Y-99817200D01*
X154166905Y-99817200D02*
X154119286Y-99769580D01*
X121042142Y-110654819D02*
X120708809Y-110178628D01*
X120470714Y-110654819D02*
X120470714Y-109654819D01*
X120470714Y-109654819D02*
X120851666Y-109654819D01*
X120851666Y-109654819D02*
X120946904Y-109702438D01*
X120946904Y-109702438D02*
X120994523Y-109750057D01*
X120994523Y-109750057D02*
X121042142Y-109845295D01*
X121042142Y-109845295D02*
X121042142Y-109988152D01*
X121042142Y-109988152D02*
X120994523Y-110083390D01*
X120994523Y-110083390D02*
X120946904Y-110131009D01*
X120946904Y-110131009D02*
X120851666Y-110178628D01*
X120851666Y-110178628D02*
X120470714Y-110178628D01*
X121423095Y-109750057D02*
X121470714Y-109702438D01*
X121470714Y-109702438D02*
X121565952Y-109654819D01*
X121565952Y-109654819D02*
X121804047Y-109654819D01*
X121804047Y-109654819D02*
X121899285Y-109702438D01*
X121899285Y-109702438D02*
X121946904Y-109750057D01*
X121946904Y-109750057D02*
X121994523Y-109845295D01*
X121994523Y-109845295D02*
X121994523Y-109940533D01*
X121994523Y-109940533D02*
X121946904Y-110083390D01*
X121946904Y-110083390D02*
X121375476Y-110654819D01*
X121375476Y-110654819D02*
X121994523Y-110654819D01*
X122613571Y-109654819D02*
X122708809Y-109654819D01*
X122708809Y-109654819D02*
X122804047Y-109702438D01*
X122804047Y-109702438D02*
X122851666Y-109750057D01*
X122851666Y-109750057D02*
X122899285Y-109845295D01*
X122899285Y-109845295D02*
X122946904Y-110035771D01*
X122946904Y-110035771D02*
X122946904Y-110273866D01*
X122946904Y-110273866D02*
X122899285Y-110464342D01*
X122899285Y-110464342D02*
X122851666Y-110559580D01*
X122851666Y-110559580D02*
X122804047Y-110607200D01*
X122804047Y-110607200D02*
X122708809Y-110654819D01*
X122708809Y-110654819D02*
X122613571Y-110654819D01*
X122613571Y-110654819D02*
X122518333Y-110607200D01*
X122518333Y-110607200D02*
X122470714Y-110559580D01*
X122470714Y-110559580D02*
X122423095Y-110464342D01*
X122423095Y-110464342D02*
X122375476Y-110273866D01*
X122375476Y-110273866D02*
X122375476Y-110035771D01*
X122375476Y-110035771D02*
X122423095Y-109845295D01*
X122423095Y-109845295D02*
X122470714Y-109750057D01*
X122470714Y-109750057D02*
X122518333Y-109702438D01*
X122518333Y-109702438D02*
X122613571Y-109654819D01*
X138736667Y-116897200D02*
X138879524Y-116944819D01*
X138879524Y-116944819D02*
X139117619Y-116944819D01*
X139117619Y-116944819D02*
X139212857Y-116897200D01*
X139212857Y-116897200D02*
X139260476Y-116849580D01*
X139260476Y-116849580D02*
X139308095Y-116754342D01*
X139308095Y-116754342D02*
X139308095Y-116659104D01*
X139308095Y-116659104D02*
X139260476Y-116563866D01*
X139260476Y-116563866D02*
X139212857Y-116516247D01*
X139212857Y-116516247D02*
X139117619Y-116468628D01*
X139117619Y-116468628D02*
X138927143Y-116421009D01*
X138927143Y-116421009D02*
X138831905Y-116373390D01*
X138831905Y-116373390D02*
X138784286Y-116325771D01*
X138784286Y-116325771D02*
X138736667Y-116230533D01*
X138736667Y-116230533D02*
X138736667Y-116135295D01*
X138736667Y-116135295D02*
X138784286Y-116040057D01*
X138784286Y-116040057D02*
X138831905Y-115992438D01*
X138831905Y-115992438D02*
X138927143Y-115944819D01*
X138927143Y-115944819D02*
X139165238Y-115944819D01*
X139165238Y-115944819D02*
X139308095Y-115992438D01*
X139641429Y-115944819D02*
X139879524Y-116944819D01*
X139879524Y-116944819D02*
X140070000Y-116230533D01*
X140070000Y-116230533D02*
X140260476Y-116944819D01*
X140260476Y-116944819D02*
X140498572Y-115944819D01*
X141403333Y-116944819D02*
X140831905Y-116944819D01*
X141117619Y-116944819D02*
X141117619Y-115944819D01*
X141117619Y-115944819D02*
X141022381Y-116087676D01*
X141022381Y-116087676D02*
X140927143Y-116182914D01*
X140927143Y-116182914D02*
X140831905Y-116230533D01*
X131675713Y-103459580D02*
X131628094Y-103507200D01*
X131628094Y-103507200D02*
X131485237Y-103554819D01*
X131485237Y-103554819D02*
X131389999Y-103554819D01*
X131389999Y-103554819D02*
X131247142Y-103507200D01*
X131247142Y-103507200D02*
X131151904Y-103411961D01*
X131151904Y-103411961D02*
X131104285Y-103316723D01*
X131104285Y-103316723D02*
X131056666Y-103126247D01*
X131056666Y-103126247D02*
X131056666Y-102983390D01*
X131056666Y-102983390D02*
X131104285Y-102792914D01*
X131104285Y-102792914D02*
X131151904Y-102697676D01*
X131151904Y-102697676D02*
X131247142Y-102602438D01*
X131247142Y-102602438D02*
X131389999Y-102554819D01*
X131389999Y-102554819D02*
X131485237Y-102554819D01*
X131485237Y-102554819D02*
X131628094Y-102602438D01*
X131628094Y-102602438D02*
X131675713Y-102650057D01*
X132151904Y-103554819D02*
X132342380Y-103554819D01*
X132342380Y-103554819D02*
X132437618Y-103507200D01*
X132437618Y-103507200D02*
X132485237Y-103459580D01*
X132485237Y-103459580D02*
X132580475Y-103316723D01*
X132580475Y-103316723D02*
X132628094Y-103126247D01*
X132628094Y-103126247D02*
X132628094Y-102745295D01*
X132628094Y-102745295D02*
X132580475Y-102650057D01*
X132580475Y-102650057D02*
X132532856Y-102602438D01*
X132532856Y-102602438D02*
X132437618Y-102554819D01*
X132437618Y-102554819D02*
X132247142Y-102554819D01*
X132247142Y-102554819D02*
X132151904Y-102602438D01*
X132151904Y-102602438D02*
X132104285Y-102650057D01*
X132104285Y-102650057D02*
X132056666Y-102745295D01*
X132056666Y-102745295D02*
X132056666Y-102983390D01*
X132056666Y-102983390D02*
X132104285Y-103078628D01*
X132104285Y-103078628D02*
X132151904Y-103126247D01*
X132151904Y-103126247D02*
X132247142Y-103173866D01*
X132247142Y-103173866D02*
X132437618Y-103173866D01*
X132437618Y-103173866D02*
X132532856Y-103126247D01*
X132532856Y-103126247D02*
X132580475Y-103078628D01*
X132580475Y-103078628D02*
X132628094Y-102983390D01*
X127114819Y-82938094D02*
X126114819Y-82938094D01*
X126114819Y-82938094D02*
X126114819Y-82699999D01*
X126114819Y-82699999D02*
X126162438Y-82557142D01*
X126162438Y-82557142D02*
X126257676Y-82461904D01*
X126257676Y-82461904D02*
X126352914Y-82414285D01*
X126352914Y-82414285D02*
X126543390Y-82366666D01*
X126543390Y-82366666D02*
X126686247Y-82366666D01*
X126686247Y-82366666D02*
X126876723Y-82414285D01*
X126876723Y-82414285D02*
X126971961Y-82461904D01*
X126971961Y-82461904D02*
X127067200Y-82557142D01*
X127067200Y-82557142D02*
X127114819Y-82699999D01*
X127114819Y-82699999D02*
X127114819Y-82938094D01*
X126114819Y-81461904D02*
X126114819Y-81938094D01*
X126114819Y-81938094D02*
X126591009Y-81985713D01*
X126591009Y-81985713D02*
X126543390Y-81938094D01*
X126543390Y-81938094D02*
X126495771Y-81842856D01*
X126495771Y-81842856D02*
X126495771Y-81604761D01*
X126495771Y-81604761D02*
X126543390Y-81509523D01*
X126543390Y-81509523D02*
X126591009Y-81461904D01*
X126591009Y-81461904D02*
X126686247Y-81414285D01*
X126686247Y-81414285D02*
X126924342Y-81414285D01*
X126924342Y-81414285D02*
X127019580Y-81461904D01*
X127019580Y-81461904D02*
X127067200Y-81509523D01*
X127067200Y-81509523D02*
X127114819Y-81604761D01*
X127114819Y-81604761D02*
X127114819Y-81842856D01*
X127114819Y-81842856D02*
X127067200Y-81938094D01*
X127067200Y-81938094D02*
X127019580Y-81985713D01*
X129864819Y-89342857D02*
X129388628Y-89676190D01*
X129864819Y-89914285D02*
X128864819Y-89914285D01*
X128864819Y-89914285D02*
X128864819Y-89533333D01*
X128864819Y-89533333D02*
X128912438Y-89438095D01*
X128912438Y-89438095D02*
X128960057Y-89390476D01*
X128960057Y-89390476D02*
X129055295Y-89342857D01*
X129055295Y-89342857D02*
X129198152Y-89342857D01*
X129198152Y-89342857D02*
X129293390Y-89390476D01*
X129293390Y-89390476D02*
X129341009Y-89438095D01*
X129341009Y-89438095D02*
X129388628Y-89533333D01*
X129388628Y-89533333D02*
X129388628Y-89914285D01*
X129864819Y-88390476D02*
X129864819Y-88961904D01*
X129864819Y-88676190D02*
X128864819Y-88676190D01*
X128864819Y-88676190D02*
X129007676Y-88771428D01*
X129007676Y-88771428D02*
X129102914Y-88866666D01*
X129102914Y-88866666D02*
X129150533Y-88961904D01*
X129864819Y-87438095D02*
X129864819Y-88009523D01*
X129864819Y-87723809D02*
X128864819Y-87723809D01*
X128864819Y-87723809D02*
X129007676Y-87819047D01*
X129007676Y-87819047D02*
X129102914Y-87914285D01*
X129102914Y-87914285D02*
X129150533Y-88009523D01*
D14*
%TO.C,R12*%
X148137500Y-81532776D02*
X148137500Y-82042224D01*
X149182500Y-81532776D02*
X149182500Y-82042224D01*
%TO.C,U1*%
X137000000Y-81890000D02*
X138260000Y-81890000D01*
X137000000Y-85650000D02*
X137000000Y-81890000D01*
X143820000Y-81890000D02*
X142560000Y-81890000D01*
X143820000Y-85650000D02*
X143820000Y-81890000D01*
X137100000Y-86930000D02*
X136770000Y-87170000D01*
X136770000Y-86690000D01*
X137100000Y-86930000D01*
G36*
X137100000Y-86930000D02*
G01*
X136770000Y-87170000D01*
X136770000Y-86690000D01*
X137100000Y-86930000D01*
G37*
%TO.C,R4*%
X153382500Y-105664724D02*
X153382500Y-105155276D01*
X154427500Y-105664724D02*
X154427500Y-105155276D01*
%TO.C,C8*%
X140675000Y-103961252D02*
X140675000Y-103438748D01*
X142145000Y-103961252D02*
X142145000Y-103438748D01*
%TO.C,SW3*%
X156760000Y-78100000D02*
X156760000Y-81400000D01*
X156760000Y-81400000D02*
X157060000Y-81400000D01*
X157060000Y-78100000D02*
X156760000Y-78100000D01*
X159260000Y-78100000D02*
X159560000Y-78100000D01*
X159560000Y-78100000D02*
X159560000Y-81400000D01*
X159560000Y-81400000D02*
X159260000Y-81400000D01*
%TO.C,C1*%
X176258733Y-106315000D02*
X176551267Y-106315000D01*
X176258733Y-107335000D02*
X176551267Y-107335000D01*
%TO.C,C6*%
X132871252Y-113965000D02*
X132348748Y-113965000D01*
X132871252Y-115435000D02*
X132348748Y-115435000D01*
%TO.C,R23*%
X125939724Y-92677500D02*
X125430276Y-92677500D01*
X125939724Y-93722500D02*
X125430276Y-93722500D01*
%TO.C,D2*%
X134450000Y-80065000D02*
X134450000Y-82925000D01*
X136370000Y-80065000D02*
X134450000Y-80065000D01*
X136370000Y-82925000D02*
X136370000Y-80065000D01*
%TO.C,R3*%
X132175000Y-108177064D02*
X132175000Y-107722936D01*
X133645000Y-108177064D02*
X133645000Y-107722936D01*
%TO.C,R13*%
X132887500Y-93454724D02*
X132887500Y-92945276D01*
X133932500Y-93454724D02*
X133932500Y-92945276D01*
%TO.C,R10*%
X130887500Y-85867224D02*
X130887500Y-85357776D01*
X131932500Y-85867224D02*
X131932500Y-85357776D01*
%TO.C,U4*%
D13*
X162720000Y-116950000D02*
X142400000Y-116950000D01*
X142400000Y-129650000D01*
X162720000Y-129650000D01*
X162720000Y-116950000D01*
D14*
%TO.C,SW7*%
X124010000Y-89300000D02*
X124010000Y-89600000D01*
X124010000Y-92100000D02*
X124010000Y-91800000D01*
X127310000Y-89300000D02*
X124010000Y-89300000D01*
X127310000Y-89600000D02*
X127310000Y-89300000D01*
X127310000Y-91800000D02*
X127310000Y-92100000D01*
X127310000Y-92100000D02*
X124010000Y-92100000D01*
%TO.C,D1*%
X143260000Y-96940000D02*
X143260000Y-103950000D01*
X146560000Y-96940000D02*
X143260000Y-96940000D01*
X146560000Y-96940000D02*
X146560000Y-103950000D01*
%TO.C,Q1*%
X164600000Y-84512500D02*
X164600000Y-83862500D01*
X164600000Y-84512500D02*
X164600000Y-85162500D01*
X167720000Y-84512500D02*
X167720000Y-83862500D01*
X167720000Y-84512500D02*
X167720000Y-85162500D01*
X168000000Y-83590000D02*
X167670000Y-83350000D01*
X168000000Y-83110000D01*
X168000000Y-83590000D01*
G36*
X168000000Y-83590000D02*
G01*
X167670000Y-83350000D01*
X168000000Y-83110000D01*
X168000000Y-83590000D01*
G37*
%TO.C,SW6*%
X124010000Y-94800000D02*
X124010000Y-95100000D01*
X124010000Y-97600000D02*
X124010000Y-97300000D01*
X127310000Y-94800000D02*
X124010000Y-94800000D01*
X127310000Y-95100000D02*
X127310000Y-94800000D01*
X127310000Y-97300000D02*
X127310000Y-97600000D01*
X127310000Y-97600000D02*
X124010000Y-97600000D01*
%TO.C,J2*%
X147330000Y-112690000D02*
X147330000Y-87170000D01*
X149930000Y-110090000D02*
X149930000Y-112690000D01*
X149930000Y-112690000D02*
X147330000Y-112690000D01*
X152530000Y-87170000D02*
X147330000Y-87170000D01*
X152530000Y-110090000D02*
X149930000Y-110090000D01*
X152530000Y-110090000D02*
X152530000Y-87170000D01*
X152530000Y-111360000D02*
X152530000Y-112690000D01*
X152530000Y-112690000D02*
X151200000Y-112690000D01*
%TO.C,C5*%
X175237500Y-100346267D02*
X175237500Y-100053733D01*
X176257500Y-100346267D02*
X176257500Y-100053733D01*
D12*
%TO.C,U2*%
X134860000Y-103772500D02*
X134860000Y-107922500D01*
X140010000Y-103772500D02*
X140010000Y-107922500D01*
D14*
X140265000Y-103587500D02*
X139935000Y-103347500D01*
X140265000Y-103107500D01*
X140265000Y-103587500D01*
G36*
X140265000Y-103587500D02*
G01*
X139935000Y-103347500D01*
X140265000Y-103107500D01*
X140265000Y-103587500D01*
G37*
%TO.C,R21*%
X125702224Y-104177500D02*
X125192776Y-104177500D01*
X125702224Y-105222500D02*
X125192776Y-105222500D01*
%TO.C,L1*%
X135460000Y-93050000D02*
X137760000Y-93050000D01*
X135460000Y-100450000D02*
X135460000Y-93050000D01*
X137760000Y-100450000D02*
X135460000Y-100450000D01*
X140560000Y-93050000D02*
X142860000Y-93050000D01*
X142860000Y-93050000D02*
X142860000Y-100450000D01*
X142860000Y-100450000D02*
X140560000Y-100450000D01*
%TO.C,R22*%
X125827224Y-98177500D02*
X125317776Y-98177500D01*
X125827224Y-99222500D02*
X125317776Y-99222500D01*
%TO.C,C10*%
X168400000Y-84958767D02*
X168400000Y-84666233D01*
X169420000Y-84958767D02*
X169420000Y-84666233D01*
%TO.C,C7*%
X139671252Y-88465000D02*
X139148748Y-88465000D01*
X139671252Y-89935000D02*
X139148748Y-89935000D01*
%TO.C,R14*%
X151137500Y-81532776D02*
X151137500Y-82042224D01*
X152182500Y-81532776D02*
X152182500Y-82042224D01*
%TO.C,C11*%
X160650000Y-84958767D02*
X160650000Y-84666233D01*
X161670000Y-84958767D02*
X161670000Y-84666233D01*
%TO.C,SW5*%
X124010000Y-106300000D02*
X124010000Y-106600000D01*
X124010000Y-109100000D02*
X124010000Y-108800000D01*
X127310000Y-106300000D02*
X124010000Y-106300000D01*
X127310000Y-106600000D02*
X127310000Y-106300000D01*
X127310000Y-108800000D02*
X127310000Y-109100000D01*
X127310000Y-109100000D02*
X124010000Y-109100000D01*
%TO.C,R9*%
X132887500Y-85867224D02*
X132887500Y-85357776D01*
X133932500Y-85867224D02*
X133932500Y-85357776D01*
%TO.C,C4*%
X140855225Y-107225000D02*
X141355225Y-107225000D01*
X141105225Y-106975000D02*
X141105225Y-107475000D01*
X143660000Y-106120000D02*
X143660000Y-107660000D01*
X143660000Y-109740000D02*
X143660000Y-111280000D01*
X143700000Y-106120000D02*
X143700000Y-107660000D01*
X143700000Y-109740000D02*
X143700000Y-111280000D01*
X143740000Y-106121000D02*
X143740000Y-107660000D01*
X143740000Y-109740000D02*
X143740000Y-111279000D01*
X143780000Y-106122000D02*
X143780000Y-107660000D01*
X143780000Y-109740000D02*
X143780000Y-111278000D01*
X143820000Y-106124000D02*
X143820000Y-107660000D01*
X143820000Y-109740000D02*
X143820000Y-111276000D01*
X143860000Y-106127000D02*
X143860000Y-107660000D01*
X143860000Y-109740000D02*
X143860000Y-111273000D01*
X143900000Y-106131000D02*
X143900000Y-107660000D01*
X143900000Y-109740000D02*
X143900000Y-111269000D01*
X143940000Y-106135000D02*
X143940000Y-107660000D01*
X143940000Y-109740000D02*
X143940000Y-111265000D01*
X143980000Y-106139000D02*
X143980000Y-107660000D01*
X143980000Y-109740000D02*
X143980000Y-111261000D01*
X144020000Y-106144000D02*
X144020000Y-107660000D01*
X144020000Y-109740000D02*
X144020000Y-111256000D01*
X144060000Y-106150000D02*
X144060000Y-107660000D01*
X144060000Y-109740000D02*
X144060000Y-111250000D01*
X144100000Y-106157000D02*
X144100000Y-107660000D01*
X144100000Y-109740000D02*
X144100000Y-111243000D01*
X144140000Y-106164000D02*
X144140000Y-107660000D01*
X144140000Y-109740000D02*
X144140000Y-111236000D01*
X144180000Y-106172000D02*
X144180000Y-107660000D01*
X144180000Y-109740000D02*
X144180000Y-111228000D01*
X144220000Y-106180000D02*
X144220000Y-107660000D01*
X144220000Y-109740000D02*
X144220000Y-111220000D01*
X144260000Y-106189000D02*
X144260000Y-107660000D01*
X144260000Y-109740000D02*
X144260000Y-111211000D01*
X144300000Y-106199000D02*
X144300000Y-107660000D01*
X144300000Y-109740000D02*
X144300000Y-111201000D01*
X144340000Y-106209000D02*
X144340000Y-107660000D01*
X144340000Y-109740000D02*
X144340000Y-111191000D01*
X144381000Y-106220000D02*
X144381000Y-107660000D01*
X144381000Y-109740000D02*
X144381000Y-111180000D01*
X144421000Y-106232000D02*
X144421000Y-107660000D01*
X144421000Y-109740000D02*
X144421000Y-111168000D01*
X144461000Y-106245000D02*
X144461000Y-107660000D01*
X144461000Y-109740000D02*
X144461000Y-111155000D01*
X144501000Y-106258000D02*
X144501000Y-107660000D01*
X144501000Y-109740000D02*
X144501000Y-111142000D01*
X144541000Y-106272000D02*
X144541000Y-107660000D01*
X144541000Y-109740000D02*
X144541000Y-111128000D01*
X144581000Y-106286000D02*
X144581000Y-107660000D01*
X144581000Y-109740000D02*
X144581000Y-111114000D01*
X144621000Y-106302000D02*
X144621000Y-107660000D01*
X144621000Y-109740000D02*
X144621000Y-111098000D01*
X144661000Y-106318000D02*
X144661000Y-107660000D01*
X144661000Y-109740000D02*
X144661000Y-111082000D01*
X144701000Y-106335000D02*
X144701000Y-107660000D01*
X144701000Y-109740000D02*
X144701000Y-111065000D01*
X144741000Y-106352000D02*
X144741000Y-107660000D01*
X144741000Y-109740000D02*
X144741000Y-111048000D01*
X144781000Y-106371000D02*
X144781000Y-107660000D01*
X144781000Y-109740000D02*
X144781000Y-111029000D01*
X144821000Y-106390000D02*
X144821000Y-107660000D01*
X144821000Y-109740000D02*
X144821000Y-111010000D01*
X144861000Y-106410000D02*
X144861000Y-107660000D01*
X144861000Y-109740000D02*
X144861000Y-110990000D01*
X144901000Y-106432000D02*
X144901000Y-107660000D01*
X144901000Y-109740000D02*
X144901000Y-110968000D01*
X144941000Y-106453000D02*
X144941000Y-107660000D01*
X144941000Y-109740000D02*
X144941000Y-110947000D01*
X144981000Y-106476000D02*
X144981000Y-107660000D01*
X144981000Y-109740000D02*
X144981000Y-110924000D01*
X145021000Y-106500000D02*
X145021000Y-107660000D01*
X145021000Y-109740000D02*
X145021000Y-110900000D01*
X145061000Y-106525000D02*
X145061000Y-107660000D01*
X145061000Y-109740000D02*
X145061000Y-110875000D01*
X145101000Y-106551000D02*
X145101000Y-107660000D01*
X145101000Y-109740000D02*
X145101000Y-110849000D01*
X145141000Y-106578000D02*
X145141000Y-107660000D01*
X145141000Y-109740000D02*
X145141000Y-110822000D01*
X145181000Y-106605000D02*
X145181000Y-107660000D01*
X145181000Y-109740000D02*
X145181000Y-110795000D01*
X145221000Y-106635000D02*
X145221000Y-107660000D01*
X145221000Y-109740000D02*
X145221000Y-110765000D01*
X145261000Y-106665000D02*
X145261000Y-107660000D01*
X145261000Y-109740000D02*
X145261000Y-110735000D01*
X145301000Y-106696000D02*
X145301000Y-107660000D01*
X145301000Y-109740000D02*
X145301000Y-110704000D01*
X145341000Y-106729000D02*
X145341000Y-107660000D01*
X145341000Y-109740000D02*
X145341000Y-110671000D01*
X145381000Y-106763000D02*
X145381000Y-107660000D01*
X145381000Y-109740000D02*
X145381000Y-110637000D01*
X145421000Y-106799000D02*
X145421000Y-107660000D01*
X145421000Y-109740000D02*
X145421000Y-110601000D01*
X145461000Y-106836000D02*
X145461000Y-107660000D01*
X145461000Y-109740000D02*
X145461000Y-110564000D01*
X145501000Y-106874000D02*
X145501000Y-107660000D01*
X145501000Y-109740000D02*
X145501000Y-110526000D01*
X145541000Y-106915000D02*
X145541000Y-107660000D01*
X145541000Y-109740000D02*
X145541000Y-110485000D01*
X145581000Y-106957000D02*
X145581000Y-107660000D01*
X145581000Y-109740000D02*
X145581000Y-110443000D01*
X145621000Y-107001000D02*
X145621000Y-107660000D01*
X145621000Y-109740000D02*
X145621000Y-110399000D01*
X145661000Y-107047000D02*
X145661000Y-107660000D01*
X145661000Y-109740000D02*
X145661000Y-110353000D01*
X145701000Y-107095000D02*
X145701000Y-110305000D01*
X145741000Y-107146000D02*
X145741000Y-110254000D01*
X145781000Y-107200000D02*
X145781000Y-110200000D01*
X145821000Y-107257000D02*
X145821000Y-110143000D01*
X145861000Y-107317000D02*
X145861000Y-110083000D01*
X145901000Y-107381000D02*
X145901000Y-110019000D01*
X145941000Y-107449000D02*
X145941000Y-109951000D01*
X145981000Y-107522000D02*
X145981000Y-109878000D01*
X146021000Y-107602000D02*
X146021000Y-109798000D01*
X146061000Y-107689000D02*
X146061000Y-109711000D01*
X146101000Y-107785000D02*
X146101000Y-109615000D01*
X146141000Y-107895000D02*
X146141000Y-109505000D01*
X146181000Y-108023000D02*
X146181000Y-109377000D01*
X146221000Y-108182000D02*
X146221000Y-109218000D01*
X146261000Y-108416000D02*
X146261000Y-108984000D01*
X146280000Y-108700000D02*
G75*
G02*
X141040000Y-108700000I-2620000J0D01*
G01*
X141040000Y-108700000D02*
G75*
G02*
X146280000Y-108700000I2620000J0D01*
G01*
%TO.C,SW2*%
X164760000Y-78300000D02*
X164760000Y-81600000D01*
X164760000Y-81600000D02*
X165060000Y-81600000D01*
X165060000Y-78300000D02*
X164760000Y-78300000D01*
X167260000Y-78300000D02*
X167560000Y-78300000D01*
X167560000Y-78300000D02*
X167560000Y-81600000D01*
X167560000Y-81600000D02*
X167260000Y-81600000D01*
%TO.C,R1*%
X176752224Y-102177500D02*
X176242776Y-102177500D01*
X176752224Y-103222500D02*
X176242776Y-103222500D01*
%TO.C,D4*%
X129950000Y-80065000D02*
X129950000Y-82925000D01*
X131870000Y-80065000D02*
X129950000Y-80065000D01*
X131870000Y-82925000D02*
X131870000Y-80065000D01*
%TO.C,R6*%
X161405276Y-78427500D02*
X161914724Y-78427500D01*
X161405276Y-79472500D02*
X161914724Y-79472500D01*
%TO.C,R2*%
X132799564Y-111715000D02*
X132345436Y-111715000D01*
X132799564Y-113185000D02*
X132345436Y-113185000D01*
%TO.C,J3*%
X145330000Y-71240000D02*
X145330000Y-70290000D01*
X145330000Y-75215000D02*
X145330000Y-74360000D01*
X154490000Y-70290000D02*
X145330000Y-70290000D01*
X154490000Y-71240000D02*
X154490000Y-70290000D01*
X154490000Y-75215000D02*
X154490000Y-74360000D01*
%TO.C,Q2*%
X156550000Y-84512500D02*
X156550000Y-83862500D01*
X156550000Y-84512500D02*
X156550000Y-85162500D01*
X159670000Y-84512500D02*
X159670000Y-83862500D01*
X159670000Y-84512500D02*
X159670000Y-85162500D01*
X159950000Y-83590000D02*
X159620000Y-83350000D01*
X159950000Y-83110000D01*
X159950000Y-83590000D01*
G36*
X159950000Y-83590000D02*
G01*
X159620000Y-83350000D01*
X159950000Y-83110000D01*
X159950000Y-83590000D01*
G37*
%TO.C,D3*%
X132200000Y-80065000D02*
X132200000Y-82925000D01*
X134120000Y-80065000D02*
X132200000Y-80065000D01*
X134120000Y-82925000D02*
X134120000Y-80065000D01*
%TO.C,R7*%
X161914724Y-80177500D02*
X161405276Y-80177500D01*
X161914724Y-81222500D02*
X161405276Y-81222500D01*
%TO.C,C2*%
X144425000Y-86561252D02*
X144425000Y-86038748D01*
X145895000Y-86561252D02*
X145895000Y-86038748D01*
%TO.C,J1*%
X133800000Y-118890000D02*
X133800000Y-125510000D01*
X133800000Y-122200000D02*
X134810000Y-122200000D01*
X133800000Y-125510000D02*
X136060000Y-125510000D01*
X134810000Y-119600000D02*
X134810000Y-123900000D01*
X134810000Y-123900000D02*
X140510000Y-123900000D01*
X136060000Y-124510000D02*
X137260000Y-124510000D01*
X136060000Y-125510000D02*
X136060000Y-124510000D01*
X137260000Y-124510000D02*
X137260000Y-125110000D01*
X137260000Y-125110000D02*
X138060000Y-125110000D01*
X138060000Y-124510000D02*
X139260000Y-124510000D01*
X138060000Y-125110000D02*
X138060000Y-124510000D01*
X139260000Y-124510000D02*
X139260000Y-125510000D01*
X139260000Y-125510000D02*
X141520000Y-125510000D01*
X140510000Y-119600000D02*
X134810000Y-119600000D01*
X140510000Y-123900000D02*
X140510000Y-119600000D01*
X140570000Y-125810000D02*
X141820000Y-125810000D01*
X141520000Y-118890000D02*
X133800000Y-118890000D01*
X141520000Y-122200000D02*
X140510000Y-122200000D01*
X141520000Y-125510000D02*
X141520000Y-118890000D01*
X141820000Y-125810000D02*
X141820000Y-124560000D01*
%TO.C,SW4*%
X123960000Y-100800000D02*
X123960000Y-101100000D01*
X123960000Y-103600000D02*
X123960000Y-103300000D01*
X127260000Y-100800000D02*
X123960000Y-100800000D01*
X127260000Y-101100000D02*
X127260000Y-100800000D01*
X127260000Y-103300000D02*
X127260000Y-103600000D01*
X127260000Y-103600000D02*
X123960000Y-103600000D01*
%TO.C,U3*%
X155655000Y-90160000D02*
X156655000Y-90160000D01*
X155655000Y-90910000D02*
X155655000Y-90160000D01*
X155655000Y-109660000D02*
X173655000Y-109660000D01*
X155655000Y-115660000D02*
X155655000Y-108910000D01*
X173655000Y-90160000D02*
X172655000Y-90160000D01*
X173655000Y-90910000D02*
X173655000Y-90160000D01*
X173655000Y-115660000D02*
X155655000Y-115660000D01*
X173655000Y-115660000D02*
X173655000Y-108910000D01*
%TO.C,C3*%
X176258733Y-104565000D02*
X176551267Y-104565000D01*
X176258733Y-105585000D02*
X176551267Y-105585000D01*
%TO.C,D6*%
X130200000Y-92200000D02*
X130200000Y-95060000D01*
X130200000Y-95060000D02*
X132120000Y-95060000D01*
X132120000Y-95060000D02*
X132120000Y-92200000D01*
%TO.C,R8*%
X134887500Y-85842224D02*
X134887500Y-85332776D01*
X135932500Y-85842224D02*
X135932500Y-85332776D01*
%TO.C,R5*%
X153382500Y-101742776D02*
X153382500Y-102252224D01*
X154427500Y-101742776D02*
X154427500Y-102252224D01*
%TO.C,R20*%
X125689724Y-109677500D02*
X125180276Y-109677500D01*
X125689724Y-110722500D02*
X125180276Y-110722500D01*
%TO.C,SW1*%
X145180000Y-115310000D02*
X134960000Y-115310000D01*
X134960000Y-112590000D01*
X145180000Y-112590000D01*
X145180000Y-115310000D01*
%TO.C,C9*%
X128601380Y-99102000D02*
X128601380Y-98298000D01*
X128641380Y-99333000D02*
X128641380Y-98067000D01*
X128681380Y-99502000D02*
X128681380Y-97898000D01*
X128721380Y-99640000D02*
X128721380Y-97760000D01*
X128761380Y-99759000D02*
X128761380Y-97641000D01*
X128801380Y-99865000D02*
X128801380Y-97535000D01*
X128841380Y-99962000D02*
X128841380Y-97438000D01*
X128881380Y-100050000D02*
X128881380Y-97350000D01*
X128921380Y-100132000D02*
X128921380Y-97268000D01*
X128961380Y-100209000D02*
X128961380Y-97191000D01*
X129001380Y-100281000D02*
X129001380Y-97119000D01*
X129041380Y-100350000D02*
X129041380Y-97050000D01*
X129081380Y-100414000D02*
X129081380Y-96986000D01*
X129121380Y-100476000D02*
X129121380Y-96924000D01*
X129161380Y-100534000D02*
X129161380Y-96866000D01*
X129201380Y-100590000D02*
X129201380Y-96810000D01*
X129241380Y-100644000D02*
X129241380Y-96756000D01*
X129281380Y-100695000D02*
X129281380Y-96705000D01*
X129321380Y-100744000D02*
X129321380Y-96656000D01*
X129361380Y-100792000D02*
X129361380Y-96608000D01*
X129401380Y-100837000D02*
X129401380Y-96563000D01*
X129441380Y-100882000D02*
X129441380Y-96518000D01*
X129481380Y-100924000D02*
X129481380Y-96476000D01*
X129521380Y-100965000D02*
X129521380Y-96435000D01*
X129561380Y-97660000D02*
X129561380Y-96395000D01*
X129561380Y-101005000D02*
X129561380Y-99740000D01*
X129601380Y-97660000D02*
X129601380Y-96357000D01*
X129601380Y-101043000D02*
X129601380Y-99740000D01*
X129641380Y-97660000D02*
X129641380Y-96320000D01*
X129641380Y-101080000D02*
X129641380Y-99740000D01*
X129681380Y-97660000D02*
X129681380Y-96284000D01*
X129681380Y-101116000D02*
X129681380Y-99740000D01*
X129721380Y-97660000D02*
X129721380Y-96250000D01*
X129721380Y-101150000D02*
X129721380Y-99740000D01*
X129761380Y-97660000D02*
X129761380Y-96216000D01*
X129761380Y-101184000D02*
X129761380Y-99740000D01*
X129801380Y-97660000D02*
X129801380Y-96184000D01*
X129801380Y-101216000D02*
X129801380Y-99740000D01*
X129841380Y-97660000D02*
X129841380Y-96152000D01*
X129841380Y-101248000D02*
X129841380Y-99740000D01*
X129881380Y-97660000D02*
X129881380Y-96122000D01*
X129881380Y-101278000D02*
X129881380Y-99740000D01*
X129921380Y-97660000D02*
X129921380Y-96093000D01*
X129921380Y-101307000D02*
X129921380Y-99740000D01*
X129961380Y-97660000D02*
X129961380Y-96064000D01*
X129961380Y-101336000D02*
X129961380Y-99740000D01*
X130001380Y-97660000D02*
X130001380Y-96036000D01*
X130001380Y-101364000D02*
X130001380Y-99740000D01*
X130041380Y-97660000D02*
X130041380Y-96010000D01*
X130041380Y-101390000D02*
X130041380Y-99740000D01*
X130081380Y-97660000D02*
X130081380Y-95984000D01*
X130081380Y-101416000D02*
X130081380Y-99740000D01*
X130121380Y-97660000D02*
X130121380Y-95958000D01*
X130121380Y-101442000D02*
X130121380Y-99740000D01*
X130161380Y-97660000D02*
X130161380Y-95934000D01*
X130161380Y-101466000D02*
X130161380Y-99740000D01*
X130201380Y-97660000D02*
X130201380Y-95910000D01*
X130201380Y-101490000D02*
X130201380Y-99740000D01*
X130241380Y-97660000D02*
X130241380Y-95888000D01*
X130241380Y-101512000D02*
X130241380Y-99740000D01*
X130281380Y-97660000D02*
X130281380Y-95866000D01*
X130281380Y-101534000D02*
X130281380Y-99740000D01*
X130321380Y-97660000D02*
X130321380Y-95844000D01*
X130321380Y-101556000D02*
X130321380Y-99740000D01*
X130361380Y-97660000D02*
X130361380Y-95824000D01*
X130361380Y-101576000D02*
X130361380Y-99740000D01*
X130401380Y-97660000D02*
X130401380Y-95804000D01*
X130401380Y-101596000D02*
X130401380Y-99740000D01*
X130441380Y-97660000D02*
X130441380Y-95784000D01*
X130441380Y-101616000D02*
X130441380Y-99740000D01*
X130481380Y-97660000D02*
X130481380Y-95766000D01*
X130481380Y-101634000D02*
X130481380Y-99740000D01*
X130521380Y-97660000D02*
X130521380Y-95748000D01*
X130521380Y-101652000D02*
X130521380Y-99740000D01*
X130561380Y-97660000D02*
X130561380Y-95730000D01*
X130561380Y-101670000D02*
X130561380Y-99740000D01*
X130601380Y-97660000D02*
X130601380Y-95714000D01*
X130601380Y-101686000D02*
X130601380Y-99740000D01*
X130641380Y-97660000D02*
X130641380Y-95698000D01*
X130641380Y-101702000D02*
X130641380Y-99740000D01*
X130681380Y-97660000D02*
X130681380Y-95682000D01*
X130681380Y-101718000D02*
X130681380Y-99740000D01*
X130721380Y-97660000D02*
X130721380Y-95667000D01*
X130721380Y-101733000D02*
X130721380Y-99740000D01*
X130761380Y-97660000D02*
X130761380Y-95653000D01*
X130761380Y-101747000D02*
X130761380Y-99740000D01*
X130801380Y-97660000D02*
X130801380Y-95639000D01*
X130801380Y-101761000D02*
X130801380Y-99740000D01*
X130841380Y-97660000D02*
X130841380Y-95626000D01*
X130841380Y-101774000D02*
X130841380Y-99740000D01*
X130881380Y-97660000D02*
X130881380Y-95614000D01*
X130881380Y-101786000D02*
X130881380Y-99740000D01*
X130921380Y-97660000D02*
X130921380Y-95602000D01*
X130921380Y-101798000D02*
X130921380Y-99740000D01*
X130961380Y-97660000D02*
X130961380Y-95590000D01*
X130961380Y-101810000D02*
X130961380Y-99740000D01*
X131001380Y-97660000D02*
X131001380Y-95579000D01*
X131001380Y-101821000D02*
X131001380Y-99740000D01*
X131041380Y-97660000D02*
X131041380Y-95569000D01*
X131041380Y-101831000D02*
X131041380Y-99740000D01*
X131081380Y-97660000D02*
X131081380Y-95559000D01*
X131081380Y-101841000D02*
X131081380Y-99740000D01*
X131121380Y-97660000D02*
X131121380Y-95550000D01*
X131121380Y-101850000D02*
X131121380Y-99740000D01*
X131162380Y-97660000D02*
X131162380Y-95541000D01*
X131162380Y-101859000D02*
X131162380Y-99740000D01*
X131202380Y-97660000D02*
X131202380Y-95533000D01*
X131202380Y-101867000D02*
X131202380Y-99740000D01*
X131242380Y-97660000D02*
X131242380Y-95525000D01*
X131242380Y-101875000D02*
X131242380Y-99740000D01*
X131282380Y-97660000D02*
X131282380Y-95518000D01*
X131282380Y-101882000D02*
X131282380Y-99740000D01*
X131322380Y-97660000D02*
X131322380Y-95511000D01*
X131322380Y-101889000D02*
X131322380Y-99740000D01*
X131362380Y-97660000D02*
X131362380Y-95505000D01*
X131362380Y-101895000D02*
X131362380Y-99740000D01*
X131402380Y-97660000D02*
X131402380Y-95499000D01*
X131402380Y-101901000D02*
X131402380Y-99740000D01*
X131442380Y-97660000D02*
X131442380Y-95494000D01*
X131442380Y-101906000D02*
X131442380Y-99740000D01*
X131482380Y-97660000D02*
X131482380Y-95489000D01*
X131482380Y-101911000D02*
X131482380Y-99740000D01*
X131522380Y-97660000D02*
X131522380Y-95485000D01*
X131522380Y-101915000D02*
X131522380Y-99740000D01*
X131562380Y-97660000D02*
X131562380Y-95482000D01*
X131562380Y-101918000D02*
X131562380Y-99740000D01*
X131602380Y-97660000D02*
X131602380Y-95478000D01*
X131602380Y-101922000D02*
X131602380Y-99740000D01*
X131642380Y-101924000D02*
X131642380Y-95476000D01*
X131682380Y-101927000D02*
X131682380Y-95473000D01*
X131722380Y-101928000D02*
X131722380Y-95472000D01*
X131762380Y-101930000D02*
X131762380Y-95470000D01*
X131802380Y-101930000D02*
X131802380Y-95470000D01*
X131842380Y-101930000D02*
X131842380Y-95470000D01*
X135027621Y-100854000D02*
X135027621Y-100224000D01*
X135342621Y-100539000D02*
X134712621Y-100539000D01*
X135112380Y-98700000D02*
G75*
G02*
X128572380Y-98700000I-3270000J0D01*
G01*
X128572380Y-98700000D02*
G75*
G02*
X135112380Y-98700000I3270000J0D01*
G01*
%TO.C,D5*%
X127700000Y-80065000D02*
X127700000Y-82925000D01*
X129620000Y-80065000D02*
X127700000Y-80065000D01*
X129620000Y-82925000D02*
X129620000Y-80065000D01*
%TO.C,R11*%
X128887500Y-85867224D02*
X128887500Y-85357776D01*
X129932500Y-85867224D02*
X129932500Y-85357776D01*
%TD*%
M02*
