%TF.GenerationSoftware,KiCad,Pcbnew,8.0.1*%
%TF.CreationDate,2024-04-19T02:33:02-07:00*%
%TF.ProjectId,CMOD_A7_Upper,434d4f44-5f41-4375-9f55-707065722e6b,rev?*%
%TF.SameCoordinates,Original*%
%TF.FileFunction,Soldermask,Bot*%
%TF.FilePolarity,Negative*%
%FSLAX46Y46*%
G04 Gerber Fmt 4.6, Leading zero omitted, Abs format (unit mm)*
G04 Created by KiCad (PCBNEW 8.0.1) date 2024-04-19 02:33:02*
%MOMM*%
%LPD*%
G01*
G04 APERTURE LIST*
G04 Aperture macros list*
%AMRoundRect*
0 Rectangle with rounded corners*
0 $1 Rounding radius*
0 $2 $3 $4 $5 $6 $7 $8 $9 X,Y pos of 4 corners*
0 Add a 4 corners polygon primitive as box body*
4,1,4,$2,$3,$4,$5,$6,$7,$8,$9,$2,$3,0*
0 Add four circle primitives for the rounded corners*
1,1,$1+$1,$2,$3*
1,1,$1+$1,$4,$5*
1,1,$1+$1,$6,$7*
1,1,$1+$1,$8,$9*
0 Add four rect primitives between the rounded corners*
20,1,$1+$1,$2,$3,$4,$5,0*
20,1,$1+$1,$4,$5,$6,$7,0*
20,1,$1+$1,$6,$7,$8,$9,0*
20,1,$1+$1,$8,$9,$2,$3,0*%
G04 Aperture macros list end*
%ADD10R,1.600000X1.600000*%
%ADD11C,1.600000*%
%ADD12C,1.524000*%
%ADD13RoundRect,0.381000X0.381000X0.381000X-0.381000X0.381000X-0.381000X-0.381000X0.381000X-0.381000X0*%
%ADD14R,1.500000X1.500000*%
%ADD15RoundRect,0.250000X0.725000X-0.600000X0.725000X0.600000X-0.725000X0.600000X-0.725000X-0.600000X0*%
%ADD16O,1.950000X1.700000*%
%ADD17R,1.700000X1.700000*%
%ADD18O,1.700000X1.700000*%
G04 APERTURE END LIST*
D10*
%TO.C,C8*%
X159500000Y-93500000D03*
D11*
X157000000Y-93500000D03*
%TD*%
D12*
%TO.C,U2*%
X147500000Y-115920000D03*
X147500000Y-113380000D03*
X147500000Y-110840000D03*
X147500000Y-108300000D03*
X147500000Y-105760000D03*
X147500000Y-103220000D03*
X147500000Y-100680000D03*
X147500000Y-98140000D03*
X147500000Y-95600000D03*
X147500000Y-93060000D03*
X147500000Y-90520000D03*
X147500000Y-87980000D03*
X147500000Y-85440000D03*
X147500000Y-82900000D03*
X147500000Y-80360000D03*
X147500000Y-77820000D03*
X147500000Y-75280000D03*
X147500000Y-72740000D03*
X147500000Y-70200000D03*
X147500000Y-67660000D03*
X147500000Y-65120000D03*
X147500000Y-62580000D03*
X147500000Y-60040000D03*
X147500000Y-57500000D03*
D13*
X132260000Y-57500000D03*
D12*
X132260000Y-60040000D03*
X132260000Y-62580000D03*
X132260000Y-65120000D03*
X132260000Y-67660000D03*
X132260000Y-70200000D03*
X132260000Y-72740000D03*
X132260000Y-75280000D03*
X132260000Y-77820000D03*
X132260000Y-80360000D03*
X132260000Y-82900000D03*
X132260000Y-85440000D03*
X132260000Y-87980000D03*
X132260000Y-90520000D03*
X132260000Y-93060000D03*
X132260000Y-95600000D03*
X132260000Y-98140000D03*
X132260000Y-100680000D03*
X132260000Y-103220000D03*
X132260000Y-105760000D03*
X132260000Y-108300000D03*
X132260000Y-110840000D03*
X132260000Y-113380000D03*
X132260000Y-115920000D03*
%TD*%
D10*
%TO.C,C3*%
X164500000Y-107000000D03*
D11*
X166500000Y-107000000D03*
%TD*%
D12*
%TO.C,U4*%
X118000000Y-105660000D03*
X118000000Y-110740000D03*
X118000000Y-98040000D03*
X118000000Y-108200000D03*
X118000000Y-113280000D03*
X118000000Y-100580000D03*
X118000000Y-103120000D03*
X118000000Y-95500000D03*
%TD*%
D14*
%TO.C,SW1*%
X157000000Y-107210000D03*
D11*
X159540000Y-107210000D03*
X154460000Y-107210000D03*
%TD*%
D15*
%TO.C,J1*%
X153960000Y-114960000D03*
D16*
X153960000Y-112460000D03*
%TD*%
D17*
%TO.C,J2*%
X141250000Y-101410000D03*
D18*
X138710000Y-101410000D03*
X141250000Y-98870000D03*
X138710000Y-98870000D03*
X141250000Y-96330000D03*
X138710000Y-96330000D03*
X141250000Y-93790000D03*
X138710000Y-93790000D03*
X141250000Y-91250000D03*
X138710000Y-91250000D03*
X141250000Y-88710000D03*
X138710000Y-88710000D03*
X141250000Y-86170000D03*
X138710000Y-86170000D03*
X141250000Y-83630000D03*
X138710000Y-83630000D03*
X141250000Y-81090000D03*
X138710000Y-81090000D03*
X141250000Y-78550000D03*
X138710000Y-78550000D03*
%TD*%
M02*
