%TF.GenerationSoftware,KiCad,Pcbnew,8.0.1*%
%TF.CreationDate,2024-04-19T02:33:02-07:00*%
%TF.ProjectId,CMOD_A7_Upper,434d4f44-5f41-4375-9f55-707065722e6b,rev?*%
%TF.SameCoordinates,Original*%
%TF.FileFunction,Copper,L1,Top*%
%TF.FilePolarity,Positive*%
%FSLAX46Y46*%
G04 Gerber Fmt 4.6, Leading zero omitted, Abs format (unit mm)*
G04 Created by KiCad (PCBNEW 8.0.1) date 2024-04-19 02:33:02*
%MOMM*%
%LPD*%
G01*
G04 APERTURE LIST*
G04 Aperture macros list*
%AMRoundRect*
0 Rectangle with rounded corners*
0 $1 Rounding radius*
0 $2 $3 $4 $5 $6 $7 $8 $9 X,Y pos of 4 corners*
0 Add a 4 corners polygon primitive as box body*
4,1,4,$2,$3,$4,$5,$6,$7,$8,$9,$2,$3,0*
0 Add four circle primitives for the rounded corners*
1,1,$1+$1,$2,$3*
1,1,$1+$1,$4,$5*
1,1,$1+$1,$6,$7*
1,1,$1+$1,$8,$9*
0 Add four rect primitives between the rounded corners*
20,1,$1+$1,$2,$3,$4,$5,0*
20,1,$1+$1,$4,$5,$6,$7,0*
20,1,$1+$1,$6,$7,$8,$9,0*
20,1,$1+$1,$8,$9,$2,$3,0*%
G04 Aperture macros list end*
%TA.AperFunction,SMDPad,CuDef*%
%ADD10RoundRect,0.237500X0.237500X-0.250000X0.237500X0.250000X-0.237500X0.250000X-0.237500X-0.250000X0*%
%TD*%
%TA.AperFunction,SMDPad,CuDef*%
%ADD11RoundRect,0.237500X0.250000X0.237500X-0.250000X0.237500X-0.250000X-0.237500X0.250000X-0.237500X0*%
%TD*%
%TA.AperFunction,SMDPad,CuDef*%
%ADD12RoundRect,0.250000X-0.325000X-0.450000X0.325000X-0.450000X0.325000X0.450000X-0.325000X0.450000X0*%
%TD*%
%TA.AperFunction,SMDPad,CuDef*%
%ADD13RoundRect,0.250000X0.475000X-0.250000X0.475000X0.250000X-0.475000X0.250000X-0.475000X-0.250000X0*%
%TD*%
%TA.AperFunction,SMDPad,CuDef*%
%ADD14RoundRect,0.250000X-0.250000X-0.475000X0.250000X-0.475000X0.250000X0.475000X-0.250000X0.475000X0*%
%TD*%
%TA.AperFunction,SMDPad,CuDef*%
%ADD15RoundRect,0.250000X0.450000X-0.262500X0.450000X0.262500X-0.450000X0.262500X-0.450000X-0.262500X0*%
%TD*%
%TA.AperFunction,SMDPad,CuDef*%
%ADD16RoundRect,0.237500X-0.237500X0.250000X-0.237500X-0.250000X0.237500X-0.250000X0.237500X0.250000X0*%
%TD*%
%TA.AperFunction,SMDPad,CuDef*%
%ADD17R,0.900000X1.700000*%
%TD*%
%TA.AperFunction,ComponentPad*%
%ADD18R,1.600000X1.600000*%
%TD*%
%TA.AperFunction,ComponentPad*%
%ADD19C,1.600000*%
%TD*%
%TA.AperFunction,SMDPad,CuDef*%
%ADD20R,0.610000X1.910000*%
%TD*%
%TA.AperFunction,SMDPad,CuDef*%
%ADD21R,1.550000X1.205000*%
%TD*%
%TA.AperFunction,SMDPad,CuDef*%
%ADD22R,1.500000X2.200000*%
%TD*%
%TA.AperFunction,ComponentPad*%
%ADD23C,1.524000*%
%TD*%
%TA.AperFunction,ComponentPad*%
%ADD24RoundRect,0.381000X0.381000X0.381000X-0.381000X0.381000X-0.381000X-0.381000X0.381000X-0.381000X0*%
%TD*%
%TA.AperFunction,SMDPad,CuDef*%
%ADD25RoundRect,0.250000X0.450000X-0.325000X0.450000X0.325000X-0.450000X0.325000X-0.450000X-0.325000X0*%
%TD*%
%TA.AperFunction,SMDPad,CuDef*%
%ADD26RoundRect,0.375000X-0.625000X-0.375000X0.625000X-0.375000X0.625000X0.375000X-0.625000X0.375000X0*%
%TD*%
%TA.AperFunction,SMDPad,CuDef*%
%ADD27RoundRect,0.500000X-0.500000X-1.400000X0.500000X-1.400000X0.500000X1.400000X-0.500000X1.400000X0*%
%TD*%
%TA.AperFunction,SMDPad,CuDef*%
%ADD28RoundRect,0.250000X0.250000X0.475000X-0.250000X0.475000X-0.250000X-0.475000X0.250000X-0.475000X0*%
%TD*%
%TA.AperFunction,ComponentPad*%
%ADD29R,1.500000X1.500000*%
%TD*%
%TA.AperFunction,SMDPad,CuDef*%
%ADD30RoundRect,0.250000X-0.650000X1.500000X-0.650000X-1.500000X0.650000X-1.500000X0.650000X1.500000X0*%
%TD*%
%TA.AperFunction,ComponentPad*%
%ADD31RoundRect,0.250000X0.725000X-0.600000X0.725000X0.600000X-0.725000X0.600000X-0.725000X-0.600000X0*%
%TD*%
%TA.AperFunction,ComponentPad*%
%ADD32O,1.950000X1.700000*%
%TD*%
%TA.AperFunction,ComponentPad*%
%ADD33R,1.700000X1.700000*%
%TD*%
%TA.AperFunction,ComponentPad*%
%ADD34O,1.700000X1.700000*%
%TD*%
%TA.AperFunction,ViaPad*%
%ADD35C,0.600000*%
%TD*%
%TA.AperFunction,Conductor*%
%ADD36C,0.500000*%
%TD*%
%TA.AperFunction,Conductor*%
%ADD37C,2.000000*%
%TD*%
%TA.AperFunction,Conductor*%
%ADD38C,1.500000*%
%TD*%
%TA.AperFunction,Conductor*%
%ADD39C,1.000000*%
%TD*%
%TA.AperFunction,Conductor*%
%ADD40C,0.200000*%
%TD*%
%TA.AperFunction,Conductor*%
%ADD41C,0.300000*%
%TD*%
G04 APERTURE END LIST*
D10*
%TO.P,R1,1*%
%TO.N,+3.3V*%
X121250000Y-109162500D03*
%TO.P,R1,2*%
%TO.N,/SDA*%
X121250000Y-107337500D03*
%TD*%
D11*
%TO.P,R11,1*%
%TO.N,/LED11*%
X116025000Y-78000000D03*
%TO.P,R11,2*%
%TO.N,Net-(D5-A)*%
X114200000Y-78000000D03*
%TD*%
D12*
%TO.P,D4,1,K*%
%TO.N,GND*%
X110200000Y-82000000D03*
%TO.P,D4,2,A*%
%TO.N,Net-(D4-A)*%
X112250000Y-82000000D03*
%TD*%
D13*
%TO.P,C9,1*%
%TO.N,+3.3V*%
X156500000Y-76450000D03*
%TO.P,C9,2*%
%TO.N,GND*%
X156500000Y-74550000D03*
%TD*%
D14*
%TO.P,C7,1*%
%TO.N,Net-(U1-BOOT)*%
X168800000Y-94500000D03*
%TO.P,C7,2*%
%TO.N,Net-(D1-K)*%
X170700000Y-94500000D03*
%TD*%
D15*
%TO.P,R2,1*%
%TO.N,/12V_5V*%
X159750000Y-104662500D03*
%TO.P,R2,2*%
%TO.N,Net-(U1-EN)*%
X159750000Y-102837500D03*
%TD*%
D11*
%TO.P,R9,1*%
%TO.N,/LED01*%
X116250000Y-86000000D03*
%TO.P,R9,2*%
%TO.N,Net-(D3-A)*%
X114425000Y-86000000D03*
%TD*%
D10*
%TO.P,R16,1*%
%TO.N,/BTN10*%
X128000000Y-80412500D03*
%TO.P,R16,2*%
%TO.N,GND*%
X128000000Y-78587500D03*
%TD*%
D16*
%TO.P,R13,1*%
%TO.N,+3.3V*%
X168250000Y-76587500D03*
%TO.P,R13,2*%
%TO.N,Net-(D6-A)*%
X168250000Y-78412500D03*
%TD*%
D10*
%TO.P,R18,1*%
%TO.N,/BTN11*%
X128000000Y-75162500D03*
%TO.P,R18,2*%
%TO.N,GND*%
X128000000Y-73337500D03*
%TD*%
D17*
%TO.P,SW7,1,1*%
%TO.N,/BTN11*%
X124950000Y-75250000D03*
%TO.P,SW7,2,2*%
%TO.N,+3.3V*%
X121550000Y-75250000D03*
%TD*%
D12*
%TO.P,D3,1,K*%
%TO.N,GND*%
X110200000Y-86000000D03*
%TO.P,D3,2,A*%
%TO.N,Net-(D3-A)*%
X112250000Y-86000000D03*
%TD*%
D17*
%TO.P,SW4,1,1*%
%TO.N,/BTN00*%
X124950000Y-90250000D03*
%TO.P,SW4,2,2*%
%TO.N,+3.3V*%
X121550000Y-90250000D03*
%TD*%
D10*
%TO.P,R17,1*%
%TO.N,/BTN01*%
X128000000Y-85412500D03*
%TO.P,R17,2*%
%TO.N,GND*%
X128000000Y-83587500D03*
%TD*%
D18*
%TO.P,C8,1*%
%TO.N,+5V*%
X159500000Y-93500000D03*
D19*
%TO.P,C8,2*%
%TO.N,GND*%
X157000000Y-93500000D03*
%TD*%
D20*
%TO.P,U1,1,BOOT*%
%TO.N,Net-(U1-BOOT)*%
X167060000Y-95327500D03*
%TO.P,U1,2,NC*%
%TO.N,unconnected-(U1-NC-Pad2)*%
X165790000Y-95327500D03*
%TO.P,U1,3,NC*%
%TO.N,unconnected-(U1-NC-Pad3)*%
X164520000Y-95327500D03*
%TO.P,U1,4,FB*%
%TO.N,+5V*%
X163250000Y-95327500D03*
%TO.P,U1,5,EN*%
%TO.N,Net-(U1-EN)*%
X163250000Y-100887500D03*
%TO.P,U1,6,GND*%
%TO.N,GND*%
X164520000Y-100887500D03*
%TO.P,U1,7,VIN*%
%TO.N,/12V_5V*%
X165790000Y-100887500D03*
%TO.P,U1,8,SW*%
%TO.N,Net-(D1-K)*%
X167060000Y-100887500D03*
D21*
%TO.P,U1,9,EP*%
%TO.N,GND*%
X165930000Y-97505000D03*
X164380000Y-97505000D03*
X165930000Y-98710000D03*
X164380000Y-98710000D03*
%TD*%
D22*
%TO.P,L1,1,1*%
%TO.N,Net-(D1-K)*%
X169200000Y-89250000D03*
%TO.P,L1,2,2*%
%TO.N,+5V*%
X162800000Y-89250000D03*
%TD*%
D23*
%TO.P,U2,1,D1*%
%TO.N,/FPGA5*%
X147500000Y-115920000D03*
%TO.P,U2,2,D2*%
%TO.N,/FPGA4*%
X147500000Y-113380000D03*
%TO.P,U2,3,D3*%
%TO.N,/FPGA3*%
X147500000Y-110840000D03*
%TO.P,U2,4,D4*%
%TO.N,/FPGA2*%
X147500000Y-108300000D03*
%TO.P,U2,5,D5*%
%TO.N,/FPGA1*%
X147500000Y-105760000D03*
%TO.P,U2,6,D6*%
%TO.N,/FPGA0*%
X147500000Y-103220000D03*
%TO.P,U2,7,D7*%
%TO.N,unconnected-(U2-D7-Pad7)*%
X147500000Y-100680000D03*
%TO.P,U2,8,D8*%
%TO.N,unconnected-(U2-D8-Pad8)*%
X147500000Y-98140000D03*
%TO.P,U2,9,D9*%
%TO.N,unconnected-(U2-D9-Pad9)*%
X147500000Y-95600000D03*
%TO.P,U2,10,D10*%
%TO.N,unconnected-(U2-D10-Pad10)*%
X147500000Y-93060000D03*
%TO.P,U2,11,D11*%
%TO.N,unconnected-(U2-D11-Pad11)*%
X147500000Y-90520000D03*
%TO.P,U2,12,D12*%
%TO.N,unconnected-(U2-D12-Pad12)*%
X147500000Y-87980000D03*
%TO.P,U2,13,D13*%
%TO.N,unconnected-(U2-D13-Pad13)*%
X147500000Y-85440000D03*
%TO.P,U2,14,D14*%
%TO.N,unconnected-(U2-D14-Pad14)*%
X147500000Y-82900000D03*
%TO.P,U2,15,A1*%
%TO.N,unconnected-(U2-A1-Pad15)*%
X147500000Y-80360000D03*
%TO.P,U2,16,A2*%
%TO.N,unconnected-(U2-A2-Pad16)*%
X147500000Y-77820000D03*
%TO.P,U2,17,D17*%
%TO.N,unconnected-(U2-D17-Pad17)*%
X147500000Y-75280000D03*
%TO.P,U2,18,D18*%
%TO.N,unconnected-(U2-D18-Pad18)*%
X147500000Y-72740000D03*
%TO.P,U2,19,D19*%
%TO.N,unconnected-(U2-D19-Pad19)*%
X147500000Y-70200000D03*
%TO.P,U2,20,D20*%
%TO.N,unconnected-(U2-D20-Pad20)*%
X147500000Y-67660000D03*
%TO.P,U2,21,D21*%
%TO.N,unconnected-(U2-D21-Pad21)*%
X147500000Y-65120000D03*
%TO.P,U2,22,D22*%
%TO.N,unconnected-(U2-D22-Pad22)*%
X147500000Y-62580000D03*
%TO.P,U2,23,D23*%
%TO.N,unconnected-(U2-D23-Pad23)*%
X147500000Y-60040000D03*
%TO.P,U2,24,VIN*%
%TO.N,+3.3V*%
X147500000Y-57500000D03*
D24*
%TO.P,U2,25,GND*%
%TO.N,GND*%
X132260000Y-57500000D03*
D23*
%TO.P,U2,26,D26*%
%TO.N,unconnected-(U2-D26-Pad26)*%
X132260000Y-60040000D03*
%TO.P,U2,27,D27*%
%TO.N,unconnected-(U2-D27-Pad27)*%
X132260000Y-62580000D03*
%TO.P,U2,28,D28*%
%TO.N,unconnected-(U2-D28-Pad28)*%
X132260000Y-65120000D03*
%TO.P,U2,29,D29*%
%TO.N,unconnected-(U2-D29-Pad29)*%
X132260000Y-67660000D03*
%TO.P,U2,30,D30*%
%TO.N,unconnected-(U2-D30-Pad30)*%
X132260000Y-70200000D03*
%TO.P,U2,31,D31*%
%TO.N,unconnected-(U2-D31-Pad31)*%
X132260000Y-72740000D03*
%TO.P,U2,32,D32*%
%TO.N,unconnected-(U2-D32-Pad32)*%
X132260000Y-75280000D03*
%TO.P,U2,33,D33*%
%TO.N,unconnected-(U2-D33-Pad33)*%
X132260000Y-77820000D03*
%TO.P,U2,34,D34*%
%TO.N,unconnected-(U2-D34-Pad34)*%
X132260000Y-80360000D03*
%TO.P,U2,35,D35*%
%TO.N,/LED11*%
X132260000Y-82900000D03*
%TO.P,U2,36,D36*%
%TO.N,/LED10*%
X132260000Y-85440000D03*
%TO.P,U2,37,D37*%
%TO.N,/LED01*%
X132260000Y-87980000D03*
%TO.P,U2,38,D38*%
%TO.N,/LED00*%
X132260000Y-90520000D03*
%TO.P,U2,39,D39*%
%TO.N,/BTN11*%
X132260000Y-93060000D03*
%TO.P,U2,40,D40*%
%TO.N,/BTN10*%
X132260000Y-95600000D03*
%TO.P,U2,41,D41*%
%TO.N,/BTN01*%
X132260000Y-98140000D03*
%TO.P,U2,42,D42*%
%TO.N,/BTN00*%
X132260000Y-100680000D03*
%TO.P,U2,43,D43*%
%TO.N,/SCL*%
X132260000Y-103220000D03*
%TO.P,U2,44,D44*%
%TO.N,/SDA*%
X132260000Y-105760000D03*
%TO.P,U2,45,D45*%
%TO.N,/FPGA6*%
X132260000Y-108300000D03*
%TO.P,U2,46,D46*%
%TO.N,/FPGA7*%
X132260000Y-110840000D03*
%TO.P,U2,47,D47*%
%TO.N,/FPGA8*%
X132260000Y-113380000D03*
%TO.P,U2,48,D48*%
%TO.N,/FPGA9*%
X132260000Y-115920000D03*
%TD*%
D15*
%TO.P,R3,1*%
%TO.N,Net-(U1-EN)*%
X159750000Y-100500000D03*
%TO.P,R3,2*%
%TO.N,GND*%
X159750000Y-98675000D03*
%TD*%
D25*
%TO.P,D6,1,K*%
%TO.N,GND*%
X168250000Y-82775000D03*
%TO.P,D6,2,A*%
%TO.N,Net-(D6-A)*%
X168250000Y-80725000D03*
%TD*%
D26*
%TO.P,U3,1,GND*%
%TO.N,GND*%
X159060000Y-74410000D03*
%TO.P,U3,2,VO*%
%TO.N,+3.3V*%
X159060000Y-76710000D03*
D27*
X165360000Y-76710000D03*
D26*
%TO.P,U3,3,VI*%
%TO.N,+5V*%
X159060000Y-79010000D03*
%TD*%
D12*
%TO.P,D2,1,K*%
%TO.N,GND*%
X110200000Y-90000000D03*
%TO.P,D2,2,A*%
%TO.N,Net-(D2-A)*%
X112250000Y-90000000D03*
%TD*%
D10*
%TO.P,R4,1*%
%TO.N,+3.3V*%
X124250000Y-109162500D03*
%TO.P,R4,2*%
%TO.N,/SCL*%
X124250000Y-107337500D03*
%TD*%
D12*
%TO.P,D5,1,K*%
%TO.N,GND*%
X109975000Y-78000000D03*
%TO.P,D5,2,A*%
%TO.N,Net-(D5-A)*%
X112025000Y-78000000D03*
%TD*%
D28*
%TO.P,C5,1*%
%TO.N,/12V_5V*%
X165400000Y-103250000D03*
%TO.P,C5,2*%
%TO.N,GND*%
X163500000Y-103250000D03*
%TD*%
D18*
%TO.P,C3,1*%
%TO.N,/12V_5V*%
X164500000Y-107000000D03*
D19*
%TO.P,C3,2*%
%TO.N,GND*%
X166500000Y-107000000D03*
%TD*%
D23*
%TO.P,U4,ADC,ADC*%
%TO.N,unconnected-(U4-PadADC)*%
X118000000Y-105660000D03*
%TO.P,U4,BOOT,BOOT*%
%TO.N,unconnected-(U4-PadBOOT)*%
X118000000Y-110740000D03*
%TO.P,U4,GND,GND*%
%TO.N,GND*%
X118000000Y-98040000D03*
%TO.P,U4,INT,INT*%
%TO.N,unconnected-(U4-PadINT)*%
X118000000Y-108200000D03*
%TO.P,U4,RST,RST*%
%TO.N,unconnected-(U4-PadRST)*%
X118000000Y-113280000D03*
%TO.P,U4,SCL,SCL*%
%TO.N,/SCL*%
X118000000Y-100580000D03*
%TO.P,U4,SDA,SDA*%
%TO.N,/SDA*%
X118000000Y-103120000D03*
%TO.P,U4,VIN,VIN*%
%TO.N,+3.3V*%
X118000000Y-95500000D03*
%TD*%
D29*
%TO.P,SW1,1,A*%
%TO.N,+12V*%
X157000000Y-107210000D03*
D19*
%TO.P,SW1,2,B*%
%TO.N,/12V_5V*%
X159540000Y-107210000D03*
%TO.P,SW1,3,C*%
%TO.N,GND*%
X154460000Y-107210000D03*
%TD*%
D17*
%TO.P,SW5,1,1*%
%TO.N,/BTN10*%
X124950000Y-80250000D03*
%TO.P,SW5,2,2*%
%TO.N,+3.3V*%
X121550000Y-80250000D03*
%TD*%
D30*
%TO.P,D1,1,K*%
%TO.N,Net-(D1-K)*%
X170500000Y-97750000D03*
%TO.P,D1,2,A*%
%TO.N,GND*%
X170500000Y-102750000D03*
%TD*%
D11*
%TO.P,R8,1*%
%TO.N,/LED00*%
X116250000Y-90000000D03*
%TO.P,R8,2*%
%TO.N,Net-(D2-A)*%
X114425000Y-90000000D03*
%TD*%
%TO.P,R10,1*%
%TO.N,/LED10*%
X116250000Y-82000000D03*
%TO.P,R10,2*%
%TO.N,Net-(D4-A)*%
X114425000Y-82000000D03*
%TD*%
D17*
%TO.P,SW6,1,1*%
%TO.N,/BTN01*%
X124950000Y-85250000D03*
%TO.P,SW6,2,2*%
%TO.N,+3.3V*%
X121550000Y-85250000D03*
%TD*%
D10*
%TO.P,R15,1*%
%TO.N,/BTN00*%
X128000000Y-90162500D03*
%TO.P,R15,2*%
%TO.N,GND*%
X128000000Y-88337500D03*
%TD*%
D31*
%TO.P,J1,1,Pin_1*%
%TO.N,GND*%
X153960000Y-114960000D03*
D32*
%TO.P,J1,2,Pin_2*%
%TO.N,+12V*%
X153960000Y-112460000D03*
%TD*%
D28*
%TO.P,C6,1*%
%TO.N,+5V*%
X163110000Y-81710000D03*
%TO.P,C6,2*%
%TO.N,GND*%
X161210000Y-81710000D03*
%TD*%
D33*
%TO.P,J2,1,Pin_1*%
%TO.N,+12V*%
X141250000Y-101410000D03*
D34*
%TO.P,J2,2,Pin_2*%
%TO.N,+3.3V*%
X138710000Y-101410000D03*
%TO.P,J2,3,Pin_3*%
%TO.N,+12V*%
X141250000Y-98870000D03*
%TO.P,J2,4,Pin_4*%
%TO.N,+3.3V*%
X138710000Y-98870000D03*
%TO.P,J2,5,Pin_5*%
%TO.N,/FPGA5*%
X141250000Y-96330000D03*
%TO.P,J2,6,Pin_6*%
%TO.N,/SDA*%
X138710000Y-96330000D03*
%TO.P,J2,7,Pin_7*%
%TO.N,/FPGA4*%
X141250000Y-93790000D03*
%TO.P,J2,8,Pin_8*%
%TO.N,/SCL*%
X138710000Y-93790000D03*
%TO.P,J2,9,Pin_9*%
%TO.N,/FPGA3*%
X141250000Y-91250000D03*
%TO.P,J2,10,Pin_10*%
%TO.N,/FPGA9*%
X138710000Y-91250000D03*
%TO.P,J2,11,Pin_11*%
%TO.N,/FPGA2*%
X141250000Y-88710000D03*
%TO.P,J2,12,Pin_12*%
%TO.N,/FPGA8*%
X138710000Y-88710000D03*
%TO.P,J2,13,Pin_13*%
%TO.N,/FPGA1*%
X141250000Y-86170000D03*
%TO.P,J2,14,Pin_14*%
%TO.N,/FPGA7*%
X138710000Y-86170000D03*
%TO.P,J2,15,Pin_15*%
%TO.N,/FPGA0*%
X141250000Y-83630000D03*
%TO.P,J2,16,Pin_16*%
%TO.N,/FPGA6*%
X138710000Y-83630000D03*
%TO.P,J2,17,Pin_17*%
%TO.N,GND*%
X141250000Y-81090000D03*
%TO.P,J2,18,Pin_18*%
X138710000Y-81090000D03*
%TO.P,J2,19,Pin_19*%
X141250000Y-78550000D03*
%TO.P,J2,20,Pin_20*%
X138710000Y-78550000D03*
%TD*%
D35*
%TO.N,GND*%
X159250000Y-83250000D03*
X162000000Y-104500000D03*
X172750000Y-97750000D03*
X117500000Y-79750000D03*
X165500000Y-82250000D03*
X126500000Y-82000000D03*
X135000000Y-59000000D03*
X144250000Y-67500000D03*
X156250000Y-98500000D03*
X126500000Y-86750000D03*
X126750000Y-77000000D03*
X161750000Y-98000000D03*
X168250000Y-104500000D03*
X161000000Y-111000000D03*
X165000000Y-71500000D03*
X126500000Y-88750000D03*
X117500000Y-88250000D03*
X150750000Y-108500000D03*
X171250000Y-82500000D03*
X172500000Y-90750000D03*
X117500000Y-83750000D03*
%TO.N,+3.3V*%
X121250000Y-110750000D03*
X124250000Y-110750000D03*
%TO.N,/FPGA6*%
X134000000Y-100000000D03*
%TO.N,/FPGA8*%
X135750000Y-100500000D03*
%TO.N,/SCL*%
X122500000Y-104500000D03*
X123000000Y-106750000D03*
%TO.N,/FPGA9*%
X136350000Y-101500000D03*
%TO.N,/FPGA7*%
X135250000Y-99500000D03*
%TO.N,/LED00*%
X117975000Y-90000000D03*
%TO.N,/LED01*%
X117975000Y-86000000D03*
%TO.N,/LED10*%
X118000000Y-82000000D03*
%TO.N,/LED11*%
X118000000Y-78000000D03*
%TD*%
D36*
%TO.N,GND*%
X163500000Y-102557500D02*
X163500000Y-103250000D01*
X164520000Y-98850000D02*
X164380000Y-98710000D01*
X164520000Y-101537500D02*
X163500000Y-102557500D01*
X164520000Y-100887500D02*
X164520000Y-101537500D01*
X164520000Y-100887500D02*
X164520000Y-98850000D01*
D37*
%TO.N,/12V_5V*%
X159540000Y-107210000D02*
X164290000Y-107210000D01*
X164500000Y-106000000D02*
X165400000Y-105100000D01*
X164290000Y-107210000D02*
X164500000Y-107000000D01*
D38*
X165790000Y-102860000D02*
X165400000Y-103250000D01*
D37*
X165400000Y-105100000D02*
X165400000Y-103250000D01*
X164500000Y-107000000D02*
X164500000Y-106000000D01*
X159540000Y-104872500D02*
X159750000Y-104662500D01*
X159540000Y-107210000D02*
X159540000Y-104872500D01*
D38*
X165790000Y-100887500D02*
X165790000Y-102860000D01*
%TO.N,+5V*%
X162800000Y-89250000D02*
X162800000Y-82020000D01*
X163110000Y-81710000D02*
X163110000Y-81110000D01*
X161327500Y-95327500D02*
X159500000Y-93500000D01*
X159500000Y-93500000D02*
X159500000Y-92550000D01*
X163250000Y-95327500D02*
X161327500Y-95327500D01*
X161010000Y-79010000D02*
X159060000Y-79010000D01*
X159500000Y-92550000D02*
X162800000Y-89250000D01*
X162800000Y-82020000D02*
X163110000Y-81710000D01*
X163110000Y-81110000D02*
X161010000Y-79010000D01*
D39*
%TO.N,Net-(D1-K)*%
X170700000Y-94500000D02*
X170700000Y-90750000D01*
X170500000Y-97750000D02*
X170500000Y-94700000D01*
X170700000Y-90750000D02*
X169200000Y-89250000D01*
X170500000Y-94700000D02*
X170700000Y-94500000D01*
D36*
X167362500Y-100887500D02*
X170500000Y-97750000D01*
X167060000Y-100887500D02*
X167362500Y-100887500D01*
D39*
%TO.N,Net-(U1-BOOT)*%
X167972500Y-95327500D02*
X168800000Y-94500000D01*
X167060000Y-95327500D02*
X167972500Y-95327500D01*
D38*
%TO.N,+3.3V*%
X156500000Y-76450000D02*
X155775000Y-76450000D01*
X149000000Y-57500000D02*
X147500000Y-57500000D01*
D39*
X121550000Y-85250000D02*
X121550000Y-90250000D01*
D38*
X151000000Y-59500000D02*
X149000000Y-57500000D01*
D40*
X121250000Y-109162500D02*
X121250000Y-110750000D01*
D39*
X121550000Y-75250000D02*
X121550000Y-80250000D01*
X121550000Y-91950000D02*
X118000000Y-95500000D01*
D38*
X155775000Y-76450000D02*
X151000000Y-71675000D01*
X159060000Y-76710000D02*
X165360000Y-76710000D01*
D40*
X124250000Y-109162500D02*
X124250000Y-110750000D01*
D39*
X121550000Y-90250000D02*
X121550000Y-91950000D01*
D38*
X151000000Y-71675000D02*
X151000000Y-59500000D01*
X156760000Y-76710000D02*
X156500000Y-76450000D01*
X165360000Y-76710000D02*
X168002500Y-76710000D01*
X159060000Y-76710000D02*
X156760000Y-76710000D01*
X168002500Y-76710000D02*
X168250000Y-76462500D01*
D39*
X121550000Y-80250000D02*
X121550000Y-85250000D01*
D41*
%TO.N,Net-(D2-A)*%
X112250000Y-90000000D02*
X114425000Y-90000000D01*
%TO.N,Net-(D3-A)*%
X112250000Y-86000000D02*
X114425000Y-86000000D01*
%TO.N,Net-(D4-A)*%
X112250000Y-82000000D02*
X114425000Y-82000000D01*
%TO.N,Net-(D5-A)*%
X112025000Y-78000000D02*
X114200000Y-78000000D01*
%TO.N,Net-(D6-A)*%
X168250000Y-78537500D02*
X168250000Y-80725000D01*
D37*
%TO.N,+12V*%
X157000000Y-109420000D02*
X157000000Y-107210000D01*
X153960000Y-112460000D02*
X157000000Y-109420000D01*
D41*
%TO.N,/FPGA6*%
X138710000Y-83630000D02*
X135000000Y-87340000D01*
X135000000Y-87340000D02*
X135000000Y-97000000D01*
X135000000Y-97000000D02*
X135000000Y-98500000D01*
X135000000Y-98500000D02*
X134000000Y-99500000D01*
X134000000Y-99500000D02*
X134000000Y-100000000D01*
%TO.N,/SDA*%
X137500000Y-102250000D02*
X133990000Y-105760000D01*
X132260000Y-105760000D02*
X120640000Y-105760000D01*
X121250000Y-106370000D02*
X121250000Y-107337500D01*
X133990000Y-105760000D02*
X132260000Y-105760000D01*
X120640000Y-105760000D02*
X118000000Y-103120000D01*
X138710000Y-96330000D02*
X137500000Y-97540000D01*
X120640000Y-105760000D02*
X121250000Y-106370000D01*
X137500000Y-97540000D02*
X137500000Y-102250000D01*
%TO.N,/FPGA8*%
X136000000Y-100250000D02*
X136000000Y-91420000D01*
X135750000Y-100500000D02*
X136000000Y-100250000D01*
X136000000Y-91420000D02*
X138710000Y-88710000D01*
D40*
%TO.N,/SCL*%
X123587500Y-107337500D02*
X123000000Y-106750000D01*
D41*
X137000000Y-102000000D02*
X135780000Y-103220000D01*
X120640000Y-103220000D02*
X121220000Y-103220000D01*
X135780000Y-103220000D02*
X132260000Y-103220000D01*
D40*
X124250000Y-107337500D02*
X123587500Y-107337500D01*
D41*
X132260000Y-103220000D02*
X120640000Y-103220000D01*
X138710000Y-93790000D02*
X137000000Y-95500000D01*
X120640000Y-103220000D02*
X118000000Y-100580000D01*
X121220000Y-103220000D02*
X122500000Y-104500000D01*
X137000000Y-95500000D02*
X137000000Y-102000000D01*
%TO.N,/FPGA9*%
X136500000Y-101350000D02*
X136500000Y-93460000D01*
X136500000Y-93460000D02*
X138710000Y-91250000D01*
X136350000Y-101500000D02*
X136500000Y-101350000D01*
%TO.N,/FPGA7*%
X135500000Y-89380000D02*
X138710000Y-86170000D01*
X135500000Y-99250000D02*
X135500000Y-89380000D01*
X135250000Y-99500000D02*
X135500000Y-99250000D01*
%TO.N,Net-(U1-EN)*%
X160137500Y-100887500D02*
X159750000Y-100500000D01*
X163250000Y-100887500D02*
X160137500Y-100887500D01*
X159750000Y-100500000D02*
X159750000Y-102837500D01*
%TO.N,/LED00*%
X116250000Y-90000000D02*
X117975000Y-90000000D01*
%TO.N,/LED01*%
X116250000Y-86000000D02*
X117975000Y-86000000D01*
%TO.N,/LED10*%
X116250000Y-82000000D02*
X118000000Y-82000000D01*
%TO.N,/LED11*%
X116025000Y-78000000D02*
X118000000Y-78000000D01*
%TO.N,/BTN00*%
X129000000Y-91162500D02*
X129000000Y-97420000D01*
X127912500Y-90250000D02*
X128000000Y-90162500D01*
X128000000Y-90162500D02*
X129000000Y-91162500D01*
X124950000Y-90250000D02*
X127912500Y-90250000D01*
X129000000Y-97420000D02*
X132260000Y-100680000D01*
%TO.N,/BTN10*%
X124950000Y-80250000D02*
X127837500Y-80250000D01*
X130000000Y-93340000D02*
X132260000Y-95600000D01*
X128000000Y-80412500D02*
X130000000Y-82412500D01*
X130000000Y-82412500D02*
X130000000Y-93340000D01*
X127837500Y-80250000D02*
X128000000Y-80412500D01*
%TO.N,/BTN01*%
X129500000Y-95380000D02*
X132260000Y-98140000D01*
X127837500Y-85250000D02*
X128000000Y-85412500D01*
X129500000Y-86912500D02*
X129500000Y-95380000D01*
X128000000Y-85412500D02*
X129500000Y-86912500D01*
X124950000Y-85250000D02*
X127837500Y-85250000D01*
%TO.N,/BTN11*%
X127912500Y-75250000D02*
X128000000Y-75162500D01*
X130500000Y-91300000D02*
X132260000Y-93060000D01*
X124950000Y-75250000D02*
X127912500Y-75250000D01*
X128000000Y-75162500D02*
X130500000Y-77662500D01*
X130500000Y-77662500D02*
X130500000Y-91300000D01*
%TD*%
%TA.AperFunction,Conductor*%
%TO.N,GND*%
G36*
X131089315Y-56480185D02*
G01*
X131135070Y-56532989D01*
X131145014Y-56602147D01*
X131133364Y-56639595D01*
X131047165Y-56813397D01*
X131000918Y-56999359D01*
X130998000Y-57042395D01*
X130998000Y-57250000D01*
X131971184Y-57250000D01*
X131955124Y-57266060D01*
X131904964Y-57352939D01*
X131879000Y-57449840D01*
X131879000Y-57550160D01*
X131904964Y-57647061D01*
X131955124Y-57733940D01*
X131971184Y-57750000D01*
X130998001Y-57750000D01*
X130998001Y-57957609D01*
X131000917Y-58000632D01*
X131000917Y-58000634D01*
X131047165Y-58186602D01*
X131132307Y-58358275D01*
X131252365Y-58507633D01*
X131252366Y-58507634D01*
X131401725Y-58627692D01*
X131401724Y-58627692D01*
X131573398Y-58712834D01*
X131590293Y-58717036D01*
X131650601Y-58752317D01*
X131682261Y-58814602D01*
X131675221Y-58884116D01*
X131631716Y-58938789D01*
X131630286Y-58939702D01*
X131445377Y-59069175D01*
X131289175Y-59225377D01*
X131162466Y-59406338D01*
X131162465Y-59406340D01*
X131069107Y-59606548D01*
X131069104Y-59606554D01*
X131011930Y-59819929D01*
X131011929Y-59819937D01*
X130992677Y-60039997D01*
X130992677Y-60040002D01*
X131011929Y-60260062D01*
X131011930Y-60260070D01*
X131069104Y-60473445D01*
X131069105Y-60473447D01*
X131069106Y-60473450D01*
X131162466Y-60673662D01*
X131162468Y-60673666D01*
X131289170Y-60854615D01*
X131289175Y-60854621D01*
X131445378Y-61010824D01*
X131445384Y-61010829D01*
X131626333Y-61137531D01*
X131626335Y-61137532D01*
X131626338Y-61137534D01*
X131745748Y-61193215D01*
X131755189Y-61197618D01*
X131807628Y-61243790D01*
X131826780Y-61310984D01*
X131806564Y-61377865D01*
X131755189Y-61422382D01*
X131626340Y-61482465D01*
X131626338Y-61482466D01*
X131445377Y-61609175D01*
X131289175Y-61765377D01*
X131162466Y-61946338D01*
X131162465Y-61946340D01*
X131069107Y-62146548D01*
X131069104Y-62146554D01*
X131011930Y-62359929D01*
X131011929Y-62359937D01*
X130992677Y-62579997D01*
X130992677Y-62580002D01*
X131011929Y-62800062D01*
X131011930Y-62800070D01*
X131069104Y-63013445D01*
X131069105Y-63013447D01*
X131069106Y-63013450D01*
X131162466Y-63213662D01*
X131162468Y-63213666D01*
X131289170Y-63394615D01*
X131289175Y-63394621D01*
X131445378Y-63550824D01*
X131445384Y-63550829D01*
X131626333Y-63677531D01*
X131626335Y-63677532D01*
X131626338Y-63677534D01*
X131745748Y-63733215D01*
X131755189Y-63737618D01*
X131807628Y-63783790D01*
X131826780Y-63850984D01*
X131806564Y-63917865D01*
X131755189Y-63962382D01*
X131626340Y-64022465D01*
X131626338Y-64022466D01*
X131445377Y-64149175D01*
X131289175Y-64305377D01*
X131162466Y-64486338D01*
X131162465Y-64486340D01*
X131069107Y-64686548D01*
X131069104Y-64686554D01*
X131011930Y-64899929D01*
X131011929Y-64899937D01*
X130992677Y-65119997D01*
X130992677Y-65120002D01*
X131011929Y-65340062D01*
X131011930Y-65340070D01*
X131069104Y-65553445D01*
X131069105Y-65553447D01*
X131069106Y-65553450D01*
X131162466Y-65753662D01*
X131162468Y-65753666D01*
X131289170Y-65934615D01*
X131289175Y-65934621D01*
X131445378Y-66090824D01*
X131445384Y-66090829D01*
X131626333Y-66217531D01*
X131626335Y-66217532D01*
X131626338Y-66217534D01*
X131745748Y-66273215D01*
X131755189Y-66277618D01*
X131807628Y-66323790D01*
X131826780Y-66390984D01*
X131806564Y-66457865D01*
X131755189Y-66502382D01*
X131626340Y-66562465D01*
X131626338Y-66562466D01*
X131445377Y-66689175D01*
X131289175Y-66845377D01*
X131162466Y-67026338D01*
X131162465Y-67026340D01*
X131069107Y-67226548D01*
X131069104Y-67226554D01*
X131011930Y-67439929D01*
X131011929Y-67439937D01*
X130992677Y-67659997D01*
X130992677Y-67660002D01*
X131011929Y-67880062D01*
X131011930Y-67880070D01*
X131069104Y-68093445D01*
X131069105Y-68093447D01*
X131069106Y-68093450D01*
X131162466Y-68293662D01*
X131162468Y-68293666D01*
X131289170Y-68474615D01*
X131289175Y-68474621D01*
X131445378Y-68630824D01*
X131445384Y-68630829D01*
X131626333Y-68757531D01*
X131626335Y-68757532D01*
X131626338Y-68757534D01*
X131745748Y-68813215D01*
X131755189Y-68817618D01*
X131807628Y-68863790D01*
X131826780Y-68930984D01*
X131806564Y-68997865D01*
X131755189Y-69042382D01*
X131626340Y-69102465D01*
X131626338Y-69102466D01*
X131445377Y-69229175D01*
X131289175Y-69385377D01*
X131162466Y-69566338D01*
X131162465Y-69566340D01*
X131069107Y-69766548D01*
X131069104Y-69766554D01*
X131011930Y-69979929D01*
X131011929Y-69979937D01*
X130992677Y-70199997D01*
X130992677Y-70200002D01*
X131011929Y-70420062D01*
X131011930Y-70420070D01*
X131069104Y-70633445D01*
X131069105Y-70633447D01*
X131069106Y-70633450D01*
X131162466Y-70833662D01*
X131162468Y-70833666D01*
X131289170Y-71014615D01*
X131289175Y-71014621D01*
X131445378Y-71170824D01*
X131445384Y-71170829D01*
X131626333Y-71297531D01*
X131626335Y-71297532D01*
X131626338Y-71297534D01*
X131745748Y-71353215D01*
X131755189Y-71357618D01*
X131807628Y-71403790D01*
X131826780Y-71470984D01*
X131806564Y-71537865D01*
X131755189Y-71582382D01*
X131626340Y-71642465D01*
X131626338Y-71642466D01*
X131445377Y-71769175D01*
X131289175Y-71925377D01*
X131162466Y-72106338D01*
X131162465Y-72106340D01*
X131069107Y-72306548D01*
X131069104Y-72306554D01*
X131011930Y-72519929D01*
X131011929Y-72519937D01*
X130992677Y-72739997D01*
X130992677Y-72740002D01*
X131011929Y-72960062D01*
X131011930Y-72960070D01*
X131069104Y-73173445D01*
X131069105Y-73173447D01*
X131069106Y-73173450D01*
X131125035Y-73293390D01*
X131162466Y-73373662D01*
X131162468Y-73373666D01*
X131289170Y-73554615D01*
X131289175Y-73554621D01*
X131445378Y-73710824D01*
X131445384Y-73710829D01*
X131626333Y-73837531D01*
X131626335Y-73837532D01*
X131626338Y-73837534D01*
X131745748Y-73893215D01*
X131755189Y-73897618D01*
X131807628Y-73943790D01*
X131826780Y-74010984D01*
X131806564Y-74077865D01*
X131755189Y-74122382D01*
X131626340Y-74182465D01*
X131626338Y-74182466D01*
X131445377Y-74309175D01*
X131289175Y-74465377D01*
X131162466Y-74646338D01*
X131162465Y-74646340D01*
X131069107Y-74846548D01*
X131069104Y-74846554D01*
X131011930Y-75059929D01*
X131011929Y-75059937D01*
X130992677Y-75279997D01*
X130992677Y-75280002D01*
X131011929Y-75500062D01*
X131011930Y-75500070D01*
X131069104Y-75713445D01*
X131069105Y-75713447D01*
X131069106Y-75713450D01*
X131161554Y-75911706D01*
X131162466Y-75913662D01*
X131162468Y-75913666D01*
X131289170Y-76094615D01*
X131289175Y-76094621D01*
X131445378Y-76250824D01*
X131445384Y-76250829D01*
X131626333Y-76377531D01*
X131626335Y-76377532D01*
X131626338Y-76377534D01*
X131745748Y-76433215D01*
X131755189Y-76437618D01*
X131807628Y-76483790D01*
X131826780Y-76550984D01*
X131806564Y-76617865D01*
X131755189Y-76662382D01*
X131626340Y-76722465D01*
X131626338Y-76722466D01*
X131445377Y-76849175D01*
X131289175Y-77005377D01*
X131159361Y-77190774D01*
X131158117Y-77189903D01*
X131112635Y-77233254D01*
X131044025Y-77246463D01*
X130979166Y-77220483D01*
X130968155Y-77210708D01*
X129011818Y-75254371D01*
X128978333Y-75193048D01*
X128975499Y-75166690D01*
X128975499Y-74863330D01*
X128975498Y-74863313D01*
X128965174Y-74762247D01*
X128958809Y-74743039D01*
X128910908Y-74598484D01*
X128820340Y-74451650D01*
X128706017Y-74337327D01*
X128672532Y-74276004D01*
X128677516Y-74206312D01*
X128706017Y-74161964D01*
X128819948Y-74048033D01*
X128910448Y-73901311D01*
X128910453Y-73901300D01*
X128964680Y-73737652D01*
X128974999Y-73636654D01*
X128975000Y-73636641D01*
X128975000Y-73587500D01*
X127025001Y-73587500D01*
X127025001Y-73636654D01*
X127035319Y-73737652D01*
X127089546Y-73901300D01*
X127089551Y-73901311D01*
X127180052Y-74048034D01*
X127180055Y-74048038D01*
X127293982Y-74161965D01*
X127327467Y-74223288D01*
X127322483Y-74292980D01*
X127293983Y-74337327D01*
X127179658Y-74451652D01*
X127124798Y-74540596D01*
X127072850Y-74587321D01*
X127019259Y-74599500D01*
X126024499Y-74599500D01*
X125957460Y-74579815D01*
X125911705Y-74527011D01*
X125900499Y-74475500D01*
X125900499Y-74352129D01*
X125900498Y-74352123D01*
X125900497Y-74352116D01*
X125894091Y-74292517D01*
X125890914Y-74284000D01*
X125843797Y-74157671D01*
X125843793Y-74157664D01*
X125757547Y-74042455D01*
X125757544Y-74042452D01*
X125642335Y-73956206D01*
X125642328Y-73956202D01*
X125507482Y-73905908D01*
X125507483Y-73905908D01*
X125447883Y-73899501D01*
X125447881Y-73899500D01*
X125447873Y-73899500D01*
X125447864Y-73899500D01*
X124452129Y-73899500D01*
X124452123Y-73899501D01*
X124392516Y-73905908D01*
X124257671Y-73956202D01*
X124257664Y-73956206D01*
X124142455Y-74042452D01*
X124142452Y-74042455D01*
X124056206Y-74157664D01*
X124056202Y-74157671D01*
X124005908Y-74292517D01*
X124001091Y-74337327D01*
X123999501Y-74352123D01*
X123999500Y-74352135D01*
X123999500Y-76147870D01*
X123999501Y-76147876D01*
X124005908Y-76207483D01*
X124056202Y-76342328D01*
X124056206Y-76342335D01*
X124142452Y-76457544D01*
X124142455Y-76457547D01*
X124257664Y-76543793D01*
X124257671Y-76543797D01*
X124392517Y-76594091D01*
X124392516Y-76594091D01*
X124399444Y-76594835D01*
X124452127Y-76600500D01*
X125447872Y-76600499D01*
X125507483Y-76594091D01*
X125642331Y-76543796D01*
X125757546Y-76457546D01*
X125843796Y-76342331D01*
X125894091Y-76207483D01*
X125900500Y-76147873D01*
X125900500Y-76024500D01*
X125920185Y-75957461D01*
X125972989Y-75911706D01*
X126024500Y-75900500D01*
X127155448Y-75900500D01*
X127222487Y-75920185D01*
X127243129Y-75936819D01*
X127301650Y-75995340D01*
X127448484Y-76085908D01*
X127612247Y-76140174D01*
X127713323Y-76150500D01*
X128016691Y-76150499D01*
X128083730Y-76170183D01*
X128104372Y-76186818D01*
X129813181Y-77895627D01*
X129846666Y-77956950D01*
X129849500Y-77983308D01*
X129849500Y-81042692D01*
X129829815Y-81109731D01*
X129777011Y-81155486D01*
X129707853Y-81165430D01*
X129644297Y-81136405D01*
X129637819Y-81130373D01*
X129011818Y-80504372D01*
X128978333Y-80443049D01*
X128975499Y-80416691D01*
X128975499Y-80113330D01*
X128975498Y-80113313D01*
X128965174Y-80012247D01*
X128938365Y-79931344D01*
X128910908Y-79848484D01*
X128820340Y-79701650D01*
X128706017Y-79587327D01*
X128672532Y-79526004D01*
X128677516Y-79456312D01*
X128706017Y-79411964D01*
X128819948Y-79298033D01*
X128910448Y-79151311D01*
X128910453Y-79151300D01*
X128964680Y-78987652D01*
X128974999Y-78886654D01*
X128975000Y-78886641D01*
X128975000Y-78837500D01*
X127025001Y-78837500D01*
X127025001Y-78886654D01*
X127035319Y-78987652D01*
X127089546Y-79151300D01*
X127089551Y-79151311D01*
X127180052Y-79298034D01*
X127180055Y-79298038D01*
X127269836Y-79387819D01*
X127303321Y-79449142D01*
X127298337Y-79518834D01*
X127256465Y-79574767D01*
X127191001Y-79599184D01*
X127182155Y-79599500D01*
X126024499Y-79599500D01*
X125957460Y-79579815D01*
X125911705Y-79527011D01*
X125900499Y-79475500D01*
X125900499Y-79352129D01*
X125900498Y-79352123D01*
X125900497Y-79352116D01*
X125895213Y-79302956D01*
X125894091Y-79292516D01*
X125843797Y-79157671D01*
X125843793Y-79157664D01*
X125757547Y-79042455D01*
X125757544Y-79042452D01*
X125642335Y-78956206D01*
X125642328Y-78956202D01*
X125507482Y-78905908D01*
X125507483Y-78905908D01*
X125447883Y-78899501D01*
X125447881Y-78899500D01*
X125447873Y-78899500D01*
X125447864Y-78899500D01*
X124452129Y-78899500D01*
X124452123Y-78899501D01*
X124392516Y-78905908D01*
X124257671Y-78956202D01*
X124257664Y-78956206D01*
X124142455Y-79042452D01*
X124142452Y-79042455D01*
X124056206Y-79157664D01*
X124056202Y-79157671D01*
X124005908Y-79292517D01*
X124000459Y-79343207D01*
X123999501Y-79352123D01*
X123999500Y-79352135D01*
X123999500Y-81147870D01*
X123999501Y-81147876D01*
X124005908Y-81207483D01*
X124056202Y-81342328D01*
X124056206Y-81342335D01*
X124142452Y-81457544D01*
X124142455Y-81457547D01*
X124257664Y-81543793D01*
X124257671Y-81543797D01*
X124392517Y-81594091D01*
X124392516Y-81594091D01*
X124399444Y-81594835D01*
X124452127Y-81600500D01*
X125447872Y-81600499D01*
X125507483Y-81594091D01*
X125642331Y-81543796D01*
X125757546Y-81457546D01*
X125843796Y-81342331D01*
X125894091Y-81207483D01*
X125900500Y-81147873D01*
X125900500Y-81024500D01*
X125920185Y-80957461D01*
X125972989Y-80911706D01*
X126024500Y-80900500D01*
X126974649Y-80900500D01*
X127041688Y-80920185D01*
X127087033Y-80972100D01*
X127089090Y-80976512D01*
X127089091Y-80976514D01*
X127089092Y-80976516D01*
X127179660Y-81123350D01*
X127301650Y-81245340D01*
X127448484Y-81335908D01*
X127612247Y-81390174D01*
X127713323Y-81400500D01*
X128016691Y-81400499D01*
X128083730Y-81420183D01*
X128104372Y-81436818D01*
X129313181Y-82645626D01*
X129346666Y-82706949D01*
X129349500Y-82733307D01*
X129349500Y-85542692D01*
X129329815Y-85609731D01*
X129277011Y-85655486D01*
X129207853Y-85665430D01*
X129144297Y-85636405D01*
X129137819Y-85630373D01*
X129011818Y-85504372D01*
X128978333Y-85443049D01*
X128975499Y-85416691D01*
X128975499Y-85113330D01*
X128975498Y-85113313D01*
X128965174Y-85012247D01*
X128910908Y-84848484D01*
X128820340Y-84701650D01*
X128706017Y-84587327D01*
X128672532Y-84526004D01*
X128677516Y-84456312D01*
X128706017Y-84411964D01*
X128819948Y-84298033D01*
X128910448Y-84151311D01*
X128910453Y-84151300D01*
X128964680Y-83987652D01*
X128974999Y-83886654D01*
X128975000Y-83886641D01*
X128975000Y-83837500D01*
X127025001Y-83837500D01*
X127025001Y-83886654D01*
X127035319Y-83987652D01*
X127089546Y-84151300D01*
X127089551Y-84151311D01*
X127180052Y-84298034D01*
X127180055Y-84298038D01*
X127269836Y-84387819D01*
X127303321Y-84449142D01*
X127298337Y-84518834D01*
X127256465Y-84574767D01*
X127191001Y-84599184D01*
X127182155Y-84599500D01*
X126024499Y-84599500D01*
X125957460Y-84579815D01*
X125911705Y-84527011D01*
X125900499Y-84475500D01*
X125900499Y-84352129D01*
X125900498Y-84352123D01*
X125900497Y-84352116D01*
X125895299Y-84303757D01*
X125894091Y-84292516D01*
X125843797Y-84157671D01*
X125843793Y-84157664D01*
X125757547Y-84042455D01*
X125757544Y-84042452D01*
X125642335Y-83956206D01*
X125642328Y-83956202D01*
X125507482Y-83905908D01*
X125507483Y-83905908D01*
X125447883Y-83899501D01*
X125447881Y-83899500D01*
X125447873Y-83899500D01*
X125447864Y-83899500D01*
X124452129Y-83899500D01*
X124452123Y-83899501D01*
X124392516Y-83905908D01*
X124257671Y-83956202D01*
X124257664Y-83956206D01*
X124142455Y-84042452D01*
X124142452Y-84042455D01*
X124056206Y-84157664D01*
X124056202Y-84157671D01*
X124005908Y-84292517D01*
X124000538Y-84342468D01*
X123999501Y-84352123D01*
X123999500Y-84352135D01*
X123999500Y-86147870D01*
X123999501Y-86147876D01*
X124005908Y-86207483D01*
X124056202Y-86342328D01*
X124056206Y-86342335D01*
X124142452Y-86457544D01*
X124142455Y-86457547D01*
X124257664Y-86543793D01*
X124257671Y-86543797D01*
X124392517Y-86594091D01*
X124392516Y-86594091D01*
X124399444Y-86594835D01*
X124452127Y-86600500D01*
X125447872Y-86600499D01*
X125507483Y-86594091D01*
X125642331Y-86543796D01*
X125757546Y-86457546D01*
X125843796Y-86342331D01*
X125894091Y-86207483D01*
X125900500Y-86147873D01*
X125900500Y-86024500D01*
X125920185Y-85957461D01*
X125972989Y-85911706D01*
X126024500Y-85900500D01*
X126974649Y-85900500D01*
X127041688Y-85920185D01*
X127087033Y-85972100D01*
X127089090Y-85976512D01*
X127089091Y-85976514D01*
X127089092Y-85976516D01*
X127179660Y-86123350D01*
X127301650Y-86245340D01*
X127448484Y-86335908D01*
X127612247Y-86390174D01*
X127713323Y-86400500D01*
X128016691Y-86400499D01*
X128083730Y-86420183D01*
X128104372Y-86436818D01*
X128813181Y-87145627D01*
X128846666Y-87206950D01*
X128849500Y-87233308D01*
X128849500Y-87376302D01*
X128829815Y-87443341D01*
X128777011Y-87489096D01*
X128707853Y-87499040D01*
X128660403Y-87481841D01*
X128551305Y-87414548D01*
X128551300Y-87414546D01*
X128387652Y-87360319D01*
X128286654Y-87350000D01*
X128250000Y-87350000D01*
X128250000Y-88463500D01*
X128230315Y-88530539D01*
X128177511Y-88576294D01*
X128126000Y-88587500D01*
X127025001Y-88587500D01*
X127025001Y-88636654D01*
X127035319Y-88737652D01*
X127089546Y-88901300D01*
X127089551Y-88901311D01*
X127180052Y-89048034D01*
X127180055Y-89048038D01*
X127293982Y-89161965D01*
X127327467Y-89223288D01*
X127322483Y-89292980D01*
X127293983Y-89337327D01*
X127179658Y-89451652D01*
X127124798Y-89540596D01*
X127072850Y-89587321D01*
X127019259Y-89599500D01*
X126024499Y-89599500D01*
X125957460Y-89579815D01*
X125911705Y-89527011D01*
X125900499Y-89475500D01*
X125900499Y-89352129D01*
X125900498Y-89352123D01*
X125900497Y-89352116D01*
X125894091Y-89292517D01*
X125887263Y-89274211D01*
X125843797Y-89157671D01*
X125843793Y-89157664D01*
X125757547Y-89042455D01*
X125757544Y-89042452D01*
X125642335Y-88956206D01*
X125642328Y-88956202D01*
X125507482Y-88905908D01*
X125507483Y-88905908D01*
X125447883Y-88899501D01*
X125447881Y-88899500D01*
X125447873Y-88899500D01*
X125447864Y-88899500D01*
X124452129Y-88899500D01*
X124452123Y-88899501D01*
X124392516Y-88905908D01*
X124257671Y-88956202D01*
X124257664Y-88956206D01*
X124142455Y-89042452D01*
X124142452Y-89042455D01*
X124056206Y-89157664D01*
X124056202Y-89157671D01*
X124005908Y-89292517D01*
X124001091Y-89337327D01*
X123999501Y-89352123D01*
X123999500Y-89352135D01*
X123999500Y-91147870D01*
X123999501Y-91147876D01*
X124005908Y-91207483D01*
X124056202Y-91342328D01*
X124056206Y-91342335D01*
X124142452Y-91457544D01*
X124142455Y-91457547D01*
X124257664Y-91543793D01*
X124257671Y-91543797D01*
X124392517Y-91594091D01*
X124392516Y-91594091D01*
X124399444Y-91594835D01*
X124452127Y-91600500D01*
X125447872Y-91600499D01*
X125507483Y-91594091D01*
X125642331Y-91543796D01*
X125757546Y-91457546D01*
X125843796Y-91342331D01*
X125894091Y-91207483D01*
X125900500Y-91147873D01*
X125900500Y-91024500D01*
X125920185Y-90957461D01*
X125972989Y-90911706D01*
X126024500Y-90900500D01*
X127155448Y-90900500D01*
X127222487Y-90920185D01*
X127243129Y-90936819D01*
X127301650Y-90995340D01*
X127448484Y-91085908D01*
X127612247Y-91140174D01*
X127713323Y-91150500D01*
X128016691Y-91150499D01*
X128083730Y-91170183D01*
X128104372Y-91186818D01*
X128313181Y-91395627D01*
X128346666Y-91456950D01*
X128349500Y-91483308D01*
X128349500Y-97484069D01*
X128359619Y-97534936D01*
X128359619Y-97534939D01*
X128374497Y-97609736D01*
X128374499Y-97609744D01*
X128406270Y-97686447D01*
X128423535Y-97728127D01*
X128492609Y-97831505D01*
X128494726Y-97834673D01*
X128494727Y-97834674D01*
X130984142Y-100324087D01*
X131017627Y-100385410D01*
X131016236Y-100443860D01*
X131011931Y-100459926D01*
X131011931Y-100459929D01*
X131011930Y-100459932D01*
X131008227Y-100502262D01*
X130992677Y-100679997D01*
X130992677Y-100680002D01*
X131011929Y-100900062D01*
X131011930Y-100900070D01*
X131069104Y-101113445D01*
X131069105Y-101113447D01*
X131069106Y-101113450D01*
X131149272Y-101285368D01*
X131162466Y-101313662D01*
X131162468Y-101313666D01*
X131289170Y-101494615D01*
X131289175Y-101494621D01*
X131445378Y-101650824D01*
X131445384Y-101650829D01*
X131626333Y-101777531D01*
X131626335Y-101777532D01*
X131626338Y-101777534D01*
X131734713Y-101828070D01*
X131755189Y-101837618D01*
X131807628Y-101883790D01*
X131826780Y-101950984D01*
X131806564Y-102017865D01*
X131755189Y-102062382D01*
X131626340Y-102122465D01*
X131626338Y-102122466D01*
X131445377Y-102249175D01*
X131289175Y-102405377D01*
X131211281Y-102516623D01*
X131156704Y-102560248D01*
X131109706Y-102569500D01*
X120960808Y-102569500D01*
X120893769Y-102549815D01*
X120873127Y-102533181D01*
X119275857Y-100935911D01*
X119242372Y-100874588D01*
X119243764Y-100816133D01*
X119248070Y-100800068D01*
X119267323Y-100580000D01*
X119248070Y-100359932D01*
X119190894Y-100146550D01*
X119097534Y-99946339D01*
X118986628Y-99787948D01*
X118970827Y-99765381D01*
X118902505Y-99697059D01*
X118814620Y-99609174D01*
X118814616Y-99609171D01*
X118814615Y-99609170D01*
X118633666Y-99482468D01*
X118633662Y-99482466D01*
X118504218Y-99422105D01*
X118451779Y-99375932D01*
X118432627Y-99308739D01*
X118452843Y-99241858D01*
X118504219Y-99197340D01*
X118633416Y-99137095D01*
X118633417Y-99137094D01*
X118698188Y-99091741D01*
X118027448Y-98421000D01*
X118050160Y-98421000D01*
X118147061Y-98395036D01*
X118233940Y-98344876D01*
X118304876Y-98273940D01*
X118355036Y-98187061D01*
X118381000Y-98090160D01*
X118381000Y-98067447D01*
X119051741Y-98738188D01*
X119097094Y-98673417D01*
X119097100Y-98673407D01*
X119190419Y-98473284D01*
X119190424Y-98473270D01*
X119247573Y-98259986D01*
X119247575Y-98259976D01*
X119266821Y-98040000D01*
X119266821Y-98039999D01*
X119247575Y-97820023D01*
X119247573Y-97820013D01*
X119190424Y-97606729D01*
X119190420Y-97606720D01*
X119097096Y-97406586D01*
X119051741Y-97341811D01*
X119051740Y-97341810D01*
X118381000Y-98012551D01*
X118381000Y-97989840D01*
X118355036Y-97892939D01*
X118304876Y-97806060D01*
X118233940Y-97735124D01*
X118147061Y-97684964D01*
X118050160Y-97659000D01*
X118027448Y-97659000D01*
X118698188Y-96988259D01*
X118698187Y-96988258D01*
X118633411Y-96942901D01*
X118633405Y-96942898D01*
X118504219Y-96882658D01*
X118451779Y-96836486D01*
X118432627Y-96769293D01*
X118452843Y-96702411D01*
X118504219Y-96657894D01*
X118520099Y-96650489D01*
X118633662Y-96597534D01*
X118814620Y-96470826D01*
X118970826Y-96314620D01*
X119097534Y-96133662D01*
X119190894Y-95933450D01*
X119248070Y-95720068D01*
X119249238Y-95706707D01*
X119274687Y-95641642D01*
X119285077Y-95629841D01*
X122187778Y-92727141D01*
X122187782Y-92727139D01*
X122327139Y-92587782D01*
X122436632Y-92423914D01*
X122496729Y-92278825D01*
X122512051Y-92241836D01*
X122536007Y-92121401D01*
X122542417Y-92089175D01*
X122550500Y-92048543D01*
X122550500Y-88087500D01*
X127025000Y-88087500D01*
X127750000Y-88087500D01*
X127750000Y-87350000D01*
X127713361Y-87350000D01*
X127713343Y-87350001D01*
X127612347Y-87360319D01*
X127448699Y-87414546D01*
X127448688Y-87414551D01*
X127301965Y-87505052D01*
X127301961Y-87505055D01*
X127180055Y-87626961D01*
X127180052Y-87626965D01*
X127089551Y-87773688D01*
X127089546Y-87773699D01*
X127035319Y-87937347D01*
X127025000Y-88038345D01*
X127025000Y-88087500D01*
X122550500Y-88087500D01*
X122550500Y-83337500D01*
X127025000Y-83337500D01*
X127750000Y-83337500D01*
X127750000Y-82600000D01*
X128250000Y-82600000D01*
X128250000Y-83337500D01*
X128974999Y-83337500D01*
X128974999Y-83288360D01*
X128974998Y-83288345D01*
X128964680Y-83187347D01*
X128910453Y-83023699D01*
X128910448Y-83023688D01*
X128819947Y-82876965D01*
X128819944Y-82876961D01*
X128698038Y-82755055D01*
X128698034Y-82755052D01*
X128551311Y-82664551D01*
X128551300Y-82664546D01*
X128387652Y-82610319D01*
X128286654Y-82600000D01*
X128250000Y-82600000D01*
X127750000Y-82600000D01*
X127713361Y-82600000D01*
X127713343Y-82600001D01*
X127612347Y-82610319D01*
X127448699Y-82664546D01*
X127448688Y-82664551D01*
X127301965Y-82755052D01*
X127301961Y-82755055D01*
X127180055Y-82876961D01*
X127180052Y-82876965D01*
X127089551Y-83023688D01*
X127089546Y-83023699D01*
X127035319Y-83187347D01*
X127025000Y-83288345D01*
X127025000Y-83337500D01*
X122550500Y-83337500D01*
X122550500Y-78337500D01*
X127025000Y-78337500D01*
X127750000Y-78337500D01*
X127750000Y-77600000D01*
X128250000Y-77600000D01*
X128250000Y-78337500D01*
X128974999Y-78337500D01*
X128974999Y-78288360D01*
X128974998Y-78288345D01*
X128964680Y-78187347D01*
X128910453Y-78023699D01*
X128910448Y-78023688D01*
X128819947Y-77876965D01*
X128819944Y-77876961D01*
X128698038Y-77755055D01*
X128698034Y-77755052D01*
X128551311Y-77664551D01*
X128551300Y-77664546D01*
X128387652Y-77610319D01*
X128286654Y-77600000D01*
X128250000Y-77600000D01*
X127750000Y-77600000D01*
X127713361Y-77600000D01*
X127713343Y-77600001D01*
X127612347Y-77610319D01*
X127448699Y-77664546D01*
X127448688Y-77664551D01*
X127301965Y-77755052D01*
X127301961Y-77755055D01*
X127180055Y-77876961D01*
X127180052Y-77876965D01*
X127089551Y-78023688D01*
X127089546Y-78023699D01*
X127035319Y-78187347D01*
X127025000Y-78288345D01*
X127025000Y-78337500D01*
X122550500Y-78337500D01*
X122550500Y-75151456D01*
X122512052Y-74958170D01*
X122512051Y-74958166D01*
X122512051Y-74958165D01*
X122509938Y-74953063D01*
X122500499Y-74905611D01*
X122500499Y-74352129D01*
X122500498Y-74352123D01*
X122500497Y-74352116D01*
X122494091Y-74292517D01*
X122490914Y-74284000D01*
X122443797Y-74157671D01*
X122443793Y-74157664D01*
X122357547Y-74042455D01*
X122357544Y-74042452D01*
X122242335Y-73956206D01*
X122242328Y-73956202D01*
X122107482Y-73905908D01*
X122107483Y-73905908D01*
X122047883Y-73899501D01*
X122047881Y-73899500D01*
X122047873Y-73899500D01*
X122047864Y-73899500D01*
X121052129Y-73899500D01*
X121052123Y-73899501D01*
X120992516Y-73905908D01*
X120857671Y-73956202D01*
X120857664Y-73956206D01*
X120742455Y-74042452D01*
X120742452Y-74042455D01*
X120656206Y-74157664D01*
X120656202Y-74157671D01*
X120605908Y-74292517D01*
X120601091Y-74337327D01*
X120599501Y-74352123D01*
X120599500Y-74352135D01*
X120599500Y-74905612D01*
X120590063Y-74953060D01*
X120587949Y-74958163D01*
X120587948Y-74958166D01*
X120549500Y-75151456D01*
X120549500Y-91484217D01*
X120529815Y-91551256D01*
X120513181Y-91571898D01*
X117870165Y-94214913D01*
X117808842Y-94248398D01*
X117793299Y-94250759D01*
X117779943Y-94251928D01*
X117779929Y-94251930D01*
X117566554Y-94309104D01*
X117566548Y-94309107D01*
X117366340Y-94402465D01*
X117366338Y-94402466D01*
X117185377Y-94529175D01*
X117029175Y-94685377D01*
X116902466Y-94866338D01*
X116902465Y-94866340D01*
X116809107Y-95066548D01*
X116809104Y-95066554D01*
X116751930Y-95279929D01*
X116751929Y-95279937D01*
X116732677Y-95499997D01*
X116732677Y-95500002D01*
X116751929Y-95720062D01*
X116751930Y-95720070D01*
X116809104Y-95933445D01*
X116809105Y-95933447D01*
X116809106Y-95933450D01*
X116888932Y-96104639D01*
X116902466Y-96133662D01*
X116902468Y-96133666D01*
X117029170Y-96314615D01*
X117029175Y-96314621D01*
X117185378Y-96470824D01*
X117185384Y-96470829D01*
X117366333Y-96597531D01*
X117366335Y-96597532D01*
X117366338Y-96597534D01*
X117479901Y-96650489D01*
X117495781Y-96657894D01*
X117548220Y-96704066D01*
X117567372Y-96771260D01*
X117547156Y-96838141D01*
X117495781Y-96882658D01*
X117366590Y-96942901D01*
X117301811Y-96988258D01*
X117972553Y-97659000D01*
X117949840Y-97659000D01*
X117852939Y-97684964D01*
X117766060Y-97735124D01*
X117695124Y-97806060D01*
X117644964Y-97892939D01*
X117619000Y-97989840D01*
X117619000Y-98012552D01*
X116948258Y-97341811D01*
X116902901Y-97406590D01*
X116809579Y-97606720D01*
X116809575Y-97606729D01*
X116752426Y-97820013D01*
X116752424Y-97820023D01*
X116733179Y-98039999D01*
X116733179Y-98040000D01*
X116752424Y-98259976D01*
X116752426Y-98259986D01*
X116809575Y-98473270D01*
X116809580Y-98473284D01*
X116902898Y-98673405D01*
X116902901Y-98673411D01*
X116948258Y-98738187D01*
X116948259Y-98738188D01*
X117619000Y-98067447D01*
X117619000Y-98090160D01*
X117644964Y-98187061D01*
X117695124Y-98273940D01*
X117766060Y-98344876D01*
X117852939Y-98395036D01*
X117949840Y-98421000D01*
X117972553Y-98421000D01*
X117301810Y-99091740D01*
X117366589Y-99137098D01*
X117495781Y-99197342D01*
X117548220Y-99243514D01*
X117567372Y-99310708D01*
X117547156Y-99377589D01*
X117495781Y-99422106D01*
X117366340Y-99482465D01*
X117366338Y-99482466D01*
X117185377Y-99609175D01*
X117029175Y-99765377D01*
X116902466Y-99946338D01*
X116902465Y-99946340D01*
X116809107Y-100146548D01*
X116809104Y-100146554D01*
X116751930Y-100359929D01*
X116751929Y-100359937D01*
X116732677Y-100579997D01*
X116732677Y-100580002D01*
X116751929Y-100800062D01*
X116751930Y-100800070D01*
X116809104Y-101013445D01*
X116809105Y-101013447D01*
X116809106Y-101013450D01*
X116855737Y-101113450D01*
X116902466Y-101213662D01*
X116902468Y-101213666D01*
X117029170Y-101394615D01*
X117029175Y-101394621D01*
X117185378Y-101550824D01*
X117185384Y-101550829D01*
X117366333Y-101677531D01*
X117366335Y-101677532D01*
X117366338Y-101677534D01*
X117485748Y-101733215D01*
X117495189Y-101737618D01*
X117547628Y-101783790D01*
X117566780Y-101850984D01*
X117546564Y-101917865D01*
X117495189Y-101962382D01*
X117366340Y-102022465D01*
X117366338Y-102022466D01*
X117185377Y-102149175D01*
X117029175Y-102305377D01*
X116902466Y-102486338D01*
X116902465Y-102486340D01*
X116809107Y-102686548D01*
X116809104Y-102686554D01*
X116751930Y-102899929D01*
X116751929Y-102899937D01*
X116732677Y-103119997D01*
X116732677Y-103120002D01*
X116751929Y-103340062D01*
X116751930Y-103340070D01*
X116809104Y-103553445D01*
X116809105Y-103553447D01*
X116809106Y-103553450D01*
X116855737Y-103653450D01*
X116902466Y-103753662D01*
X116902468Y-103753666D01*
X117029170Y-103934615D01*
X117029175Y-103934621D01*
X117185378Y-104090824D01*
X117185384Y-104090829D01*
X117366333Y-104217531D01*
X117366335Y-104217532D01*
X117366338Y-104217534D01*
X117485748Y-104273215D01*
X117495189Y-104277618D01*
X117547628Y-104323790D01*
X117566780Y-104390984D01*
X117546564Y-104457865D01*
X117495189Y-104502382D01*
X117366340Y-104562465D01*
X117366338Y-104562466D01*
X117185377Y-104689175D01*
X117029175Y-104845377D01*
X116902466Y-105026338D01*
X116902465Y-105026340D01*
X116809107Y-105226548D01*
X116809104Y-105226554D01*
X116751930Y-105439929D01*
X116751929Y-105439937D01*
X116732677Y-105659997D01*
X116732677Y-105660002D01*
X116751929Y-105880062D01*
X116751930Y-105880070D01*
X116809104Y-106093445D01*
X116809105Y-106093447D01*
X116809106Y-106093450D01*
X116855737Y-106193450D01*
X116902466Y-106293662D01*
X116902468Y-106293666D01*
X117029170Y-106474615D01*
X117029175Y-106474621D01*
X117185378Y-106630824D01*
X117185384Y-106630829D01*
X117366333Y-106757531D01*
X117366335Y-106757532D01*
X117366338Y-106757534D01*
X117478852Y-106810000D01*
X117495189Y-106817618D01*
X117547628Y-106863790D01*
X117566780Y-106930984D01*
X117546564Y-106997865D01*
X117495189Y-107042382D01*
X117366340Y-107102465D01*
X117366338Y-107102466D01*
X117185377Y-107229175D01*
X117029175Y-107385377D01*
X116902466Y-107566338D01*
X116902465Y-107566340D01*
X116809107Y-107766548D01*
X116809104Y-107766554D01*
X116751930Y-107979929D01*
X116751929Y-107979937D01*
X116732677Y-108199997D01*
X116732677Y-108200002D01*
X116751929Y-108420062D01*
X116751930Y-108420070D01*
X116809104Y-108633445D01*
X116809105Y-108633447D01*
X116809106Y-108633450D01*
X116855737Y-108733450D01*
X116902466Y-108833662D01*
X116902468Y-108833666D01*
X117029170Y-109014615D01*
X117029175Y-109014621D01*
X117185378Y-109170824D01*
X117185384Y-109170829D01*
X117366333Y-109297531D01*
X117366335Y-109297532D01*
X117366338Y-109297534D01*
X117485748Y-109353215D01*
X117495189Y-109357618D01*
X117547628Y-109403790D01*
X117566780Y-109470984D01*
X117546564Y-109537865D01*
X117495189Y-109582382D01*
X117366340Y-109642465D01*
X117366338Y-109642466D01*
X117185377Y-109769175D01*
X117029175Y-109925377D01*
X116902466Y-110106338D01*
X116902465Y-110106340D01*
X116809107Y-110306548D01*
X116809104Y-110306554D01*
X116751930Y-110519929D01*
X116751929Y-110519937D01*
X116732677Y-110739997D01*
X116732677Y-110740002D01*
X116751929Y-110960062D01*
X116751930Y-110960070D01*
X116809104Y-111173445D01*
X116809105Y-111173447D01*
X116809106Y-111173450D01*
X116855737Y-111273450D01*
X116902466Y-111373662D01*
X116902468Y-111373666D01*
X117029170Y-111554615D01*
X117029175Y-111554621D01*
X117185378Y-111710824D01*
X117185384Y-111710829D01*
X117366333Y-111837531D01*
X117366335Y-111837532D01*
X117366338Y-111837534D01*
X117465992Y-111884003D01*
X117495189Y-111897618D01*
X117547628Y-111943790D01*
X117566780Y-112010984D01*
X117546564Y-112077865D01*
X117495189Y-112122382D01*
X117366340Y-112182465D01*
X117366338Y-112182466D01*
X117185377Y-112309175D01*
X117029175Y-112465377D01*
X116902466Y-112646338D01*
X116902465Y-112646340D01*
X116809107Y-112846548D01*
X116809104Y-112846554D01*
X116751930Y-113059929D01*
X116751929Y-113059937D01*
X116732677Y-113279997D01*
X116732677Y-113280002D01*
X116751929Y-113500062D01*
X116751930Y-113500070D01*
X116809104Y-113713445D01*
X116809105Y-113713447D01*
X116809106Y-113713450D01*
X116855737Y-113813450D01*
X116902466Y-113913662D01*
X116902468Y-113913666D01*
X117029170Y-114094615D01*
X117029175Y-114094621D01*
X117185378Y-114250824D01*
X117185384Y-114250829D01*
X117366333Y-114377531D01*
X117366335Y-114377532D01*
X117366338Y-114377534D01*
X117566550Y-114470894D01*
X117779932Y-114528070D01*
X117937123Y-114541822D01*
X117999998Y-114547323D01*
X118000000Y-114547323D01*
X118000002Y-114547323D01*
X118055017Y-114542509D01*
X118220068Y-114528070D01*
X118433450Y-114470894D01*
X118633662Y-114377534D01*
X118814620Y-114250826D01*
X118970826Y-114094620D01*
X119097534Y-113913662D01*
X119190894Y-113713450D01*
X119248070Y-113500068D01*
X119267323Y-113280000D01*
X119264386Y-113246434D01*
X119248070Y-113059937D01*
X119248070Y-113059932D01*
X119190894Y-112846550D01*
X119097534Y-112646339D01*
X118970826Y-112465380D01*
X118814620Y-112309174D01*
X118814616Y-112309171D01*
X118814615Y-112309170D01*
X118633666Y-112182468D01*
X118633658Y-112182464D01*
X118504811Y-112122382D01*
X118452371Y-112076210D01*
X118433219Y-112009017D01*
X118453435Y-111942135D01*
X118504811Y-111897618D01*
X118510802Y-111894824D01*
X118633662Y-111837534D01*
X118814620Y-111710826D01*
X118970826Y-111554620D01*
X119097534Y-111373662D01*
X119190894Y-111173450D01*
X119248070Y-110960068D01*
X119266448Y-110750000D01*
X119267323Y-110740002D01*
X119267323Y-110739997D01*
X119248070Y-110519937D01*
X119248070Y-110519932D01*
X119190894Y-110306550D01*
X119097534Y-110106339D01*
X118970826Y-109925380D01*
X118814620Y-109769174D01*
X118814616Y-109769171D01*
X118814615Y-109769170D01*
X118633666Y-109642468D01*
X118633658Y-109642464D01*
X118504811Y-109582382D01*
X118452371Y-109536210D01*
X118433219Y-109469017D01*
X118453435Y-109402135D01*
X118504811Y-109357618D01*
X118510802Y-109354824D01*
X118633662Y-109297534D01*
X118814620Y-109170826D01*
X118970826Y-109014620D01*
X119097534Y-108833662D01*
X119190894Y-108633450D01*
X119248070Y-108420068D01*
X119266740Y-108206666D01*
X119267323Y-108200002D01*
X119267323Y-108199997D01*
X119254056Y-108048351D01*
X119248070Y-107979932D01*
X119190894Y-107766550D01*
X119097534Y-107566339D01*
X119034131Y-107475789D01*
X118970827Y-107385381D01*
X118898672Y-107313226D01*
X118814620Y-107229174D01*
X118814616Y-107229171D01*
X118814615Y-107229170D01*
X118633666Y-107102468D01*
X118633658Y-107102464D01*
X118504811Y-107042382D01*
X118452371Y-106996210D01*
X118433219Y-106929017D01*
X118453435Y-106862135D01*
X118504811Y-106817618D01*
X118521148Y-106810000D01*
X118633662Y-106757534D01*
X118814620Y-106630826D01*
X118970826Y-106474620D01*
X119097534Y-106293662D01*
X119190894Y-106093450D01*
X119248070Y-105880068D01*
X119267323Y-105660000D01*
X119263197Y-105612840D01*
X119276963Y-105544341D01*
X119325578Y-105494158D01*
X119393607Y-105478224D01*
X119459451Y-105501599D01*
X119474406Y-105514352D01*
X120420974Y-106460920D01*
X120454459Y-106522243D01*
X120449475Y-106591935D01*
X120433400Y-106620471D01*
X120433452Y-106620503D01*
X120432646Y-106621808D01*
X120430565Y-106625504D01*
X120429665Y-106626641D01*
X120339093Y-106773481D01*
X120339092Y-106773484D01*
X120284826Y-106937247D01*
X120284826Y-106937248D01*
X120284825Y-106937248D01*
X120274500Y-107038315D01*
X120274500Y-107636669D01*
X120274501Y-107636687D01*
X120284825Y-107737752D01*
X120311424Y-107818020D01*
X120339092Y-107901516D01*
X120425947Y-108042331D01*
X120429661Y-108048351D01*
X120543629Y-108162319D01*
X120577114Y-108223642D01*
X120572130Y-108293334D01*
X120543629Y-108337681D01*
X120429661Y-108451648D01*
X120339093Y-108598481D01*
X120339092Y-108598484D01*
X120284826Y-108762247D01*
X120284826Y-108762248D01*
X120284825Y-108762248D01*
X120274500Y-108863315D01*
X120274500Y-109461669D01*
X120274501Y-109461687D01*
X120284825Y-109562752D01*
X120291330Y-109582382D01*
X120339092Y-109726516D01*
X120429660Y-109873350D01*
X120551650Y-109995340D01*
X120590597Y-110019362D01*
X120637320Y-110071307D01*
X120649500Y-110124900D01*
X120649500Y-110167587D01*
X120629815Y-110234626D01*
X120622450Y-110244896D01*
X120620186Y-110247734D01*
X120524211Y-110400476D01*
X120464631Y-110570745D01*
X120464630Y-110570750D01*
X120444435Y-110749996D01*
X120444435Y-110750003D01*
X120464630Y-110929249D01*
X120464631Y-110929254D01*
X120524211Y-111099523D01*
X120620184Y-111252262D01*
X120747738Y-111379816D01*
X120900478Y-111475789D01*
X121070745Y-111535368D01*
X121070750Y-111535369D01*
X121249996Y-111555565D01*
X121250000Y-111555565D01*
X121250004Y-111555565D01*
X121429249Y-111535369D01*
X121429252Y-111535368D01*
X121429255Y-111535368D01*
X121599522Y-111475789D01*
X121752262Y-111379816D01*
X121879816Y-111252262D01*
X121975789Y-111099522D01*
X122035368Y-110929255D01*
X122035369Y-110929249D01*
X122055565Y-110750003D01*
X122055565Y-110749996D01*
X122035369Y-110570750D01*
X122035368Y-110570745D01*
X121975789Y-110400478D01*
X121879816Y-110247738D01*
X121879814Y-110247736D01*
X121879813Y-110247734D01*
X121877550Y-110244896D01*
X121876659Y-110242715D01*
X121876111Y-110241842D01*
X121876264Y-110241745D01*
X121851144Y-110180209D01*
X121850500Y-110167587D01*
X121850500Y-110124900D01*
X121870185Y-110057861D01*
X121909401Y-110019363D01*
X121948350Y-109995340D01*
X122070340Y-109873350D01*
X122160908Y-109726516D01*
X122215174Y-109562753D01*
X122225500Y-109461677D01*
X122225499Y-108863324D01*
X122222584Y-108834792D01*
X122215174Y-108762247D01*
X122205632Y-108733451D01*
X122160908Y-108598484D01*
X122070340Y-108451650D01*
X121956371Y-108337681D01*
X121922886Y-108276358D01*
X121927870Y-108206666D01*
X121956371Y-108162319D01*
X122012106Y-108106584D01*
X122070340Y-108048350D01*
X122160908Y-107901516D01*
X122215174Y-107737753D01*
X122225500Y-107636677D01*
X122225499Y-107406937D01*
X122245183Y-107339900D01*
X122297987Y-107294145D01*
X122367146Y-107284201D01*
X122430701Y-107313226D01*
X122437180Y-107319258D01*
X122497738Y-107379816D01*
X122650478Y-107475789D01*
X122820745Y-107535368D01*
X122907669Y-107545161D01*
X122972080Y-107572226D01*
X122981465Y-107580700D01*
X123102639Y-107701874D01*
X123102649Y-107701885D01*
X123218785Y-107818021D01*
X123262941Y-107843513D01*
X123298538Y-107864065D01*
X123342076Y-107906354D01*
X123429660Y-108048350D01*
X123429661Y-108048351D01*
X123543629Y-108162319D01*
X123577114Y-108223642D01*
X123572130Y-108293334D01*
X123543629Y-108337681D01*
X123429661Y-108451648D01*
X123339093Y-108598481D01*
X123339092Y-108598484D01*
X123284826Y-108762247D01*
X123284826Y-108762248D01*
X123284825Y-108762248D01*
X123274500Y-108863315D01*
X123274500Y-109461669D01*
X123274501Y-109461687D01*
X123284825Y-109562752D01*
X123291330Y-109582382D01*
X123339092Y-109726516D01*
X123429660Y-109873350D01*
X123551650Y-109995340D01*
X123590597Y-110019362D01*
X123637320Y-110071307D01*
X123649500Y-110124900D01*
X123649500Y-110167587D01*
X123629815Y-110234626D01*
X123622450Y-110244896D01*
X123620186Y-110247734D01*
X123524211Y-110400476D01*
X123464631Y-110570745D01*
X123464630Y-110570750D01*
X123444435Y-110749996D01*
X123444435Y-110750003D01*
X123464630Y-110929249D01*
X123464631Y-110929254D01*
X123524211Y-111099523D01*
X123620184Y-111252262D01*
X123747738Y-111379816D01*
X123900478Y-111475789D01*
X124070745Y-111535368D01*
X124070750Y-111535369D01*
X124249996Y-111555565D01*
X124250000Y-111555565D01*
X124250004Y-111555565D01*
X124429249Y-111535369D01*
X124429252Y-111535368D01*
X124429255Y-111535368D01*
X124599522Y-111475789D01*
X124752262Y-111379816D01*
X124879816Y-111252262D01*
X124975789Y-111099522D01*
X125035368Y-110929255D01*
X125035369Y-110929249D01*
X125055565Y-110750003D01*
X125055565Y-110749996D01*
X125035369Y-110570750D01*
X125035368Y-110570745D01*
X124975789Y-110400478D01*
X124879816Y-110247738D01*
X124879814Y-110247736D01*
X124879813Y-110247734D01*
X124877550Y-110244896D01*
X124876659Y-110242715D01*
X124876111Y-110241842D01*
X124876264Y-110241745D01*
X124851144Y-110180209D01*
X124850500Y-110167587D01*
X124850500Y-110124900D01*
X124870185Y-110057861D01*
X124909401Y-110019363D01*
X124948350Y-109995340D01*
X125070340Y-109873350D01*
X125160908Y-109726516D01*
X125215174Y-109562753D01*
X125225500Y-109461677D01*
X125225499Y-108863324D01*
X125222584Y-108834792D01*
X125215174Y-108762247D01*
X125205632Y-108733451D01*
X125160908Y-108598484D01*
X125070340Y-108451650D01*
X124956371Y-108337681D01*
X124922886Y-108276358D01*
X124927870Y-108206666D01*
X124956371Y-108162319D01*
X125012106Y-108106584D01*
X125070340Y-108048350D01*
X125160908Y-107901516D01*
X125215174Y-107737753D01*
X125225500Y-107636677D01*
X125225499Y-107038324D01*
X125222514Y-107009106D01*
X125215174Y-106937247D01*
X125211885Y-106927323D01*
X125160908Y-106773484D01*
X125070340Y-106626650D01*
X125065871Y-106622181D01*
X125032386Y-106560858D01*
X125037370Y-106491166D01*
X125079242Y-106435233D01*
X125144706Y-106410816D01*
X125153552Y-106410500D01*
X131109706Y-106410500D01*
X131176745Y-106430185D01*
X131211281Y-106463377D01*
X131289170Y-106574615D01*
X131289175Y-106574621D01*
X131445378Y-106730824D01*
X131445384Y-106730829D01*
X131626333Y-106857531D01*
X131626335Y-106857532D01*
X131626338Y-106857534D01*
X131734713Y-106908070D01*
X131755189Y-106917618D01*
X131807628Y-106963790D01*
X131826780Y-107030984D01*
X131806564Y-107097865D01*
X131755189Y-107142382D01*
X131626340Y-107202465D01*
X131626338Y-107202466D01*
X131445377Y-107329175D01*
X131289175Y-107485377D01*
X131162466Y-107666338D01*
X131162465Y-107666340D01*
X131069107Y-107866548D01*
X131069104Y-107866554D01*
X131011930Y-108079929D01*
X131011929Y-108079937D01*
X130992677Y-108299997D01*
X130992677Y-108300002D01*
X131011929Y-108520062D01*
X131011930Y-108520070D01*
X131069104Y-108733445D01*
X131069105Y-108733447D01*
X131069106Y-108733450D01*
X131129663Y-108863315D01*
X131162466Y-108933662D01*
X131162468Y-108933666D01*
X131289170Y-109114615D01*
X131289175Y-109114621D01*
X131445378Y-109270824D01*
X131445384Y-109270829D01*
X131626333Y-109397531D01*
X131626335Y-109397532D01*
X131626338Y-109397534D01*
X131734713Y-109448070D01*
X131755189Y-109457618D01*
X131807628Y-109503790D01*
X131826780Y-109570984D01*
X131806564Y-109637865D01*
X131755189Y-109682382D01*
X131626340Y-109742465D01*
X131626338Y-109742466D01*
X131445377Y-109869175D01*
X131289175Y-110025377D01*
X131162466Y-110206338D01*
X131162465Y-110206340D01*
X131069107Y-110406548D01*
X131069104Y-110406554D01*
X131011930Y-110619929D01*
X131011929Y-110619937D01*
X130992677Y-110839997D01*
X130992677Y-110840002D01*
X131011929Y-111060062D01*
X131011930Y-111060070D01*
X131069104Y-111273445D01*
X131069105Y-111273447D01*
X131069106Y-111273450D01*
X131118705Y-111379815D01*
X131162466Y-111473662D01*
X131162468Y-111473666D01*
X131289170Y-111654615D01*
X131289175Y-111654621D01*
X131445378Y-111810824D01*
X131445384Y-111810829D01*
X131626333Y-111937531D01*
X131626335Y-111937532D01*
X131626338Y-111937534D01*
X131734713Y-111988070D01*
X131755189Y-111997618D01*
X131807628Y-112043790D01*
X131826780Y-112110984D01*
X131806564Y-112177865D01*
X131755189Y-112222382D01*
X131626340Y-112282465D01*
X131626338Y-112282466D01*
X131445377Y-112409175D01*
X131289175Y-112565377D01*
X131162466Y-112746338D01*
X131162465Y-112746340D01*
X131069107Y-112946548D01*
X131069104Y-112946554D01*
X131011930Y-113159929D01*
X131011929Y-113159937D01*
X130992677Y-113379997D01*
X130992677Y-113380002D01*
X131011929Y-113600062D01*
X131011930Y-113600070D01*
X131069104Y-113813445D01*
X131069105Y-113813447D01*
X131069106Y-113813450D01*
X131120448Y-113923553D01*
X131162466Y-114013662D01*
X131162468Y-114013666D01*
X131289170Y-114194615D01*
X131289175Y-114194621D01*
X131445378Y-114350824D01*
X131445384Y-114350829D01*
X131626333Y-114477531D01*
X131626335Y-114477532D01*
X131626338Y-114477534D01*
X131711767Y-114517370D01*
X131755189Y-114537618D01*
X131807628Y-114583790D01*
X131826780Y-114650984D01*
X131806564Y-114717865D01*
X131755189Y-114762382D01*
X131626340Y-114822465D01*
X131626338Y-114822466D01*
X131445377Y-114949175D01*
X131289175Y-115105377D01*
X131162466Y-115286338D01*
X131162465Y-115286340D01*
X131069107Y-115486548D01*
X131069104Y-115486554D01*
X131011930Y-115699929D01*
X131011929Y-115699937D01*
X130992677Y-115919997D01*
X130992677Y-115920002D01*
X131011929Y-116140062D01*
X131011930Y-116140070D01*
X131069104Y-116353445D01*
X131069105Y-116353447D01*
X131069106Y-116353450D01*
X131162466Y-116553662D01*
X131162468Y-116553666D01*
X131289170Y-116734615D01*
X131289175Y-116734621D01*
X131445378Y-116890824D01*
X131445384Y-116890829D01*
X131626333Y-117017531D01*
X131626335Y-117017532D01*
X131626338Y-117017534D01*
X131826550Y-117110894D01*
X132039932Y-117168070D01*
X132197123Y-117181822D01*
X132259998Y-117187323D01*
X132260000Y-117187323D01*
X132260002Y-117187323D01*
X132315017Y-117182509D01*
X132480068Y-117168070D01*
X132693450Y-117110894D01*
X132893662Y-117017534D01*
X133074620Y-116890826D01*
X133230826Y-116734620D01*
X133357534Y-116553662D01*
X133450894Y-116353450D01*
X133508070Y-116140068D01*
X133527323Y-115920000D01*
X133523746Y-115879119D01*
X133520103Y-115837474D01*
X133508070Y-115699932D01*
X133450894Y-115486550D01*
X133357534Y-115286339D01*
X133230826Y-115105380D01*
X133074620Y-114949174D01*
X133074616Y-114949171D01*
X133074615Y-114949170D01*
X132893666Y-114822468D01*
X132893658Y-114822464D01*
X132764811Y-114762382D01*
X132712371Y-114716210D01*
X132693219Y-114649017D01*
X132713435Y-114582135D01*
X132764811Y-114537618D01*
X132808233Y-114517370D01*
X132893662Y-114477534D01*
X133074620Y-114350826D01*
X133230826Y-114194620D01*
X133357534Y-114013662D01*
X133450894Y-113813450D01*
X133508070Y-113600068D01*
X133527323Y-113380000D01*
X133508070Y-113159932D01*
X133450894Y-112946550D01*
X133357534Y-112746339D01*
X133287513Y-112646338D01*
X133230827Y-112565381D01*
X133230823Y-112565377D01*
X133074620Y-112409174D01*
X133074616Y-112409171D01*
X133074615Y-112409170D01*
X132893666Y-112282468D01*
X132893658Y-112282464D01*
X132764811Y-112222382D01*
X132712371Y-112176210D01*
X132693219Y-112109017D01*
X132713435Y-112042135D01*
X132764811Y-111997618D01*
X132785287Y-111988070D01*
X132893662Y-111937534D01*
X133074620Y-111810826D01*
X133230826Y-111654620D01*
X133357534Y-111473662D01*
X133450894Y-111273450D01*
X133508070Y-111060068D01*
X133527323Y-110840000D01*
X133508070Y-110619932D01*
X133450894Y-110406550D01*
X133357534Y-110206339D01*
X133230826Y-110025380D01*
X133074620Y-109869174D01*
X133074616Y-109869171D01*
X133074615Y-109869170D01*
X132893666Y-109742468D01*
X132893658Y-109742464D01*
X132764811Y-109682382D01*
X132712371Y-109636210D01*
X132693219Y-109569017D01*
X132713435Y-109502135D01*
X132764811Y-109457618D01*
X132785287Y-109448070D01*
X132893662Y-109397534D01*
X133074620Y-109270826D01*
X133230826Y-109114620D01*
X133357534Y-108933662D01*
X133450894Y-108733450D01*
X133508070Y-108520068D01*
X133527225Y-108301121D01*
X133527323Y-108300002D01*
X133527323Y-108299997D01*
X133519307Y-108208378D01*
X133508070Y-108079932D01*
X133450894Y-107866550D01*
X133357534Y-107666339D01*
X133230826Y-107485380D01*
X133074620Y-107329174D01*
X133074616Y-107329171D01*
X133074615Y-107329170D01*
X132893666Y-107202468D01*
X132893658Y-107202464D01*
X132764811Y-107142382D01*
X132712371Y-107096210D01*
X132693219Y-107029017D01*
X132713435Y-106962135D01*
X132764811Y-106917618D01*
X132785287Y-106908070D01*
X132893662Y-106857534D01*
X133074620Y-106730826D01*
X133230826Y-106574620D01*
X133308719Y-106463376D01*
X133363296Y-106419752D01*
X133410294Y-106410500D01*
X134054071Y-106410500D01*
X134138717Y-106393662D01*
X134179744Y-106385501D01*
X134298127Y-106336465D01*
X134319891Y-106321923D01*
X134404669Y-106265277D01*
X138005277Y-102664669D01*
X138007426Y-102662520D01*
X138068749Y-102629035D01*
X138138441Y-102634019D01*
X138147490Y-102637809D01*
X138246337Y-102683903D01*
X138246343Y-102683904D01*
X138246344Y-102683905D01*
X138278086Y-102692410D01*
X138474592Y-102745063D01*
X138651034Y-102760500D01*
X138709999Y-102765659D01*
X138710000Y-102765659D01*
X138710001Y-102765659D01*
X138768966Y-102760500D01*
X138945408Y-102745063D01*
X139173663Y-102683903D01*
X139387830Y-102584035D01*
X139581401Y-102448495D01*
X139703329Y-102326566D01*
X139764648Y-102293084D01*
X139834340Y-102298068D01*
X139890274Y-102339939D01*
X139907189Y-102370917D01*
X139956202Y-102502328D01*
X139956206Y-102502335D01*
X140042452Y-102617544D01*
X140042455Y-102617547D01*
X140157664Y-102703793D01*
X140157671Y-102703797D01*
X140292517Y-102754091D01*
X140292516Y-102754091D01*
X140299444Y-102754835D01*
X140352127Y-102760500D01*
X142147872Y-102760499D01*
X142207483Y-102754091D01*
X142342331Y-102703796D01*
X142457546Y-102617546D01*
X142543796Y-102502331D01*
X142594091Y-102367483D01*
X142600500Y-102307873D01*
X142600499Y-100512128D01*
X142594091Y-100452517D01*
X142592810Y-100449083D01*
X142543797Y-100317671D01*
X142543793Y-100317664D01*
X142457547Y-100202455D01*
X142457544Y-100202452D01*
X142342335Y-100116206D01*
X142342328Y-100116202D01*
X142210917Y-100067189D01*
X142154983Y-100025318D01*
X142130566Y-99959853D01*
X142145418Y-99891580D01*
X142166563Y-99863332D01*
X142288495Y-99741401D01*
X142424035Y-99547830D01*
X142523903Y-99333663D01*
X142585063Y-99105408D01*
X142605659Y-98870000D01*
X142585063Y-98634592D01*
X142523903Y-98406337D01*
X142424035Y-98192171D01*
X142418425Y-98184158D01*
X142288494Y-97998597D01*
X142121402Y-97831506D01*
X142121396Y-97831501D01*
X141935842Y-97701575D01*
X141892217Y-97646998D01*
X141885023Y-97577500D01*
X141916546Y-97515145D01*
X141935842Y-97498425D01*
X141958026Y-97482891D01*
X142121401Y-97368495D01*
X142288495Y-97201401D01*
X142424035Y-97007830D01*
X142523903Y-96793663D01*
X142585063Y-96565408D01*
X142605659Y-96330000D01*
X142604313Y-96314621D01*
X142594285Y-96199998D01*
X142585063Y-96094592D01*
X142523903Y-95866337D01*
X142424035Y-95652171D01*
X142420527Y-95647160D01*
X142288494Y-95458597D01*
X142121402Y-95291506D01*
X142121396Y-95291501D01*
X141935842Y-95161575D01*
X141892217Y-95106998D01*
X141885023Y-95037500D01*
X141916546Y-94975145D01*
X141935842Y-94958425D01*
X141958026Y-94942891D01*
X142121401Y-94828495D01*
X142288495Y-94661401D01*
X142424035Y-94467830D01*
X142523903Y-94253663D01*
X142585063Y-94025408D01*
X142605659Y-93790000D01*
X142585063Y-93554592D01*
X142523903Y-93326337D01*
X142424035Y-93112171D01*
X142420527Y-93107160D01*
X142288494Y-92918597D01*
X142121402Y-92751506D01*
X142121396Y-92751501D01*
X141935842Y-92621575D01*
X141892217Y-92566998D01*
X141885023Y-92497500D01*
X141916546Y-92435145D01*
X141935842Y-92418425D01*
X142005191Y-92369866D01*
X142121401Y-92288495D01*
X142288495Y-92121401D01*
X142424035Y-91927830D01*
X142523903Y-91713663D01*
X142585063Y-91485408D01*
X142605659Y-91250000D01*
X142585063Y-91014592D01*
X142523903Y-90786337D01*
X142424035Y-90572171D01*
X142418425Y-90564158D01*
X142288494Y-90378597D01*
X142121402Y-90211506D01*
X142121396Y-90211501D01*
X141935842Y-90081575D01*
X141892217Y-90026998D01*
X141885023Y-89957500D01*
X141916546Y-89895145D01*
X141935842Y-89878425D01*
X142018217Y-89820745D01*
X142121401Y-89748495D01*
X142288495Y-89581401D01*
X142424035Y-89387830D01*
X142523903Y-89173663D01*
X142585063Y-88945408D01*
X142605659Y-88710000D01*
X142585063Y-88474592D01*
X142523903Y-88246337D01*
X142424035Y-88032171D01*
X142418425Y-88024158D01*
X142288494Y-87838597D01*
X142121402Y-87671506D01*
X142121396Y-87671501D01*
X141935842Y-87541575D01*
X141892217Y-87486998D01*
X141885023Y-87417500D01*
X141916546Y-87355145D01*
X141935842Y-87338425D01*
X141958026Y-87322891D01*
X142121401Y-87208495D01*
X142288495Y-87041401D01*
X142424035Y-86847830D01*
X142523903Y-86633663D01*
X142585063Y-86405408D01*
X142605659Y-86170000D01*
X142585063Y-85934592D01*
X142523903Y-85706337D01*
X142424035Y-85492171D01*
X142418425Y-85484158D01*
X142288494Y-85298597D01*
X142121402Y-85131506D01*
X142121396Y-85131501D01*
X141935842Y-85001575D01*
X141892217Y-84946998D01*
X141885023Y-84877500D01*
X141916546Y-84815145D01*
X141935842Y-84798425D01*
X141958026Y-84782891D01*
X142121401Y-84668495D01*
X142288495Y-84501401D01*
X142424035Y-84307830D01*
X142523903Y-84093663D01*
X142585063Y-83865408D01*
X142605659Y-83630000D01*
X142585063Y-83394592D01*
X142523903Y-83166337D01*
X142424035Y-82952171D01*
X142418425Y-82944158D01*
X142288494Y-82758597D01*
X142121402Y-82591506D01*
X142121401Y-82591505D01*
X141935405Y-82461269D01*
X141891781Y-82406692D01*
X141884588Y-82337193D01*
X141916110Y-82274839D01*
X141935405Y-82258119D01*
X142121082Y-82128105D01*
X142288105Y-81961082D01*
X142423600Y-81767578D01*
X142523429Y-81553492D01*
X142523432Y-81553486D01*
X142580636Y-81340000D01*
X141683012Y-81340000D01*
X141715925Y-81282993D01*
X141750000Y-81155826D01*
X141750000Y-81024174D01*
X141715925Y-80897007D01*
X141683012Y-80840000D01*
X142580636Y-80840000D01*
X142580635Y-80839999D01*
X142523432Y-80626513D01*
X142523429Y-80626507D01*
X142423600Y-80412422D01*
X142423599Y-80412420D01*
X142288113Y-80218926D01*
X142288108Y-80218920D01*
X142121082Y-80051894D01*
X141934968Y-79921575D01*
X141891344Y-79866998D01*
X141884151Y-79797499D01*
X141915673Y-79735145D01*
X141934968Y-79718425D01*
X142121082Y-79588105D01*
X142288105Y-79421082D01*
X142423600Y-79227578D01*
X142523429Y-79013492D01*
X142523432Y-79013486D01*
X142580636Y-78800000D01*
X141683012Y-78800000D01*
X141715925Y-78742993D01*
X141750000Y-78615826D01*
X141750000Y-78484174D01*
X141715925Y-78357007D01*
X141683012Y-78300000D01*
X142580636Y-78300000D01*
X142580635Y-78299999D01*
X142523432Y-78086513D01*
X142523429Y-78086507D01*
X142423600Y-77872422D01*
X142423599Y-77872420D01*
X142288113Y-77678926D01*
X142288108Y-77678920D01*
X142121082Y-77511894D01*
X141927578Y-77376399D01*
X141713492Y-77276570D01*
X141713486Y-77276567D01*
X141500000Y-77219364D01*
X141500000Y-78116988D01*
X141442993Y-78084075D01*
X141315826Y-78050000D01*
X141184174Y-78050000D01*
X141057007Y-78084075D01*
X141000000Y-78116988D01*
X141000000Y-77219364D01*
X140999999Y-77219364D01*
X140786513Y-77276567D01*
X140786507Y-77276570D01*
X140572422Y-77376399D01*
X140572420Y-77376400D01*
X140378926Y-77511886D01*
X140378920Y-77511891D01*
X140211891Y-77678920D01*
X140211890Y-77678922D01*
X140081575Y-77865031D01*
X140026998Y-77908655D01*
X139957499Y-77915848D01*
X139895145Y-77884326D01*
X139878425Y-77865031D01*
X139748109Y-77678922D01*
X139748108Y-77678920D01*
X139581082Y-77511894D01*
X139387578Y-77376399D01*
X139173492Y-77276570D01*
X139173486Y-77276567D01*
X138960000Y-77219364D01*
X138960000Y-78116988D01*
X138902993Y-78084075D01*
X138775826Y-78050000D01*
X138644174Y-78050000D01*
X138517007Y-78084075D01*
X138460000Y-78116988D01*
X138460000Y-77219364D01*
X138459999Y-77219364D01*
X138246513Y-77276567D01*
X138246507Y-77276570D01*
X138032422Y-77376399D01*
X138032420Y-77376400D01*
X137838926Y-77511886D01*
X137838920Y-77511891D01*
X137671891Y-77678920D01*
X137671886Y-77678926D01*
X137536400Y-77872420D01*
X137536399Y-77872422D01*
X137436570Y-78086507D01*
X137436567Y-78086513D01*
X137379364Y-78299999D01*
X137379364Y-78300000D01*
X138276988Y-78300000D01*
X138244075Y-78357007D01*
X138210000Y-78484174D01*
X138210000Y-78615826D01*
X138244075Y-78742993D01*
X138276988Y-78800000D01*
X137379364Y-78800000D01*
X137436567Y-79013486D01*
X137436570Y-79013492D01*
X137536399Y-79227578D01*
X137671894Y-79421082D01*
X137838917Y-79588105D01*
X138025031Y-79718425D01*
X138068656Y-79773003D01*
X138075848Y-79842501D01*
X138044326Y-79904856D01*
X138025031Y-79921575D01*
X137838922Y-80051890D01*
X137838920Y-80051891D01*
X137671891Y-80218920D01*
X137671886Y-80218926D01*
X137536400Y-80412420D01*
X137536399Y-80412422D01*
X137436570Y-80626507D01*
X137436567Y-80626513D01*
X137379364Y-80839999D01*
X137379364Y-80840000D01*
X138276988Y-80840000D01*
X138244075Y-80897007D01*
X138210000Y-81024174D01*
X138210000Y-81155826D01*
X138244075Y-81282993D01*
X138276988Y-81340000D01*
X137379364Y-81340000D01*
X137436567Y-81553486D01*
X137436570Y-81553492D01*
X137536399Y-81767578D01*
X137671894Y-81961082D01*
X137838917Y-82128105D01*
X138024595Y-82258119D01*
X138068219Y-82312696D01*
X138075412Y-82382195D01*
X138043890Y-82444549D01*
X138024595Y-82461269D01*
X137838594Y-82591508D01*
X137671505Y-82758597D01*
X137535965Y-82952169D01*
X137535964Y-82952171D01*
X137436098Y-83166335D01*
X137436094Y-83166344D01*
X137374938Y-83394586D01*
X137374936Y-83394596D01*
X137354341Y-83629999D01*
X137354341Y-83630000D01*
X137374936Y-83865403D01*
X137374939Y-83865416D01*
X137394384Y-83937989D01*
X137392721Y-84007839D01*
X137362290Y-84057762D01*
X134494726Y-86925326D01*
X134494723Y-86925331D01*
X134441698Y-87004691D01*
X134438703Y-87009173D01*
X134438701Y-87009175D01*
X134423539Y-87031865D01*
X134423533Y-87031875D01*
X134374499Y-87150255D01*
X134374497Y-87150261D01*
X134349500Y-87275928D01*
X134349500Y-98179191D01*
X134329815Y-98246230D01*
X134313181Y-98266872D01*
X133494727Y-99085325D01*
X133494724Y-99085328D01*
X133427503Y-99185933D01*
X133423536Y-99191871D01*
X133423535Y-99191873D01*
X133421270Y-99197342D01*
X133374499Y-99310255D01*
X133374497Y-99310261D01*
X133349500Y-99435928D01*
X133349500Y-99494931D01*
X133330494Y-99560903D01*
X133274211Y-99650477D01*
X133274206Y-99650486D01*
X133272300Y-99655934D01*
X133231574Y-99712707D01*
X133166620Y-99738450D01*
X133098059Y-99724988D01*
X133075545Y-99709951D01*
X133074624Y-99709178D01*
X133074620Y-99709174D01*
X133074614Y-99709170D01*
X133074612Y-99709168D01*
X132893666Y-99582468D01*
X132893658Y-99582464D01*
X132764811Y-99522382D01*
X132712371Y-99476210D01*
X132693219Y-99409017D01*
X132713435Y-99342135D01*
X132764811Y-99297618D01*
X132770802Y-99294824D01*
X132893662Y-99237534D01*
X133074620Y-99110826D01*
X133230826Y-98954620D01*
X133357534Y-98773662D01*
X133450894Y-98573450D01*
X133508070Y-98360068D01*
X133527323Y-98140000D01*
X133508070Y-97919932D01*
X133450894Y-97706550D01*
X133357534Y-97506339D01*
X133294180Y-97415859D01*
X133230827Y-97325381D01*
X133160446Y-97255000D01*
X133074620Y-97169174D01*
X133074616Y-97169171D01*
X133074615Y-97169170D01*
X132893666Y-97042468D01*
X132893658Y-97042464D01*
X132764811Y-96982382D01*
X132712371Y-96936210D01*
X132693219Y-96869017D01*
X132713435Y-96802135D01*
X132764811Y-96757618D01*
X132770802Y-96754824D01*
X132893662Y-96697534D01*
X133074620Y-96570826D01*
X133230826Y-96414620D01*
X133357534Y-96233662D01*
X133450894Y-96033450D01*
X133508070Y-95820068D01*
X133527323Y-95600000D01*
X133508070Y-95379932D01*
X133450894Y-95166550D01*
X133357534Y-94966339D01*
X133266843Y-94836818D01*
X133230827Y-94785381D01*
X133155254Y-94709808D01*
X133074620Y-94629174D01*
X133074616Y-94629171D01*
X133074615Y-94629170D01*
X132893666Y-94502468D01*
X132893658Y-94502464D01*
X132764811Y-94442382D01*
X132712371Y-94396210D01*
X132693219Y-94329017D01*
X132713435Y-94262135D01*
X132764811Y-94217618D01*
X132770802Y-94214824D01*
X132893662Y-94157534D01*
X133074620Y-94030826D01*
X133230826Y-93874620D01*
X133357534Y-93693662D01*
X133450894Y-93493450D01*
X133508070Y-93280068D01*
X133527323Y-93060000D01*
X133526770Y-93053682D01*
X133508070Y-92839937D01*
X133508070Y-92839932D01*
X133450894Y-92626550D01*
X133357534Y-92426339D01*
X133294180Y-92335859D01*
X133230827Y-92245381D01*
X133163318Y-92177872D01*
X133074620Y-92089174D01*
X133074616Y-92089171D01*
X133074615Y-92089170D01*
X132893666Y-91962468D01*
X132893658Y-91962464D01*
X132764811Y-91902382D01*
X132712371Y-91856210D01*
X132693219Y-91789017D01*
X132713435Y-91722135D01*
X132764811Y-91677618D01*
X132817334Y-91653126D01*
X132893662Y-91617534D01*
X133074620Y-91490826D01*
X133230826Y-91334620D01*
X133357534Y-91153662D01*
X133450894Y-90953450D01*
X133508070Y-90740068D01*
X133527323Y-90520000D01*
X133508070Y-90299932D01*
X133450894Y-90086550D01*
X133357534Y-89886339D01*
X133262069Y-89750000D01*
X133230827Y-89705381D01*
X133157818Y-89632372D01*
X133074620Y-89549174D01*
X133074616Y-89549171D01*
X133074615Y-89549170D01*
X132893666Y-89422468D01*
X132893658Y-89422464D01*
X132764811Y-89362382D01*
X132712371Y-89316210D01*
X132693219Y-89249017D01*
X132713435Y-89182135D01*
X132764811Y-89137618D01*
X132778182Y-89131383D01*
X132893662Y-89077534D01*
X133074620Y-88950826D01*
X133230826Y-88794620D01*
X133357534Y-88613662D01*
X133450894Y-88413450D01*
X133508070Y-88200068D01*
X133527323Y-87980000D01*
X133523591Y-87937347D01*
X133508070Y-87759937D01*
X133508070Y-87759932D01*
X133450894Y-87546550D01*
X133357534Y-87346339D01*
X133278389Y-87233308D01*
X133230827Y-87165381D01*
X133157818Y-87092372D01*
X133074620Y-87009174D01*
X133074616Y-87009171D01*
X133074615Y-87009170D01*
X132893666Y-86882468D01*
X132893658Y-86882464D01*
X132764811Y-86822382D01*
X132712371Y-86776210D01*
X132693219Y-86709017D01*
X132713435Y-86642135D01*
X132764811Y-86597618D01*
X132772375Y-86594091D01*
X132893662Y-86537534D01*
X133074620Y-86410826D01*
X133230826Y-86254620D01*
X133357534Y-86073662D01*
X133450894Y-85873450D01*
X133508070Y-85660068D01*
X133527323Y-85440000D01*
X133523587Y-85397302D01*
X133515286Y-85302414D01*
X133508070Y-85219932D01*
X133450894Y-85006550D01*
X133357534Y-84806339D01*
X133294180Y-84715859D01*
X133230827Y-84625381D01*
X133157818Y-84552372D01*
X133074620Y-84469174D01*
X133074616Y-84469171D01*
X133074615Y-84469170D01*
X132893666Y-84342468D01*
X132893658Y-84342464D01*
X132764811Y-84282382D01*
X132712371Y-84236210D01*
X132693219Y-84169017D01*
X132713435Y-84102135D01*
X132764811Y-84057618D01*
X132797330Y-84042454D01*
X132893662Y-83997534D01*
X133074620Y-83870826D01*
X133230826Y-83714620D01*
X133357534Y-83533662D01*
X133450894Y-83333450D01*
X133508070Y-83120068D01*
X133527323Y-82900000D01*
X133526031Y-82885236D01*
X133516590Y-82777315D01*
X133508070Y-82679932D01*
X133450894Y-82466550D01*
X133357534Y-82266339D01*
X133230826Y-82085380D01*
X133074620Y-81929174D01*
X133074616Y-81929171D01*
X133074615Y-81929170D01*
X132893666Y-81802468D01*
X132893658Y-81802464D01*
X132764811Y-81742382D01*
X132712371Y-81696210D01*
X132693219Y-81629017D01*
X132713435Y-81562135D01*
X132764811Y-81517618D01*
X132802612Y-81499991D01*
X132893662Y-81457534D01*
X133074620Y-81330826D01*
X133230826Y-81174620D01*
X133357534Y-80993662D01*
X133450894Y-80793450D01*
X133508070Y-80580068D01*
X133527323Y-80360000D01*
X133526447Y-80349992D01*
X133517455Y-80247203D01*
X133508070Y-80139932D01*
X133450894Y-79926550D01*
X133357534Y-79726339D01*
X133260742Y-79588105D01*
X133230827Y-79545381D01*
X133157818Y-79472372D01*
X133074620Y-79389174D01*
X133074616Y-79389171D01*
X133074615Y-79389170D01*
X132893666Y-79262468D01*
X132893658Y-79262464D01*
X132764811Y-79202382D01*
X132712371Y-79156210D01*
X132693219Y-79089017D01*
X132713435Y-79022135D01*
X132764811Y-78977618D01*
X132810729Y-78956206D01*
X132893662Y-78917534D01*
X133074620Y-78790826D01*
X133230826Y-78634620D01*
X133357534Y-78453662D01*
X133450894Y-78253450D01*
X133508070Y-78040068D01*
X133524831Y-77848481D01*
X133527323Y-77820002D01*
X133527323Y-77819997D01*
X133518940Y-77724182D01*
X133508070Y-77599932D01*
X133450894Y-77386550D01*
X133357534Y-77186339D01*
X133251444Y-77034826D01*
X133230827Y-77005381D01*
X133167972Y-76942526D01*
X133074620Y-76849174D01*
X133074616Y-76849171D01*
X133074615Y-76849170D01*
X132893666Y-76722468D01*
X132893658Y-76722464D01*
X132764811Y-76662382D01*
X132712371Y-76616210D01*
X132693219Y-76549017D01*
X132713435Y-76482135D01*
X132764811Y-76437618D01*
X132770802Y-76434824D01*
X132893662Y-76377534D01*
X133074620Y-76250826D01*
X133230826Y-76094620D01*
X133357534Y-75913662D01*
X133450894Y-75713450D01*
X133508070Y-75500068D01*
X133525257Y-75303616D01*
X133527323Y-75280002D01*
X133527323Y-75279997D01*
X133508070Y-75059937D01*
X133508070Y-75059932D01*
X133450894Y-74846550D01*
X133357534Y-74646339D01*
X133294180Y-74555859D01*
X133230827Y-74465381D01*
X133217094Y-74451648D01*
X133074620Y-74309174D01*
X133074616Y-74309171D01*
X133074615Y-74309170D01*
X132893666Y-74182468D01*
X132893658Y-74182464D01*
X132764811Y-74122382D01*
X132712371Y-74076210D01*
X132693219Y-74009017D01*
X132713435Y-73942135D01*
X132764811Y-73897618D01*
X132770802Y-73894824D01*
X132893662Y-73837534D01*
X133074620Y-73710826D01*
X133230826Y-73554620D01*
X133357534Y-73373662D01*
X133450894Y-73173450D01*
X133508070Y-72960068D01*
X133527323Y-72740000D01*
X133508070Y-72519932D01*
X133450894Y-72306550D01*
X133357534Y-72106339D01*
X133230826Y-71925380D01*
X133074620Y-71769174D01*
X133074616Y-71769171D01*
X133074615Y-71769170D01*
X132893666Y-71642468D01*
X132893658Y-71642464D01*
X132764811Y-71582382D01*
X132712371Y-71536210D01*
X132693219Y-71469017D01*
X132713435Y-71402135D01*
X132764811Y-71357618D01*
X132770802Y-71354824D01*
X132893662Y-71297534D01*
X133074620Y-71170826D01*
X133230826Y-71014620D01*
X133357534Y-70833662D01*
X133450894Y-70633450D01*
X133508070Y-70420068D01*
X133527323Y-70200000D01*
X133508070Y-69979932D01*
X133450894Y-69766550D01*
X133357534Y-69566339D01*
X133230826Y-69385380D01*
X133074620Y-69229174D01*
X133074616Y-69229171D01*
X133074615Y-69229170D01*
X132893666Y-69102468D01*
X132893658Y-69102464D01*
X132764811Y-69042382D01*
X132712371Y-68996210D01*
X132693219Y-68929017D01*
X132713435Y-68862135D01*
X132764811Y-68817618D01*
X132770802Y-68814824D01*
X132893662Y-68757534D01*
X133074620Y-68630826D01*
X133230826Y-68474620D01*
X133357534Y-68293662D01*
X133450894Y-68093450D01*
X133508070Y-67880068D01*
X133527323Y-67660000D01*
X133508070Y-67439932D01*
X133450894Y-67226550D01*
X133357534Y-67026339D01*
X133230826Y-66845380D01*
X133074620Y-66689174D01*
X133074616Y-66689171D01*
X133074615Y-66689170D01*
X132893666Y-66562468D01*
X132893658Y-66562464D01*
X132764811Y-66502382D01*
X132712371Y-66456210D01*
X132693219Y-66389017D01*
X132713435Y-66322135D01*
X132764811Y-66277618D01*
X132770802Y-66274824D01*
X132893662Y-66217534D01*
X133074620Y-66090826D01*
X133230826Y-65934620D01*
X133357534Y-65753662D01*
X133450894Y-65553450D01*
X133508070Y-65340068D01*
X133527323Y-65120000D01*
X133508070Y-64899932D01*
X133450894Y-64686550D01*
X133357534Y-64486339D01*
X133230826Y-64305380D01*
X133074620Y-64149174D01*
X133074616Y-64149171D01*
X133074615Y-64149170D01*
X132893666Y-64022468D01*
X132893658Y-64022464D01*
X132764811Y-63962382D01*
X132712371Y-63916210D01*
X132693219Y-63849017D01*
X132713435Y-63782135D01*
X132764811Y-63737618D01*
X132770802Y-63734824D01*
X132893662Y-63677534D01*
X133074620Y-63550826D01*
X133230826Y-63394620D01*
X133357534Y-63213662D01*
X133450894Y-63013450D01*
X133508070Y-62800068D01*
X133527323Y-62580000D01*
X133508070Y-62359932D01*
X133450894Y-62146550D01*
X133357534Y-61946339D01*
X133230826Y-61765380D01*
X133074620Y-61609174D01*
X133074616Y-61609171D01*
X133074615Y-61609170D01*
X132893666Y-61482468D01*
X132893658Y-61482464D01*
X132764811Y-61422382D01*
X132712371Y-61376210D01*
X132693219Y-61309017D01*
X132713435Y-61242135D01*
X132764811Y-61197618D01*
X132770802Y-61194824D01*
X132893662Y-61137534D01*
X133074620Y-61010826D01*
X133230826Y-60854620D01*
X133357534Y-60673662D01*
X133450894Y-60473450D01*
X133508070Y-60260068D01*
X133522509Y-60095017D01*
X133527323Y-60040002D01*
X133527323Y-60039997D01*
X133508070Y-59819937D01*
X133508070Y-59819932D01*
X133450894Y-59606550D01*
X133357534Y-59406339D01*
X133230826Y-59225380D01*
X133074620Y-59069174D01*
X133074616Y-59069171D01*
X133074615Y-59069170D01*
X132889228Y-58939361D01*
X132890609Y-58937388D01*
X132849423Y-58894204D01*
X132836192Y-58825599D01*
X132862152Y-58760731D01*
X132919062Y-58720196D01*
X132929706Y-58717036D01*
X132946602Y-58712833D01*
X133118275Y-58627692D01*
X133267633Y-58507634D01*
X133267634Y-58507633D01*
X133387692Y-58358275D01*
X133472834Y-58186602D01*
X133519081Y-58000640D01*
X133522000Y-57957604D01*
X133522000Y-57750000D01*
X132548816Y-57750000D01*
X132564876Y-57733940D01*
X132615036Y-57647061D01*
X132641000Y-57550160D01*
X132641000Y-57449840D01*
X132615036Y-57352939D01*
X132564876Y-57266060D01*
X132548816Y-57250000D01*
X133521999Y-57250000D01*
X133521999Y-57042393D01*
X133521998Y-57042390D01*
X133519082Y-56999367D01*
X133519082Y-56999365D01*
X133472834Y-56813397D01*
X133386636Y-56639595D01*
X133374484Y-56570790D01*
X133401460Y-56506338D01*
X133459000Y-56466702D01*
X133497724Y-56460500D01*
X139894108Y-56460500D01*
X146454691Y-56460500D01*
X146521730Y-56480185D01*
X146567485Y-56532989D01*
X146577429Y-56602147D01*
X146548404Y-56665703D01*
X146542372Y-56672181D01*
X146529175Y-56685377D01*
X146402466Y-56866338D01*
X146402465Y-56866340D01*
X146309107Y-57066548D01*
X146309104Y-57066554D01*
X146251930Y-57279929D01*
X146251929Y-57279937D01*
X146232677Y-57499997D01*
X146232677Y-57500002D01*
X146251929Y-57720062D01*
X146251930Y-57720070D01*
X146309104Y-57933445D01*
X146309105Y-57933447D01*
X146309106Y-57933450D01*
X146340437Y-58000640D01*
X146402466Y-58133662D01*
X146402468Y-58133666D01*
X146529170Y-58314615D01*
X146529175Y-58314621D01*
X146685378Y-58470824D01*
X146685384Y-58470829D01*
X146866333Y-58597531D01*
X146866335Y-58597532D01*
X146866338Y-58597534D01*
X146985748Y-58653215D01*
X146995189Y-58657618D01*
X147047628Y-58703790D01*
X147066780Y-58770984D01*
X147046564Y-58837865D01*
X146995189Y-58882382D01*
X146866340Y-58942465D01*
X146866338Y-58942466D01*
X146685377Y-59069175D01*
X146529175Y-59225377D01*
X146402466Y-59406338D01*
X146402465Y-59406340D01*
X146309107Y-59606548D01*
X146309104Y-59606554D01*
X146251930Y-59819929D01*
X146251929Y-59819937D01*
X146232677Y-60039997D01*
X146232677Y-60040002D01*
X146251929Y-60260062D01*
X146251930Y-60260070D01*
X146309104Y-60473445D01*
X146309105Y-60473447D01*
X146309106Y-60473450D01*
X146402466Y-60673662D01*
X146402468Y-60673666D01*
X146529170Y-60854615D01*
X146529175Y-60854621D01*
X146685378Y-61010824D01*
X146685384Y-61010829D01*
X146866333Y-61137531D01*
X146866335Y-61137532D01*
X146866338Y-61137534D01*
X146985748Y-61193215D01*
X146995189Y-61197618D01*
X147047628Y-61243790D01*
X147066780Y-61310984D01*
X147046564Y-61377865D01*
X146995189Y-61422382D01*
X146866340Y-61482465D01*
X146866338Y-61482466D01*
X146685377Y-61609175D01*
X146529175Y-61765377D01*
X146402466Y-61946338D01*
X146402465Y-61946340D01*
X146309107Y-62146548D01*
X146309104Y-62146554D01*
X146251930Y-62359929D01*
X146251929Y-62359937D01*
X146232677Y-62579997D01*
X146232677Y-62580002D01*
X146251929Y-62800062D01*
X146251930Y-62800070D01*
X146309104Y-63013445D01*
X146309105Y-63013447D01*
X146309106Y-63013450D01*
X146402466Y-63213662D01*
X146402468Y-63213666D01*
X146529170Y-63394615D01*
X146529175Y-63394621D01*
X146685378Y-63550824D01*
X146685384Y-63550829D01*
X146866333Y-63677531D01*
X146866335Y-63677532D01*
X146866338Y-63677534D01*
X146985748Y-63733215D01*
X146995189Y-63737618D01*
X147047628Y-63783790D01*
X147066780Y-63850984D01*
X147046564Y-63917865D01*
X146995189Y-63962382D01*
X146866340Y-64022465D01*
X146866338Y-64022466D01*
X146685377Y-64149175D01*
X146529175Y-64305377D01*
X146402466Y-64486338D01*
X146402465Y-64486340D01*
X146309107Y-64686548D01*
X146309104Y-64686554D01*
X146251930Y-64899929D01*
X146251929Y-64899937D01*
X146232677Y-65119997D01*
X146232677Y-65120002D01*
X146251929Y-65340062D01*
X146251930Y-65340070D01*
X146309104Y-65553445D01*
X146309105Y-65553447D01*
X146309106Y-65553450D01*
X146402466Y-65753662D01*
X146402468Y-65753666D01*
X146529170Y-65934615D01*
X146529175Y-65934621D01*
X146685378Y-66090824D01*
X146685384Y-66090829D01*
X146866333Y-66217531D01*
X146866335Y-66217532D01*
X146866338Y-66217534D01*
X146985748Y-66273215D01*
X146995189Y-66277618D01*
X147047628Y-66323790D01*
X147066780Y-66390984D01*
X147046564Y-66457865D01*
X146995189Y-66502382D01*
X146866340Y-66562465D01*
X146866338Y-66562466D01*
X146685377Y-66689175D01*
X146529175Y-66845377D01*
X146402466Y-67026338D01*
X146402465Y-67026340D01*
X146309107Y-67226548D01*
X146309104Y-67226554D01*
X146251930Y-67439929D01*
X146251929Y-67439937D01*
X146232677Y-67659997D01*
X146232677Y-67660002D01*
X146251929Y-67880062D01*
X146251930Y-67880070D01*
X146309104Y-68093445D01*
X146309105Y-68093447D01*
X146309106Y-68093450D01*
X146402466Y-68293662D01*
X146402468Y-68293666D01*
X146529170Y-68474615D01*
X146529175Y-68474621D01*
X146685378Y-68630824D01*
X146685384Y-68630829D01*
X146866333Y-68757531D01*
X146866335Y-68757532D01*
X146866338Y-68757534D01*
X146985748Y-68813215D01*
X146995189Y-68817618D01*
X147047628Y-68863790D01*
X147066780Y-68930984D01*
X147046564Y-68997865D01*
X146995189Y-69042382D01*
X146866340Y-69102465D01*
X146866338Y-69102466D01*
X146685377Y-69229175D01*
X146529175Y-69385377D01*
X146402466Y-69566338D01*
X146402465Y-69566340D01*
X146309107Y-69766548D01*
X146309104Y-69766554D01*
X146251930Y-69979929D01*
X146251929Y-69979937D01*
X146232677Y-70199997D01*
X146232677Y-70200002D01*
X146251929Y-70420062D01*
X146251930Y-70420070D01*
X146309104Y-70633445D01*
X146309105Y-70633447D01*
X146309106Y-70633450D01*
X146402466Y-70833662D01*
X146402468Y-70833666D01*
X146529170Y-71014615D01*
X146529175Y-71014621D01*
X146685378Y-71170824D01*
X146685384Y-71170829D01*
X146866333Y-71297531D01*
X146866335Y-71297532D01*
X146866338Y-71297534D01*
X146985748Y-71353215D01*
X146995189Y-71357618D01*
X147047628Y-71403790D01*
X147066780Y-71470984D01*
X147046564Y-71537865D01*
X146995189Y-71582382D01*
X146866340Y-71642465D01*
X146866338Y-71642466D01*
X146685377Y-71769175D01*
X146529175Y-71925377D01*
X146402466Y-72106338D01*
X146402465Y-72106340D01*
X146309107Y-72306548D01*
X146309104Y-72306554D01*
X146251930Y-72519929D01*
X146251929Y-72519937D01*
X146232677Y-72739997D01*
X146232677Y-72740002D01*
X146251929Y-72960062D01*
X146251930Y-72960070D01*
X146309104Y-73173445D01*
X146309105Y-73173447D01*
X146309106Y-73173450D01*
X146365035Y-73293390D01*
X146402466Y-73373662D01*
X146402468Y-73373666D01*
X146529170Y-73554615D01*
X146529175Y-73554621D01*
X146685378Y-73710824D01*
X146685384Y-73710829D01*
X146866333Y-73837531D01*
X146866335Y-73837532D01*
X146866338Y-73837534D01*
X146985748Y-73893215D01*
X146995189Y-73897618D01*
X147047628Y-73943790D01*
X147066780Y-74010984D01*
X147046564Y-74077865D01*
X146995189Y-74122382D01*
X146866340Y-74182465D01*
X146866338Y-74182466D01*
X146685377Y-74309175D01*
X146529175Y-74465377D01*
X146402466Y-74646338D01*
X146402465Y-74646340D01*
X146309107Y-74846548D01*
X146309104Y-74846554D01*
X146251930Y-75059929D01*
X146251929Y-75059937D01*
X146232677Y-75279997D01*
X146232677Y-75280002D01*
X146251929Y-75500062D01*
X146251930Y-75500070D01*
X146309104Y-75713445D01*
X146309105Y-75713447D01*
X146309106Y-75713450D01*
X146401554Y-75911706D01*
X146402466Y-75913662D01*
X146402468Y-75913666D01*
X146529170Y-76094615D01*
X146529175Y-76094621D01*
X146685378Y-76250824D01*
X146685384Y-76250829D01*
X146866333Y-76377531D01*
X146866335Y-76377532D01*
X146866338Y-76377534D01*
X146985748Y-76433215D01*
X146995189Y-76437618D01*
X147047628Y-76483790D01*
X147066780Y-76550984D01*
X147046564Y-76617865D01*
X146995189Y-76662382D01*
X146866340Y-76722465D01*
X146866338Y-76722466D01*
X146685377Y-76849175D01*
X146529175Y-77005377D01*
X146402466Y-77186338D01*
X146402465Y-77186340D01*
X146336821Y-77327114D01*
X146313840Y-77376399D01*
X146309107Y-77386548D01*
X146309104Y-77386554D01*
X146251930Y-77599929D01*
X146251929Y-77599937D01*
X146232677Y-77819997D01*
X146232677Y-77820002D01*
X146251929Y-78040062D01*
X146251930Y-78040070D01*
X146309104Y-78253445D01*
X146309105Y-78253447D01*
X146309106Y-78253450D01*
X146357395Y-78357007D01*
X146402466Y-78453662D01*
X146402468Y-78453666D01*
X146529170Y-78634615D01*
X146529175Y-78634621D01*
X146685378Y-78790824D01*
X146685384Y-78790829D01*
X146866333Y-78917531D01*
X146866335Y-78917532D01*
X146866338Y-78917534D01*
X146949271Y-78956206D01*
X146995189Y-78977618D01*
X147047628Y-79023790D01*
X147066780Y-79090984D01*
X147046564Y-79157865D01*
X146995189Y-79202382D01*
X146866340Y-79262465D01*
X146866338Y-79262466D01*
X146685377Y-79389175D01*
X146529175Y-79545377D01*
X146402466Y-79726338D01*
X146402465Y-79726340D01*
X146309107Y-79926548D01*
X146309104Y-79926554D01*
X146251930Y-80139929D01*
X146251929Y-80139937D01*
X146232677Y-80359997D01*
X146232677Y-80360002D01*
X146251929Y-80580062D01*
X146251930Y-80580070D01*
X146309104Y-80793445D01*
X146309105Y-80793447D01*
X146309106Y-80793450D01*
X146366196Y-80915880D01*
X146402466Y-80993662D01*
X146402468Y-80993666D01*
X146529170Y-81174615D01*
X146529175Y-81174621D01*
X146685378Y-81330824D01*
X146685384Y-81330829D01*
X146866333Y-81457531D01*
X146866335Y-81457532D01*
X146866338Y-81457534D01*
X146952554Y-81497737D01*
X146995189Y-81517618D01*
X147047628Y-81563790D01*
X147066780Y-81630984D01*
X147046564Y-81697865D01*
X146995189Y-81742382D01*
X146866340Y-81802465D01*
X146866338Y-81802466D01*
X146685377Y-81929175D01*
X146529175Y-82085377D01*
X146402466Y-82266338D01*
X146402465Y-82266340D01*
X146309107Y-82466548D01*
X146309104Y-82466554D01*
X146251930Y-82679929D01*
X146251929Y-82679937D01*
X146232677Y-82899997D01*
X146232677Y-82900002D01*
X146251929Y-83120062D01*
X146251930Y-83120070D01*
X146309104Y-83333445D01*
X146309105Y-83333447D01*
X146309106Y-83333450D01*
X146390500Y-83508000D01*
X146402466Y-83533662D01*
X146402468Y-83533666D01*
X146529170Y-83714615D01*
X146529175Y-83714621D01*
X146685378Y-83870824D01*
X146685384Y-83870829D01*
X146866333Y-83997531D01*
X146866335Y-83997532D01*
X146866338Y-83997534D01*
X146962670Y-84042454D01*
X146995189Y-84057618D01*
X147047628Y-84103790D01*
X147066780Y-84170984D01*
X147046564Y-84237865D01*
X146995189Y-84282382D01*
X146866340Y-84342465D01*
X146866338Y-84342466D01*
X146685377Y-84469175D01*
X146529175Y-84625377D01*
X146402466Y-84806338D01*
X146402465Y-84806340D01*
X146309107Y-85006548D01*
X146309104Y-85006554D01*
X146251930Y-85219929D01*
X146251929Y-85219937D01*
X146232677Y-85439997D01*
X146232677Y-85440002D01*
X146251929Y-85660062D01*
X146251930Y-85660070D01*
X146309104Y-85873445D01*
X146309105Y-85873447D01*
X146309106Y-85873450D01*
X146390500Y-86048000D01*
X146402466Y-86073662D01*
X146402468Y-86073666D01*
X146529170Y-86254615D01*
X146529175Y-86254621D01*
X146685378Y-86410824D01*
X146685384Y-86410829D01*
X146866333Y-86537531D01*
X146866335Y-86537532D01*
X146866338Y-86537534D01*
X146985748Y-86593215D01*
X146995189Y-86597618D01*
X147047628Y-86643790D01*
X147066780Y-86710984D01*
X147046564Y-86777865D01*
X146995189Y-86822382D01*
X146866340Y-86882465D01*
X146866338Y-86882466D01*
X146685377Y-87009175D01*
X146529175Y-87165377D01*
X146402466Y-87346338D01*
X146402465Y-87346340D01*
X146309107Y-87546548D01*
X146309104Y-87546554D01*
X146251930Y-87759929D01*
X146251929Y-87759937D01*
X146232677Y-87979997D01*
X146232677Y-87980002D01*
X146251929Y-88200062D01*
X146251930Y-88200070D01*
X146309104Y-88413445D01*
X146309105Y-88413447D01*
X146309106Y-88413450D01*
X146332445Y-88463500D01*
X146402466Y-88613662D01*
X146402468Y-88613666D01*
X146529170Y-88794615D01*
X146529175Y-88794621D01*
X146685378Y-88950824D01*
X146685384Y-88950829D01*
X146866333Y-89077531D01*
X146866335Y-89077532D01*
X146866338Y-89077534D01*
X146946159Y-89114755D01*
X146995189Y-89137618D01*
X147047628Y-89183790D01*
X147066780Y-89250984D01*
X147046564Y-89317865D01*
X146995189Y-89362382D01*
X146866340Y-89422465D01*
X146866338Y-89422466D01*
X146685377Y-89549175D01*
X146529175Y-89705377D01*
X146402466Y-89886338D01*
X146402465Y-89886340D01*
X146309107Y-90086548D01*
X146309104Y-90086554D01*
X146251930Y-90299929D01*
X146251929Y-90299937D01*
X146232677Y-90519997D01*
X146232677Y-90520002D01*
X146251929Y-90740062D01*
X146251930Y-90740070D01*
X146309104Y-90953445D01*
X146309105Y-90953447D01*
X146309106Y-90953450D01*
X146399762Y-91147864D01*
X146402466Y-91153662D01*
X146402468Y-91153666D01*
X146529170Y-91334615D01*
X146529175Y-91334621D01*
X146685378Y-91490824D01*
X146685384Y-91490829D01*
X146866333Y-91617531D01*
X146866335Y-91617532D01*
X146866338Y-91617534D01*
X146942666Y-91653126D01*
X146995189Y-91677618D01*
X147047628Y-91723790D01*
X147066780Y-91790984D01*
X147046564Y-91857865D01*
X146995189Y-91902382D01*
X146866340Y-91962465D01*
X146866338Y-91962466D01*
X146685377Y-92089175D01*
X146529175Y-92245377D01*
X146402466Y-92426338D01*
X146402465Y-92426340D01*
X146309107Y-92626548D01*
X146309104Y-92626554D01*
X146251930Y-92839929D01*
X146251929Y-92839937D01*
X146232677Y-93059997D01*
X146232677Y-93060002D01*
X146251929Y-93280062D01*
X146251930Y-93280070D01*
X146309104Y-93493445D01*
X146309105Y-93493447D01*
X146309106Y-93493450D01*
X146337614Y-93554586D01*
X146402466Y-93693662D01*
X146402468Y-93693666D01*
X146529170Y-93874615D01*
X146529175Y-93874621D01*
X146685378Y-94030824D01*
X146685384Y-94030829D01*
X146866333Y-94157531D01*
X146866335Y-94157532D01*
X146866338Y-94157534D01*
X146922306Y-94183632D01*
X146995189Y-94217618D01*
X147047628Y-94263790D01*
X147066780Y-94330984D01*
X147046564Y-94397865D01*
X146995189Y-94442382D01*
X146866340Y-94502465D01*
X146866338Y-94502466D01*
X146685377Y-94629175D01*
X146529175Y-94785377D01*
X146402466Y-94966338D01*
X146402465Y-94966340D01*
X146309107Y-95166548D01*
X146309104Y-95166554D01*
X146251930Y-95379929D01*
X146251929Y-95379937D01*
X146232677Y-95599997D01*
X146232677Y-95600002D01*
X146251929Y-95820062D01*
X146251930Y-95820070D01*
X146309104Y-96033445D01*
X146309105Y-96033447D01*
X146309106Y-96033450D01*
X146386768Y-96199998D01*
X146402466Y-96233662D01*
X146402468Y-96233666D01*
X146529170Y-96414615D01*
X146529175Y-96414621D01*
X146685378Y-96570824D01*
X146685384Y-96570829D01*
X146866333Y-96697531D01*
X146866335Y-96697532D01*
X146866338Y-96697534D01*
X146913760Y-96719647D01*
X146995189Y-96757618D01*
X147047628Y-96803790D01*
X147066780Y-96870984D01*
X147046564Y-96937865D01*
X146995189Y-96982382D01*
X146866340Y-97042465D01*
X146866338Y-97042466D01*
X146685377Y-97169175D01*
X146529175Y-97325377D01*
X146402466Y-97506338D01*
X146402465Y-97506340D01*
X146309107Y-97706548D01*
X146309104Y-97706554D01*
X146251930Y-97919929D01*
X146251929Y-97919937D01*
X146232677Y-98139997D01*
X146232677Y-98140002D01*
X146251929Y-98360062D01*
X146251930Y-98360070D01*
X146309104Y-98573445D01*
X146309105Y-98573447D01*
X146309106Y-98573450D01*
X146355721Y-98673417D01*
X146402466Y-98773662D01*
X146402468Y-98773666D01*
X146529170Y-98954615D01*
X146529175Y-98954621D01*
X146685378Y-99110824D01*
X146685384Y-99110829D01*
X146866333Y-99237531D01*
X146866335Y-99237532D01*
X146866338Y-99237534D01*
X146985748Y-99293215D01*
X146995189Y-99297618D01*
X147047628Y-99343790D01*
X147066780Y-99410984D01*
X147046564Y-99477865D01*
X146995189Y-99522382D01*
X146866340Y-99582465D01*
X146866338Y-99582466D01*
X146685377Y-99709175D01*
X146529175Y-99865377D01*
X146402466Y-100046338D01*
X146402465Y-100046340D01*
X146319572Y-100224103D01*
X146315847Y-100232095D01*
X146309107Y-100246548D01*
X146309104Y-100246554D01*
X146251930Y-100459929D01*
X146251929Y-100459937D01*
X146232677Y-100679997D01*
X146232677Y-100680002D01*
X146251929Y-100900062D01*
X146251930Y-100900070D01*
X146309104Y-101113445D01*
X146309105Y-101113447D01*
X146309106Y-101113450D01*
X146389272Y-101285368D01*
X146402466Y-101313662D01*
X146402468Y-101313666D01*
X146529170Y-101494615D01*
X146529175Y-101494621D01*
X146685378Y-101650824D01*
X146685384Y-101650829D01*
X146866333Y-101777531D01*
X146866335Y-101777532D01*
X146866338Y-101777534D01*
X146974713Y-101828070D01*
X146995189Y-101837618D01*
X147047628Y-101883790D01*
X147066780Y-101950984D01*
X147046564Y-102017865D01*
X146995189Y-102062382D01*
X146866340Y-102122465D01*
X146866338Y-102122466D01*
X146685377Y-102249175D01*
X146529175Y-102405377D01*
X146402466Y-102586338D01*
X146402465Y-102586340D01*
X146309107Y-102786548D01*
X146309104Y-102786554D01*
X146251930Y-102999929D01*
X146251929Y-102999937D01*
X146232677Y-103219997D01*
X146232677Y-103220002D01*
X146251929Y-103440062D01*
X146251930Y-103440070D01*
X146309104Y-103653445D01*
X146309105Y-103653447D01*
X146309106Y-103653450D01*
X146398661Y-103845502D01*
X146402466Y-103853662D01*
X146402468Y-103853666D01*
X146529170Y-104034615D01*
X146529175Y-104034621D01*
X146685378Y-104190824D01*
X146685384Y-104190829D01*
X146866333Y-104317531D01*
X146866335Y-104317532D01*
X146866338Y-104317534D01*
X146974713Y-104368070D01*
X146995189Y-104377618D01*
X147047628Y-104423790D01*
X147066780Y-104490984D01*
X147046564Y-104557865D01*
X146995189Y-104602382D01*
X146866340Y-104662465D01*
X146866338Y-104662466D01*
X146685377Y-104789175D01*
X146529175Y-104945377D01*
X146402466Y-105126338D01*
X146402465Y-105126340D01*
X146309107Y-105326548D01*
X146309106Y-105326550D01*
X146251930Y-105539929D01*
X146251929Y-105539937D01*
X146232677Y-105759997D01*
X146232677Y-105760002D01*
X146251929Y-105980062D01*
X146251930Y-105980070D01*
X146309104Y-106193445D01*
X146309105Y-106193447D01*
X146309106Y-106193450D01*
X146398661Y-106385502D01*
X146402466Y-106393662D01*
X146402468Y-106393666D01*
X146529170Y-106574615D01*
X146529175Y-106574621D01*
X146685378Y-106730824D01*
X146685384Y-106730829D01*
X146866333Y-106857531D01*
X146866335Y-106857532D01*
X146866338Y-106857534D01*
X146974713Y-106908070D01*
X146995189Y-106917618D01*
X147047628Y-106963790D01*
X147066780Y-107030984D01*
X147046564Y-107097865D01*
X146995189Y-107142382D01*
X146866340Y-107202465D01*
X146866338Y-107202466D01*
X146685377Y-107329175D01*
X146529175Y-107485377D01*
X146402466Y-107666338D01*
X146402465Y-107666340D01*
X146309107Y-107866548D01*
X146309104Y-107866554D01*
X146251930Y-108079929D01*
X146251929Y-108079937D01*
X146232677Y-108299997D01*
X146232677Y-108300002D01*
X146251929Y-108520062D01*
X146251930Y-108520070D01*
X146309104Y-108733445D01*
X146309105Y-108733447D01*
X146309106Y-108733450D01*
X146369663Y-108863315D01*
X146402466Y-108933662D01*
X146402468Y-108933666D01*
X146529170Y-109114615D01*
X146529175Y-109114621D01*
X146685378Y-109270824D01*
X146685384Y-109270829D01*
X146866333Y-109397531D01*
X146866335Y-109397532D01*
X146866338Y-109397534D01*
X146974713Y-109448070D01*
X146995189Y-109457618D01*
X147047628Y-109503790D01*
X147066780Y-109570984D01*
X147046564Y-109637865D01*
X146995189Y-109682382D01*
X146866340Y-109742465D01*
X146866338Y-109742466D01*
X146685377Y-109869175D01*
X146529175Y-110025377D01*
X146402466Y-110206338D01*
X146402465Y-110206340D01*
X146309107Y-110406548D01*
X146309104Y-110406554D01*
X146251930Y-110619929D01*
X146251929Y-110619937D01*
X146232677Y-110839997D01*
X146232677Y-110840002D01*
X146251929Y-111060062D01*
X146251930Y-111060070D01*
X146309104Y-111273445D01*
X146309105Y-111273447D01*
X146309106Y-111273450D01*
X146358705Y-111379815D01*
X146402466Y-111473662D01*
X146402468Y-111473666D01*
X146529170Y-111654615D01*
X146529175Y-111654621D01*
X146685378Y-111810824D01*
X146685384Y-111810829D01*
X146866333Y-111937531D01*
X146866335Y-111937532D01*
X146866338Y-111937534D01*
X146974713Y-111988070D01*
X146995189Y-111997618D01*
X147047628Y-112043790D01*
X147066780Y-112110984D01*
X147046564Y-112177865D01*
X146995189Y-112222382D01*
X146866340Y-112282465D01*
X146866338Y-112282466D01*
X146685377Y-112409175D01*
X146529175Y-112565377D01*
X146402466Y-112746338D01*
X146402465Y-112746340D01*
X146309107Y-112946548D01*
X146309104Y-112946554D01*
X146251930Y-113159929D01*
X146251929Y-113159937D01*
X146232677Y-113379997D01*
X146232677Y-113380002D01*
X146251929Y-113600062D01*
X146251930Y-113600070D01*
X146309104Y-113813445D01*
X146309105Y-113813447D01*
X146309106Y-113813450D01*
X146360448Y-113923553D01*
X146402466Y-114013662D01*
X146402468Y-114013666D01*
X146529170Y-114194615D01*
X146529175Y-114194621D01*
X146685378Y-114350824D01*
X146685384Y-114350829D01*
X146866333Y-114477531D01*
X146866335Y-114477532D01*
X146866338Y-114477534D01*
X146951767Y-114517370D01*
X146995189Y-114537618D01*
X147047628Y-114583790D01*
X147066780Y-114650984D01*
X147046564Y-114717865D01*
X146995189Y-114762382D01*
X146866340Y-114822465D01*
X146866338Y-114822466D01*
X146685377Y-114949175D01*
X146529175Y-115105377D01*
X146402466Y-115286338D01*
X146402465Y-115286340D01*
X146309107Y-115486548D01*
X146309104Y-115486554D01*
X146251930Y-115699929D01*
X146251929Y-115699937D01*
X146232677Y-115919997D01*
X146232677Y-115920002D01*
X146251929Y-116140062D01*
X146251930Y-116140070D01*
X146309104Y-116353445D01*
X146309105Y-116353447D01*
X146309106Y-116353450D01*
X146402466Y-116553662D01*
X146402468Y-116553666D01*
X146529170Y-116734615D01*
X146529175Y-116734621D01*
X146685378Y-116890824D01*
X146685384Y-116890829D01*
X146866333Y-117017531D01*
X146866335Y-117017532D01*
X146866338Y-117017534D01*
X147066550Y-117110894D01*
X147279932Y-117168070D01*
X147437123Y-117181822D01*
X147499998Y-117187323D01*
X147500000Y-117187323D01*
X147500002Y-117187323D01*
X147555017Y-117182509D01*
X147720068Y-117168070D01*
X147933450Y-117110894D01*
X148133662Y-117017534D01*
X148314620Y-116890826D01*
X148470826Y-116734620D01*
X148597534Y-116553662D01*
X148690894Y-116353450D01*
X148748070Y-116140068D01*
X148767323Y-115920000D01*
X148763746Y-115879119D01*
X148760103Y-115837474D01*
X148748070Y-115699932D01*
X148690894Y-115486550D01*
X148597534Y-115286339D01*
X148470826Y-115105380D01*
X148314620Y-114949174D01*
X148314616Y-114949171D01*
X148314615Y-114949170D01*
X148133666Y-114822468D01*
X148133658Y-114822464D01*
X148004811Y-114762382D01*
X147952371Y-114716210D01*
X147933219Y-114649017D01*
X147953435Y-114582135D01*
X148004811Y-114537618D01*
X148048233Y-114517370D01*
X148133662Y-114477534D01*
X148314620Y-114350826D01*
X148470826Y-114194620D01*
X148597534Y-114013662D01*
X148690894Y-113813450D01*
X148748070Y-113600068D01*
X148767323Y-113380000D01*
X148748070Y-113159932D01*
X148690894Y-112946550D01*
X148597534Y-112746339D01*
X148527513Y-112646338D01*
X148470827Y-112565381D01*
X148470823Y-112565377D01*
X148314620Y-112409174D01*
X148314616Y-112409171D01*
X148314615Y-112409170D01*
X148133666Y-112282468D01*
X148133658Y-112282464D01*
X148004811Y-112222382D01*
X147952371Y-112176210D01*
X147933219Y-112109017D01*
X147953435Y-112042135D01*
X148004811Y-111997618D01*
X148025287Y-111988070D01*
X148133662Y-111937534D01*
X148314620Y-111810826D01*
X148470826Y-111654620D01*
X148597534Y-111473662D01*
X148690894Y-111273450D01*
X148748070Y-111060068D01*
X148767323Y-110840000D01*
X148748070Y-110619932D01*
X148690894Y-110406550D01*
X148597534Y-110206339D01*
X148470826Y-110025380D01*
X148314620Y-109869174D01*
X148314616Y-109869171D01*
X148314615Y-109869170D01*
X148133666Y-109742468D01*
X148133658Y-109742464D01*
X148004811Y-109682382D01*
X147952371Y-109636210D01*
X147933219Y-109569017D01*
X147953435Y-109502135D01*
X148004811Y-109457618D01*
X148025287Y-109448070D01*
X148133662Y-109397534D01*
X148314620Y-109270826D01*
X148470826Y-109114620D01*
X148597534Y-108933662D01*
X148690894Y-108733450D01*
X148748070Y-108520068D01*
X148767225Y-108301121D01*
X148767323Y-108300002D01*
X148767323Y-108299997D01*
X148759307Y-108208378D01*
X148748070Y-108079932D01*
X148690894Y-107866550D01*
X148597534Y-107666339D01*
X148470826Y-107485380D01*
X148314620Y-107329174D01*
X148314616Y-107329171D01*
X148314615Y-107329170D01*
X148133666Y-107202468D01*
X148133658Y-107202464D01*
X148004811Y-107142382D01*
X147952371Y-107096210D01*
X147933219Y-107029017D01*
X147953435Y-106962135D01*
X148004811Y-106917618D01*
X148025287Y-106908070D01*
X148133662Y-106857534D01*
X148314620Y-106730826D01*
X148470826Y-106574620D01*
X148597534Y-106393662D01*
X148690894Y-106193450D01*
X148748070Y-105980068D01*
X148762509Y-105815017D01*
X148767323Y-105760002D01*
X148767323Y-105759997D01*
X148758760Y-105662117D01*
X148748070Y-105539932D01*
X148690894Y-105326550D01*
X148597534Y-105126339D01*
X148524817Y-105022487D01*
X148470827Y-104945381D01*
X148419553Y-104894107D01*
X148314620Y-104789174D01*
X148314616Y-104789171D01*
X148314615Y-104789170D01*
X148133666Y-104662468D01*
X148133658Y-104662464D01*
X148004811Y-104602382D01*
X147952371Y-104556210D01*
X147933219Y-104489017D01*
X147953435Y-104422135D01*
X148004811Y-104377618D01*
X148025287Y-104368070D01*
X148133662Y-104317534D01*
X148314620Y-104190826D01*
X148470826Y-104034620D01*
X148597534Y-103853662D01*
X148690894Y-103653450D01*
X148748070Y-103440068D01*
X148767323Y-103220000D01*
X148748070Y-102999932D01*
X148690894Y-102786550D01*
X148597534Y-102586339D01*
X148506183Y-102455875D01*
X148470827Y-102405381D01*
X148405385Y-102339939D01*
X148314620Y-102249174D01*
X148314616Y-102249171D01*
X148314615Y-102249170D01*
X148133666Y-102122468D01*
X148133658Y-102122464D01*
X148004811Y-102062382D01*
X147952371Y-102016210D01*
X147933219Y-101949017D01*
X147953435Y-101882135D01*
X148004811Y-101837618D01*
X148010802Y-101834824D01*
X148133662Y-101777534D01*
X148314620Y-101650826D01*
X148470826Y-101494620D01*
X148597534Y-101313662D01*
X148690894Y-101113450D01*
X148748070Y-100900068D01*
X148767323Y-100680000D01*
X148767257Y-100679249D01*
X148759858Y-100594673D01*
X148748070Y-100459932D01*
X148690894Y-100246550D01*
X148597534Y-100046339D01*
X148519443Y-99934813D01*
X148470827Y-99865381D01*
X148393393Y-99787947D01*
X148314620Y-99709174D01*
X148314616Y-99709171D01*
X148314615Y-99709170D01*
X148133666Y-99582468D01*
X148133658Y-99582464D01*
X148004811Y-99522382D01*
X147952371Y-99476210D01*
X147933219Y-99409017D01*
X147953435Y-99342135D01*
X148004811Y-99297618D01*
X148010802Y-99294824D01*
X148133662Y-99237534D01*
X148314620Y-99110826D01*
X148470826Y-98954620D01*
X148597534Y-98773662D01*
X148690894Y-98573450D01*
X148730671Y-98425000D01*
X158550000Y-98425000D01*
X159500000Y-98425000D01*
X159500000Y-97662500D01*
X160000000Y-97662500D01*
X160000000Y-98425000D01*
X160949999Y-98425000D01*
X160949999Y-98362528D01*
X160949998Y-98362513D01*
X160939505Y-98259802D01*
X160884358Y-98093380D01*
X160884356Y-98093375D01*
X160792315Y-97944154D01*
X160668345Y-97820184D01*
X160562666Y-97755000D01*
X163105000Y-97755000D01*
X163105000Y-98460000D01*
X164130000Y-98460000D01*
X164130000Y-97755000D01*
X164630000Y-97755000D01*
X164630000Y-98460000D01*
X165680000Y-98460000D01*
X165680000Y-97755000D01*
X166180000Y-97755000D01*
X166180000Y-98460000D01*
X167205000Y-98460000D01*
X167205000Y-97755000D01*
X166180000Y-97755000D01*
X165680000Y-97755000D01*
X164630000Y-97755000D01*
X164130000Y-97755000D01*
X163105000Y-97755000D01*
X160562666Y-97755000D01*
X160519124Y-97728143D01*
X160519119Y-97728141D01*
X160352697Y-97672994D01*
X160352690Y-97672993D01*
X160249986Y-97662500D01*
X160000000Y-97662500D01*
X159500000Y-97662500D01*
X159250029Y-97662500D01*
X159250012Y-97662501D01*
X159147302Y-97672994D01*
X158980880Y-97728141D01*
X158980875Y-97728143D01*
X158831654Y-97820184D01*
X158707684Y-97944154D01*
X158615643Y-98093375D01*
X158615641Y-98093380D01*
X158560494Y-98259802D01*
X158560493Y-98259809D01*
X158550000Y-98362513D01*
X158550000Y-98425000D01*
X148730671Y-98425000D01*
X148748070Y-98360068D01*
X148767323Y-98140000D01*
X148748070Y-97919932D01*
X148690894Y-97706550D01*
X148597534Y-97506339D01*
X148534180Y-97415859D01*
X148470827Y-97325381D01*
X148400446Y-97255000D01*
X148314620Y-97169174D01*
X148314616Y-97169171D01*
X148314615Y-97169170D01*
X148133666Y-97042468D01*
X148133658Y-97042464D01*
X148004811Y-96982382D01*
X147952371Y-96936210D01*
X147933219Y-96869017D01*
X147953435Y-96802135D01*
X148004811Y-96757618D01*
X148010802Y-96754824D01*
X148133662Y-96697534D01*
X148314620Y-96570826D01*
X148470826Y-96414620D01*
X148597534Y-96233662D01*
X148690894Y-96033450D01*
X148748070Y-95820068D01*
X148767323Y-95600000D01*
X148748070Y-95379932D01*
X148690894Y-95166550D01*
X148597534Y-94966339D01*
X148506843Y-94836818D01*
X148470827Y-94785381D01*
X148395254Y-94709808D01*
X148314620Y-94629174D01*
X148314616Y-94629171D01*
X148314615Y-94629170D01*
X148133666Y-94502468D01*
X148133658Y-94502464D01*
X148004811Y-94442382D01*
X147952371Y-94396210D01*
X147933219Y-94329017D01*
X147953435Y-94262135D01*
X148004811Y-94217618D01*
X148010802Y-94214824D01*
X148133662Y-94157534D01*
X148314620Y-94030826D01*
X148470826Y-93874620D01*
X148597534Y-93693662D01*
X148690894Y-93493450D01*
X148748070Y-93280068D01*
X148767323Y-93060000D01*
X148766770Y-93053682D01*
X148748070Y-92839937D01*
X148748070Y-92839932D01*
X148690894Y-92626550D01*
X148597534Y-92426339D01*
X148534180Y-92335859D01*
X148470827Y-92245381D01*
X148403318Y-92177872D01*
X148314620Y-92089174D01*
X148314616Y-92089171D01*
X148314615Y-92089170D01*
X148133666Y-91962468D01*
X148133658Y-91962464D01*
X148004811Y-91902382D01*
X147952371Y-91856210D01*
X147933219Y-91789017D01*
X147953435Y-91722135D01*
X148004811Y-91677618D01*
X148057334Y-91653126D01*
X148133662Y-91617534D01*
X148314620Y-91490826D01*
X148470826Y-91334620D01*
X148597534Y-91153662D01*
X148690894Y-90953450D01*
X148748070Y-90740068D01*
X148767323Y-90520000D01*
X148748070Y-90299932D01*
X148690894Y-90086550D01*
X148597534Y-89886339D01*
X148502069Y-89750000D01*
X148470827Y-89705381D01*
X148397818Y-89632372D01*
X148314620Y-89549174D01*
X148314616Y-89549171D01*
X148314615Y-89549170D01*
X148133666Y-89422468D01*
X148133658Y-89422464D01*
X148004811Y-89362382D01*
X147952371Y-89316210D01*
X147933219Y-89249017D01*
X147953435Y-89182135D01*
X148004811Y-89137618D01*
X148018182Y-89131383D01*
X148133662Y-89077534D01*
X148314620Y-88950826D01*
X148470826Y-88794620D01*
X148597534Y-88613662D01*
X148690894Y-88413450D01*
X148748070Y-88200068D01*
X148767323Y-87980000D01*
X148763591Y-87937347D01*
X148748070Y-87759937D01*
X148748070Y-87759932D01*
X148690894Y-87546550D01*
X148597534Y-87346339D01*
X148518389Y-87233308D01*
X148470827Y-87165381D01*
X148397818Y-87092372D01*
X148314620Y-87009174D01*
X148314616Y-87009171D01*
X148314615Y-87009170D01*
X148133666Y-86882468D01*
X148133658Y-86882464D01*
X148004811Y-86822382D01*
X147952371Y-86776210D01*
X147933219Y-86709017D01*
X147953435Y-86642135D01*
X148004811Y-86597618D01*
X148012375Y-86594091D01*
X148133662Y-86537534D01*
X148314620Y-86410826D01*
X148470826Y-86254620D01*
X148597534Y-86073662D01*
X148690894Y-85873450D01*
X148748070Y-85660068D01*
X148767323Y-85440000D01*
X148763587Y-85397302D01*
X148755286Y-85302414D01*
X148748070Y-85219932D01*
X148690894Y-85006550D01*
X148597534Y-84806339D01*
X148534180Y-84715859D01*
X148470827Y-84625381D01*
X148397818Y-84552372D01*
X148314620Y-84469174D01*
X148314616Y-84469171D01*
X148314615Y-84469170D01*
X148133666Y-84342468D01*
X148133658Y-84342464D01*
X148004811Y-84282382D01*
X147952371Y-84236210D01*
X147933219Y-84169017D01*
X147953435Y-84102135D01*
X148004811Y-84057618D01*
X148037330Y-84042454D01*
X148133662Y-83997534D01*
X148314620Y-83870826D01*
X148470826Y-83714620D01*
X148597534Y-83533662D01*
X148690894Y-83333450D01*
X148748070Y-83120068D01*
X148767323Y-82900000D01*
X148766031Y-82885236D01*
X148756590Y-82777315D01*
X148748070Y-82679932D01*
X148690894Y-82466550D01*
X148597534Y-82266339D01*
X148470826Y-82085380D01*
X148345446Y-81960000D01*
X160210001Y-81960000D01*
X160210001Y-82234986D01*
X160220494Y-82337697D01*
X160275641Y-82504119D01*
X160275643Y-82504124D01*
X160367684Y-82653345D01*
X160491654Y-82777315D01*
X160640875Y-82869356D01*
X160640880Y-82869358D01*
X160807302Y-82924505D01*
X160807309Y-82924506D01*
X160910019Y-82934999D01*
X160959999Y-82934998D01*
X160960000Y-82934998D01*
X160960000Y-81960000D01*
X160210001Y-81960000D01*
X148345446Y-81960000D01*
X148314620Y-81929174D01*
X148314616Y-81929171D01*
X148314615Y-81929170D01*
X148133666Y-81802468D01*
X148133658Y-81802464D01*
X148004811Y-81742382D01*
X147952371Y-81696210D01*
X147933219Y-81629017D01*
X147953435Y-81562135D01*
X148004811Y-81517618D01*
X148042612Y-81499991D01*
X148133662Y-81457534D01*
X148314620Y-81330826D01*
X148470826Y-81174620D01*
X148597534Y-80993662D01*
X148690894Y-80793450D01*
X148748070Y-80580068D01*
X148767323Y-80360000D01*
X148766447Y-80349992D01*
X148757455Y-80247203D01*
X148748070Y-80139932D01*
X148690894Y-79926550D01*
X148597534Y-79726339D01*
X148500742Y-79588105D01*
X148470827Y-79545381D01*
X148397818Y-79472372D01*
X148314620Y-79389174D01*
X148314616Y-79389171D01*
X148314615Y-79389170D01*
X148133666Y-79262468D01*
X148133658Y-79262464D01*
X148004811Y-79202382D01*
X147952371Y-79156210D01*
X147933219Y-79089017D01*
X147953435Y-79022135D01*
X148004811Y-78977618D01*
X148050729Y-78956206D01*
X148133662Y-78917534D01*
X148314620Y-78790826D01*
X148470826Y-78634620D01*
X148597534Y-78453662D01*
X148690894Y-78253450D01*
X148748070Y-78040068D01*
X148764831Y-77848481D01*
X148767323Y-77820002D01*
X148767323Y-77819997D01*
X148758940Y-77724182D01*
X148748070Y-77599932D01*
X148690894Y-77386550D01*
X148597534Y-77186339D01*
X148491444Y-77034826D01*
X148470827Y-77005381D01*
X148407972Y-76942526D01*
X148314620Y-76849174D01*
X148314616Y-76849171D01*
X148314615Y-76849170D01*
X148133666Y-76722468D01*
X148133658Y-76722464D01*
X148004811Y-76662382D01*
X147952371Y-76616210D01*
X147933219Y-76549017D01*
X147953435Y-76482135D01*
X148004811Y-76437618D01*
X148010802Y-76434824D01*
X148133662Y-76377534D01*
X148314620Y-76250826D01*
X148470826Y-76094620D01*
X148597534Y-75913662D01*
X148690894Y-75713450D01*
X148748070Y-75500068D01*
X148765257Y-75303616D01*
X148767323Y-75280002D01*
X148767323Y-75279997D01*
X148748070Y-75059937D01*
X148748070Y-75059932D01*
X148690894Y-74846550D01*
X148597534Y-74646339D01*
X148534180Y-74555859D01*
X148470827Y-74465381D01*
X148457094Y-74451648D01*
X148314620Y-74309174D01*
X148314616Y-74309171D01*
X148314615Y-74309170D01*
X148133666Y-74182468D01*
X148133658Y-74182464D01*
X148004811Y-74122382D01*
X147952371Y-74076210D01*
X147933219Y-74009017D01*
X147953435Y-73942135D01*
X148004811Y-73897618D01*
X148010802Y-73894824D01*
X148133662Y-73837534D01*
X148314620Y-73710826D01*
X148470826Y-73554620D01*
X148597534Y-73373662D01*
X148690894Y-73173450D01*
X148748070Y-72960068D01*
X148767323Y-72740000D01*
X148748070Y-72519932D01*
X148690894Y-72306550D01*
X148597534Y-72106339D01*
X148470826Y-71925380D01*
X148314620Y-71769174D01*
X148314616Y-71769171D01*
X148314615Y-71769170D01*
X148133666Y-71642468D01*
X148133658Y-71642464D01*
X148004811Y-71582382D01*
X147952371Y-71536210D01*
X147933219Y-71469017D01*
X147953435Y-71402135D01*
X148004811Y-71357618D01*
X148010802Y-71354824D01*
X148133662Y-71297534D01*
X148314620Y-71170826D01*
X148470826Y-71014620D01*
X148597534Y-70833662D01*
X148690894Y-70633450D01*
X148748070Y-70420068D01*
X148767323Y-70200000D01*
X148748070Y-69979932D01*
X148690894Y-69766550D01*
X148597534Y-69566339D01*
X148470826Y-69385380D01*
X148314620Y-69229174D01*
X148314616Y-69229171D01*
X148314615Y-69229170D01*
X148133666Y-69102468D01*
X148133658Y-69102464D01*
X148004811Y-69042382D01*
X147952371Y-68996210D01*
X147933219Y-68929017D01*
X147953435Y-68862135D01*
X148004811Y-68817618D01*
X148010802Y-68814824D01*
X148133662Y-68757534D01*
X148314620Y-68630826D01*
X148470826Y-68474620D01*
X148597534Y-68293662D01*
X148690894Y-68093450D01*
X148748070Y-67880068D01*
X148767323Y-67660000D01*
X148748070Y-67439932D01*
X148690894Y-67226550D01*
X148597534Y-67026339D01*
X148470826Y-66845380D01*
X148314620Y-66689174D01*
X148314616Y-66689171D01*
X148314615Y-66689170D01*
X148133666Y-66562468D01*
X148133658Y-66562464D01*
X148004811Y-66502382D01*
X147952371Y-66456210D01*
X147933219Y-66389017D01*
X147953435Y-66322135D01*
X148004811Y-66277618D01*
X148010802Y-66274824D01*
X148133662Y-66217534D01*
X148314620Y-66090826D01*
X148470826Y-65934620D01*
X148597534Y-65753662D01*
X148690894Y-65553450D01*
X148748070Y-65340068D01*
X148767323Y-65120000D01*
X148748070Y-64899932D01*
X148690894Y-64686550D01*
X148597534Y-64486339D01*
X148470826Y-64305380D01*
X148314620Y-64149174D01*
X148314616Y-64149171D01*
X148314615Y-64149170D01*
X148133666Y-64022468D01*
X148133658Y-64022464D01*
X148004811Y-63962382D01*
X147952371Y-63916210D01*
X147933219Y-63849017D01*
X147953435Y-63782135D01*
X148004811Y-63737618D01*
X148010802Y-63734824D01*
X148133662Y-63677534D01*
X148314620Y-63550826D01*
X148470826Y-63394620D01*
X148597534Y-63213662D01*
X148690894Y-63013450D01*
X148748070Y-62800068D01*
X148767323Y-62580000D01*
X148748070Y-62359932D01*
X148690894Y-62146550D01*
X148597534Y-61946339D01*
X148470826Y-61765380D01*
X148314620Y-61609174D01*
X148314616Y-61609171D01*
X148314615Y-61609170D01*
X148133666Y-61482468D01*
X148133658Y-61482464D01*
X148004811Y-61422382D01*
X147952371Y-61376210D01*
X147933219Y-61309017D01*
X147953435Y-61242135D01*
X148004811Y-61197618D01*
X148010802Y-61194824D01*
X148133662Y-61137534D01*
X148314620Y-61010826D01*
X148470826Y-60854620D01*
X148597534Y-60673662D01*
X148690894Y-60473450D01*
X148748070Y-60260068D01*
X148762509Y-60095017D01*
X148767323Y-60040002D01*
X148767323Y-60039997D01*
X148748070Y-59819937D01*
X148748070Y-59819932D01*
X148690894Y-59606550D01*
X148597534Y-59406339D01*
X148470826Y-59225380D01*
X148314620Y-59069174D01*
X148314616Y-59069171D01*
X148314615Y-59069170D01*
X148181661Y-58976075D01*
X148138036Y-58921498D01*
X148130842Y-58852000D01*
X148162365Y-58789645D01*
X148222595Y-58754231D01*
X148252784Y-58750500D01*
X148430664Y-58750500D01*
X148497703Y-58770185D01*
X148518345Y-58786819D01*
X149713181Y-59981655D01*
X149746666Y-60042978D01*
X149749500Y-60069336D01*
X149749500Y-71773422D01*
X149780290Y-71967826D01*
X149841117Y-72155030D01*
X149918320Y-72306548D01*
X149930476Y-72330405D01*
X150046172Y-72489646D01*
X150046174Y-72489648D01*
X154960355Y-77403830D01*
X154960360Y-77403834D01*
X155049310Y-77468459D01*
X155119595Y-77519524D01*
X155294974Y-77608884D01*
X155422987Y-77650478D01*
X155452580Y-77660093D01*
X155482173Y-77669709D01*
X155676578Y-77700500D01*
X155676583Y-77700500D01*
X155676584Y-77700500D01*
X155873417Y-77700500D01*
X155955538Y-77700500D01*
X156022577Y-77720185D01*
X156028418Y-77724178D01*
X156104595Y-77779524D01*
X156184028Y-77819997D01*
X156279970Y-77868882D01*
X156279972Y-77868882D01*
X156279975Y-77868884D01*
X156362281Y-77895627D01*
X156467173Y-77929709D01*
X156661578Y-77960500D01*
X156661583Y-77960500D01*
X156661584Y-77960500D01*
X156858417Y-77960500D01*
X157595131Y-77960500D01*
X157662170Y-77980185D01*
X157707925Y-78032989D01*
X157717869Y-78102147D01*
X157695253Y-78154190D01*
X157696588Y-78155044D01*
X157692967Y-78160707D01*
X157608360Y-78331302D01*
X157562400Y-78516107D01*
X157559500Y-78558879D01*
X157559500Y-79461122D01*
X157559501Y-79461125D01*
X157562399Y-79503886D01*
X157562399Y-79503887D01*
X157608360Y-79688696D01*
X157692967Y-79859292D01*
X157692969Y-79859295D01*
X157812277Y-80007721D01*
X157812278Y-80007722D01*
X157960704Y-80127030D01*
X157960707Y-80127032D01*
X158131302Y-80211639D01*
X158131303Y-80211639D01*
X158131307Y-80211641D01*
X158316111Y-80257600D01*
X158358877Y-80260500D01*
X158951580Y-80260499D01*
X158951594Y-80260500D01*
X158961583Y-80260500D01*
X160440664Y-80260500D01*
X160507703Y-80280185D01*
X160528345Y-80296819D01*
X160617375Y-80385849D01*
X160650860Y-80447172D01*
X160645876Y-80516864D01*
X160604004Y-80572797D01*
X160594791Y-80579069D01*
X160491654Y-80642684D01*
X160367684Y-80766654D01*
X160275643Y-80915875D01*
X160275641Y-80915880D01*
X160220494Y-81082302D01*
X160220493Y-81082309D01*
X160210000Y-81185013D01*
X160210000Y-81460000D01*
X161336000Y-81460000D01*
X161403039Y-81479685D01*
X161448794Y-81532489D01*
X161460000Y-81584000D01*
X161460000Y-82934999D01*
X161474341Y-82949340D01*
X161492539Y-82954684D01*
X161538294Y-83007488D01*
X161549500Y-83058999D01*
X161549500Y-88680663D01*
X161529815Y-88747702D01*
X161513181Y-88768344D01*
X158546174Y-91735351D01*
X158546172Y-91735354D01*
X158508414Y-91787323D01*
X158430476Y-91894594D01*
X158341117Y-92069971D01*
X158299030Y-92199501D01*
X158280290Y-92257173D01*
X158249500Y-92451577D01*
X158249500Y-92453271D01*
X158249263Y-92454580D01*
X158249118Y-92456433D01*
X158248932Y-92456418D01*
X158241682Y-92496604D01*
X158205908Y-92592517D01*
X158199501Y-92652116D01*
X158199322Y-92655452D01*
X158197847Y-92655372D01*
X158179815Y-92716784D01*
X158127011Y-92762539D01*
X158083522Y-92770029D01*
X157400000Y-93453551D01*
X157400000Y-93447339D01*
X157372741Y-93345606D01*
X157320080Y-93254394D01*
X157245606Y-93179920D01*
X157154394Y-93127259D01*
X157052661Y-93100000D01*
X157046448Y-93100000D01*
X157725472Y-92420974D01*
X157652478Y-92369863D01*
X157446331Y-92273735D01*
X157446317Y-92273730D01*
X157226610Y-92214860D01*
X157226599Y-92214858D01*
X157000002Y-92195034D01*
X156999998Y-92195034D01*
X156773400Y-92214858D01*
X156773389Y-92214860D01*
X156553682Y-92273730D01*
X156553673Y-92273734D01*
X156347516Y-92369866D01*
X156347512Y-92369868D01*
X156274526Y-92420973D01*
X156274526Y-92420974D01*
X156953553Y-93100000D01*
X156947339Y-93100000D01*
X156845606Y-93127259D01*
X156754394Y-93179920D01*
X156679920Y-93254394D01*
X156627259Y-93345606D01*
X156600000Y-93447339D01*
X156600000Y-93453552D01*
X155920974Y-92774526D01*
X155920973Y-92774526D01*
X155869868Y-92847512D01*
X155869866Y-92847516D01*
X155773734Y-93053673D01*
X155773730Y-93053682D01*
X155714860Y-93273389D01*
X155714858Y-93273400D01*
X155695034Y-93499997D01*
X155695034Y-93500002D01*
X155714858Y-93726599D01*
X155714860Y-93726610D01*
X155773730Y-93946317D01*
X155773735Y-93946331D01*
X155869863Y-94152478D01*
X155920974Y-94225472D01*
X156600000Y-93546446D01*
X156600000Y-93552661D01*
X156627259Y-93654394D01*
X156679920Y-93745606D01*
X156754394Y-93820080D01*
X156845606Y-93872741D01*
X156947339Y-93900000D01*
X156953553Y-93900000D01*
X156274526Y-94579025D01*
X156347513Y-94630132D01*
X156347521Y-94630136D01*
X156553668Y-94726264D01*
X156553682Y-94726269D01*
X156773389Y-94785139D01*
X156773400Y-94785141D01*
X156999998Y-94804966D01*
X157000002Y-94804966D01*
X157226599Y-94785141D01*
X157226610Y-94785139D01*
X157446317Y-94726269D01*
X157446331Y-94726264D01*
X157652478Y-94630136D01*
X157725471Y-94579024D01*
X157046447Y-93900000D01*
X157052661Y-93900000D01*
X157154394Y-93872741D01*
X157245606Y-93820080D01*
X157320080Y-93745606D01*
X157372741Y-93654394D01*
X157400000Y-93552661D01*
X157400000Y-93546447D01*
X158084197Y-94230644D01*
X158133192Y-94240491D01*
X158183375Y-94289106D01*
X158198049Y-94344632D01*
X158199099Y-94344576D01*
X158199146Y-94344571D01*
X158199146Y-94344573D01*
X158199324Y-94344564D01*
X158199501Y-94347876D01*
X158205908Y-94407483D01*
X158256202Y-94542328D01*
X158256206Y-94542335D01*
X158342452Y-94657544D01*
X158342455Y-94657547D01*
X158457664Y-94743793D01*
X158457671Y-94743797D01*
X158502618Y-94760561D01*
X158592517Y-94794091D01*
X158652127Y-94800500D01*
X158980663Y-94800499D01*
X159047702Y-94820183D01*
X159068344Y-94836818D01*
X160373672Y-96142146D01*
X160512854Y-96281328D01*
X160672095Y-96397024D01*
X160847475Y-96486384D01*
X160950146Y-96519744D01*
X161034673Y-96547209D01*
X161090218Y-96556006D01*
X161229078Y-96578000D01*
X163013791Y-96578000D01*
X163080830Y-96597685D01*
X163126585Y-96650489D01*
X163136529Y-96719647D01*
X163129973Y-96745334D01*
X163111402Y-96795123D01*
X163111401Y-96795127D01*
X163105000Y-96854655D01*
X163105000Y-97255000D01*
X167205000Y-97255000D01*
X167205000Y-96854672D01*
X167204999Y-96854655D01*
X167198598Y-96795127D01*
X167198596Y-96795120D01*
X167145254Y-96652101D01*
X167148273Y-96650974D01*
X167136788Y-96598132D01*
X167161217Y-96532672D01*
X167217158Y-96490811D01*
X167260471Y-96483000D01*
X167384750Y-96483000D01*
X167384751Y-96482999D01*
X167399568Y-96480052D01*
X167443229Y-96471368D01*
X167443229Y-96471367D01*
X167443231Y-96471367D01*
X167509552Y-96427052D01*
X167509553Y-96427051D01*
X167538916Y-96383108D01*
X167592528Y-96338304D01*
X167642017Y-96328000D01*
X168071043Y-96328000D01*
X168157349Y-96310832D01*
X168200504Y-96302248D01*
X168264336Y-96289551D01*
X168321359Y-96265931D01*
X168446414Y-96214132D01*
X168610282Y-96104639D01*
X168749639Y-95965282D01*
X168749640Y-95965279D01*
X168953103Y-95761815D01*
X169014426Y-95728333D01*
X169040783Y-95725499D01*
X169069559Y-95725499D01*
X169136598Y-95745184D01*
X169182353Y-95797988D01*
X169192297Y-95867146D01*
X169175099Y-95914594D01*
X169165189Y-95930661D01*
X169165185Y-95930668D01*
X169157097Y-95955076D01*
X169110001Y-96097203D01*
X169110001Y-96097204D01*
X169110000Y-96097204D01*
X169099500Y-96199983D01*
X169099500Y-98037769D01*
X169079815Y-98104808D01*
X169063181Y-98125450D01*
X167491571Y-99697059D01*
X167430248Y-99730544D01*
X167390980Y-99730894D01*
X167390813Y-99732597D01*
X167384751Y-99732000D01*
X167384748Y-99732000D01*
X167260471Y-99732000D01*
X167193432Y-99712315D01*
X167147677Y-99659511D01*
X167137733Y-99590353D01*
X167146689Y-99563434D01*
X167145254Y-99562899D01*
X167198596Y-99419879D01*
X167198598Y-99419872D01*
X167204999Y-99360344D01*
X167205000Y-99360327D01*
X167205000Y-98960000D01*
X164630000Y-98960000D01*
X164630000Y-99389500D01*
X164646000Y-99389500D01*
X164713039Y-99409185D01*
X164758794Y-99461989D01*
X164770000Y-99513500D01*
X164770000Y-100123641D01*
X164750315Y-100190680D01*
X164746318Y-100196527D01*
X164720476Y-100232094D01*
X164631117Y-100407470D01*
X164570290Y-100594673D01*
X164539500Y-100789077D01*
X164539500Y-101013500D01*
X164519815Y-101080539D01*
X164467011Y-101126294D01*
X164415500Y-101137500D01*
X164394000Y-101137500D01*
X164326961Y-101117815D01*
X164281206Y-101065011D01*
X164270000Y-101013500D01*
X164270000Y-99855500D01*
X164254000Y-99855500D01*
X164186961Y-99835815D01*
X164141206Y-99783011D01*
X164130000Y-99731500D01*
X164130000Y-98960000D01*
X163105000Y-98960000D01*
X163105000Y-99360344D01*
X163111401Y-99419872D01*
X163111403Y-99419879D01*
X163164746Y-99562899D01*
X163161726Y-99564025D01*
X163173212Y-99616868D01*
X163148783Y-99682328D01*
X163092842Y-99724189D01*
X163049529Y-99732000D01*
X162925247Y-99732000D01*
X162866770Y-99743631D01*
X162866769Y-99743632D01*
X162800447Y-99787947D01*
X162756132Y-99854269D01*
X162756131Y-99854270D01*
X162744500Y-99912747D01*
X162744500Y-100113000D01*
X162724815Y-100180039D01*
X162672011Y-100225794D01*
X162620500Y-100237000D01*
X161067535Y-100237000D01*
X161000496Y-100217315D01*
X160954741Y-100164511D01*
X160944177Y-100125602D01*
X160943217Y-100116202D01*
X160939999Y-100084703D01*
X160884814Y-99918166D01*
X160792712Y-99768844D01*
X160698695Y-99674827D01*
X160665210Y-99613504D01*
X160670194Y-99543812D01*
X160698695Y-99499464D01*
X160792317Y-99405842D01*
X160884356Y-99256624D01*
X160884358Y-99256619D01*
X160939505Y-99090197D01*
X160939506Y-99090190D01*
X160949999Y-98987486D01*
X160950000Y-98987473D01*
X160950000Y-98925000D01*
X158550001Y-98925000D01*
X158550001Y-98987486D01*
X158560494Y-99090197D01*
X158615641Y-99256619D01*
X158615643Y-99256624D01*
X158707684Y-99405845D01*
X158801304Y-99499465D01*
X158834789Y-99560788D01*
X158829805Y-99630480D01*
X158801305Y-99674827D01*
X158707287Y-99768845D01*
X158615187Y-99918163D01*
X158615185Y-99918168D01*
X158605850Y-99946339D01*
X158560001Y-100084703D01*
X158560001Y-100084704D01*
X158560000Y-100084704D01*
X158549500Y-100187483D01*
X158549500Y-100812501D01*
X158549501Y-100812519D01*
X158560000Y-100915296D01*
X158560001Y-100915299D01*
X158592526Y-101013451D01*
X158615186Y-101081834D01*
X158707288Y-101231156D01*
X158831344Y-101355212D01*
X158980666Y-101447314D01*
X159014500Y-101458525D01*
X159071947Y-101498296D01*
X159098772Y-101562811D01*
X159099500Y-101576232D01*
X159099500Y-101761267D01*
X159079815Y-101828306D01*
X159027011Y-101874061D01*
X159014506Y-101878972D01*
X158980671Y-101890184D01*
X158980663Y-101890187D01*
X158831342Y-101982289D01*
X158707289Y-102106342D01*
X158615187Y-102255663D01*
X158615185Y-102255668D01*
X158597886Y-102307873D01*
X158560001Y-102422203D01*
X158560001Y-102422204D01*
X158560000Y-102422204D01*
X158549500Y-102524983D01*
X158549500Y-103150001D01*
X158549501Y-103150019D01*
X158560000Y-103252796D01*
X158560001Y-103252799D01*
X158615185Y-103419331D01*
X158615187Y-103419336D01*
X158661359Y-103494192D01*
X158679799Y-103561585D01*
X158658876Y-103628248D01*
X158643502Y-103646970D01*
X158395482Y-103894991D01*
X158256659Y-104086062D01*
X158256658Y-104086064D01*
X158200910Y-104195477D01*
X158149433Y-104296503D01*
X158076446Y-104521131D01*
X158039500Y-104754402D01*
X158039500Y-105855204D01*
X158019815Y-105922243D01*
X157967011Y-105967998D01*
X157897853Y-105977942D01*
X157872168Y-105971386D01*
X157857479Y-105965907D01*
X157856466Y-105965668D01*
X157854856Y-105964929D01*
X157850217Y-105963199D01*
X157850344Y-105962858D01*
X157812112Y-105945313D01*
X157786436Y-105926659D01*
X157786435Y-105926658D01*
X157786433Y-105926657D01*
X157694985Y-105880062D01*
X157575996Y-105819433D01*
X157351368Y-105746446D01*
X157118097Y-105709500D01*
X157118092Y-105709500D01*
X156881908Y-105709500D01*
X156881903Y-105709500D01*
X156648631Y-105746446D01*
X156424003Y-105819433D01*
X156213568Y-105926656D01*
X156213561Y-105926660D01*
X156187883Y-105945316D01*
X156149657Y-105962854D01*
X156149785Y-105963198D01*
X156145104Y-105964943D01*
X156143515Y-105965673D01*
X156142516Y-105965908D01*
X156007671Y-106016202D01*
X156007664Y-106016206D01*
X155892455Y-106102452D01*
X155892452Y-106102455D01*
X155806206Y-106217664D01*
X155806201Y-106217673D01*
X155755906Y-106352522D01*
X155755667Y-106353537D01*
X155754927Y-106355147D01*
X155753199Y-106359783D01*
X155752858Y-106359656D01*
X155735316Y-106397884D01*
X155716655Y-106423570D01*
X155714109Y-106427725D01*
X155712889Y-106426977D01*
X155669298Y-106473098D01*
X155601471Y-106489868D01*
X155596022Y-106489512D01*
X155539025Y-106484526D01*
X154860000Y-107163552D01*
X154860000Y-107157339D01*
X154832741Y-107055606D01*
X154780080Y-106964394D01*
X154705606Y-106889920D01*
X154614394Y-106837259D01*
X154512661Y-106810000D01*
X154506448Y-106810000D01*
X155185472Y-106130974D01*
X155112478Y-106079863D01*
X154906331Y-105983735D01*
X154906317Y-105983730D01*
X154686610Y-105924860D01*
X154686599Y-105924858D01*
X154460002Y-105905034D01*
X154459998Y-105905034D01*
X154233400Y-105924858D01*
X154233389Y-105924860D01*
X154013682Y-105983730D01*
X154013673Y-105983734D01*
X153807516Y-106079866D01*
X153807512Y-106079868D01*
X153734526Y-106130973D01*
X153734526Y-106130974D01*
X154413553Y-106810000D01*
X154407339Y-106810000D01*
X154305606Y-106837259D01*
X154214394Y-106889920D01*
X154139920Y-106964394D01*
X154087259Y-107055606D01*
X154060000Y-107157339D01*
X154060000Y-107163552D01*
X153380974Y-106484526D01*
X153380973Y-106484526D01*
X153329868Y-106557512D01*
X153329866Y-106557516D01*
X153233734Y-106763673D01*
X153233730Y-106763682D01*
X153174860Y-106983389D01*
X153174858Y-106983400D01*
X153155034Y-107209997D01*
X153155034Y-107210002D01*
X153174858Y-107436599D01*
X153174860Y-107436610D01*
X153233730Y-107656317D01*
X153233735Y-107656331D01*
X153329863Y-107862478D01*
X153380974Y-107935472D01*
X154060000Y-107256446D01*
X154060000Y-107262661D01*
X154087259Y-107364394D01*
X154139920Y-107455606D01*
X154214394Y-107530080D01*
X154305606Y-107582741D01*
X154407339Y-107610000D01*
X154413553Y-107610000D01*
X153734526Y-108289025D01*
X153807513Y-108340132D01*
X153807521Y-108340136D01*
X154013668Y-108436264D01*
X154013682Y-108436269D01*
X154233389Y-108495139D01*
X154233400Y-108495141D01*
X154459998Y-108514966D01*
X154460002Y-108514966D01*
X154686599Y-108495141D01*
X154686610Y-108495139D01*
X154906317Y-108436269D01*
X154906326Y-108436265D01*
X155112482Y-108340134D01*
X155303250Y-108206556D01*
X155304525Y-108208378D01*
X155359791Y-108184185D01*
X155428784Y-108195218D01*
X155480860Y-108241800D01*
X155499500Y-108307186D01*
X155499500Y-108747111D01*
X155479815Y-108814150D01*
X155463181Y-108834792D01*
X152815485Y-111482487D01*
X152815484Y-111482488D01*
X152676657Y-111673565D01*
X152569433Y-111884003D01*
X152496446Y-112108631D01*
X152459500Y-112341902D01*
X152459500Y-112578097D01*
X152496446Y-112811368D01*
X152569433Y-113035996D01*
X152676657Y-113246434D01*
X152815484Y-113437511D01*
X152890177Y-113512204D01*
X152923662Y-113573527D01*
X152918678Y-113643219D01*
X152876806Y-113699152D01*
X152867594Y-113705423D01*
X152766656Y-113767682D01*
X152642684Y-113891654D01*
X152550643Y-114040875D01*
X152550641Y-114040880D01*
X152495494Y-114207302D01*
X152495493Y-114207309D01*
X152485000Y-114310013D01*
X152485000Y-114710000D01*
X153555854Y-114710000D01*
X153517370Y-114776657D01*
X153485000Y-114897465D01*
X153485000Y-115022535D01*
X153517370Y-115143343D01*
X153555854Y-115210000D01*
X152485001Y-115210000D01*
X152485001Y-115609986D01*
X152495494Y-115712697D01*
X152550641Y-115879119D01*
X152550643Y-115879124D01*
X152642684Y-116028345D01*
X152766654Y-116152315D01*
X152915875Y-116244356D01*
X152915880Y-116244358D01*
X153082302Y-116299505D01*
X153082309Y-116299506D01*
X153185019Y-116309999D01*
X153709999Y-116309999D01*
X153710000Y-116309998D01*
X153710000Y-115364145D01*
X153776657Y-115402630D01*
X153897465Y-115435000D01*
X154022535Y-115435000D01*
X154143343Y-115402630D01*
X154210000Y-115364145D01*
X154210000Y-116309999D01*
X154734972Y-116309999D01*
X154734986Y-116309998D01*
X154837697Y-116299505D01*
X155004119Y-116244358D01*
X155004124Y-116244356D01*
X155153345Y-116152315D01*
X155277315Y-116028345D01*
X155369356Y-115879124D01*
X155369358Y-115879119D01*
X155424505Y-115712697D01*
X155424506Y-115712690D01*
X155434999Y-115609986D01*
X155435000Y-115609973D01*
X155435000Y-115210000D01*
X154364146Y-115210000D01*
X154402630Y-115143343D01*
X154435000Y-115022535D01*
X154435000Y-114897465D01*
X154402630Y-114776657D01*
X154364146Y-114710000D01*
X155434999Y-114710000D01*
X155434999Y-114310028D01*
X155434998Y-114310013D01*
X155424505Y-114207302D01*
X155369358Y-114040880D01*
X155369356Y-114040875D01*
X155277315Y-113891654D01*
X155153344Y-113767683D01*
X155153340Y-113767680D01*
X155052406Y-113705423D01*
X155005681Y-113653475D01*
X154994460Y-113584513D01*
X155022303Y-113520431D01*
X155029811Y-113512215D01*
X158144517Y-110397510D01*
X158283343Y-110206434D01*
X158390568Y-109995992D01*
X158391743Y-109992376D01*
X158463553Y-109771368D01*
X158491973Y-109591930D01*
X158500500Y-109538097D01*
X158500500Y-108552842D01*
X158520185Y-108485803D01*
X158572989Y-108440048D01*
X158642147Y-108430104D01*
X158697384Y-108452524D01*
X158731743Y-108477487D01*
X158753565Y-108493342D01*
X158964003Y-108600566D01*
X158964005Y-108600566D01*
X158964008Y-108600568D01*
X159065193Y-108633445D01*
X159188631Y-108673553D01*
X159421903Y-108710500D01*
X159421908Y-108710500D01*
X164408097Y-108710500D01*
X164641368Y-108673553D01*
X164865992Y-108600568D01*
X165076434Y-108493343D01*
X165267510Y-108354517D01*
X165287418Y-108334608D01*
X165348739Y-108301121D01*
X165361842Y-108298997D01*
X165407483Y-108294091D01*
X165542331Y-108243796D01*
X165657546Y-108157546D01*
X165664350Y-108148455D01*
X165720280Y-108106584D01*
X165789971Y-108101597D01*
X165834740Y-108121188D01*
X165847512Y-108130130D01*
X165847518Y-108130134D01*
X166053673Y-108226265D01*
X166053682Y-108226269D01*
X166273389Y-108285139D01*
X166273400Y-108285141D01*
X166499998Y-108304966D01*
X166500002Y-108304966D01*
X166726599Y-108285141D01*
X166726610Y-108285139D01*
X166946317Y-108226269D01*
X166946331Y-108226264D01*
X167152478Y-108130136D01*
X167225471Y-108079024D01*
X166546447Y-107400000D01*
X166552661Y-107400000D01*
X166654394Y-107372741D01*
X166745606Y-107320080D01*
X166820080Y-107245606D01*
X166872741Y-107154394D01*
X166900000Y-107052661D01*
X166900000Y-107046447D01*
X167579024Y-107725471D01*
X167630136Y-107652478D01*
X167726264Y-107446331D01*
X167726269Y-107446317D01*
X167785139Y-107226610D01*
X167785141Y-107226599D01*
X167804966Y-107000002D01*
X167804966Y-106999997D01*
X167785141Y-106773400D01*
X167785139Y-106773389D01*
X167726269Y-106553682D01*
X167726264Y-106553668D01*
X167630136Y-106347521D01*
X167630132Y-106347513D01*
X167579025Y-106274526D01*
X166900000Y-106953551D01*
X166900000Y-106947339D01*
X166872741Y-106845606D01*
X166820080Y-106754394D01*
X166745606Y-106679920D01*
X166654394Y-106627259D01*
X166552661Y-106600000D01*
X166546447Y-106600000D01*
X167225472Y-105920974D01*
X167152478Y-105869863D01*
X166946331Y-105773735D01*
X166946311Y-105773728D01*
X166900042Y-105761330D01*
X166840382Y-105724965D01*
X166809854Y-105662117D01*
X166814205Y-105603242D01*
X166863553Y-105451368D01*
X166892704Y-105267314D01*
X166900500Y-105218097D01*
X166900500Y-103464754D01*
X166914015Y-103408459D01*
X166948884Y-103340025D01*
X166994723Y-103198947D01*
X167009709Y-103152827D01*
X167026504Y-103046785D01*
X167033914Y-103000000D01*
X169100001Y-103000000D01*
X169100001Y-104299986D01*
X169110494Y-104402697D01*
X169165641Y-104569119D01*
X169165643Y-104569124D01*
X169257684Y-104718345D01*
X169381654Y-104842315D01*
X169530875Y-104934356D01*
X169530880Y-104934358D01*
X169697302Y-104989505D01*
X169697309Y-104989506D01*
X169800019Y-104999999D01*
X170249999Y-104999999D01*
X170250000Y-104999998D01*
X170250000Y-103000000D01*
X170750000Y-103000000D01*
X170750000Y-104999999D01*
X171199972Y-104999999D01*
X171199986Y-104999998D01*
X171302697Y-104989505D01*
X171469119Y-104934358D01*
X171469124Y-104934356D01*
X171618345Y-104842315D01*
X171742315Y-104718345D01*
X171834356Y-104569124D01*
X171834358Y-104569119D01*
X171889505Y-104402697D01*
X171889506Y-104402690D01*
X171899999Y-104299986D01*
X171900000Y-104299973D01*
X171900000Y-103000000D01*
X170750000Y-103000000D01*
X170250000Y-103000000D01*
X169100001Y-103000000D01*
X167033914Y-103000000D01*
X167040500Y-102958422D01*
X167040500Y-102500000D01*
X169100000Y-102500000D01*
X170250000Y-102500000D01*
X170250000Y-100500000D01*
X170750000Y-100500000D01*
X170750000Y-102500000D01*
X171899999Y-102500000D01*
X171899999Y-101200028D01*
X171899998Y-101200013D01*
X171889505Y-101097302D01*
X171834358Y-100930880D01*
X171834356Y-100930875D01*
X171742315Y-100781654D01*
X171618345Y-100657684D01*
X171469124Y-100565643D01*
X171469119Y-100565641D01*
X171302697Y-100510494D01*
X171302690Y-100510493D01*
X171199986Y-100500000D01*
X170750000Y-100500000D01*
X170250000Y-100500000D01*
X169800028Y-100500000D01*
X169800012Y-100500001D01*
X169697302Y-100510494D01*
X169530880Y-100565641D01*
X169530875Y-100565643D01*
X169381654Y-100657684D01*
X169257684Y-100781654D01*
X169165643Y-100930875D01*
X169165641Y-100930880D01*
X169110494Y-101097302D01*
X169110493Y-101097309D01*
X169100000Y-101200013D01*
X169100000Y-102500000D01*
X167040500Y-102500000D01*
X167040500Y-102167000D01*
X167060185Y-102099961D01*
X167112989Y-102054206D01*
X167164500Y-102043000D01*
X167384750Y-102043000D01*
X167384751Y-102042999D01*
X167399568Y-102040052D01*
X167443229Y-102031368D01*
X167443229Y-102031367D01*
X167443231Y-102031367D01*
X167509552Y-101987052D01*
X167553867Y-101920731D01*
X167553867Y-101920729D01*
X167553868Y-101920729D01*
X167565499Y-101862252D01*
X167565500Y-101862250D01*
X167565500Y-101698603D01*
X167585185Y-101631564D01*
X167637989Y-101585809D01*
X167641991Y-101584065D01*
X167717995Y-101552584D01*
X167796693Y-101500000D01*
X167840916Y-101470452D01*
X169366019Y-99945347D01*
X169427340Y-99911864D01*
X169497031Y-99916848D01*
X169518790Y-99927489D01*
X169530666Y-99934814D01*
X169697203Y-99989999D01*
X169799991Y-100000500D01*
X171200008Y-100000499D01*
X171302797Y-99989999D01*
X171469334Y-99934814D01*
X171618656Y-99842712D01*
X171742712Y-99718656D01*
X171834814Y-99569334D01*
X171889999Y-99402797D01*
X171900500Y-99300009D01*
X171900499Y-96199992D01*
X171899787Y-96193026D01*
X171889999Y-96097203D01*
X171889998Y-96097200D01*
X171889132Y-96094586D01*
X171834814Y-95930666D01*
X171742712Y-95781344D01*
X171618656Y-95657288D01*
X171618655Y-95657287D01*
X171572657Y-95628915D01*
X171525933Y-95576967D01*
X171514712Y-95508004D01*
X171539057Y-95449887D01*
X171538920Y-95449803D01*
X171539459Y-95448927D01*
X171540494Y-95446459D01*
X171542702Y-95443665D01*
X171542712Y-95443656D01*
X171634814Y-95294334D01*
X171689999Y-95127797D01*
X171700500Y-95025009D01*
X171700500Y-94502466D01*
X171700500Y-90651459D01*
X171695137Y-90624499D01*
X171690820Y-90602797D01*
X171674350Y-90519997D01*
X171662051Y-90458164D01*
X171617050Y-90349522D01*
X171617050Y-90349521D01*
X171586635Y-90276092D01*
X171586628Y-90276079D01*
X171477140Y-90112219D01*
X171415112Y-90050191D01*
X171337782Y-89972861D01*
X171337781Y-89972860D01*
X170905517Y-89540596D01*
X170486818Y-89121897D01*
X170453333Y-89060574D01*
X170450499Y-89034216D01*
X170450499Y-88102129D01*
X170450498Y-88102123D01*
X170450497Y-88102116D01*
X170444091Y-88042517D01*
X170440232Y-88032171D01*
X170393797Y-87907671D01*
X170393793Y-87907664D01*
X170307547Y-87792455D01*
X170307544Y-87792452D01*
X170192335Y-87706206D01*
X170192328Y-87706202D01*
X170057482Y-87655908D01*
X170057483Y-87655908D01*
X169997883Y-87649501D01*
X169997881Y-87649500D01*
X169997873Y-87649500D01*
X169997864Y-87649500D01*
X168402129Y-87649500D01*
X168402123Y-87649501D01*
X168342516Y-87655908D01*
X168207671Y-87706202D01*
X168207664Y-87706206D01*
X168092455Y-87792452D01*
X168092452Y-87792455D01*
X168006206Y-87907664D01*
X168006202Y-87907671D01*
X167955908Y-88042517D01*
X167949957Y-88097872D01*
X167949501Y-88102123D01*
X167949500Y-88102135D01*
X167949500Y-90397870D01*
X167949501Y-90397876D01*
X167955908Y-90457483D01*
X168006202Y-90592328D01*
X168006206Y-90592335D01*
X168092452Y-90707544D01*
X168092455Y-90707547D01*
X168207664Y-90793793D01*
X168207671Y-90793797D01*
X168342517Y-90844091D01*
X168342516Y-90844091D01*
X168349444Y-90844835D01*
X168402127Y-90850500D01*
X169334216Y-90850499D01*
X169401255Y-90870183D01*
X169421897Y-90886818D01*
X169663181Y-91128101D01*
X169696666Y-91189424D01*
X169699500Y-91215782D01*
X169699500Y-93321659D01*
X169679815Y-93388698D01*
X169627011Y-93434453D01*
X169557853Y-93444397D01*
X169510404Y-93427198D01*
X169369340Y-93340189D01*
X169369335Y-93340187D01*
X169369334Y-93340186D01*
X169202797Y-93285001D01*
X169202795Y-93285000D01*
X169100010Y-93274500D01*
X168499998Y-93274500D01*
X168499980Y-93274501D01*
X168397203Y-93285000D01*
X168397200Y-93285001D01*
X168230668Y-93340185D01*
X168230663Y-93340187D01*
X168081342Y-93432289D01*
X167957289Y-93556342D01*
X167865187Y-93705663D01*
X167865186Y-93705666D01*
X167810001Y-93872203D01*
X167810001Y-93872204D01*
X167810000Y-93872204D01*
X167799500Y-93974983D01*
X167799500Y-94034217D01*
X167779815Y-94101256D01*
X167763185Y-94121893D01*
X167716463Y-94168616D01*
X167669977Y-94215102D01*
X167608653Y-94248586D01*
X167538962Y-94243602D01*
X167513405Y-94230522D01*
X167443230Y-94183632D01*
X167443229Y-94183631D01*
X167384752Y-94172000D01*
X167384748Y-94172000D01*
X166735252Y-94172000D01*
X166735247Y-94172000D01*
X166676770Y-94183631D01*
X166676769Y-94183632D01*
X166610447Y-94227947D01*
X166566132Y-94294269D01*
X166566131Y-94294270D01*
X166554500Y-94352747D01*
X166554500Y-94395693D01*
X166534815Y-94462732D01*
X166499391Y-94498795D01*
X166488391Y-94506145D01*
X166421714Y-94527023D01*
X166354333Y-94508539D01*
X166307643Y-94456560D01*
X166295500Y-94403043D01*
X166295500Y-94352749D01*
X166295499Y-94352747D01*
X166283868Y-94294270D01*
X166283867Y-94294269D01*
X166239552Y-94227947D01*
X166173230Y-94183632D01*
X166173229Y-94183631D01*
X166114752Y-94172000D01*
X166114748Y-94172000D01*
X165465252Y-94172000D01*
X165465247Y-94172000D01*
X165406770Y-94183631D01*
X165406769Y-94183632D01*
X165340447Y-94227947D01*
X165296132Y-94294269D01*
X165296131Y-94294270D01*
X165284500Y-94352747D01*
X165284500Y-96278500D01*
X165264815Y-96345539D01*
X165212011Y-96391294D01*
X165160500Y-96402500D01*
X165149500Y-96402500D01*
X165082461Y-96382815D01*
X165036706Y-96330011D01*
X165025500Y-96278500D01*
X165025500Y-94352749D01*
X165025499Y-94352747D01*
X165013868Y-94294270D01*
X165013867Y-94294269D01*
X164969552Y-94227947D01*
X164903230Y-94183632D01*
X164903229Y-94183631D01*
X164844752Y-94172000D01*
X164844748Y-94172000D01*
X164195252Y-94172000D01*
X164195247Y-94172000D01*
X164136770Y-94183631D01*
X164136769Y-94183632D01*
X164070446Y-94227948D01*
X164061812Y-94236583D01*
X164059580Y-94234351D01*
X164020882Y-94266687D01*
X163951556Y-94275389D01*
X163909878Y-94259928D01*
X163909746Y-94260188D01*
X163907520Y-94259054D01*
X163906620Y-94258720D01*
X163905410Y-94257978D01*
X163730029Y-94168617D01*
X163542826Y-94107790D01*
X163348422Y-94077000D01*
X163348417Y-94077000D01*
X161896836Y-94077000D01*
X161829797Y-94057315D01*
X161809155Y-94040681D01*
X160881154Y-93112680D01*
X160847669Y-93051357D01*
X160852653Y-92981665D01*
X160881152Y-92937320D01*
X162931656Y-90886818D01*
X162992979Y-90853333D01*
X163019337Y-90850499D01*
X163597871Y-90850499D01*
X163597872Y-90850499D01*
X163657483Y-90844091D01*
X163792331Y-90793796D01*
X163907546Y-90707546D01*
X163993796Y-90592331D01*
X164044091Y-90457483D01*
X164050500Y-90397873D01*
X164050500Y-89252677D01*
X164050500Y-83025000D01*
X167050001Y-83025000D01*
X167050001Y-83149986D01*
X167060494Y-83252697D01*
X167115641Y-83419119D01*
X167115643Y-83419124D01*
X167207684Y-83568345D01*
X167331654Y-83692315D01*
X167480875Y-83784356D01*
X167480880Y-83784358D01*
X167647302Y-83839505D01*
X167647309Y-83839506D01*
X167750019Y-83849999D01*
X167999999Y-83849999D01*
X168000000Y-83849998D01*
X168000000Y-83025000D01*
X168500000Y-83025000D01*
X168500000Y-83849999D01*
X168749972Y-83849999D01*
X168749986Y-83849998D01*
X168852697Y-83839505D01*
X169019119Y-83784358D01*
X169019124Y-83784356D01*
X169168345Y-83692315D01*
X169292315Y-83568345D01*
X169384356Y-83419124D01*
X169384358Y-83419119D01*
X169439505Y-83252697D01*
X169439506Y-83252690D01*
X169449999Y-83149986D01*
X169450000Y-83149973D01*
X169450000Y-83025000D01*
X168500000Y-83025000D01*
X168000000Y-83025000D01*
X167050001Y-83025000D01*
X164050500Y-83025000D01*
X164050500Y-82583280D01*
X164070185Y-82516241D01*
X164074170Y-82510411D01*
X164179524Y-82365405D01*
X164268884Y-82190026D01*
X164329709Y-82002826D01*
X164341375Y-81929170D01*
X164360500Y-81808422D01*
X164360500Y-81011577D01*
X164329709Y-80817177D01*
X164329709Y-80817174D01*
X164327378Y-80810001D01*
X164295430Y-80711676D01*
X164288355Y-80689901D01*
X164268886Y-80629980D01*
X164268883Y-80629974D01*
X164267117Y-80626507D01*
X164179524Y-80454595D01*
X164063828Y-80295354D01*
X163924646Y-80156172D01*
X161940655Y-78172181D01*
X161907170Y-78110858D01*
X161912154Y-78041166D01*
X161954026Y-77985233D01*
X162019490Y-77960816D01*
X162028336Y-77960500D01*
X163735501Y-77960500D01*
X163802540Y-77980185D01*
X163848295Y-78032989D01*
X163859501Y-78084500D01*
X163859501Y-78168036D01*
X163860498Y-78179249D01*
X163870113Y-78287415D01*
X163926089Y-78483045D01*
X163926090Y-78483048D01*
X163926091Y-78483049D01*
X164020302Y-78663407D01*
X164028031Y-78672886D01*
X164148890Y-78821109D01*
X164242803Y-78897684D01*
X164306593Y-78949698D01*
X164486951Y-79043909D01*
X164682582Y-79099886D01*
X164801963Y-79110500D01*
X165918036Y-79110499D01*
X166037418Y-79099886D01*
X166233049Y-79043909D01*
X166413407Y-78949698D01*
X166571109Y-78821109D01*
X166699698Y-78663407D01*
X166793909Y-78483049D01*
X166849886Y-78287418D01*
X166860500Y-78168037D01*
X166860500Y-78084500D01*
X166880185Y-78017461D01*
X166932989Y-77971706D01*
X166984500Y-77960500D01*
X167152799Y-77960500D01*
X167219838Y-77980185D01*
X167265593Y-78032989D01*
X167276157Y-78097103D01*
X167274500Y-78113315D01*
X167274500Y-78711669D01*
X167274501Y-78711687D01*
X167284825Y-78812752D01*
X167319815Y-78918342D01*
X167338755Y-78975500D01*
X167339092Y-78976515D01*
X167339093Y-78976518D01*
X167361895Y-79013486D01*
X167429660Y-79123350D01*
X167551650Y-79245340D01*
X167551656Y-79245343D01*
X167552405Y-79245936D01*
X167552790Y-79246480D01*
X167556757Y-79250447D01*
X167556079Y-79251124D01*
X167592785Y-79302956D01*
X167599500Y-79343207D01*
X167599500Y-79586267D01*
X167579815Y-79653306D01*
X167527011Y-79699061D01*
X167514506Y-79703972D01*
X167480671Y-79715184D01*
X167480663Y-79715187D01*
X167331342Y-79807289D01*
X167207289Y-79931342D01*
X167115187Y-80080663D01*
X167115186Y-80080666D01*
X167060001Y-80247203D01*
X167060001Y-80247204D01*
X167060000Y-80247204D01*
X167049500Y-80349983D01*
X167049500Y-81100001D01*
X167049501Y-81100019D01*
X167060000Y-81202796D01*
X167060001Y-81202799D01*
X167115185Y-81369331D01*
X167115187Y-81369336D01*
X167128040Y-81390174D01*
X167207288Y-81518656D01*
X167331344Y-81642712D01*
X167334628Y-81644737D01*
X167334653Y-81644753D01*
X167336445Y-81646746D01*
X167337011Y-81647193D01*
X167336934Y-81647289D01*
X167381379Y-81696699D01*
X167392603Y-81765661D01*
X167364761Y-81829744D01*
X167334665Y-81855826D01*
X167331660Y-81857679D01*
X167331655Y-81857683D01*
X167207684Y-81981654D01*
X167115643Y-82130875D01*
X167115641Y-82130880D01*
X167060494Y-82297302D01*
X167060493Y-82297309D01*
X167050000Y-82400013D01*
X167050000Y-82525000D01*
X169449999Y-82525000D01*
X169449999Y-82400028D01*
X169449998Y-82400013D01*
X169439505Y-82297302D01*
X169384358Y-82130880D01*
X169384356Y-82130875D01*
X169292315Y-81981654D01*
X169168344Y-81857683D01*
X169168341Y-81857681D01*
X169165339Y-81855829D01*
X169163713Y-81854021D01*
X169162677Y-81853202D01*
X169162817Y-81853024D01*
X169118617Y-81803880D01*
X169107397Y-81734917D01*
X169135243Y-81670836D01*
X169165344Y-81644754D01*
X169168656Y-81642712D01*
X169292712Y-81518656D01*
X169384814Y-81369334D01*
X169439999Y-81202797D01*
X169450500Y-81100009D01*
X169450499Y-80349992D01*
X169444917Y-80295352D01*
X169439999Y-80247203D01*
X169439998Y-80247200D01*
X169430629Y-80218926D01*
X169384814Y-80080666D01*
X169292712Y-79931344D01*
X169168656Y-79807288D01*
X169037416Y-79726339D01*
X169019336Y-79715187D01*
X169019335Y-79715186D01*
X169019334Y-79715186D01*
X169019328Y-79715184D01*
X168985494Y-79703972D01*
X168928050Y-79664199D01*
X168901228Y-79599683D01*
X168900500Y-79586267D01*
X168900500Y-79343207D01*
X168920185Y-79276168D01*
X168943380Y-79250584D01*
X168943243Y-79250447D01*
X168946050Y-79247639D01*
X168947595Y-79245936D01*
X168948339Y-79245346D01*
X168948350Y-79245340D01*
X169070340Y-79123350D01*
X169160908Y-78976516D01*
X169215174Y-78812753D01*
X169225500Y-78711677D01*
X169225499Y-78113324D01*
X169219030Y-78050000D01*
X169215174Y-78012247D01*
X169206222Y-77985233D01*
X169160908Y-77848484D01*
X169070340Y-77701650D01*
X169012512Y-77643822D01*
X168979027Y-77582499D01*
X168984011Y-77512807D01*
X169012507Y-77468465D01*
X169203828Y-77277146D01*
X169319524Y-77117905D01*
X169408884Y-76942526D01*
X169469709Y-76755326D01*
X169474913Y-76722468D01*
X169500500Y-76560921D01*
X169500500Y-76364077D01*
X169469709Y-76169673D01*
X169413064Y-75995340D01*
X169408884Y-75982474D01*
X169408882Y-75982471D01*
X169408882Y-75982469D01*
X169319523Y-75807094D01*
X169203828Y-75647854D01*
X169064646Y-75508672D01*
X168905405Y-75392976D01*
X168893698Y-75387011D01*
X168730030Y-75303617D01*
X168542826Y-75242790D01*
X168348422Y-75212000D01*
X168348417Y-75212000D01*
X168151584Y-75212000D01*
X168151579Y-75212000D01*
X167957173Y-75242790D01*
X167769969Y-75303617D01*
X167594591Y-75392978D01*
X167535627Y-75435818D01*
X167469821Y-75459298D01*
X167462742Y-75459500D01*
X166984499Y-75459500D01*
X166917460Y-75439815D01*
X166871705Y-75387011D01*
X166860499Y-75335500D01*
X166860499Y-75251971D01*
X166860499Y-75251964D01*
X166849886Y-75132582D01*
X166793909Y-74936951D01*
X166699698Y-74756593D01*
X166571606Y-74599500D01*
X166571109Y-74598890D01*
X166455933Y-74504977D01*
X166413407Y-74470302D01*
X166233049Y-74376091D01*
X166233048Y-74376090D01*
X166233045Y-74376089D01*
X166115829Y-74342550D01*
X166037418Y-74320114D01*
X166037415Y-74320113D01*
X166037413Y-74320113D01*
X165971102Y-74314217D01*
X165918037Y-74309500D01*
X165918032Y-74309500D01*
X164801971Y-74309500D01*
X164801965Y-74309500D01*
X164801964Y-74309501D01*
X164790316Y-74310536D01*
X164682584Y-74320113D01*
X164486954Y-74376089D01*
X164396772Y-74423196D01*
X164306593Y-74470302D01*
X164306591Y-74470303D01*
X164306590Y-74470304D01*
X164148890Y-74598890D01*
X164020304Y-74756590D01*
X163926089Y-74936954D01*
X163870114Y-75132583D01*
X163870113Y-75132586D01*
X163867026Y-75167314D01*
X163860316Y-75242791D01*
X163859500Y-75251966D01*
X163859500Y-75335500D01*
X163839815Y-75402539D01*
X163787011Y-75448294D01*
X163735500Y-75459500D01*
X160524229Y-75459500D01*
X160457190Y-75439815D01*
X160411435Y-75387011D01*
X160401491Y-75317853D01*
X160424246Y-75265489D01*
X160422989Y-75264686D01*
X160426609Y-75259022D01*
X160511168Y-75088523D01*
X160557102Y-74903824D01*
X160560000Y-74861096D01*
X160560000Y-74660000D01*
X157768000Y-74660000D01*
X157768000Y-74676000D01*
X157748315Y-74743039D01*
X157695511Y-74788794D01*
X157644000Y-74800000D01*
X156374000Y-74800000D01*
X156306961Y-74780315D01*
X156261206Y-74727511D01*
X156250000Y-74676000D01*
X156250000Y-74300000D01*
X156750000Y-74300000D01*
X157517000Y-74300000D01*
X157517000Y-74284000D01*
X157536685Y-74216961D01*
X157589489Y-74171206D01*
X157641000Y-74160000D01*
X158810000Y-74160000D01*
X158810000Y-73160000D01*
X159310000Y-73160000D01*
X159310000Y-74160000D01*
X160560000Y-74160000D01*
X160560000Y-73958903D01*
X160557102Y-73916175D01*
X160511168Y-73731476D01*
X160426609Y-73560977D01*
X160426607Y-73560974D01*
X160307367Y-73412633D01*
X160307366Y-73412632D01*
X160159025Y-73293392D01*
X160159022Y-73293390D01*
X159988523Y-73208831D01*
X159803824Y-73162897D01*
X159761097Y-73160000D01*
X159310000Y-73160000D01*
X158810000Y-73160000D01*
X158358903Y-73160000D01*
X158316175Y-73162897D01*
X158131476Y-73208831D01*
X157960977Y-73293390D01*
X157960974Y-73293392D01*
X157812633Y-73412632D01*
X157812632Y-73412633D01*
X157693393Y-73560973D01*
X157638556Y-73671541D01*
X157591134Y-73722853D01*
X157523499Y-73740381D01*
X157457124Y-73718561D01*
X157449177Y-73711944D01*
X157449007Y-73712161D01*
X157443346Y-73707684D01*
X157294124Y-73615643D01*
X157294119Y-73615641D01*
X157127697Y-73560494D01*
X157127690Y-73560493D01*
X157024986Y-73550000D01*
X156750000Y-73550000D01*
X156750000Y-74300000D01*
X156250000Y-74300000D01*
X156250000Y-73550000D01*
X155975029Y-73550000D01*
X155975012Y-73550001D01*
X155872302Y-73560494D01*
X155705880Y-73615641D01*
X155705875Y-73615643D01*
X155556654Y-73707684D01*
X155432684Y-73831654D01*
X155340643Y-73980875D01*
X155340640Y-73980883D01*
X155337597Y-73990066D01*
X155297822Y-74047509D01*
X155233305Y-74074329D01*
X155164529Y-74062010D01*
X155132212Y-74038737D01*
X152286819Y-71193344D01*
X152253334Y-71132021D01*
X152250500Y-71105663D01*
X152250500Y-59401577D01*
X152232586Y-59288483D01*
X152219709Y-59207174D01*
X152219708Y-59207170D01*
X152219708Y-59207169D01*
X152160391Y-59024612D01*
X152159329Y-59020847D01*
X152069523Y-58844594D01*
X152064634Y-58837865D01*
X151953828Y-58685354D01*
X149940655Y-56672181D01*
X149907170Y-56610858D01*
X149912154Y-56541166D01*
X149954026Y-56485233D01*
X150019490Y-56460816D01*
X150028336Y-56460500D01*
X154701324Y-56460500D01*
X154768363Y-56480185D01*
X154789005Y-56496819D01*
X173423181Y-75130995D01*
X173456666Y-75192318D01*
X173459500Y-75218676D01*
X173459500Y-104701324D01*
X173439815Y-104768363D01*
X173423181Y-104789005D01*
X154789005Y-123423181D01*
X154727682Y-123456666D01*
X154701324Y-123459500D01*
X125218676Y-123459500D01*
X125151637Y-123439815D01*
X125130995Y-123423181D01*
X106496819Y-104789005D01*
X106463334Y-104727682D01*
X106460500Y-104701324D01*
X106460500Y-90250000D01*
X109125001Y-90250000D01*
X109125001Y-90499986D01*
X109135494Y-90602697D01*
X109190641Y-90769119D01*
X109190643Y-90769124D01*
X109282684Y-90918345D01*
X109406654Y-91042315D01*
X109555875Y-91134356D01*
X109555880Y-91134358D01*
X109722302Y-91189505D01*
X109722309Y-91189506D01*
X109825019Y-91199999D01*
X109949999Y-91199999D01*
X110450000Y-91199999D01*
X110574972Y-91199999D01*
X110574986Y-91199998D01*
X110677697Y-91189505D01*
X110844119Y-91134358D01*
X110844124Y-91134356D01*
X110993345Y-91042315D01*
X111117318Y-90918342D01*
X111119165Y-90915348D01*
X111120969Y-90913724D01*
X111121798Y-90912677D01*
X111121976Y-90912818D01*
X111171110Y-90868621D01*
X111240073Y-90857396D01*
X111304156Y-90885236D01*
X111330243Y-90915341D01*
X111332288Y-90918656D01*
X111456344Y-91042712D01*
X111605666Y-91134814D01*
X111772203Y-91189999D01*
X111874991Y-91200500D01*
X112625008Y-91200499D01*
X112625016Y-91200498D01*
X112625019Y-91200498D01*
X112681302Y-91194748D01*
X112727797Y-91189999D01*
X112894334Y-91134814D01*
X113043656Y-91042712D01*
X113167712Y-90918656D01*
X113259814Y-90769334D01*
X113271028Y-90735494D01*
X113310801Y-90678050D01*
X113375317Y-90651228D01*
X113388733Y-90650500D01*
X113494292Y-90650500D01*
X113561331Y-90670185D01*
X113586915Y-90693380D01*
X113587053Y-90693243D01*
X113589852Y-90696042D01*
X113591555Y-90697586D01*
X113592155Y-90698345D01*
X113592160Y-90698350D01*
X113714150Y-90820340D01*
X113860984Y-90910908D01*
X114024747Y-90965174D01*
X114125823Y-90975500D01*
X114724176Y-90975499D01*
X114724184Y-90975498D01*
X114724187Y-90975498D01*
X114779530Y-90969844D01*
X114825253Y-90965174D01*
X114989016Y-90910908D01*
X115135850Y-90820340D01*
X115249819Y-90706371D01*
X115311142Y-90672886D01*
X115380834Y-90677870D01*
X115425181Y-90706371D01*
X115539150Y-90820340D01*
X115685984Y-90910908D01*
X115849747Y-90965174D01*
X115950823Y-90975500D01*
X116549176Y-90975499D01*
X116549184Y-90975498D01*
X116549187Y-90975498D01*
X116604530Y-90969844D01*
X116650253Y-90965174D01*
X116814016Y-90910908D01*
X116960850Y-90820340D01*
X117082840Y-90698350D01*
X117082841Y-90698347D01*
X117082844Y-90698345D01*
X117083445Y-90697586D01*
X117083989Y-90697200D01*
X117087947Y-90693243D01*
X117088623Y-90693919D01*
X117140468Y-90657211D01*
X117180708Y-90650500D01*
X117469932Y-90650500D01*
X117535904Y-90669506D01*
X117625477Y-90725789D01*
X117625481Y-90725790D01*
X117795737Y-90785366D01*
X117795743Y-90785367D01*
X117795745Y-90785368D01*
X117795746Y-90785368D01*
X117795750Y-90785369D01*
X117974996Y-90805565D01*
X117975000Y-90805565D01*
X117975004Y-90805565D01*
X118154249Y-90785369D01*
X118154252Y-90785368D01*
X118154255Y-90785368D01*
X118324522Y-90725789D01*
X118477262Y-90629816D01*
X118604816Y-90502262D01*
X118700789Y-90349522D01*
X118760368Y-90179255D01*
X118761258Y-90171357D01*
X118780565Y-90000003D01*
X118780565Y-89999996D01*
X118760369Y-89820750D01*
X118760368Y-89820745D01*
X118700788Y-89650476D01*
X118637133Y-89549170D01*
X118604816Y-89497738D01*
X118477262Y-89370184D01*
X118448526Y-89352128D01*
X118324523Y-89274211D01*
X118154254Y-89214631D01*
X118154249Y-89214630D01*
X117975004Y-89194435D01*
X117974996Y-89194435D01*
X117795750Y-89214630D01*
X117795737Y-89214633D01*
X117625481Y-89274209D01*
X117625477Y-89274210D01*
X117535904Y-89330494D01*
X117469932Y-89349500D01*
X117180708Y-89349500D01*
X117113669Y-89329815D01*
X117088084Y-89306619D01*
X117087947Y-89306757D01*
X117085147Y-89303957D01*
X117083445Y-89302414D01*
X117082844Y-89301654D01*
X116960851Y-89179661D01*
X116960850Y-89179660D01*
X116814016Y-89089092D01*
X116650253Y-89034826D01*
X116650251Y-89034825D01*
X116549178Y-89024500D01*
X115950830Y-89024500D01*
X115950812Y-89024501D01*
X115849747Y-89034825D01*
X115685984Y-89089092D01*
X115685981Y-89089093D01*
X115539148Y-89179661D01*
X115425181Y-89293629D01*
X115363858Y-89327114D01*
X115294166Y-89322130D01*
X115249819Y-89293629D01*
X115135851Y-89179661D01*
X115135850Y-89179660D01*
X114989016Y-89089092D01*
X114825253Y-89034826D01*
X114825251Y-89034825D01*
X114724178Y-89024500D01*
X114125830Y-89024500D01*
X114125812Y-89024501D01*
X114024747Y-89034825D01*
X113860984Y-89089092D01*
X113860981Y-89089093D01*
X113714148Y-89179661D01*
X113592155Y-89301654D01*
X113591555Y-89302414D01*
X113591010Y-89302799D01*
X113587053Y-89306757D01*
X113586376Y-89306080D01*
X113534532Y-89342789D01*
X113494292Y-89349500D01*
X113388733Y-89349500D01*
X113321694Y-89329815D01*
X113275939Y-89277011D01*
X113271028Y-89264506D01*
X113262606Y-89239092D01*
X113259814Y-89230666D01*
X113167712Y-89081344D01*
X113043656Y-88957288D01*
X112894334Y-88865186D01*
X112727797Y-88810001D01*
X112727795Y-88810000D01*
X112625010Y-88799500D01*
X111874998Y-88799500D01*
X111874980Y-88799501D01*
X111772203Y-88810000D01*
X111772200Y-88810001D01*
X111605668Y-88865185D01*
X111605663Y-88865187D01*
X111456342Y-88957289D01*
X111332288Y-89081343D01*
X111332283Y-89081349D01*
X111330241Y-89084661D01*
X111328247Y-89086453D01*
X111327807Y-89087011D01*
X111327711Y-89086935D01*
X111278291Y-89131383D01*
X111209328Y-89142602D01*
X111145247Y-89114755D01*
X111119168Y-89084656D01*
X111117319Y-89081659D01*
X111117316Y-89081655D01*
X110993345Y-88957684D01*
X110844124Y-88865643D01*
X110844119Y-88865641D01*
X110677697Y-88810494D01*
X110677690Y-88810493D01*
X110574986Y-88800000D01*
X110450000Y-88800000D01*
X110450000Y-91199999D01*
X109949999Y-91199999D01*
X109950000Y-91199998D01*
X109950000Y-90250000D01*
X109125001Y-90250000D01*
X106460500Y-90250000D01*
X106460500Y-89750000D01*
X109125000Y-89750000D01*
X109950000Y-89750000D01*
X109950000Y-88800000D01*
X109825027Y-88800000D01*
X109825012Y-88800001D01*
X109722302Y-88810494D01*
X109555880Y-88865641D01*
X109555875Y-88865643D01*
X109406654Y-88957684D01*
X109282684Y-89081654D01*
X109190643Y-89230875D01*
X109190641Y-89230880D01*
X109135494Y-89397302D01*
X109135493Y-89397309D01*
X109125000Y-89500013D01*
X109125000Y-89750000D01*
X106460500Y-89750000D01*
X106460500Y-86250000D01*
X109125001Y-86250000D01*
X109125001Y-86499986D01*
X109135494Y-86602697D01*
X109190641Y-86769119D01*
X109190643Y-86769124D01*
X109282684Y-86918345D01*
X109406654Y-87042315D01*
X109555875Y-87134356D01*
X109555880Y-87134358D01*
X109722302Y-87189505D01*
X109722309Y-87189506D01*
X109825019Y-87199999D01*
X109949999Y-87199999D01*
X110450000Y-87199999D01*
X110574972Y-87199999D01*
X110574986Y-87199998D01*
X110677697Y-87189505D01*
X110844119Y-87134358D01*
X110844124Y-87134356D01*
X110993345Y-87042315D01*
X111117318Y-86918342D01*
X111119165Y-86915348D01*
X111120969Y-86913724D01*
X111121798Y-86912677D01*
X111121976Y-86912818D01*
X111171110Y-86868621D01*
X111240073Y-86857396D01*
X111304156Y-86885236D01*
X111330243Y-86915341D01*
X111332288Y-86918656D01*
X111456344Y-87042712D01*
X111605666Y-87134814D01*
X111772203Y-87189999D01*
X111874991Y-87200500D01*
X112625008Y-87200499D01*
X112625016Y-87200498D01*
X112625019Y-87200498D01*
X112681302Y-87194748D01*
X112727797Y-87189999D01*
X112894334Y-87134814D01*
X113043656Y-87042712D01*
X113167712Y-86918656D01*
X113259814Y-86769334D01*
X113271028Y-86735494D01*
X113310801Y-86678050D01*
X113375317Y-86651228D01*
X113388733Y-86650500D01*
X113494292Y-86650500D01*
X113561331Y-86670185D01*
X113586915Y-86693380D01*
X113587053Y-86693243D01*
X113589852Y-86696042D01*
X113591555Y-86697586D01*
X113592155Y-86698345D01*
X113592160Y-86698350D01*
X113714150Y-86820340D01*
X113860984Y-86910908D01*
X114024747Y-86965174D01*
X114125823Y-86975500D01*
X114724176Y-86975499D01*
X114724184Y-86975498D01*
X114724187Y-86975498D01*
X114779530Y-86969844D01*
X114825253Y-86965174D01*
X114989016Y-86910908D01*
X115135850Y-86820340D01*
X115249819Y-86706371D01*
X115311142Y-86672886D01*
X115380834Y-86677870D01*
X115425181Y-86706371D01*
X115539150Y-86820340D01*
X115685984Y-86910908D01*
X115849747Y-86965174D01*
X115950823Y-86975500D01*
X116549176Y-86975499D01*
X116549184Y-86975498D01*
X116549187Y-86975498D01*
X116604530Y-86969844D01*
X116650253Y-86965174D01*
X116814016Y-86910908D01*
X116960850Y-86820340D01*
X117082840Y-86698350D01*
X117082841Y-86698347D01*
X117082844Y-86698345D01*
X117083445Y-86697586D01*
X117083989Y-86697200D01*
X117087947Y-86693243D01*
X117088623Y-86693919D01*
X117140468Y-86657211D01*
X117180708Y-86650500D01*
X117469932Y-86650500D01*
X117535904Y-86669506D01*
X117625477Y-86725789D01*
X117625481Y-86725790D01*
X117795737Y-86785366D01*
X117795743Y-86785367D01*
X117795745Y-86785368D01*
X117795746Y-86785368D01*
X117795750Y-86785369D01*
X117974996Y-86805565D01*
X117975000Y-86805565D01*
X117975004Y-86805565D01*
X118154249Y-86785369D01*
X118154252Y-86785368D01*
X118154255Y-86785368D01*
X118324522Y-86725789D01*
X118477262Y-86629816D01*
X118604816Y-86502262D01*
X118700789Y-86349522D01*
X118760368Y-86179255D01*
X118763904Y-86147872D01*
X118780565Y-86000003D01*
X118780565Y-85999996D01*
X118760369Y-85820750D01*
X118760368Y-85820745D01*
X118704145Y-85660070D01*
X118700789Y-85650478D01*
X118691946Y-85636405D01*
X118628215Y-85534977D01*
X118604816Y-85497738D01*
X118477262Y-85370184D01*
X118414096Y-85330494D01*
X118324523Y-85274211D01*
X118154254Y-85214631D01*
X118154249Y-85214630D01*
X117975004Y-85194435D01*
X117974996Y-85194435D01*
X117795750Y-85214630D01*
X117795737Y-85214633D01*
X117625481Y-85274209D01*
X117625477Y-85274210D01*
X117535904Y-85330494D01*
X117469932Y-85349500D01*
X117180708Y-85349500D01*
X117113669Y-85329815D01*
X117088084Y-85306619D01*
X117087947Y-85306757D01*
X117085147Y-85303957D01*
X117083445Y-85302414D01*
X117082844Y-85301654D01*
X116960851Y-85179661D01*
X116960850Y-85179660D01*
X116853302Y-85113324D01*
X116814018Y-85089093D01*
X116814013Y-85089091D01*
X116791585Y-85081659D01*
X116650253Y-85034826D01*
X116650251Y-85034825D01*
X116549178Y-85024500D01*
X115950830Y-85024500D01*
X115950812Y-85024501D01*
X115849747Y-85034825D01*
X115685984Y-85089092D01*
X115685981Y-85089093D01*
X115539148Y-85179661D01*
X115425181Y-85293629D01*
X115363858Y-85327114D01*
X115294166Y-85322130D01*
X115249819Y-85293629D01*
X115135851Y-85179661D01*
X115135850Y-85179660D01*
X115028302Y-85113324D01*
X114989018Y-85089093D01*
X114989013Y-85089091D01*
X114966585Y-85081659D01*
X114825253Y-85034826D01*
X114825251Y-85034825D01*
X114724178Y-85024500D01*
X114125830Y-85024500D01*
X114125812Y-85024501D01*
X114024747Y-85034825D01*
X113860984Y-85089092D01*
X113860981Y-85089093D01*
X113714148Y-85179661D01*
X113592155Y-85301654D01*
X113591555Y-85302414D01*
X113591010Y-85302799D01*
X113587053Y-85306757D01*
X113586376Y-85306080D01*
X113534532Y-85342789D01*
X113494292Y-85349500D01*
X113388733Y-85349500D01*
X113321694Y-85329815D01*
X113275939Y-85277011D01*
X113271028Y-85264506D01*
X113266495Y-85250829D01*
X113259814Y-85230666D01*
X113167712Y-85081344D01*
X113043656Y-84957288D01*
X112950777Y-84900000D01*
X112894336Y-84865187D01*
X112894331Y-84865185D01*
X112857565Y-84853002D01*
X112727797Y-84810001D01*
X112727795Y-84810000D01*
X112625010Y-84799500D01*
X111874998Y-84799500D01*
X111874980Y-84799501D01*
X111772203Y-84810000D01*
X111772200Y-84810001D01*
X111605668Y-84865185D01*
X111605663Y-84865187D01*
X111456342Y-84957289D01*
X111332288Y-85081343D01*
X111332283Y-85081349D01*
X111330241Y-85084661D01*
X111328247Y-85086453D01*
X111327807Y-85087011D01*
X111327711Y-85086935D01*
X111278291Y-85131383D01*
X111209328Y-85142602D01*
X111145247Y-85114755D01*
X111119168Y-85084656D01*
X111117319Y-85081659D01*
X111117316Y-85081655D01*
X110993345Y-84957684D01*
X110844124Y-84865643D01*
X110844119Y-84865641D01*
X110677697Y-84810494D01*
X110677690Y-84810493D01*
X110574986Y-84800000D01*
X110450000Y-84800000D01*
X110450000Y-87199999D01*
X109949999Y-87199999D01*
X109950000Y-87199998D01*
X109950000Y-86250000D01*
X109125001Y-86250000D01*
X106460500Y-86250000D01*
X106460500Y-85750000D01*
X109125000Y-85750000D01*
X109950000Y-85750000D01*
X109950000Y-84800000D01*
X109825027Y-84800000D01*
X109825012Y-84800001D01*
X109722302Y-84810494D01*
X109555880Y-84865641D01*
X109555875Y-84865643D01*
X109406654Y-84957684D01*
X109282684Y-85081654D01*
X109190643Y-85230875D01*
X109190641Y-85230880D01*
X109135494Y-85397302D01*
X109135493Y-85397309D01*
X109125000Y-85500013D01*
X109125000Y-85750000D01*
X106460500Y-85750000D01*
X106460500Y-82250000D01*
X109125001Y-82250000D01*
X109125001Y-82499986D01*
X109135494Y-82602697D01*
X109190641Y-82769119D01*
X109190643Y-82769124D01*
X109282684Y-82918345D01*
X109406654Y-83042315D01*
X109555875Y-83134356D01*
X109555880Y-83134358D01*
X109722302Y-83189505D01*
X109722309Y-83189506D01*
X109825019Y-83199999D01*
X109949999Y-83199999D01*
X110450000Y-83199999D01*
X110574972Y-83199999D01*
X110574986Y-83199998D01*
X110677697Y-83189505D01*
X110844119Y-83134358D01*
X110844124Y-83134356D01*
X110993345Y-83042315D01*
X111117318Y-82918342D01*
X111119165Y-82915348D01*
X111120969Y-82913724D01*
X111121798Y-82912677D01*
X111121976Y-82912818D01*
X111171110Y-82868621D01*
X111240073Y-82857396D01*
X111304156Y-82885236D01*
X111330243Y-82915341D01*
X111332288Y-82918656D01*
X111456344Y-83042712D01*
X111605666Y-83134814D01*
X111772203Y-83189999D01*
X111874991Y-83200500D01*
X112625008Y-83200499D01*
X112625016Y-83200498D01*
X112625019Y-83200498D01*
X112681302Y-83194748D01*
X112727797Y-83189999D01*
X112894334Y-83134814D01*
X113043656Y-83042712D01*
X113167712Y-82918656D01*
X113259814Y-82769334D01*
X113271028Y-82735494D01*
X113310801Y-82678050D01*
X113375317Y-82651228D01*
X113388733Y-82650500D01*
X113494292Y-82650500D01*
X113561331Y-82670185D01*
X113586915Y-82693380D01*
X113587053Y-82693243D01*
X113589852Y-82696042D01*
X113591555Y-82697586D01*
X113592155Y-82698345D01*
X113592160Y-82698350D01*
X113714150Y-82820340D01*
X113860984Y-82910908D01*
X114024747Y-82965174D01*
X114125823Y-82975500D01*
X114724176Y-82975499D01*
X114724184Y-82975498D01*
X114724187Y-82975498D01*
X114779530Y-82969844D01*
X114825253Y-82965174D01*
X114989016Y-82910908D01*
X115135850Y-82820340D01*
X115249819Y-82706371D01*
X115311142Y-82672886D01*
X115380834Y-82677870D01*
X115425181Y-82706371D01*
X115539150Y-82820340D01*
X115685984Y-82910908D01*
X115849747Y-82965174D01*
X115950823Y-82975500D01*
X116549176Y-82975499D01*
X116549184Y-82975498D01*
X116549187Y-82975498D01*
X116604530Y-82969844D01*
X116650253Y-82965174D01*
X116814016Y-82910908D01*
X116960850Y-82820340D01*
X117082840Y-82698350D01*
X117082841Y-82698347D01*
X117082844Y-82698345D01*
X117083445Y-82697586D01*
X117083989Y-82697200D01*
X117087947Y-82693243D01*
X117088623Y-82693919D01*
X117140468Y-82657211D01*
X117180708Y-82650500D01*
X117494932Y-82650500D01*
X117560904Y-82669506D01*
X117650477Y-82725789D01*
X117650481Y-82725790D01*
X117820737Y-82785366D01*
X117820743Y-82785367D01*
X117820745Y-82785368D01*
X117820746Y-82785368D01*
X117820750Y-82785369D01*
X117999996Y-82805565D01*
X118000000Y-82805565D01*
X118000004Y-82805565D01*
X118179249Y-82785369D01*
X118179252Y-82785368D01*
X118179255Y-82785368D01*
X118349522Y-82725789D01*
X118502262Y-82629816D01*
X118629816Y-82502262D01*
X118725789Y-82349522D01*
X118785368Y-82179255D01*
X118795945Y-82085380D01*
X118805565Y-82000003D01*
X118805565Y-81999996D01*
X118785369Y-81820750D01*
X118785368Y-81820745D01*
X118778284Y-81800499D01*
X118725789Y-81650478D01*
X118720909Y-81642712D01*
X118666377Y-81555925D01*
X118629816Y-81497738D01*
X118502262Y-81370184D01*
X118457941Y-81342335D01*
X118349523Y-81274211D01*
X118179254Y-81214631D01*
X118179249Y-81214630D01*
X118000004Y-81194435D01*
X117999996Y-81194435D01*
X117820750Y-81214630D01*
X117820737Y-81214633D01*
X117650481Y-81274209D01*
X117650477Y-81274210D01*
X117560904Y-81330494D01*
X117494932Y-81349500D01*
X117180708Y-81349500D01*
X117113669Y-81329815D01*
X117088084Y-81306619D01*
X117087947Y-81306757D01*
X117085147Y-81303957D01*
X117083445Y-81302414D01*
X117082844Y-81301654D01*
X116960851Y-81179661D01*
X116960850Y-81179660D01*
X116847477Y-81109731D01*
X116814018Y-81089093D01*
X116814013Y-81089091D01*
X116791585Y-81081659D01*
X116650253Y-81034826D01*
X116650251Y-81034825D01*
X116549178Y-81024500D01*
X115950830Y-81024500D01*
X115950812Y-81024501D01*
X115849747Y-81034825D01*
X115685984Y-81089092D01*
X115685981Y-81089093D01*
X115539148Y-81179661D01*
X115425181Y-81293629D01*
X115363858Y-81327114D01*
X115294166Y-81322130D01*
X115249819Y-81293629D01*
X115135851Y-81179661D01*
X115135850Y-81179660D01*
X115022477Y-81109731D01*
X114989018Y-81089093D01*
X114989013Y-81089091D01*
X114966585Y-81081659D01*
X114825253Y-81034826D01*
X114825251Y-81034825D01*
X114724178Y-81024500D01*
X114125830Y-81024500D01*
X114125812Y-81024501D01*
X114024747Y-81034825D01*
X113860984Y-81089092D01*
X113860981Y-81089093D01*
X113714148Y-81179661D01*
X113592155Y-81301654D01*
X113591555Y-81302414D01*
X113591010Y-81302799D01*
X113587053Y-81306757D01*
X113586376Y-81306080D01*
X113534532Y-81342789D01*
X113494292Y-81349500D01*
X113388733Y-81349500D01*
X113321694Y-81329815D01*
X113275939Y-81277011D01*
X113271028Y-81264506D01*
X113265434Y-81247627D01*
X113259814Y-81230666D01*
X113167712Y-81081344D01*
X113043656Y-80957288D01*
X112894334Y-80865186D01*
X112727797Y-80810001D01*
X112727795Y-80810000D01*
X112625010Y-80799500D01*
X111874998Y-80799500D01*
X111874980Y-80799501D01*
X111772203Y-80810000D01*
X111772200Y-80810001D01*
X111605668Y-80865185D01*
X111605663Y-80865187D01*
X111456342Y-80957289D01*
X111332288Y-81081343D01*
X111332283Y-81081349D01*
X111330241Y-81084661D01*
X111328247Y-81086453D01*
X111327807Y-81087011D01*
X111327711Y-81086935D01*
X111278291Y-81131383D01*
X111209328Y-81142602D01*
X111145247Y-81114755D01*
X111119168Y-81084656D01*
X111117319Y-81081659D01*
X111117316Y-81081655D01*
X110993345Y-80957684D01*
X110844124Y-80865643D01*
X110844119Y-80865641D01*
X110677697Y-80810494D01*
X110677690Y-80810493D01*
X110574986Y-80800000D01*
X110450000Y-80800000D01*
X110450000Y-83199999D01*
X109949999Y-83199999D01*
X109950000Y-83199998D01*
X109950000Y-82250000D01*
X109125001Y-82250000D01*
X106460500Y-82250000D01*
X106460500Y-81750000D01*
X109125000Y-81750000D01*
X109950000Y-81750000D01*
X109950000Y-80800000D01*
X109825027Y-80800000D01*
X109825012Y-80800001D01*
X109722302Y-80810494D01*
X109555880Y-80865641D01*
X109555875Y-80865643D01*
X109406654Y-80957684D01*
X109282684Y-81081654D01*
X109190643Y-81230875D01*
X109190641Y-81230880D01*
X109135494Y-81397302D01*
X109135493Y-81397309D01*
X109125000Y-81500013D01*
X109125000Y-81750000D01*
X106460500Y-81750000D01*
X106460500Y-78250000D01*
X108900001Y-78250000D01*
X108900001Y-78499986D01*
X108910494Y-78602697D01*
X108965641Y-78769119D01*
X108965643Y-78769124D01*
X109057684Y-78918345D01*
X109181654Y-79042315D01*
X109330875Y-79134356D01*
X109330880Y-79134358D01*
X109497302Y-79189505D01*
X109497309Y-79189506D01*
X109600019Y-79199999D01*
X109724999Y-79199999D01*
X110225000Y-79199999D01*
X110349972Y-79199999D01*
X110349986Y-79199998D01*
X110452697Y-79189505D01*
X110619119Y-79134358D01*
X110619124Y-79134356D01*
X110768345Y-79042315D01*
X110892318Y-78918342D01*
X110894165Y-78915348D01*
X110895969Y-78913724D01*
X110896798Y-78912677D01*
X110896976Y-78912818D01*
X110946110Y-78868621D01*
X111015073Y-78857396D01*
X111079156Y-78885236D01*
X111105243Y-78915341D01*
X111107288Y-78918656D01*
X111231344Y-79042712D01*
X111380666Y-79134814D01*
X111547203Y-79189999D01*
X111649991Y-79200500D01*
X112400008Y-79200499D01*
X112400016Y-79200498D01*
X112400019Y-79200498D01*
X112489630Y-79191344D01*
X112502797Y-79189999D01*
X112669334Y-79134814D01*
X112818656Y-79042712D01*
X112942712Y-78918656D01*
X113034814Y-78769334D01*
X113046028Y-78735494D01*
X113085801Y-78678050D01*
X113150317Y-78651228D01*
X113163733Y-78650500D01*
X113269292Y-78650500D01*
X113336331Y-78670185D01*
X113361915Y-78693380D01*
X113362053Y-78693243D01*
X113364852Y-78696042D01*
X113366555Y-78697586D01*
X113367155Y-78698345D01*
X113367160Y-78698350D01*
X113489150Y-78820340D01*
X113635984Y-78910908D01*
X113799747Y-78965174D01*
X113900823Y-78975500D01*
X114499176Y-78975499D01*
X114499184Y-78975498D01*
X114499187Y-78975498D01*
X114554530Y-78969844D01*
X114600253Y-78965174D01*
X114764016Y-78910908D01*
X114910850Y-78820340D01*
X115024819Y-78706371D01*
X115086142Y-78672886D01*
X115155834Y-78677870D01*
X115200181Y-78706371D01*
X115314150Y-78820340D01*
X115460984Y-78910908D01*
X115624747Y-78965174D01*
X115725823Y-78975500D01*
X116324176Y-78975499D01*
X116324184Y-78975498D01*
X116324187Y-78975498D01*
X116379530Y-78969844D01*
X116425253Y-78965174D01*
X116589016Y-78910908D01*
X116735850Y-78820340D01*
X116857840Y-78698350D01*
X116857841Y-78698347D01*
X116857844Y-78698345D01*
X116858445Y-78697586D01*
X116858989Y-78697200D01*
X116862947Y-78693243D01*
X116863623Y-78693919D01*
X116915468Y-78657211D01*
X116955708Y-78650500D01*
X117494932Y-78650500D01*
X117560904Y-78669506D01*
X117650477Y-78725789D01*
X117650481Y-78725790D01*
X117820737Y-78785366D01*
X117820743Y-78785367D01*
X117820745Y-78785368D01*
X117820746Y-78785368D01*
X117820750Y-78785369D01*
X117999996Y-78805565D01*
X118000000Y-78805565D01*
X118000004Y-78805565D01*
X118179249Y-78785369D01*
X118179252Y-78785368D01*
X118179255Y-78785368D01*
X118349522Y-78725789D01*
X118502262Y-78629816D01*
X118629816Y-78502262D01*
X118725789Y-78349522D01*
X118785368Y-78179255D01*
X118786632Y-78168036D01*
X118805565Y-78000003D01*
X118805565Y-77999996D01*
X118785369Y-77820750D01*
X118785368Y-77820745D01*
X118751579Y-77724182D01*
X118725789Y-77650478D01*
X118699652Y-77608882D01*
X118639284Y-77512807D01*
X118629816Y-77497738D01*
X118502262Y-77370184D01*
X118439096Y-77330494D01*
X118349523Y-77274211D01*
X118179254Y-77214631D01*
X118179249Y-77214630D01*
X118000004Y-77194435D01*
X117999996Y-77194435D01*
X117820750Y-77214630D01*
X117820737Y-77214633D01*
X117650481Y-77274209D01*
X117650477Y-77274210D01*
X117560904Y-77330494D01*
X117494932Y-77349500D01*
X116955708Y-77349500D01*
X116888669Y-77329815D01*
X116863084Y-77306619D01*
X116862947Y-77306757D01*
X116860147Y-77303957D01*
X116858445Y-77302414D01*
X116857844Y-77301654D01*
X116735851Y-77179661D01*
X116735850Y-77179660D01*
X116589016Y-77089092D01*
X116425253Y-77034826D01*
X116425251Y-77034825D01*
X116324178Y-77024500D01*
X115725830Y-77024500D01*
X115725812Y-77024501D01*
X115624747Y-77034825D01*
X115460984Y-77089092D01*
X115460981Y-77089093D01*
X115314148Y-77179661D01*
X115200181Y-77293629D01*
X115138858Y-77327114D01*
X115069166Y-77322130D01*
X115024819Y-77293629D01*
X114910851Y-77179661D01*
X114910850Y-77179660D01*
X114764016Y-77089092D01*
X114600253Y-77034826D01*
X114600251Y-77034825D01*
X114499178Y-77024500D01*
X113900830Y-77024500D01*
X113900812Y-77024501D01*
X113799747Y-77034825D01*
X113635984Y-77089092D01*
X113635981Y-77089093D01*
X113489148Y-77179661D01*
X113367155Y-77301654D01*
X113366555Y-77302414D01*
X113366010Y-77302799D01*
X113362053Y-77306757D01*
X113361376Y-77306080D01*
X113309532Y-77342789D01*
X113269292Y-77349500D01*
X113163733Y-77349500D01*
X113096694Y-77329815D01*
X113050939Y-77277011D01*
X113046028Y-77264506D01*
X113040049Y-77246463D01*
X113034814Y-77230666D01*
X112942712Y-77081344D01*
X112818656Y-76957288D01*
X112669334Y-76865186D01*
X112502797Y-76810001D01*
X112502795Y-76810000D01*
X112400010Y-76799500D01*
X111649998Y-76799500D01*
X111649980Y-76799501D01*
X111547203Y-76810000D01*
X111547200Y-76810001D01*
X111380668Y-76865185D01*
X111380663Y-76865187D01*
X111231342Y-76957289D01*
X111107288Y-77081343D01*
X111107283Y-77081349D01*
X111105241Y-77084661D01*
X111103247Y-77086453D01*
X111102807Y-77087011D01*
X111102711Y-77086935D01*
X111053291Y-77131383D01*
X110984328Y-77142602D01*
X110920247Y-77114755D01*
X110894168Y-77084656D01*
X110892319Y-77081659D01*
X110892316Y-77081655D01*
X110768345Y-76957684D01*
X110619124Y-76865643D01*
X110619119Y-76865641D01*
X110452697Y-76810494D01*
X110452690Y-76810493D01*
X110349986Y-76800000D01*
X110225000Y-76800000D01*
X110225000Y-79199999D01*
X109724999Y-79199999D01*
X109725000Y-79199998D01*
X109725000Y-78250000D01*
X108900001Y-78250000D01*
X106460500Y-78250000D01*
X106460500Y-77750000D01*
X108900000Y-77750000D01*
X109725000Y-77750000D01*
X109725000Y-76800000D01*
X109600027Y-76800000D01*
X109600012Y-76800001D01*
X109497302Y-76810494D01*
X109330880Y-76865641D01*
X109330875Y-76865643D01*
X109181654Y-76957684D01*
X109057684Y-77081654D01*
X108965643Y-77230875D01*
X108965641Y-77230880D01*
X108910494Y-77397302D01*
X108910493Y-77397309D01*
X108900000Y-77500013D01*
X108900000Y-77750000D01*
X106460500Y-77750000D01*
X106460500Y-75218676D01*
X106480185Y-75151637D01*
X106496819Y-75130995D01*
X108540314Y-73087500D01*
X127025000Y-73087500D01*
X127750000Y-73087500D01*
X127750000Y-72350000D01*
X128250000Y-72350000D01*
X128250000Y-73087500D01*
X128974999Y-73087500D01*
X128974999Y-73038360D01*
X128974998Y-73038345D01*
X128964680Y-72937347D01*
X128910453Y-72773699D01*
X128910448Y-72773688D01*
X128819947Y-72626965D01*
X128819944Y-72626961D01*
X128698038Y-72505055D01*
X128698034Y-72505052D01*
X128551311Y-72414551D01*
X128551300Y-72414546D01*
X128387652Y-72360319D01*
X128286654Y-72350000D01*
X128250000Y-72350000D01*
X127750000Y-72350000D01*
X127713361Y-72350000D01*
X127713343Y-72350001D01*
X127612347Y-72360319D01*
X127448699Y-72414546D01*
X127448688Y-72414551D01*
X127301965Y-72505052D01*
X127301961Y-72505055D01*
X127180055Y-72626961D01*
X127180052Y-72626965D01*
X127089551Y-72773688D01*
X127089546Y-72773699D01*
X127035319Y-72937347D01*
X127025000Y-73038345D01*
X127025000Y-73087500D01*
X108540314Y-73087500D01*
X125130995Y-56496819D01*
X125192318Y-56463334D01*
X125218676Y-56460500D01*
X131022276Y-56460500D01*
X131089315Y-56480185D01*
G37*
%TD.AperFunction*%
%TA.AperFunction,Conductor*%
G36*
X162687539Y-101557685D02*
G01*
X162733294Y-101610489D01*
X162744500Y-101662000D01*
X162744500Y-101862252D01*
X162756131Y-101920729D01*
X162756132Y-101920730D01*
X162800448Y-101987053D01*
X162803385Y-101989990D01*
X162836870Y-102051313D01*
X162831886Y-102121005D01*
X162790014Y-102176938D01*
X162782156Y-102182287D01*
X162781655Y-102182683D01*
X162657684Y-102306654D01*
X162565643Y-102455875D01*
X162565641Y-102455880D01*
X162510494Y-102622302D01*
X162510493Y-102622309D01*
X162500000Y-102725013D01*
X162500000Y-103000000D01*
X163626000Y-103000000D01*
X163693039Y-103019685D01*
X163738794Y-103072489D01*
X163750000Y-103124000D01*
X163750000Y-104484305D01*
X163772291Y-104525128D01*
X163767307Y-104594820D01*
X163738806Y-104639167D01*
X163355485Y-105022487D01*
X163355484Y-105022488D01*
X163216657Y-105213565D01*
X163159089Y-105326550D01*
X163109433Y-105424003D01*
X163044509Y-105623819D01*
X163005071Y-105681494D01*
X162940712Y-105708692D01*
X162926578Y-105709500D01*
X161164500Y-105709500D01*
X161097461Y-105689815D01*
X161051706Y-105637011D01*
X161040500Y-105585500D01*
X161040500Y-105464656D01*
X161054015Y-105408361D01*
X161140566Y-105238496D01*
X161140566Y-105238495D01*
X161140568Y-105238492D01*
X161213553Y-105013868D01*
X161224400Y-104945381D01*
X161250500Y-104780597D01*
X161250500Y-104544402D01*
X161215076Y-104320750D01*
X161213553Y-104311131D01*
X161140568Y-104086508D01*
X161033343Y-103876066D01*
X160894517Y-103684990D01*
X160856497Y-103646970D01*
X160823013Y-103585648D01*
X160827997Y-103515956D01*
X160835799Y-103500000D01*
X162500001Y-103500000D01*
X162500001Y-103774986D01*
X162510494Y-103877697D01*
X162565641Y-104044119D01*
X162565643Y-104044124D01*
X162657684Y-104193345D01*
X162781654Y-104317315D01*
X162930875Y-104409356D01*
X162930880Y-104409358D01*
X163097302Y-104464505D01*
X163097309Y-104464506D01*
X163200019Y-104474999D01*
X163249999Y-104474998D01*
X163250000Y-104474998D01*
X163250000Y-103500000D01*
X162500001Y-103500000D01*
X160835799Y-103500000D01*
X160838636Y-103494199D01*
X160884814Y-103419334D01*
X160939999Y-103252797D01*
X160950500Y-103150009D01*
X160950499Y-102524992D01*
X160946550Y-102486338D01*
X160939999Y-102422203D01*
X160939998Y-102422200D01*
X160923004Y-102370917D01*
X160884814Y-102255666D01*
X160792712Y-102106344D01*
X160668656Y-101982288D01*
X160519334Y-101890186D01*
X160519328Y-101890184D01*
X160485494Y-101878972D01*
X160428050Y-101839199D01*
X160401228Y-101774683D01*
X160400500Y-101761267D01*
X160400500Y-101662000D01*
X160420185Y-101594961D01*
X160472989Y-101549206D01*
X160524500Y-101538000D01*
X162620500Y-101538000D01*
X162687539Y-101557685D01*
G37*
%TD.AperFunction*%
%TA.AperFunction,Conductor*%
G36*
X140784075Y-80897007D02*
G01*
X140750000Y-81024174D01*
X140750000Y-81155826D01*
X140784075Y-81282993D01*
X140816988Y-81340000D01*
X139143012Y-81340000D01*
X139175925Y-81282993D01*
X139210000Y-81155826D01*
X139210000Y-81024174D01*
X139175925Y-80897007D01*
X139143012Y-80840000D01*
X140816988Y-80840000D01*
X140784075Y-80897007D01*
G37*
%TD.AperFunction*%
%TA.AperFunction,Conductor*%
G36*
X138960000Y-80656988D02*
G01*
X138902993Y-80624075D01*
X138775826Y-80590000D01*
X138644174Y-80590000D01*
X138517007Y-80624075D01*
X138460000Y-80656988D01*
X138460000Y-78983012D01*
X138517007Y-79015925D01*
X138644174Y-79050000D01*
X138775826Y-79050000D01*
X138902993Y-79015925D01*
X138960000Y-78983012D01*
X138960000Y-80656988D01*
G37*
%TD.AperFunction*%
%TA.AperFunction,Conductor*%
G36*
X141500000Y-80656988D02*
G01*
X141442993Y-80624075D01*
X141315826Y-80590000D01*
X141184174Y-80590000D01*
X141057007Y-80624075D01*
X141000000Y-80656988D01*
X141000000Y-78983012D01*
X141057007Y-79015925D01*
X141184174Y-79050000D01*
X141315826Y-79050000D01*
X141442993Y-79015925D01*
X141500000Y-78983012D01*
X141500000Y-80656988D01*
G37*
%TD.AperFunction*%
%TA.AperFunction,Conductor*%
G36*
X140784075Y-78357007D02*
G01*
X140750000Y-78484174D01*
X140750000Y-78615826D01*
X140784075Y-78742993D01*
X140816988Y-78800000D01*
X139143012Y-78800000D01*
X139175925Y-78742993D01*
X139210000Y-78615826D01*
X139210000Y-78484174D01*
X139175925Y-78357007D01*
X139143012Y-78300000D01*
X140816988Y-78300000D01*
X140784075Y-78357007D01*
G37*
%TD.AperFunction*%
%TD*%
M02*
