%TF.GenerationSoftware,KiCad,Pcbnew,8.0.1*%
%TF.CreationDate,2024-04-19T02:33:02-07:00*%
%TF.ProjectId,CMOD_A7_Upper,434d4f44-5f41-4375-9f55-707065722e6b,rev?*%
%TF.SameCoordinates,Original*%
%TF.FileFunction,Copper,L2,Bot*%
%TF.FilePolarity,Positive*%
%FSLAX46Y46*%
G04 Gerber Fmt 4.6, Leading zero omitted, Abs format (unit mm)*
G04 Created by KiCad (PCBNEW 8.0.1) date 2024-04-19 02:33:02*
%MOMM*%
%LPD*%
G01*
G04 APERTURE LIST*
G04 Aperture macros list*
%AMRoundRect*
0 Rectangle with rounded corners*
0 $1 Rounding radius*
0 $2 $3 $4 $5 $6 $7 $8 $9 X,Y pos of 4 corners*
0 Add a 4 corners polygon primitive as box body*
4,1,4,$2,$3,$4,$5,$6,$7,$8,$9,$2,$3,0*
0 Add four circle primitives for the rounded corners*
1,1,$1+$1,$2,$3*
1,1,$1+$1,$4,$5*
1,1,$1+$1,$6,$7*
1,1,$1+$1,$8,$9*
0 Add four rect primitives between the rounded corners*
20,1,$1+$1,$2,$3,$4,$5,0*
20,1,$1+$1,$4,$5,$6,$7,0*
20,1,$1+$1,$6,$7,$8,$9,0*
20,1,$1+$1,$8,$9,$2,$3,0*%
G04 Aperture macros list end*
%TA.AperFunction,ComponentPad*%
%ADD10R,1.600000X1.600000*%
%TD*%
%TA.AperFunction,ComponentPad*%
%ADD11C,1.600000*%
%TD*%
%TA.AperFunction,ComponentPad*%
%ADD12C,1.524000*%
%TD*%
%TA.AperFunction,ComponentPad*%
%ADD13RoundRect,0.381000X0.381000X0.381000X-0.381000X0.381000X-0.381000X-0.381000X0.381000X-0.381000X0*%
%TD*%
%TA.AperFunction,ComponentPad*%
%ADD14R,1.500000X1.500000*%
%TD*%
%TA.AperFunction,ComponentPad*%
%ADD15RoundRect,0.250000X0.725000X-0.600000X0.725000X0.600000X-0.725000X0.600000X-0.725000X-0.600000X0*%
%TD*%
%TA.AperFunction,ComponentPad*%
%ADD16O,1.950000X1.700000*%
%TD*%
%TA.AperFunction,ComponentPad*%
%ADD17R,1.700000X1.700000*%
%TD*%
%TA.AperFunction,ComponentPad*%
%ADD18O,1.700000X1.700000*%
%TD*%
%TA.AperFunction,ViaPad*%
%ADD19C,0.600000*%
%TD*%
%TA.AperFunction,Conductor*%
%ADD20C,1.500000*%
%TD*%
%TA.AperFunction,Conductor*%
%ADD21C,1.000000*%
%TD*%
%TA.AperFunction,Conductor*%
%ADD22C,0.200000*%
%TD*%
%TA.AperFunction,Conductor*%
%ADD23C,2.000000*%
%TD*%
%TA.AperFunction,Conductor*%
%ADD24C,0.300000*%
%TD*%
G04 APERTURE END LIST*
D10*
%TO.P,C8,1*%
%TO.N,+5V*%
X159500000Y-93500000D03*
D11*
%TO.P,C8,2*%
%TO.N,GND*%
X157000000Y-93500000D03*
%TD*%
D12*
%TO.P,U2,1,D1*%
%TO.N,/FPGA5*%
X147500000Y-115920000D03*
%TO.P,U2,2,D2*%
%TO.N,/FPGA4*%
X147500000Y-113380000D03*
%TO.P,U2,3,D3*%
%TO.N,/FPGA3*%
X147500000Y-110840000D03*
%TO.P,U2,4,D4*%
%TO.N,/FPGA2*%
X147500000Y-108300000D03*
%TO.P,U2,5,D5*%
%TO.N,/FPGA1*%
X147500000Y-105760000D03*
%TO.P,U2,6,D6*%
%TO.N,/FPGA0*%
X147500000Y-103220000D03*
%TO.P,U2,7,D7*%
%TO.N,unconnected-(U2-D7-Pad7)*%
X147500000Y-100680000D03*
%TO.P,U2,8,D8*%
%TO.N,unconnected-(U2-D8-Pad8)*%
X147500000Y-98140000D03*
%TO.P,U2,9,D9*%
%TO.N,unconnected-(U2-D9-Pad9)*%
X147500000Y-95600000D03*
%TO.P,U2,10,D10*%
%TO.N,unconnected-(U2-D10-Pad10)*%
X147500000Y-93060000D03*
%TO.P,U2,11,D11*%
%TO.N,unconnected-(U2-D11-Pad11)*%
X147500000Y-90520000D03*
%TO.P,U2,12,D12*%
%TO.N,unconnected-(U2-D12-Pad12)*%
X147500000Y-87980000D03*
%TO.P,U2,13,D13*%
%TO.N,unconnected-(U2-D13-Pad13)*%
X147500000Y-85440000D03*
%TO.P,U2,14,D14*%
%TO.N,unconnected-(U2-D14-Pad14)*%
X147500000Y-82900000D03*
%TO.P,U2,15,A1*%
%TO.N,unconnected-(U2-A1-Pad15)*%
X147500000Y-80360000D03*
%TO.P,U2,16,A2*%
%TO.N,unconnected-(U2-A2-Pad16)*%
X147500000Y-77820000D03*
%TO.P,U2,17,D17*%
%TO.N,unconnected-(U2-D17-Pad17)*%
X147500000Y-75280000D03*
%TO.P,U2,18,D18*%
%TO.N,unconnected-(U2-D18-Pad18)*%
X147500000Y-72740000D03*
%TO.P,U2,19,D19*%
%TO.N,unconnected-(U2-D19-Pad19)*%
X147500000Y-70200000D03*
%TO.P,U2,20,D20*%
%TO.N,unconnected-(U2-D20-Pad20)*%
X147500000Y-67660000D03*
%TO.P,U2,21,D21*%
%TO.N,unconnected-(U2-D21-Pad21)*%
X147500000Y-65120000D03*
%TO.P,U2,22,D22*%
%TO.N,unconnected-(U2-D22-Pad22)*%
X147500000Y-62580000D03*
%TO.P,U2,23,D23*%
%TO.N,unconnected-(U2-D23-Pad23)*%
X147500000Y-60040000D03*
%TO.P,U2,24,VIN*%
%TO.N,+3.3V*%
X147500000Y-57500000D03*
D13*
%TO.P,U2,25,GND*%
%TO.N,GND*%
X132260000Y-57500000D03*
D12*
%TO.P,U2,26,D26*%
%TO.N,unconnected-(U2-D26-Pad26)*%
X132260000Y-60040000D03*
%TO.P,U2,27,D27*%
%TO.N,unconnected-(U2-D27-Pad27)*%
X132260000Y-62580000D03*
%TO.P,U2,28,D28*%
%TO.N,unconnected-(U2-D28-Pad28)*%
X132260000Y-65120000D03*
%TO.P,U2,29,D29*%
%TO.N,unconnected-(U2-D29-Pad29)*%
X132260000Y-67660000D03*
%TO.P,U2,30,D30*%
%TO.N,unconnected-(U2-D30-Pad30)*%
X132260000Y-70200000D03*
%TO.P,U2,31,D31*%
%TO.N,unconnected-(U2-D31-Pad31)*%
X132260000Y-72740000D03*
%TO.P,U2,32,D32*%
%TO.N,unconnected-(U2-D32-Pad32)*%
X132260000Y-75280000D03*
%TO.P,U2,33,D33*%
%TO.N,unconnected-(U2-D33-Pad33)*%
X132260000Y-77820000D03*
%TO.P,U2,34,D34*%
%TO.N,unconnected-(U2-D34-Pad34)*%
X132260000Y-80360000D03*
%TO.P,U2,35,D35*%
%TO.N,/LED11*%
X132260000Y-82900000D03*
%TO.P,U2,36,D36*%
%TO.N,/LED10*%
X132260000Y-85440000D03*
%TO.P,U2,37,D37*%
%TO.N,/LED01*%
X132260000Y-87980000D03*
%TO.P,U2,38,D38*%
%TO.N,/LED00*%
X132260000Y-90520000D03*
%TO.P,U2,39,D39*%
%TO.N,/BTN11*%
X132260000Y-93060000D03*
%TO.P,U2,40,D40*%
%TO.N,/BTN10*%
X132260000Y-95600000D03*
%TO.P,U2,41,D41*%
%TO.N,/BTN01*%
X132260000Y-98140000D03*
%TO.P,U2,42,D42*%
%TO.N,/BTN00*%
X132260000Y-100680000D03*
%TO.P,U2,43,D43*%
%TO.N,/SCL*%
X132260000Y-103220000D03*
%TO.P,U2,44,D44*%
%TO.N,/SDA*%
X132260000Y-105760000D03*
%TO.P,U2,45,D45*%
%TO.N,/FPGA6*%
X132260000Y-108300000D03*
%TO.P,U2,46,D46*%
%TO.N,/FPGA7*%
X132260000Y-110840000D03*
%TO.P,U2,47,D47*%
%TO.N,/FPGA8*%
X132260000Y-113380000D03*
%TO.P,U2,48,D48*%
%TO.N,/FPGA9*%
X132260000Y-115920000D03*
%TD*%
D10*
%TO.P,C3,1*%
%TO.N,/12V_5V*%
X164500000Y-107000000D03*
D11*
%TO.P,C3,2*%
%TO.N,GND*%
X166500000Y-107000000D03*
%TD*%
D12*
%TO.P,U4,ADC,ADC*%
%TO.N,unconnected-(U4-PadADC)*%
X118000000Y-105660000D03*
%TO.P,U4,BOOT,BOOT*%
%TO.N,unconnected-(U4-PadBOOT)*%
X118000000Y-110740000D03*
%TO.P,U4,GND,GND*%
%TO.N,GND*%
X118000000Y-98040000D03*
%TO.P,U4,INT,INT*%
%TO.N,unconnected-(U4-PadINT)*%
X118000000Y-108200000D03*
%TO.P,U4,RST,RST*%
%TO.N,unconnected-(U4-PadRST)*%
X118000000Y-113280000D03*
%TO.P,U4,SCL,SCL*%
%TO.N,/SCL*%
X118000000Y-100580000D03*
%TO.P,U4,SDA,SDA*%
%TO.N,/SDA*%
X118000000Y-103120000D03*
%TO.P,U4,VIN,VIN*%
%TO.N,+3.3V*%
X118000000Y-95500000D03*
%TD*%
D14*
%TO.P,SW1,1,A*%
%TO.N,+12V*%
X157000000Y-107210000D03*
D11*
%TO.P,SW1,2,B*%
%TO.N,/12V_5V*%
X159540000Y-107210000D03*
%TO.P,SW1,3,C*%
%TO.N,GND*%
X154460000Y-107210000D03*
%TD*%
D15*
%TO.P,J1,1,Pin_1*%
%TO.N,GND*%
X153960000Y-114960000D03*
D16*
%TO.P,J1,2,Pin_2*%
%TO.N,+12V*%
X153960000Y-112460000D03*
%TD*%
D17*
%TO.P,J2,1,Pin_1*%
%TO.N,+12V*%
X141250000Y-101410000D03*
D18*
%TO.P,J2,2,Pin_2*%
%TO.N,+3.3V*%
X138710000Y-101410000D03*
%TO.P,J2,3,Pin_3*%
%TO.N,+12V*%
X141250000Y-98870000D03*
%TO.P,J2,4,Pin_4*%
%TO.N,+3.3V*%
X138710000Y-98870000D03*
%TO.P,J2,5,Pin_5*%
%TO.N,/FPGA5*%
X141250000Y-96330000D03*
%TO.P,J2,6,Pin_6*%
%TO.N,/SDA*%
X138710000Y-96330000D03*
%TO.P,J2,7,Pin_7*%
%TO.N,/FPGA4*%
X141250000Y-93790000D03*
%TO.P,J2,8,Pin_8*%
%TO.N,/SCL*%
X138710000Y-93790000D03*
%TO.P,J2,9,Pin_9*%
%TO.N,/FPGA3*%
X141250000Y-91250000D03*
%TO.P,J2,10,Pin_10*%
%TO.N,/FPGA9*%
X138710000Y-91250000D03*
%TO.P,J2,11,Pin_11*%
%TO.N,/FPGA2*%
X141250000Y-88710000D03*
%TO.P,J2,12,Pin_12*%
%TO.N,/FPGA8*%
X138710000Y-88710000D03*
%TO.P,J2,13,Pin_13*%
%TO.N,/FPGA1*%
X141250000Y-86170000D03*
%TO.P,J2,14,Pin_14*%
%TO.N,/FPGA7*%
X138710000Y-86170000D03*
%TO.P,J2,15,Pin_15*%
%TO.N,/FPGA0*%
X141250000Y-83630000D03*
%TO.P,J2,16,Pin_16*%
%TO.N,/FPGA6*%
X138710000Y-83630000D03*
%TO.P,J2,17,Pin_17*%
%TO.N,GND*%
X141250000Y-81090000D03*
%TO.P,J2,18,Pin_18*%
X138710000Y-81090000D03*
%TO.P,J2,19,Pin_19*%
X141250000Y-78550000D03*
%TO.P,J2,20,Pin_20*%
X138710000Y-78550000D03*
%TD*%
D19*
%TO.N,GND*%
X159250000Y-83250000D03*
X162000000Y-104500000D03*
X172750000Y-97750000D03*
X117500000Y-79750000D03*
X165500000Y-82250000D03*
X126500000Y-82000000D03*
X135000000Y-59000000D03*
X144250000Y-67500000D03*
X156250000Y-98500000D03*
X126500000Y-86750000D03*
X126750000Y-77000000D03*
X161750000Y-98000000D03*
X168250000Y-104500000D03*
X161000000Y-111000000D03*
X165000000Y-71500000D03*
X126500000Y-88750000D03*
X117500000Y-88250000D03*
X150750000Y-108500000D03*
X171250000Y-82500000D03*
X172500000Y-90750000D03*
X117500000Y-83750000D03*
%TO.N,+3.3V*%
X121250000Y-110750000D03*
X124250000Y-110750000D03*
%TO.N,/FPGA6*%
X134000000Y-100000000D03*
%TO.N,/FPGA8*%
X135750000Y-100500000D03*
%TO.N,/SCL*%
X122500000Y-104500000D03*
X123000000Y-106750000D03*
%TO.N,/FPGA9*%
X136350000Y-101500000D03*
%TO.N,/FPGA7*%
X135250000Y-99500000D03*
%TO.N,/LED00*%
X117975000Y-90000000D03*
%TO.N,/LED01*%
X117975000Y-86000000D03*
%TO.N,/LED10*%
X118000000Y-82000000D03*
%TO.N,/LED11*%
X118000000Y-78000000D03*
%TD*%
D20*
%TO.N,+3.3V*%
X147500000Y-57500000D02*
X135250000Y-69750000D01*
X135250000Y-69750000D02*
X135250000Y-96612081D01*
D21*
X129000000Y-115750000D02*
X130750000Y-117500000D01*
D20*
X137507919Y-98870000D02*
X138710000Y-98870000D01*
D22*
X124250000Y-110750000D02*
X129000000Y-110750000D01*
D21*
X129000000Y-110750000D02*
X129000000Y-115750000D01*
X135500000Y-117500000D02*
X138710000Y-114290000D01*
X138710000Y-114290000D02*
X138710000Y-98870000D01*
X129000000Y-106500000D02*
X129000000Y-110750000D01*
X118000000Y-95500000D02*
X129000000Y-106500000D01*
D22*
X121250000Y-110750000D02*
X124250000Y-110750000D01*
D21*
X130750000Y-117500000D02*
X135500000Y-117500000D01*
D20*
X135250000Y-96612081D02*
X137507919Y-98870000D01*
D23*
%TO.N,+12V*%
X141250000Y-98870000D02*
X141250000Y-101410000D01*
X151790000Y-112460000D02*
X153960000Y-112460000D01*
X141250000Y-116500000D02*
X145500000Y-120750000D01*
X148000000Y-120750000D02*
X150500000Y-118250000D01*
X150500000Y-118250000D02*
X150500000Y-113750000D01*
X141250000Y-101410000D02*
X141250000Y-116500000D01*
X145500000Y-120750000D02*
X148000000Y-120750000D01*
X150500000Y-113750000D02*
X151790000Y-112460000D01*
D24*
%TO.N,/FPGA6*%
X134000000Y-106560000D02*
X132260000Y-108300000D01*
X134000000Y-100000000D02*
X134000000Y-106560000D01*
%TO.N,/FPGA8*%
X135000000Y-110640000D02*
X132260000Y-113380000D01*
X135750000Y-100500000D02*
X135000000Y-101250000D01*
X135000000Y-101250000D02*
X135000000Y-110640000D01*
%TO.N,/FPGA4*%
X141250000Y-93790000D02*
X144000000Y-96540000D01*
X144000000Y-96540000D02*
X144000000Y-109880000D01*
X144000000Y-109880000D02*
X147500000Y-113380000D01*
%TO.N,/FPGA0*%
X141250000Y-83630000D02*
X146000000Y-88380000D01*
X146000000Y-88380000D02*
X146000000Y-101720000D01*
X146000000Y-101720000D02*
X147500000Y-103220000D01*
%TO.N,/SCL*%
X122500000Y-104500000D02*
X122500000Y-106250000D01*
X122500000Y-106250000D02*
X123000000Y-106750000D01*
%TO.N,/FPGA5*%
X141250000Y-96330000D02*
X143500000Y-98580000D01*
X143500000Y-111920000D02*
X147500000Y-115920000D01*
X143500000Y-98580000D02*
X143500000Y-111920000D01*
%TO.N,/FPGA3*%
X144500000Y-94500000D02*
X144500000Y-107840000D01*
X141250000Y-91250000D02*
X144500000Y-94500000D01*
X144500000Y-107840000D02*
X147500000Y-110840000D01*
%TO.N,/FPGA9*%
X136350000Y-101500000D02*
X135500000Y-102350000D01*
X135500000Y-102350000D02*
X135500000Y-112680000D01*
X135500000Y-112680000D02*
X132260000Y-115920000D01*
%TO.N,/FPGA2*%
X145000000Y-105800000D02*
X147500000Y-108300000D01*
X141250000Y-88710000D02*
X145000000Y-92460000D01*
X145000000Y-92460000D02*
X145000000Y-105800000D01*
%TO.N,/FPGA7*%
X134500000Y-108600000D02*
X132260000Y-110840000D01*
X135250000Y-99500000D02*
X135250000Y-100080761D01*
X135250000Y-100080761D02*
X134500000Y-100830761D01*
X134500000Y-100830761D02*
X134500000Y-108600000D01*
%TO.N,/FPGA1*%
X141250000Y-86170000D02*
X145500000Y-90420000D01*
X145500000Y-103760000D02*
X147500000Y-105760000D01*
X145500000Y-90420000D02*
X145500000Y-103760000D01*
%TO.N,/LED00*%
X118495000Y-90520000D02*
X132260000Y-90520000D01*
X117975000Y-90000000D02*
X118495000Y-90520000D01*
%TO.N,/LED01*%
X117975000Y-86000000D02*
X119955000Y-87980000D01*
X119955000Y-87980000D02*
X132260000Y-87980000D01*
%TO.N,/LED10*%
X118000000Y-82000000D02*
X121440000Y-85440000D01*
X121440000Y-85440000D02*
X132260000Y-85440000D01*
%TO.N,/LED11*%
X118000000Y-78000000D02*
X122900000Y-82900000D01*
X122900000Y-82900000D02*
X132260000Y-82900000D01*
%TD*%
%TA.AperFunction,Conductor*%
%TO.N,GND*%
G36*
X131089315Y-56480185D02*
G01*
X131135070Y-56532989D01*
X131145014Y-56602147D01*
X131133364Y-56639595D01*
X131047165Y-56813397D01*
X131000918Y-56999359D01*
X130998000Y-57042395D01*
X130998000Y-57250000D01*
X131971184Y-57250000D01*
X131955124Y-57266060D01*
X131904964Y-57352939D01*
X131879000Y-57449840D01*
X131879000Y-57550160D01*
X131904964Y-57647061D01*
X131955124Y-57733940D01*
X131971184Y-57750000D01*
X130998001Y-57750000D01*
X130998001Y-57957609D01*
X131000917Y-58000632D01*
X131000917Y-58000634D01*
X131047165Y-58186602D01*
X131132307Y-58358275D01*
X131252365Y-58507633D01*
X131252366Y-58507634D01*
X131401725Y-58627692D01*
X131401724Y-58627692D01*
X131573398Y-58712834D01*
X131590293Y-58717036D01*
X131650601Y-58752317D01*
X131682261Y-58814602D01*
X131675221Y-58884116D01*
X131631716Y-58938789D01*
X131630286Y-58939702D01*
X131445377Y-59069175D01*
X131289175Y-59225377D01*
X131162466Y-59406338D01*
X131162465Y-59406340D01*
X131069107Y-59606548D01*
X131069104Y-59606554D01*
X131011930Y-59819929D01*
X131011929Y-59819937D01*
X130992677Y-60039997D01*
X130992677Y-60040002D01*
X131011929Y-60260062D01*
X131011930Y-60260070D01*
X131069104Y-60473445D01*
X131069105Y-60473447D01*
X131069106Y-60473450D01*
X131107405Y-60555582D01*
X131162466Y-60673662D01*
X131162468Y-60673666D01*
X131289170Y-60854615D01*
X131289175Y-60854621D01*
X131445378Y-61010824D01*
X131445384Y-61010829D01*
X131626333Y-61137531D01*
X131626335Y-61137532D01*
X131626338Y-61137534D01*
X131745748Y-61193215D01*
X131755189Y-61197618D01*
X131807628Y-61243790D01*
X131826780Y-61310984D01*
X131806564Y-61377865D01*
X131755189Y-61422382D01*
X131626340Y-61482465D01*
X131626338Y-61482466D01*
X131445377Y-61609175D01*
X131289175Y-61765377D01*
X131162466Y-61946338D01*
X131162465Y-61946340D01*
X131069107Y-62146548D01*
X131069104Y-62146554D01*
X131011930Y-62359929D01*
X131011929Y-62359937D01*
X130992677Y-62579997D01*
X130992677Y-62580002D01*
X131011929Y-62800062D01*
X131011930Y-62800070D01*
X131069104Y-63013445D01*
X131069105Y-63013447D01*
X131069106Y-63013450D01*
X131162466Y-63213662D01*
X131162468Y-63213666D01*
X131289170Y-63394615D01*
X131289175Y-63394621D01*
X131445378Y-63550824D01*
X131445384Y-63550829D01*
X131626333Y-63677531D01*
X131626335Y-63677532D01*
X131626338Y-63677534D01*
X131745748Y-63733215D01*
X131755189Y-63737618D01*
X131807628Y-63783790D01*
X131826780Y-63850984D01*
X131806564Y-63917865D01*
X131755189Y-63962382D01*
X131626340Y-64022465D01*
X131626338Y-64022466D01*
X131445377Y-64149175D01*
X131289175Y-64305377D01*
X131162466Y-64486338D01*
X131162465Y-64486340D01*
X131069107Y-64686548D01*
X131069104Y-64686554D01*
X131011930Y-64899929D01*
X131011929Y-64899937D01*
X130992677Y-65119997D01*
X130992677Y-65120002D01*
X131011929Y-65340062D01*
X131011930Y-65340070D01*
X131069104Y-65553445D01*
X131069105Y-65553447D01*
X131069106Y-65553450D01*
X131162466Y-65753662D01*
X131162468Y-65753666D01*
X131289170Y-65934615D01*
X131289175Y-65934621D01*
X131445378Y-66090824D01*
X131445384Y-66090829D01*
X131626333Y-66217531D01*
X131626335Y-66217532D01*
X131626338Y-66217534D01*
X131745748Y-66273215D01*
X131755189Y-66277618D01*
X131807628Y-66323790D01*
X131826780Y-66390984D01*
X131806564Y-66457865D01*
X131755189Y-66502382D01*
X131626340Y-66562465D01*
X131626338Y-66562466D01*
X131445377Y-66689175D01*
X131289175Y-66845377D01*
X131162466Y-67026338D01*
X131162465Y-67026340D01*
X131069107Y-67226548D01*
X131069104Y-67226554D01*
X131011930Y-67439929D01*
X131011929Y-67439937D01*
X130992677Y-67659997D01*
X130992677Y-67660002D01*
X131011929Y-67880062D01*
X131011930Y-67880070D01*
X131069104Y-68093445D01*
X131069105Y-68093447D01*
X131069106Y-68093450D01*
X131162466Y-68293662D01*
X131162468Y-68293666D01*
X131289170Y-68474615D01*
X131289175Y-68474621D01*
X131445378Y-68630824D01*
X131445384Y-68630829D01*
X131626333Y-68757531D01*
X131626335Y-68757532D01*
X131626338Y-68757534D01*
X131745748Y-68813215D01*
X131755189Y-68817618D01*
X131807628Y-68863790D01*
X131826780Y-68930984D01*
X131806564Y-68997865D01*
X131755189Y-69042382D01*
X131626340Y-69102465D01*
X131626338Y-69102466D01*
X131445377Y-69229175D01*
X131289175Y-69385377D01*
X131162466Y-69566338D01*
X131162465Y-69566340D01*
X131069107Y-69766548D01*
X131069104Y-69766554D01*
X131011930Y-69979929D01*
X131011929Y-69979937D01*
X130992677Y-70199997D01*
X130992677Y-70200002D01*
X131011929Y-70420062D01*
X131011930Y-70420070D01*
X131069104Y-70633445D01*
X131069105Y-70633447D01*
X131069106Y-70633450D01*
X131162466Y-70833662D01*
X131162468Y-70833666D01*
X131289170Y-71014615D01*
X131289175Y-71014621D01*
X131445378Y-71170824D01*
X131445384Y-71170829D01*
X131626333Y-71297531D01*
X131626335Y-71297532D01*
X131626338Y-71297534D01*
X131745748Y-71353215D01*
X131755189Y-71357618D01*
X131807628Y-71403790D01*
X131826780Y-71470984D01*
X131806564Y-71537865D01*
X131755189Y-71582382D01*
X131626340Y-71642465D01*
X131626338Y-71642466D01*
X131445377Y-71769175D01*
X131289175Y-71925377D01*
X131162466Y-72106338D01*
X131162465Y-72106340D01*
X131069107Y-72306548D01*
X131069104Y-72306554D01*
X131011930Y-72519929D01*
X131011929Y-72519937D01*
X130992677Y-72739997D01*
X130992677Y-72740002D01*
X131011929Y-72960062D01*
X131011930Y-72960070D01*
X131069104Y-73173445D01*
X131069105Y-73173447D01*
X131069106Y-73173450D01*
X131162466Y-73373662D01*
X131162468Y-73373666D01*
X131289170Y-73554615D01*
X131289175Y-73554621D01*
X131445378Y-73710824D01*
X131445384Y-73710829D01*
X131626333Y-73837531D01*
X131626335Y-73837532D01*
X131626338Y-73837534D01*
X131745748Y-73893215D01*
X131755189Y-73897618D01*
X131807628Y-73943790D01*
X131826780Y-74010984D01*
X131806564Y-74077865D01*
X131755189Y-74122382D01*
X131626340Y-74182465D01*
X131626338Y-74182466D01*
X131445377Y-74309175D01*
X131289175Y-74465377D01*
X131162466Y-74646338D01*
X131162465Y-74646340D01*
X131069107Y-74846548D01*
X131069104Y-74846554D01*
X131011930Y-75059929D01*
X131011929Y-75059937D01*
X130992677Y-75279997D01*
X130992677Y-75280002D01*
X131011929Y-75500062D01*
X131011930Y-75500070D01*
X131069104Y-75713445D01*
X131069105Y-75713447D01*
X131069106Y-75713450D01*
X131162466Y-75913662D01*
X131162468Y-75913666D01*
X131289170Y-76094615D01*
X131289175Y-76094621D01*
X131445378Y-76250824D01*
X131445384Y-76250829D01*
X131626333Y-76377531D01*
X131626335Y-76377532D01*
X131626338Y-76377534D01*
X131745748Y-76433215D01*
X131755189Y-76437618D01*
X131807628Y-76483790D01*
X131826780Y-76550984D01*
X131806564Y-76617865D01*
X131755189Y-76662382D01*
X131626340Y-76722465D01*
X131626338Y-76722466D01*
X131445377Y-76849175D01*
X131289175Y-77005377D01*
X131162466Y-77186338D01*
X131162465Y-77186340D01*
X131079572Y-77364103D01*
X131073840Y-77376399D01*
X131069107Y-77386548D01*
X131069104Y-77386554D01*
X131011930Y-77599929D01*
X131011929Y-77599937D01*
X130992677Y-77819997D01*
X130992677Y-77820002D01*
X131011929Y-78040062D01*
X131011930Y-78040070D01*
X131069104Y-78253445D01*
X131069105Y-78253447D01*
X131069106Y-78253450D01*
X131117395Y-78357007D01*
X131162466Y-78453662D01*
X131162468Y-78453666D01*
X131289170Y-78634615D01*
X131289175Y-78634621D01*
X131445378Y-78790824D01*
X131445384Y-78790829D01*
X131626333Y-78917531D01*
X131626335Y-78917532D01*
X131626338Y-78917534D01*
X131745748Y-78973215D01*
X131755189Y-78977618D01*
X131807628Y-79023790D01*
X131826780Y-79090984D01*
X131806564Y-79157865D01*
X131755189Y-79202382D01*
X131626340Y-79262465D01*
X131626338Y-79262466D01*
X131445377Y-79389175D01*
X131289175Y-79545377D01*
X131162466Y-79726338D01*
X131162465Y-79726340D01*
X131069107Y-79926548D01*
X131069104Y-79926554D01*
X131011930Y-80139929D01*
X131011929Y-80139937D01*
X130992677Y-80359997D01*
X130992677Y-80360002D01*
X131011929Y-80580062D01*
X131011930Y-80580070D01*
X131069104Y-80793445D01*
X131069105Y-80793447D01*
X131069106Y-80793450D01*
X131090812Y-80839999D01*
X131162466Y-80993662D01*
X131162468Y-80993666D01*
X131289170Y-81174615D01*
X131289175Y-81174621D01*
X131445378Y-81330824D01*
X131445384Y-81330829D01*
X131626333Y-81457531D01*
X131626335Y-81457532D01*
X131626338Y-81457534D01*
X131712554Y-81497737D01*
X131755189Y-81517618D01*
X131807628Y-81563790D01*
X131826780Y-81630984D01*
X131806564Y-81697865D01*
X131755189Y-81742382D01*
X131626340Y-81802465D01*
X131626338Y-81802466D01*
X131445377Y-81929175D01*
X131289175Y-82085377D01*
X131211281Y-82196623D01*
X131156704Y-82240248D01*
X131109706Y-82249500D01*
X123220808Y-82249500D01*
X123153769Y-82229815D01*
X123133127Y-82213181D01*
X118821722Y-77901776D01*
X118788237Y-77840453D01*
X118786182Y-77827973D01*
X118785368Y-77820745D01*
X118725789Y-77650478D01*
X118629816Y-77497738D01*
X118502262Y-77370184D01*
X118349523Y-77274211D01*
X118179254Y-77214631D01*
X118179249Y-77214630D01*
X118000004Y-77194435D01*
X117999996Y-77194435D01*
X117820750Y-77214630D01*
X117820745Y-77214631D01*
X117650476Y-77274211D01*
X117497737Y-77370184D01*
X117370184Y-77497737D01*
X117274211Y-77650476D01*
X117214631Y-77820745D01*
X117214630Y-77820750D01*
X117194435Y-77999996D01*
X117194435Y-78000003D01*
X117214630Y-78179249D01*
X117214631Y-78179254D01*
X117274211Y-78349523D01*
X117370184Y-78502262D01*
X117497738Y-78629816D01*
X117650478Y-78725789D01*
X117820745Y-78785368D01*
X117827974Y-78786182D01*
X117892388Y-78813246D01*
X117901776Y-78821722D01*
X122485324Y-83405271D01*
X122485327Y-83405274D01*
X122485330Y-83405276D01*
X122537682Y-83440256D01*
X122591873Y-83476465D01*
X122710256Y-83525501D01*
X122710260Y-83525501D01*
X122710261Y-83525502D01*
X122835928Y-83550500D01*
X122835931Y-83550500D01*
X131109706Y-83550500D01*
X131176745Y-83570185D01*
X131211281Y-83603377D01*
X131289170Y-83714615D01*
X131289175Y-83714621D01*
X131445378Y-83870824D01*
X131445384Y-83870829D01*
X131626333Y-83997531D01*
X131626335Y-83997532D01*
X131626338Y-83997534D01*
X131745748Y-84053215D01*
X131755189Y-84057618D01*
X131807628Y-84103790D01*
X131826780Y-84170984D01*
X131806564Y-84237865D01*
X131755189Y-84282382D01*
X131626340Y-84342465D01*
X131626338Y-84342466D01*
X131445377Y-84469175D01*
X131289175Y-84625377D01*
X131211281Y-84736623D01*
X131156704Y-84780248D01*
X131109706Y-84789500D01*
X121760808Y-84789500D01*
X121693769Y-84769815D01*
X121673127Y-84753181D01*
X118821722Y-81901776D01*
X118788237Y-81840453D01*
X118786182Y-81827973D01*
X118785368Y-81820745D01*
X118725789Y-81650478D01*
X118629816Y-81497738D01*
X118502262Y-81370184D01*
X118349523Y-81274211D01*
X118179254Y-81214631D01*
X118179249Y-81214630D01*
X118000004Y-81194435D01*
X117999996Y-81194435D01*
X117820750Y-81214630D01*
X117820745Y-81214631D01*
X117650476Y-81274211D01*
X117497737Y-81370184D01*
X117370184Y-81497737D01*
X117274211Y-81650476D01*
X117214631Y-81820745D01*
X117214630Y-81820750D01*
X117194435Y-81999996D01*
X117194435Y-82000003D01*
X117214630Y-82179249D01*
X117214631Y-82179254D01*
X117274211Y-82349523D01*
X117347747Y-82466554D01*
X117370184Y-82502262D01*
X117497738Y-82629816D01*
X117650478Y-82725789D01*
X117820745Y-82785368D01*
X117827974Y-82786182D01*
X117892388Y-82813246D01*
X117901776Y-82821722D01*
X121025325Y-85945272D01*
X121025331Y-85945277D01*
X121131874Y-86016466D01*
X121201221Y-86045189D01*
X121250256Y-86065501D01*
X121250259Y-86065501D01*
X121250260Y-86065502D01*
X121375928Y-86090500D01*
X121375931Y-86090500D01*
X131109706Y-86090500D01*
X131176745Y-86110185D01*
X131211281Y-86143377D01*
X131289170Y-86254615D01*
X131289175Y-86254621D01*
X131445378Y-86410824D01*
X131445384Y-86410829D01*
X131626333Y-86537531D01*
X131626335Y-86537532D01*
X131626338Y-86537534D01*
X131745748Y-86593215D01*
X131755189Y-86597618D01*
X131807628Y-86643790D01*
X131826780Y-86710984D01*
X131806564Y-86777865D01*
X131755189Y-86822382D01*
X131626340Y-86882465D01*
X131626338Y-86882466D01*
X131445377Y-87009175D01*
X131289175Y-87165377D01*
X131211281Y-87276623D01*
X131156704Y-87320248D01*
X131109706Y-87329500D01*
X120275808Y-87329500D01*
X120208769Y-87309815D01*
X120188127Y-87293181D01*
X118796722Y-85901776D01*
X118763237Y-85840453D01*
X118761182Y-85827973D01*
X118760368Y-85820745D01*
X118700789Y-85650478D01*
X118604816Y-85497738D01*
X118477262Y-85370184D01*
X118324523Y-85274211D01*
X118154254Y-85214631D01*
X118154249Y-85214630D01*
X117975004Y-85194435D01*
X117974996Y-85194435D01*
X117795750Y-85214630D01*
X117795745Y-85214631D01*
X117625476Y-85274211D01*
X117472737Y-85370184D01*
X117345184Y-85497737D01*
X117249211Y-85650476D01*
X117189631Y-85820745D01*
X117189630Y-85820750D01*
X117169435Y-85999996D01*
X117169435Y-86000003D01*
X117189630Y-86179249D01*
X117189631Y-86179254D01*
X117249211Y-86349523D01*
X117329932Y-86477989D01*
X117345184Y-86502262D01*
X117472738Y-86629816D01*
X117563080Y-86686582D01*
X117598785Y-86709017D01*
X117625478Y-86725789D01*
X117795745Y-86785368D01*
X117802974Y-86786182D01*
X117867388Y-86813246D01*
X117876776Y-86821722D01*
X119540331Y-88485277D01*
X119592682Y-88520256D01*
X119646873Y-88556465D01*
X119765256Y-88605501D01*
X119765260Y-88605501D01*
X119765261Y-88605502D01*
X119890928Y-88630500D01*
X119890931Y-88630500D01*
X131109706Y-88630500D01*
X131176745Y-88650185D01*
X131211281Y-88683377D01*
X131289170Y-88794615D01*
X131289175Y-88794621D01*
X131445378Y-88950824D01*
X131445384Y-88950829D01*
X131626333Y-89077531D01*
X131626335Y-89077532D01*
X131626338Y-89077534D01*
X131711469Y-89117231D01*
X131755189Y-89137618D01*
X131807628Y-89183790D01*
X131826780Y-89250984D01*
X131806564Y-89317865D01*
X131755189Y-89362382D01*
X131626340Y-89422465D01*
X131626338Y-89422466D01*
X131445377Y-89549175D01*
X131289175Y-89705377D01*
X131211281Y-89816623D01*
X131156704Y-89860248D01*
X131109706Y-89869500D01*
X118865411Y-89869500D01*
X118798372Y-89849815D01*
X118752617Y-89797011D01*
X118748369Y-89786454D01*
X118700789Y-89650478D01*
X118659052Y-89584054D01*
X118604816Y-89497738D01*
X118477262Y-89370184D01*
X118393997Y-89317865D01*
X118324523Y-89274211D01*
X118154254Y-89214631D01*
X118154249Y-89214630D01*
X117975004Y-89194435D01*
X117974996Y-89194435D01*
X117795750Y-89214630D01*
X117795745Y-89214631D01*
X117625476Y-89274211D01*
X117472737Y-89370184D01*
X117345184Y-89497737D01*
X117249211Y-89650476D01*
X117189631Y-89820745D01*
X117189630Y-89820750D01*
X117169435Y-89999996D01*
X117169435Y-90000003D01*
X117189630Y-90179249D01*
X117189631Y-90179254D01*
X117249211Y-90349523D01*
X117267480Y-90378597D01*
X117345184Y-90502262D01*
X117472738Y-90629816D01*
X117563080Y-90686582D01*
X117567638Y-90689446D01*
X117625478Y-90725789D01*
X117795745Y-90785368D01*
X117802974Y-90786182D01*
X117867388Y-90813246D01*
X117876776Y-90821722D01*
X118080325Y-91025272D01*
X118080328Y-91025275D01*
X118165110Y-91081924D01*
X118165109Y-91081924D01*
X118186871Y-91096464D01*
X118186872Y-91096464D01*
X118186873Y-91096465D01*
X118305256Y-91145501D01*
X118305260Y-91145501D01*
X118305261Y-91145502D01*
X118430928Y-91170500D01*
X118430931Y-91170500D01*
X131109706Y-91170500D01*
X131176745Y-91190185D01*
X131211281Y-91223377D01*
X131289170Y-91334615D01*
X131289175Y-91334621D01*
X131445378Y-91490824D01*
X131445384Y-91490829D01*
X131626333Y-91617531D01*
X131626335Y-91617532D01*
X131626338Y-91617534D01*
X131745748Y-91673215D01*
X131755189Y-91677618D01*
X131807628Y-91723790D01*
X131826780Y-91790984D01*
X131806564Y-91857865D01*
X131755189Y-91902382D01*
X131626340Y-91962465D01*
X131626338Y-91962466D01*
X131445377Y-92089175D01*
X131289175Y-92245377D01*
X131162466Y-92426338D01*
X131162465Y-92426340D01*
X131069107Y-92626548D01*
X131069104Y-92626554D01*
X131011930Y-92839929D01*
X131011929Y-92839937D01*
X130992677Y-93059997D01*
X130992677Y-93060002D01*
X131011929Y-93280062D01*
X131011930Y-93280070D01*
X131069104Y-93493445D01*
X131069105Y-93493447D01*
X131069106Y-93493450D01*
X131097614Y-93554586D01*
X131162466Y-93693662D01*
X131162468Y-93693666D01*
X131289170Y-93874615D01*
X131289175Y-93874621D01*
X131445378Y-94030824D01*
X131445384Y-94030829D01*
X131626333Y-94157531D01*
X131626335Y-94157532D01*
X131626338Y-94157534D01*
X131745748Y-94213215D01*
X131755189Y-94217618D01*
X131807628Y-94263790D01*
X131826780Y-94330984D01*
X131806564Y-94397865D01*
X131755189Y-94442382D01*
X131626340Y-94502465D01*
X131626338Y-94502466D01*
X131445377Y-94629175D01*
X131289175Y-94785377D01*
X131162466Y-94966338D01*
X131162465Y-94966340D01*
X131069107Y-95166548D01*
X131069104Y-95166554D01*
X131011930Y-95379929D01*
X131011929Y-95379937D01*
X130992677Y-95599997D01*
X130992677Y-95600002D01*
X131011929Y-95820062D01*
X131011930Y-95820070D01*
X131069104Y-96033445D01*
X131069105Y-96033447D01*
X131069106Y-96033450D01*
X131162466Y-96233662D01*
X131162468Y-96233666D01*
X131289170Y-96414615D01*
X131289175Y-96414621D01*
X131445378Y-96570824D01*
X131445384Y-96570829D01*
X131626333Y-96697531D01*
X131626335Y-96697532D01*
X131626338Y-96697534D01*
X131715149Y-96738947D01*
X131755189Y-96757618D01*
X131807628Y-96803790D01*
X131826780Y-96870984D01*
X131806564Y-96937865D01*
X131755189Y-96982382D01*
X131626340Y-97042465D01*
X131626338Y-97042466D01*
X131445377Y-97169175D01*
X131289175Y-97325377D01*
X131162466Y-97506338D01*
X131162465Y-97506340D01*
X131069107Y-97706548D01*
X131069104Y-97706554D01*
X131011930Y-97919929D01*
X131011929Y-97919937D01*
X130992677Y-98139997D01*
X130992677Y-98140002D01*
X131011929Y-98360062D01*
X131011930Y-98360070D01*
X131069104Y-98573445D01*
X131069105Y-98573447D01*
X131069106Y-98573450D01*
X131115721Y-98673417D01*
X131162466Y-98773662D01*
X131162468Y-98773666D01*
X131289170Y-98954615D01*
X131289175Y-98954621D01*
X131445378Y-99110824D01*
X131445384Y-99110829D01*
X131626333Y-99237531D01*
X131626335Y-99237532D01*
X131626338Y-99237534D01*
X131745748Y-99293215D01*
X131755189Y-99297618D01*
X131807628Y-99343790D01*
X131826780Y-99410984D01*
X131806564Y-99477865D01*
X131755189Y-99522382D01*
X131626340Y-99582465D01*
X131626338Y-99582466D01*
X131445377Y-99709175D01*
X131289175Y-99865377D01*
X131162466Y-100046338D01*
X131162465Y-100046340D01*
X131069107Y-100246548D01*
X131069104Y-100246554D01*
X131011930Y-100459929D01*
X131011929Y-100459937D01*
X130992677Y-100679997D01*
X130992677Y-100680002D01*
X131011929Y-100900062D01*
X131011930Y-100900070D01*
X131069104Y-101113445D01*
X131069105Y-101113447D01*
X131069106Y-101113450D01*
X131139824Y-101265106D01*
X131162466Y-101313662D01*
X131162468Y-101313666D01*
X131289170Y-101494615D01*
X131289175Y-101494621D01*
X131445378Y-101650824D01*
X131445384Y-101650829D01*
X131626333Y-101777531D01*
X131626335Y-101777532D01*
X131626338Y-101777534D01*
X131734713Y-101828070D01*
X131755189Y-101837618D01*
X131807628Y-101883790D01*
X131826780Y-101950984D01*
X131806564Y-102017865D01*
X131755189Y-102062382D01*
X131626340Y-102122465D01*
X131626338Y-102122466D01*
X131445377Y-102249175D01*
X131289175Y-102405377D01*
X131162466Y-102586338D01*
X131162465Y-102586340D01*
X131069107Y-102786548D01*
X131069104Y-102786554D01*
X131011930Y-102999929D01*
X131011929Y-102999937D01*
X130992677Y-103219997D01*
X130992677Y-103220002D01*
X131011929Y-103440062D01*
X131011930Y-103440070D01*
X131069104Y-103653445D01*
X131069105Y-103653447D01*
X131069106Y-103653450D01*
X131125418Y-103774211D01*
X131162466Y-103853662D01*
X131162468Y-103853666D01*
X131289170Y-104034615D01*
X131289175Y-104034621D01*
X131445378Y-104190824D01*
X131445384Y-104190829D01*
X131626333Y-104317531D01*
X131626335Y-104317532D01*
X131626338Y-104317534D01*
X131734713Y-104368070D01*
X131755189Y-104377618D01*
X131807628Y-104423790D01*
X131826780Y-104490984D01*
X131806564Y-104557865D01*
X131755189Y-104602382D01*
X131626340Y-104662465D01*
X131626338Y-104662466D01*
X131445377Y-104789175D01*
X131289175Y-104945377D01*
X131162466Y-105126338D01*
X131162465Y-105126340D01*
X131069107Y-105326548D01*
X131069104Y-105326554D01*
X131011930Y-105539929D01*
X131011929Y-105539937D01*
X130992677Y-105759997D01*
X130992677Y-105760002D01*
X131011929Y-105980062D01*
X131011930Y-105980070D01*
X131069104Y-106193445D01*
X131069105Y-106193447D01*
X131069106Y-106193450D01*
X131140950Y-106347521D01*
X131162466Y-106393662D01*
X131162468Y-106393666D01*
X131289170Y-106574615D01*
X131289175Y-106574621D01*
X131445378Y-106730824D01*
X131445384Y-106730829D01*
X131626333Y-106857531D01*
X131626335Y-106857532D01*
X131626338Y-106857534D01*
X131734713Y-106908070D01*
X131755189Y-106917618D01*
X131807628Y-106963790D01*
X131826780Y-107030984D01*
X131806564Y-107097865D01*
X131755189Y-107142382D01*
X131626340Y-107202465D01*
X131626338Y-107202466D01*
X131445377Y-107329175D01*
X131289175Y-107485377D01*
X131162466Y-107666338D01*
X131162465Y-107666340D01*
X131069107Y-107866548D01*
X131069104Y-107866554D01*
X131011930Y-108079929D01*
X131011929Y-108079937D01*
X130992677Y-108299997D01*
X130992677Y-108300002D01*
X131011929Y-108520062D01*
X131011930Y-108520070D01*
X131069104Y-108733445D01*
X131069105Y-108733447D01*
X131069106Y-108733450D01*
X131151640Y-108910446D01*
X131162466Y-108933662D01*
X131162468Y-108933666D01*
X131289170Y-109114615D01*
X131289175Y-109114621D01*
X131445378Y-109270824D01*
X131445384Y-109270829D01*
X131626333Y-109397531D01*
X131626335Y-109397532D01*
X131626338Y-109397534D01*
X131734713Y-109448070D01*
X131755189Y-109457618D01*
X131807628Y-109503790D01*
X131826780Y-109570984D01*
X131806564Y-109637865D01*
X131755189Y-109682382D01*
X131626340Y-109742465D01*
X131626338Y-109742466D01*
X131445377Y-109869175D01*
X131289175Y-110025377D01*
X131162466Y-110206338D01*
X131162465Y-110206340D01*
X131069107Y-110406548D01*
X131069104Y-110406554D01*
X131011930Y-110619929D01*
X131011929Y-110619937D01*
X130992677Y-110839997D01*
X130992677Y-110840002D01*
X131011929Y-111060062D01*
X131011930Y-111060070D01*
X131069104Y-111273445D01*
X131069105Y-111273447D01*
X131069106Y-111273450D01*
X131117049Y-111376265D01*
X131162466Y-111473662D01*
X131162468Y-111473666D01*
X131289170Y-111654615D01*
X131289175Y-111654621D01*
X131445378Y-111810824D01*
X131445384Y-111810829D01*
X131626333Y-111937531D01*
X131626335Y-111937532D01*
X131626338Y-111937534D01*
X131726133Y-111984069D01*
X131755189Y-111997618D01*
X131807628Y-112043790D01*
X131826780Y-112110984D01*
X131806564Y-112177865D01*
X131755189Y-112222382D01*
X131626340Y-112282465D01*
X131626338Y-112282466D01*
X131445377Y-112409175D01*
X131289175Y-112565377D01*
X131162466Y-112746338D01*
X131162465Y-112746340D01*
X131069107Y-112946548D01*
X131069104Y-112946554D01*
X131011930Y-113159929D01*
X131011929Y-113159937D01*
X130992677Y-113379997D01*
X130992677Y-113380002D01*
X131011929Y-113600062D01*
X131011930Y-113600070D01*
X131069104Y-113813445D01*
X131069105Y-113813447D01*
X131069106Y-113813450D01*
X131120448Y-113923553D01*
X131162466Y-114013662D01*
X131162468Y-114013666D01*
X131289170Y-114194615D01*
X131289175Y-114194621D01*
X131445378Y-114350824D01*
X131445384Y-114350829D01*
X131626333Y-114477531D01*
X131626335Y-114477532D01*
X131626338Y-114477534D01*
X131711767Y-114517370D01*
X131755189Y-114537618D01*
X131807628Y-114583790D01*
X131826780Y-114650984D01*
X131806564Y-114717865D01*
X131755189Y-114762382D01*
X131626340Y-114822465D01*
X131626338Y-114822466D01*
X131445377Y-114949175D01*
X131289175Y-115105377D01*
X131162466Y-115286338D01*
X131162465Y-115286340D01*
X131069107Y-115486548D01*
X131069104Y-115486554D01*
X131011930Y-115699929D01*
X131011929Y-115699937D01*
X130992677Y-115919997D01*
X130992677Y-115920002D01*
X131002078Y-116027461D01*
X130988311Y-116095961D01*
X130939696Y-116146144D01*
X130871667Y-116162077D01*
X130805823Y-116138701D01*
X130790869Y-116125949D01*
X130544044Y-115879124D01*
X130036819Y-115371898D01*
X130003334Y-115310575D01*
X130000500Y-115284217D01*
X130000500Y-106401456D01*
X129964788Y-106221923D01*
X129964787Y-106221920D01*
X129963941Y-106217669D01*
X129962051Y-106208164D01*
X129918264Y-106102454D01*
X129918263Y-106102452D01*
X129886635Y-106026093D01*
X129886634Y-106026092D01*
X129886632Y-106026086D01*
X129858334Y-105983735D01*
X129777139Y-105862217D01*
X129634686Y-105719764D01*
X129634655Y-105719735D01*
X119285085Y-95370165D01*
X119251600Y-95308842D01*
X119249238Y-95293287D01*
X119249082Y-95291506D01*
X119248070Y-95279932D01*
X119190894Y-95066550D01*
X119097534Y-94866339D01*
X118970826Y-94685380D01*
X118814620Y-94529174D01*
X118814616Y-94529171D01*
X118814615Y-94529170D01*
X118633666Y-94402468D01*
X118633662Y-94402466D01*
X118620246Y-94396210D01*
X118433450Y-94309106D01*
X118433447Y-94309105D01*
X118433445Y-94309104D01*
X118220070Y-94251930D01*
X118220062Y-94251929D01*
X118000002Y-94232677D01*
X117999998Y-94232677D01*
X117779937Y-94251929D01*
X117779929Y-94251930D01*
X117566554Y-94309104D01*
X117566548Y-94309107D01*
X117366340Y-94402465D01*
X117366338Y-94402466D01*
X117185377Y-94529175D01*
X117029175Y-94685377D01*
X116902466Y-94866338D01*
X116902465Y-94866340D01*
X116809107Y-95066548D01*
X116809104Y-95066554D01*
X116751930Y-95279929D01*
X116751929Y-95279937D01*
X116732677Y-95499997D01*
X116732677Y-95500002D01*
X116751929Y-95720062D01*
X116751930Y-95720070D01*
X116809104Y-95933445D01*
X116809105Y-95933447D01*
X116809106Y-95933450D01*
X116884249Y-96094596D01*
X116902466Y-96133662D01*
X116902468Y-96133666D01*
X117029170Y-96314615D01*
X117029175Y-96314621D01*
X117185378Y-96470824D01*
X117185384Y-96470829D01*
X117366333Y-96597531D01*
X117366335Y-96597532D01*
X117366338Y-96597534D01*
X117495781Y-96657894D01*
X117548220Y-96704066D01*
X117567372Y-96771260D01*
X117547156Y-96838141D01*
X117495781Y-96882658D01*
X117366590Y-96942901D01*
X117301811Y-96988258D01*
X117972553Y-97659000D01*
X117949840Y-97659000D01*
X117852939Y-97684964D01*
X117766060Y-97735124D01*
X117695124Y-97806060D01*
X117644964Y-97892939D01*
X117619000Y-97989840D01*
X117619000Y-98012552D01*
X116948258Y-97341811D01*
X116902901Y-97406590D01*
X116809579Y-97606720D01*
X116809575Y-97606729D01*
X116752426Y-97820013D01*
X116752424Y-97820023D01*
X116733179Y-98039999D01*
X116733179Y-98040000D01*
X116752424Y-98259976D01*
X116752426Y-98259986D01*
X116809575Y-98473270D01*
X116809580Y-98473284D01*
X116902898Y-98673405D01*
X116902901Y-98673411D01*
X116948258Y-98738187D01*
X116948259Y-98738188D01*
X117619000Y-98067447D01*
X117619000Y-98090160D01*
X117644964Y-98187061D01*
X117695124Y-98273940D01*
X117766060Y-98344876D01*
X117852939Y-98395036D01*
X117949840Y-98421000D01*
X117972553Y-98421000D01*
X117301810Y-99091740D01*
X117366589Y-99137098D01*
X117495781Y-99197342D01*
X117548220Y-99243514D01*
X117567372Y-99310708D01*
X117547156Y-99377589D01*
X117495781Y-99422106D01*
X117366340Y-99482465D01*
X117366338Y-99482466D01*
X117185377Y-99609175D01*
X117029175Y-99765377D01*
X116902466Y-99946338D01*
X116902465Y-99946340D01*
X116809107Y-100146548D01*
X116809104Y-100146554D01*
X116751930Y-100359929D01*
X116751929Y-100359937D01*
X116732677Y-100579997D01*
X116732677Y-100580002D01*
X116751929Y-100800062D01*
X116751930Y-100800070D01*
X116809104Y-101013445D01*
X116809105Y-101013447D01*
X116809106Y-101013450D01*
X116884249Y-101174596D01*
X116902466Y-101213662D01*
X116902468Y-101213666D01*
X117029170Y-101394615D01*
X117029175Y-101394621D01*
X117185378Y-101550824D01*
X117185384Y-101550829D01*
X117366333Y-101677531D01*
X117366335Y-101677532D01*
X117366338Y-101677534D01*
X117485748Y-101733215D01*
X117495189Y-101737618D01*
X117547628Y-101783790D01*
X117566780Y-101850984D01*
X117546564Y-101917865D01*
X117495189Y-101962382D01*
X117366340Y-102022465D01*
X117366338Y-102022466D01*
X117185377Y-102149175D01*
X117029175Y-102305377D01*
X116902466Y-102486338D01*
X116902465Y-102486340D01*
X116809107Y-102686548D01*
X116809104Y-102686554D01*
X116751930Y-102899929D01*
X116751929Y-102899937D01*
X116732677Y-103119997D01*
X116732677Y-103120002D01*
X116751929Y-103340062D01*
X116751930Y-103340070D01*
X116809104Y-103553445D01*
X116809105Y-103553447D01*
X116809106Y-103553450D01*
X116855737Y-103653450D01*
X116902466Y-103753662D01*
X116902468Y-103753666D01*
X117029170Y-103934615D01*
X117029175Y-103934621D01*
X117185378Y-104090824D01*
X117185384Y-104090829D01*
X117366333Y-104217531D01*
X117366335Y-104217532D01*
X117366338Y-104217534D01*
X117485748Y-104273215D01*
X117495189Y-104277618D01*
X117547628Y-104323790D01*
X117566780Y-104390984D01*
X117546564Y-104457865D01*
X117495189Y-104502382D01*
X117366340Y-104562465D01*
X117366338Y-104562466D01*
X117185377Y-104689175D01*
X117029175Y-104845377D01*
X116902466Y-105026338D01*
X116902465Y-105026340D01*
X116809107Y-105226548D01*
X116809104Y-105226554D01*
X116751930Y-105439929D01*
X116751929Y-105439937D01*
X116732677Y-105659997D01*
X116732677Y-105660002D01*
X116751929Y-105880062D01*
X116751930Y-105880070D01*
X116809104Y-106093445D01*
X116809105Y-106093447D01*
X116809106Y-106093450D01*
X116867028Y-106217664D01*
X116902466Y-106293662D01*
X116902468Y-106293666D01*
X117029170Y-106474615D01*
X117029175Y-106474621D01*
X117185378Y-106630824D01*
X117185384Y-106630829D01*
X117366333Y-106757531D01*
X117366335Y-106757532D01*
X117366338Y-106757534D01*
X117478852Y-106810000D01*
X117495189Y-106817618D01*
X117547628Y-106863790D01*
X117566780Y-106930984D01*
X117546564Y-106997865D01*
X117495189Y-107042382D01*
X117366340Y-107102465D01*
X117366338Y-107102466D01*
X117185377Y-107229175D01*
X117029175Y-107385377D01*
X116902466Y-107566338D01*
X116902465Y-107566340D01*
X116809107Y-107766548D01*
X116809104Y-107766554D01*
X116751930Y-107979929D01*
X116751929Y-107979937D01*
X116732677Y-108199997D01*
X116732677Y-108200002D01*
X116751929Y-108420062D01*
X116751930Y-108420070D01*
X116809104Y-108633445D01*
X116809105Y-108633447D01*
X116809106Y-108633450D01*
X116855737Y-108733450D01*
X116902466Y-108833662D01*
X116902468Y-108833666D01*
X117029170Y-109014615D01*
X117029175Y-109014621D01*
X117185378Y-109170824D01*
X117185384Y-109170829D01*
X117366333Y-109297531D01*
X117366335Y-109297532D01*
X117366338Y-109297534D01*
X117485748Y-109353215D01*
X117495189Y-109357618D01*
X117547628Y-109403790D01*
X117566780Y-109470984D01*
X117546564Y-109537865D01*
X117495189Y-109582382D01*
X117366340Y-109642465D01*
X117366338Y-109642466D01*
X117185377Y-109769175D01*
X117029175Y-109925377D01*
X116902466Y-110106338D01*
X116902465Y-110106340D01*
X116809107Y-110306548D01*
X116809104Y-110306554D01*
X116751930Y-110519929D01*
X116751929Y-110519937D01*
X116732677Y-110739997D01*
X116732677Y-110740002D01*
X116751929Y-110960062D01*
X116751930Y-110960070D01*
X116809104Y-111173445D01*
X116809105Y-111173447D01*
X116809106Y-111173450D01*
X116855737Y-111273450D01*
X116902466Y-111373662D01*
X116902468Y-111373666D01*
X117029170Y-111554615D01*
X117029175Y-111554621D01*
X117185378Y-111710824D01*
X117185384Y-111710829D01*
X117366333Y-111837531D01*
X117366335Y-111837532D01*
X117366338Y-111837534D01*
X117465992Y-111884003D01*
X117495189Y-111897618D01*
X117547628Y-111943790D01*
X117566780Y-112010984D01*
X117546564Y-112077865D01*
X117495189Y-112122382D01*
X117366340Y-112182465D01*
X117366338Y-112182466D01*
X117185377Y-112309175D01*
X117029175Y-112465377D01*
X116902466Y-112646338D01*
X116902465Y-112646340D01*
X116809107Y-112846548D01*
X116809104Y-112846554D01*
X116751930Y-113059929D01*
X116751929Y-113059937D01*
X116732677Y-113279997D01*
X116732677Y-113280002D01*
X116751929Y-113500062D01*
X116751930Y-113500070D01*
X116809104Y-113713445D01*
X116809105Y-113713447D01*
X116809106Y-113713450D01*
X116873045Y-113850568D01*
X116902466Y-113913662D01*
X116902468Y-113913666D01*
X117029170Y-114094615D01*
X117029175Y-114094621D01*
X117185378Y-114250824D01*
X117185384Y-114250829D01*
X117366333Y-114377531D01*
X117366335Y-114377532D01*
X117366338Y-114377534D01*
X117566550Y-114470894D01*
X117779932Y-114528070D01*
X117937123Y-114541822D01*
X117999998Y-114547323D01*
X118000000Y-114547323D01*
X118000002Y-114547323D01*
X118055017Y-114542509D01*
X118220068Y-114528070D01*
X118433450Y-114470894D01*
X118633662Y-114377534D01*
X118814620Y-114250826D01*
X118970826Y-114094620D01*
X119097534Y-113913662D01*
X119190894Y-113713450D01*
X119248070Y-113500068D01*
X119267323Y-113280000D01*
X119248070Y-113059932D01*
X119190894Y-112846550D01*
X119097534Y-112646339D01*
X118970826Y-112465380D01*
X118814620Y-112309174D01*
X118814616Y-112309171D01*
X118814615Y-112309170D01*
X118633666Y-112182468D01*
X118633658Y-112182464D01*
X118504811Y-112122382D01*
X118452371Y-112076210D01*
X118433219Y-112009017D01*
X118453435Y-111942135D01*
X118504811Y-111897618D01*
X118524064Y-111888640D01*
X118633662Y-111837534D01*
X118814620Y-111710826D01*
X118970826Y-111554620D01*
X119097534Y-111373662D01*
X119190894Y-111173450D01*
X119248070Y-110960068D01*
X119266448Y-110750000D01*
X119267323Y-110740002D01*
X119267323Y-110739997D01*
X119248070Y-110519937D01*
X119248070Y-110519932D01*
X119190894Y-110306550D01*
X119097534Y-110106339D01*
X119001934Y-109969807D01*
X118970827Y-109925381D01*
X118894087Y-109848641D01*
X118814620Y-109769174D01*
X118814616Y-109769171D01*
X118814615Y-109769170D01*
X118633666Y-109642468D01*
X118633658Y-109642464D01*
X118504811Y-109582382D01*
X118452371Y-109536210D01*
X118433219Y-109469017D01*
X118453435Y-109402135D01*
X118504811Y-109357618D01*
X118510802Y-109354824D01*
X118633662Y-109297534D01*
X118814620Y-109170826D01*
X118970826Y-109014620D01*
X119097534Y-108833662D01*
X119190894Y-108633450D01*
X119248070Y-108420068D01*
X119267323Y-108200000D01*
X119248070Y-107979932D01*
X119190894Y-107766550D01*
X119097534Y-107566339D01*
X119034130Y-107475788D01*
X118970827Y-107385381D01*
X118905526Y-107320080D01*
X118814620Y-107229174D01*
X118814616Y-107229171D01*
X118814615Y-107229170D01*
X118633666Y-107102468D01*
X118633658Y-107102464D01*
X118504811Y-107042382D01*
X118452371Y-106996210D01*
X118433219Y-106929017D01*
X118453435Y-106862135D01*
X118504811Y-106817618D01*
X118521148Y-106810000D01*
X118633662Y-106757534D01*
X118814620Y-106630826D01*
X118970826Y-106474620D01*
X119097534Y-106293662D01*
X119190894Y-106093450D01*
X119248070Y-105880068D01*
X119267323Y-105660000D01*
X119248070Y-105439932D01*
X119190894Y-105226550D01*
X119097534Y-105026339D01*
X119034180Y-104935859D01*
X118970827Y-104845381D01*
X118893809Y-104768363D01*
X118814620Y-104689174D01*
X118814616Y-104689171D01*
X118814615Y-104689170D01*
X118633666Y-104562468D01*
X118633658Y-104562464D01*
X118504811Y-104502382D01*
X118502109Y-104500003D01*
X121694435Y-104500003D01*
X121714630Y-104679249D01*
X121714631Y-104679254D01*
X121774211Y-104849524D01*
X121830493Y-104939094D01*
X121849500Y-105005067D01*
X121849500Y-106314069D01*
X121849500Y-106314071D01*
X121849499Y-106314071D01*
X121869005Y-106412126D01*
X121874498Y-106439739D01*
X121874499Y-106439744D01*
X121923535Y-106558127D01*
X121994723Y-106664669D01*
X121994726Y-106664673D01*
X121994727Y-106664674D01*
X122178277Y-106848223D01*
X122211762Y-106909546D01*
X122213815Y-106922012D01*
X122214630Y-106929246D01*
X122214632Y-106929255D01*
X122274210Y-107099521D01*
X122338894Y-107202464D01*
X122370184Y-107252262D01*
X122497738Y-107379816D01*
X122650478Y-107475789D01*
X122774517Y-107519192D01*
X122820745Y-107535368D01*
X122820750Y-107535369D01*
X122999996Y-107555565D01*
X123000000Y-107555565D01*
X123000004Y-107555565D01*
X123179249Y-107535369D01*
X123179252Y-107535368D01*
X123179255Y-107535368D01*
X123349522Y-107475789D01*
X123502262Y-107379816D01*
X123629816Y-107252262D01*
X123725789Y-107099522D01*
X123785368Y-106929255D01*
X123786679Y-106917618D01*
X123805565Y-106750003D01*
X123805565Y-106749996D01*
X123785369Y-106570750D01*
X123785368Y-106570745D01*
X123755199Y-106484526D01*
X123725789Y-106400478D01*
X123707179Y-106370861D01*
X123671496Y-106314071D01*
X123629816Y-106247738D01*
X123502262Y-106120184D01*
X123459707Y-106093445D01*
X123349523Y-106024211D01*
X123233545Y-105983629D01*
X123176769Y-105942907D01*
X123151022Y-105877954D01*
X123150500Y-105866587D01*
X123150500Y-105005067D01*
X123169507Y-104939094D01*
X123225788Y-104849524D01*
X123227239Y-104845377D01*
X123285368Y-104679255D01*
X123285369Y-104679249D01*
X123305565Y-104500003D01*
X123305565Y-104499996D01*
X123285369Y-104320750D01*
X123285368Y-104320745D01*
X123249253Y-104217534D01*
X123225789Y-104150478D01*
X123219832Y-104140998D01*
X123152991Y-104034621D01*
X123129816Y-103997738D01*
X123002262Y-103870184D01*
X122975974Y-103853666D01*
X122849523Y-103774211D01*
X122679254Y-103714631D01*
X122679249Y-103714630D01*
X122500004Y-103694435D01*
X122499996Y-103694435D01*
X122320750Y-103714630D01*
X122320745Y-103714631D01*
X122150476Y-103774211D01*
X121997737Y-103870184D01*
X121870184Y-103997737D01*
X121774211Y-104150476D01*
X121714631Y-104320745D01*
X121714630Y-104320750D01*
X121694435Y-104499996D01*
X121694435Y-104500003D01*
X118502109Y-104500003D01*
X118452371Y-104456210D01*
X118433219Y-104389017D01*
X118453435Y-104322135D01*
X118504811Y-104277618D01*
X118510802Y-104274824D01*
X118633662Y-104217534D01*
X118814620Y-104090826D01*
X118970826Y-103934620D01*
X119097534Y-103753662D01*
X119190894Y-103553450D01*
X119248070Y-103340068D01*
X119267323Y-103120000D01*
X119248070Y-102899932D01*
X119190894Y-102686550D01*
X119097534Y-102486339D01*
X118980640Y-102319396D01*
X118970827Y-102305381D01*
X118914616Y-102249170D01*
X118814620Y-102149174D01*
X118814616Y-102149171D01*
X118814615Y-102149170D01*
X118633666Y-102022468D01*
X118633658Y-102022464D01*
X118504811Y-101962382D01*
X118452371Y-101916210D01*
X118433219Y-101849017D01*
X118453435Y-101782135D01*
X118504811Y-101737618D01*
X118510802Y-101734824D01*
X118633662Y-101677534D01*
X118814620Y-101550826D01*
X118970826Y-101394620D01*
X119097534Y-101213662D01*
X119190894Y-101013450D01*
X119248070Y-100800068D01*
X119267323Y-100580000D01*
X119248070Y-100359932D01*
X119190894Y-100146550D01*
X119097534Y-99946339D01*
X118980640Y-99779396D01*
X118970827Y-99765381D01*
X118914616Y-99709170D01*
X118814620Y-99609174D01*
X118814616Y-99609171D01*
X118814615Y-99609170D01*
X118633666Y-99482468D01*
X118633662Y-99482466D01*
X118504218Y-99422105D01*
X118451779Y-99375932D01*
X118432627Y-99308739D01*
X118452843Y-99241858D01*
X118504219Y-99197340D01*
X118633416Y-99137095D01*
X118633417Y-99137094D01*
X118698188Y-99091741D01*
X118027448Y-98421000D01*
X118050160Y-98421000D01*
X118147061Y-98395036D01*
X118233940Y-98344876D01*
X118304876Y-98273940D01*
X118355036Y-98187061D01*
X118381000Y-98090160D01*
X118381000Y-98067447D01*
X119051741Y-98738188D01*
X119097094Y-98673417D01*
X119097100Y-98673407D01*
X119190419Y-98473284D01*
X119190424Y-98473270D01*
X119212588Y-98390552D01*
X119248952Y-98330892D01*
X119311799Y-98300362D01*
X119381175Y-98308656D01*
X119420044Y-98334964D01*
X127963181Y-106878101D01*
X127996666Y-106939424D01*
X127999500Y-106965782D01*
X127999500Y-110025500D01*
X127979815Y-110092539D01*
X127927011Y-110138294D01*
X127875500Y-110149500D01*
X124832412Y-110149500D01*
X124765373Y-110129815D01*
X124755097Y-110122445D01*
X124752263Y-110120185D01*
X124752262Y-110120184D01*
X124695496Y-110084515D01*
X124599523Y-110024211D01*
X124429254Y-109964631D01*
X124429249Y-109964630D01*
X124250004Y-109944435D01*
X124249996Y-109944435D01*
X124070750Y-109964630D01*
X124070745Y-109964631D01*
X123900476Y-110024211D01*
X123747736Y-110120185D01*
X123744903Y-110122445D01*
X123742724Y-110123334D01*
X123741842Y-110123889D01*
X123741744Y-110123734D01*
X123680217Y-110148855D01*
X123667588Y-110149500D01*
X121832412Y-110149500D01*
X121765373Y-110129815D01*
X121755097Y-110122445D01*
X121752263Y-110120185D01*
X121752262Y-110120184D01*
X121695496Y-110084515D01*
X121599523Y-110024211D01*
X121429254Y-109964631D01*
X121429249Y-109964630D01*
X121250004Y-109944435D01*
X121249996Y-109944435D01*
X121070750Y-109964630D01*
X121070745Y-109964631D01*
X120900476Y-110024211D01*
X120747737Y-110120184D01*
X120620184Y-110247737D01*
X120524211Y-110400476D01*
X120464631Y-110570745D01*
X120464630Y-110570750D01*
X120444435Y-110749996D01*
X120444435Y-110750003D01*
X120464630Y-110929249D01*
X120464631Y-110929254D01*
X120524211Y-111099523D01*
X120618642Y-111249808D01*
X120620184Y-111252262D01*
X120747738Y-111379816D01*
X120838080Y-111436582D01*
X120898426Y-111474500D01*
X120900478Y-111475789D01*
X121070745Y-111535368D01*
X121070750Y-111535369D01*
X121249996Y-111555565D01*
X121250000Y-111555565D01*
X121250004Y-111555565D01*
X121429249Y-111535369D01*
X121429252Y-111535368D01*
X121429255Y-111535368D01*
X121599522Y-111475789D01*
X121752262Y-111379816D01*
X121752267Y-111379810D01*
X121755097Y-111377555D01*
X121757275Y-111376665D01*
X121758158Y-111376111D01*
X121758255Y-111376265D01*
X121819783Y-111351145D01*
X121832412Y-111350500D01*
X123667588Y-111350500D01*
X123734627Y-111370185D01*
X123744903Y-111377555D01*
X123747736Y-111379814D01*
X123747738Y-111379816D01*
X123861270Y-111451152D01*
X123898426Y-111474500D01*
X123900478Y-111475789D01*
X124070745Y-111535368D01*
X124070750Y-111535369D01*
X124249996Y-111555565D01*
X124250000Y-111555565D01*
X124250004Y-111555565D01*
X124429249Y-111535369D01*
X124429252Y-111535368D01*
X124429255Y-111535368D01*
X124599522Y-111475789D01*
X124752262Y-111379816D01*
X124752267Y-111379810D01*
X124755097Y-111377555D01*
X124757275Y-111376665D01*
X124758158Y-111376111D01*
X124758255Y-111376265D01*
X124819783Y-111351145D01*
X124832412Y-111350500D01*
X127875500Y-111350500D01*
X127942539Y-111370185D01*
X127988294Y-111422989D01*
X127999500Y-111474500D01*
X127999500Y-115848541D01*
X127999500Y-115848543D01*
X127999499Y-115848543D01*
X128037947Y-116041829D01*
X128037950Y-116041839D01*
X128113364Y-116223907D01*
X128113371Y-116223920D01*
X128222859Y-116387780D01*
X128222860Y-116387781D01*
X128222861Y-116387782D01*
X128362218Y-116527139D01*
X128362219Y-116527139D01*
X128369286Y-116534206D01*
X128369285Y-116534206D01*
X128369288Y-116534208D01*
X129972860Y-118137781D01*
X129972861Y-118137782D01*
X130112218Y-118277139D01*
X130112219Y-118277140D01*
X130276079Y-118386628D01*
X130276092Y-118386635D01*
X130404833Y-118439961D01*
X130447744Y-118457735D01*
X130458164Y-118462051D01*
X130554812Y-118481275D01*
X130603135Y-118490887D01*
X130651458Y-118500500D01*
X130651459Y-118500500D01*
X135598542Y-118500500D01*
X135617870Y-118496655D01*
X135695188Y-118481275D01*
X135791836Y-118462051D01*
X135845165Y-118439961D01*
X135973914Y-118386632D01*
X136137782Y-118277139D01*
X136277139Y-118137782D01*
X136277139Y-118137780D01*
X136287347Y-118127573D01*
X136287348Y-118127570D01*
X139487140Y-114927781D01*
X139498287Y-114911099D01*
X139522398Y-114875014D01*
X139576010Y-114830209D01*
X139645335Y-114821502D01*
X139708362Y-114851656D01*
X139745082Y-114911099D01*
X139749500Y-114943905D01*
X139749500Y-116618097D01*
X139786446Y-116851368D01*
X139859433Y-117075996D01*
X139966657Y-117286434D01*
X140105484Y-117477511D01*
X140105485Y-117477512D01*
X144522491Y-121894519D01*
X144522496Y-121894523D01*
X144689155Y-122015606D01*
X144713567Y-122033343D01*
X144847659Y-122101666D01*
X144924003Y-122140566D01*
X144924005Y-122140566D01*
X144924008Y-122140568D01*
X145044412Y-122179689D01*
X145148631Y-122213553D01*
X145381903Y-122250500D01*
X145381908Y-122250500D01*
X148118097Y-122250500D01*
X148351368Y-122213553D01*
X148575992Y-122140568D01*
X148786434Y-122033343D01*
X148977510Y-121894517D01*
X151644517Y-119227510D01*
X151783343Y-119036433D01*
X151890568Y-118825992D01*
X151963553Y-118601368D01*
X151982574Y-118481273D01*
X152000500Y-118368097D01*
X152000500Y-114422889D01*
X152020185Y-114355850D01*
X152036819Y-114335208D01*
X152121203Y-114250824D01*
X152289464Y-114082562D01*
X152350785Y-114049079D01*
X152420476Y-114054063D01*
X152476410Y-114095934D01*
X152500827Y-114161399D01*
X152495947Y-114200482D01*
X152496911Y-114200689D01*
X152495493Y-114207309D01*
X152485000Y-114310013D01*
X152485000Y-114710000D01*
X153555854Y-114710000D01*
X153517370Y-114776657D01*
X153485000Y-114897465D01*
X153485000Y-115022535D01*
X153517370Y-115143343D01*
X153555854Y-115210000D01*
X152485001Y-115210000D01*
X152485001Y-115609986D01*
X152495494Y-115712697D01*
X152550641Y-115879119D01*
X152550643Y-115879124D01*
X152642684Y-116028345D01*
X152766654Y-116152315D01*
X152915875Y-116244356D01*
X152915880Y-116244358D01*
X153082302Y-116299505D01*
X153082309Y-116299506D01*
X153185019Y-116309999D01*
X153709999Y-116309999D01*
X153710000Y-116309998D01*
X153710000Y-115364145D01*
X153776657Y-115402630D01*
X153897465Y-115435000D01*
X154022535Y-115435000D01*
X154143343Y-115402630D01*
X154210000Y-115364145D01*
X154210000Y-116309999D01*
X154734972Y-116309999D01*
X154734986Y-116309998D01*
X154837697Y-116299505D01*
X155004119Y-116244358D01*
X155004124Y-116244356D01*
X155153345Y-116152315D01*
X155277315Y-116028345D01*
X155369356Y-115879124D01*
X155369358Y-115879119D01*
X155424505Y-115712697D01*
X155424506Y-115712690D01*
X155434999Y-115609986D01*
X155435000Y-115609973D01*
X155435000Y-115210000D01*
X154364146Y-115210000D01*
X154402630Y-115143343D01*
X154435000Y-115022535D01*
X154435000Y-114897465D01*
X154402630Y-114776657D01*
X154364146Y-114710000D01*
X155434999Y-114710000D01*
X155434999Y-114310028D01*
X155434998Y-114310013D01*
X155424505Y-114207302D01*
X155369358Y-114040880D01*
X155369356Y-114040875D01*
X155277315Y-113891654D01*
X155153344Y-113767683D01*
X155153340Y-113767680D01*
X155052406Y-113705423D01*
X155005681Y-113653475D01*
X154994460Y-113584513D01*
X155022303Y-113520431D01*
X155029800Y-113512226D01*
X155104517Y-113437510D01*
X155243343Y-113246433D01*
X155350568Y-113035992D01*
X155423553Y-112811368D01*
X155429711Y-112772488D01*
X155460500Y-112578097D01*
X155460500Y-112341902D01*
X155423553Y-112108631D01*
X155369992Y-111943790D01*
X155350568Y-111884008D01*
X155350566Y-111884005D01*
X155350566Y-111884003D01*
X155262133Y-111710445D01*
X155243343Y-111673567D01*
X155104517Y-111482490D01*
X154937510Y-111315483D01*
X154746433Y-111176657D01*
X154740129Y-111173445D01*
X154535996Y-111069433D01*
X154311368Y-110996446D01*
X154078097Y-110959500D01*
X154078092Y-110959500D01*
X151671908Y-110959500D01*
X151671903Y-110959500D01*
X151438635Y-110996446D01*
X151438634Y-110996446D01*
X151336155Y-111029744D01*
X151214009Y-111069430D01*
X151214006Y-111069431D01*
X151003565Y-111176657D01*
X150812488Y-111315484D01*
X149355484Y-112772488D01*
X149216657Y-112963565D01*
X149161472Y-113071873D01*
X149109434Y-113174003D01*
X149036446Y-113398631D01*
X148999500Y-113631902D01*
X148999500Y-115733726D01*
X148979815Y-115800765D01*
X148927011Y-115846520D01*
X148857853Y-115856464D01*
X148794297Y-115827439D01*
X148756523Y-115768661D01*
X148751972Y-115744533D01*
X148751881Y-115743499D01*
X148748070Y-115699932D01*
X148690894Y-115486550D01*
X148597534Y-115286339D01*
X148470826Y-115105380D01*
X148314620Y-114949174D01*
X148314616Y-114949171D01*
X148314615Y-114949170D01*
X148133666Y-114822468D01*
X148133658Y-114822464D01*
X148004811Y-114762382D01*
X147952371Y-114716210D01*
X147933219Y-114649017D01*
X147953435Y-114582135D01*
X148004811Y-114537618D01*
X148048233Y-114517370D01*
X148133662Y-114477534D01*
X148314620Y-114350826D01*
X148470826Y-114194620D01*
X148597534Y-114013662D01*
X148690894Y-113813450D01*
X148748070Y-113600068D01*
X148767323Y-113380000D01*
X148748070Y-113159932D01*
X148690894Y-112946550D01*
X148597534Y-112746339D01*
X148527513Y-112646338D01*
X148470827Y-112565381D01*
X148470823Y-112565377D01*
X148314620Y-112409174D01*
X148314616Y-112409171D01*
X148314615Y-112409170D01*
X148133666Y-112282468D01*
X148133658Y-112282464D01*
X148004811Y-112222382D01*
X147952371Y-112176210D01*
X147933219Y-112109017D01*
X147953435Y-112042135D01*
X148004811Y-111997618D01*
X148033867Y-111984069D01*
X148133662Y-111937534D01*
X148314620Y-111810826D01*
X148470826Y-111654620D01*
X148597534Y-111473662D01*
X148690894Y-111273450D01*
X148748070Y-111060068D01*
X148767323Y-110840000D01*
X148748070Y-110619932D01*
X148690894Y-110406550D01*
X148597534Y-110206339D01*
X148470826Y-110025380D01*
X148314620Y-109869174D01*
X148314616Y-109869171D01*
X148314615Y-109869170D01*
X148133666Y-109742468D01*
X148133658Y-109742464D01*
X148004811Y-109682382D01*
X147952371Y-109636210D01*
X147933219Y-109569017D01*
X147953435Y-109502135D01*
X148004811Y-109457618D01*
X148025287Y-109448070D01*
X148133662Y-109397534D01*
X148314620Y-109270826D01*
X148470826Y-109114620D01*
X148597534Y-108933662D01*
X148690894Y-108733450D01*
X148748070Y-108520068D01*
X148763197Y-108347158D01*
X148767323Y-108300002D01*
X148767323Y-108299997D01*
X148758778Y-108202328D01*
X148748070Y-108079932D01*
X148690894Y-107866550D01*
X148597534Y-107666339D01*
X148512957Y-107545550D01*
X148470827Y-107485381D01*
X148422045Y-107436599D01*
X148314620Y-107329174D01*
X148314616Y-107329171D01*
X148314615Y-107329170D01*
X148144426Y-107210002D01*
X153155034Y-107210002D01*
X153174858Y-107436599D01*
X153174860Y-107436610D01*
X153233730Y-107656317D01*
X153233735Y-107656331D01*
X153329863Y-107862478D01*
X153380974Y-107935472D01*
X154060000Y-107256446D01*
X154060000Y-107262661D01*
X154087259Y-107364394D01*
X154139920Y-107455606D01*
X154214394Y-107530080D01*
X154305606Y-107582741D01*
X154407339Y-107610000D01*
X154413553Y-107610000D01*
X153734526Y-108289025D01*
X153807513Y-108340132D01*
X153807521Y-108340136D01*
X154013668Y-108436264D01*
X154013682Y-108436269D01*
X154233389Y-108495139D01*
X154233400Y-108495141D01*
X154459998Y-108514966D01*
X154460002Y-108514966D01*
X154686599Y-108495141D01*
X154686610Y-108495139D01*
X154906317Y-108436269D01*
X154906331Y-108436264D01*
X155112478Y-108340136D01*
X155185471Y-108289024D01*
X154506447Y-107610000D01*
X154512661Y-107610000D01*
X154614394Y-107582741D01*
X154705606Y-107530080D01*
X154780080Y-107455606D01*
X154832741Y-107364394D01*
X154860000Y-107262661D01*
X154860000Y-107256447D01*
X155539025Y-107935472D01*
X155551237Y-107934403D01*
X155579772Y-107911595D01*
X155649270Y-107904401D01*
X155711625Y-107935923D01*
X155747040Y-107996153D01*
X155750061Y-108013088D01*
X155755909Y-108067483D01*
X155806202Y-108202328D01*
X155806206Y-108202335D01*
X155892452Y-108317544D01*
X155892455Y-108317547D01*
X156007664Y-108403793D01*
X156007671Y-108403797D01*
X156142517Y-108454091D01*
X156142516Y-108454091D01*
X156149444Y-108454835D01*
X156202127Y-108460500D01*
X157797872Y-108460499D01*
X157857483Y-108454091D01*
X157992331Y-108403796D01*
X158107546Y-108317546D01*
X158193796Y-108202331D01*
X158244091Y-108067483D01*
X158249858Y-108013842D01*
X158276593Y-107949296D01*
X158333985Y-107909447D01*
X158403810Y-107906952D01*
X158463900Y-107942604D01*
X158474721Y-107955978D01*
X158539954Y-108049141D01*
X158700858Y-108210045D01*
X158700861Y-108210047D01*
X158887266Y-108340568D01*
X159093504Y-108436739D01*
X159313308Y-108495635D01*
X159475230Y-108509801D01*
X159539998Y-108515468D01*
X159540000Y-108515468D01*
X159540002Y-108515468D01*
X159596673Y-108510509D01*
X159766692Y-108495635D01*
X159986496Y-108436739D01*
X160192734Y-108340568D01*
X160379139Y-108210047D01*
X160540047Y-108049139D01*
X160670568Y-107862734D01*
X160677499Y-107847870D01*
X163199500Y-107847870D01*
X163199501Y-107847876D01*
X163205908Y-107907483D01*
X163256202Y-108042328D01*
X163256206Y-108042335D01*
X163342452Y-108157544D01*
X163342455Y-108157547D01*
X163457664Y-108243793D01*
X163457671Y-108243797D01*
X163592517Y-108294091D01*
X163592516Y-108294091D01*
X163599444Y-108294835D01*
X163652127Y-108300500D01*
X165347872Y-108300499D01*
X165407483Y-108294091D01*
X165542331Y-108243796D01*
X165657546Y-108157546D01*
X165664350Y-108148455D01*
X165720280Y-108106584D01*
X165789971Y-108101597D01*
X165834740Y-108121188D01*
X165847512Y-108130130D01*
X165847518Y-108130134D01*
X166053673Y-108226265D01*
X166053682Y-108226269D01*
X166273389Y-108285139D01*
X166273400Y-108285141D01*
X166499998Y-108304966D01*
X166500002Y-108304966D01*
X166726599Y-108285141D01*
X166726610Y-108285139D01*
X166946317Y-108226269D01*
X166946331Y-108226264D01*
X167152478Y-108130136D01*
X167225471Y-108079024D01*
X166546447Y-107400000D01*
X166552661Y-107400000D01*
X166654394Y-107372741D01*
X166745606Y-107320080D01*
X166820080Y-107245606D01*
X166872741Y-107154394D01*
X166900000Y-107052661D01*
X166900000Y-107046447D01*
X167579024Y-107725471D01*
X167630136Y-107652478D01*
X167726264Y-107446331D01*
X167726269Y-107446317D01*
X167785139Y-107226610D01*
X167785141Y-107226599D01*
X167804966Y-107000002D01*
X167804966Y-106999997D01*
X167785141Y-106773400D01*
X167785139Y-106773389D01*
X167726269Y-106553682D01*
X167726264Y-106553668D01*
X167630136Y-106347521D01*
X167630132Y-106347513D01*
X167579025Y-106274526D01*
X166900000Y-106953551D01*
X166900000Y-106947339D01*
X166872741Y-106845606D01*
X166820080Y-106754394D01*
X166745606Y-106679920D01*
X166654394Y-106627259D01*
X166552661Y-106600000D01*
X166546447Y-106600000D01*
X167225472Y-105920974D01*
X167152478Y-105869863D01*
X166946331Y-105773735D01*
X166946317Y-105773730D01*
X166726610Y-105714860D01*
X166726599Y-105714858D01*
X166500002Y-105695034D01*
X166499998Y-105695034D01*
X166273400Y-105714858D01*
X166273389Y-105714860D01*
X166053682Y-105773730D01*
X166053673Y-105773734D01*
X165847512Y-105869868D01*
X165847507Y-105869871D01*
X165834736Y-105878813D01*
X165768529Y-105901138D01*
X165700763Y-105884124D01*
X165664352Y-105851546D01*
X165657546Y-105842454D01*
X165657544Y-105842453D01*
X165657544Y-105842452D01*
X165542335Y-105756206D01*
X165542328Y-105756202D01*
X165407482Y-105705908D01*
X165407483Y-105705908D01*
X165347883Y-105699501D01*
X165347881Y-105699500D01*
X165347873Y-105699500D01*
X165347864Y-105699500D01*
X163652129Y-105699500D01*
X163652123Y-105699501D01*
X163592516Y-105705908D01*
X163457671Y-105756202D01*
X163457664Y-105756206D01*
X163342455Y-105842452D01*
X163342452Y-105842455D01*
X163256206Y-105957664D01*
X163256202Y-105957671D01*
X163205908Y-106092517D01*
X163199501Y-106152116D01*
X163199500Y-106152135D01*
X163199500Y-107847870D01*
X160677499Y-107847870D01*
X160766739Y-107656496D01*
X160825635Y-107436692D01*
X160843790Y-107229175D01*
X160845468Y-107210001D01*
X160845468Y-107209998D01*
X160836060Y-107102464D01*
X160825635Y-106983308D01*
X160766739Y-106763504D01*
X160670568Y-106557266D01*
X160540047Y-106370861D01*
X160540045Y-106370858D01*
X160379141Y-106209954D01*
X160192734Y-106079432D01*
X160192732Y-106079431D01*
X159986497Y-105983261D01*
X159986488Y-105983258D01*
X159766697Y-105924366D01*
X159766693Y-105924365D01*
X159766692Y-105924365D01*
X159766691Y-105924364D01*
X159766686Y-105924364D01*
X159540002Y-105904532D01*
X159539998Y-105904532D01*
X159313313Y-105924364D01*
X159313302Y-105924366D01*
X159093511Y-105983258D01*
X159093502Y-105983261D01*
X158887267Y-106079431D01*
X158887265Y-106079432D01*
X158700858Y-106209954D01*
X158539956Y-106370856D01*
X158474721Y-106464022D01*
X158420144Y-106507646D01*
X158350645Y-106514839D01*
X158288291Y-106483317D01*
X158252877Y-106423087D01*
X158249856Y-106406150D01*
X158249351Y-106401456D01*
X158244091Y-106352517D01*
X158215002Y-106274526D01*
X158193797Y-106217671D01*
X158193793Y-106217664D01*
X158107546Y-106102454D01*
X158107544Y-106102452D01*
X157992335Y-106016206D01*
X157992328Y-106016202D01*
X157857482Y-105965908D01*
X157857483Y-105965908D01*
X157797883Y-105959501D01*
X157797881Y-105959500D01*
X157797873Y-105959500D01*
X157797864Y-105959500D01*
X156202129Y-105959500D01*
X156202123Y-105959501D01*
X156142516Y-105965908D01*
X156007671Y-106016202D01*
X156007664Y-106016206D01*
X155892455Y-106102452D01*
X155892454Y-106102454D01*
X155806206Y-106217664D01*
X155806202Y-106217671D01*
X155755908Y-106352516D01*
X155750060Y-106406911D01*
X155723321Y-106471462D01*
X155665928Y-106511309D01*
X155596103Y-106513802D01*
X155548103Y-106485321D01*
X155539025Y-106484526D01*
X154860000Y-107163551D01*
X154860000Y-107157339D01*
X154832741Y-107055606D01*
X154780080Y-106964394D01*
X154705606Y-106889920D01*
X154614394Y-106837259D01*
X154512661Y-106810000D01*
X154506448Y-106810000D01*
X155185472Y-106130974D01*
X155112478Y-106079863D01*
X154906331Y-105983735D01*
X154906317Y-105983730D01*
X154686610Y-105924860D01*
X154686599Y-105924858D01*
X154460002Y-105905034D01*
X154459998Y-105905034D01*
X154233400Y-105924858D01*
X154233389Y-105924860D01*
X154013682Y-105983730D01*
X154013673Y-105983734D01*
X153807516Y-106079866D01*
X153807512Y-106079868D01*
X153734526Y-106130973D01*
X153734526Y-106130974D01*
X154413553Y-106810000D01*
X154407339Y-106810000D01*
X154305606Y-106837259D01*
X154214394Y-106889920D01*
X154139920Y-106964394D01*
X154087259Y-107055606D01*
X154060000Y-107157339D01*
X154060000Y-107163552D01*
X153380974Y-106484526D01*
X153380973Y-106484526D01*
X153329868Y-106557512D01*
X153329866Y-106557516D01*
X153233734Y-106763673D01*
X153233730Y-106763682D01*
X153174860Y-106983389D01*
X153174858Y-106983400D01*
X153155034Y-107209997D01*
X153155034Y-107210002D01*
X148144426Y-107210002D01*
X148133666Y-107202468D01*
X148133658Y-107202464D01*
X148004811Y-107142382D01*
X147952371Y-107096210D01*
X147933219Y-107029017D01*
X147953435Y-106962135D01*
X148004811Y-106917618D01*
X148025287Y-106908070D01*
X148133662Y-106857534D01*
X148314620Y-106730826D01*
X148470826Y-106574620D01*
X148597534Y-106393662D01*
X148690894Y-106193450D01*
X148748070Y-105980068D01*
X148763197Y-105807160D01*
X148767323Y-105760002D01*
X148767323Y-105759997D01*
X148760103Y-105677474D01*
X148748070Y-105539932D01*
X148690894Y-105326550D01*
X148597534Y-105126339D01*
X148470826Y-104945380D01*
X148314620Y-104789174D01*
X148314616Y-104789171D01*
X148314615Y-104789170D01*
X148133666Y-104662468D01*
X148133658Y-104662464D01*
X148004811Y-104602382D01*
X147952371Y-104556210D01*
X147933219Y-104489017D01*
X147953435Y-104422135D01*
X148004811Y-104377618D01*
X148025287Y-104368070D01*
X148133662Y-104317534D01*
X148314620Y-104190826D01*
X148470826Y-104034620D01*
X148597534Y-103853662D01*
X148690894Y-103653450D01*
X148748070Y-103440068D01*
X148767323Y-103220000D01*
X148748070Y-102999932D01*
X148690894Y-102786550D01*
X148597534Y-102586339D01*
X148470826Y-102405380D01*
X148314620Y-102249174D01*
X148314616Y-102249171D01*
X148314615Y-102249170D01*
X148133666Y-102122468D01*
X148133658Y-102122464D01*
X148004811Y-102062382D01*
X147952371Y-102016210D01*
X147933219Y-101949017D01*
X147953435Y-101882135D01*
X148004811Y-101837618D01*
X148025287Y-101828070D01*
X148133662Y-101777534D01*
X148314620Y-101650826D01*
X148470826Y-101494620D01*
X148597534Y-101313662D01*
X148690894Y-101113450D01*
X148748070Y-100900068D01*
X148767323Y-100680000D01*
X148748070Y-100459932D01*
X148690894Y-100246550D01*
X148597534Y-100046339D01*
X148470826Y-99865380D01*
X148314620Y-99709174D01*
X148314616Y-99709171D01*
X148314615Y-99709170D01*
X148133666Y-99582468D01*
X148133658Y-99582464D01*
X148004811Y-99522382D01*
X147952371Y-99476210D01*
X147933219Y-99409017D01*
X147953435Y-99342135D01*
X148004811Y-99297618D01*
X148010802Y-99294824D01*
X148133662Y-99237534D01*
X148314620Y-99110826D01*
X148470826Y-98954620D01*
X148597534Y-98773662D01*
X148690894Y-98573450D01*
X148748070Y-98360068D01*
X148767323Y-98140000D01*
X148748070Y-97919932D01*
X148690894Y-97706550D01*
X148597534Y-97506339D01*
X148534180Y-97415859D01*
X148470827Y-97325381D01*
X148412932Y-97267486D01*
X148314620Y-97169174D01*
X148314616Y-97169171D01*
X148314615Y-97169170D01*
X148133666Y-97042468D01*
X148133658Y-97042464D01*
X148004811Y-96982382D01*
X147952371Y-96936210D01*
X147933219Y-96869017D01*
X147953435Y-96802135D01*
X148004811Y-96757618D01*
X148044851Y-96738947D01*
X148133662Y-96697534D01*
X148314620Y-96570826D01*
X148470826Y-96414620D01*
X148597534Y-96233662D01*
X148690894Y-96033450D01*
X148748070Y-95820068D01*
X148767323Y-95600000D01*
X148748070Y-95379932D01*
X148690894Y-95166550D01*
X148597534Y-94966339D01*
X148527513Y-94866338D01*
X148470827Y-94785381D01*
X148411710Y-94726264D01*
X148314620Y-94629174D01*
X148314616Y-94629171D01*
X148314615Y-94629170D01*
X148133666Y-94502468D01*
X148133658Y-94502464D01*
X148004811Y-94442382D01*
X147952371Y-94396210D01*
X147933219Y-94329017D01*
X147953435Y-94262135D01*
X148004811Y-94217618D01*
X148010802Y-94214824D01*
X148133662Y-94157534D01*
X148314620Y-94030826D01*
X148470826Y-93874620D01*
X148597534Y-93693662D01*
X148687839Y-93500002D01*
X155695034Y-93500002D01*
X155714858Y-93726599D01*
X155714860Y-93726610D01*
X155773730Y-93946317D01*
X155773735Y-93946331D01*
X155869863Y-94152478D01*
X155920974Y-94225472D01*
X156600000Y-93546446D01*
X156600000Y-93552661D01*
X156627259Y-93654394D01*
X156679920Y-93745606D01*
X156754394Y-93820080D01*
X156845606Y-93872741D01*
X156947339Y-93900000D01*
X156953553Y-93900000D01*
X156274526Y-94579025D01*
X156347513Y-94630132D01*
X156347521Y-94630136D01*
X156553668Y-94726264D01*
X156553682Y-94726269D01*
X156773389Y-94785139D01*
X156773400Y-94785141D01*
X156999998Y-94804966D01*
X157000002Y-94804966D01*
X157226599Y-94785141D01*
X157226610Y-94785139D01*
X157446317Y-94726269D01*
X157446331Y-94726264D01*
X157652478Y-94630136D01*
X157725471Y-94579024D01*
X157046447Y-93900000D01*
X157052661Y-93900000D01*
X157154394Y-93872741D01*
X157245606Y-93820080D01*
X157320080Y-93745606D01*
X157372741Y-93654394D01*
X157400000Y-93552661D01*
X157400000Y-93546447D01*
X158084197Y-94230644D01*
X158133192Y-94240491D01*
X158183375Y-94289106D01*
X158198049Y-94344632D01*
X158199099Y-94344576D01*
X158199146Y-94344571D01*
X158199146Y-94344573D01*
X158199324Y-94344564D01*
X158199501Y-94347876D01*
X158205908Y-94407483D01*
X158256202Y-94542328D01*
X158256206Y-94542335D01*
X158342452Y-94657544D01*
X158342455Y-94657547D01*
X158457664Y-94743793D01*
X158457671Y-94743797D01*
X158592517Y-94794091D01*
X158592516Y-94794091D01*
X158595856Y-94794450D01*
X158652127Y-94800500D01*
X160347872Y-94800499D01*
X160407483Y-94794091D01*
X160542331Y-94743796D01*
X160657546Y-94657546D01*
X160743796Y-94542331D01*
X160794091Y-94407483D01*
X160800500Y-94347873D01*
X160800499Y-92652128D01*
X160794091Y-92592517D01*
X160743796Y-92457669D01*
X160743795Y-92457668D01*
X160743793Y-92457664D01*
X160657547Y-92342455D01*
X160657544Y-92342452D01*
X160542335Y-92256206D01*
X160542328Y-92256202D01*
X160407482Y-92205908D01*
X160407483Y-92205908D01*
X160347883Y-92199501D01*
X160347881Y-92199500D01*
X160347873Y-92199500D01*
X160347864Y-92199500D01*
X158652129Y-92199500D01*
X158652123Y-92199501D01*
X158592516Y-92205908D01*
X158457671Y-92256202D01*
X158457664Y-92256206D01*
X158342455Y-92342452D01*
X158342452Y-92342455D01*
X158256206Y-92457664D01*
X158256202Y-92457671D01*
X158205908Y-92592517D01*
X158202249Y-92626554D01*
X158199501Y-92652123D01*
X158199322Y-92655452D01*
X158197847Y-92655372D01*
X158179815Y-92716784D01*
X158127011Y-92762539D01*
X158083522Y-92770029D01*
X157400000Y-93453551D01*
X157400000Y-93447339D01*
X157372741Y-93345606D01*
X157320080Y-93254394D01*
X157245606Y-93179920D01*
X157154394Y-93127259D01*
X157052661Y-93100000D01*
X157046448Y-93100000D01*
X157725472Y-92420974D01*
X157652478Y-92369863D01*
X157446331Y-92273735D01*
X157446317Y-92273730D01*
X157226610Y-92214860D01*
X157226599Y-92214858D01*
X157000002Y-92195034D01*
X156999998Y-92195034D01*
X156773400Y-92214858D01*
X156773389Y-92214860D01*
X156553682Y-92273730D01*
X156553673Y-92273734D01*
X156347516Y-92369866D01*
X156347512Y-92369868D01*
X156274526Y-92420973D01*
X156274526Y-92420974D01*
X156953553Y-93100000D01*
X156947339Y-93100000D01*
X156845606Y-93127259D01*
X156754394Y-93179920D01*
X156679920Y-93254394D01*
X156627259Y-93345606D01*
X156600000Y-93447339D01*
X156600000Y-93453552D01*
X155920974Y-92774526D01*
X155920973Y-92774526D01*
X155869868Y-92847512D01*
X155869866Y-92847516D01*
X155773734Y-93053673D01*
X155773730Y-93053682D01*
X155714860Y-93273389D01*
X155714858Y-93273400D01*
X155695034Y-93499997D01*
X155695034Y-93500002D01*
X148687839Y-93500002D01*
X148690894Y-93493450D01*
X148748070Y-93280068D01*
X148767323Y-93060000D01*
X148766770Y-93053682D01*
X148748070Y-92839937D01*
X148748070Y-92839932D01*
X148690894Y-92626550D01*
X148597534Y-92426339D01*
X148534180Y-92335859D01*
X148470827Y-92245381D01*
X148420480Y-92195034D01*
X148314620Y-92089174D01*
X148314616Y-92089171D01*
X148314615Y-92089170D01*
X148133666Y-91962468D01*
X148133658Y-91962464D01*
X148004811Y-91902382D01*
X147952371Y-91856210D01*
X147933219Y-91789017D01*
X147953435Y-91722135D01*
X148004811Y-91677618D01*
X148010802Y-91674824D01*
X148133662Y-91617534D01*
X148314620Y-91490826D01*
X148470826Y-91334620D01*
X148597534Y-91153662D01*
X148690894Y-90953450D01*
X148748070Y-90740068D01*
X148767323Y-90520000D01*
X148748070Y-90299932D01*
X148690894Y-90086550D01*
X148597534Y-89886339D01*
X148527594Y-89786454D01*
X148470827Y-89705381D01*
X148415922Y-89650476D01*
X148314620Y-89549174D01*
X148314616Y-89549171D01*
X148314615Y-89549170D01*
X148133666Y-89422468D01*
X148133658Y-89422464D01*
X148004811Y-89362382D01*
X147952371Y-89316210D01*
X147933219Y-89249017D01*
X147953435Y-89182135D01*
X148004811Y-89137618D01*
X148048531Y-89117231D01*
X148133662Y-89077534D01*
X148314620Y-88950826D01*
X148470826Y-88794620D01*
X148597534Y-88613662D01*
X148690894Y-88413450D01*
X148748070Y-88200068D01*
X148767323Y-87980000D01*
X148748070Y-87759932D01*
X148690894Y-87546550D01*
X148597534Y-87346339D01*
X148534180Y-87255859D01*
X148470827Y-87165381D01*
X148470823Y-87165377D01*
X148314620Y-87009174D01*
X148314616Y-87009171D01*
X148314615Y-87009170D01*
X148133666Y-86882468D01*
X148133658Y-86882464D01*
X148004811Y-86822382D01*
X147952371Y-86776210D01*
X147933219Y-86709017D01*
X147953435Y-86642135D01*
X148004811Y-86597618D01*
X148010802Y-86594824D01*
X148133662Y-86537534D01*
X148314620Y-86410826D01*
X148470826Y-86254620D01*
X148597534Y-86073662D01*
X148690894Y-85873450D01*
X148748070Y-85660068D01*
X148767323Y-85440000D01*
X148748070Y-85219932D01*
X148690894Y-85006550D01*
X148597534Y-84806339D01*
X148534180Y-84715859D01*
X148470827Y-84625381D01*
X148470823Y-84625377D01*
X148314620Y-84469174D01*
X148314616Y-84469171D01*
X148314615Y-84469170D01*
X148133666Y-84342468D01*
X148133658Y-84342464D01*
X148004811Y-84282382D01*
X147952371Y-84236210D01*
X147933219Y-84169017D01*
X147953435Y-84102135D01*
X148004811Y-84057618D01*
X148010802Y-84054824D01*
X148133662Y-83997534D01*
X148314620Y-83870826D01*
X148470826Y-83714620D01*
X148597534Y-83533662D01*
X148690894Y-83333450D01*
X148748070Y-83120068D01*
X148767323Y-82900000D01*
X148748070Y-82679932D01*
X148690894Y-82466550D01*
X148597534Y-82266339D01*
X148470826Y-82085380D01*
X148314620Y-81929174D01*
X148314616Y-81929171D01*
X148314615Y-81929170D01*
X148133666Y-81802468D01*
X148133658Y-81802464D01*
X148004811Y-81742382D01*
X147952371Y-81696210D01*
X147933219Y-81629017D01*
X147953435Y-81562135D01*
X148004811Y-81517618D01*
X148010802Y-81514824D01*
X148133662Y-81457534D01*
X148314620Y-81330826D01*
X148470826Y-81174620D01*
X148597534Y-80993662D01*
X148690894Y-80793450D01*
X148748070Y-80580068D01*
X148767323Y-80360000D01*
X148748070Y-80139932D01*
X148690894Y-79926550D01*
X148597534Y-79726339D01*
X148470826Y-79545380D01*
X148314620Y-79389174D01*
X148314616Y-79389171D01*
X148314615Y-79389170D01*
X148133666Y-79262468D01*
X148133658Y-79262464D01*
X148004811Y-79202382D01*
X147952371Y-79156210D01*
X147933219Y-79089017D01*
X147953435Y-79022135D01*
X148004811Y-78977618D01*
X148010802Y-78974824D01*
X148133662Y-78917534D01*
X148314620Y-78790826D01*
X148470826Y-78634620D01*
X148597534Y-78453662D01*
X148690894Y-78253450D01*
X148748070Y-78040068D01*
X148765534Y-77840453D01*
X148767323Y-77820002D01*
X148767323Y-77819997D01*
X148754981Y-77678926D01*
X148748070Y-77599932D01*
X148690894Y-77386550D01*
X148597534Y-77186339D01*
X148470826Y-77005380D01*
X148314620Y-76849174D01*
X148314616Y-76849171D01*
X148314615Y-76849170D01*
X148133666Y-76722468D01*
X148133658Y-76722464D01*
X148004811Y-76662382D01*
X147952371Y-76616210D01*
X147933219Y-76549017D01*
X147953435Y-76482135D01*
X148004811Y-76437618D01*
X148010802Y-76434824D01*
X148133662Y-76377534D01*
X148314620Y-76250826D01*
X148470826Y-76094620D01*
X148597534Y-75913662D01*
X148690894Y-75713450D01*
X148748070Y-75500068D01*
X148767323Y-75280000D01*
X148748070Y-75059932D01*
X148690894Y-74846550D01*
X148597534Y-74646339D01*
X148470826Y-74465380D01*
X148314620Y-74309174D01*
X148314616Y-74309171D01*
X148314615Y-74309170D01*
X148133666Y-74182468D01*
X148133658Y-74182464D01*
X148004811Y-74122382D01*
X147952371Y-74076210D01*
X147933219Y-74009017D01*
X147953435Y-73942135D01*
X148004811Y-73897618D01*
X148010802Y-73894824D01*
X148133662Y-73837534D01*
X148314620Y-73710826D01*
X148470826Y-73554620D01*
X148597534Y-73373662D01*
X148690894Y-73173450D01*
X148748070Y-72960068D01*
X148767323Y-72740000D01*
X148748070Y-72519932D01*
X148690894Y-72306550D01*
X148597534Y-72106339D01*
X148470826Y-71925380D01*
X148314620Y-71769174D01*
X148314616Y-71769171D01*
X148314615Y-71769170D01*
X148133666Y-71642468D01*
X148133658Y-71642464D01*
X148004811Y-71582382D01*
X147952371Y-71536210D01*
X147933219Y-71469017D01*
X147953435Y-71402135D01*
X148004811Y-71357618D01*
X148010802Y-71354824D01*
X148133662Y-71297534D01*
X148314620Y-71170826D01*
X148470826Y-71014620D01*
X148597534Y-70833662D01*
X148690894Y-70633450D01*
X148748070Y-70420068D01*
X148767323Y-70200000D01*
X148748070Y-69979932D01*
X148690894Y-69766550D01*
X148597534Y-69566339D01*
X148470826Y-69385380D01*
X148314620Y-69229174D01*
X148314616Y-69229171D01*
X148314615Y-69229170D01*
X148133666Y-69102468D01*
X148133658Y-69102464D01*
X148004811Y-69042382D01*
X147952371Y-68996210D01*
X147933219Y-68929017D01*
X147953435Y-68862135D01*
X148004811Y-68817618D01*
X148010802Y-68814824D01*
X148133662Y-68757534D01*
X148314620Y-68630826D01*
X148470826Y-68474620D01*
X148597534Y-68293662D01*
X148690894Y-68093450D01*
X148748070Y-67880068D01*
X148767323Y-67660000D01*
X148748070Y-67439932D01*
X148690894Y-67226550D01*
X148597534Y-67026339D01*
X148470826Y-66845380D01*
X148314620Y-66689174D01*
X148314616Y-66689171D01*
X148314615Y-66689170D01*
X148133666Y-66562468D01*
X148133658Y-66562464D01*
X148004811Y-66502382D01*
X147952371Y-66456210D01*
X147933219Y-66389017D01*
X147953435Y-66322135D01*
X148004811Y-66277618D01*
X148010802Y-66274824D01*
X148133662Y-66217534D01*
X148314620Y-66090826D01*
X148470826Y-65934620D01*
X148597534Y-65753662D01*
X148690894Y-65553450D01*
X148748070Y-65340068D01*
X148767323Y-65120000D01*
X148748070Y-64899932D01*
X148690894Y-64686550D01*
X148597534Y-64486339D01*
X148470826Y-64305380D01*
X148314620Y-64149174D01*
X148314616Y-64149171D01*
X148314615Y-64149170D01*
X148133666Y-64022468D01*
X148133658Y-64022464D01*
X148004811Y-63962382D01*
X147952371Y-63916210D01*
X147933219Y-63849017D01*
X147953435Y-63782135D01*
X148004811Y-63737618D01*
X148010802Y-63734824D01*
X148133662Y-63677534D01*
X148314620Y-63550826D01*
X148470826Y-63394620D01*
X148597534Y-63213662D01*
X148690894Y-63013450D01*
X148748070Y-62800068D01*
X148767323Y-62580000D01*
X148748070Y-62359932D01*
X148690894Y-62146550D01*
X148597534Y-61946339D01*
X148470826Y-61765380D01*
X148314620Y-61609174D01*
X148314616Y-61609171D01*
X148314615Y-61609170D01*
X148133666Y-61482468D01*
X148133658Y-61482464D01*
X148004811Y-61422382D01*
X147952371Y-61376210D01*
X147933219Y-61309017D01*
X147953435Y-61242135D01*
X148004811Y-61197618D01*
X148010802Y-61194824D01*
X148133662Y-61137534D01*
X148314620Y-61010826D01*
X148470826Y-60854620D01*
X148597534Y-60673662D01*
X148690894Y-60473450D01*
X148748070Y-60260068D01*
X148767323Y-60040000D01*
X148748070Y-59819932D01*
X148690894Y-59606550D01*
X148597534Y-59406339D01*
X148470826Y-59225380D01*
X148314620Y-59069174D01*
X148314616Y-59069171D01*
X148314615Y-59069170D01*
X148133666Y-58942468D01*
X148133663Y-58942466D01*
X148133662Y-58942466D01*
X148102359Y-58927869D01*
X148084343Y-58919468D01*
X148031904Y-58873295D01*
X148012752Y-58806101D01*
X148032968Y-58739220D01*
X148049062Y-58719410D01*
X148250339Y-58518133D01*
X148266893Y-58504244D01*
X148314617Y-58470828D01*
X148314616Y-58470828D01*
X148314620Y-58470826D01*
X148470826Y-58314620D01*
X148597534Y-58133662D01*
X148690894Y-57933450D01*
X148748070Y-57720068D01*
X148767323Y-57500000D01*
X148748070Y-57279932D01*
X148690894Y-57066550D01*
X148597534Y-56866339D01*
X148502661Y-56730846D01*
X148470824Y-56685377D01*
X148457628Y-56672181D01*
X148424143Y-56610858D01*
X148429127Y-56541166D01*
X148470999Y-56485233D01*
X148536463Y-56460816D01*
X148545309Y-56460500D01*
X154701324Y-56460500D01*
X154768363Y-56480185D01*
X154789005Y-56496819D01*
X173423181Y-75130995D01*
X173456666Y-75192318D01*
X173459500Y-75218676D01*
X173459500Y-104701324D01*
X173439815Y-104768363D01*
X173423181Y-104789005D01*
X154789005Y-123423181D01*
X154727682Y-123456666D01*
X154701324Y-123459500D01*
X125218676Y-123459500D01*
X125151637Y-123439815D01*
X125130995Y-123423181D01*
X106496819Y-104789005D01*
X106463334Y-104727682D01*
X106460500Y-104701324D01*
X106460500Y-75218676D01*
X106480185Y-75151637D01*
X106496819Y-75130995D01*
X125130995Y-56496819D01*
X125192318Y-56463334D01*
X125218676Y-56460500D01*
X131022276Y-56460500D01*
X131089315Y-56480185D01*
G37*
%TD.AperFunction*%
%TA.AperFunction,Conductor*%
G36*
X146521731Y-56480185D02*
G01*
X146567486Y-56532989D01*
X146577430Y-56602147D01*
X146548405Y-56665703D01*
X146542373Y-56672181D01*
X146529177Y-56685376D01*
X146529172Y-56685382D01*
X146495756Y-56733105D01*
X146481863Y-56749661D01*
X134296174Y-68935351D01*
X134296172Y-68935354D01*
X134284129Y-68951930D01*
X134180476Y-69094594D01*
X134090669Y-69270851D01*
X134089608Y-69274612D01*
X134030291Y-69457169D01*
X134030291Y-69457172D01*
X133999500Y-69651577D01*
X133999500Y-96710503D01*
X134030290Y-96904907D01*
X134091117Y-97092111D01*
X134151283Y-97210192D01*
X134180476Y-97267486D01*
X134296172Y-97426727D01*
X134296174Y-97426729D01*
X135353158Y-98483713D01*
X135386643Y-98545036D01*
X135381659Y-98614728D01*
X135339787Y-98670661D01*
X135274323Y-98695078D01*
X135251597Y-98694615D01*
X135250000Y-98694435D01*
X135249999Y-98694435D01*
X135249998Y-98694435D01*
X135249996Y-98694435D01*
X135070750Y-98714630D01*
X135070745Y-98714631D01*
X134900476Y-98774211D01*
X134747737Y-98870184D01*
X134620184Y-98997737D01*
X134524209Y-99150479D01*
X134507535Y-99198131D01*
X134466813Y-99254907D01*
X134401859Y-99280653D01*
X134349539Y-99274217D01*
X134179254Y-99214631D01*
X134179249Y-99214630D01*
X134000004Y-99194435D01*
X133999996Y-99194435D01*
X133820750Y-99214630D01*
X133820745Y-99214631D01*
X133650476Y-99274211D01*
X133497737Y-99370184D01*
X133370184Y-99497737D01*
X133274207Y-99650483D01*
X133272300Y-99655933D01*
X133231574Y-99712706D01*
X133166620Y-99738449D01*
X133098059Y-99724987D01*
X133075556Y-99709959D01*
X133074619Y-99709173D01*
X132893666Y-99582468D01*
X132893658Y-99582464D01*
X132764811Y-99522382D01*
X132712371Y-99476210D01*
X132693219Y-99409017D01*
X132713435Y-99342135D01*
X132764811Y-99297618D01*
X132770802Y-99294824D01*
X132893662Y-99237534D01*
X133074620Y-99110826D01*
X133230826Y-98954620D01*
X133357534Y-98773662D01*
X133450894Y-98573450D01*
X133508070Y-98360068D01*
X133527323Y-98140000D01*
X133508070Y-97919932D01*
X133450894Y-97706550D01*
X133357534Y-97506339D01*
X133294180Y-97415859D01*
X133230827Y-97325381D01*
X133172932Y-97267486D01*
X133074620Y-97169174D01*
X133074616Y-97169171D01*
X133074615Y-97169170D01*
X132893666Y-97042468D01*
X132893658Y-97042464D01*
X132764811Y-96982382D01*
X132712371Y-96936210D01*
X132693219Y-96869017D01*
X132713435Y-96802135D01*
X132764811Y-96757618D01*
X132804851Y-96738947D01*
X132893662Y-96697534D01*
X133074620Y-96570826D01*
X133230826Y-96414620D01*
X133357534Y-96233662D01*
X133450894Y-96033450D01*
X133508070Y-95820068D01*
X133527323Y-95600000D01*
X133508070Y-95379932D01*
X133450894Y-95166550D01*
X133357534Y-94966339D01*
X133287513Y-94866338D01*
X133230827Y-94785381D01*
X133171710Y-94726264D01*
X133074620Y-94629174D01*
X133074616Y-94629171D01*
X133074615Y-94629170D01*
X132893666Y-94502468D01*
X132893658Y-94502464D01*
X132764811Y-94442382D01*
X132712371Y-94396210D01*
X132693219Y-94329017D01*
X132713435Y-94262135D01*
X132764811Y-94217618D01*
X132770802Y-94214824D01*
X132893662Y-94157534D01*
X133074620Y-94030826D01*
X133230826Y-93874620D01*
X133357534Y-93693662D01*
X133450894Y-93493450D01*
X133508070Y-93280068D01*
X133527323Y-93060000D01*
X133526770Y-93053682D01*
X133508070Y-92839937D01*
X133508070Y-92839932D01*
X133450894Y-92626550D01*
X133357534Y-92426339D01*
X133294180Y-92335859D01*
X133230827Y-92245381D01*
X133180480Y-92195034D01*
X133074620Y-92089174D01*
X133074616Y-92089171D01*
X133074615Y-92089170D01*
X132893666Y-91962468D01*
X132893658Y-91962464D01*
X132764811Y-91902382D01*
X132712371Y-91856210D01*
X132693219Y-91789017D01*
X132713435Y-91722135D01*
X132764811Y-91677618D01*
X132770802Y-91674824D01*
X132893662Y-91617534D01*
X133074620Y-91490826D01*
X133230826Y-91334620D01*
X133357534Y-91153662D01*
X133450894Y-90953450D01*
X133508070Y-90740068D01*
X133527323Y-90520000D01*
X133508070Y-90299932D01*
X133450894Y-90086550D01*
X133357534Y-89886339D01*
X133287594Y-89786454D01*
X133230827Y-89705381D01*
X133175922Y-89650476D01*
X133074620Y-89549174D01*
X133074616Y-89549171D01*
X133074615Y-89549170D01*
X132893666Y-89422468D01*
X132893658Y-89422464D01*
X132764811Y-89362382D01*
X132712371Y-89316210D01*
X132693219Y-89249017D01*
X132713435Y-89182135D01*
X132764811Y-89137618D01*
X132808531Y-89117231D01*
X132893662Y-89077534D01*
X133074620Y-88950826D01*
X133230826Y-88794620D01*
X133357534Y-88613662D01*
X133450894Y-88413450D01*
X133508070Y-88200068D01*
X133527323Y-87980000D01*
X133508070Y-87759932D01*
X133450894Y-87546550D01*
X133357534Y-87346339D01*
X133294180Y-87255859D01*
X133230827Y-87165381D01*
X133230823Y-87165377D01*
X133074620Y-87009174D01*
X133074616Y-87009171D01*
X133074615Y-87009170D01*
X132893666Y-86882468D01*
X132893658Y-86882464D01*
X132764811Y-86822382D01*
X132712371Y-86776210D01*
X132693219Y-86709017D01*
X132713435Y-86642135D01*
X132764811Y-86597618D01*
X132770802Y-86594824D01*
X132893662Y-86537534D01*
X133074620Y-86410826D01*
X133230826Y-86254620D01*
X133357534Y-86073662D01*
X133450894Y-85873450D01*
X133508070Y-85660068D01*
X133527323Y-85440000D01*
X133508070Y-85219932D01*
X133450894Y-85006550D01*
X133357534Y-84806339D01*
X133294180Y-84715859D01*
X133230827Y-84625381D01*
X133230823Y-84625377D01*
X133074620Y-84469174D01*
X133074616Y-84469171D01*
X133074615Y-84469170D01*
X132893666Y-84342468D01*
X132893658Y-84342464D01*
X132764811Y-84282382D01*
X132712371Y-84236210D01*
X132693219Y-84169017D01*
X132713435Y-84102135D01*
X132764811Y-84057618D01*
X132770802Y-84054824D01*
X132893662Y-83997534D01*
X133074620Y-83870826D01*
X133230826Y-83714620D01*
X133357534Y-83533662D01*
X133450894Y-83333450D01*
X133508070Y-83120068D01*
X133527323Y-82900000D01*
X133508070Y-82679932D01*
X133450894Y-82466550D01*
X133357534Y-82266339D01*
X133230826Y-82085380D01*
X133074620Y-81929174D01*
X133074616Y-81929171D01*
X133074615Y-81929170D01*
X132893666Y-81802468D01*
X132893658Y-81802464D01*
X132764811Y-81742382D01*
X132712371Y-81696210D01*
X132693219Y-81629017D01*
X132713435Y-81562135D01*
X132764811Y-81517618D01*
X132770802Y-81514824D01*
X132893662Y-81457534D01*
X133074620Y-81330826D01*
X133230826Y-81174620D01*
X133357534Y-80993662D01*
X133450894Y-80793450D01*
X133508070Y-80580068D01*
X133527323Y-80360000D01*
X133508070Y-80139932D01*
X133450894Y-79926550D01*
X133357534Y-79726339D01*
X133230826Y-79545380D01*
X133074620Y-79389174D01*
X133074616Y-79389171D01*
X133074615Y-79389170D01*
X132893666Y-79262468D01*
X132893658Y-79262464D01*
X132764811Y-79202382D01*
X132712371Y-79156210D01*
X132693219Y-79089017D01*
X132713435Y-79022135D01*
X132764811Y-78977618D01*
X132770802Y-78974824D01*
X132893662Y-78917534D01*
X133074620Y-78790826D01*
X133230826Y-78634620D01*
X133357534Y-78453662D01*
X133450894Y-78253450D01*
X133508070Y-78040068D01*
X133525534Y-77840453D01*
X133527323Y-77820002D01*
X133527323Y-77819997D01*
X133514981Y-77678926D01*
X133508070Y-77599932D01*
X133450894Y-77386550D01*
X133357534Y-77186339D01*
X133230826Y-77005380D01*
X133074620Y-76849174D01*
X133074616Y-76849171D01*
X133074615Y-76849170D01*
X132893666Y-76722468D01*
X132893658Y-76722464D01*
X132764811Y-76662382D01*
X132712371Y-76616210D01*
X132693219Y-76549017D01*
X132713435Y-76482135D01*
X132764811Y-76437618D01*
X132770802Y-76434824D01*
X132893662Y-76377534D01*
X133074620Y-76250826D01*
X133230826Y-76094620D01*
X133357534Y-75913662D01*
X133450894Y-75713450D01*
X133508070Y-75500068D01*
X133527323Y-75280000D01*
X133508070Y-75059932D01*
X133450894Y-74846550D01*
X133357534Y-74646339D01*
X133230826Y-74465380D01*
X133074620Y-74309174D01*
X133074616Y-74309171D01*
X133074615Y-74309170D01*
X132893666Y-74182468D01*
X132893658Y-74182464D01*
X132764811Y-74122382D01*
X132712371Y-74076210D01*
X132693219Y-74009017D01*
X132713435Y-73942135D01*
X132764811Y-73897618D01*
X132770802Y-73894824D01*
X132893662Y-73837534D01*
X133074620Y-73710826D01*
X133230826Y-73554620D01*
X133357534Y-73373662D01*
X133450894Y-73173450D01*
X133508070Y-72960068D01*
X133527323Y-72740000D01*
X133508070Y-72519932D01*
X133450894Y-72306550D01*
X133357534Y-72106339D01*
X133230826Y-71925380D01*
X133074620Y-71769174D01*
X133074616Y-71769171D01*
X133074615Y-71769170D01*
X132893666Y-71642468D01*
X132893658Y-71642464D01*
X132764811Y-71582382D01*
X132712371Y-71536210D01*
X132693219Y-71469017D01*
X132713435Y-71402135D01*
X132764811Y-71357618D01*
X132770802Y-71354824D01*
X132893662Y-71297534D01*
X133074620Y-71170826D01*
X133230826Y-71014620D01*
X133357534Y-70833662D01*
X133450894Y-70633450D01*
X133508070Y-70420068D01*
X133527323Y-70200000D01*
X133508070Y-69979932D01*
X133450894Y-69766550D01*
X133357534Y-69566339D01*
X133230826Y-69385380D01*
X133074620Y-69229174D01*
X133074616Y-69229171D01*
X133074615Y-69229170D01*
X132893666Y-69102468D01*
X132893658Y-69102464D01*
X132764811Y-69042382D01*
X132712371Y-68996210D01*
X132693219Y-68929017D01*
X132713435Y-68862135D01*
X132764811Y-68817618D01*
X132770802Y-68814824D01*
X132893662Y-68757534D01*
X133074620Y-68630826D01*
X133230826Y-68474620D01*
X133357534Y-68293662D01*
X133450894Y-68093450D01*
X133508070Y-67880068D01*
X133527323Y-67660000D01*
X133508070Y-67439932D01*
X133450894Y-67226550D01*
X133357534Y-67026339D01*
X133230826Y-66845380D01*
X133074620Y-66689174D01*
X133074616Y-66689171D01*
X133074615Y-66689170D01*
X132893666Y-66562468D01*
X132893658Y-66562464D01*
X132764811Y-66502382D01*
X132712371Y-66456210D01*
X132693219Y-66389017D01*
X132713435Y-66322135D01*
X132764811Y-66277618D01*
X132770802Y-66274824D01*
X132893662Y-66217534D01*
X133074620Y-66090826D01*
X133230826Y-65934620D01*
X133357534Y-65753662D01*
X133450894Y-65553450D01*
X133508070Y-65340068D01*
X133527323Y-65120000D01*
X133508070Y-64899932D01*
X133450894Y-64686550D01*
X133357534Y-64486339D01*
X133230826Y-64305380D01*
X133074620Y-64149174D01*
X133074616Y-64149171D01*
X133074615Y-64149170D01*
X132893666Y-64022468D01*
X132893658Y-64022464D01*
X132764811Y-63962382D01*
X132712371Y-63916210D01*
X132693219Y-63849017D01*
X132713435Y-63782135D01*
X132764811Y-63737618D01*
X132770802Y-63734824D01*
X132893662Y-63677534D01*
X133074620Y-63550826D01*
X133230826Y-63394620D01*
X133357534Y-63213662D01*
X133450894Y-63013450D01*
X133508070Y-62800068D01*
X133527323Y-62580000D01*
X133508070Y-62359932D01*
X133450894Y-62146550D01*
X133357534Y-61946339D01*
X133230826Y-61765380D01*
X133074620Y-61609174D01*
X133074616Y-61609171D01*
X133074615Y-61609170D01*
X132893666Y-61482468D01*
X132893658Y-61482464D01*
X132764811Y-61422382D01*
X132712371Y-61376210D01*
X132693219Y-61309017D01*
X132713435Y-61242135D01*
X132764811Y-61197618D01*
X132770802Y-61194824D01*
X132893662Y-61137534D01*
X133074620Y-61010826D01*
X133230826Y-60854620D01*
X133357534Y-60673662D01*
X133450894Y-60473450D01*
X133508070Y-60260068D01*
X133527323Y-60040000D01*
X133508070Y-59819932D01*
X133450894Y-59606550D01*
X133357534Y-59406339D01*
X133230826Y-59225380D01*
X133074620Y-59069174D01*
X133074616Y-59069171D01*
X133074615Y-59069170D01*
X132889228Y-58939361D01*
X132890609Y-58937388D01*
X132849423Y-58894204D01*
X132836192Y-58825599D01*
X132862152Y-58760731D01*
X132919062Y-58720196D01*
X132929706Y-58717036D01*
X132946602Y-58712833D01*
X133118275Y-58627692D01*
X133267633Y-58507634D01*
X133267634Y-58507633D01*
X133387692Y-58358275D01*
X133472834Y-58186602D01*
X133519081Y-58000640D01*
X133522000Y-57957604D01*
X133522000Y-57750000D01*
X132548816Y-57750000D01*
X132564876Y-57733940D01*
X132615036Y-57647061D01*
X132641000Y-57550160D01*
X132641000Y-57449840D01*
X132615036Y-57352939D01*
X132564876Y-57266060D01*
X132548816Y-57250000D01*
X133521999Y-57250000D01*
X133521999Y-57042393D01*
X133521998Y-57042390D01*
X133519082Y-56999367D01*
X133519082Y-56999365D01*
X133472834Y-56813397D01*
X133386636Y-56639595D01*
X133374484Y-56570790D01*
X133401460Y-56506338D01*
X133459000Y-56466702D01*
X133497724Y-56460500D01*
X139894108Y-56460500D01*
X146454692Y-56460500D01*
X146521731Y-56480185D01*
G37*
%TD.AperFunction*%
%TA.AperFunction,Conductor*%
G36*
X146310420Y-60560566D02*
G01*
X146366353Y-60602438D01*
X146379468Y-60624343D01*
X146402466Y-60673661D01*
X146402468Y-60673666D01*
X146529170Y-60854615D01*
X146529175Y-60854621D01*
X146685378Y-61010824D01*
X146685384Y-61010829D01*
X146866333Y-61137531D01*
X146866335Y-61137532D01*
X146866338Y-61137534D01*
X146985748Y-61193215D01*
X146995189Y-61197618D01*
X147047628Y-61243790D01*
X147066780Y-61310984D01*
X147046564Y-61377865D01*
X146995189Y-61422382D01*
X146866340Y-61482465D01*
X146866338Y-61482466D01*
X146685377Y-61609175D01*
X146529175Y-61765377D01*
X146402466Y-61946338D01*
X146402465Y-61946340D01*
X146309107Y-62146548D01*
X146309104Y-62146554D01*
X146251930Y-62359929D01*
X146251929Y-62359937D01*
X146232677Y-62579997D01*
X146232677Y-62580002D01*
X146251929Y-62800062D01*
X146251930Y-62800070D01*
X146309104Y-63013445D01*
X146309105Y-63013447D01*
X146309106Y-63013450D01*
X146402466Y-63213662D01*
X146402468Y-63213666D01*
X146529170Y-63394615D01*
X146529175Y-63394621D01*
X146685378Y-63550824D01*
X146685384Y-63550829D01*
X146866333Y-63677531D01*
X146866335Y-63677532D01*
X146866338Y-63677534D01*
X146985748Y-63733215D01*
X146995189Y-63737618D01*
X147047628Y-63783790D01*
X147066780Y-63850984D01*
X147046564Y-63917865D01*
X146995189Y-63962382D01*
X146866340Y-64022465D01*
X146866338Y-64022466D01*
X146685377Y-64149175D01*
X146529175Y-64305377D01*
X146402466Y-64486338D01*
X146402465Y-64486340D01*
X146309107Y-64686548D01*
X146309104Y-64686554D01*
X146251930Y-64899929D01*
X146251929Y-64899937D01*
X146232677Y-65119997D01*
X146232677Y-65120002D01*
X146251929Y-65340062D01*
X146251930Y-65340070D01*
X146309104Y-65553445D01*
X146309105Y-65553447D01*
X146309106Y-65553450D01*
X146402466Y-65753662D01*
X146402468Y-65753666D01*
X146529170Y-65934615D01*
X146529175Y-65934621D01*
X146685378Y-66090824D01*
X146685384Y-66090829D01*
X146866333Y-66217531D01*
X146866335Y-66217532D01*
X146866338Y-66217534D01*
X146985748Y-66273215D01*
X146995189Y-66277618D01*
X147047628Y-66323790D01*
X147066780Y-66390984D01*
X147046564Y-66457865D01*
X146995189Y-66502382D01*
X146866340Y-66562465D01*
X146866338Y-66562466D01*
X146685377Y-66689175D01*
X146529175Y-66845377D01*
X146402466Y-67026338D01*
X146402465Y-67026340D01*
X146309107Y-67226548D01*
X146309104Y-67226554D01*
X146251930Y-67439929D01*
X146251929Y-67439937D01*
X146232677Y-67659997D01*
X146232677Y-67660002D01*
X146251929Y-67880062D01*
X146251930Y-67880070D01*
X146309104Y-68093445D01*
X146309105Y-68093447D01*
X146309106Y-68093450D01*
X146402466Y-68293662D01*
X146402468Y-68293666D01*
X146529170Y-68474615D01*
X146529175Y-68474621D01*
X146685378Y-68630824D01*
X146685384Y-68630829D01*
X146866333Y-68757531D01*
X146866335Y-68757532D01*
X146866338Y-68757534D01*
X146985748Y-68813215D01*
X146995189Y-68817618D01*
X147047628Y-68863790D01*
X147066780Y-68930984D01*
X147046564Y-68997865D01*
X146995189Y-69042382D01*
X146866340Y-69102465D01*
X146866338Y-69102466D01*
X146685377Y-69229175D01*
X146529175Y-69385377D01*
X146402466Y-69566338D01*
X146402465Y-69566340D01*
X146309107Y-69766548D01*
X146309104Y-69766554D01*
X146251930Y-69979929D01*
X146251929Y-69979937D01*
X146232677Y-70199997D01*
X146232677Y-70200002D01*
X146251929Y-70420062D01*
X146251930Y-70420070D01*
X146309104Y-70633445D01*
X146309105Y-70633447D01*
X146309106Y-70633450D01*
X146402466Y-70833662D01*
X146402468Y-70833666D01*
X146529170Y-71014615D01*
X146529175Y-71014621D01*
X146685378Y-71170824D01*
X146685384Y-71170829D01*
X146866333Y-71297531D01*
X146866335Y-71297532D01*
X146866338Y-71297534D01*
X146985748Y-71353215D01*
X146995189Y-71357618D01*
X147047628Y-71403790D01*
X147066780Y-71470984D01*
X147046564Y-71537865D01*
X146995189Y-71582382D01*
X146866340Y-71642465D01*
X146866338Y-71642466D01*
X146685377Y-71769175D01*
X146529175Y-71925377D01*
X146402466Y-72106338D01*
X146402465Y-72106340D01*
X146309107Y-72306548D01*
X146309104Y-72306554D01*
X146251930Y-72519929D01*
X146251929Y-72519937D01*
X146232677Y-72739997D01*
X146232677Y-72740002D01*
X146251929Y-72960062D01*
X146251930Y-72960070D01*
X146309104Y-73173445D01*
X146309105Y-73173447D01*
X146309106Y-73173450D01*
X146402466Y-73373662D01*
X146402468Y-73373666D01*
X146529170Y-73554615D01*
X146529175Y-73554621D01*
X146685378Y-73710824D01*
X146685384Y-73710829D01*
X146866333Y-73837531D01*
X146866335Y-73837532D01*
X146866338Y-73837534D01*
X146985748Y-73893215D01*
X146995189Y-73897618D01*
X147047628Y-73943790D01*
X147066780Y-74010984D01*
X147046564Y-74077865D01*
X146995189Y-74122382D01*
X146866340Y-74182465D01*
X146866338Y-74182466D01*
X146685377Y-74309175D01*
X146529175Y-74465377D01*
X146402466Y-74646338D01*
X146402465Y-74646340D01*
X146309107Y-74846548D01*
X146309104Y-74846554D01*
X146251930Y-75059929D01*
X146251929Y-75059937D01*
X146232677Y-75279997D01*
X146232677Y-75280002D01*
X146251929Y-75500062D01*
X146251930Y-75500070D01*
X146309104Y-75713445D01*
X146309105Y-75713447D01*
X146309106Y-75713450D01*
X146402466Y-75913662D01*
X146402468Y-75913666D01*
X146529170Y-76094615D01*
X146529175Y-76094621D01*
X146685378Y-76250824D01*
X146685384Y-76250829D01*
X146866333Y-76377531D01*
X146866335Y-76377532D01*
X146866338Y-76377534D01*
X146985748Y-76433215D01*
X146995189Y-76437618D01*
X147047628Y-76483790D01*
X147066780Y-76550984D01*
X147046564Y-76617865D01*
X146995189Y-76662382D01*
X146866340Y-76722465D01*
X146866338Y-76722466D01*
X146685377Y-76849175D01*
X146529175Y-77005377D01*
X146402466Y-77186338D01*
X146402465Y-77186340D01*
X146319572Y-77364103D01*
X146313840Y-77376399D01*
X146309107Y-77386548D01*
X146309104Y-77386554D01*
X146251930Y-77599929D01*
X146251929Y-77599937D01*
X146232677Y-77819997D01*
X146232677Y-77820002D01*
X146251929Y-78040062D01*
X146251930Y-78040070D01*
X146309104Y-78253445D01*
X146309105Y-78253447D01*
X146309106Y-78253450D01*
X146357395Y-78357007D01*
X146402466Y-78453662D01*
X146402468Y-78453666D01*
X146529170Y-78634615D01*
X146529175Y-78634621D01*
X146685378Y-78790824D01*
X146685384Y-78790829D01*
X146866333Y-78917531D01*
X146866335Y-78917532D01*
X146866338Y-78917534D01*
X146985748Y-78973215D01*
X146995189Y-78977618D01*
X147047628Y-79023790D01*
X147066780Y-79090984D01*
X147046564Y-79157865D01*
X146995189Y-79202382D01*
X146866340Y-79262465D01*
X146866338Y-79262466D01*
X146685377Y-79389175D01*
X146529175Y-79545377D01*
X146402466Y-79726338D01*
X146402465Y-79726340D01*
X146309107Y-79926548D01*
X146309104Y-79926554D01*
X146251930Y-80139929D01*
X146251929Y-80139937D01*
X146232677Y-80359997D01*
X146232677Y-80360002D01*
X146251929Y-80580062D01*
X146251930Y-80580070D01*
X146309104Y-80793445D01*
X146309105Y-80793447D01*
X146309106Y-80793450D01*
X146330812Y-80839999D01*
X146402466Y-80993662D01*
X146402468Y-80993666D01*
X146529170Y-81174615D01*
X146529175Y-81174621D01*
X146685378Y-81330824D01*
X146685384Y-81330829D01*
X146866333Y-81457531D01*
X146866335Y-81457532D01*
X146866338Y-81457534D01*
X146952554Y-81497737D01*
X146995189Y-81517618D01*
X147047628Y-81563790D01*
X147066780Y-81630984D01*
X147046564Y-81697865D01*
X146995189Y-81742382D01*
X146866340Y-81802465D01*
X146866338Y-81802466D01*
X146685377Y-81929175D01*
X146529175Y-82085377D01*
X146402466Y-82266338D01*
X146402465Y-82266340D01*
X146309107Y-82466548D01*
X146309104Y-82466554D01*
X146251930Y-82679929D01*
X146251929Y-82679937D01*
X146232677Y-82899997D01*
X146232677Y-82900002D01*
X146251929Y-83120062D01*
X146251930Y-83120070D01*
X146309104Y-83333445D01*
X146309105Y-83333447D01*
X146309106Y-83333450D01*
X146398661Y-83525502D01*
X146402466Y-83533662D01*
X146402468Y-83533666D01*
X146529170Y-83714615D01*
X146529175Y-83714621D01*
X146685378Y-83870824D01*
X146685384Y-83870829D01*
X146866333Y-83997531D01*
X146866335Y-83997532D01*
X146866338Y-83997534D01*
X146985748Y-84053215D01*
X146995189Y-84057618D01*
X147047628Y-84103790D01*
X147066780Y-84170984D01*
X147046564Y-84237865D01*
X146995189Y-84282382D01*
X146866340Y-84342465D01*
X146866338Y-84342466D01*
X146685377Y-84469175D01*
X146529175Y-84625377D01*
X146402466Y-84806338D01*
X146402465Y-84806340D01*
X146309107Y-85006548D01*
X146309104Y-85006554D01*
X146251930Y-85219929D01*
X146251929Y-85219937D01*
X146232677Y-85439997D01*
X146232677Y-85440002D01*
X146251929Y-85660062D01*
X146251930Y-85660070D01*
X146309104Y-85873445D01*
X146309105Y-85873447D01*
X146309106Y-85873450D01*
X146398661Y-86065502D01*
X146402466Y-86073662D01*
X146402468Y-86073666D01*
X146529170Y-86254615D01*
X146529175Y-86254621D01*
X146685378Y-86410824D01*
X146685384Y-86410829D01*
X146866333Y-86537531D01*
X146866335Y-86537532D01*
X146866338Y-86537534D01*
X146985748Y-86593215D01*
X146995189Y-86597618D01*
X147047628Y-86643790D01*
X147066780Y-86710984D01*
X147046564Y-86777865D01*
X146995189Y-86822382D01*
X146866340Y-86882465D01*
X146866338Y-86882466D01*
X146685377Y-87009175D01*
X146529175Y-87165377D01*
X146402466Y-87346338D01*
X146402465Y-87346340D01*
X146313154Y-87537869D01*
X146266982Y-87590308D01*
X146199788Y-87609460D01*
X146132907Y-87589244D01*
X146113091Y-87573145D01*
X142597709Y-84057763D01*
X142564224Y-83996440D01*
X142565615Y-83937989D01*
X142583611Y-83870826D01*
X142585063Y-83865408D01*
X142605659Y-83630000D01*
X142585063Y-83394592D01*
X142523903Y-83166337D01*
X142424035Y-82952171D01*
X142418425Y-82944158D01*
X142288494Y-82758597D01*
X142121402Y-82591506D01*
X142121401Y-82591505D01*
X141935405Y-82461269D01*
X141891781Y-82406692D01*
X141884588Y-82337193D01*
X141916110Y-82274839D01*
X141935405Y-82258119D01*
X142121082Y-82128105D01*
X142288105Y-81961082D01*
X142423600Y-81767578D01*
X142523429Y-81553492D01*
X142523432Y-81553486D01*
X142580636Y-81340000D01*
X141683012Y-81340000D01*
X141715925Y-81282993D01*
X141750000Y-81155826D01*
X141750000Y-81024174D01*
X141715925Y-80897007D01*
X141683012Y-80840000D01*
X142580636Y-80840000D01*
X142580635Y-80839999D01*
X142523432Y-80626513D01*
X142523429Y-80626507D01*
X142423600Y-80412422D01*
X142423599Y-80412420D01*
X142288113Y-80218926D01*
X142288108Y-80218920D01*
X142121082Y-80051894D01*
X141934968Y-79921575D01*
X141891344Y-79866998D01*
X141884151Y-79797499D01*
X141915673Y-79735145D01*
X141934968Y-79718425D01*
X142121082Y-79588105D01*
X142288105Y-79421082D01*
X142423600Y-79227578D01*
X142523429Y-79013492D01*
X142523432Y-79013486D01*
X142580636Y-78800000D01*
X141683012Y-78800000D01*
X141715925Y-78742993D01*
X141750000Y-78615826D01*
X141750000Y-78484174D01*
X141715925Y-78357007D01*
X141683012Y-78300000D01*
X142580636Y-78300000D01*
X142580635Y-78299999D01*
X142523432Y-78086513D01*
X142523429Y-78086507D01*
X142423600Y-77872422D01*
X142423599Y-77872420D01*
X142288113Y-77678926D01*
X142288108Y-77678920D01*
X142121082Y-77511894D01*
X141927578Y-77376399D01*
X141713492Y-77276570D01*
X141713486Y-77276567D01*
X141500000Y-77219364D01*
X141500000Y-78116988D01*
X141442993Y-78084075D01*
X141315826Y-78050000D01*
X141184174Y-78050000D01*
X141057007Y-78084075D01*
X141000000Y-78116988D01*
X141000000Y-77219364D01*
X140999999Y-77219364D01*
X140786513Y-77276567D01*
X140786507Y-77276570D01*
X140572422Y-77376399D01*
X140572420Y-77376400D01*
X140378926Y-77511886D01*
X140378920Y-77511891D01*
X140211891Y-77678920D01*
X140211890Y-77678922D01*
X140081575Y-77865031D01*
X140026998Y-77908655D01*
X139957499Y-77915848D01*
X139895145Y-77884326D01*
X139878425Y-77865031D01*
X139748109Y-77678922D01*
X139748108Y-77678920D01*
X139581082Y-77511894D01*
X139387578Y-77376399D01*
X139173492Y-77276570D01*
X139173486Y-77276567D01*
X138960000Y-77219364D01*
X138960000Y-78116988D01*
X138902993Y-78084075D01*
X138775826Y-78050000D01*
X138644174Y-78050000D01*
X138517007Y-78084075D01*
X138460000Y-78116988D01*
X138460000Y-77219364D01*
X138459999Y-77219364D01*
X138246513Y-77276567D01*
X138246507Y-77276570D01*
X138032422Y-77376399D01*
X138032420Y-77376400D01*
X137838926Y-77511886D01*
X137838920Y-77511891D01*
X137671891Y-77678920D01*
X137671886Y-77678926D01*
X137536400Y-77872420D01*
X137536399Y-77872422D01*
X137436570Y-78086507D01*
X137436567Y-78086513D01*
X137379364Y-78299999D01*
X137379364Y-78300000D01*
X138276988Y-78300000D01*
X138244075Y-78357007D01*
X138210000Y-78484174D01*
X138210000Y-78615826D01*
X138244075Y-78742993D01*
X138276988Y-78800000D01*
X137379364Y-78800000D01*
X137436567Y-79013486D01*
X137436570Y-79013492D01*
X137536399Y-79227578D01*
X137671894Y-79421082D01*
X137838917Y-79588105D01*
X138025031Y-79718425D01*
X138068656Y-79773003D01*
X138075848Y-79842501D01*
X138044326Y-79904856D01*
X138025031Y-79921575D01*
X137838922Y-80051890D01*
X137838920Y-80051891D01*
X137671891Y-80218920D01*
X137671886Y-80218926D01*
X137536400Y-80412420D01*
X137536399Y-80412422D01*
X137436570Y-80626507D01*
X137436567Y-80626513D01*
X137379364Y-80839999D01*
X137379364Y-80840000D01*
X138276988Y-80840000D01*
X138244075Y-80897007D01*
X138210000Y-81024174D01*
X138210000Y-81155826D01*
X138244075Y-81282993D01*
X138276988Y-81340000D01*
X137379364Y-81340000D01*
X137436567Y-81553486D01*
X137436570Y-81553492D01*
X137536399Y-81767578D01*
X137671894Y-81961082D01*
X137838917Y-82128105D01*
X138024595Y-82258119D01*
X138068219Y-82312696D01*
X138075412Y-82382195D01*
X138043890Y-82444549D01*
X138024595Y-82461269D01*
X137838594Y-82591508D01*
X137671505Y-82758597D01*
X137535965Y-82952169D01*
X137535964Y-82952171D01*
X137436098Y-83166335D01*
X137436094Y-83166344D01*
X137374938Y-83394586D01*
X137374936Y-83394596D01*
X137354341Y-83629999D01*
X137354341Y-83630000D01*
X137374936Y-83865403D01*
X137374938Y-83865413D01*
X137436094Y-84093655D01*
X137436096Y-84093659D01*
X137436097Y-84093663D01*
X137516004Y-84265023D01*
X137535965Y-84307830D01*
X137535967Y-84307834D01*
X137644281Y-84462521D01*
X137671501Y-84501396D01*
X137671506Y-84501402D01*
X137838597Y-84668493D01*
X137838603Y-84668498D01*
X138024158Y-84798425D01*
X138067783Y-84853002D01*
X138074977Y-84922500D01*
X138043454Y-84984855D01*
X138024158Y-85001575D01*
X137838597Y-85131505D01*
X137671505Y-85298597D01*
X137535965Y-85492169D01*
X137535964Y-85492171D01*
X137436098Y-85706335D01*
X137436094Y-85706344D01*
X137374938Y-85934586D01*
X137374936Y-85934596D01*
X137354341Y-86169999D01*
X137354341Y-86170000D01*
X137374936Y-86405403D01*
X137374938Y-86405413D01*
X137436094Y-86633655D01*
X137436096Y-86633659D01*
X137436097Y-86633663D01*
X137509484Y-86791041D01*
X137535965Y-86847830D01*
X137535967Y-86847834D01*
X137644281Y-87002521D01*
X137671501Y-87041396D01*
X137671506Y-87041402D01*
X137838597Y-87208493D01*
X137838603Y-87208498D01*
X138024158Y-87338425D01*
X138067783Y-87393002D01*
X138074977Y-87462500D01*
X138043454Y-87524855D01*
X138024158Y-87541575D01*
X137838597Y-87671505D01*
X137671505Y-87838597D01*
X137535965Y-88032169D01*
X137535964Y-88032171D01*
X137436098Y-88246335D01*
X137436094Y-88246344D01*
X137374938Y-88474586D01*
X137374936Y-88474596D01*
X137354341Y-88709999D01*
X137354341Y-88710000D01*
X137374936Y-88945403D01*
X137374938Y-88945413D01*
X137436094Y-89173655D01*
X137436096Y-89173659D01*
X137436097Y-89173663D01*
X137516004Y-89345023D01*
X137535965Y-89387830D01*
X137535967Y-89387834D01*
X137612923Y-89497737D01*
X137671501Y-89581396D01*
X137671506Y-89581402D01*
X137838597Y-89748493D01*
X137838603Y-89748498D01*
X138024158Y-89878425D01*
X138067783Y-89933002D01*
X138074977Y-90002500D01*
X138043454Y-90064855D01*
X138024158Y-90081575D01*
X137838597Y-90211505D01*
X137671505Y-90378597D01*
X137535965Y-90572169D01*
X137535964Y-90572171D01*
X137436098Y-90786335D01*
X137436094Y-90786344D01*
X137374938Y-91014586D01*
X137374936Y-91014596D01*
X137354341Y-91249999D01*
X137354341Y-91250000D01*
X137374936Y-91485403D01*
X137374938Y-91485413D01*
X137436094Y-91713655D01*
X137436096Y-91713659D01*
X137436097Y-91713663D01*
X137516004Y-91885023D01*
X137535965Y-91927830D01*
X137535967Y-91927834D01*
X137644281Y-92082521D01*
X137671501Y-92121396D01*
X137671506Y-92121402D01*
X137838597Y-92288493D01*
X137838603Y-92288498D01*
X138024158Y-92418425D01*
X138067783Y-92473002D01*
X138074977Y-92542500D01*
X138043454Y-92604855D01*
X138024158Y-92621575D01*
X137838597Y-92751505D01*
X137671505Y-92918597D01*
X137535965Y-93112169D01*
X137535964Y-93112171D01*
X137436098Y-93326335D01*
X137436094Y-93326344D01*
X137374938Y-93554586D01*
X137374936Y-93554596D01*
X137354341Y-93789999D01*
X137354341Y-93790000D01*
X137374936Y-94025403D01*
X137374938Y-94025413D01*
X137436094Y-94253655D01*
X137436096Y-94253659D01*
X137436097Y-94253663D01*
X137516004Y-94425023D01*
X137535965Y-94467830D01*
X137535967Y-94467834D01*
X137644281Y-94622521D01*
X137671501Y-94661396D01*
X137671506Y-94661402D01*
X137838597Y-94828493D01*
X137838603Y-94828498D01*
X138024158Y-94958425D01*
X138067783Y-95013002D01*
X138074977Y-95082500D01*
X138043454Y-95144855D01*
X138024158Y-95161575D01*
X137838597Y-95291505D01*
X137671505Y-95458597D01*
X137535965Y-95652169D01*
X137535964Y-95652171D01*
X137436098Y-95866335D01*
X137436094Y-95866344D01*
X137374938Y-96094586D01*
X137374936Y-96094596D01*
X137354341Y-96329999D01*
X137354341Y-96330000D01*
X137374936Y-96565403D01*
X137374939Y-96565416D01*
X137402719Y-96669097D01*
X137401056Y-96738947D01*
X137361893Y-96796809D01*
X137297664Y-96824312D01*
X137228762Y-96812725D01*
X137195263Y-96788870D01*
X136536819Y-96130426D01*
X136503334Y-96069103D01*
X136500500Y-96042745D01*
X136500500Y-70319335D01*
X136520185Y-70252296D01*
X136536814Y-70231659D01*
X146179407Y-60589065D01*
X146240728Y-60555582D01*
X146310420Y-60560566D01*
G37*
%TD.AperFunction*%
%TA.AperFunction,Conductor*%
G36*
X140784075Y-80897007D02*
G01*
X140750000Y-81024174D01*
X140750000Y-81155826D01*
X140784075Y-81282993D01*
X140816988Y-81340000D01*
X139143012Y-81340000D01*
X139175925Y-81282993D01*
X139210000Y-81155826D01*
X139210000Y-81024174D01*
X139175925Y-80897007D01*
X139143012Y-80840000D01*
X140816988Y-80840000D01*
X140784075Y-80897007D01*
G37*
%TD.AperFunction*%
%TA.AperFunction,Conductor*%
G36*
X138960000Y-80656988D02*
G01*
X138902993Y-80624075D01*
X138775826Y-80590000D01*
X138644174Y-80590000D01*
X138517007Y-80624075D01*
X138460000Y-80656988D01*
X138460000Y-78983012D01*
X138517007Y-79015925D01*
X138644174Y-79050000D01*
X138775826Y-79050000D01*
X138902993Y-79015925D01*
X138960000Y-78983012D01*
X138960000Y-80656988D01*
G37*
%TD.AperFunction*%
%TA.AperFunction,Conductor*%
G36*
X141500000Y-80656988D02*
G01*
X141442993Y-80624075D01*
X141315826Y-80590000D01*
X141184174Y-80590000D01*
X141057007Y-80624075D01*
X141000000Y-80656988D01*
X141000000Y-78983012D01*
X141057007Y-79015925D01*
X141184174Y-79050000D01*
X141315826Y-79050000D01*
X141442993Y-79015925D01*
X141500000Y-78983012D01*
X141500000Y-80656988D01*
G37*
%TD.AperFunction*%
%TA.AperFunction,Conductor*%
G36*
X140784075Y-78357007D02*
G01*
X140750000Y-78484174D01*
X140750000Y-78615826D01*
X140784075Y-78742993D01*
X140816988Y-78800000D01*
X139143012Y-78800000D01*
X139175925Y-78742993D01*
X139210000Y-78615826D01*
X139210000Y-78484174D01*
X139175925Y-78357007D01*
X139143012Y-78300000D01*
X140816988Y-78300000D01*
X140784075Y-78357007D01*
G37*
%TD.AperFunction*%
%TD*%
M02*
