M48
; DRILL file {KiCad 8.0.1} date 2024-04-19T02:33:04-0700
; FORMAT={-:-/ absolute / inch / decimal}
; #@! TF.CreationDate,2024-04-19T02:33:04-07:00
; #@! TF.GenerationSoftware,Kicad,Pcbnew,8.0.1
; #@! TF.FileFunction,Plated,1,2,PTH
FMAT,2
INCH
; #@! TA.AperFunction,Plated,PTH,ViaDrill
T1C0.0118
; #@! TA.AperFunction,Plated,PTH,ComponentDrill
T2C0.0300
; #@! TA.AperFunction,Plated,PTH,ComponentDrill
T3C0.0315
; #@! TA.AperFunction,Plated,PTH,ComponentDrill
T4C0.0374
; #@! TA.AperFunction,Plated,PTH,ComponentDrill
T5C0.0394
%
G90
G05
T1
X4.626Y-3.1398
X4.626Y-3.2972
X4.626Y-3.4744
X4.6447Y-3.3858
X4.6447Y-3.5433
X4.6457Y-3.0709
X4.6457Y-3.2283
X4.7736Y-4.3602
X4.8228Y-4.1142
X4.8425Y-4.2028
X4.8917Y-4.3602
X4.9803Y-3.2283
X4.9803Y-3.4154
X4.9803Y-3.4941
X4.9902Y-3.0315
X5.2756Y-3.937
X5.315Y-2.3228
X5.3248Y-3.9173
X5.3445Y-3.9567
X5.3681Y-3.9961
X5.6791Y-2.6575
X5.935Y-4.2717
X6.1516Y-3.878
X6.2697Y-3.2776
X6.3386Y-4.3701
X6.3681Y-3.8583
X6.378Y-4.1142
X6.4961Y-2.815
X6.5157Y-3.2382
X6.624Y-4.1142
X6.7421Y-3.248
X6.7913Y-3.5728
X6.8012Y-3.8484
T2
X4.6457Y-3.7598
X4.6457Y-3.8598
X4.6457Y-3.9598
X4.6457Y-4.0598
X4.6457Y-4.1598
X4.6457Y-4.2598
X4.6457Y-4.3598
X4.6457Y-4.4598
X5.2071Y-2.2638
X5.2071Y-2.3638
X5.2071Y-2.4638
X5.2071Y-2.5638
X5.2071Y-2.6638
X5.2071Y-2.7638
X5.2071Y-2.8638
X5.2071Y-2.9638
X5.2071Y-3.0638
X5.2071Y-3.1638
X5.2071Y-3.2638
X5.2071Y-3.3638
X5.2071Y-3.4638
X5.2071Y-3.5638
X5.2071Y-3.6638
X5.2071Y-3.7638
X5.2071Y-3.8638
X5.2071Y-3.9638
X5.2071Y-4.0638
X5.2071Y-4.1638
X5.2071Y-4.2638
X5.2071Y-4.3638
X5.2071Y-4.4638
X5.2071Y-4.5638
X5.8071Y-2.2638
X5.8071Y-2.3638
X5.8071Y-2.4638
X5.8071Y-2.5638
X5.8071Y-2.6638
X5.8071Y-2.7638
X5.8071Y-2.8638
X5.8071Y-2.9638
X5.8071Y-3.0638
X5.8071Y-3.1638
X5.8071Y-3.2638
X5.8071Y-3.3638
X5.8071Y-3.4638
X5.8071Y-3.5638
X5.8071Y-3.6638
X5.8071Y-3.7638
X5.8071Y-3.8638
X5.8071Y-3.9638
X5.8071Y-4.0638
X5.8071Y-4.1638
X5.8071Y-4.2638
X5.8071Y-4.3638
X5.8071Y-4.4638
X5.8071Y-4.5638
T3
X6.0811Y-4.2209
X6.1811Y-3.6811
X6.1811Y-4.2209
X6.2795Y-3.6811
X6.2811Y-4.2209
X6.4764Y-4.2126
X6.5551Y-4.2126
T4
X6.0614Y-4.4276
X6.0614Y-4.526
T5
X5.461Y-3.0925
X5.461Y-3.1925
X5.461Y-3.2925
X5.461Y-3.3925
X5.461Y-3.4925
X5.461Y-3.5925
X5.461Y-3.6925
X5.461Y-3.7925
X5.461Y-3.8925
X5.461Y-3.9925
X5.561Y-3.0925
X5.561Y-3.1925
X5.561Y-3.2925
X5.561Y-3.3925
X5.561Y-3.4925
X5.561Y-3.5925
X5.561Y-3.6925
X5.561Y-3.7925
X5.561Y-3.8925
X5.561Y-3.9925
M30
