%TF.GenerationSoftware,KiCad,Pcbnew,8.0.1*%
%TF.CreationDate,2024-04-19T02:09:13-07:00*%
%TF.ProjectId,CMOD_A7_Lower,434d4f44-5f41-4375-9f4c-6f7765722e6b,rev?*%
%TF.SameCoordinates,Original*%
%TF.FileFunction,Copper,L2,Inr*%
%TF.FilePolarity,Positive*%
%FSLAX46Y46*%
G04 Gerber Fmt 4.6, Leading zero omitted, Abs format (unit mm)*
G04 Created by KiCad (PCBNEW 8.0.1) date 2024-04-19 02:09:13*
%MOMM*%
%LPD*%
G01*
G04 APERTURE LIST*
G04 Aperture macros list*
%AMRoundRect*
0 Rectangle with rounded corners*
0 $1 Rounding radius*
0 $2 $3 $4 $5 $6 $7 $8 $9 X,Y pos of 4 corners*
0 Add a 4 corners polygon primitive as box body*
4,1,4,$2,$3,$4,$5,$6,$7,$8,$9,$2,$3,0*
0 Add four circle primitives for the rounded corners*
1,1,$1+$1,$2,$3*
1,1,$1+$1,$4,$5*
1,1,$1+$1,$6,$7*
1,1,$1+$1,$8,$9*
0 Add four rect primitives between the rounded corners*
20,1,$1+$1,$2,$3,$4,$5,0*
20,1,$1+$1,$4,$5,$6,$7,0*
20,1,$1+$1,$6,$7,$8,$9,0*
20,1,$1+$1,$8,$9,$2,$3,0*%
G04 Aperture macros list end*
%TA.AperFunction,ComponentPad*%
%ADD10R,1.600000X1.600000*%
%TD*%
%TA.AperFunction,ComponentPad*%
%ADD11C,1.600000*%
%TD*%
%TA.AperFunction,ComponentPad*%
%ADD12R,1.700000X1.700000*%
%TD*%
%TA.AperFunction,ComponentPad*%
%ADD13O,1.700000X1.700000*%
%TD*%
%TA.AperFunction,ComponentPad*%
%ADD14C,1.524000*%
%TD*%
%TA.AperFunction,ComponentPad*%
%ADD15RoundRect,0.381000X-0.381000X-0.381000X0.381000X-0.381000X0.381000X0.381000X-0.381000X0.381000X0*%
%TD*%
%TA.AperFunction,ViaPad*%
%ADD16C,0.600000*%
%TD*%
%TA.AperFunction,Conductor*%
%ADD17C,0.800000*%
%TD*%
%TA.AperFunction,Conductor*%
%ADD18C,0.200000*%
%TD*%
G04 APERTURE END LIST*
D10*
%TO.N,+12V*%
%TO.C,C9*%
X88250000Y-104250000D03*
D11*
%TO.N,GND*%
X90250000Y-104250000D03*
%TD*%
D12*
%TO.N,+12V*%
%TO.C,J17*%
X87250000Y-99410000D03*
D13*
%TO.N,+3.3V*%
X84710000Y-99410000D03*
%TO.N,+12V*%
X87250000Y-96870000D03*
%TO.N,+3.3V*%
X84710000Y-96870000D03*
%TO.N,/FPGA5*%
X87250000Y-94330000D03*
%TO.N,/SDA*%
X84710000Y-94330000D03*
%TO.N,/FPGA4*%
X87250000Y-91790000D03*
%TO.N,/SCL*%
X84710000Y-91790000D03*
%TO.N,/FPGA3*%
X87250000Y-89250000D03*
%TO.N,/FPGA9*%
X84710000Y-89250000D03*
%TO.N,/FPGA2*%
X87250000Y-86710000D03*
%TO.N,/FPGA8*%
X84710000Y-86710000D03*
%TO.N,/FPGA1*%
X87250000Y-84170000D03*
%TO.N,/FPGA7*%
X84710000Y-84170000D03*
%TO.N,/FPGA0*%
X87250000Y-81630000D03*
%TO.N,/FPGA6*%
X84710000Y-81630000D03*
%TO.N,GND*%
X87250000Y-79090000D03*
X84710000Y-79090000D03*
X87250000Y-76550000D03*
X84710000Y-76550000D03*
%TD*%
D10*
%TO.N,+3.3V*%
%TO.C,C10*%
X83705113Y-104250000D03*
D11*
%TO.N,GND*%
X81705113Y-104250000D03*
%TD*%
D14*
%TO.N,/FPGA9*%
%TO.C,U5*%
X78270000Y-112700000D03*
%TO.N,/FPGA8*%
X78270000Y-110160000D03*
%TO.N,/FPGA7*%
X78270000Y-107620000D03*
%TO.N,/SDA*%
X78270000Y-105080000D03*
%TO.N,/SCL*%
X78270000Y-102540000D03*
%TO.N,/INA_10*%
X78270000Y-100000000D03*
%TO.N,/INB_10*%
X78270000Y-97460000D03*
%TO.N,/INA_11*%
X78270000Y-94920000D03*
%TO.N,/INB_11*%
X78270000Y-92380000D03*
%TO.N,/INA_00*%
X78270000Y-89840000D03*
%TO.N,/INB_00*%
X78270000Y-87300000D03*
%TO.N,/INA_01*%
X78270000Y-84760000D03*
%TO.N,/INB_01*%
X78270000Y-82220000D03*
%TO.N,/EA_11*%
X78270000Y-79680000D03*
%TO.N,unconnected-(U5-A1-Pad15)*%
X78270000Y-77140000D03*
%TO.N,unconnected-(U5-A2-Pad16)*%
X78270000Y-74600000D03*
%TO.N,/EB_11*%
X78270000Y-72060000D03*
%TO.N,/EA_10*%
X78270000Y-69520000D03*
%TO.N,/EB_10*%
X78270000Y-66980000D03*
%TO.N,/EA_01*%
X78270000Y-64440000D03*
%TO.N,/EB_01*%
X78270000Y-61900000D03*
%TO.N,/EA_00*%
X78270000Y-59360000D03*
%TO.N,/EB_00*%
X78270000Y-56820000D03*
%TO.N,+3.3V*%
X78270000Y-54280000D03*
D15*
%TO.N,GND*%
X93510000Y-54280000D03*
D14*
%TO.N,/EB_20*%
X93510000Y-56820000D03*
%TO.N,/EA_20*%
X93510000Y-59360000D03*
%TO.N,/EB_21*%
X93510000Y-61900000D03*
%TO.N,/EA_21*%
X93510000Y-64440000D03*
%TO.N,/EB_30*%
X93510000Y-66980000D03*
%TO.N,/EA_30*%
X93510000Y-69520000D03*
%TO.N,/EB_31*%
X93510000Y-72060000D03*
%TO.N,/FPGA0*%
X93510000Y-74600000D03*
%TO.N,/FPGA1*%
X93510000Y-77140000D03*
%TO.N,/EA_31*%
X93510000Y-79680000D03*
%TO.N,/INB_21*%
X93510000Y-82220000D03*
%TO.N,/INA_21*%
X93510000Y-84760000D03*
%TO.N,/INB_20*%
X93510000Y-87300000D03*
%TO.N,/INA_20*%
X93510000Y-89840000D03*
%TO.N,/INB_31*%
X93510000Y-92380000D03*
%TO.N,/INA_31*%
X93510000Y-94920000D03*
%TO.N,/INB_30*%
X93510000Y-97460000D03*
%TO.N,/INA_30*%
X93510000Y-100000000D03*
%TO.N,/FPGA2*%
X93510000Y-102540000D03*
%TO.N,/FPGA3*%
X93510000Y-105080000D03*
%TO.N,/FPGA4*%
X93510000Y-107620000D03*
%TO.N,/FPGA5*%
X93510000Y-110160000D03*
%TO.N,/FPGA6*%
X93510000Y-112700000D03*
%TD*%
D16*
%TO.N,GND*%
X114000000Y-96750000D03*
X51750000Y-91750000D03*
X54250000Y-88000000D03*
X65500000Y-85000000D03*
X51250000Y-80500000D03*
X104750000Y-88000000D03*
X64712132Y-77560662D03*
X117250000Y-88000000D03*
X109000000Y-86750000D03*
X101000000Y-94250000D03*
X115000000Y-86250000D03*
X105500000Y-82750000D03*
X58500000Y-84250000D03*
X91750000Y-88750000D03*
X61000000Y-88250000D03*
X53250000Y-80500000D03*
%TO.N,/VM0*%
X67250000Y-81000000D03*
%TO.N,/VM2*%
X104000000Y-86750000D03*
%TO.N,/VM1*%
X67506372Y-90756372D03*
%TO.N,/VM3*%
X103988603Y-92011397D03*
%TO.N,+3.3V*%
X105000000Y-80000000D03*
X59000000Y-81000000D03*
X53000000Y-93750000D03*
X60750000Y-93750000D03*
X107750000Y-88000000D03*
X114750000Y-93000000D03*
X52250000Y-82000000D03*
X106750000Y-93000000D03*
X114000000Y-82000000D03*
X65898111Y-89350000D03*
X64500000Y-76500000D03*
X119250000Y-80000000D03*
%TO.N,/MA_00*%
X63750000Y-82500000D03*
X57250000Y-84250000D03*
%TO.N,/EB_00*%
X53747017Y-81241051D03*
%TO.N,/MB_00*%
X57250000Y-83250000D03*
X64250000Y-80000000D03*
%TO.N,/EA_00*%
X54000000Y-82000000D03*
%TO.N,/EB_20*%
X113750000Y-84000000D03*
%TO.N,/EA_20*%
X111500000Y-83000000D03*
%TO.N,/EB_01*%
X61000000Y-80000000D03*
%TO.N,/EA_01*%
X60000000Y-80750000D03*
%TO.N,/EA_21*%
X119000000Y-84750000D03*
%TO.N,/MB_21*%
X114750000Y-81000000D03*
X107424265Y-79924265D03*
%TO.N,/EB_21*%
X118250000Y-84000000D03*
%TO.N,/MA_21*%
X110351472Y-79000000D03*
X114750000Y-79965533D03*
%TO.N,/EA_10*%
X54000000Y-92750000D03*
%TO.N,/EB_10*%
X54000000Y-91500000D03*
%TO.N,/MB_10*%
X57250000Y-95000000D03*
X64900000Y-90250000D03*
%TO.N,/MA_10*%
X58000000Y-96000000D03*
X64000000Y-91000000D03*
%TO.N,/EA_30*%
X110750000Y-93500000D03*
%TO.N,/EB_30*%
X111750000Y-93500000D03*
%TO.N,/EA_11*%
X59750000Y-93250000D03*
%TO.N,/EB_11*%
X61000000Y-92000000D03*
%TO.N,/EB_31*%
X118250000Y-94950000D03*
%TO.N,/MB_31*%
X108750000Y-89500000D03*
X114625000Y-91875000D03*
%TO.N,/MA_31*%
X109250000Y-88750000D03*
X114549265Y-90500000D03*
%TO.N,/EA_31*%
X118750000Y-95750000D03*
%TO.N,/SW_00*%
X57250000Y-82250000D03*
X58250000Y-87250000D03*
X77650000Y-117500000D03*
%TO.N,/SW_01*%
X58250000Y-88050003D03*
X77000000Y-118500000D03*
%TO.N,/SW_10*%
X78250000Y-118750000D03*
X65250000Y-87250000D03*
%TO.N,/SW_11*%
X65750000Y-99250000D03*
X78744954Y-120013877D03*
%TO.N,/SW_20*%
X114000000Y-87250000D03*
X93750000Y-123000000D03*
%TO.N,/SW_21*%
X95750000Y-122000000D03*
X109000000Y-97500000D03*
%TO.N,/SW_30*%
X94250000Y-121750000D03*
X120500000Y-88000000D03*
%TO.N,/SW_31*%
X96200000Y-121000000D03*
X113750000Y-95750000D03*
%TO.N,+12V*%
X98250000Y-90250000D03*
X97537500Y-80287500D03*
X75000000Y-86000000D03*
X74000000Y-96300000D03*
%TO.N,/SDA*%
X89875000Y-116125000D03*
%TO.N,/SCL*%
X90000000Y-118250000D03*
%TO.N,/INA_01*%
X67100000Y-85000000D03*
%TO.N,/INA_00*%
X66600000Y-87545074D03*
%TO.N,/INB_00*%
X67250000Y-86250000D03*
%TO.N,/INB_01*%
X65500000Y-85800003D03*
%TO.N,/INA_21*%
X104264656Y-82014058D03*
%TO.N,/INB_20*%
X103500000Y-82249231D03*
%TO.N,/INA_20*%
X102266686Y-84306205D03*
%TO.N,/INB_21*%
X104595804Y-82835664D03*
%TO.N,/INB_11*%
X67325735Y-94325735D03*
%TO.N,/INA_11*%
X66681709Y-94800324D03*
%TO.N,/INB_10*%
X66000000Y-95377423D03*
%TO.N,/INA_10*%
X68950636Y-95900000D03*
%TO.N,/INA_30*%
X100500000Y-90250000D03*
%TO.N,/INB_31*%
X103310662Y-87939338D03*
%TO.N,/INB_30*%
X101363603Y-89386397D03*
%TO.N,/INA_31*%
X100250000Y-88500000D03*
%TO.N,/FPGA5*%
X91500000Y-110500000D03*
%TD*%
D17*
%TO.N,+3.3V*%
X81500000Y-55750000D02*
X81500000Y-91160000D01*
X80030000Y-54280000D02*
X81500000Y-55750000D01*
X94418000Y-52918000D02*
X92722656Y-52918000D01*
X105000000Y-73750000D02*
X95382745Y-64132745D01*
X92722656Y-52918000D02*
X91890656Y-53750000D01*
X64500000Y-76500000D02*
X76500000Y-64500000D01*
X105000000Y-80000000D02*
X105000000Y-73750000D01*
X82500000Y-100500000D02*
X83705113Y-101705113D01*
X76500000Y-56050000D02*
X78270000Y-54280000D01*
X95382745Y-53882745D02*
X94418000Y-52918000D01*
X76500000Y-64500000D02*
X76500000Y-56050000D01*
X82500000Y-92160000D02*
X82500000Y-100500000D01*
X81500000Y-91160000D02*
X82500000Y-92160000D01*
X78800000Y-53750000D02*
X78270000Y-54280000D01*
X78270000Y-54280000D02*
X80030000Y-54280000D01*
X91890656Y-53750000D02*
X78800000Y-53750000D01*
X95382745Y-64132745D02*
X95382745Y-53882745D01*
X83705113Y-101705113D02*
X83705113Y-104250000D01*
D18*
%TO.N,/SW_00*%
X76000000Y-114250000D02*
X76000000Y-111131372D01*
X58900000Y-94031372D02*
X58900000Y-87801471D01*
X58900000Y-87801471D02*
X58348529Y-87250000D01*
X76000000Y-111131372D02*
X58900000Y-94031372D01*
X77650000Y-117500000D02*
X77500000Y-117350000D01*
X58348529Y-87250000D02*
X58250000Y-87250000D01*
X77500000Y-117350000D02*
X77500000Y-115750000D01*
X77500000Y-115750000D02*
X76000000Y-114250000D01*
%TO.N,/SW_01*%
X75600000Y-111297058D02*
X75600000Y-114415685D01*
X58500000Y-88300003D02*
X58500000Y-94197058D01*
X77000000Y-115815686D02*
X77000000Y-118500000D01*
X75600000Y-114415685D02*
X77000000Y-115815686D01*
X58500000Y-94197058D02*
X75600000Y-111297058D01*
X58250000Y-88050003D02*
X58500000Y-88300003D01*
%TO.N,/SW_10*%
X76400000Y-110965686D02*
X61350000Y-95915686D01*
X76400000Y-114084314D02*
X76400000Y-110965686D01*
X59300000Y-91451471D02*
X59300000Y-88950000D01*
X78250000Y-118750000D02*
X78250000Y-115934314D01*
X61350000Y-95915686D02*
X61350000Y-93501471D01*
X78250000Y-115934314D02*
X76400000Y-114084314D01*
X61350000Y-93501471D02*
X59300000Y-91451471D01*
X61000000Y-87250000D02*
X65250000Y-87250000D01*
X59300000Y-88950000D02*
X61000000Y-87250000D01*
%TO.N,/SW_11*%
X76800000Y-110800000D02*
X76800000Y-113918628D01*
X65750000Y-99250000D02*
X65750000Y-99750000D01*
X76800000Y-113918628D02*
X79000000Y-116118628D01*
X79000000Y-116118628D02*
X79000000Y-119758831D01*
X65750000Y-99750000D02*
X76800000Y-110800000D01*
X79000000Y-119758831D02*
X78744954Y-120013877D01*
%TO.N,/SW_20*%
X95000000Y-110750000D02*
X107985050Y-97764950D01*
X93750000Y-123000000D02*
X93650000Y-122900000D01*
X112000000Y-94500000D02*
X112350000Y-94150000D01*
X112350000Y-94150000D02*
X112350000Y-88900000D01*
X107985050Y-97100736D02*
X110585786Y-94500000D01*
X95000000Y-118618630D02*
X95000000Y-110750000D01*
X93650000Y-122900000D02*
X93650000Y-121350000D01*
X93650000Y-121350000D02*
X94800000Y-120200000D01*
X110585786Y-94500000D02*
X112000000Y-94500000D01*
X112350000Y-88900000D02*
X114000000Y-87250000D01*
X94800000Y-118818630D02*
X95000000Y-118618630D01*
X107985050Y-97764950D02*
X107985050Y-97100736D01*
X94800000Y-120200000D02*
X94800000Y-118818630D01*
%TO.N,/SW_21*%
X95800000Y-118950000D02*
X95600000Y-119150000D01*
X109000000Y-97881372D02*
X95800000Y-111081372D01*
X95600000Y-119150000D02*
X95600000Y-121248529D01*
X95600000Y-121248529D02*
X95750000Y-121398529D01*
X109000000Y-97500000D02*
X109000000Y-97881372D01*
X95800000Y-111081372D02*
X95800000Y-118950000D01*
X95750000Y-121398529D02*
X95750000Y-122000000D01*
%TO.N,/SW_30*%
X120750000Y-88250000D02*
X120750000Y-92750000D01*
X95200000Y-120800000D02*
X94250000Y-121750000D01*
X115500000Y-95000000D02*
X110651471Y-95000000D01*
X95400000Y-110915686D02*
X95400000Y-118784315D01*
X110651471Y-95000000D02*
X108385050Y-97266421D01*
X108385050Y-97930636D02*
X95400000Y-110915686D01*
X119150000Y-94350000D02*
X116150000Y-94350000D01*
X108385050Y-97266421D02*
X108385050Y-97930636D01*
X116150000Y-94350000D02*
X115500000Y-95000000D01*
X120500000Y-88000000D02*
X120750000Y-88250000D01*
X95400000Y-118784315D02*
X95200000Y-118984315D01*
X120750000Y-92750000D02*
X119150000Y-94350000D01*
X95200000Y-118984315D02*
X95200000Y-120800000D01*
%TO.N,/SW_31*%
X111750000Y-95750000D02*
X96200000Y-111300000D01*
X113750000Y-95750000D02*
X111750000Y-95750000D01*
X96200000Y-111300000D02*
X96200000Y-121000000D01*
%TO.N,/FPGA0*%
X89500000Y-80750000D02*
X89500000Y-77000000D01*
X89500000Y-77000000D02*
X91900000Y-74600000D01*
X91900000Y-74600000D02*
X93510000Y-74600000D01*
X88620000Y-81630000D02*
X89500000Y-80750000D01*
X87250000Y-81630000D02*
X88620000Y-81630000D01*
%TO.N,/FPGA1*%
X90000000Y-78000000D02*
X90860000Y-77140000D01*
X90000000Y-81420000D02*
X90000000Y-78000000D01*
X90860000Y-77140000D02*
X93510000Y-77140000D01*
X87250000Y-84170000D02*
X90000000Y-81420000D01*
%TO.N,/FPGA3*%
X93510000Y-105080000D02*
X91850000Y-103420000D01*
X91850000Y-103420000D02*
X91850000Y-91665686D01*
X91850000Y-91665686D02*
X89434314Y-89250000D01*
X89434314Y-89250000D02*
X87250000Y-89250000D01*
%TO.N,/FPGA2*%
X92250000Y-101280000D02*
X92250000Y-91500000D01*
X87460000Y-86710000D02*
X87250000Y-86710000D01*
X92250000Y-91500000D02*
X87460000Y-86710000D01*
X93510000Y-102540000D02*
X92250000Y-101280000D01*
%TO.N,/SDA*%
X78270000Y-105080000D02*
X89315000Y-116125000D01*
X89315000Y-116125000D02*
X89875000Y-116125000D01*
%TO.N,/SCL*%
X89280686Y-115525000D02*
X90123529Y-115525000D01*
X79500000Y-105744314D02*
X89280686Y-115525000D01*
X78270000Y-102540000D02*
X79500000Y-103770000D01*
X79500000Y-103770000D02*
X79500000Y-105744314D01*
X90750000Y-117500000D02*
X90000000Y-118250000D01*
X90750000Y-116151471D02*
X90750000Y-117500000D01*
X90123529Y-115525000D02*
X90750000Y-116151471D01*
%TO.N,/INA_01*%
X67100000Y-85000000D02*
X68000001Y-85000000D01*
X76960000Y-83450000D02*
X78270000Y-84760000D01*
X68000001Y-85000000D02*
X69550001Y-83450000D01*
X69550001Y-83450000D02*
X76960000Y-83450000D01*
%TO.N,/INA_00*%
X75180000Y-86750000D02*
X78270000Y-89840000D01*
X66828823Y-87545074D02*
X67623897Y-86750000D01*
X66600000Y-87545074D02*
X66828823Y-87545074D01*
X67623897Y-86750000D02*
X75180000Y-86750000D01*
%TO.N,/INB_00*%
X67315686Y-86250000D02*
X69715686Y-83850000D01*
X67250000Y-86250000D02*
X67315686Y-86250000D01*
X74820000Y-83850000D02*
X78270000Y-87300000D01*
X69715686Y-83850000D02*
X74820000Y-83850000D01*
%TO.N,/INB_01*%
X65548526Y-85800003D02*
X66100000Y-85248529D01*
X65500000Y-85800003D02*
X65548526Y-85800003D01*
X66100000Y-85248529D02*
X66100000Y-85150000D01*
X66100000Y-85150000D02*
X69030000Y-82220000D01*
X69030000Y-82220000D02*
X78270000Y-82220000D01*
%TO.N,/INA_21*%
X103500598Y-81250000D02*
X101315686Y-81250000D01*
X104264656Y-82014058D02*
X103500598Y-81250000D01*
X97805686Y-84760000D02*
X93510000Y-84760000D01*
X101315686Y-81250000D02*
X97805686Y-84760000D01*
%TO.N,/INB_20*%
X103500000Y-82249231D02*
X101750769Y-82249231D01*
X101750769Y-82249231D02*
X96700000Y-87300000D01*
X96700000Y-87300000D02*
X93510000Y-87300000D01*
%TO.N,/INA_20*%
X94725686Y-89840000D02*
X93510000Y-89840000D01*
X100259481Y-84306205D02*
X94725686Y-89840000D01*
X102266686Y-84306205D02*
X100259481Y-84306205D01*
%TO.N,/INB_21*%
X99780000Y-82220000D02*
X93510000Y-82220000D01*
X104864656Y-82262587D02*
X104864656Y-81364656D01*
X104595804Y-82531439D02*
X104864656Y-82262587D01*
X104595804Y-82835664D02*
X104595804Y-82531439D01*
X104864656Y-81364656D02*
X104000000Y-80500000D01*
X104000000Y-80500000D02*
X101500000Y-80500000D01*
X101500000Y-80500000D02*
X99780000Y-82220000D01*
%TO.N,/INB_11*%
X67500000Y-94500000D02*
X73750000Y-94500000D01*
X73750000Y-94500000D02*
X75870000Y-92380000D01*
X75870000Y-92380000D02*
X78270000Y-92380000D01*
X67325735Y-94325735D02*
X67500000Y-94500000D01*
%TO.N,/INA_11*%
X67367170Y-95485785D02*
X67950636Y-95485785D01*
X66681709Y-94800324D02*
X67367170Y-95485785D01*
X67950636Y-95485785D02*
X68536422Y-94900000D01*
X78250000Y-94900000D02*
X78270000Y-94920000D01*
X68536422Y-94900000D02*
X78250000Y-94900000D01*
%TO.N,/INB_10*%
X66000000Y-95377423D02*
X66508362Y-95885785D01*
X68116322Y-95885785D02*
X68702107Y-95300000D01*
X68702107Y-95300000D02*
X76110000Y-95300000D01*
X66508362Y-95885785D02*
X68116322Y-95885785D01*
X76110000Y-95300000D02*
X78270000Y-97460000D01*
%TO.N,/INA_10*%
X68950636Y-95900000D02*
X69150636Y-95700000D01*
X78270000Y-99520000D02*
X78270000Y-100000000D01*
X74450000Y-95700000D02*
X78270000Y-99520000D01*
X69150636Y-95700000D02*
X74450000Y-95700000D01*
%TO.N,/INA_30*%
X95550000Y-97960000D02*
X93510000Y-100000000D01*
X99550000Y-89300000D02*
X97647058Y-89300000D01*
X95550000Y-91397058D02*
X95550000Y-97960000D01*
X100500000Y-90250000D02*
X99550000Y-89300000D01*
X97647058Y-89300000D02*
X95550000Y-91397058D01*
%TO.N,/INB_31*%
X102621324Y-87250000D02*
X98000000Y-87250000D01*
X103310662Y-87939338D02*
X102621324Y-87250000D01*
X98000000Y-87250000D02*
X93510000Y-91740000D01*
X93510000Y-91740000D02*
X93510000Y-92380000D01*
%TO.N,/INB_30*%
X100287868Y-89386397D02*
X99801471Y-88900000D01*
X95150000Y-91231372D02*
X95150000Y-95820000D01*
X99801471Y-88900000D02*
X97481372Y-88900000D01*
X101363603Y-89386397D02*
X100287868Y-89386397D01*
X95150000Y-95820000D02*
X93510000Y-97460000D01*
X97481372Y-88900000D02*
X95150000Y-91231372D01*
%TO.N,/INA_31*%
X100250000Y-88500000D02*
X97315686Y-88500000D01*
X97315686Y-88500000D02*
X94750000Y-91065686D01*
X94750000Y-91065686D02*
X94750000Y-93680000D01*
X94750000Y-93680000D02*
X93510000Y-94920000D01*
%TO.N,/FPGA5*%
X91840000Y-110160000D02*
X93510000Y-110160000D01*
X91500000Y-110500000D02*
X91840000Y-110160000D01*
%TO.N,/FPGA4*%
X87250000Y-91790000D02*
X90490000Y-91790000D01*
X90490000Y-91790000D02*
X91450000Y-92750000D01*
X91450000Y-92750000D02*
X91450000Y-105560000D01*
X91450000Y-105560000D02*
X93510000Y-107620000D01*
%TD*%
%TA.AperFunction,Conductor*%
%TO.N,GND*%
G36*
X79672677Y-55200185D02*
G01*
X79693319Y-55216819D01*
X80563181Y-56086681D01*
X80596666Y-56148004D01*
X80599500Y-56174362D01*
X80599500Y-91248696D01*
X80634103Y-91422658D01*
X80634105Y-91422666D01*
X80665378Y-91498165D01*
X80701985Y-91586544D01*
X80748940Y-91656817D01*
X80748942Y-91656819D01*
X80800534Y-91734034D01*
X80800538Y-91734039D01*
X81563181Y-92496680D01*
X81596666Y-92558003D01*
X81599500Y-92584361D01*
X81599500Y-100588696D01*
X81634103Y-100762658D01*
X81634105Y-100762666D01*
X81665815Y-100839220D01*
X81701984Y-100926542D01*
X81701985Y-100926543D01*
X81701987Y-100926547D01*
X81731574Y-100970826D01*
X81754841Y-101005647D01*
X81754841Y-101005648D01*
X81800537Y-101074038D01*
X81800540Y-101074041D01*
X82768294Y-102041794D01*
X82801779Y-102103117D01*
X82804613Y-102129475D01*
X82804613Y-102867209D01*
X82784928Y-102934248D01*
X82732124Y-102980003D01*
X82723946Y-102983391D01*
X82662784Y-103006202D01*
X82662777Y-103006206D01*
X82547568Y-103092452D01*
X82547565Y-103092455D01*
X82461319Y-103207664D01*
X82461315Y-103207671D01*
X82411021Y-103342517D01*
X82404703Y-103401290D01*
X82404614Y-103402123D01*
X82404613Y-103402135D01*
X82404613Y-105097870D01*
X82404614Y-105097876D01*
X82411021Y-105157483D01*
X82461315Y-105292328D01*
X82461319Y-105292335D01*
X82547565Y-105407544D01*
X82547568Y-105407547D01*
X82662777Y-105493793D01*
X82662784Y-105493797D01*
X82797630Y-105544091D01*
X82797629Y-105544091D01*
X82804557Y-105544835D01*
X82857240Y-105550500D01*
X84552985Y-105550499D01*
X84612596Y-105544091D01*
X84747444Y-105493796D01*
X84862659Y-105407546D01*
X84948909Y-105292331D01*
X84999204Y-105157483D01*
X85005613Y-105097873D01*
X85005613Y-105097870D01*
X86949500Y-105097870D01*
X86949501Y-105097876D01*
X86955908Y-105157483D01*
X87006202Y-105292328D01*
X87006206Y-105292335D01*
X87092452Y-105407544D01*
X87092455Y-105407547D01*
X87207664Y-105493793D01*
X87207671Y-105493797D01*
X87342517Y-105544091D01*
X87342516Y-105544091D01*
X87349444Y-105544835D01*
X87402127Y-105550500D01*
X89097872Y-105550499D01*
X89157483Y-105544091D01*
X89292331Y-105493796D01*
X89407546Y-105407546D01*
X89493796Y-105292331D01*
X89544091Y-105157483D01*
X89550500Y-105097873D01*
X89550499Y-103402128D01*
X89544091Y-103342517D01*
X89499418Y-103222743D01*
X89493797Y-103207671D01*
X89493793Y-103207664D01*
X89407547Y-103092455D01*
X89407544Y-103092452D01*
X89292335Y-103006206D01*
X89292328Y-103006202D01*
X89157482Y-102955908D01*
X89157483Y-102955908D01*
X89097883Y-102949501D01*
X89097881Y-102949500D01*
X89097873Y-102949500D01*
X89097864Y-102949500D01*
X87402129Y-102949500D01*
X87402123Y-102949501D01*
X87342516Y-102955908D01*
X87207671Y-103006202D01*
X87207664Y-103006206D01*
X87092455Y-103092452D01*
X87092452Y-103092455D01*
X87006206Y-103207664D01*
X87006202Y-103207671D01*
X86955908Y-103342517D01*
X86949590Y-103401290D01*
X86949501Y-103402123D01*
X86949500Y-103402135D01*
X86949500Y-105097870D01*
X85005613Y-105097870D01*
X85005612Y-103402128D01*
X84999204Y-103342517D01*
X84954531Y-103222743D01*
X84948910Y-103207671D01*
X84948906Y-103207664D01*
X84862660Y-103092455D01*
X84862657Y-103092452D01*
X84747448Y-103006206D01*
X84747441Y-103006202D01*
X84686280Y-102983391D01*
X84630346Y-102941520D01*
X84605929Y-102876056D01*
X84605613Y-102867209D01*
X84605613Y-101616421D01*
X84605612Y-101616420D01*
X84596215Y-101569174D01*
X84571008Y-101442447D01*
X84532344Y-101349106D01*
X84503126Y-101278566D01*
X84437124Y-101179788D01*
X84404577Y-101131077D01*
X84404575Y-101131075D01*
X84404573Y-101131072D01*
X84178877Y-100905376D01*
X84145392Y-100844053D01*
X84150376Y-100774361D01*
X84192248Y-100718428D01*
X84257712Y-100694011D01*
X84298649Y-100697919D01*
X84474592Y-100745063D01*
X84651034Y-100760500D01*
X84709999Y-100765659D01*
X84710000Y-100765659D01*
X84710001Y-100765659D01*
X84768966Y-100760500D01*
X84945408Y-100745063D01*
X85173663Y-100683903D01*
X85387830Y-100584035D01*
X85581401Y-100448495D01*
X85703329Y-100326566D01*
X85764648Y-100293084D01*
X85834340Y-100298068D01*
X85890274Y-100339939D01*
X85907189Y-100370917D01*
X85956202Y-100502328D01*
X85956206Y-100502335D01*
X86042452Y-100617544D01*
X86042455Y-100617547D01*
X86157664Y-100703793D01*
X86157671Y-100703797D01*
X86292517Y-100754091D01*
X86292516Y-100754091D01*
X86299444Y-100754835D01*
X86352127Y-100760500D01*
X88147872Y-100760499D01*
X88207483Y-100754091D01*
X88342331Y-100703796D01*
X88457546Y-100617546D01*
X88543796Y-100502331D01*
X88594091Y-100367483D01*
X88600500Y-100307873D01*
X88600499Y-98512128D01*
X88594091Y-98452517D01*
X88592810Y-98449083D01*
X88543797Y-98317671D01*
X88543793Y-98317664D01*
X88457547Y-98202455D01*
X88457544Y-98202452D01*
X88342335Y-98116206D01*
X88342328Y-98116202D01*
X88210917Y-98067189D01*
X88154983Y-98025318D01*
X88130566Y-97959853D01*
X88145418Y-97891580D01*
X88166563Y-97863332D01*
X88288495Y-97741401D01*
X88424035Y-97547830D01*
X88523903Y-97333663D01*
X88585063Y-97105408D01*
X88605659Y-96870000D01*
X88585063Y-96634592D01*
X88523903Y-96406337D01*
X88424035Y-96192171D01*
X88420641Y-96187323D01*
X88288494Y-95998597D01*
X88121402Y-95831506D01*
X88121396Y-95831501D01*
X87935842Y-95701575D01*
X87892217Y-95646998D01*
X87885023Y-95577500D01*
X87916546Y-95515145D01*
X87935842Y-95498425D01*
X88001769Y-95452262D01*
X88121401Y-95368495D01*
X88288495Y-95201401D01*
X88424035Y-95007830D01*
X88523903Y-94793663D01*
X88585063Y-94565408D01*
X88605659Y-94330000D01*
X88605397Y-94327011D01*
X88587111Y-94118001D01*
X88585063Y-94094592D01*
X88527514Y-93879815D01*
X88523905Y-93866344D01*
X88523904Y-93866343D01*
X88523903Y-93866337D01*
X88424035Y-93652171D01*
X88420641Y-93647323D01*
X88288494Y-93458597D01*
X88121402Y-93291506D01*
X88121396Y-93291501D01*
X87935842Y-93161575D01*
X87892217Y-93106998D01*
X87885023Y-93037500D01*
X87916546Y-92975145D01*
X87935842Y-92958425D01*
X87977502Y-92929254D01*
X88121401Y-92828495D01*
X88288495Y-92661401D01*
X88424035Y-92467830D01*
X88426707Y-92462097D01*
X88472878Y-92409658D01*
X88539091Y-92390500D01*
X90189903Y-92390500D01*
X90256942Y-92410185D01*
X90277584Y-92426819D01*
X90813181Y-92962416D01*
X90846666Y-93023739D01*
X90849500Y-93050097D01*
X90849500Y-105473330D01*
X90849499Y-105473348D01*
X90849499Y-105639054D01*
X90849498Y-105639054D01*
X90890423Y-105791785D01*
X90919358Y-105841900D01*
X90919359Y-105841904D01*
X90919360Y-105841904D01*
X90969479Y-105928714D01*
X90969481Y-105928717D01*
X91088349Y-106047585D01*
X91088355Y-106047590D01*
X92249084Y-107208319D01*
X92282569Y-107269642D01*
X92281178Y-107328092D01*
X92261932Y-107399923D01*
X92261929Y-107399937D01*
X92242677Y-107619997D01*
X92242677Y-107620002D01*
X92261929Y-107840062D01*
X92261930Y-107840070D01*
X92319104Y-108053445D01*
X92319105Y-108053447D01*
X92319106Y-108053450D01*
X92412466Y-108253662D01*
X92412468Y-108253666D01*
X92539170Y-108434615D01*
X92539175Y-108434621D01*
X92695378Y-108590824D01*
X92695384Y-108590829D01*
X92876333Y-108717531D01*
X92876335Y-108717532D01*
X92876338Y-108717534D01*
X92995748Y-108773215D01*
X93005189Y-108777618D01*
X93057628Y-108823790D01*
X93076780Y-108890984D01*
X93056564Y-108957865D01*
X93005189Y-109002382D01*
X92876340Y-109062465D01*
X92876338Y-109062466D01*
X92695377Y-109189175D01*
X92539175Y-109345377D01*
X92426271Y-109506623D01*
X92371694Y-109550248D01*
X92324696Y-109559500D01*
X91926670Y-109559500D01*
X91926654Y-109559499D01*
X91919058Y-109559499D01*
X91760943Y-109559499D01*
X91684579Y-109579961D01*
X91608214Y-109600423D01*
X91608209Y-109600426D01*
X91471285Y-109679478D01*
X91470840Y-109679820D01*
X91470354Y-109680015D01*
X91464245Y-109683543D01*
X91463746Y-109682680D01*
X91409243Y-109704660D01*
X91320750Y-109714630D01*
X91150478Y-109774210D01*
X90997737Y-109870184D01*
X90870184Y-109997737D01*
X90774211Y-110150476D01*
X90714631Y-110320745D01*
X90714630Y-110320750D01*
X90694435Y-110499996D01*
X90694435Y-110500003D01*
X90714630Y-110679249D01*
X90714631Y-110679254D01*
X90774211Y-110849523D01*
X90852812Y-110974615D01*
X90870184Y-111002262D01*
X90997738Y-111129816D01*
X91150478Y-111225789D01*
X91241200Y-111257534D01*
X91320745Y-111285368D01*
X91320750Y-111285369D01*
X91499996Y-111305565D01*
X91500000Y-111305565D01*
X91500004Y-111305565D01*
X91679249Y-111285369D01*
X91679252Y-111285368D01*
X91679255Y-111285368D01*
X91849522Y-111225789D01*
X92002262Y-111129816D01*
X92129816Y-111002262D01*
X92225789Y-110849522D01*
X92225793Y-110849510D01*
X92225930Y-110849228D01*
X92226074Y-110849067D01*
X92229494Y-110843626D01*
X92230446Y-110844224D01*
X92272745Y-110797361D01*
X92340170Y-110779038D01*
X92406797Y-110800077D01*
X92439233Y-110831890D01*
X92451580Y-110849523D01*
X92539170Y-110974615D01*
X92539175Y-110974621D01*
X92695378Y-111130824D01*
X92695384Y-111130829D01*
X92876333Y-111257531D01*
X92876335Y-111257532D01*
X92876338Y-111257534D01*
X92936031Y-111285369D01*
X93005189Y-111317618D01*
X93057628Y-111363790D01*
X93076780Y-111430984D01*
X93056564Y-111497865D01*
X93005189Y-111542382D01*
X92876340Y-111602465D01*
X92876338Y-111602466D01*
X92695377Y-111729175D01*
X92539175Y-111885377D01*
X92412466Y-112066338D01*
X92412465Y-112066340D01*
X92319107Y-112266548D01*
X92319104Y-112266554D01*
X92261930Y-112479929D01*
X92261929Y-112479937D01*
X92242677Y-112699997D01*
X92242677Y-112700002D01*
X92261929Y-112920062D01*
X92261930Y-112920070D01*
X92319104Y-113133445D01*
X92319105Y-113133447D01*
X92319106Y-113133450D01*
X92412466Y-113333662D01*
X92412468Y-113333666D01*
X92539170Y-113514615D01*
X92539175Y-113514621D01*
X92695378Y-113670824D01*
X92695384Y-113670829D01*
X92876333Y-113797531D01*
X92876335Y-113797532D01*
X92876338Y-113797534D01*
X93076550Y-113890894D01*
X93289932Y-113948070D01*
X93447123Y-113961822D01*
X93509998Y-113967323D01*
X93510000Y-113967323D01*
X93510002Y-113967323D01*
X93565017Y-113962509D01*
X93730068Y-113948070D01*
X93943450Y-113890894D01*
X94143662Y-113797534D01*
X94204377Y-113755020D01*
X94270582Y-113732694D01*
X94338350Y-113749704D01*
X94386163Y-113800652D01*
X94399500Y-113856596D01*
X94399500Y-118318532D01*
X94379815Y-118385571D01*
X94363181Y-118406213D01*
X94319481Y-118449912D01*
X94319480Y-118449914D01*
X94288372Y-118503795D01*
X94240423Y-118586845D01*
X94199499Y-118739573D01*
X94199499Y-118739575D01*
X94199499Y-118907676D01*
X94199500Y-118907689D01*
X94199500Y-119899902D01*
X94179815Y-119966941D01*
X94163181Y-119987583D01*
X93169481Y-120981282D01*
X93169480Y-120981284D01*
X93141462Y-121029813D01*
X93090423Y-121118215D01*
X93049499Y-121270943D01*
X93049499Y-121270945D01*
X93049499Y-121439046D01*
X93049500Y-121439059D01*
X93049500Y-122574507D01*
X93030494Y-122640478D01*
X93024209Y-122650479D01*
X92964633Y-122820737D01*
X92964630Y-122820750D01*
X92944435Y-122999996D01*
X92944435Y-123000003D01*
X92964630Y-123179249D01*
X92964632Y-123179257D01*
X93018970Y-123334546D01*
X93022531Y-123404324D01*
X92987802Y-123464952D01*
X92925809Y-123497179D01*
X92901928Y-123499500D01*
X77004428Y-123499500D01*
X76995582Y-123499184D01*
X76967549Y-123497179D01*
X76795442Y-123484869D01*
X76777931Y-123482351D01*
X76586212Y-123440646D01*
X76569236Y-123435662D01*
X76385390Y-123367090D01*
X76369298Y-123359740D01*
X76197095Y-123265711D01*
X76182210Y-123256146D01*
X76079496Y-123179255D01*
X76025132Y-123138558D01*
X76011762Y-123126972D01*
X75873027Y-122988237D01*
X75861441Y-122974867D01*
X75817381Y-122916010D01*
X75743849Y-122817784D01*
X75734288Y-122802904D01*
X75640259Y-122630701D01*
X75632909Y-122614609D01*
X75617952Y-122574507D01*
X75564334Y-122430755D01*
X75559355Y-122413797D01*
X75517647Y-122222063D01*
X75515130Y-122204556D01*
X75513320Y-122179255D01*
X75500816Y-122004418D01*
X75500500Y-121995572D01*
X75500500Y-115464782D01*
X75520185Y-115397743D01*
X75572989Y-115351988D01*
X75642147Y-115342044D01*
X75705703Y-115371069D01*
X75712181Y-115377101D01*
X76363181Y-116028101D01*
X76396666Y-116089424D01*
X76399500Y-116115782D01*
X76399500Y-117917587D01*
X76379815Y-117984626D01*
X76372450Y-117994896D01*
X76370186Y-117997734D01*
X76274211Y-118150476D01*
X76214631Y-118320745D01*
X76214630Y-118320750D01*
X76194435Y-118499996D01*
X76194435Y-118500003D01*
X76214630Y-118679249D01*
X76214631Y-118679254D01*
X76274211Y-118849523D01*
X76353549Y-118975788D01*
X76370184Y-119002262D01*
X76497738Y-119129816D01*
X76543110Y-119158325D01*
X76635449Y-119216346D01*
X76650478Y-119225789D01*
X76820745Y-119285368D01*
X76820750Y-119285369D01*
X76999996Y-119305565D01*
X77000000Y-119305565D01*
X77000004Y-119305565D01*
X77179249Y-119285369D01*
X77179252Y-119285368D01*
X77179255Y-119285368D01*
X77349522Y-119225789D01*
X77364551Y-119216346D01*
X77426650Y-119177326D01*
X77493887Y-119158325D01*
X77560722Y-119178692D01*
X77597616Y-119216346D01*
X77620182Y-119252260D01*
X77620184Y-119252262D01*
X77747738Y-119379816D01*
X77900478Y-119475789D01*
X77900480Y-119475790D01*
X77948792Y-119492696D01*
X78005568Y-119533417D01*
X78031315Y-119598370D01*
X78020649Y-119657498D01*
X78021464Y-119657783D01*
X78019677Y-119662889D01*
X78019562Y-119663528D01*
X78019165Y-119664351D01*
X77959587Y-119834614D01*
X77959584Y-119834627D01*
X77939389Y-120013873D01*
X77939389Y-120013880D01*
X77959584Y-120193126D01*
X77959585Y-120193131D01*
X78019165Y-120363400D01*
X78115138Y-120516139D01*
X78242692Y-120643693D01*
X78395432Y-120739666D01*
X78565699Y-120799245D01*
X78565704Y-120799246D01*
X78744950Y-120819442D01*
X78744954Y-120819442D01*
X78744958Y-120819442D01*
X78924203Y-120799246D01*
X78924206Y-120799245D01*
X78924209Y-120799245D01*
X79094476Y-120739666D01*
X79247216Y-120643693D01*
X79374770Y-120516139D01*
X79470743Y-120363399D01*
X79530322Y-120193132D01*
X79548775Y-120029357D01*
X79557436Y-119995781D01*
X79559571Y-119990625D01*
X79559577Y-119990615D01*
X79600501Y-119837888D01*
X79600501Y-119679773D01*
X79600501Y-119672178D01*
X79600500Y-119672160D01*
X79600500Y-116207687D01*
X79600501Y-116207674D01*
X79600501Y-116039573D01*
X79600501Y-116039571D01*
X79559577Y-115886843D01*
X79521260Y-115820477D01*
X79521260Y-115820475D01*
X79480524Y-115749918D01*
X79480521Y-115749914D01*
X79480520Y-115749912D01*
X79368716Y-115638108D01*
X79368715Y-115638107D01*
X79364385Y-115633777D01*
X79364374Y-115633767D01*
X77870018Y-114139411D01*
X77836533Y-114078088D01*
X77841517Y-114008396D01*
X77883389Y-113952463D01*
X77948853Y-113928046D01*
X77989789Y-113931954D01*
X78049932Y-113948070D01*
X78207123Y-113961822D01*
X78269998Y-113967323D01*
X78270000Y-113967323D01*
X78270002Y-113967323D01*
X78325017Y-113962509D01*
X78490068Y-113948070D01*
X78703450Y-113890894D01*
X78903662Y-113797534D01*
X79084620Y-113670826D01*
X79240826Y-113514620D01*
X79367534Y-113333662D01*
X79460894Y-113133450D01*
X79518070Y-112920068D01*
X79537323Y-112700000D01*
X79518070Y-112479932D01*
X79460894Y-112266550D01*
X79367534Y-112066339D01*
X79240826Y-111885380D01*
X79084620Y-111729174D01*
X79084616Y-111729171D01*
X79084615Y-111729170D01*
X78903666Y-111602468D01*
X78903658Y-111602464D01*
X78774811Y-111542382D01*
X78722371Y-111496210D01*
X78703219Y-111429017D01*
X78723435Y-111362135D01*
X78774811Y-111317618D01*
X78780802Y-111314824D01*
X78903662Y-111257534D01*
X79084620Y-111130826D01*
X79240826Y-110974620D01*
X79367534Y-110793662D01*
X79460894Y-110593450D01*
X79518070Y-110380068D01*
X79537323Y-110160000D01*
X79536795Y-110153969D01*
X79520844Y-109971638D01*
X79518070Y-109939932D01*
X79460894Y-109726550D01*
X79367534Y-109526339D01*
X79240826Y-109345380D01*
X79084620Y-109189174D01*
X79084616Y-109189171D01*
X79084615Y-109189170D01*
X78903666Y-109062468D01*
X78903658Y-109062464D01*
X78774811Y-109002382D01*
X78722371Y-108956210D01*
X78703219Y-108889017D01*
X78723435Y-108822135D01*
X78774811Y-108777618D01*
X78780802Y-108774824D01*
X78903662Y-108717534D01*
X79084620Y-108590826D01*
X79240826Y-108434620D01*
X79367534Y-108253662D01*
X79460894Y-108053450D01*
X79518070Y-107840068D01*
X79537323Y-107620000D01*
X79526417Y-107495347D01*
X79540183Y-107426850D01*
X79588798Y-107376667D01*
X79656827Y-107360733D01*
X79722671Y-107384108D01*
X79737625Y-107396860D01*
X88946284Y-116605520D01*
X89083215Y-116684577D01*
X89235943Y-116725501D01*
X89292589Y-116725501D01*
X89359628Y-116745186D01*
X89369903Y-116752555D01*
X89372737Y-116754815D01*
X89372738Y-116754816D01*
X89525478Y-116850789D01*
X89695745Y-116910368D01*
X89695750Y-116910369D01*
X89874996Y-116930565D01*
X89875000Y-116930565D01*
X89875003Y-116930565D01*
X89958232Y-116921187D01*
X90011616Y-116915172D01*
X90080438Y-116927226D01*
X90131818Y-116974575D01*
X90149500Y-117038392D01*
X90149500Y-117199902D01*
X90129815Y-117266941D01*
X90113181Y-117287584D01*
X89981465Y-117419299D01*
X89920142Y-117452783D01*
X89907668Y-117454837D01*
X89820750Y-117464630D01*
X89650478Y-117524210D01*
X89497737Y-117620184D01*
X89370184Y-117747737D01*
X89274211Y-117900476D01*
X89214631Y-118070745D01*
X89214630Y-118070750D01*
X89194435Y-118249996D01*
X89194435Y-118250003D01*
X89214630Y-118429249D01*
X89214631Y-118429254D01*
X89274211Y-118599523D01*
X89362211Y-118739573D01*
X89370184Y-118752262D01*
X89497738Y-118879816D01*
X89650478Y-118975789D01*
X89820745Y-119035368D01*
X89820750Y-119035369D01*
X89999996Y-119055565D01*
X90000000Y-119055565D01*
X90000004Y-119055565D01*
X90179249Y-119035369D01*
X90179252Y-119035368D01*
X90179255Y-119035368D01*
X90349522Y-118975789D01*
X90502262Y-118879816D01*
X90629816Y-118752262D01*
X90725789Y-118599522D01*
X90785368Y-118429255D01*
X90795161Y-118342329D01*
X90822226Y-118277918D01*
X90830690Y-118268543D01*
X91108506Y-117990728D01*
X91108511Y-117990724D01*
X91118714Y-117980520D01*
X91118716Y-117980520D01*
X91230520Y-117868716D01*
X91300366Y-117747738D01*
X91309577Y-117731785D01*
X91350500Y-117579057D01*
X91350500Y-117420943D01*
X91350500Y-116240531D01*
X91350501Y-116240518D01*
X91350501Y-116072416D01*
X91350501Y-116072414D01*
X91309577Y-115919686D01*
X91230520Y-115782755D01*
X90611118Y-115163354D01*
X90611117Y-115163352D01*
X90492246Y-115044481D01*
X90492238Y-115044475D01*
X90372356Y-114975262D01*
X90372353Y-114975261D01*
X90355314Y-114965423D01*
X90202586Y-114924499D01*
X90044472Y-114924499D01*
X90036876Y-114924499D01*
X90036860Y-114924500D01*
X89580784Y-114924500D01*
X89513745Y-114904815D01*
X89493103Y-114888181D01*
X80136819Y-105531897D01*
X80103334Y-105470574D01*
X80100500Y-105444216D01*
X80100500Y-103859060D01*
X80100501Y-103859047D01*
X80100501Y-103690944D01*
X80100501Y-103690943D01*
X80059577Y-103538216D01*
X80043764Y-103510826D01*
X79980524Y-103401290D01*
X79980518Y-103401282D01*
X79786900Y-103207664D01*
X79530913Y-102951678D01*
X79497429Y-102890356D01*
X79498821Y-102831902D01*
X79501956Y-102820205D01*
X79518070Y-102760068D01*
X79537323Y-102540000D01*
X79518070Y-102319932D01*
X79460894Y-102106550D01*
X79367534Y-101906339D01*
X79240826Y-101725380D01*
X79084620Y-101569174D01*
X79084616Y-101569171D01*
X79084615Y-101569170D01*
X78903666Y-101442468D01*
X78903658Y-101442464D01*
X78774811Y-101382382D01*
X78722371Y-101336210D01*
X78703219Y-101269017D01*
X78723435Y-101202135D01*
X78774811Y-101157618D01*
X78780802Y-101154824D01*
X78903662Y-101097534D01*
X79084620Y-100970826D01*
X79240826Y-100814620D01*
X79367534Y-100633662D01*
X79460894Y-100433450D01*
X79518070Y-100220068D01*
X79537323Y-100000000D01*
X79518070Y-99779932D01*
X79460894Y-99566550D01*
X79367534Y-99366339D01*
X79240826Y-99185380D01*
X79084620Y-99029174D01*
X79084616Y-99029171D01*
X79084615Y-99029170D01*
X78903666Y-98902468D01*
X78903658Y-98902464D01*
X78774811Y-98842382D01*
X78722371Y-98796210D01*
X78703219Y-98729017D01*
X78723435Y-98662135D01*
X78774811Y-98617618D01*
X78805130Y-98603480D01*
X78903662Y-98557534D01*
X79084620Y-98430826D01*
X79240826Y-98274620D01*
X79367534Y-98093662D01*
X79460894Y-97893450D01*
X79518070Y-97680068D01*
X79537323Y-97460000D01*
X79518070Y-97239932D01*
X79460894Y-97026550D01*
X79367534Y-96826339D01*
X79282968Y-96705565D01*
X79240827Y-96645381D01*
X79215660Y-96620214D01*
X79084620Y-96489174D01*
X79084616Y-96489171D01*
X79084615Y-96489170D01*
X78903666Y-96362468D01*
X78903658Y-96362464D01*
X78774811Y-96302382D01*
X78722371Y-96256210D01*
X78703219Y-96189017D01*
X78723435Y-96122135D01*
X78774811Y-96077618D01*
X78805130Y-96063480D01*
X78903662Y-96017534D01*
X79084620Y-95890826D01*
X79240826Y-95734620D01*
X79367534Y-95553662D01*
X79460894Y-95353450D01*
X79518070Y-95140068D01*
X79532755Y-94972217D01*
X79537323Y-94920002D01*
X79537323Y-94919997D01*
X79528640Y-94820750D01*
X79518070Y-94699932D01*
X79460894Y-94486550D01*
X79367534Y-94286339D01*
X79266649Y-94142259D01*
X79240827Y-94105381D01*
X79170814Y-94035368D01*
X79084620Y-93949174D01*
X79084616Y-93949171D01*
X79084615Y-93949170D01*
X78903666Y-93822468D01*
X78903658Y-93822464D01*
X78774811Y-93762382D01*
X78722371Y-93716210D01*
X78703219Y-93649017D01*
X78723435Y-93582135D01*
X78774811Y-93537618D01*
X78812228Y-93520170D01*
X78903662Y-93477534D01*
X79084620Y-93350826D01*
X79240826Y-93194620D01*
X79367534Y-93013662D01*
X79460894Y-92813450D01*
X79518070Y-92600068D01*
X79534728Y-92409658D01*
X79537323Y-92380002D01*
X79537323Y-92379997D01*
X79523720Y-92224518D01*
X79518070Y-92159932D01*
X79460894Y-91946550D01*
X79367534Y-91746339D01*
X79268577Y-91605013D01*
X79240827Y-91565381D01*
X79172843Y-91497397D01*
X79084620Y-91409174D01*
X79084616Y-91409171D01*
X79084615Y-91409170D01*
X78903666Y-91282468D01*
X78903658Y-91282464D01*
X78774811Y-91222382D01*
X78722371Y-91176210D01*
X78703219Y-91109017D01*
X78723435Y-91042135D01*
X78774811Y-90997618D01*
X78817270Y-90977819D01*
X78903662Y-90937534D01*
X79084620Y-90810826D01*
X79240826Y-90654620D01*
X79367534Y-90473662D01*
X79460894Y-90273450D01*
X79518070Y-90060068D01*
X79536250Y-89852262D01*
X79537323Y-89840002D01*
X79537323Y-89839997D01*
X79526270Y-89713663D01*
X79518070Y-89619932D01*
X79460894Y-89406550D01*
X79367534Y-89206339D01*
X79277690Y-89078028D01*
X79240827Y-89025381D01*
X79167890Y-88952444D01*
X79084620Y-88869174D01*
X79084616Y-88869171D01*
X79084615Y-88869170D01*
X78903666Y-88742468D01*
X78903658Y-88742464D01*
X78774811Y-88682382D01*
X78722371Y-88636210D01*
X78703219Y-88569017D01*
X78723435Y-88502135D01*
X78774811Y-88457618D01*
X78780802Y-88454824D01*
X78903662Y-88397534D01*
X79084620Y-88270826D01*
X79240826Y-88114620D01*
X79367534Y-87933662D01*
X79460894Y-87733450D01*
X79518070Y-87520068D01*
X79537323Y-87300000D01*
X79518070Y-87079932D01*
X79460894Y-86866550D01*
X79367534Y-86666339D01*
X79268016Y-86524211D01*
X79240827Y-86485381D01*
X79164557Y-86409111D01*
X79084620Y-86329174D01*
X79084616Y-86329171D01*
X79084615Y-86329170D01*
X78903666Y-86202468D01*
X78903658Y-86202464D01*
X78774811Y-86142382D01*
X78722371Y-86096210D01*
X78703219Y-86029017D01*
X78723435Y-85962135D01*
X78774811Y-85917618D01*
X78780802Y-85914824D01*
X78903662Y-85857534D01*
X79084620Y-85730826D01*
X79240826Y-85574620D01*
X79367534Y-85393662D01*
X79460894Y-85193450D01*
X79518070Y-84980068D01*
X79537323Y-84760000D01*
X79536448Y-84750003D01*
X79528201Y-84655728D01*
X79518070Y-84539932D01*
X79460894Y-84326550D01*
X79367534Y-84126339D01*
X79279068Y-83999996D01*
X79240827Y-83945381D01*
X79171915Y-83876469D01*
X79084620Y-83789174D01*
X79084616Y-83789171D01*
X79084615Y-83789170D01*
X78903666Y-83662468D01*
X78903658Y-83662464D01*
X78774811Y-83602382D01*
X78722371Y-83556210D01*
X78703219Y-83489017D01*
X78723435Y-83422135D01*
X78774811Y-83377618D01*
X78790753Y-83370184D01*
X78903662Y-83317534D01*
X79084620Y-83190826D01*
X79240826Y-83034620D01*
X79367534Y-82853662D01*
X79460894Y-82653450D01*
X79518070Y-82440068D01*
X79537323Y-82220000D01*
X79536853Y-82214632D01*
X79526270Y-82093663D01*
X79518070Y-81999932D01*
X79460894Y-81786550D01*
X79367534Y-81586339D01*
X79288856Y-81473974D01*
X79240827Y-81405381D01*
X79176389Y-81340943D01*
X79084620Y-81249174D01*
X79084616Y-81249171D01*
X79084615Y-81249170D01*
X78903666Y-81122468D01*
X78903658Y-81122464D01*
X78774811Y-81062382D01*
X78722371Y-81016210D01*
X78703219Y-80949017D01*
X78723435Y-80882135D01*
X78774811Y-80837618D01*
X78780802Y-80834824D01*
X78903662Y-80777534D01*
X79084620Y-80650826D01*
X79240826Y-80494620D01*
X79367534Y-80313662D01*
X79460894Y-80113450D01*
X79518070Y-79900068D01*
X79537323Y-79680000D01*
X79532932Y-79629815D01*
X79521762Y-79502131D01*
X79518070Y-79459932D01*
X79460894Y-79246550D01*
X79367534Y-79046339D01*
X79240826Y-78865380D01*
X79084620Y-78709174D01*
X79084616Y-78709171D01*
X79084615Y-78709170D01*
X78903666Y-78582468D01*
X78903658Y-78582464D01*
X78774811Y-78522382D01*
X78722371Y-78476210D01*
X78703219Y-78409017D01*
X78723435Y-78342135D01*
X78774811Y-78297618D01*
X78780802Y-78294824D01*
X78903662Y-78237534D01*
X79084620Y-78110826D01*
X79240826Y-77954620D01*
X79367534Y-77773662D01*
X79460894Y-77573450D01*
X79518070Y-77360068D01*
X79537323Y-77140000D01*
X79531552Y-77074041D01*
X79527529Y-77028050D01*
X79518070Y-76919932D01*
X79460894Y-76706550D01*
X79367534Y-76506339D01*
X79240826Y-76325380D01*
X79084620Y-76169174D01*
X79084616Y-76169171D01*
X79084615Y-76169170D01*
X78903666Y-76042468D01*
X78903658Y-76042464D01*
X78774811Y-75982382D01*
X78722371Y-75936210D01*
X78703219Y-75869017D01*
X78723435Y-75802135D01*
X78774811Y-75757618D01*
X78780802Y-75754824D01*
X78903662Y-75697534D01*
X79084620Y-75570826D01*
X79240826Y-75414620D01*
X79367534Y-75233662D01*
X79460894Y-75033450D01*
X79518070Y-74820068D01*
X79537323Y-74600000D01*
X79534716Y-74570205D01*
X79518070Y-74379937D01*
X79518070Y-74379932D01*
X79460894Y-74166550D01*
X79367534Y-73966339D01*
X79300979Y-73871288D01*
X79240827Y-73785381D01*
X79240383Y-73784937D01*
X79084620Y-73629174D01*
X79084616Y-73629171D01*
X79084615Y-73629170D01*
X78903666Y-73502468D01*
X78903658Y-73502464D01*
X78774811Y-73442382D01*
X78722371Y-73396210D01*
X78703219Y-73329017D01*
X78723435Y-73262135D01*
X78774811Y-73217618D01*
X78780802Y-73214824D01*
X78903662Y-73157534D01*
X79084620Y-73030826D01*
X79240826Y-72874620D01*
X79367534Y-72693662D01*
X79460894Y-72493450D01*
X79518070Y-72280068D01*
X79534980Y-72086777D01*
X79537323Y-72060002D01*
X79537323Y-72059997D01*
X79518070Y-71839937D01*
X79518070Y-71839932D01*
X79460894Y-71626550D01*
X79367534Y-71426339D01*
X79240826Y-71245380D01*
X79084620Y-71089174D01*
X79084616Y-71089171D01*
X79084615Y-71089170D01*
X78903666Y-70962468D01*
X78903658Y-70962464D01*
X78774811Y-70902382D01*
X78722371Y-70856210D01*
X78703219Y-70789017D01*
X78723435Y-70722135D01*
X78774811Y-70677618D01*
X78780802Y-70674824D01*
X78903662Y-70617534D01*
X79084620Y-70490826D01*
X79240826Y-70334620D01*
X79367534Y-70153662D01*
X79460894Y-69953450D01*
X79518070Y-69740068D01*
X79537323Y-69520000D01*
X79518070Y-69299932D01*
X79460894Y-69086550D01*
X79367534Y-68886339D01*
X79240826Y-68705380D01*
X79084620Y-68549174D01*
X79084616Y-68549171D01*
X79084615Y-68549170D01*
X78903666Y-68422468D01*
X78903658Y-68422464D01*
X78774811Y-68362382D01*
X78722371Y-68316210D01*
X78703219Y-68249017D01*
X78723435Y-68182135D01*
X78774811Y-68137618D01*
X78780802Y-68134824D01*
X78903662Y-68077534D01*
X79084620Y-67950826D01*
X79240826Y-67794620D01*
X79367534Y-67613662D01*
X79460894Y-67413450D01*
X79518070Y-67200068D01*
X79537323Y-66980000D01*
X79518070Y-66759932D01*
X79460894Y-66546550D01*
X79367534Y-66346339D01*
X79240826Y-66165380D01*
X79084620Y-66009174D01*
X79084616Y-66009171D01*
X79084615Y-66009170D01*
X78903666Y-65882468D01*
X78903658Y-65882464D01*
X78774811Y-65822382D01*
X78722371Y-65776210D01*
X78703219Y-65709017D01*
X78723435Y-65642135D01*
X78774811Y-65597618D01*
X78780802Y-65594824D01*
X78903662Y-65537534D01*
X79084620Y-65410826D01*
X79240826Y-65254620D01*
X79367534Y-65073662D01*
X79460894Y-64873450D01*
X79518070Y-64660068D01*
X79537323Y-64440000D01*
X79533867Y-64400501D01*
X79518070Y-64219937D01*
X79518070Y-64219932D01*
X79460894Y-64006550D01*
X79367534Y-63806339D01*
X79240826Y-63625380D01*
X79084620Y-63469174D01*
X79084616Y-63469171D01*
X79084615Y-63469170D01*
X78903666Y-63342468D01*
X78903658Y-63342464D01*
X78774811Y-63282382D01*
X78722371Y-63236210D01*
X78703219Y-63169017D01*
X78723435Y-63102135D01*
X78774811Y-63057618D01*
X78780802Y-63054824D01*
X78903662Y-62997534D01*
X79084620Y-62870826D01*
X79240826Y-62714620D01*
X79367534Y-62533662D01*
X79460894Y-62333450D01*
X79518070Y-62120068D01*
X79537323Y-61900000D01*
X79518070Y-61679932D01*
X79460894Y-61466550D01*
X79367534Y-61266339D01*
X79240826Y-61085380D01*
X79084620Y-60929174D01*
X79084616Y-60929171D01*
X79084615Y-60929170D01*
X78903666Y-60802468D01*
X78903658Y-60802464D01*
X78774811Y-60742382D01*
X78722371Y-60696210D01*
X78703219Y-60629017D01*
X78723435Y-60562135D01*
X78774811Y-60517618D01*
X78780802Y-60514824D01*
X78903662Y-60457534D01*
X79084620Y-60330826D01*
X79240826Y-60174620D01*
X79367534Y-59993662D01*
X79460894Y-59793450D01*
X79518070Y-59580068D01*
X79537323Y-59360000D01*
X79518070Y-59139932D01*
X79460894Y-58926550D01*
X79367534Y-58726339D01*
X79240826Y-58545380D01*
X79084620Y-58389174D01*
X79084616Y-58389171D01*
X79084615Y-58389170D01*
X78903666Y-58262468D01*
X78903658Y-58262464D01*
X78774811Y-58202382D01*
X78722371Y-58156210D01*
X78703219Y-58089017D01*
X78723435Y-58022135D01*
X78774811Y-57977618D01*
X78780802Y-57974824D01*
X78903662Y-57917534D01*
X79084620Y-57790826D01*
X79240826Y-57634620D01*
X79367534Y-57453662D01*
X79460894Y-57253450D01*
X79518070Y-57040068D01*
X79537323Y-56820000D01*
X79518070Y-56599932D01*
X79460894Y-56386550D01*
X79367534Y-56186339D01*
X79240826Y-56005380D01*
X79084620Y-55849174D01*
X79084616Y-55849171D01*
X79084615Y-55849170D01*
X78903666Y-55722468D01*
X78903658Y-55722464D01*
X78774811Y-55662382D01*
X78722371Y-55616210D01*
X78703219Y-55549017D01*
X78723435Y-55482135D01*
X78774811Y-55437618D01*
X78903662Y-55377534D01*
X78903666Y-55377531D01*
X78980889Y-55323459D01*
X79084620Y-55250826D01*
X79118627Y-55216819D01*
X79179950Y-55183334D01*
X79206308Y-55180500D01*
X79605638Y-55180500D01*
X79672677Y-55200185D01*
G37*
%TD.AperFunction*%
%TA.AperFunction,Conductor*%
G36*
X74946942Y-87370185D02*
G01*
X74967584Y-87386819D01*
X77009084Y-89428319D01*
X77042569Y-89489642D01*
X77041178Y-89548092D01*
X77021932Y-89619923D01*
X77021929Y-89619937D01*
X77002677Y-89839997D01*
X77002677Y-89840002D01*
X77021929Y-90060062D01*
X77021930Y-90060070D01*
X77079104Y-90273445D01*
X77079105Y-90273447D01*
X77079106Y-90273450D01*
X77151758Y-90429254D01*
X77172466Y-90473662D01*
X77172468Y-90473666D01*
X77299170Y-90654615D01*
X77299175Y-90654621D01*
X77455378Y-90810824D01*
X77455384Y-90810829D01*
X77636333Y-90937531D01*
X77636335Y-90937532D01*
X77636338Y-90937534D01*
X77722730Y-90977819D01*
X77765189Y-90997618D01*
X77817628Y-91043790D01*
X77836780Y-91110984D01*
X77816564Y-91177865D01*
X77765189Y-91222382D01*
X77636340Y-91282465D01*
X77636338Y-91282466D01*
X77455377Y-91409175D01*
X77299175Y-91565377D01*
X77186271Y-91726623D01*
X77131694Y-91770248D01*
X77084696Y-91779500D01*
X75956670Y-91779500D01*
X75956654Y-91779499D01*
X75949058Y-91779499D01*
X75790943Y-91779499D01*
X75714579Y-91799961D01*
X75638214Y-91820423D01*
X75638209Y-91820426D01*
X75501290Y-91899475D01*
X75501282Y-91899481D01*
X73537584Y-93863181D01*
X73476261Y-93896666D01*
X73449903Y-93899500D01*
X68071854Y-93899500D01*
X68004815Y-93879815D01*
X67966860Y-93841471D01*
X67955553Y-93823475D01*
X67827997Y-93695919D01*
X67675258Y-93599946D01*
X67504989Y-93540366D01*
X67504984Y-93540365D01*
X67325739Y-93520170D01*
X67325731Y-93520170D01*
X67146485Y-93540365D01*
X67146480Y-93540366D01*
X66976211Y-93599946D01*
X66823472Y-93695919D01*
X66695919Y-93823472D01*
X66612946Y-93955523D01*
X66560611Y-94001814D01*
X66521838Y-94012771D01*
X66502459Y-94014954D01*
X66332187Y-94074534D01*
X66179446Y-94170508D01*
X66051893Y-94298061D01*
X65955921Y-94450799D01*
X65935745Y-94508456D01*
X65895022Y-94565231D01*
X65832594Y-94590719D01*
X65820749Y-94592054D01*
X65820746Y-94592054D01*
X65820745Y-94592055D01*
X65772129Y-94609066D01*
X65650478Y-94651633D01*
X65497737Y-94747607D01*
X65370184Y-94875160D01*
X65274211Y-95027899D01*
X65214631Y-95198168D01*
X65214630Y-95198173D01*
X65194435Y-95377419D01*
X65194435Y-95377426D01*
X65214630Y-95556672D01*
X65214631Y-95556677D01*
X65274211Y-95726946D01*
X65339908Y-95831501D01*
X65370184Y-95879685D01*
X65497738Y-96007239D01*
X65650478Y-96103212D01*
X65820745Y-96162791D01*
X65907669Y-96172584D01*
X65972080Y-96199649D01*
X65981465Y-96208123D01*
X66023501Y-96250159D01*
X66023511Y-96250170D01*
X66027841Y-96254500D01*
X66027842Y-96254501D01*
X66139646Y-96366305D01*
X66139648Y-96366306D01*
X66139652Y-96366309D01*
X66208984Y-96406337D01*
X66276578Y-96445362D01*
X66388170Y-96475263D01*
X66388169Y-96475263D01*
X66403068Y-96479255D01*
X66429304Y-96486285D01*
X66429305Y-96486285D01*
X68029653Y-96486285D01*
X68029669Y-96486286D01*
X68037265Y-96486286D01*
X68195376Y-96486286D01*
X68195379Y-96486286D01*
X68291428Y-96460549D01*
X68361276Y-96462212D01*
X68411201Y-96492643D01*
X68448374Y-96529816D01*
X68538716Y-96586582D01*
X68592244Y-96620216D01*
X68601114Y-96625789D01*
X68771381Y-96685368D01*
X68771386Y-96685369D01*
X68950632Y-96705565D01*
X68950636Y-96705565D01*
X68950640Y-96705565D01*
X69129885Y-96685369D01*
X69129888Y-96685368D01*
X69129891Y-96685368D01*
X69300158Y-96625789D01*
X69452898Y-96529816D01*
X69580452Y-96402262D01*
X69590155Y-96386819D01*
X69607933Y-96358527D01*
X69660267Y-96312237D01*
X69712926Y-96300500D01*
X73083678Y-96300500D01*
X73150717Y-96320185D01*
X73196472Y-96372989D01*
X73206898Y-96410617D01*
X73214630Y-96479249D01*
X73274210Y-96649521D01*
X73296735Y-96685369D01*
X73370184Y-96802262D01*
X73497738Y-96929816D01*
X73650478Y-97025789D01*
X73820745Y-97085368D01*
X73820750Y-97085369D01*
X73999996Y-97105565D01*
X74000000Y-97105565D01*
X74000004Y-97105565D01*
X74179249Y-97085369D01*
X74179252Y-97085368D01*
X74179255Y-97085368D01*
X74349522Y-97025789D01*
X74502262Y-96929816D01*
X74578743Y-96853334D01*
X74640062Y-96819852D01*
X74709754Y-96824836D01*
X74754102Y-96853337D01*
X77141167Y-99240402D01*
X77174652Y-99301725D01*
X77169668Y-99371417D01*
X77165868Y-99380488D01*
X77079107Y-99566548D01*
X77079104Y-99566554D01*
X77021930Y-99779929D01*
X77021929Y-99779937D01*
X77002677Y-99999997D01*
X77002677Y-100000002D01*
X77021929Y-100220062D01*
X77021930Y-100220070D01*
X77079104Y-100433445D01*
X77079105Y-100433447D01*
X77079106Y-100433450D01*
X77172466Y-100633662D01*
X77172468Y-100633666D01*
X77299170Y-100814615D01*
X77299175Y-100814621D01*
X77455378Y-100970824D01*
X77455384Y-100970829D01*
X77636333Y-101097531D01*
X77636335Y-101097532D01*
X77636338Y-101097534D01*
X77712093Y-101132859D01*
X77765189Y-101157618D01*
X77817628Y-101203790D01*
X77836780Y-101270984D01*
X77816564Y-101337865D01*
X77765189Y-101382382D01*
X77636340Y-101442465D01*
X77636338Y-101442466D01*
X77455377Y-101569175D01*
X77299175Y-101725377D01*
X77172466Y-101906338D01*
X77172465Y-101906340D01*
X77079107Y-102106548D01*
X77079104Y-102106554D01*
X77021930Y-102319929D01*
X77021929Y-102319937D01*
X77002677Y-102539997D01*
X77002677Y-102540002D01*
X77021929Y-102760062D01*
X77021930Y-102760070D01*
X77079104Y-102973445D01*
X77079105Y-102973447D01*
X77079106Y-102973450D01*
X77134598Y-103092454D01*
X77172466Y-103173662D01*
X77172468Y-103173666D01*
X77299170Y-103354615D01*
X77299175Y-103354621D01*
X77455378Y-103510824D01*
X77455384Y-103510829D01*
X77636333Y-103637531D01*
X77636335Y-103637532D01*
X77636338Y-103637534D01*
X77750874Y-103690943D01*
X77765189Y-103697618D01*
X77817628Y-103743790D01*
X77836780Y-103810984D01*
X77816564Y-103877865D01*
X77765189Y-103922382D01*
X77636340Y-103982465D01*
X77636338Y-103982466D01*
X77455377Y-104109175D01*
X77299175Y-104265377D01*
X77172466Y-104446338D01*
X77172465Y-104446340D01*
X77079107Y-104646548D01*
X77079104Y-104646554D01*
X77021930Y-104859929D01*
X77021929Y-104859937D01*
X77002677Y-105079997D01*
X77002677Y-105080002D01*
X77021929Y-105300062D01*
X77021930Y-105300070D01*
X77079104Y-105513445D01*
X77079105Y-105513447D01*
X77079106Y-105513450D01*
X77096383Y-105550500D01*
X77172466Y-105713662D01*
X77172468Y-105713666D01*
X77299170Y-105894615D01*
X77299175Y-105894621D01*
X77455378Y-106050824D01*
X77455384Y-106050829D01*
X77636333Y-106177531D01*
X77636335Y-106177532D01*
X77636338Y-106177534D01*
X77712093Y-106212859D01*
X77765189Y-106237618D01*
X77817628Y-106283790D01*
X77836780Y-106350984D01*
X77816564Y-106417865D01*
X77765189Y-106462382D01*
X77636340Y-106522465D01*
X77636338Y-106522466D01*
X77455377Y-106649175D01*
X77299175Y-106805377D01*
X77172466Y-106986338D01*
X77172465Y-106986340D01*
X77079107Y-107186548D01*
X77079104Y-107186554D01*
X77021930Y-107399929D01*
X77021929Y-107399937D01*
X77002677Y-107619997D01*
X77002677Y-107620002D01*
X77021929Y-107840062D01*
X77021930Y-107840070D01*
X77079104Y-108053445D01*
X77079105Y-108053447D01*
X77079106Y-108053450D01*
X77172466Y-108253662D01*
X77172468Y-108253666D01*
X77299170Y-108434615D01*
X77299175Y-108434621D01*
X77455378Y-108590824D01*
X77455384Y-108590829D01*
X77636333Y-108717531D01*
X77636335Y-108717532D01*
X77636338Y-108717534D01*
X77755748Y-108773215D01*
X77765189Y-108777618D01*
X77817628Y-108823790D01*
X77836780Y-108890984D01*
X77816564Y-108957865D01*
X77765189Y-109002382D01*
X77636340Y-109062465D01*
X77636338Y-109062466D01*
X77455377Y-109189175D01*
X77299175Y-109345377D01*
X77172466Y-109526338D01*
X77172465Y-109526340D01*
X77079107Y-109726548D01*
X77079104Y-109726554D01*
X77028329Y-109916051D01*
X76991964Y-109975711D01*
X76929117Y-110006240D01*
X76859741Y-109997945D01*
X76820873Y-109971638D01*
X68970523Y-102121288D01*
X70149500Y-102121288D01*
X70181161Y-102361785D01*
X70243947Y-102596104D01*
X70311864Y-102760070D01*
X70336776Y-102820212D01*
X70458064Y-103030289D01*
X70458066Y-103030292D01*
X70458067Y-103030293D01*
X70605733Y-103222736D01*
X70605739Y-103222743D01*
X70777256Y-103394260D01*
X70777263Y-103394266D01*
X70787518Y-103402135D01*
X70969711Y-103541936D01*
X71179788Y-103663224D01*
X71403900Y-103756054D01*
X71638211Y-103818838D01*
X71818586Y-103842584D01*
X71878711Y-103850500D01*
X71878712Y-103850500D01*
X72121289Y-103850500D01*
X72169388Y-103844167D01*
X72361789Y-103818838D01*
X72596100Y-103756054D01*
X72820212Y-103663224D01*
X73030289Y-103541936D01*
X73222738Y-103394265D01*
X73394265Y-103222738D01*
X73541936Y-103030289D01*
X73663224Y-102820212D01*
X73756054Y-102596100D01*
X73818838Y-102361789D01*
X73850500Y-102121288D01*
X73850500Y-101878712D01*
X73818838Y-101638211D01*
X73756054Y-101403900D01*
X73663224Y-101179788D01*
X73541936Y-100969711D01*
X73481018Y-100890321D01*
X73394266Y-100777263D01*
X73394260Y-100777256D01*
X73222743Y-100605739D01*
X73222736Y-100605733D01*
X73030293Y-100458067D01*
X73030292Y-100458066D01*
X73030289Y-100458064D01*
X72858661Y-100358974D01*
X72820214Y-100336777D01*
X72820205Y-100336773D01*
X72596104Y-100243947D01*
X72361785Y-100181161D01*
X72121289Y-100149500D01*
X72121288Y-100149500D01*
X71878712Y-100149500D01*
X71878711Y-100149500D01*
X71638214Y-100181161D01*
X71403895Y-100243947D01*
X71179794Y-100336773D01*
X71179785Y-100336777D01*
X70969706Y-100458067D01*
X70777263Y-100605733D01*
X70777256Y-100605739D01*
X70605739Y-100777256D01*
X70605733Y-100777263D01*
X70458067Y-100969706D01*
X70458064Y-100969710D01*
X70458064Y-100969711D01*
X70457420Y-100970826D01*
X70336777Y-101179785D01*
X70336773Y-101179794D01*
X70243947Y-101403895D01*
X70181161Y-101638214D01*
X70149500Y-101878711D01*
X70149500Y-102121288D01*
X68970523Y-102121288D01*
X66523875Y-99674640D01*
X66490390Y-99613317D01*
X66494514Y-99546006D01*
X66535368Y-99429255D01*
X66555565Y-99250000D01*
X66548284Y-99185381D01*
X66535369Y-99070750D01*
X66535368Y-99070745D01*
X66476485Y-98902468D01*
X66475789Y-98900478D01*
X66379816Y-98747738D01*
X66252262Y-98620184D01*
X66208776Y-98592860D01*
X66099523Y-98524211D01*
X65929254Y-98464631D01*
X65929249Y-98464630D01*
X65750004Y-98444435D01*
X65749996Y-98444435D01*
X65570750Y-98464630D01*
X65570745Y-98464631D01*
X65400476Y-98524211D01*
X65247739Y-98620183D01*
X65163416Y-98704506D01*
X65102092Y-98737990D01*
X65032401Y-98733006D01*
X64988054Y-98704505D01*
X61986819Y-95703270D01*
X61953334Y-95641947D01*
X61950500Y-95615589D01*
X61950500Y-93590531D01*
X61950501Y-93590518D01*
X61950501Y-93422416D01*
X61950501Y-93422414D01*
X61909577Y-93269686D01*
X61830520Y-93132755D01*
X61502602Y-92804837D01*
X61469117Y-92743514D01*
X61474101Y-92673822D01*
X61502598Y-92629479D01*
X61629816Y-92502262D01*
X61725789Y-92349522D01*
X61785368Y-92179255D01*
X61785369Y-92179249D01*
X61805565Y-92000003D01*
X61805565Y-91999996D01*
X61785369Y-91820750D01*
X61785368Y-91820745D01*
X61767698Y-91770248D01*
X61725789Y-91650478D01*
X61629816Y-91497738D01*
X61502262Y-91370184D01*
X61469377Y-91349521D01*
X61349523Y-91274211D01*
X61179254Y-91214631D01*
X61179249Y-91214630D01*
X61000004Y-91194435D01*
X60999996Y-91194435D01*
X60820750Y-91214630D01*
X60820745Y-91214631D01*
X60650476Y-91274211D01*
X60497739Y-91370183D01*
X60370524Y-91497398D01*
X60309201Y-91530882D01*
X60239509Y-91525898D01*
X60195162Y-91497397D01*
X59936819Y-91239054D01*
X59903334Y-91177731D01*
X59900500Y-91151373D01*
X59900500Y-91000003D01*
X63194435Y-91000003D01*
X63214630Y-91179249D01*
X63214631Y-91179254D01*
X63274211Y-91349523D01*
X63320165Y-91422658D01*
X63370184Y-91502262D01*
X63497738Y-91629816D01*
X63650478Y-91725789D01*
X63777535Y-91770248D01*
X63820745Y-91785368D01*
X63820750Y-91785369D01*
X63999996Y-91805565D01*
X64000000Y-91805565D01*
X64000004Y-91805565D01*
X64179249Y-91785369D01*
X64179252Y-91785368D01*
X64179255Y-91785368D01*
X64349522Y-91725789D01*
X64502262Y-91629816D01*
X64629816Y-91502262D01*
X64725789Y-91349522D01*
X64785368Y-91179255D01*
X64786937Y-91165322D01*
X64814002Y-91100910D01*
X64871596Y-91061353D01*
X64896275Y-91055984D01*
X64899996Y-91055564D01*
X64900000Y-91055565D01*
X65019196Y-91042135D01*
X65079250Y-91035369D01*
X65079253Y-91035368D01*
X65079255Y-91035368D01*
X65249522Y-90975789D01*
X65402262Y-90879816D01*
X65525703Y-90756375D01*
X66700807Y-90756375D01*
X66721002Y-90935621D01*
X66721003Y-90935626D01*
X66780583Y-91105895D01*
X66874326Y-91255085D01*
X66876556Y-91258634D01*
X67004110Y-91386188D01*
X67094452Y-91442954D01*
X67122435Y-91460537D01*
X67156850Y-91482161D01*
X67280637Y-91525476D01*
X67327117Y-91541740D01*
X67327122Y-91541741D01*
X67506368Y-91561937D01*
X67506372Y-91561937D01*
X67506376Y-91561937D01*
X67685621Y-91541741D01*
X67685624Y-91541740D01*
X67685627Y-91541740D01*
X67855894Y-91482161D01*
X68008634Y-91386188D01*
X68136188Y-91258634D01*
X68232161Y-91105894D01*
X68291740Y-90935627D01*
X68293659Y-90918597D01*
X68311937Y-90756375D01*
X68311937Y-90756368D01*
X68291741Y-90577122D01*
X68291740Y-90577117D01*
X68264757Y-90500003D01*
X68232161Y-90406850D01*
X68136188Y-90254110D01*
X68008634Y-90126556D01*
X68007464Y-90125821D01*
X67855895Y-90030583D01*
X67685626Y-89971003D01*
X67685621Y-89971002D01*
X67506376Y-89950807D01*
X67506368Y-89950807D01*
X67327122Y-89971002D01*
X67327117Y-89971003D01*
X67156848Y-90030583D01*
X67004109Y-90126556D01*
X66876556Y-90254109D01*
X66780583Y-90406848D01*
X66721003Y-90577117D01*
X66721002Y-90577122D01*
X66700807Y-90756368D01*
X66700807Y-90756375D01*
X65525703Y-90756375D01*
X65529816Y-90752262D01*
X65625789Y-90599522D01*
X65685368Y-90429255D01*
X65686589Y-90418425D01*
X65704602Y-90258547D01*
X65731668Y-90194133D01*
X65789263Y-90154578D01*
X65841706Y-90149210D01*
X65898108Y-90155565D01*
X65898111Y-90155565D01*
X65898115Y-90155565D01*
X66077360Y-90135369D01*
X66077363Y-90135368D01*
X66077366Y-90135368D01*
X66247633Y-90075789D01*
X66400373Y-89979816D01*
X66527927Y-89852262D01*
X66623900Y-89699522D01*
X66683479Y-89529255D01*
X66683480Y-89529249D01*
X66703676Y-89350003D01*
X66703676Y-89349996D01*
X66683480Y-89170750D01*
X66683479Y-89170745D01*
X66634640Y-89031172D01*
X66623900Y-89000478D01*
X66622178Y-88997738D01*
X66550796Y-88884134D01*
X66527927Y-88847738D01*
X66400373Y-88720184D01*
X66317665Y-88668215D01*
X66247634Y-88624211D01*
X66077365Y-88564631D01*
X66077360Y-88564630D01*
X65898115Y-88544435D01*
X65898107Y-88544435D01*
X65718861Y-88564630D01*
X65718856Y-88564631D01*
X65548587Y-88624211D01*
X65395848Y-88720184D01*
X65268295Y-88847737D01*
X65172322Y-89000476D01*
X65112742Y-89170745D01*
X65112741Y-89170749D01*
X65093508Y-89341453D01*
X65066441Y-89405867D01*
X65008846Y-89445422D01*
X64956406Y-89450790D01*
X64926899Y-89447465D01*
X64900000Y-89444435D01*
X64899998Y-89444435D01*
X64899997Y-89444435D01*
X64899996Y-89444435D01*
X64720750Y-89464630D01*
X64720745Y-89464631D01*
X64550476Y-89524211D01*
X64397737Y-89620184D01*
X64270184Y-89747737D01*
X64174210Y-89900478D01*
X64114630Y-90070750D01*
X64113061Y-90084680D01*
X64085993Y-90149094D01*
X64028397Y-90188647D01*
X64003725Y-90194014D01*
X63820749Y-90214630D01*
X63820745Y-90214631D01*
X63650476Y-90274211D01*
X63497737Y-90370184D01*
X63370184Y-90497737D01*
X63274211Y-90650476D01*
X63214631Y-90820745D01*
X63214630Y-90820750D01*
X63194435Y-90999996D01*
X63194435Y-91000003D01*
X59900500Y-91000003D01*
X59900500Y-89250097D01*
X59920185Y-89183058D01*
X59936819Y-89162416D01*
X61212416Y-87886819D01*
X61273739Y-87853334D01*
X61300097Y-87850500D01*
X64667588Y-87850500D01*
X64734627Y-87870185D01*
X64744903Y-87877555D01*
X64747736Y-87879814D01*
X64747738Y-87879816D01*
X64861270Y-87951152D01*
X64896021Y-87972989D01*
X64900478Y-87975789D01*
X65038860Y-88024211D01*
X65070745Y-88035368D01*
X65070750Y-88035369D01*
X65249996Y-88055565D01*
X65250000Y-88055565D01*
X65250004Y-88055565D01*
X65429249Y-88035369D01*
X65429252Y-88035368D01*
X65429255Y-88035368D01*
X65599522Y-87975789D01*
X65603979Y-87972989D01*
X65667617Y-87933002D01*
X65728039Y-87895035D01*
X65795276Y-87876035D01*
X65862111Y-87896402D01*
X65899006Y-87934057D01*
X65970184Y-88047336D01*
X66097738Y-88174890D01*
X66184264Y-88229258D01*
X66250423Y-88270829D01*
X66250478Y-88270863D01*
X66393033Y-88320745D01*
X66420745Y-88330442D01*
X66420750Y-88330443D01*
X66599996Y-88350639D01*
X66600000Y-88350639D01*
X66600004Y-88350639D01*
X66779249Y-88330443D01*
X66779252Y-88330442D01*
X66779255Y-88330442D01*
X66949522Y-88270863D01*
X67102262Y-88174890D01*
X67229816Y-88047336D01*
X67313712Y-87913814D01*
X67331025Y-87892106D01*
X67836313Y-87386819D01*
X67897636Y-87353334D01*
X67923994Y-87350500D01*
X74879903Y-87350500D01*
X74946942Y-87370185D01*
G37*
%TD.AperFunction*%
%TA.AperFunction,Conductor*%
G36*
X106105703Y-73813962D02*
G01*
X106112167Y-73819981D01*
X107798239Y-75506052D01*
X109595159Y-77302972D01*
X109595169Y-77302983D01*
X109599499Y-77307313D01*
X109599500Y-77307314D01*
X109692686Y-77400500D01*
X109787214Y-77455076D01*
X109806814Y-77466392D01*
X109934107Y-77500500D01*
X109934108Y-77500500D01*
X119934108Y-77500500D01*
X119995572Y-77500500D01*
X120004418Y-77500816D01*
X120204561Y-77515130D01*
X120222063Y-77517647D01*
X120413797Y-77559355D01*
X120430755Y-77564334D01*
X120614609Y-77632909D01*
X120630701Y-77640259D01*
X120802904Y-77734288D01*
X120817784Y-77743849D01*
X120974867Y-77861441D01*
X120988237Y-77873027D01*
X121126972Y-78011762D01*
X121138558Y-78025132D01*
X121256146Y-78182210D01*
X121265711Y-78197095D01*
X121359740Y-78369298D01*
X121367090Y-78385390D01*
X121435662Y-78569236D01*
X121440646Y-78586212D01*
X121482351Y-78777931D01*
X121484869Y-78795442D01*
X121499184Y-78995580D01*
X121499500Y-79004427D01*
X121499500Y-87702885D01*
X121479815Y-87769924D01*
X121427011Y-87815679D01*
X121357853Y-87825623D01*
X121294297Y-87796598D01*
X121258459Y-87743840D01*
X121225790Y-87650480D01*
X121225789Y-87650478D01*
X121129816Y-87497738D01*
X121002262Y-87370184D01*
X120849523Y-87274211D01*
X120679254Y-87214631D01*
X120679249Y-87214630D01*
X120500004Y-87194435D01*
X120499996Y-87194435D01*
X120320750Y-87214630D01*
X120320745Y-87214631D01*
X120150476Y-87274211D01*
X119997737Y-87370184D01*
X119870184Y-87497737D01*
X119774211Y-87650476D01*
X119714631Y-87820745D01*
X119714630Y-87820750D01*
X119694435Y-87999996D01*
X119694435Y-88000003D01*
X119714630Y-88179249D01*
X119714631Y-88179254D01*
X119774211Y-88349523D01*
X119870184Y-88502262D01*
X119997740Y-88629818D01*
X120091471Y-88688712D01*
X120137763Y-88741046D01*
X120149500Y-88793706D01*
X120149500Y-92449902D01*
X120129815Y-92516941D01*
X120113181Y-92537583D01*
X118937584Y-93713181D01*
X118876261Y-93746666D01*
X118849903Y-93749500D01*
X116236669Y-93749500D01*
X116236653Y-93749499D01*
X116229057Y-93749499D01*
X116070943Y-93749499D01*
X115918215Y-93790423D01*
X115918214Y-93790423D01*
X115918212Y-93790424D01*
X115891990Y-93805564D01*
X115891989Y-93805565D01*
X115862712Y-93822468D01*
X115781285Y-93869479D01*
X115781282Y-93869481D01*
X115669478Y-93981286D01*
X115287584Y-94363181D01*
X115226261Y-94396666D01*
X115199903Y-94399500D01*
X113066431Y-94399500D01*
X112999392Y-94379815D01*
X112953637Y-94327011D01*
X112943693Y-94257853D01*
X112946656Y-94243407D01*
X112948014Y-94238337D01*
X112950501Y-94229057D01*
X112950501Y-94070942D01*
X112950501Y-94063347D01*
X112950500Y-94063329D01*
X112950500Y-90500003D01*
X113743700Y-90500003D01*
X113763895Y-90679249D01*
X113763896Y-90679254D01*
X113823476Y-90849523D01*
X113919449Y-91002262D01*
X114051927Y-91134740D01*
X114050504Y-91136162D01*
X114084976Y-91185274D01*
X114087828Y-91255085D01*
X114055206Y-91312716D01*
X113995183Y-91372739D01*
X113899211Y-91525476D01*
X113839631Y-91695745D01*
X113839630Y-91695750D01*
X113819435Y-91874996D01*
X113819435Y-91875003D01*
X113839630Y-92054249D01*
X113839631Y-92054254D01*
X113899211Y-92224523D01*
X113995184Y-92377262D01*
X114048514Y-92430592D01*
X114081999Y-92491915D01*
X114077015Y-92561607D01*
X114065827Y-92584244D01*
X114024213Y-92650472D01*
X114024209Y-92650481D01*
X113964633Y-92820737D01*
X113964630Y-92820750D01*
X113944435Y-92999996D01*
X113944435Y-93000003D01*
X113964630Y-93179249D01*
X113964631Y-93179254D01*
X114024211Y-93349523D01*
X114092747Y-93458597D01*
X114120184Y-93502262D01*
X114247738Y-93629816D01*
X114281427Y-93650984D01*
X114380412Y-93713181D01*
X114400478Y-93725789D01*
X114469678Y-93750003D01*
X114570745Y-93785368D01*
X114570750Y-93785369D01*
X114749996Y-93805565D01*
X114750000Y-93805565D01*
X114750004Y-93805565D01*
X114929249Y-93785369D01*
X114929252Y-93785368D01*
X114929255Y-93785368D01*
X115099522Y-93725789D01*
X115252262Y-93629816D01*
X115379816Y-93502262D01*
X115475789Y-93349522D01*
X115535368Y-93179255D01*
X115537992Y-93155965D01*
X115555565Y-93000003D01*
X115555565Y-92999996D01*
X115535369Y-92820750D01*
X115535368Y-92820745D01*
X115492145Y-92697221D01*
X115475789Y-92650478D01*
X115469967Y-92641213D01*
X115427691Y-92573930D01*
X115379816Y-92497738D01*
X115326484Y-92444406D01*
X115292999Y-92383083D01*
X115297983Y-92313391D01*
X115309164Y-92290765D01*
X115350789Y-92224522D01*
X115410368Y-92054255D01*
X115410369Y-92054249D01*
X115430565Y-91875003D01*
X115430565Y-91874996D01*
X115410369Y-91695750D01*
X115410368Y-91695745D01*
X115396747Y-91656818D01*
X115350789Y-91525478D01*
X115340519Y-91509134D01*
X115263267Y-91386188D01*
X115254816Y-91372738D01*
X115127262Y-91245184D01*
X115122338Y-91240260D01*
X115123760Y-91238837D01*
X115089286Y-91189721D01*
X115086437Y-91119909D01*
X115119056Y-91062286D01*
X115179081Y-91002262D01*
X115275054Y-90849522D01*
X115334633Y-90679255D01*
X115337409Y-90654620D01*
X115354830Y-90500003D01*
X115354830Y-90499996D01*
X115334634Y-90320750D01*
X115334633Y-90320745D01*
X115323348Y-90288495D01*
X115275054Y-90150478D01*
X115274257Y-90149210D01*
X115228123Y-90075788D01*
X115179081Y-89997738D01*
X115051527Y-89870184D01*
X115050690Y-89869658D01*
X114898788Y-89774211D01*
X114728519Y-89714631D01*
X114728514Y-89714630D01*
X114549269Y-89694435D01*
X114549261Y-89694435D01*
X114370015Y-89714630D01*
X114370010Y-89714631D01*
X114199741Y-89774211D01*
X114047002Y-89870184D01*
X113919449Y-89997737D01*
X113823476Y-90150476D01*
X113763896Y-90320745D01*
X113763895Y-90320750D01*
X113743700Y-90499996D01*
X113743700Y-90500003D01*
X112950500Y-90500003D01*
X112950500Y-89200096D01*
X112970185Y-89133057D01*
X112986814Y-89112419D01*
X114018535Y-88080698D01*
X114079856Y-88047215D01*
X114092311Y-88045163D01*
X114179255Y-88035368D01*
X114349522Y-87975789D01*
X114502262Y-87879816D01*
X114629816Y-87752262D01*
X114725789Y-87599522D01*
X114785368Y-87429255D01*
X114790035Y-87387834D01*
X114805565Y-87250003D01*
X114805565Y-87249996D01*
X114785369Y-87070750D01*
X114785368Y-87070745D01*
X114747365Y-86962139D01*
X114725789Y-86900478D01*
X114629816Y-86747738D01*
X114502262Y-86620184D01*
X114433553Y-86577011D01*
X114349523Y-86524211D01*
X114179254Y-86464631D01*
X114179249Y-86464630D01*
X114000004Y-86444435D01*
X113999996Y-86444435D01*
X113820750Y-86464630D01*
X113820745Y-86464631D01*
X113650476Y-86524211D01*
X113497737Y-86620184D01*
X113370184Y-86747737D01*
X113274210Y-86900478D01*
X113214630Y-87070750D01*
X113204837Y-87157668D01*
X113177770Y-87222082D01*
X113169298Y-87231465D01*
X111981286Y-88419478D01*
X111869481Y-88531282D01*
X111869479Y-88531285D01*
X111833745Y-88593180D01*
X111833744Y-88593182D01*
X111790423Y-88668214D01*
X111787313Y-88679821D01*
X111749499Y-88820943D01*
X111749499Y-88820945D01*
X111749499Y-88989046D01*
X111749500Y-88989059D01*
X111749500Y-92583677D01*
X111729815Y-92650716D01*
X111677011Y-92696471D01*
X111639384Y-92706897D01*
X111570750Y-92714630D01*
X111400476Y-92774211D01*
X111315971Y-92827309D01*
X111248734Y-92846309D01*
X111184029Y-92827309D01*
X111099520Y-92774209D01*
X110929262Y-92714633D01*
X110929249Y-92714630D01*
X110750004Y-92694435D01*
X110749996Y-92694435D01*
X110570750Y-92714630D01*
X110570745Y-92714631D01*
X110400476Y-92774211D01*
X110247737Y-92870184D01*
X110120184Y-92997737D01*
X110024211Y-93150476D01*
X109964631Y-93320745D01*
X109964630Y-93320750D01*
X109944435Y-93499996D01*
X109944435Y-93500003D01*
X109964630Y-93679249D01*
X109964631Y-93679254D01*
X110024211Y-93849523D01*
X110111603Y-93988606D01*
X110130603Y-94055843D01*
X110110235Y-94122678D01*
X110094290Y-94142259D01*
X107616336Y-96620214D01*
X107504531Y-96732018D01*
X107504529Y-96732020D01*
X107489934Y-96757301D01*
X107479546Y-96775294D01*
X107425473Y-96868951D01*
X107384549Y-97021679D01*
X107384549Y-97021681D01*
X107384549Y-97189782D01*
X107384550Y-97189795D01*
X107384550Y-97464852D01*
X107364865Y-97531891D01*
X107348231Y-97552533D01*
X101759145Y-103141619D01*
X101697822Y-103175104D01*
X101628130Y-103170120D01*
X101572197Y-103128248D01*
X101547780Y-103062784D01*
X101562632Y-102994511D01*
X101564042Y-102991998D01*
X101663224Y-102820212D01*
X101756054Y-102596100D01*
X101818838Y-102361789D01*
X101850500Y-102121288D01*
X101850500Y-101878712D01*
X101818838Y-101638211D01*
X101756054Y-101403900D01*
X101663224Y-101179788D01*
X101541936Y-100969711D01*
X101481018Y-100890321D01*
X101394266Y-100777263D01*
X101394260Y-100777256D01*
X101222743Y-100605739D01*
X101222736Y-100605733D01*
X101030293Y-100458067D01*
X101030292Y-100458066D01*
X101030289Y-100458064D01*
X100858661Y-100358974D01*
X100820214Y-100336777D01*
X100820205Y-100336773D01*
X100596104Y-100243947D01*
X100361785Y-100181161D01*
X100121289Y-100149500D01*
X100121288Y-100149500D01*
X99878712Y-100149500D01*
X99878711Y-100149500D01*
X99638214Y-100181161D01*
X99403895Y-100243947D01*
X99179794Y-100336773D01*
X99179785Y-100336777D01*
X98969706Y-100458067D01*
X98777263Y-100605733D01*
X98777256Y-100605739D01*
X98605739Y-100777256D01*
X98605733Y-100777263D01*
X98458067Y-100969706D01*
X98458064Y-100969710D01*
X98458064Y-100969711D01*
X98457420Y-100970826D01*
X98336777Y-101179785D01*
X98336773Y-101179794D01*
X98243947Y-101403895D01*
X98181161Y-101638214D01*
X98149500Y-101878711D01*
X98149500Y-102121288D01*
X98181161Y-102361785D01*
X98243947Y-102596104D01*
X98311864Y-102760070D01*
X98336776Y-102820212D01*
X98458064Y-103030289D01*
X98458066Y-103030292D01*
X98458067Y-103030293D01*
X98605733Y-103222736D01*
X98605739Y-103222743D01*
X98777256Y-103394260D01*
X98777263Y-103394266D01*
X98787518Y-103402135D01*
X98969711Y-103541936D01*
X99179788Y-103663224D01*
X99403900Y-103756054D01*
X99638211Y-103818838D01*
X99818586Y-103842584D01*
X99878711Y-103850500D01*
X99878712Y-103850500D01*
X100121289Y-103850500D01*
X100169388Y-103844167D01*
X100361789Y-103818838D01*
X100596100Y-103756054D01*
X100820212Y-103663224D01*
X100991940Y-103564076D01*
X101059838Y-103547604D01*
X101125865Y-103570456D01*
X101169055Y-103625377D01*
X101175697Y-103694931D01*
X101143681Y-103757033D01*
X101141619Y-103759145D01*
X94952786Y-109947977D01*
X94891463Y-109981462D01*
X94821771Y-109976478D01*
X94765838Y-109934606D01*
X94745331Y-109892392D01*
X94700894Y-109726550D01*
X94607534Y-109526339D01*
X94480826Y-109345380D01*
X94324620Y-109189174D01*
X94324616Y-109189171D01*
X94324615Y-109189170D01*
X94143666Y-109062468D01*
X94143658Y-109062464D01*
X94014811Y-109002382D01*
X93962371Y-108956210D01*
X93943219Y-108889017D01*
X93963435Y-108822135D01*
X94014811Y-108777618D01*
X94020802Y-108774824D01*
X94143662Y-108717534D01*
X94324620Y-108590826D01*
X94480826Y-108434620D01*
X94607534Y-108253662D01*
X94700894Y-108053450D01*
X94758070Y-107840068D01*
X94777323Y-107620000D01*
X94758070Y-107399932D01*
X94700894Y-107186550D01*
X94607534Y-106986339D01*
X94480826Y-106805380D01*
X94324620Y-106649174D01*
X94324616Y-106649171D01*
X94324615Y-106649170D01*
X94143666Y-106522468D01*
X94143658Y-106522464D01*
X94014811Y-106462382D01*
X93962371Y-106416210D01*
X93943219Y-106349017D01*
X93963435Y-106282135D01*
X94014811Y-106237618D01*
X94020802Y-106234824D01*
X94143662Y-106177534D01*
X94324620Y-106050826D01*
X94480826Y-105894620D01*
X94607534Y-105713662D01*
X94700894Y-105513450D01*
X94758070Y-105300068D01*
X94772509Y-105135017D01*
X94777323Y-105080002D01*
X94777323Y-105079997D01*
X94758070Y-104859937D01*
X94758070Y-104859932D01*
X94700894Y-104646550D01*
X94607534Y-104446339D01*
X94480826Y-104265380D01*
X94324620Y-104109174D01*
X94324616Y-104109171D01*
X94324615Y-104109170D01*
X94143666Y-103982468D01*
X94143658Y-103982464D01*
X94014811Y-103922382D01*
X93962371Y-103876210D01*
X93943219Y-103809017D01*
X93963435Y-103742135D01*
X94014811Y-103697618D01*
X94029123Y-103690944D01*
X94143662Y-103637534D01*
X94324620Y-103510826D01*
X94480826Y-103354620D01*
X94607534Y-103173662D01*
X94700894Y-102973450D01*
X94758070Y-102760068D01*
X94777323Y-102540000D01*
X94758070Y-102319932D01*
X94700894Y-102106550D01*
X94607534Y-101906339D01*
X94480826Y-101725380D01*
X94324620Y-101569174D01*
X94324616Y-101569171D01*
X94324615Y-101569170D01*
X94143666Y-101442468D01*
X94143658Y-101442464D01*
X94014811Y-101382382D01*
X93962371Y-101336210D01*
X93943219Y-101269017D01*
X93963435Y-101202135D01*
X94014811Y-101157618D01*
X94020802Y-101154824D01*
X94143662Y-101097534D01*
X94324620Y-100970826D01*
X94480826Y-100814620D01*
X94607534Y-100633662D01*
X94700894Y-100433450D01*
X94758070Y-100220068D01*
X94777323Y-100000000D01*
X94758070Y-99779932D01*
X94738821Y-99708095D01*
X94740482Y-99638245D01*
X94770912Y-99588321D01*
X96030520Y-98328716D01*
X96109577Y-98191784D01*
X96150501Y-98039057D01*
X96150501Y-97880942D01*
X96150501Y-97873347D01*
X96150500Y-97873329D01*
X96150500Y-93000003D01*
X105944435Y-93000003D01*
X105964630Y-93179249D01*
X105964631Y-93179254D01*
X106024211Y-93349523D01*
X106092747Y-93458597D01*
X106120184Y-93502262D01*
X106247738Y-93629816D01*
X106281427Y-93650984D01*
X106380412Y-93713181D01*
X106400478Y-93725789D01*
X106469678Y-93750003D01*
X106570745Y-93785368D01*
X106570750Y-93785369D01*
X106749996Y-93805565D01*
X106750000Y-93805565D01*
X106750004Y-93805565D01*
X106929249Y-93785369D01*
X106929252Y-93785368D01*
X106929255Y-93785368D01*
X107099522Y-93725789D01*
X107252262Y-93629816D01*
X107379816Y-93502262D01*
X107475789Y-93349522D01*
X107535368Y-93179255D01*
X107537992Y-93155965D01*
X107555565Y-93000003D01*
X107555565Y-92999996D01*
X107535369Y-92820750D01*
X107535368Y-92820745D01*
X107492145Y-92697221D01*
X107475789Y-92650478D01*
X107469967Y-92641213D01*
X107427691Y-92573930D01*
X107379816Y-92497738D01*
X107252262Y-92370184D01*
X107099523Y-92274211D01*
X106929254Y-92214631D01*
X106929249Y-92214630D01*
X106750004Y-92194435D01*
X106749996Y-92194435D01*
X106570750Y-92214630D01*
X106570745Y-92214631D01*
X106400476Y-92274211D01*
X106247737Y-92370184D01*
X106120184Y-92497737D01*
X106024211Y-92650476D01*
X105964631Y-92820745D01*
X105964630Y-92820750D01*
X105944435Y-92999996D01*
X105944435Y-93000003D01*
X96150500Y-93000003D01*
X96150500Y-92011400D01*
X103183038Y-92011400D01*
X103203233Y-92190646D01*
X103203234Y-92190651D01*
X103262814Y-92360920D01*
X103348783Y-92497738D01*
X103358787Y-92513659D01*
X103486341Y-92641213D01*
X103538238Y-92673822D01*
X103603186Y-92714632D01*
X103639081Y-92737186D01*
X103809348Y-92796765D01*
X103809353Y-92796766D01*
X103988599Y-92816962D01*
X103988603Y-92816962D01*
X103988607Y-92816962D01*
X104167852Y-92796766D01*
X104167855Y-92796765D01*
X104167858Y-92796765D01*
X104338125Y-92737186D01*
X104490865Y-92641213D01*
X104618419Y-92513659D01*
X104714392Y-92360919D01*
X104773971Y-92190652D01*
X104775255Y-92179255D01*
X104794168Y-92011400D01*
X104794168Y-92011393D01*
X104773972Y-91832147D01*
X104773971Y-91832142D01*
X104752313Y-91770248D01*
X104714392Y-91661875D01*
X104711214Y-91656818D01*
X104667058Y-91586544D01*
X104618419Y-91509135D01*
X104490865Y-91381581D01*
X104476793Y-91372739D01*
X104338126Y-91285608D01*
X104167857Y-91226028D01*
X104167852Y-91226027D01*
X103988607Y-91205832D01*
X103988599Y-91205832D01*
X103809353Y-91226027D01*
X103809348Y-91226028D01*
X103639079Y-91285608D01*
X103486340Y-91381581D01*
X103358787Y-91509134D01*
X103262814Y-91661873D01*
X103203234Y-91832142D01*
X103203233Y-91832147D01*
X103183038Y-92011393D01*
X103183038Y-92011400D01*
X96150500Y-92011400D01*
X96150500Y-91697154D01*
X96170185Y-91630115D01*
X96186814Y-91609478D01*
X97299792Y-90496499D01*
X97361113Y-90463016D01*
X97430805Y-90468000D01*
X97486738Y-90509872D01*
X97504513Y-90543228D01*
X97524210Y-90599521D01*
X97583849Y-90694435D01*
X97620184Y-90752262D01*
X97747738Y-90879816D01*
X97900478Y-90975789D01*
X98025334Y-91019478D01*
X98070745Y-91035368D01*
X98070750Y-91035369D01*
X98249996Y-91055565D01*
X98250000Y-91055565D01*
X98250004Y-91055565D01*
X98429249Y-91035369D01*
X98429252Y-91035368D01*
X98429255Y-91035368D01*
X98599522Y-90975789D01*
X98752262Y-90879816D01*
X98879816Y-90752262D01*
X98975789Y-90599522D01*
X99035368Y-90429255D01*
X99035956Y-90424035D01*
X99055565Y-90250003D01*
X99055565Y-90249996D01*
X99035369Y-90070750D01*
X99035367Y-90070742D01*
X99033517Y-90065454D01*
X99029956Y-89995675D01*
X99064685Y-89935048D01*
X99126678Y-89902821D01*
X99150559Y-89900500D01*
X99249903Y-89900500D01*
X99316942Y-89920185D01*
X99337584Y-89936819D01*
X99669298Y-90268533D01*
X99702783Y-90329856D01*
X99704837Y-90342330D01*
X99714630Y-90429249D01*
X99774210Y-90599521D01*
X99833849Y-90694435D01*
X99870184Y-90752262D01*
X99997738Y-90879816D01*
X100150478Y-90975789D01*
X100275334Y-91019478D01*
X100320745Y-91035368D01*
X100320750Y-91035369D01*
X100499996Y-91055565D01*
X100500000Y-91055565D01*
X100500004Y-91055565D01*
X100679249Y-91035369D01*
X100679252Y-91035368D01*
X100679255Y-91035368D01*
X100849522Y-90975789D01*
X101002262Y-90879816D01*
X101129816Y-90752262D01*
X101225789Y-90599522D01*
X101285368Y-90429255D01*
X101285957Y-90424035D01*
X101299304Y-90305565D01*
X101300370Y-90296102D01*
X101327436Y-90231690D01*
X101385030Y-90192135D01*
X101409703Y-90186767D01*
X101471232Y-90179835D01*
X101542853Y-90171766D01*
X101542856Y-90171765D01*
X101542858Y-90171765D01*
X101713125Y-90112186D01*
X101865865Y-90016213D01*
X101993419Y-89888659D01*
X102089392Y-89735919D01*
X102148971Y-89565652D01*
X102153073Y-89529249D01*
X102169168Y-89386400D01*
X102169168Y-89386393D01*
X102148972Y-89207147D01*
X102148971Y-89207142D01*
X102136237Y-89170750D01*
X102089392Y-89036875D01*
X102082167Y-89025377D01*
X101993418Y-88884134D01*
X101865865Y-88756581D01*
X101713126Y-88660608D01*
X101542857Y-88601028D01*
X101542852Y-88601027D01*
X101363607Y-88580832D01*
X101363599Y-88580832D01*
X101191639Y-88600206D01*
X101122817Y-88588151D01*
X101071438Y-88540802D01*
X101054536Y-88490869D01*
X101035369Y-88320750D01*
X101035368Y-88320745D01*
X100975788Y-88150475D01*
X100912654Y-88049999D01*
X100906667Y-88040472D01*
X100887667Y-87973236D01*
X100908034Y-87906401D01*
X100961302Y-87861186D01*
X101011661Y-87850500D01*
X102321227Y-87850500D01*
X102388266Y-87870185D01*
X102408908Y-87886819D01*
X102479960Y-87957871D01*
X102513445Y-88019194D01*
X102515499Y-88031668D01*
X102525292Y-88118587D01*
X102584872Y-88288859D01*
X102653157Y-88397533D01*
X102680846Y-88441600D01*
X102808400Y-88569154D01*
X102857819Y-88600206D01*
X102940388Y-88652088D01*
X102961140Y-88665127D01*
X103118484Y-88720184D01*
X103131407Y-88724706D01*
X103131412Y-88724707D01*
X103310658Y-88744903D01*
X103310662Y-88744903D01*
X103310666Y-88744903D01*
X103489911Y-88724707D01*
X103489914Y-88724706D01*
X103489917Y-88724706D01*
X103660184Y-88665127D01*
X103812924Y-88569154D01*
X103940478Y-88441600D01*
X104036451Y-88288860D01*
X104096030Y-88118593D01*
X104096478Y-88114620D01*
X104109392Y-88000003D01*
X106944435Y-88000003D01*
X106964630Y-88179249D01*
X106964631Y-88179254D01*
X107024211Y-88349523D01*
X107092132Y-88457618D01*
X107120184Y-88502262D01*
X107247738Y-88629816D01*
X107303935Y-88665127D01*
X107391557Y-88720184D01*
X107400478Y-88725789D01*
X107493944Y-88758494D01*
X107570745Y-88785368D01*
X107570750Y-88785369D01*
X107749996Y-88805565D01*
X107750000Y-88805565D01*
X107750004Y-88805565D01*
X107929249Y-88785369D01*
X107929251Y-88785368D01*
X107929255Y-88785368D01*
X107929258Y-88785366D01*
X107929262Y-88785366D01*
X108036840Y-88747723D01*
X108106619Y-88744161D01*
X108167246Y-88778889D01*
X108199474Y-88840883D01*
X108193069Y-88910458D01*
X108165477Y-88952444D01*
X108120184Y-88997737D01*
X108024211Y-89150476D01*
X107964631Y-89320745D01*
X107964630Y-89320750D01*
X107944435Y-89499996D01*
X107944435Y-89500003D01*
X107964630Y-89679249D01*
X107964631Y-89679254D01*
X108024211Y-89849523D01*
X108100542Y-89971002D01*
X108120184Y-90002262D01*
X108247738Y-90129816D01*
X108314501Y-90171766D01*
X108382721Y-90214632D01*
X108400478Y-90225789D01*
X108538860Y-90274211D01*
X108570745Y-90285368D01*
X108570750Y-90285369D01*
X108749996Y-90305565D01*
X108750000Y-90305565D01*
X108750004Y-90305565D01*
X108929249Y-90285369D01*
X108929252Y-90285368D01*
X108929255Y-90285368D01*
X109099522Y-90225789D01*
X109252262Y-90129816D01*
X109379816Y-90002262D01*
X109475789Y-89849522D01*
X109535368Y-89679255D01*
X109548465Y-89563006D01*
X109575531Y-89498595D01*
X109605708Y-89471901D01*
X109752262Y-89379816D01*
X109879816Y-89252262D01*
X109975789Y-89099522D01*
X110035368Y-88929255D01*
X110042024Y-88870184D01*
X110055565Y-88750003D01*
X110055565Y-88749996D01*
X110035369Y-88570750D01*
X110035368Y-88570745D01*
X109990178Y-88441600D01*
X109975789Y-88400478D01*
X109973937Y-88397531D01*
X109931782Y-88330442D01*
X109879816Y-88247738D01*
X109752262Y-88120184D01*
X109729216Y-88105703D01*
X109599523Y-88024211D01*
X109429254Y-87964631D01*
X109429249Y-87964630D01*
X109250004Y-87944435D01*
X109249996Y-87944435D01*
X109070750Y-87964630D01*
X109070745Y-87964631D01*
X108900476Y-88024211D01*
X108744371Y-88122299D01*
X108677134Y-88141299D01*
X108610299Y-88120931D01*
X108565085Y-88067663D01*
X108555728Y-88006964D01*
X108555565Y-88006964D01*
X108555565Y-88005908D01*
X108555180Y-88003413D01*
X108555565Y-88000000D01*
X108555310Y-87997738D01*
X108535369Y-87820750D01*
X108535368Y-87820745D01*
X108506873Y-87739312D01*
X108475789Y-87650478D01*
X108475489Y-87650001D01*
X108404515Y-87537046D01*
X108379816Y-87497738D01*
X108252262Y-87370184D01*
X108099523Y-87274211D01*
X107929254Y-87214631D01*
X107929249Y-87214630D01*
X107750004Y-87194435D01*
X107749996Y-87194435D01*
X107570750Y-87214630D01*
X107570745Y-87214631D01*
X107400476Y-87274211D01*
X107247737Y-87370184D01*
X107120184Y-87497737D01*
X107024211Y-87650476D01*
X106964631Y-87820745D01*
X106964630Y-87820750D01*
X106944435Y-87999996D01*
X106944435Y-88000003D01*
X104109392Y-88000003D01*
X104116227Y-87939341D01*
X104116227Y-87939334D01*
X104096031Y-87760088D01*
X104096029Y-87760078D01*
X104074894Y-87699680D01*
X104071331Y-87629901D01*
X104106060Y-87569273D01*
X104168053Y-87537046D01*
X104178050Y-87535503D01*
X104179255Y-87535368D01*
X104349522Y-87475789D01*
X104502262Y-87379816D01*
X104629816Y-87252262D01*
X104725789Y-87099522D01*
X104785368Y-86929255D01*
X104785369Y-86929249D01*
X104805565Y-86750003D01*
X104805565Y-86749996D01*
X104785369Y-86570750D01*
X104785368Y-86570745D01*
X104751724Y-86474596D01*
X104725789Y-86400478D01*
X104629816Y-86247738D01*
X104502262Y-86120184D01*
X104497647Y-86117284D01*
X104349523Y-86024211D01*
X104179254Y-85964631D01*
X104179249Y-85964630D01*
X104000004Y-85944435D01*
X103999996Y-85944435D01*
X103820750Y-85964630D01*
X103820745Y-85964631D01*
X103650476Y-86024211D01*
X103497737Y-86120184D01*
X103370184Y-86247737D01*
X103274211Y-86400476D01*
X103214631Y-86570745D01*
X103214630Y-86570749D01*
X103200593Y-86695335D01*
X103173526Y-86759749D01*
X103115931Y-86799304D01*
X103046094Y-86801441D01*
X102997232Y-86773451D01*
X102996485Y-86774426D01*
X102990033Y-86769475D01*
X102887018Y-86710000D01*
X102887015Y-86709999D01*
X102886488Y-86709695D01*
X102868831Y-86699500D01*
X102853110Y-86690423D01*
X102853111Y-86690423D01*
X102763231Y-86666340D01*
X102700381Y-86649499D01*
X102542267Y-86649499D01*
X102534671Y-86649499D01*
X102534655Y-86649500D01*
X99064783Y-86649500D01*
X98997744Y-86629815D01*
X98951989Y-86577011D01*
X98942045Y-86507853D01*
X98971070Y-86444297D01*
X98977102Y-86437819D01*
X100471897Y-84943024D01*
X100533220Y-84909539D01*
X100559578Y-84906705D01*
X101684274Y-84906705D01*
X101751313Y-84926390D01*
X101761589Y-84933760D01*
X101764422Y-84936019D01*
X101764424Y-84936021D01*
X101859705Y-84995890D01*
X101896907Y-85019266D01*
X101917164Y-85031994D01*
X102037822Y-85074214D01*
X102087431Y-85091573D01*
X102087436Y-85091574D01*
X102266682Y-85111770D01*
X102266686Y-85111770D01*
X102266690Y-85111770D01*
X102445935Y-85091574D01*
X102445938Y-85091573D01*
X102445941Y-85091573D01*
X102616208Y-85031994D01*
X102768948Y-84936021D01*
X102896502Y-84808467D01*
X102992475Y-84655727D01*
X103052054Y-84485460D01*
X103058387Y-84429254D01*
X103072251Y-84306208D01*
X103072251Y-84306201D01*
X103052055Y-84126955D01*
X103052054Y-84126950D01*
X103044941Y-84106623D01*
X103007633Y-84000003D01*
X112944435Y-84000003D01*
X112964630Y-84179249D01*
X112964631Y-84179254D01*
X113024211Y-84349523D01*
X113120184Y-84502262D01*
X113247738Y-84629816D01*
X113400478Y-84725789D01*
X113570742Y-84785367D01*
X113570745Y-84785368D01*
X113570750Y-84785369D01*
X113749996Y-84805565D01*
X113750000Y-84805565D01*
X113750004Y-84805565D01*
X113929249Y-84785369D01*
X113929252Y-84785368D01*
X113929255Y-84785368D01*
X114099522Y-84725789D01*
X114252262Y-84629816D01*
X114379816Y-84502262D01*
X114475789Y-84349522D01*
X114535368Y-84179255D01*
X114539812Y-84139815D01*
X114555565Y-84000003D01*
X117444435Y-84000003D01*
X117464630Y-84179249D01*
X117464631Y-84179254D01*
X117524211Y-84349523D01*
X117620184Y-84502262D01*
X117747738Y-84629816D01*
X117900478Y-84725789D01*
X118070745Y-84785368D01*
X118101795Y-84788866D01*
X118166207Y-84815930D01*
X118205763Y-84873524D01*
X118211132Y-84898201D01*
X118214630Y-84929249D01*
X118274210Y-85099521D01*
X118333849Y-85194435D01*
X118370184Y-85252262D01*
X118497738Y-85379816D01*
X118551150Y-85413377D01*
X118629328Y-85462500D01*
X118650478Y-85475789D01*
X118713202Y-85497737D01*
X118820745Y-85535368D01*
X118820750Y-85535369D01*
X118999996Y-85555565D01*
X119000000Y-85555565D01*
X119000004Y-85555565D01*
X119179249Y-85535369D01*
X119179252Y-85535368D01*
X119179255Y-85535368D01*
X119349522Y-85475789D01*
X119502262Y-85379816D01*
X119629816Y-85252262D01*
X119725789Y-85099522D01*
X119785368Y-84929255D01*
X119785691Y-84926390D01*
X119805565Y-84750003D01*
X119805565Y-84749996D01*
X119785369Y-84570750D01*
X119785368Y-84570745D01*
X119755523Y-84485454D01*
X119725789Y-84400478D01*
X119725174Y-84399500D01*
X119631237Y-84250000D01*
X119629816Y-84247738D01*
X119502262Y-84120184D01*
X119430723Y-84075233D01*
X119349521Y-84024210D01*
X119179249Y-83964630D01*
X119148201Y-83961132D01*
X119083787Y-83934065D01*
X119044233Y-83876469D01*
X119038867Y-83851802D01*
X119035368Y-83820745D01*
X118975789Y-83650478D01*
X118969977Y-83641229D01*
X118931766Y-83580416D01*
X118879816Y-83497738D01*
X118752262Y-83370184D01*
X118668472Y-83317535D01*
X118599523Y-83274211D01*
X118429254Y-83214631D01*
X118429249Y-83214630D01*
X118250004Y-83194435D01*
X118249996Y-83194435D01*
X118070750Y-83214630D01*
X118070745Y-83214631D01*
X117900476Y-83274211D01*
X117747737Y-83370184D01*
X117620184Y-83497737D01*
X117524211Y-83650476D01*
X117464631Y-83820745D01*
X117464630Y-83820750D01*
X117444435Y-83999996D01*
X117444435Y-84000003D01*
X114555565Y-84000003D01*
X114555565Y-83999996D01*
X114535369Y-83820750D01*
X114535368Y-83820745D01*
X114533698Y-83815973D01*
X114475789Y-83650478D01*
X114469977Y-83641229D01*
X114431766Y-83580416D01*
X114379816Y-83497738D01*
X114252262Y-83370184D01*
X114168472Y-83317535D01*
X114099523Y-83274211D01*
X113929254Y-83214631D01*
X113929249Y-83214630D01*
X113750004Y-83194435D01*
X113749996Y-83194435D01*
X113570750Y-83214630D01*
X113570745Y-83214631D01*
X113400476Y-83274211D01*
X113247737Y-83370184D01*
X113120184Y-83497737D01*
X113024211Y-83650476D01*
X112964631Y-83820745D01*
X112964630Y-83820750D01*
X112944435Y-83999996D01*
X112944435Y-84000003D01*
X103007633Y-84000003D01*
X102992475Y-83956683D01*
X102985373Y-83945381D01*
X102942073Y-83876469D01*
X102896502Y-83803943D01*
X102768948Y-83676389D01*
X102727708Y-83650476D01*
X102616209Y-83580416D01*
X102445940Y-83520836D01*
X102445935Y-83520835D01*
X102266690Y-83500640D01*
X102266682Y-83500640D01*
X102087436Y-83520835D01*
X102087431Y-83520836D01*
X101917162Y-83580416D01*
X101764422Y-83676390D01*
X101761589Y-83678650D01*
X101759410Y-83679539D01*
X101758528Y-83680094D01*
X101758430Y-83679939D01*
X101696903Y-83705060D01*
X101684274Y-83705705D01*
X101442892Y-83705705D01*
X101375853Y-83686020D01*
X101330098Y-83633216D01*
X101320154Y-83564058D01*
X101349179Y-83500502D01*
X101355211Y-83494024D01*
X101963185Y-82886050D01*
X102024508Y-82852565D01*
X102050866Y-82849731D01*
X102917588Y-82849731D01*
X102984627Y-82869416D01*
X102994903Y-82876786D01*
X102997736Y-82879045D01*
X102997738Y-82879047D01*
X103150478Y-82975020D01*
X103264486Y-83014913D01*
X103320745Y-83034599D01*
X103320750Y-83034600D01*
X103499996Y-83054796D01*
X103500000Y-83054796D01*
X103500004Y-83054796D01*
X103679249Y-83034600D01*
X103679250Y-83034599D01*
X103679255Y-83034599D01*
X103685219Y-83032511D01*
X103754997Y-83028949D01*
X103815625Y-83063678D01*
X103843216Y-83108599D01*
X103870014Y-83185185D01*
X103932964Y-83285369D01*
X103965988Y-83337926D01*
X104093542Y-83465480D01*
X104149279Y-83500502D01*
X104240571Y-83557865D01*
X104246282Y-83561453D01*
X104416549Y-83621032D01*
X104416554Y-83621033D01*
X104595800Y-83641229D01*
X104595804Y-83641229D01*
X104595808Y-83641229D01*
X104775053Y-83621033D01*
X104775056Y-83621032D01*
X104775059Y-83621032D01*
X104945326Y-83561453D01*
X105098066Y-83465480D01*
X105225620Y-83337926D01*
X105321593Y-83185186D01*
X105381172Y-83014919D01*
X105382598Y-83002262D01*
X105382853Y-83000003D01*
X110694435Y-83000003D01*
X110714630Y-83179249D01*
X110714631Y-83179254D01*
X110774211Y-83349523D01*
X110824315Y-83429262D01*
X110870184Y-83502262D01*
X110997738Y-83629816D01*
X111071860Y-83676390D01*
X111118514Y-83705705D01*
X111150478Y-83725789D01*
X111320745Y-83785368D01*
X111320750Y-83785369D01*
X111499996Y-83805565D01*
X111500000Y-83805565D01*
X111500004Y-83805565D01*
X111679249Y-83785369D01*
X111679252Y-83785368D01*
X111679255Y-83785368D01*
X111849522Y-83725789D01*
X112002262Y-83629816D01*
X112129816Y-83502262D01*
X112225789Y-83349522D01*
X112285368Y-83179255D01*
X112290749Y-83131501D01*
X112305565Y-83000003D01*
X112305565Y-82999996D01*
X112285369Y-82820750D01*
X112285368Y-82820745D01*
X112283698Y-82815973D01*
X112225789Y-82650478D01*
X112225254Y-82649627D01*
X112185194Y-82585871D01*
X112129816Y-82497738D01*
X112002262Y-82370184D01*
X111956841Y-82341644D01*
X111849523Y-82274211D01*
X111679254Y-82214631D01*
X111679249Y-82214630D01*
X111500004Y-82194435D01*
X111499996Y-82194435D01*
X111320750Y-82214630D01*
X111320745Y-82214631D01*
X111150476Y-82274211D01*
X110997737Y-82370184D01*
X110870184Y-82497737D01*
X110774211Y-82650476D01*
X110714631Y-82820745D01*
X110714630Y-82820750D01*
X110694435Y-82999996D01*
X110694435Y-83000003D01*
X105382853Y-83000003D01*
X105401369Y-82835667D01*
X105401369Y-82835660D01*
X105381173Y-82656414D01*
X105381172Y-82656412D01*
X105381172Y-82656409D01*
X105380905Y-82655648D01*
X105380879Y-82655124D01*
X105379624Y-82649627D01*
X105380587Y-82649407D01*
X105377343Y-82585871D01*
X105390558Y-82552697D01*
X105411561Y-82516320D01*
X105424233Y-82494372D01*
X105465156Y-82341644D01*
X105465156Y-82183530D01*
X105465156Y-82000003D01*
X113194435Y-82000003D01*
X113214630Y-82179249D01*
X113214631Y-82179254D01*
X113274211Y-82349523D01*
X113324315Y-82429262D01*
X113370184Y-82502262D01*
X113497738Y-82629816D01*
X113650478Y-82725789D01*
X113820745Y-82785368D01*
X113820750Y-82785369D01*
X113999996Y-82805565D01*
X114000000Y-82805565D01*
X114000004Y-82805565D01*
X114179249Y-82785369D01*
X114179252Y-82785368D01*
X114179255Y-82785368D01*
X114349522Y-82725789D01*
X114502262Y-82629816D01*
X114629816Y-82502262D01*
X114725789Y-82349522D01*
X114785368Y-82179255D01*
X114785840Y-82175065D01*
X114805565Y-82000003D01*
X114805565Y-81999997D01*
X114797119Y-81925041D01*
X114809173Y-81856219D01*
X114856522Y-81804840D01*
X114906456Y-81787936D01*
X114929255Y-81785368D01*
X115099522Y-81725789D01*
X115252262Y-81629816D01*
X115379816Y-81502262D01*
X115475789Y-81349522D01*
X115535368Y-81179255D01*
X115536823Y-81166344D01*
X115555565Y-81000003D01*
X115555565Y-80999996D01*
X115535369Y-80820750D01*
X115535368Y-80820745D01*
X115475788Y-80650475D01*
X115411862Y-80548739D01*
X115392861Y-80481502D01*
X115411862Y-80416794D01*
X115475789Y-80315055D01*
X115535368Y-80144788D01*
X115535369Y-80144782D01*
X115551682Y-80000003D01*
X118444435Y-80000003D01*
X118464630Y-80179249D01*
X118464631Y-80179254D01*
X118524211Y-80349523D01*
X118591095Y-80455967D01*
X118620184Y-80502262D01*
X118747738Y-80629816D01*
X118900478Y-80725789D01*
X118994238Y-80758597D01*
X119070745Y-80785368D01*
X119070750Y-80785369D01*
X119249996Y-80805565D01*
X119250000Y-80805565D01*
X119250004Y-80805565D01*
X119429249Y-80785369D01*
X119429252Y-80785368D01*
X119429255Y-80785368D01*
X119599522Y-80725789D01*
X119752262Y-80629816D01*
X119879816Y-80502262D01*
X119975789Y-80349522D01*
X120035368Y-80179255D01*
X120035369Y-80179249D01*
X120055565Y-80000003D01*
X120055565Y-79999996D01*
X120035369Y-79820750D01*
X120035368Y-79820745D01*
X119975788Y-79650476D01*
X119920013Y-79561711D01*
X119879816Y-79497738D01*
X119752262Y-79370184D01*
X119631731Y-79294449D01*
X119599523Y-79274211D01*
X119429254Y-79214631D01*
X119429249Y-79214630D01*
X119250004Y-79194435D01*
X119249996Y-79194435D01*
X119070750Y-79214630D01*
X119070745Y-79214631D01*
X118900476Y-79274211D01*
X118747737Y-79370184D01*
X118620184Y-79497737D01*
X118524211Y-79650476D01*
X118464631Y-79820745D01*
X118464630Y-79820750D01*
X118444435Y-79999996D01*
X118444435Y-80000003D01*
X115551682Y-80000003D01*
X115555565Y-79965536D01*
X115555565Y-79965529D01*
X115535369Y-79786283D01*
X115535368Y-79786278D01*
X115498180Y-79680000D01*
X115475789Y-79616011D01*
X115379816Y-79463271D01*
X115252262Y-79335717D01*
X115099523Y-79239744D01*
X114929254Y-79180164D01*
X114929249Y-79180163D01*
X114750004Y-79159968D01*
X114749996Y-79159968D01*
X114570750Y-79180163D01*
X114570745Y-79180164D01*
X114400476Y-79239744D01*
X114247737Y-79335717D01*
X114120184Y-79463270D01*
X114024211Y-79616009D01*
X113964631Y-79786278D01*
X113964630Y-79786283D01*
X113944435Y-79965529D01*
X113944435Y-79965536D01*
X113964630Y-80144782D01*
X113964631Y-80144787D01*
X114024211Y-80315056D01*
X114088138Y-80416794D01*
X114107138Y-80484030D01*
X114088138Y-80548738D01*
X114024211Y-80650476D01*
X113964631Y-80820745D01*
X113964630Y-80820750D01*
X113944435Y-80999996D01*
X113944435Y-81000004D01*
X113952880Y-81074959D01*
X113940825Y-81143781D01*
X113893476Y-81195160D01*
X113843546Y-81212062D01*
X113820751Y-81214630D01*
X113820747Y-81214631D01*
X113650478Y-81274210D01*
X113497737Y-81370184D01*
X113370184Y-81497737D01*
X113274211Y-81650476D01*
X113214631Y-81820745D01*
X113214630Y-81820750D01*
X113194435Y-81999996D01*
X113194435Y-82000003D01*
X105465156Y-82000003D01*
X105465156Y-81285599D01*
X105456224Y-81252262D01*
X105424233Y-81132871D01*
X105388178Y-81070423D01*
X105388178Y-81070421D01*
X105341113Y-80988901D01*
X105343327Y-80987622D01*
X105322737Y-80934361D01*
X105336776Y-80865916D01*
X105385590Y-80815926D01*
X105398850Y-80809485D01*
X105426547Y-80798013D01*
X105574035Y-80699464D01*
X105699464Y-80574035D01*
X105798013Y-80426547D01*
X105865894Y-80262666D01*
X105868864Y-80247738D01*
X105897550Y-80103520D01*
X105900500Y-80088691D01*
X105900500Y-79924268D01*
X106618700Y-79924268D01*
X106638895Y-80103514D01*
X106638896Y-80103519D01*
X106698476Y-80273788D01*
X106746064Y-80349523D01*
X106794449Y-80426527D01*
X106922003Y-80554081D01*
X107012345Y-80610847D01*
X107054002Y-80637022D01*
X107074743Y-80650054D01*
X107215940Y-80699461D01*
X107245010Y-80709633D01*
X107245015Y-80709634D01*
X107424261Y-80729830D01*
X107424265Y-80729830D01*
X107424269Y-80729830D01*
X107603514Y-80709634D01*
X107603517Y-80709633D01*
X107603520Y-80709633D01*
X107773787Y-80650054D01*
X107926527Y-80554081D01*
X108054081Y-80426527D01*
X108150054Y-80273787D01*
X108209633Y-80103520D01*
X108209634Y-80103514D01*
X108229830Y-79924268D01*
X108229830Y-79924261D01*
X108209634Y-79745015D01*
X108209633Y-79745010D01*
X108169325Y-79629816D01*
X108150054Y-79574743D01*
X108141865Y-79561711D01*
X108104428Y-79502130D01*
X108054081Y-79422003D01*
X107926527Y-79294449D01*
X107773788Y-79198476D01*
X107603519Y-79138896D01*
X107603514Y-79138895D01*
X107424269Y-79118700D01*
X107424261Y-79118700D01*
X107245015Y-79138895D01*
X107245010Y-79138896D01*
X107074741Y-79198476D01*
X106922002Y-79294449D01*
X106794449Y-79422002D01*
X106698476Y-79574741D01*
X106638896Y-79745010D01*
X106638895Y-79745015D01*
X106618700Y-79924261D01*
X106618700Y-79924268D01*
X105900500Y-79924268D01*
X105900500Y-79000003D01*
X109545907Y-79000003D01*
X109566102Y-79179249D01*
X109566103Y-79179254D01*
X109625683Y-79349523D01*
X109671225Y-79422002D01*
X109721656Y-79502262D01*
X109849210Y-79629816D01*
X110001950Y-79725789D01*
X110056895Y-79745015D01*
X110172217Y-79785368D01*
X110172222Y-79785369D01*
X110351468Y-79805565D01*
X110351472Y-79805565D01*
X110351476Y-79805565D01*
X110530721Y-79785369D01*
X110530724Y-79785368D01*
X110530727Y-79785368D01*
X110700994Y-79725789D01*
X110853734Y-79629816D01*
X110981288Y-79502262D01*
X111077261Y-79349522D01*
X111136840Y-79179255D01*
X111139013Y-79159968D01*
X111157037Y-79000003D01*
X111157037Y-78999996D01*
X111136841Y-78820750D01*
X111136840Y-78820745D01*
X111097800Y-78709175D01*
X111077261Y-78650478D01*
X110981288Y-78497738D01*
X110853734Y-78370184D01*
X110852324Y-78369298D01*
X110700995Y-78274211D01*
X110530726Y-78214631D01*
X110530721Y-78214630D01*
X110351476Y-78194435D01*
X110351468Y-78194435D01*
X110172222Y-78214630D01*
X110172217Y-78214631D01*
X110001948Y-78274211D01*
X109849209Y-78370184D01*
X109721656Y-78497737D01*
X109625683Y-78650476D01*
X109566103Y-78820745D01*
X109566102Y-78820750D01*
X109545907Y-78999996D01*
X109545907Y-79000003D01*
X105900500Y-79000003D01*
X105900500Y-73907675D01*
X105920185Y-73840636D01*
X105972989Y-73794881D01*
X106042147Y-73784937D01*
X106105703Y-73813962D01*
G37*
%TD.AperFunction*%
%TA.AperFunction,Conductor*%
G36*
X77210258Y-65165753D02*
G01*
X77266191Y-65207625D01*
X77268499Y-65210812D01*
X77299172Y-65254618D01*
X77299173Y-65254619D01*
X77299174Y-65254620D01*
X77455380Y-65410826D01*
X77455383Y-65410828D01*
X77455384Y-65410829D01*
X77636333Y-65537531D01*
X77636335Y-65537532D01*
X77636338Y-65537534D01*
X77755748Y-65593215D01*
X77765189Y-65597618D01*
X77817628Y-65643790D01*
X77836780Y-65710984D01*
X77816564Y-65777865D01*
X77765189Y-65822382D01*
X77636340Y-65882465D01*
X77636338Y-65882466D01*
X77455377Y-66009175D01*
X77299175Y-66165377D01*
X77172466Y-66346338D01*
X77172465Y-66346340D01*
X77079107Y-66546548D01*
X77079104Y-66546554D01*
X77021930Y-66759929D01*
X77021929Y-66759937D01*
X77002677Y-66979997D01*
X77002677Y-66980002D01*
X77021929Y-67200062D01*
X77021930Y-67200070D01*
X77079104Y-67413445D01*
X77079105Y-67413447D01*
X77079106Y-67413450D01*
X77172466Y-67613662D01*
X77172468Y-67613666D01*
X77299170Y-67794615D01*
X77299175Y-67794621D01*
X77455378Y-67950824D01*
X77455384Y-67950829D01*
X77636333Y-68077531D01*
X77636335Y-68077532D01*
X77636338Y-68077534D01*
X77755748Y-68133215D01*
X77765189Y-68137618D01*
X77817628Y-68183790D01*
X77836780Y-68250984D01*
X77816564Y-68317865D01*
X77765189Y-68362382D01*
X77636340Y-68422465D01*
X77636338Y-68422466D01*
X77455377Y-68549175D01*
X77299175Y-68705377D01*
X77172466Y-68886338D01*
X77172465Y-68886340D01*
X77079107Y-69086548D01*
X77079104Y-69086554D01*
X77021930Y-69299929D01*
X77021929Y-69299937D01*
X77002677Y-69519997D01*
X77002677Y-69520002D01*
X77021929Y-69740062D01*
X77021930Y-69740070D01*
X77079104Y-69953445D01*
X77079105Y-69953447D01*
X77079106Y-69953450D01*
X77172466Y-70153662D01*
X77172468Y-70153666D01*
X77299170Y-70334615D01*
X77299175Y-70334621D01*
X77455378Y-70490824D01*
X77455384Y-70490829D01*
X77636333Y-70617531D01*
X77636335Y-70617532D01*
X77636338Y-70617534D01*
X77755748Y-70673215D01*
X77765189Y-70677618D01*
X77817628Y-70723790D01*
X77836780Y-70790984D01*
X77816564Y-70857865D01*
X77765189Y-70902382D01*
X77636340Y-70962465D01*
X77636338Y-70962466D01*
X77455377Y-71089175D01*
X77299175Y-71245377D01*
X77172466Y-71426338D01*
X77172465Y-71426340D01*
X77079107Y-71626548D01*
X77079104Y-71626554D01*
X77021930Y-71839929D01*
X77021929Y-71839937D01*
X77002677Y-72059997D01*
X77002677Y-72060002D01*
X77021929Y-72280062D01*
X77021930Y-72280070D01*
X77079104Y-72493445D01*
X77079105Y-72493447D01*
X77079106Y-72493450D01*
X77131464Y-72605733D01*
X77172466Y-72693662D01*
X77172468Y-72693666D01*
X77299170Y-72874615D01*
X77299175Y-72874621D01*
X77455378Y-73030824D01*
X77455384Y-73030829D01*
X77636333Y-73157531D01*
X77636335Y-73157532D01*
X77636338Y-73157534D01*
X77755748Y-73213215D01*
X77765189Y-73217618D01*
X77817628Y-73263790D01*
X77836780Y-73330984D01*
X77816564Y-73397865D01*
X77765189Y-73442382D01*
X77636340Y-73502465D01*
X77636338Y-73502466D01*
X77455377Y-73629175D01*
X77299175Y-73785377D01*
X77172466Y-73966338D01*
X77172465Y-73966340D01*
X77079107Y-74166548D01*
X77079104Y-74166554D01*
X77021930Y-74379929D01*
X77021929Y-74379937D01*
X77002677Y-74599997D01*
X77002677Y-74600002D01*
X77021929Y-74820062D01*
X77021930Y-74820070D01*
X77079104Y-75033445D01*
X77079105Y-75033447D01*
X77079106Y-75033450D01*
X77130780Y-75144265D01*
X77172466Y-75233662D01*
X77172468Y-75233666D01*
X77299170Y-75414615D01*
X77299175Y-75414621D01*
X77455378Y-75570824D01*
X77455384Y-75570829D01*
X77636333Y-75697531D01*
X77636335Y-75697532D01*
X77636338Y-75697534D01*
X77755748Y-75753215D01*
X77765189Y-75757618D01*
X77817628Y-75803790D01*
X77836780Y-75870984D01*
X77816564Y-75937865D01*
X77765189Y-75982382D01*
X77636340Y-76042465D01*
X77636338Y-76042466D01*
X77455377Y-76169175D01*
X77299175Y-76325377D01*
X77172466Y-76506338D01*
X77172465Y-76506340D01*
X77079107Y-76706548D01*
X77079104Y-76706554D01*
X77021930Y-76919929D01*
X77021929Y-76919937D01*
X77002677Y-77139997D01*
X77002677Y-77140002D01*
X77021929Y-77360062D01*
X77021930Y-77360070D01*
X77079104Y-77573445D01*
X77079105Y-77573447D01*
X77079106Y-77573450D01*
X77157002Y-77740500D01*
X77172466Y-77773662D01*
X77172468Y-77773666D01*
X77299170Y-77954615D01*
X77299175Y-77954621D01*
X77455378Y-78110824D01*
X77455384Y-78110829D01*
X77636333Y-78237531D01*
X77636335Y-78237532D01*
X77636338Y-78237534D01*
X77755748Y-78293215D01*
X77765189Y-78297618D01*
X77817628Y-78343790D01*
X77836780Y-78410984D01*
X77816564Y-78477865D01*
X77765189Y-78522382D01*
X77636340Y-78582465D01*
X77636338Y-78582466D01*
X77455377Y-78709175D01*
X77299175Y-78865377D01*
X77172466Y-79046338D01*
X77172465Y-79046340D01*
X77079107Y-79246548D01*
X77079104Y-79246554D01*
X77021930Y-79459929D01*
X77021929Y-79459937D01*
X77002677Y-79679997D01*
X77002677Y-79680002D01*
X77021929Y-79900062D01*
X77021930Y-79900070D01*
X77079104Y-80113445D01*
X77079105Y-80113447D01*
X77079106Y-80113450D01*
X77126288Y-80214632D01*
X77172466Y-80313662D01*
X77172468Y-80313666D01*
X77299170Y-80494615D01*
X77299175Y-80494621D01*
X77455378Y-80650824D01*
X77455384Y-80650829D01*
X77636333Y-80777531D01*
X77636335Y-80777532D01*
X77636338Y-80777534D01*
X77755748Y-80833215D01*
X77765189Y-80837618D01*
X77817628Y-80883790D01*
X77836780Y-80950984D01*
X77816564Y-81017865D01*
X77765189Y-81062382D01*
X77636340Y-81122465D01*
X77636338Y-81122466D01*
X77455377Y-81249175D01*
X77299175Y-81405377D01*
X77186271Y-81566623D01*
X77131694Y-81610248D01*
X77084696Y-81619500D01*
X69116670Y-81619500D01*
X69116654Y-81619499D01*
X69109058Y-81619499D01*
X68950943Y-81619499D01*
X68874579Y-81639961D01*
X68798214Y-81660423D01*
X68798209Y-81660426D01*
X68661290Y-81739475D01*
X68661282Y-81739481D01*
X65619481Y-84781282D01*
X65619479Y-84781285D01*
X65583745Y-84843180D01*
X65583744Y-84843181D01*
X65540422Y-84918217D01*
X65537310Y-84925729D01*
X65534185Y-84924434D01*
X65505294Y-84970872D01*
X65442170Y-85000825D01*
X65436611Y-85001579D01*
X65320749Y-85014633D01*
X65320745Y-85014634D01*
X65150476Y-85074214D01*
X64997737Y-85170187D01*
X64870184Y-85297740D01*
X64774211Y-85450479D01*
X64714631Y-85620748D01*
X64714630Y-85620753D01*
X64694435Y-85799999D01*
X64694435Y-85800006D01*
X64714630Y-85979252D01*
X64714631Y-85979257D01*
X64774211Y-86149526D01*
X64870184Y-86302265D01*
X64908226Y-86340307D01*
X64941711Y-86401630D01*
X64936727Y-86471322D01*
X64894855Y-86527255D01*
X64886518Y-86532981D01*
X64747739Y-86620183D01*
X64744903Y-86622445D01*
X64742722Y-86623335D01*
X64741843Y-86623888D01*
X64741746Y-86623733D01*
X64680217Y-86648855D01*
X64667588Y-86649500D01*
X60920943Y-86649500D01*
X60768212Y-86690423D01*
X60734309Y-86709999D01*
X60734306Y-86710000D01*
X60631290Y-86769475D01*
X60631282Y-86769481D01*
X60519478Y-86881286D01*
X59689952Y-87710811D01*
X59628629Y-87744296D01*
X59558937Y-87739312D01*
X59503004Y-87697440D01*
X59482498Y-87655228D01*
X59459577Y-87569687D01*
X59459338Y-87569273D01*
X59380524Y-87432761D01*
X59380518Y-87432753D01*
X59247762Y-87299997D01*
X59064455Y-87116691D01*
X59035095Y-87069965D01*
X58985858Y-86929255D01*
X58975789Y-86900478D01*
X58879816Y-86747738D01*
X58752262Y-86620184D01*
X58683553Y-86577011D01*
X58599523Y-86524211D01*
X58429254Y-86464631D01*
X58429249Y-86464630D01*
X58250004Y-86444435D01*
X58249996Y-86444435D01*
X58070750Y-86464630D01*
X58070745Y-86464631D01*
X57900476Y-86524211D01*
X57747737Y-86620184D01*
X57620184Y-86747737D01*
X57524211Y-86900476D01*
X57464631Y-87070745D01*
X57464630Y-87070750D01*
X57444435Y-87249996D01*
X57444435Y-87250003D01*
X57464630Y-87429249D01*
X57464633Y-87429262D01*
X57526510Y-87606094D01*
X57524366Y-87606843D01*
X57533960Y-87665161D01*
X57525612Y-87693595D01*
X57526510Y-87693909D01*
X57464633Y-87870740D01*
X57464630Y-87870753D01*
X57444435Y-88049999D01*
X57444435Y-88050006D01*
X57464630Y-88229252D01*
X57464631Y-88229257D01*
X57524211Y-88399526D01*
X57620184Y-88552265D01*
X57747740Y-88679821D01*
X57841471Y-88738715D01*
X57887763Y-88791049D01*
X57899500Y-88843709D01*
X57899500Y-94110388D01*
X57899499Y-94110406D01*
X57899499Y-94238337D01*
X57879814Y-94305376D01*
X57827010Y-94351131D01*
X57757852Y-94361075D01*
X57709527Y-94343331D01*
X57599523Y-94274211D01*
X57429254Y-94214631D01*
X57429249Y-94214630D01*
X57250004Y-94194435D01*
X57249996Y-94194435D01*
X57070750Y-94214630D01*
X57070745Y-94214631D01*
X56900476Y-94274211D01*
X56747737Y-94370184D01*
X56620184Y-94497737D01*
X56524211Y-94650476D01*
X56464631Y-94820745D01*
X56464630Y-94820750D01*
X56444435Y-94999996D01*
X56444435Y-95000003D01*
X56464630Y-95179249D01*
X56464631Y-95179254D01*
X56524211Y-95349523D01*
X56616851Y-95496958D01*
X56620184Y-95502262D01*
X56747738Y-95629816D01*
X56900478Y-95725789D01*
X57070745Y-95785368D01*
X57093543Y-95787936D01*
X57157956Y-95815002D01*
X57197512Y-95872597D01*
X57202880Y-95925040D01*
X57194435Y-95999995D01*
X57194435Y-96000003D01*
X57214630Y-96179249D01*
X57214631Y-96179254D01*
X57274211Y-96349523D01*
X57334431Y-96445362D01*
X57370184Y-96502262D01*
X57497738Y-96629816D01*
X57650478Y-96725789D01*
X57791952Y-96775293D01*
X57820745Y-96785368D01*
X57820750Y-96785369D01*
X57999996Y-96805565D01*
X58000000Y-96805565D01*
X58000004Y-96805565D01*
X58179249Y-96785369D01*
X58179252Y-96785368D01*
X58179255Y-96785368D01*
X58349522Y-96725789D01*
X58502262Y-96629816D01*
X58629816Y-96502262D01*
X58725789Y-96349522D01*
X58785368Y-96179255D01*
X58785369Y-96179249D01*
X58805565Y-96000003D01*
X58805565Y-95999996D01*
X58785369Y-95820750D01*
X58785368Y-95820745D01*
X58760614Y-95750003D01*
X58725789Y-95650478D01*
X58671572Y-95564193D01*
X58652573Y-95496958D01*
X58672941Y-95430122D01*
X58726208Y-95384908D01*
X58795465Y-95375670D01*
X58858721Y-95405342D01*
X58864248Y-95410541D01*
X61741526Y-98287819D01*
X61775011Y-98349142D01*
X61770027Y-98418834D01*
X61728155Y-98474767D01*
X61662691Y-98499184D01*
X61653845Y-98499500D01*
X52004428Y-98499500D01*
X51995582Y-98499184D01*
X51973622Y-98497613D01*
X51795442Y-98484869D01*
X51777931Y-98482351D01*
X51586212Y-98440646D01*
X51569236Y-98435662D01*
X51385390Y-98367090D01*
X51369298Y-98359740D01*
X51197095Y-98265711D01*
X51182210Y-98256146D01*
X51140410Y-98224855D01*
X51025132Y-98138558D01*
X51011762Y-98126972D01*
X50873027Y-97988237D01*
X50861441Y-97974867D01*
X50823848Y-97924649D01*
X50743849Y-97817784D01*
X50734288Y-97802904D01*
X50640259Y-97630701D01*
X50632909Y-97614609D01*
X50608003Y-97547834D01*
X50564334Y-97430755D01*
X50559355Y-97413797D01*
X50517647Y-97222063D01*
X50515130Y-97204556D01*
X50514862Y-97200811D01*
X50500816Y-97004418D01*
X50500500Y-96995572D01*
X50500500Y-93750003D01*
X52194435Y-93750003D01*
X52214630Y-93929249D01*
X52214631Y-93929254D01*
X52274211Y-94099523D01*
X52333849Y-94194435D01*
X52370184Y-94252262D01*
X52497738Y-94379816D01*
X52650478Y-94475789D01*
X52681243Y-94486554D01*
X52820745Y-94535368D01*
X52820750Y-94535369D01*
X52999996Y-94555565D01*
X53000000Y-94555565D01*
X53000004Y-94555565D01*
X53179249Y-94535369D01*
X53179252Y-94535368D01*
X53179255Y-94535368D01*
X53349522Y-94475789D01*
X53502262Y-94379816D01*
X53629816Y-94252262D01*
X53725789Y-94099522D01*
X53785368Y-93929255D01*
X53789040Y-93896666D01*
X53805565Y-93750003D01*
X53805565Y-93749997D01*
X53798285Y-93685389D01*
X53810339Y-93616567D01*
X53857688Y-93565188D01*
X53925298Y-93547563D01*
X53935385Y-93548284D01*
X53961857Y-93551267D01*
X53999998Y-93555565D01*
X54000000Y-93555565D01*
X54000004Y-93555565D01*
X54179249Y-93535369D01*
X54179252Y-93535368D01*
X54179255Y-93535368D01*
X54349522Y-93475789D01*
X54502262Y-93379816D01*
X54629816Y-93252262D01*
X54725789Y-93099522D01*
X54785368Y-92929255D01*
X54794714Y-92846309D01*
X54805565Y-92750003D01*
X54805565Y-92749996D01*
X54785369Y-92570750D01*
X54785368Y-92570745D01*
X54761404Y-92502259D01*
X54725789Y-92400478D01*
X54719519Y-92390500D01*
X54686582Y-92338080D01*
X54629816Y-92247738D01*
X54594759Y-92212681D01*
X54561274Y-92151358D01*
X54566258Y-92081666D01*
X54594759Y-92037319D01*
X54629816Y-92002262D01*
X54725789Y-91849522D01*
X54785368Y-91679255D01*
X54785369Y-91679249D01*
X54805565Y-91500003D01*
X54805565Y-91499996D01*
X54785369Y-91320750D01*
X54785368Y-91320745D01*
X54763634Y-91258634D01*
X54725789Y-91150478D01*
X54701718Y-91112170D01*
X54658752Y-91043790D01*
X54629816Y-90997738D01*
X54502262Y-90870184D01*
X54427677Y-90823319D01*
X54349523Y-90774211D01*
X54179254Y-90714631D01*
X54179249Y-90714630D01*
X54000004Y-90694435D01*
X53999996Y-90694435D01*
X53820750Y-90714630D01*
X53820745Y-90714631D01*
X53650476Y-90774211D01*
X53497737Y-90870184D01*
X53370184Y-90997737D01*
X53274211Y-91150476D01*
X53214631Y-91320745D01*
X53214630Y-91320750D01*
X53194435Y-91499996D01*
X53194435Y-91500003D01*
X53214630Y-91679249D01*
X53214631Y-91679254D01*
X53274211Y-91849523D01*
X53370184Y-92002262D01*
X53405241Y-92037319D01*
X53438726Y-92098642D01*
X53433742Y-92168334D01*
X53405241Y-92212681D01*
X53370184Y-92247737D01*
X53274211Y-92400476D01*
X53214631Y-92570745D01*
X53214630Y-92570750D01*
X53194435Y-92749996D01*
X53194435Y-92750004D01*
X53201714Y-92814611D01*
X53189659Y-92883433D01*
X53142310Y-92934812D01*
X53074699Y-92952436D01*
X53064611Y-92951714D01*
X53000004Y-92944435D01*
X52999996Y-92944435D01*
X52820750Y-92964630D01*
X52820745Y-92964631D01*
X52650476Y-93024211D01*
X52497737Y-93120184D01*
X52370184Y-93247737D01*
X52274211Y-93400476D01*
X52214631Y-93570745D01*
X52214630Y-93570750D01*
X52194435Y-93749996D01*
X52194435Y-93750003D01*
X50500500Y-93750003D01*
X50500500Y-84250003D01*
X56444435Y-84250003D01*
X56464630Y-84429249D01*
X56464631Y-84429254D01*
X56524211Y-84599523D01*
X56603549Y-84725788D01*
X56620184Y-84752262D01*
X56747738Y-84879816D01*
X56776998Y-84898201D01*
X56892652Y-84970872D01*
X56900478Y-84975789D01*
X57024728Y-85019266D01*
X57070745Y-85035368D01*
X57070750Y-85035369D01*
X57249996Y-85055565D01*
X57250000Y-85055565D01*
X57250004Y-85055565D01*
X57429249Y-85035369D01*
X57429252Y-85035368D01*
X57429255Y-85035368D01*
X57599522Y-84975789D01*
X57752262Y-84879816D01*
X57879816Y-84752262D01*
X57975789Y-84599522D01*
X58035368Y-84429255D01*
X58037578Y-84409642D01*
X58055565Y-84250003D01*
X58055565Y-84249996D01*
X58035369Y-84070750D01*
X58035368Y-84070745D01*
X57975788Y-83900475D01*
X57922691Y-83815973D01*
X57903690Y-83748736D01*
X57922691Y-83684027D01*
X57975788Y-83599524D01*
X57975789Y-83599522D01*
X58035368Y-83429255D01*
X58035984Y-83423790D01*
X58055565Y-83250003D01*
X58055565Y-83249996D01*
X58035369Y-83070750D01*
X58035368Y-83070745D01*
X57975788Y-82900475D01*
X57922691Y-82815973D01*
X57903690Y-82748736D01*
X57922691Y-82684027D01*
X57975788Y-82599524D01*
X57975789Y-82599522D01*
X58010612Y-82500003D01*
X62944435Y-82500003D01*
X62964630Y-82679249D01*
X62964631Y-82679254D01*
X63024211Y-82849523D01*
X63056229Y-82900479D01*
X63120184Y-83002262D01*
X63247738Y-83129816D01*
X63250428Y-83131506D01*
X63382721Y-83214632D01*
X63400478Y-83225789D01*
X63469678Y-83250003D01*
X63570745Y-83285368D01*
X63570750Y-83285369D01*
X63749996Y-83305565D01*
X63750000Y-83305565D01*
X63750004Y-83305565D01*
X63929249Y-83285369D01*
X63929252Y-83285368D01*
X63929255Y-83285368D01*
X64099522Y-83225789D01*
X64252262Y-83129816D01*
X64379816Y-83002262D01*
X64475789Y-82849522D01*
X64535368Y-82679255D01*
X64536580Y-82668498D01*
X64555565Y-82500003D01*
X64555565Y-82499996D01*
X64535369Y-82320750D01*
X64535368Y-82320745D01*
X64498237Y-82214630D01*
X64475789Y-82150478D01*
X64379816Y-81997738D01*
X64252262Y-81870184D01*
X64230037Y-81856219D01*
X64099523Y-81774211D01*
X63929254Y-81714631D01*
X63929249Y-81714630D01*
X63750004Y-81694435D01*
X63749996Y-81694435D01*
X63570750Y-81714630D01*
X63570745Y-81714631D01*
X63400476Y-81774211D01*
X63247737Y-81870184D01*
X63120184Y-81997737D01*
X63024211Y-82150476D01*
X62964631Y-82320745D01*
X62964630Y-82320750D01*
X62944435Y-82499996D01*
X62944435Y-82500003D01*
X58010612Y-82500003D01*
X58035368Y-82429255D01*
X58044352Y-82349522D01*
X58055565Y-82250003D01*
X58055565Y-82249996D01*
X58035369Y-82070750D01*
X58035368Y-82070745D01*
X57975804Y-81900521D01*
X57975789Y-81900478D01*
X57879816Y-81747738D01*
X57752262Y-81620184D01*
X57719845Y-81599815D01*
X57599523Y-81524211D01*
X57429254Y-81464631D01*
X57429249Y-81464630D01*
X57250004Y-81444435D01*
X57249996Y-81444435D01*
X57070750Y-81464630D01*
X57070745Y-81464631D01*
X56900476Y-81524211D01*
X56747737Y-81620184D01*
X56620184Y-81747737D01*
X56524211Y-81900476D01*
X56464631Y-82070745D01*
X56464630Y-82070750D01*
X56444435Y-82249996D01*
X56444435Y-82250003D01*
X56464630Y-82429249D01*
X56464633Y-82429262D01*
X56524209Y-82599520D01*
X56577309Y-82684029D01*
X56596309Y-82751266D01*
X56577309Y-82815971D01*
X56524209Y-82900479D01*
X56464633Y-83070737D01*
X56464630Y-83070750D01*
X56444435Y-83249996D01*
X56444435Y-83250003D01*
X56464630Y-83429249D01*
X56464633Y-83429262D01*
X56524209Y-83599520D01*
X56577309Y-83684029D01*
X56596309Y-83751266D01*
X56577309Y-83815971D01*
X56524209Y-83900479D01*
X56464633Y-84070737D01*
X56464630Y-84070750D01*
X56444435Y-84249996D01*
X56444435Y-84250003D01*
X50500500Y-84250003D01*
X50500500Y-82000003D01*
X51444435Y-82000003D01*
X51464630Y-82179249D01*
X51464631Y-82179254D01*
X51524211Y-82349523D01*
X51574315Y-82429262D01*
X51620184Y-82502262D01*
X51747738Y-82629816D01*
X51900478Y-82725789D01*
X52070745Y-82785368D01*
X52070750Y-82785369D01*
X52249996Y-82805565D01*
X52250000Y-82805565D01*
X52250004Y-82805565D01*
X52429249Y-82785369D01*
X52429252Y-82785368D01*
X52429255Y-82785368D01*
X52599522Y-82725789D01*
X52752262Y-82629816D01*
X52879816Y-82502262D01*
X52975789Y-82349522D01*
X53007958Y-82257587D01*
X53048680Y-82200812D01*
X53113633Y-82175065D01*
X53182194Y-82188521D01*
X53232597Y-82236908D01*
X53242042Y-82257588D01*
X53274211Y-82349523D01*
X53324315Y-82429262D01*
X53370184Y-82502262D01*
X53497738Y-82629816D01*
X53650478Y-82725789D01*
X53820745Y-82785368D01*
X53820750Y-82785369D01*
X53999996Y-82805565D01*
X54000000Y-82805565D01*
X54000004Y-82805565D01*
X54179249Y-82785369D01*
X54179252Y-82785368D01*
X54179255Y-82785368D01*
X54349522Y-82725789D01*
X54502262Y-82629816D01*
X54629816Y-82502262D01*
X54725789Y-82349522D01*
X54785368Y-82179255D01*
X54785840Y-82175065D01*
X54805565Y-82000003D01*
X54805565Y-81999996D01*
X54785369Y-81820750D01*
X54785368Y-81820745D01*
X54741170Y-81694435D01*
X54725789Y-81650478D01*
X54704543Y-81616666D01*
X54653461Y-81535369D01*
X54629816Y-81497738D01*
X54576635Y-81444557D01*
X54543150Y-81383234D01*
X54541096Y-81342992D01*
X54552582Y-81241053D01*
X54552582Y-81241047D01*
X54532386Y-81061801D01*
X54532385Y-81061796D01*
X54510762Y-81000003D01*
X58194435Y-81000003D01*
X58214630Y-81179249D01*
X58214631Y-81179254D01*
X58274211Y-81349523D01*
X58346538Y-81464630D01*
X58370184Y-81502262D01*
X58497738Y-81629816D01*
X58549091Y-81662083D01*
X58632721Y-81714632D01*
X58650478Y-81725789D01*
X58700559Y-81743313D01*
X58820745Y-81785368D01*
X58820750Y-81785369D01*
X58999996Y-81805565D01*
X59000000Y-81805565D01*
X59000004Y-81805565D01*
X59179249Y-81785369D01*
X59179252Y-81785368D01*
X59179255Y-81785368D01*
X59349522Y-81725789D01*
X59502262Y-81629816D01*
X59599689Y-81532389D01*
X59661012Y-81498904D01*
X59728325Y-81503028D01*
X59747271Y-81509658D01*
X59820740Y-81535367D01*
X59820750Y-81535369D01*
X59999996Y-81555565D01*
X60000000Y-81555565D01*
X60000004Y-81555565D01*
X60179249Y-81535369D01*
X60179252Y-81535368D01*
X60179255Y-81535368D01*
X60349522Y-81475789D01*
X60502262Y-81379816D01*
X60629816Y-81252262D01*
X60725789Y-81099522D01*
X60760612Y-81000003D01*
X66444435Y-81000003D01*
X66464630Y-81179249D01*
X66464631Y-81179254D01*
X66524211Y-81349523D01*
X66596538Y-81464630D01*
X66620184Y-81502262D01*
X66747738Y-81629816D01*
X66799091Y-81662083D01*
X66882721Y-81714632D01*
X66900478Y-81725789D01*
X66950559Y-81743313D01*
X67070745Y-81785368D01*
X67070750Y-81785369D01*
X67249996Y-81805565D01*
X67250000Y-81805565D01*
X67250004Y-81805565D01*
X67429249Y-81785369D01*
X67429252Y-81785368D01*
X67429255Y-81785368D01*
X67599522Y-81725789D01*
X67752262Y-81629816D01*
X67879816Y-81502262D01*
X67975789Y-81349522D01*
X68035368Y-81179255D01*
X68036823Y-81166344D01*
X68055565Y-81000003D01*
X68055565Y-80999996D01*
X68035369Y-80820750D01*
X68035368Y-80820745D01*
X68002141Y-80725788D01*
X67975789Y-80650478D01*
X67879816Y-80497738D01*
X67752262Y-80370184D01*
X67719379Y-80349522D01*
X67599523Y-80274211D01*
X67429254Y-80214631D01*
X67429249Y-80214630D01*
X67250004Y-80194435D01*
X67249996Y-80194435D01*
X67070750Y-80214630D01*
X67070745Y-80214631D01*
X66900476Y-80274211D01*
X66747737Y-80370184D01*
X66620184Y-80497737D01*
X66524211Y-80650476D01*
X66464631Y-80820745D01*
X66464630Y-80820750D01*
X66444435Y-80999996D01*
X66444435Y-81000003D01*
X60760612Y-81000003D01*
X60785368Y-80929255D01*
X60787936Y-80906456D01*
X60815002Y-80842043D01*
X60872596Y-80802487D01*
X60925039Y-80797119D01*
X60962710Y-80801363D01*
X60999998Y-80805565D01*
X61000000Y-80805565D01*
X61000004Y-80805565D01*
X61179249Y-80785369D01*
X61179252Y-80785368D01*
X61179255Y-80785368D01*
X61349522Y-80725789D01*
X61502262Y-80629816D01*
X61629816Y-80502262D01*
X61725789Y-80349522D01*
X61785368Y-80179255D01*
X61785369Y-80179249D01*
X61805565Y-80000003D01*
X63444435Y-80000003D01*
X63464630Y-80179249D01*
X63464631Y-80179254D01*
X63524211Y-80349523D01*
X63591095Y-80455967D01*
X63620184Y-80502262D01*
X63747738Y-80629816D01*
X63900478Y-80725789D01*
X63994238Y-80758597D01*
X64070745Y-80785368D01*
X64070750Y-80785369D01*
X64249996Y-80805565D01*
X64250000Y-80805565D01*
X64250004Y-80805565D01*
X64429249Y-80785369D01*
X64429252Y-80785368D01*
X64429255Y-80785368D01*
X64599522Y-80725789D01*
X64752262Y-80629816D01*
X64879816Y-80502262D01*
X64975789Y-80349522D01*
X65035368Y-80179255D01*
X65035369Y-80179249D01*
X65055565Y-80000003D01*
X65055565Y-79999996D01*
X65035369Y-79820750D01*
X65035368Y-79820745D01*
X64975788Y-79650476D01*
X64920013Y-79561711D01*
X64879816Y-79497738D01*
X64752262Y-79370184D01*
X64631731Y-79294449D01*
X64599523Y-79274211D01*
X64429254Y-79214631D01*
X64429249Y-79214630D01*
X64250004Y-79194435D01*
X64249996Y-79194435D01*
X64070750Y-79214630D01*
X64070745Y-79214631D01*
X63900476Y-79274211D01*
X63747737Y-79370184D01*
X63620184Y-79497737D01*
X63524211Y-79650476D01*
X63464631Y-79820745D01*
X63464630Y-79820750D01*
X63444435Y-79999996D01*
X63444435Y-80000003D01*
X61805565Y-80000003D01*
X61805565Y-79999996D01*
X61785369Y-79820750D01*
X61785368Y-79820745D01*
X61725788Y-79650476D01*
X61670013Y-79561711D01*
X61629816Y-79497738D01*
X61502262Y-79370184D01*
X61381731Y-79294449D01*
X61349523Y-79274211D01*
X61179254Y-79214631D01*
X61179249Y-79214630D01*
X61000004Y-79194435D01*
X60999996Y-79194435D01*
X60820750Y-79214630D01*
X60820745Y-79214631D01*
X60650476Y-79274211D01*
X60497737Y-79370184D01*
X60370184Y-79497737D01*
X60274210Y-79650478D01*
X60214631Y-79820747D01*
X60214630Y-79820751D01*
X60212062Y-79843546D01*
X60184994Y-79907959D01*
X60127398Y-79947513D01*
X60074959Y-79952880D01*
X60000004Y-79944435D01*
X59999996Y-79944435D01*
X59820750Y-79964630D01*
X59820745Y-79964631D01*
X59650476Y-80024211D01*
X59497737Y-80120184D01*
X59497736Y-80120185D01*
X59400309Y-80217611D01*
X59338986Y-80251095D01*
X59271674Y-80246970D01*
X59179262Y-80214633D01*
X59179249Y-80214630D01*
X59000004Y-80194435D01*
X58999996Y-80194435D01*
X58820750Y-80214630D01*
X58820745Y-80214631D01*
X58650476Y-80274211D01*
X58497737Y-80370184D01*
X58370184Y-80497737D01*
X58274211Y-80650476D01*
X58214631Y-80820745D01*
X58214630Y-80820750D01*
X58194435Y-80999996D01*
X58194435Y-81000003D01*
X54510762Y-81000003D01*
X54506430Y-80987622D01*
X54472806Y-80891529D01*
X54472235Y-80890621D01*
X54416857Y-80802487D01*
X54376833Y-80738789D01*
X54249279Y-80611235D01*
X54217873Y-80591501D01*
X54096540Y-80515262D01*
X53926271Y-80455682D01*
X53926266Y-80455681D01*
X53747021Y-80435486D01*
X53747013Y-80435486D01*
X53567767Y-80455681D01*
X53567762Y-80455682D01*
X53397493Y-80515262D01*
X53244754Y-80611235D01*
X53117201Y-80738788D01*
X53021228Y-80891527D01*
X52961648Y-81061796D01*
X52961647Y-81061801D01*
X52941452Y-81241047D01*
X52941452Y-81241054D01*
X52942695Y-81252087D01*
X52930640Y-81320909D01*
X52883291Y-81372288D01*
X52815681Y-81389912D01*
X52753503Y-81370964D01*
X52599523Y-81274211D01*
X52429254Y-81214631D01*
X52429249Y-81214630D01*
X52250004Y-81194435D01*
X52249996Y-81194435D01*
X52070750Y-81214630D01*
X52070745Y-81214631D01*
X51900476Y-81274211D01*
X51747737Y-81370184D01*
X51620184Y-81497737D01*
X51524211Y-81650476D01*
X51464631Y-81820745D01*
X51464630Y-81820750D01*
X51444435Y-81999996D01*
X51444435Y-82000003D01*
X50500500Y-82000003D01*
X50500500Y-79004427D01*
X50500816Y-78995581D01*
X50510128Y-78865380D01*
X50515130Y-78795436D01*
X50517646Y-78777938D01*
X50559356Y-78586199D01*
X50564333Y-78569248D01*
X50632911Y-78385385D01*
X50640259Y-78369298D01*
X50706091Y-78248735D01*
X50734291Y-78197089D01*
X50743845Y-78182221D01*
X50861448Y-78025123D01*
X50873020Y-78011769D01*
X51011769Y-77873020D01*
X51025123Y-77861448D01*
X51182221Y-77743845D01*
X51197089Y-77734291D01*
X51369298Y-77640258D01*
X51385385Y-77632911D01*
X51569248Y-77564333D01*
X51586199Y-77559356D01*
X51777938Y-77517646D01*
X51795436Y-77515130D01*
X51995582Y-77500816D01*
X52004428Y-77500500D01*
X62065890Y-77500500D01*
X62065892Y-77500500D01*
X62193186Y-77466392D01*
X62307314Y-77400500D01*
X63387820Y-76319992D01*
X63449142Y-76286509D01*
X63518834Y-76291493D01*
X63574767Y-76333365D01*
X63599184Y-76398829D01*
X63599500Y-76407675D01*
X63599500Y-76588696D01*
X63634103Y-76762658D01*
X63634105Y-76762666D01*
X63701988Y-76926548D01*
X63800534Y-77074034D01*
X63800540Y-77074041D01*
X63925958Y-77199459D01*
X63925965Y-77199465D01*
X64073451Y-77298011D01*
X64073452Y-77298011D01*
X64073453Y-77298012D01*
X64237334Y-77365895D01*
X64411293Y-77400497D01*
X64411303Y-77400499D01*
X64411307Y-77400500D01*
X64411308Y-77400500D01*
X64588693Y-77400500D01*
X64588694Y-77400499D01*
X64762666Y-77365895D01*
X64926547Y-77298012D01*
X65074036Y-77199464D01*
X68152211Y-74121288D01*
X70149500Y-74121288D01*
X70179096Y-74346100D01*
X70181162Y-74361789D01*
X70186025Y-74379937D01*
X70243947Y-74596104D01*
X70245560Y-74599997D01*
X70336776Y-74820212D01*
X70458064Y-75030289D01*
X70458066Y-75030292D01*
X70458067Y-75030293D01*
X70605733Y-75222736D01*
X70605739Y-75222743D01*
X70777256Y-75394260D01*
X70777263Y-75394266D01*
X70890321Y-75481018D01*
X70969711Y-75541936D01*
X71179788Y-75663224D01*
X71403900Y-75756054D01*
X71638211Y-75818838D01*
X71818586Y-75842584D01*
X71878711Y-75850500D01*
X71878712Y-75850500D01*
X72121289Y-75850500D01*
X72169388Y-75844167D01*
X72361789Y-75818838D01*
X72596100Y-75756054D01*
X72820212Y-75663224D01*
X73030289Y-75541936D01*
X73222738Y-75394265D01*
X73394265Y-75222738D01*
X73541936Y-75030289D01*
X73663224Y-74820212D01*
X73756054Y-74596100D01*
X73818838Y-74361789D01*
X73850500Y-74121288D01*
X73850500Y-73878712D01*
X73818838Y-73638211D01*
X73756054Y-73403900D01*
X73663224Y-73179788D01*
X73541936Y-72969711D01*
X73394265Y-72777262D01*
X73394260Y-72777256D01*
X73222743Y-72605739D01*
X73222736Y-72605733D01*
X73030293Y-72458067D01*
X73030292Y-72458066D01*
X73030289Y-72458064D01*
X72853050Y-72355735D01*
X72820214Y-72336777D01*
X72820205Y-72336773D01*
X72596104Y-72243947D01*
X72361785Y-72181161D01*
X72121289Y-72149500D01*
X72121288Y-72149500D01*
X71878712Y-72149500D01*
X71878711Y-72149500D01*
X71638214Y-72181161D01*
X71403895Y-72243947D01*
X71179794Y-72336773D01*
X71179785Y-72336777D01*
X70969706Y-72458067D01*
X70777263Y-72605733D01*
X70777256Y-72605739D01*
X70605739Y-72777256D01*
X70605733Y-72777263D01*
X70458067Y-72969706D01*
X70336777Y-73179785D01*
X70336773Y-73179794D01*
X70243947Y-73403895D01*
X70181161Y-73638214D01*
X70149500Y-73878711D01*
X70149500Y-74121288D01*
X68152211Y-74121288D01*
X77079245Y-65194252D01*
X77140566Y-65160769D01*
X77210258Y-65165753D01*
G37*
%TD.AperFunction*%
%TA.AperFunction,Conductor*%
G36*
X121452151Y-93018131D02*
G01*
X121492680Y-93075044D01*
X121499500Y-93115602D01*
X121499500Y-96995572D01*
X121499184Y-97004419D01*
X121484869Y-97204557D01*
X121482351Y-97222068D01*
X121440646Y-97413787D01*
X121435662Y-97430763D01*
X121367090Y-97614609D01*
X121359740Y-97630701D01*
X121265711Y-97802904D01*
X121256146Y-97817789D01*
X121138558Y-97974867D01*
X121126972Y-97988237D01*
X120988237Y-98126972D01*
X120974867Y-98138558D01*
X120817789Y-98256146D01*
X120802904Y-98265711D01*
X120630701Y-98359740D01*
X120614609Y-98367090D01*
X120430763Y-98435662D01*
X120413787Y-98440646D01*
X120222068Y-98482351D01*
X120204557Y-98484869D01*
X120023779Y-98497799D01*
X120004417Y-98499184D01*
X119995572Y-98499500D01*
X110149096Y-98499500D01*
X110082057Y-98479815D01*
X110036302Y-98427011D01*
X110026358Y-98357853D01*
X110055383Y-98294297D01*
X110061415Y-98287819D01*
X110918472Y-97430763D01*
X111962416Y-96386819D01*
X112023739Y-96353334D01*
X112050097Y-96350500D01*
X113167588Y-96350500D01*
X113234627Y-96370185D01*
X113244903Y-96377555D01*
X113247736Y-96379814D01*
X113247738Y-96379816D01*
X113342842Y-96439574D01*
X113399640Y-96475263D01*
X113400478Y-96475789D01*
X113554878Y-96529816D01*
X113570745Y-96535368D01*
X113570750Y-96535369D01*
X113749996Y-96555565D01*
X113750000Y-96555565D01*
X113750004Y-96555565D01*
X113929249Y-96535369D01*
X113929252Y-96535368D01*
X113929255Y-96535368D01*
X114099522Y-96475789D01*
X114252262Y-96379816D01*
X114379816Y-96252262D01*
X114475789Y-96099522D01*
X114535368Y-95929255D01*
X114536390Y-95920185D01*
X114555565Y-95750003D01*
X114555565Y-95750001D01*
X114555565Y-95750000D01*
X114554256Y-95738384D01*
X114566309Y-95669564D01*
X114613657Y-95618184D01*
X114677476Y-95600500D01*
X115413331Y-95600500D01*
X115413347Y-95600501D01*
X115420943Y-95600501D01*
X115579054Y-95600501D01*
X115579057Y-95600501D01*
X115731785Y-95559577D01*
X115803424Y-95518216D01*
X115868716Y-95480520D01*
X115980520Y-95368716D01*
X115980520Y-95368714D01*
X115990724Y-95358511D01*
X115990727Y-95358506D01*
X116362416Y-94986819D01*
X116423739Y-94953334D01*
X116450097Y-94950500D01*
X117333678Y-94950500D01*
X117400717Y-94970185D01*
X117446472Y-95022989D01*
X117456898Y-95060617D01*
X117464630Y-95129249D01*
X117464631Y-95129254D01*
X117464632Y-95129255D01*
X117466905Y-95135751D01*
X117524210Y-95299521D01*
X117620184Y-95452262D01*
X117747738Y-95579816D01*
X117888224Y-95668089D01*
X117934514Y-95720423D01*
X117945471Y-95759199D01*
X117964630Y-95929249D01*
X117964631Y-95929254D01*
X118024211Y-96099523D01*
X118120184Y-96252262D01*
X118247738Y-96379816D01*
X118338080Y-96436582D01*
X118399640Y-96475263D01*
X118400478Y-96475789D01*
X118554878Y-96529816D01*
X118570745Y-96535368D01*
X118570750Y-96535369D01*
X118749996Y-96555565D01*
X118750000Y-96555565D01*
X118750004Y-96555565D01*
X118929249Y-96535369D01*
X118929252Y-96535368D01*
X118929255Y-96535368D01*
X119099522Y-96475789D01*
X119252262Y-96379816D01*
X119379816Y-96252262D01*
X119475789Y-96099522D01*
X119535368Y-95929255D01*
X119536390Y-95920185D01*
X119555565Y-95750003D01*
X119555565Y-95749996D01*
X119535369Y-95570750D01*
X119535368Y-95570745D01*
X119475788Y-95400476D01*
X119379815Y-95247737D01*
X119265401Y-95133323D01*
X119231916Y-95072000D01*
X119236900Y-95002308D01*
X119278772Y-94946375D01*
X119320984Y-94925868D01*
X119381785Y-94909577D01*
X119458963Y-94865018D01*
X119518716Y-94830520D01*
X119630520Y-94718716D01*
X119630520Y-94718714D01*
X119640724Y-94708511D01*
X119640727Y-94708506D01*
X121230520Y-93118716D01*
X121268113Y-93053601D01*
X121318679Y-93005387D01*
X121387286Y-92992163D01*
X121452151Y-93018131D01*
G37*
%TD.AperFunction*%
%TA.AperFunction,Conductor*%
G36*
X94060677Y-53838185D02*
G01*
X94081319Y-53854819D01*
X94445926Y-54219425D01*
X94479411Y-54280748D01*
X94482245Y-54307106D01*
X94482245Y-55721342D01*
X94462560Y-55788381D01*
X94409756Y-55834136D01*
X94340598Y-55844080D01*
X94287122Y-55822917D01*
X94143666Y-55722468D01*
X94143662Y-55722466D01*
X94141252Y-55721342D01*
X93943450Y-55629106D01*
X93943447Y-55629105D01*
X93943445Y-55629104D01*
X93730070Y-55571930D01*
X93730062Y-55571929D01*
X93510002Y-55552677D01*
X93509998Y-55552677D01*
X93289937Y-55571929D01*
X93289929Y-55571930D01*
X93076554Y-55629104D01*
X93076548Y-55629107D01*
X92876340Y-55722465D01*
X92876338Y-55722466D01*
X92695377Y-55849175D01*
X92539175Y-56005377D01*
X92412466Y-56186338D01*
X92412465Y-56186340D01*
X92319107Y-56386548D01*
X92319104Y-56386554D01*
X92261930Y-56599929D01*
X92261929Y-56599937D01*
X92242677Y-56819997D01*
X92242677Y-56820002D01*
X92261929Y-57040062D01*
X92261930Y-57040070D01*
X92319104Y-57253445D01*
X92319105Y-57253447D01*
X92319106Y-57253450D01*
X92412466Y-57453662D01*
X92412468Y-57453666D01*
X92539170Y-57634615D01*
X92539175Y-57634621D01*
X92695378Y-57790824D01*
X92695384Y-57790829D01*
X92876333Y-57917531D01*
X92876335Y-57917532D01*
X92876338Y-57917534D01*
X92995748Y-57973215D01*
X93005189Y-57977618D01*
X93057628Y-58023790D01*
X93076780Y-58090984D01*
X93056564Y-58157865D01*
X93005189Y-58202382D01*
X92876340Y-58262465D01*
X92876338Y-58262466D01*
X92695377Y-58389175D01*
X92539175Y-58545377D01*
X92412466Y-58726338D01*
X92412465Y-58726340D01*
X92319107Y-58926548D01*
X92319104Y-58926554D01*
X92261930Y-59139929D01*
X92261929Y-59139937D01*
X92242677Y-59359997D01*
X92242677Y-59360002D01*
X92261929Y-59580062D01*
X92261930Y-59580070D01*
X92319104Y-59793445D01*
X92319105Y-59793447D01*
X92319106Y-59793450D01*
X92412466Y-59993662D01*
X92412468Y-59993666D01*
X92539170Y-60174615D01*
X92539175Y-60174621D01*
X92695378Y-60330824D01*
X92695384Y-60330829D01*
X92876333Y-60457531D01*
X92876335Y-60457532D01*
X92876338Y-60457534D01*
X92995748Y-60513215D01*
X93005189Y-60517618D01*
X93057628Y-60563790D01*
X93076780Y-60630984D01*
X93056564Y-60697865D01*
X93005189Y-60742382D01*
X92876340Y-60802465D01*
X92876338Y-60802466D01*
X92695377Y-60929175D01*
X92539175Y-61085377D01*
X92412466Y-61266338D01*
X92412465Y-61266340D01*
X92319107Y-61466548D01*
X92319104Y-61466554D01*
X92261930Y-61679929D01*
X92261929Y-61679937D01*
X92242677Y-61899997D01*
X92242677Y-61900002D01*
X92261929Y-62120062D01*
X92261930Y-62120070D01*
X92319104Y-62333445D01*
X92319105Y-62333447D01*
X92319106Y-62333450D01*
X92412466Y-62533662D01*
X92412468Y-62533666D01*
X92539170Y-62714615D01*
X92539175Y-62714621D01*
X92695378Y-62870824D01*
X92695384Y-62870829D01*
X92876333Y-62997531D01*
X92876335Y-62997532D01*
X92876338Y-62997534D01*
X92995748Y-63053215D01*
X93005189Y-63057618D01*
X93057628Y-63103790D01*
X93076780Y-63170984D01*
X93056564Y-63237865D01*
X93005189Y-63282382D01*
X92876340Y-63342465D01*
X92876338Y-63342466D01*
X92695377Y-63469175D01*
X92539175Y-63625377D01*
X92412466Y-63806338D01*
X92412465Y-63806340D01*
X92319107Y-64006548D01*
X92319104Y-64006554D01*
X92261930Y-64219929D01*
X92261929Y-64219937D01*
X92242677Y-64439997D01*
X92242677Y-64440002D01*
X92261929Y-64660062D01*
X92261930Y-64660070D01*
X92319104Y-64873445D01*
X92319105Y-64873447D01*
X92319106Y-64873450D01*
X92412466Y-65073662D01*
X92412468Y-65073666D01*
X92539170Y-65254615D01*
X92539175Y-65254621D01*
X92695378Y-65410824D01*
X92695384Y-65410829D01*
X92876333Y-65537531D01*
X92876335Y-65537532D01*
X92876338Y-65537534D01*
X92995748Y-65593215D01*
X93005189Y-65597618D01*
X93057628Y-65643790D01*
X93076780Y-65710984D01*
X93056564Y-65777865D01*
X93005189Y-65822382D01*
X92876340Y-65882465D01*
X92876338Y-65882466D01*
X92695377Y-66009175D01*
X92539175Y-66165377D01*
X92412466Y-66346338D01*
X92412465Y-66346340D01*
X92319107Y-66546548D01*
X92319104Y-66546554D01*
X92261930Y-66759929D01*
X92261929Y-66759937D01*
X92242677Y-66979997D01*
X92242677Y-66980002D01*
X92261929Y-67200062D01*
X92261930Y-67200070D01*
X92319104Y-67413445D01*
X92319105Y-67413447D01*
X92319106Y-67413450D01*
X92412466Y-67613662D01*
X92412468Y-67613666D01*
X92539170Y-67794615D01*
X92539175Y-67794621D01*
X92695378Y-67950824D01*
X92695384Y-67950829D01*
X92876333Y-68077531D01*
X92876335Y-68077532D01*
X92876338Y-68077534D01*
X92995748Y-68133215D01*
X93005189Y-68137618D01*
X93057628Y-68183790D01*
X93076780Y-68250984D01*
X93056564Y-68317865D01*
X93005189Y-68362382D01*
X92876340Y-68422465D01*
X92876338Y-68422466D01*
X92695377Y-68549175D01*
X92539175Y-68705377D01*
X92412466Y-68886338D01*
X92412465Y-68886340D01*
X92319107Y-69086548D01*
X92319104Y-69086554D01*
X92261930Y-69299929D01*
X92261929Y-69299937D01*
X92242677Y-69519997D01*
X92242677Y-69520002D01*
X92261929Y-69740062D01*
X92261930Y-69740070D01*
X92319104Y-69953445D01*
X92319105Y-69953447D01*
X92319106Y-69953450D01*
X92412466Y-70153662D01*
X92412468Y-70153666D01*
X92539170Y-70334615D01*
X92539175Y-70334621D01*
X92695378Y-70490824D01*
X92695384Y-70490829D01*
X92876333Y-70617531D01*
X92876335Y-70617532D01*
X92876338Y-70617534D01*
X92995748Y-70673215D01*
X93005189Y-70677618D01*
X93057628Y-70723790D01*
X93076780Y-70790984D01*
X93056564Y-70857865D01*
X93005189Y-70902382D01*
X92876340Y-70962465D01*
X92876338Y-70962466D01*
X92695377Y-71089175D01*
X92539175Y-71245377D01*
X92412466Y-71426338D01*
X92412465Y-71426340D01*
X92319107Y-71626548D01*
X92319104Y-71626554D01*
X92261930Y-71839929D01*
X92261929Y-71839937D01*
X92242677Y-72059997D01*
X92242677Y-72060002D01*
X92261929Y-72280062D01*
X92261930Y-72280070D01*
X92319104Y-72493445D01*
X92319105Y-72493447D01*
X92319106Y-72493450D01*
X92371464Y-72605733D01*
X92412466Y-72693662D01*
X92412468Y-72693666D01*
X92539170Y-72874615D01*
X92539175Y-72874621D01*
X92695378Y-73030824D01*
X92695384Y-73030829D01*
X92876333Y-73157531D01*
X92876335Y-73157532D01*
X92876338Y-73157534D01*
X92995748Y-73213215D01*
X93005189Y-73217618D01*
X93057628Y-73263790D01*
X93076780Y-73330984D01*
X93056564Y-73397865D01*
X93005189Y-73442382D01*
X92876340Y-73502465D01*
X92876338Y-73502466D01*
X92695377Y-73629175D01*
X92539175Y-73785377D01*
X92426271Y-73946623D01*
X92371694Y-73990248D01*
X92324696Y-73999500D01*
X91986670Y-73999500D01*
X91986654Y-73999499D01*
X91979058Y-73999499D01*
X91820943Y-73999499D01*
X91744579Y-74019961D01*
X91668214Y-74040423D01*
X91668209Y-74040426D01*
X91531290Y-74119475D01*
X91531282Y-74119481D01*
X89019479Y-76631284D01*
X88994562Y-76674443D01*
X88984030Y-76692686D01*
X88940423Y-76768215D01*
X88899499Y-76920943D01*
X88899499Y-76920945D01*
X88899499Y-77089046D01*
X88899500Y-77089059D01*
X88899500Y-80449902D01*
X88879815Y-80516941D01*
X88863181Y-80537583D01*
X88538643Y-80862120D01*
X88477320Y-80895605D01*
X88407628Y-80890621D01*
X88351695Y-80848749D01*
X88349387Y-80845562D01*
X88288494Y-80758597D01*
X88121402Y-80591506D01*
X88121395Y-80591501D01*
X88096455Y-80574038D01*
X88060325Y-80548739D01*
X87927834Y-80455967D01*
X87927830Y-80455965D01*
X87864700Y-80426527D01*
X87713663Y-80356097D01*
X87713659Y-80356096D01*
X87713655Y-80356094D01*
X87485413Y-80294938D01*
X87485403Y-80294936D01*
X87250001Y-80274341D01*
X87249999Y-80274341D01*
X87014596Y-80294936D01*
X87014586Y-80294938D01*
X86786344Y-80356094D01*
X86786335Y-80356098D01*
X86572171Y-80455964D01*
X86572169Y-80455965D01*
X86378597Y-80591505D01*
X86211505Y-80758597D01*
X86081575Y-80944158D01*
X86026998Y-80987783D01*
X85957500Y-80994977D01*
X85895145Y-80963454D01*
X85878425Y-80944158D01*
X85748494Y-80758597D01*
X85581402Y-80591506D01*
X85581395Y-80591501D01*
X85556455Y-80574038D01*
X85520325Y-80548739D01*
X85387834Y-80455967D01*
X85387830Y-80455965D01*
X85324700Y-80426527D01*
X85173663Y-80356097D01*
X85173659Y-80356096D01*
X85173655Y-80356094D01*
X84945413Y-80294938D01*
X84945403Y-80294936D01*
X84710001Y-80274341D01*
X84709999Y-80274341D01*
X84474596Y-80294936D01*
X84474586Y-80294938D01*
X84246344Y-80356094D01*
X84246335Y-80356098D01*
X84032171Y-80455964D01*
X84032169Y-80455965D01*
X83838597Y-80591505D01*
X83671505Y-80758597D01*
X83535965Y-80952169D01*
X83535964Y-80952171D01*
X83436098Y-81166335D01*
X83436094Y-81166344D01*
X83374938Y-81394586D01*
X83374936Y-81394596D01*
X83354341Y-81629999D01*
X83354341Y-81630000D01*
X83374936Y-81865403D01*
X83374938Y-81865413D01*
X83436094Y-82093655D01*
X83436096Y-82093659D01*
X83436097Y-82093663D01*
X83508998Y-82250000D01*
X83535965Y-82307830D01*
X83535967Y-82307834D01*
X83644281Y-82462521D01*
X83671501Y-82501396D01*
X83671506Y-82501402D01*
X83838597Y-82668493D01*
X83838603Y-82668498D01*
X84024158Y-82798425D01*
X84067783Y-82853002D01*
X84074977Y-82922500D01*
X84043454Y-82984855D01*
X84024158Y-83001575D01*
X83838597Y-83131505D01*
X83671505Y-83298597D01*
X83535965Y-83492169D01*
X83535964Y-83492171D01*
X83450062Y-83676389D01*
X83436693Y-83705060D01*
X83436098Y-83706335D01*
X83436094Y-83706344D01*
X83374938Y-83934586D01*
X83374936Y-83934596D01*
X83354341Y-84169999D01*
X83354341Y-84170000D01*
X83374936Y-84405403D01*
X83374938Y-84405413D01*
X83436094Y-84633655D01*
X83436096Y-84633659D01*
X83436097Y-84633663D01*
X83517610Y-84808467D01*
X83535965Y-84847830D01*
X83535967Y-84847834D01*
X83630709Y-84983138D01*
X83671501Y-85041396D01*
X83671506Y-85041402D01*
X83838597Y-85208493D01*
X83838603Y-85208498D01*
X84024158Y-85338425D01*
X84067783Y-85393002D01*
X84074977Y-85462500D01*
X84043454Y-85524855D01*
X84024158Y-85541575D01*
X83838597Y-85671505D01*
X83671505Y-85838597D01*
X83535965Y-86032169D01*
X83535964Y-86032171D01*
X83436098Y-86246335D01*
X83436094Y-86246344D01*
X83374938Y-86474586D01*
X83374936Y-86474596D01*
X83354341Y-86709999D01*
X83374936Y-86945403D01*
X83374938Y-86945413D01*
X83436094Y-87173655D01*
X83436096Y-87173659D01*
X83436097Y-87173663D01*
X83495008Y-87299997D01*
X83535965Y-87387830D01*
X83535967Y-87387834D01*
X83630709Y-87523138D01*
X83671501Y-87581396D01*
X83671506Y-87581402D01*
X83838597Y-87748493D01*
X83838603Y-87748498D01*
X84024158Y-87878425D01*
X84067783Y-87933002D01*
X84074977Y-88002500D01*
X84043454Y-88064855D01*
X84024158Y-88081575D01*
X83838597Y-88211505D01*
X83671505Y-88378597D01*
X83535965Y-88572169D01*
X83535964Y-88572171D01*
X83436098Y-88786335D01*
X83436094Y-88786344D01*
X83374938Y-89014586D01*
X83374936Y-89014596D01*
X83354341Y-89249999D01*
X83354341Y-89250000D01*
X83374936Y-89485403D01*
X83374938Y-89485413D01*
X83436094Y-89713655D01*
X83436096Y-89713659D01*
X83436097Y-89713663D01*
X83500727Y-89852262D01*
X83535965Y-89927830D01*
X83535967Y-89927834D01*
X83632330Y-90065454D01*
X83671501Y-90121396D01*
X83671506Y-90121402D01*
X83838597Y-90288493D01*
X83838603Y-90288498D01*
X84024158Y-90418425D01*
X84067783Y-90473002D01*
X84074977Y-90542500D01*
X84043454Y-90604855D01*
X84024158Y-90621575D01*
X83838597Y-90751505D01*
X83671505Y-90918597D01*
X83535965Y-91112170D01*
X83436098Y-91326335D01*
X83436094Y-91326344D01*
X83386813Y-91510269D01*
X83350448Y-91569930D01*
X83287601Y-91600459D01*
X83218226Y-91592164D01*
X83179357Y-91565858D01*
X83138975Y-91525476D01*
X83074035Y-91460536D01*
X82761282Y-91147783D01*
X82436819Y-90823319D01*
X82403334Y-90761996D01*
X82400500Y-90735638D01*
X82400500Y-55661307D01*
X82400499Y-55661303D01*
X82365895Y-55487334D01*
X82320414Y-55377534D01*
X82320413Y-55377531D01*
X82298016Y-55323459D01*
X82298009Y-55323446D01*
X82204904Y-55184106D01*
X82204903Y-55184104D01*
X82199466Y-55175966D01*
X81885681Y-54862181D01*
X81852196Y-54800858D01*
X81857180Y-54731166D01*
X81899052Y-54675233D01*
X81964516Y-54650816D01*
X81973362Y-54650500D01*
X91979349Y-54650500D01*
X91979350Y-54650499D01*
X92153322Y-54615895D01*
X92235262Y-54581953D01*
X92317203Y-54548013D01*
X92439357Y-54466392D01*
X92464692Y-54449464D01*
X93059336Y-53854818D01*
X93120659Y-53821334D01*
X93147017Y-53818500D01*
X93993638Y-53818500D01*
X94060677Y-53838185D01*
G37*
%TD.AperFunction*%
%TA.AperFunction,Conductor*%
G36*
X92391734Y-77760185D02*
G01*
X92426270Y-77793377D01*
X92482042Y-77873027D01*
X92539170Y-77954615D01*
X92539175Y-77954621D01*
X92695378Y-78110824D01*
X92695384Y-78110829D01*
X92876333Y-78237531D01*
X92876335Y-78237532D01*
X92876338Y-78237534D01*
X92995748Y-78293215D01*
X93005189Y-78297618D01*
X93057628Y-78343790D01*
X93076780Y-78410984D01*
X93056564Y-78477865D01*
X93005189Y-78522382D01*
X92876340Y-78582465D01*
X92876338Y-78582466D01*
X92695377Y-78709175D01*
X92539175Y-78865377D01*
X92412466Y-79046338D01*
X92412465Y-79046340D01*
X92319107Y-79246548D01*
X92319104Y-79246554D01*
X92261930Y-79459929D01*
X92261929Y-79459937D01*
X92242677Y-79679997D01*
X92242677Y-79680002D01*
X92261929Y-79900062D01*
X92261930Y-79900070D01*
X92319104Y-80113445D01*
X92319105Y-80113447D01*
X92319106Y-80113450D01*
X92366288Y-80214632D01*
X92412466Y-80313662D01*
X92412468Y-80313666D01*
X92539170Y-80494615D01*
X92539175Y-80494621D01*
X92695378Y-80650824D01*
X92695384Y-80650829D01*
X92876333Y-80777531D01*
X92876335Y-80777532D01*
X92876338Y-80777534D01*
X92995748Y-80833215D01*
X93005189Y-80837618D01*
X93057628Y-80883790D01*
X93076780Y-80950984D01*
X93056564Y-81017865D01*
X93005189Y-81062382D01*
X92876340Y-81122465D01*
X92876338Y-81122466D01*
X92695377Y-81249175D01*
X92539175Y-81405377D01*
X92412466Y-81586338D01*
X92412465Y-81586340D01*
X92319107Y-81786548D01*
X92319104Y-81786554D01*
X92261930Y-81999929D01*
X92261929Y-81999937D01*
X92242677Y-82219997D01*
X92242677Y-82220002D01*
X92261929Y-82440062D01*
X92261930Y-82440070D01*
X92319104Y-82653445D01*
X92319105Y-82653447D01*
X92319106Y-82653450D01*
X92410536Y-82849523D01*
X92412466Y-82853662D01*
X92412468Y-82853666D01*
X92539170Y-83034615D01*
X92539175Y-83034621D01*
X92695378Y-83190824D01*
X92695384Y-83190829D01*
X92876333Y-83317531D01*
X92876335Y-83317532D01*
X92876338Y-83317534D01*
X92989247Y-83370184D01*
X93005189Y-83377618D01*
X93057628Y-83423790D01*
X93076780Y-83490984D01*
X93056564Y-83557865D01*
X93005189Y-83602382D01*
X92876340Y-83662465D01*
X92876338Y-83662466D01*
X92695377Y-83789175D01*
X92539175Y-83945377D01*
X92412466Y-84126338D01*
X92412465Y-84126340D01*
X92319107Y-84326548D01*
X92319104Y-84326554D01*
X92261930Y-84539929D01*
X92261929Y-84539937D01*
X92242677Y-84759997D01*
X92242677Y-84760002D01*
X92261929Y-84980062D01*
X92261930Y-84980070D01*
X92319104Y-85193445D01*
X92319105Y-85193447D01*
X92319106Y-85193450D01*
X92377140Y-85317904D01*
X92412466Y-85393662D01*
X92412468Y-85393666D01*
X92539170Y-85574615D01*
X92539175Y-85574621D01*
X92695378Y-85730824D01*
X92695384Y-85730829D01*
X92876333Y-85857531D01*
X92876335Y-85857532D01*
X92876338Y-85857534D01*
X92995748Y-85913215D01*
X93005189Y-85917618D01*
X93057628Y-85963790D01*
X93076780Y-86030984D01*
X93056564Y-86097865D01*
X93005189Y-86142382D01*
X92876340Y-86202465D01*
X92876338Y-86202466D01*
X92695377Y-86329175D01*
X92539175Y-86485377D01*
X92412466Y-86666338D01*
X92412465Y-86666340D01*
X92319107Y-86866548D01*
X92319104Y-86866554D01*
X92261930Y-87079929D01*
X92261929Y-87079937D01*
X92242677Y-87299997D01*
X92242677Y-87300002D01*
X92261929Y-87520062D01*
X92261930Y-87520070D01*
X92319104Y-87733445D01*
X92319105Y-87733447D01*
X92319106Y-87733450D01*
X92396536Y-87899500D01*
X92412466Y-87933662D01*
X92412468Y-87933666D01*
X92539170Y-88114615D01*
X92539175Y-88114621D01*
X92695378Y-88270824D01*
X92695384Y-88270829D01*
X92876333Y-88397531D01*
X92876335Y-88397532D01*
X92876338Y-88397534D01*
X92923402Y-88419480D01*
X93005189Y-88457618D01*
X93057628Y-88503790D01*
X93076780Y-88570984D01*
X93056564Y-88637865D01*
X93005189Y-88682382D01*
X92876340Y-88742465D01*
X92876338Y-88742466D01*
X92695377Y-88869175D01*
X92539175Y-89025377D01*
X92412466Y-89206338D01*
X92412465Y-89206340D01*
X92345476Y-89350000D01*
X92319425Y-89405867D01*
X92319107Y-89406548D01*
X92319104Y-89406554D01*
X92261930Y-89619929D01*
X92261929Y-89619937D01*
X92242677Y-89839997D01*
X92242677Y-89840002D01*
X92261929Y-90060062D01*
X92261930Y-90060070D01*
X92319104Y-90273445D01*
X92319108Y-90273456D01*
X92411959Y-90472576D01*
X92422451Y-90541653D01*
X92393931Y-90605437D01*
X92335454Y-90643676D01*
X92265587Y-90644230D01*
X92211896Y-90612661D01*
X88622697Y-87023462D01*
X88589212Y-86962139D01*
X88586850Y-86924978D01*
X88605659Y-86710000D01*
X88585063Y-86474592D01*
X88524885Y-86250003D01*
X88523905Y-86246344D01*
X88523904Y-86246343D01*
X88523903Y-86246337D01*
X88424035Y-86032171D01*
X88420641Y-86027323D01*
X88288494Y-85838597D01*
X88121402Y-85671506D01*
X88121396Y-85671501D01*
X87935842Y-85541575D01*
X87892217Y-85486998D01*
X87885023Y-85417500D01*
X87916546Y-85355145D01*
X87935842Y-85338425D01*
X87965149Y-85317904D01*
X88121401Y-85208495D01*
X88288495Y-85041401D01*
X88424035Y-84847830D01*
X88523903Y-84633663D01*
X88585063Y-84405408D01*
X88605659Y-84170000D01*
X88585063Y-83934592D01*
X88550671Y-83806239D01*
X88552334Y-83736393D01*
X88582763Y-83686470D01*
X90358506Y-81910728D01*
X90358511Y-81910724D01*
X90368714Y-81900520D01*
X90368716Y-81900520D01*
X90480520Y-81788716D01*
X90553629Y-81662087D01*
X90553630Y-81662084D01*
X90553632Y-81662083D01*
X90559575Y-81651788D01*
X90559577Y-81651785D01*
X90600500Y-81499058D01*
X90600500Y-81340943D01*
X90600500Y-78300097D01*
X90620185Y-78233058D01*
X90636819Y-78212416D01*
X91072417Y-77776819D01*
X91133740Y-77743334D01*
X91160098Y-77740500D01*
X92324695Y-77740500D01*
X92391734Y-77760185D01*
G37*
%TD.AperFunction*%
%TD*%
M02*
